<svg width="34" height="27" viewBox="0 0 34 27" fill="none" xmlns="http://www.w3.org/2000/svg">
<path opacity="0.3" fill-rule="evenodd" clip-rule="evenodd" d="M13.2226 12.2412C9.97702 12.2412 7.34595 9.61018 7.34595 6.36458C7.34595 3.11899 9.97702 0.487915 13.2226 0.487915C16.4682 0.487915 19.0993 3.11899 19.0993 6.36458C19.0993 9.61018 16.4682 12.2412 13.2226 12.2412ZM27.4451 12.2413C26.8928 12.2413 26.4451 11.7935 26.4451 11.2413V7.83375H23.0376C22.4853 7.83375 22.0376 7.38603 22.0376 6.83375V5.89542C22.0376 5.34313 22.4853 4.89542 23.0376 4.89542H26.4451V1.48792C26.4451 0.935632 26.8928 0.487915 27.4451 0.487915H28.3834C28.9357 0.487915 29.3834 0.935631 29.3834 1.48792V4.89542H32.7909C33.3432 4.89542 33.7909 5.34313 33.7909 5.89542V6.83375C33.7909 7.38603 33.3432 7.83375 32.7909 7.83375H29.3834V11.2412C29.3834 11.7935 28.9357 12.2413 28.3834 12.2413H27.4451Z" fill="white"/>
<path d="M0.000957433 25.7564C0.570416 18.7445 6.26146 15.1796 13.198 15.1796C20.2322 15.1796 26.0114 18.5486 26.4419 25.7576C26.4591 26.0447 26.4419 26.9329 25.3383 26.9329C19.8942 26.9329 11.8043 26.9329 1.06882 26.9329C0.70037 26.9329 -0.0300617 26.1383 0.000957433 25.7564Z" fill="white"/>
</svg>
