<svg width="30" height="30" viewBox="0 0 30 30" fill="none" xmlns="http://www.w3.org/2000/svg">
<path opacity="0.3" fill-rule="evenodd" clip-rule="evenodd" d="M1.26038 14.2407C0.674598 14.8265 0.674599 15.7763 1.26038 16.3621L5.36111 20.4628C5.94689 21.0486 6.89664 21.0486 7.48243 20.4628L11.5831 16.3621C12.1689 15.7763 12.1689 14.8265 11.5831 14.2407L7.48243 10.14C6.89664 9.55424 5.94689 9.55424 5.3611 10.14L1.26038 14.2407ZM18.859 14.2407C18.2732 14.8265 18.2732 15.7763 18.859 16.3621L22.9597 20.4628C23.5455 21.0486 24.4952 21.0486 25.081 20.4628L29.1817 16.3621C29.7675 15.7763 29.7675 14.8265 29.1817 14.2407L25.081 10.14C24.4952 9.55424 23.5455 9.55424 22.9597 10.14L18.859 14.2407Z" fill="#FDEAEC"/>
<path fill-rule="evenodd" clip-rule="evenodd" d="M10.0597 5.44143C9.47391 6.02722 9.47391 6.97696 10.0597 7.56275L14.1604 11.6635C14.7462 12.2493 15.696 12.2493 16.2817 11.6635L20.3825 7.56275C20.9683 6.97696 20.9683 6.02721 20.3825 5.44143L16.2817 1.34071C15.696 0.75492 14.7462 0.754921 14.1604 1.34071L10.0597 5.44143ZM10.0597 23.04C9.47391 23.6258 9.47392 24.5756 10.0597 25.1613L14.1604 29.2621C14.7462 29.8478 15.696 29.8478 16.2817 29.2621L20.3825 25.1613C20.9683 24.5756 20.9683 23.6258 20.3825 23.04L16.2817 18.9393C15.696 18.3535 14.7462 18.3535 14.1604 18.9393L10.0597 23.04Z" fill="#FDEAEC"/>
</svg>
