<svg width="31" height="31" viewBox="0 0 31 31" fill="none" xmlns="http://www.w3.org/2000/svg">
<path opacity="0.3" d="M15.1114 28.3033C22.0663 28.3033 27.7043 22.6653 27.7043 15.7104C27.7043 8.75557 22.0663 3.11755 15.1114 3.11755C8.15657 3.11755 2.51855 8.75557 2.51855 15.7104C2.51855 22.6653 8.15657 28.3033 15.1114 28.3033Z" fill="white"/>
<path d="M21.1169 10.4436C21.5914 9.9352 22.3883 9.90772 22.8967 10.3823C23.4051 10.8568 23.4326 11.6537 22.9581 12.1621L14.1431 21.6067C13.6827 22.1 12.9153 22.1428 12.4029 21.7036L7.99544 17.9258C7.46739 17.4732 7.40624 16.6782 7.85885 16.1501C8.31147 15.6221 9.10645 15.5609 9.6345 16.0135L13.1255 19.0058L21.1169 10.4436Z" fill="white"/>
</svg>
