<svg width="33" height="33" viewBox="0 0 33 33" fill="none" xmlns="http://www.w3.org/2000/svg">
<path opacity="0.3" d="M17.5 32.0837C25.5542 32.0837 32.0834 25.5545 32.0834 17.5003C32.0834 9.44617 25.5542 2.91699 17.5 2.91699C9.44587 2.91699 2.91669 9.44617 2.91669 17.5003C2.91669 25.5545 9.44587 32.0837 17.5 32.0837Z" fill="white"/>
<path fill-rule="evenodd" clip-rule="evenodd" d="M17.5518 15.4894L21.6766 11.3646C22.2461 10.7951 23.1695 10.7951 23.739 11.3646C24.3085 11.9342 24.3085 12.8575 23.739 13.427L19.6142 17.5518L23.739 21.6766C24.3085 22.2461 24.3085 23.1695 23.739 23.739C23.1695 24.3085 22.2461 24.3085 21.6766 23.739L17.5518 19.6142L13.427 23.739C12.8575 24.3085 11.9342 24.3085 11.3646 23.739C10.7951 23.1695 10.7951 22.2461 11.3646 21.6766L15.4894 17.5518L11.3646 13.427C10.7951 12.8575 10.7951 11.9342 11.3646 11.3646C11.9342 10.7951 12.8575 10.7951 13.427 11.3646L17.5518 15.4894Z" fill="white"/>
</svg>
