<svg width="40" height="40" viewBox="0 0 40 40" fill="none" xmlns="http://www.w3.org/2000/svg">
<rect width="40" height="40" rx="6" fill="#E9EEF2"/>
<path opacity="0.3" fill-rule="evenodd" clip-rule="evenodd" d="M20.8174 25.0712L24.4005 20.248H21.7132V15.4248L16.3386 22.6596H19.0259V25.0712H12.7107C12.0429 25.0712 11.5015 24.5313 11.5015 23.8654V11.8074C11.5015 11.1414 12.0429 10.6016 12.7107 10.6016H27.2221C27.89 10.6016 28.4314 11.1414 28.4314 11.8074V23.8654C28.4314 24.5313 27.89 25.0712 27.2221 25.0712H20.8174Z" fill="#215480"/>
<path fill-rule="evenodd" clip-rule="evenodd" d="M17.3108 21.3454L16.3382 22.6547H19.0255V27.4779L24.4001 20.2431H24.152L29.8909 16.1103C30.1617 15.9153 30.5396 15.9761 30.7351 16.246C30.8095 16.3488 30.8496 16.4723 30.8496 16.599V28.6837C30.8496 30.0155 29.7668 31.0952 28.431 31.0952H11.5011C10.1653 31.0952 9.08252 30.0155 9.08252 28.6837V16.599C9.08252 16.2661 9.35323 15.9961 9.68716 15.9961C9.81426 15.9961 9.93813 16.0361 10.0412 16.1103L17.3108 21.3454Z" fill="#215480"/>
</svg>
