<svg width="27" height="25" viewBox="0 0 27 25" fill="none" xmlns="http://www.w3.org/2000/svg">
<path opacity="0.3" fill-rule="evenodd" clip-rule="evenodd" d="M14.5261 17.6498L18.8471 11.7729H15.6063V5.89589L9.12484 14.7114H12.3656V17.6498H4.74984C3.94442 17.6498 3.2915 16.992 3.2915 16.1806V1.48816C3.2915 0.676724 3.94442 0.0189209 4.74984 0.0189209H22.2498C23.0553 0.0189209 23.7082 0.676724 23.7082 1.48816V16.1806C23.7082 16.992 23.0553 17.6498 22.2498 17.6498H14.5261Z" fill="#FFF6E6"/>
<path fill-rule="evenodd" clip-rule="evenodd" d="M10.2979 13.1162L9.125 14.7115H12.3657V20.5885L18.8472 11.7731H18.5481L25.4689 6.73728C25.7954 6.49973 26.2512 6.5738 26.487 6.90271C26.5767 7.0279 26.625 7.17839 26.625 7.33282V22.0578C26.625 23.6806 25.3192 24.9962 23.7083 24.9962H3.29167C1.68084 24.9962 0.375 23.6806 0.375 22.0578V7.33282C0.375 6.9271 0.701459 6.5982 1.10417 6.5982C1.25745 6.5982 1.40683 6.64686 1.53109 6.73728L10.2979 13.1162Z" fill="#FFF6E6"/>
</svg>
