<svg width="27" height="33" viewBox="0 0 27 33" fill="none" xmlns="http://www.w3.org/2000/svg">
<path fill-rule="evenodd" clip-rule="evenodd" d="M15.3117 25.2733C17.734 24.0948 20.75 23.3402 24.3598 23.0095C24.3598 22.9201 24.3598 17.8428 24.3598 7.77781H24.3598C24.3598 7.41188 24.1162 7.11523 23.8157 7.11523C23.8111 7.11523 23.8065 7.11531 23.8019 7.11545C20.7232 7.21036 17.6444 8.09098 14.5657 9.75729C14.5657 9.81625 14.5657 14.7831 14.5657 24.6579H14.5657C14.5657 25.0239 14.8093 25.3205 15.1098 25.3205C15.179 25.3205 15.2475 25.3045 15.3117 25.2733Z" fill="white"/>
<path opacity="0.3" fill-rule="evenodd" clip-rule="evenodd" d="M11.6431 25.2733C9.22081 24.0948 6.20477 23.3402 2.59497 23.0095C2.59497 22.9201 2.59497 17.8428 2.59497 7.77781H2.595C2.595 7.41188 2.83859 7.11523 3.13909 7.11523C3.14368 7.11523 3.14827 7.11531 3.15286 7.11545C6.2316 7.21036 9.31034 8.09098 12.3891 9.75729C12.3891 9.81625 12.3891 14.7831 12.3891 24.6579H12.3891C12.3891 25.0239 12.1455 25.3205 11.845 25.3205C11.7758 25.3205 11.7073 25.3045 11.6431 25.2733Z" fill="#E6F7F1"/>
</svg>
