<svg width="24" height="24" viewBox="0 0 24 24" fill="none" xmlns="http://www.w3.org/2000/svg">
<path opacity="0.3" fill-rule="evenodd" clip-rule="evenodd" d="M4 4.00006L11.6314 2.56917C11.875 2.52349 12.125 2.52349 12.3686 2.56917L20 4.00006V13.2831C20 16.2174 18.4883 18.9448 16 20.5001L12.53 22.6688C12.2057 22.8715 11.7943 22.8715 11.47 22.6688L8 20.5001C5.51165 18.9448 4 16.2174 4 13.2831V4.00006Z" fill="white"/>
<path fill-rule="evenodd" clip-rule="evenodd" d="M10.586 12L9.1718 10.5858C8.78128 10.1952 8.78128 9.56208 9.1718 9.17156C9.56232 8.78103 10.1955 8.78103 10.586 9.17156L12.0002 10.5858L13.4144 9.17156C13.805 8.78103 14.4381 8.78103 14.8287 9.17156C15.2192 9.56208 15.2192 10.1952 14.8287 10.5858L13.4144 12L14.8287 13.4142C15.2192 13.8047 15.2192 14.4379 14.8287 14.8284C14.4381 15.2189 13.805 15.2189 13.4144 14.8284L12.0002 13.4142L10.586 14.8284C10.1955 15.2189 9.56232 15.2189 9.1718 14.8284C8.78128 14.4379 8.78128 13.8047 9.1718 13.4142L10.586 12Z" fill="white"/>
</svg>
