<svg width="92" height="98" viewBox="0 0 92 98" fill="none" xmlns="http://www.w3.org/2000/svg">
<path d="M29.9525 -12H69.3488C71.1222 -12 72.8383 -11.3716 74.1923 -10.2263L98.0102 9.91971C99.695 11.3447 100.667 13.4394 100.667 15.646V78.4167C100.667 87.3694 100.565 88 91.381 88H29.9525C20.769 88 20.6667 87.3694 20.6667 78.4167V-2.41667C20.6667 -11.3694 20.769 -12 29.9525 -12Z" fill="#D6293B"/>
<path fill-rule="evenodd" clip-rule="evenodd" d="M53.5956 42.9999L46.5245 35.9288C44.5719 33.9762 44.5719 30.8104 46.5245 28.8578C48.4771 26.9052 51.643 26.9052 53.5956 28.8578L60.6667 35.9288L67.7377 28.8578C69.6903 26.9052 72.8562 26.9052 74.8088 28.8578C76.7614 30.8104 76.7614 33.9762 74.8088 35.9288L67.7377 42.9999L74.8088 50.071C76.7614 52.0236 76.7614 55.1894 74.8088 57.1421C72.8562 59.0947 69.6903 59.0947 67.7377 57.1421L60.6667 50.071L53.5956 57.1421C51.643 59.0947 48.4771 59.0947 46.5245 57.1421C44.5719 55.1894 44.5719 52.0236 46.5245 50.071L53.5956 42.9999Z" fill="#EE2D41"/>
</svg>
