<svg width="89" height="98" viewBox="0 0 89 98" fill="none" xmlns="http://www.w3.org/2000/svg">
<path d="M29.6191 -12H69.0154C70.7889 -12 72.5049 -11.3716 73.8589 -10.2263L97.6769 9.91971C99.3616 11.3447 100.333 13.4394 100.333 15.646V78.4167C100.333 87.3694 100.231 88 91.0477 88H29.6191C20.4356 88 20.3334 87.3694 20.3334 78.4167V-2.41667C20.3334 -11.3694 20.4356 -12 29.6191 -12ZM54.7084 56.75C55.9063 56.75 57.1042 56.2708 58.0625 55.3125L77.2292 36.1458C79.1459 34.2292 79.1459 31.3542 77.2292 29.4375C75.3125 27.5208 72.4375 27.5208 70.5209 29.4375L54.7084 45.25L48.4792 39.0208C46.8021 37.1042 43.6875 37.1042 41.7709 39.0208C39.8542 40.9375 39.8542 43.8125 41.7709 45.7292L51.3542 55.3125C52.3125 56.2708 53.5105 56.75 54.7084 56.75Z" fill="#00996A"/>
<path fill-rule="evenodd" clip-rule="evenodd" d="M54.7084 56.75C53.5105 56.75 52.3125 56.2708 51.3542 55.3125L41.7709 45.7292C39.8542 43.8125 39.8542 40.9375 41.7709 39.0208C43.6875 37.1042 46.8021 37.1042 48.4792 39.0208L54.7084 45.25L70.5209 29.4375C72.4375 27.5208 75.3125 27.5208 77.2292 29.4375C79.1459 31.3542 79.1459 34.2292 77.2292 36.1458L58.0625 55.3125C57.1042 56.2708 55.9063 56.75 54.7084 56.75Z" fill="#00B37A"/>
</svg>
