<svg width="152" height="114" viewBox="0 0 152 114" fill="none" xmlns="http://www.w3.org/2000/svg">
<path opacity="0.5" d="M162.834 7.99996H91.7018C74.8547 7.99996 61.1975 17.6258 61.1975 29.5V79.6351C47.9978 79.1767 40.8613 73.7229 40.8613 64.0303V9.30299C40.8613 -0.832873 48.6655 -6.33337 63.0463 -6.33337H140.694C154.445 -6.33337 162.183 -1.30342 162.834 7.99996Z" fill="#4CADCD"/>
<path fill-rule="evenodd" clip-rule="evenodd" d="M103.718 22.3334H181.365C195.746 22.3334 203.55 27.8339 203.55 37.9697V92.697C203.55 102.833 195.746 108.333 181.365 108.333H103.718C89.3373 108.333 81.5332 102.833 81.5332 92.697V37.9697C81.5332 27.8339 89.3373 22.3334 103.718 22.3334Z" fill="#4CADCD"/>
</svg>
