<svg width="100" height="156" viewBox="0 0 100 156" fill="none" xmlns="http://www.w3.org/2000/svg">
<path fill-rule="evenodd" clip-rule="evenodd" d="M214.472 63.091C212.694 58.2927 209.558 54.3835 205.558 50.8694C203.564 49.1144 201.446 47.412 199.766 45.4048C198.055 43.3535 197.028 41.0437 196.429 38.5511C195.182 33.3766 195.544 28.0024 194.03 22.8616C192.722 18.4206 190.316 14.2844 187.208 10.6505C180.789 3.14306 171.779 -2.31726 162.371 -6.39673C157.248 -8.62458 151.412 -11.3337 145.561 -10.6885C139.61 -10.0306 134.634 -6.55016 128.585 -6.14873C122.455 -5.74099 116.457 -7.3215 110.672 -8.94614C104.887 -10.5708 99.2049 -12.2942 93.2044 -12.9584C85.622 -13.7991 77.9108 -12.9731 70.6677 -10.8566C70.3093 -10.864 69.9553 -10.7849 69.6426 -10.6275L69.2284 -10.4174C67.4779 -9.8569 65.7617 -9.22638 64.0798 -8.5258C54.9645 -4.70273 46.9701 1.40492 41.5407 9.03213C38.4983 13.3176 36.3664 18.0045 34.892 22.8742C33.1557 26.2546 31.7198 29.753 30.5976 33.3366C28.9594 38.5532 27.8103 44.1039 28.2573 49.5368C28.6622 54.3519 30.4525 58.856 33.2374 62.9649C38.3392 70.4954 45.9076 76.3445 51.2458 83.7153C54.0541 87.6014 56.0199 91.8386 56.598 96.475C57.2673 101.83 56.598 107.225 56.0784 112.564C55.5495 118.075 55.1868 123.644 56.4061 129.104C57.5762 134.315 60.3283 139.136 63.9417 143.31C70.4547 150.834 81.0654 157.11 92.1115 155.834C97.4941 155.204 102.044 152.682 105.741 149.201C109.486 145.696 112.329 141.534 115.858 137.871C131.955 121.168 157.192 116.013 178.933 107.749C189.565 103.711 200.742 98.8016 208.299 90.7015C211.835 86.9184 214.489 82.4732 215.516 77.5867C216.54 72.7533 216.181 67.7656 214.472 63.091Z" fill="#E6F2FF"/>
<path opacity="0.35" fill-rule="evenodd" clip-rule="evenodd" d="M46.7963 63.4463C46.6835 63.4951 46.566 63.5345 46.4452 63.564L35.1441 66.3908C34.9629 66.4363 34.7689 66.4152 34.605 66.3322C34.4411 66.2492 34.3206 66.1112 34.27 65.9484C34.2194 65.7857 34.2429 65.6115 34.3353 65.4643C34.4277 65.3171 34.5814 65.2089 34.7626 65.1634L46.0614 62.3366C46.6512 62.1895 46.9554 61.4181 46.7191 60.6552L40.2974 39.9447L40.2716 39.8711C40.1409 39.768 40.0575 39.6249 40.0376 39.4697C40.0376 39.4423 40.0376 39.4171 40.0259 39.3898C39.9123 39.2346 39.7698 39.0981 39.6046 38.9863C39.4896 38.9028 39.3555 38.8432 39.212 38.8116C39.0684 38.78 38.9188 38.7772 38.7738 38.8034L37.8377 39.0388C37.7332 39.0645 37.6235 39.0681 37.5171 39.0493L43.3678 57.944C43.8124 59.3815 43.087 60.8191 41.7507 61.1554L30.838 63.8877C31.3997 65.7246 30.3395 67.5972 28.4696 68.0659C26.5998 68.5346 24.6105 67.4249 24.0231 65.5901L13.6581 68.192C12.9094 68.3439 12.1256 68.2655 11.4325 67.9692C11.0398 67.8294 10.6864 67.6133 10.3975 67.3364C10.1086 67.0595 9.89147 66.7288 9.76155 66.3677L3.91089 47.4668C3.83044 47.5318 3.73432 47.5793 3.63006 47.6055L2.69395 47.8388C2.55436 47.883 2.42751 47.9546 2.32265 48.0484C2.21779 48.1422 2.13756 48.2558 2.08782 48.381C1.93126 48.7475 1.91398 49.1502 2.03867 49.5265L8.45803 70.2328C8.69205 71 9.39413 71.5212 9.9909 71.3741L21.9309 68.3749C22.1122 68.3295 22.3061 68.3505 22.47 68.4335C22.6339 68.5165 22.7544 68.6545 22.805 68.8173C22.8556 68.9801 22.8321 69.1542 22.7397 69.3014C22.6474 69.4486 22.4936 69.5569 22.3124 69.6023L10.363 72.591C9.00565 72.9294 7.53596 72.0214 7.08663 70.5649L0.660257 49.8586C0.448186 49.2073 0.485265 48.511 0.765569 47.8808C0.896853 47.5772 1.10329 47.3044 1.36925 47.0831C1.63522 46.8617 1.95376 46.6975 2.30078 46.603L3.23689 46.3676C3.34209 46.3415 3.45252 46.3372 3.55985 46.355L3.47794 46.0964C3.00988 44.5874 4.51936 43.0342 5.76204 42.7232L17.7325 39.7282C18.0723 39.6493 18.4276 39.6401 18.7719 39.7012C19.1162 39.7623 19.4409 39.8922 19.7217 40.0813C19.8527 39.7898 20.0549 39.5283 20.3133 39.3163C20.5717 39.1042 20.8798 38.9469 21.2148 38.856L33.8523 35.7033C34.199 35.6235 34.5614 35.6155 34.9121 35.6799C35.2628 35.7444 35.5926 35.8796 35.8766 36.0754C36.4688 36.4792 36.8944 37.0486 37.0865 37.6937L37.1684 37.9564C37.2489 37.8913 37.345 37.8439 37.4493 37.8177L38.3854 37.5844C38.9821 37.4424 39.6172 37.518 40.1523 37.7946C40.4113 36.9547 40.9317 36.1987 41.6524 35.6151C41.7925 35.5007 41.8945 35.3536 41.947 35.1901C41.9995 35.0267 42.0005 34.8534 41.9497 34.6896C41.899 34.5257 41.7987 34.3777 41.6598 34.262C41.5209 34.1464 41.349 34.0676 41.1633 34.0346C40.2644 33.8881 39.4292 33.5187 38.7518 32.9683C38.0744 32.4179 37.5819 31.7083 37.3299 30.9198L36.7519 29.0598C36.3457 29.0722 35.9487 28.9505 35.6359 28.7175C35.3231 28.4845 35.1164 28.1566 35.0549 27.7959C34.9935 27.4352 35.0815 27.0667 35.3024 26.7604C35.5233 26.4541 35.8617 26.2313 36.2534 26.1341L45.4108 23.8453C45.8357 23.7394 46.29 23.7893 46.6739 23.984C47.0579 24.1786 47.3401 24.5022 47.4586 24.8836C47.5178 25.0718 47.5347 25.2688 47.5082 25.4629C47.4816 25.6571 47.4123 25.8445 47.3041 26.0143C47.1536 26.2504 46.9344 26.4451 46.6699 26.5776L47.2456 28.4376C47.4831 29.2299 47.4691 30.066 47.2053 30.8515C46.9414 31.6371 46.4382 32.3406 45.7525 32.8828C45.6122 32.997 45.51 33.1439 45.4574 33.3072C45.4048 33.4706 45.4038 33.6438 45.4546 33.8076C45.5053 33.9714 45.6058 34.1193 45.7448 34.2347C45.8838 34.3501 46.0558 34.4286 46.2416 34.4612C47.1386 34.6087 47.9722 34.9773 48.6491 35.5259C49.3261 36.0745 49.8198 36.7814 50.075 37.5676L50.653 39.4255C51.0522 39.4216 51.4395 39.547 51.744 39.7788C52.0485 40.0105 52.2498 40.3331 52.3109 40.6873C52.3721 41.0415 52.289 41.4037 52.0769 41.7074C51.8648 42.011 51.5379 42.2359 51.1562 42.3406L43.1455 44.373L48.0858 60.3042C48.4953 61.6304 47.9219 62.9566 46.7963 63.4421V63.4463ZM25.3969 65.2496C25.7643 66.4056 26.9672 67.118 28.0858 66.8385C29.2045 66.559 29.8223 65.3904 29.4713 64.2303L29.1156 64.3185L27.3697 64.7557L25.6309 65.1908L25.3969 65.2496ZM41.3552 59.928C41.9379 59.7851 42.2211 59.0348 41.9917 58.2907L35.7198 38.0321C35.6112 37.6619 35.3713 37.3336 35.0364 37.0968C34.9252 37.0164 34.7956 36.9591 34.6568 36.9289C34.518 36.8988 34.3736 36.8965 34.2337 36.9224L21.5963 40.075C21.0346 40.2179 20.7327 40.9703 20.9644 41.7143L27.674 63.358L28.7318 63.0932L41.3692 59.9406L41.3552 59.928ZM25.2401 63.9591L26.2979 63.6943L19.5907 42.0653C19.4829 41.6954 19.2438 41.367 18.9097 41.13C18.7991 41.0493 18.6699 40.9916 18.5315 40.9611C18.3931 40.9306 18.2489 40.928 18.1093 40.9535L6.1435 43.9485C5.49525 44.1145 4.62467 45.0456 4.84465 45.756L11.1283 66.0104C11.2045 66.1907 11.3229 66.3541 11.4755 66.4897C11.6282 66.6253 11.8114 66.7299 12.0129 66.7965C12.4047 66.9684 12.8474 67.0236 13.2766 66.9541L25.2471 63.9591H25.2401ZM50.7724 41.1195C50.8329 41.1025 50.8839 41.0654 50.9152 41.0159C50.9465 40.9663 50.9557 40.908 50.9409 40.8526C50.9224 40.7975 50.8809 40.751 50.825 40.7228C50.7692 40.6946 50.7034 40.6869 50.6413 40.7013C50.5902 40.7143 50.5376 40.722 50.4845 40.7244C50.4386 40.7469 50.3899 40.7646 50.3394 40.7769L42.6353 42.7316L42.764 43.1519L50.7701 41.1216L50.7724 41.1195ZM42.2538 41.4999L49.2746 39.7198L48.7083 37.8997C48.5244 37.3406 48.1705 36.8386 47.6864 36.4502C47.2023 36.0619 46.6071 35.8025 45.9678 35.7012C45.5216 35.6241 45.1083 35.4367 44.7743 35.16C44.4403 34.8834 44.1989 34.5285 44.0773 34.1353C43.9557 33.7422 43.9587 33.3263 44.086 32.9346C44.2132 32.5429 44.4597 32.1909 44.7977 31.9181C45.2858 31.5344 45.6455 31.0364 45.8364 30.4796C46.0273 29.9228 46.0421 29.3293 45.8789 28.7655L45.3149 26.9475L38.1303 28.7445L38.6966 30.5709C38.8805 31.13 39.2344 31.632 39.7185 32.0203C40.2026 32.4087 40.7978 32.6681 41.4371 32.7693C41.8832 32.8464 42.2966 33.0339 42.6306 33.3105C42.9646 33.5872 43.206 33.9421 43.3276 34.3352C43.4492 34.7284 43.4462 35.1442 43.3189 35.536C43.1917 35.9277 42.9452 36.2797 42.6072 36.5525C42.2219 36.8602 41.9152 37.239 41.708 37.6631C41.5007 38.0871 41.398 38.5464 41.4066 39.0094C41.5156 39.1999 41.6026 39.3999 41.6664 39.6063L42.2562 41.5084L42.2538 41.4999ZM45.9234 25.4826C45.9848 25.4665 46.0369 25.4296 46.0685 25.3796C46.0845 25.3551 46.0948 25.328 46.0989 25.2998C46.1029 25.2716 46.1005 25.243 46.0919 25.2157C46.074 25.1605 46.0328 25.1137 45.9772 25.0854C45.9499 25.071 45.9197 25.0617 45.8883 25.0581C45.8569 25.0545 45.8251 25.0566 45.7946 25.0643L36.6348 27.3552C36.6041 27.3628 36.5753 27.3758 36.5502 27.3934C36.525 27.4109 36.504 27.4328 36.4882 27.4577C36.4725 27.4826 36.4623 27.51 36.4584 27.5384C36.4544 27.5668 36.4567 27.5956 36.4652 27.6232C36.4736 27.6508 36.488 27.6766 36.5076 27.6992C36.5272 27.7218 36.5515 27.7407 36.5792 27.7549C36.6069 27.769 36.6375 27.7782 36.6691 27.7817C36.7007 27.7853 36.7328 27.7832 36.7636 27.7756L45.6191 25.5583H45.6332L45.9234 25.4847V25.4826ZM38.7575 56.6325C38.9328 56.5731 39.0747 56.4536 39.1519 56.3003C39.2292 56.147 39.2355 55.9724 39.1693 55.8149C39.1032 55.6574 38.9702 55.53 38.7995 55.4606C38.6287 55.3912 38.4343 55.3856 38.259 55.445L28.7809 57.8157C28.5997 57.8612 28.4459 57.9694 28.3536 58.1166C28.2612 58.2638 28.2377 58.438 28.2883 58.6007C28.3389 58.7635 28.4594 58.9016 28.6233 58.9845C28.7872 59.0675 28.9811 59.0886 29.1624 59.0432L38.6404 56.6724C38.6807 56.6622 38.7199 56.6489 38.7575 56.6325ZM22.633 60.6741C22.8084 60.6147 22.9503 60.4953 23.0275 60.3419C23.1047 60.1886 23.111 60.014 23.0449 59.8565C22.9788 59.6991 22.8458 59.5716 22.675 59.5023C22.5043 59.4329 22.3099 59.4273 22.1345 59.4866L21.0089 59.7683C20.8276 59.8134 20.6738 59.9214 20.5812 60.0684C20.4886 60.2154 20.4648 60.3894 20.5151 60.5522C20.5654 60.715 20.6856 60.8531 20.8493 60.9363C21.013 61.0195 21.2068 61.0408 21.388 60.9957L22.516 60.714C22.5563 60.7039 22.5954 60.6905 22.633 60.6741ZM18.6546 61.6766C18.8299 61.6176 18.9719 61.4983 19.0494 61.3452C19.1269 61.1921 19.1334 61.0176 19.0676 60.8601C19.0018 60.7026 18.8691 60.5751 18.6986 60.5055C18.5281 60.436 18.3338 60.4301 18.1584 60.4892L12.6658 61.8637C12.4855 61.908 12.3322 62.0148 12.2396 62.1607C12.147 62.3065 12.1227 62.4794 12.172 62.6413C12.2214 62.8033 12.3403 62.941 12.5027 63.0241C12.6651 63.1073 12.8576 63.1291 13.0379 63.0848L18.5305 61.7103C18.5709 61.7004 18.6101 61.6871 18.6475 61.6703L18.6546 61.6766ZM32.1883 52.9902C32.364 52.9308 32.5062 52.8112 32.5836 52.6577C32.6611 52.5041 32.6675 52.3293 32.6014 52.1715C32.5353 52.0138 32.4021 51.8861 32.2312 51.8165C32.0602 51.7469 31.8655 51.7412 31.6899 51.8006L27.3744 52.8809C27.1932 52.926 27.0393 53.034 26.9467 53.181C26.8541 53.328 26.8303 53.502 26.8806 53.6648C26.9309 53.8276 27.0511 53.9657 27.2148 54.0489C27.3785 54.1321 27.5723 54.1534 27.7535 54.1083L32.0713 53.028C32.1112 53.0176 32.1502 53.0049 32.1883 52.9902ZM19.9019 56.0629C20.0776 56.0038 20.2199 55.8845 20.2976 55.7312C20.3753 55.5778 20.382 55.4031 20.3162 55.2453C20.2504 55.0876 20.1175 54.9598 19.9468 54.89C19.776 54.8202 19.5814 54.8142 19.4058 54.8733L11.257 56.912C11.0757 56.9571 10.9219 57.0651 10.8293 57.2121C10.7367 57.3591 10.7129 57.5332 10.7632 57.6959C10.8135 57.8587 10.9337 57.9969 11.0974 58.08C11.2611 58.1632 11.4549 58.1846 11.6361 58.1394L19.7849 56.1007C19.8249 56.0907 19.864 56.078 19.9019 56.0629ZM34.2197 47.2587C34.395 47.1996 34.537 47.0804 34.6145 46.9273C34.692 46.7741 34.6985 46.5997 34.6327 46.4422C34.5669 46.2847 34.4342 46.1572 34.2637 46.0876C34.0932 46.018 33.8989 46.0121 33.7235 46.0712L25.7666 48.0595C25.587 48.1043 25.4345 48.2115 25.3427 48.3573C25.251 48.5032 25.2276 48.6757 25.2775 48.8371C25.3275 48.9985 25.4468 49.1354 25.6092 49.2178C25.7716 49.3002 25.9637 49.3213 26.1434 49.2764L34.1003 47.2881C34.1407 47.2783 34.1799 47.2649 34.2173 47.2482L34.2197 47.2587ZM15.6426 51.9057C15.7295 51.8764 15.809 51.8321 15.8768 51.7752C15.9445 51.7183 15.9991 51.65 16.0375 51.5742C16.0758 51.4984 16.0972 51.4165 16.1003 51.3333C16.1034 51.2501 16.0883 51.1671 16.0557 51.0891C16.0231 51.0112 15.9738 50.9397 15.9104 50.8789C15.8471 50.818 15.7711 50.769 15.6867 50.7345C15.6022 50.7001 15.5111 50.6809 15.4184 50.6781C15.3257 50.6753 15.2333 50.6889 15.1465 50.7182L9.6539 52.0906C9.47266 52.1358 9.31882 52.2437 9.22622 52.3907C9.13361 52.5378 9.10983 52.7118 9.16011 52.8746C9.21038 53.0373 9.33059 53.1755 9.4943 53.2587C9.658 53.3418 9.85179 53.3632 10.033 53.318L15.528 51.9456C15.5672 51.9348 15.6056 51.9215 15.6426 51.9057ZM34.1822 41.8278C34.3576 41.7687 34.4996 41.6495 34.5771 41.4964C34.6545 41.3433 34.6611 41.1688 34.5953 41.0113C34.5295 40.8538 34.3968 40.7263 34.2262 40.6567C34.0557 40.5871 33.8614 40.5812 33.6861 40.6403L24.208 43.0111C24.0268 43.0562 23.8729 43.1642 23.7803 43.3112C23.6877 43.4582 23.6639 43.6323 23.7142 43.795C23.7645 43.9578 23.8847 44.096 24.0484 44.1791C24.2121 44.2623 24.4059 44.2837 24.5871 44.2385L34.0676 41.8677C34.1072 41.8579 34.1456 41.8445 34.1822 41.8278ZM18.0625 45.8611C18.1493 45.8318 18.2289 45.7875 18.2966 45.7306C18.3643 45.6737 18.419 45.6054 18.4573 45.5296C18.4957 45.4538 18.517 45.3719 18.5201 45.2887C18.5233 45.2055 18.5081 45.1225 18.4755 45.0445C18.443 44.9666 18.3936 44.8951 18.3303 44.8343C18.267 44.7734 18.1909 44.7244 18.1065 44.6899C18.0221 44.6555 17.9309 44.6363 17.8382 44.6335C17.7456 44.6307 17.6532 44.6443 17.5663 44.6736L16.4758 44.9447C16.2945 44.9901 16.1408 45.0984 16.0484 45.2456C15.9561 45.3928 15.9326 45.5669 15.9832 45.7297C16.0337 45.8925 16.1542 46.0305 16.3182 46.1135C16.4821 46.1965 16.676 46.2175 16.8572 46.1721L17.9478 45.8989C17.9872 45.8894 18.0256 45.8768 18.0625 45.8611ZM14.4725 46.7543C14.5595 46.725 14.6392 46.6807 14.7071 46.6238C14.775 46.5668 14.8297 46.4985 14.8682 46.4226C14.9066 46.3466 14.9281 46.2647 14.9313 46.1813C14.9344 46.0979 14.9193 46.0148 14.8867 45.9367C14.8542 45.8586 14.8048 45.787 14.7414 45.7261C14.678 45.6651 14.6019 45.6159 14.5173 45.5814C14.4328 45.5468 14.3415 45.5276 14.2487 45.5247C14.1559 45.5219 14.0633 45.5355 13.9764 45.5647L8.08592 47.0359C7.90437 47.0811 7.75023 47.1891 7.65741 47.3364C7.56459 47.4836 7.54068 47.6579 7.59096 47.8209C7.64123 47.984 7.76157 48.1224 7.92549 48.2058C8.08942 48.2891 8.2835 48.3106 8.46505 48.2654L14.3578 46.7942C14.397 46.7842 14.4354 46.7715 14.4725 46.7564V46.7543Z" fill="#4CBDE2"/>
<path fill-rule="evenodd" clip-rule="evenodd" d="M122.057 144.319C121.866 144.319 121.682 144.25 121.546 144.129C121.41 144.007 121.334 143.842 121.334 143.669V141.463C121.33 141.323 121.375 141.186 121.463 141.072C121.662 140.817 121.891 140.563 122.128 140.307C122.422 139.997 122.695 139.671 122.942 139.329C122.523 138.998 122.144 138.629 121.809 138.228C121.429 139.356 120.729 140.375 119.778 141.187C119.829 141.278 119.855 141.378 119.855 141.479V143.669C119.855 143.842 119.779 144.007 119.643 144.129C119.508 144.25 119.324 144.319 119.132 144.319C118.94 144.319 118.756 144.25 118.621 144.129C118.485 144.007 118.409 143.842 118.409 143.669V141.988C117.939 142.175 117.44 142.298 116.93 142.352V143.667C116.93 143.84 116.854 144.005 116.718 144.127C116.582 144.248 116.398 144.317 116.207 144.317C116.015 144.317 115.831 144.248 115.695 144.127C115.56 144.005 115.483 143.84 115.483 143.667V142.392H110.089V143.667C110.089 143.84 110.013 144.005 109.877 144.127C109.742 144.248 109.558 144.317 109.366 144.317C109.174 144.317 108.99 144.248 108.855 144.127C108.719 144.005 108.643 143.84 108.643 143.667V142.35C108.05 142.286 107.472 142.134 106.934 141.9V143.667C106.934 143.753 106.916 143.837 106.879 143.916C106.843 143.995 106.79 144.066 106.723 144.127C106.656 144.187 106.576 144.235 106.488 144.267C106.4 144.3 106.306 144.317 106.211 144.317C106.116 144.317 106.022 144.3 105.935 144.267C105.847 144.235 105.767 144.187 105.7 144.127C105.633 144.066 105.58 143.995 105.543 143.916C105.507 143.837 105.488 143.753 105.488 143.667V141.477C105.488 141.342 105.535 141.21 105.622 141.099C104.647 140.259 103.93 139.208 103.539 138.047C103.162 138.517 102.728 138.948 102.245 139.331C102.52 139.74 102.824 140.132 103.155 140.506C103.323 140.716 103.49 140.904 103.639 141.097C103.684 141.153 103.72 141.215 103.745 141.28C103.768 141.348 103.779 141.419 103.777 141.49V143.669C103.777 143.755 103.759 143.839 103.722 143.918C103.686 143.997 103.633 144.068 103.566 144.129C103.499 144.189 103.419 144.237 103.331 144.269C103.243 144.302 103.149 144.319 103.054 144.319C102.959 144.319 102.865 144.302 102.778 144.269C102.69 144.237 102.61 144.189 102.543 144.129C102.476 144.068 102.423 143.997 102.386 143.918C102.35 143.839 102.331 143.755 102.331 143.669V143.224H98.0134C97.8284 143.214 97.6545 143.142 97.5272 143.021C97.4 142.9 97.3291 142.74 97.3291 142.573C97.3291 142.407 97.4 142.247 97.5272 142.126C97.6545 142.005 97.8284 141.932 98.0134 141.923H102.331V141.687L102.001 141.29C101.471 140.713 101.024 140.077 100.672 139.399C100.667 139.391 100.663 139.382 100.66 139.373C100.571 139.163 98.9635 135.17 99.888 131.83C100.45 129.912 101.358 128.089 102.575 126.433C102.512 126.251 102.459 126.067 102.418 125.88C102.269 125.197 102.296 124.491 102.496 123.818C102.697 123.145 103.065 122.522 103.574 121.996C103.647 121.924 103.737 121.867 103.838 121.831C103.939 121.794 104.048 121.779 104.157 121.786C106.368 121.914 110.431 122.341 112.816 123.747C112.827 123.747 112.832 123.747 112.834 123.747C115.217 122.339 119.205 121.914 121.372 121.786C121.481 121.779 121.591 121.794 121.692 121.83C121.794 121.866 121.885 121.923 121.959 121.996C122.659 122.7 123.117 123.571 123.277 124.503C123.437 125.436 123.292 126.39 122.86 127.251C124.043 128.599 124.881 130.165 125.313 131.837C126.249 135.199 124.611 139.193 124.54 139.382V139.403C124.216 140.036 123.786 140.621 123.265 141.137C123.103 141.313 122.944 141.488 122.797 141.662V141.931H127.096C127.281 141.941 127.455 142.013 127.582 142.134C127.709 142.255 127.78 142.415 127.78 142.582C127.78 142.748 127.709 142.908 127.582 143.029C127.455 143.15 127.281 143.223 127.096 143.232H122.78V143.678C122.78 143.85 122.704 144.015 122.569 144.137C122.433 144.259 122.249 144.327 122.057 144.327V144.319ZM109.368 141.093H116.207C119.871 141.093 120.653 137.202 120.735 136.635C119.429 134.231 119.057 131.423 118.954 130.038C117.775 130.241 116.554 130.098 115.472 129.63C115.429 129.762 115.34 129.878 115.219 129.962L113.099 131.444C112.972 131.53 112.818 131.577 112.659 131.577C112.5 131.577 112.345 131.53 112.219 131.444L110.035 129.972C109.951 129.916 109.881 129.843 109.832 129.759C109.782 129.676 109.753 129.584 109.747 129.489C108.735 129.835 107.632 129.908 106.574 129.699C106.424 131.036 105.961 133.922 104.611 136.41C104.618 136.435 104.622 136.46 104.625 136.486C104.65 136.671 105.313 141.049 109.368 141.08V141.093ZM103.338 127.789C102.43 129.145 101.741 130.611 101.292 132.141C100.719 134.226 101.292 136.698 101.699 138.005C104.395 135.496 105.041 130.559 105.168 129.237C104.445 128.883 103.819 128.388 103.338 127.789ZM120.377 129.588C120.457 130.988 120.92 135.586 123.492 137.995C123.897 136.687 124.475 134.212 123.899 132.133C123.543 130.794 122.908 129.528 122.027 128.402C121.568 128.887 121.007 129.287 120.377 129.579V129.588ZM110.904 128.938L112.647 130.113L114.318 128.945C113.61 128.395 113.071 127.691 112.755 126.9C112.359 127.719 111.718 128.425 110.904 128.938ZM113.908 124.668C113.878 124.993 113.878 125.32 113.908 125.645C113.975 126.194 114.182 126.722 114.514 127.188C114.845 127.653 115.291 128.044 115.818 128.329C116.344 128.615 116.937 128.787 117.55 128.834C118.163 128.88 118.78 128.798 119.352 128.596C119.924 128.393 120.437 128.074 120.85 127.665C121.262 127.255 121.564 126.765 121.732 126.234C121.9 125.702 121.929 125.143 121.817 124.6C121.705 124.057 121.455 123.544 121.086 123.102C119.104 123.238 115.916 123.617 113.908 124.668ZM104.435 123.102C104.156 123.466 103.959 123.877 103.857 124.309C103.754 124.742 103.748 125.189 103.838 125.624C104.018 126.447 104.513 127.187 105.236 127.717C105.96 128.246 106.867 128.532 107.801 128.524C108.735 128.516 109.636 128.215 110.348 127.673C111.06 127.131 111.539 126.382 111.702 125.557C111.763 125.267 111.779 124.972 111.751 124.678C109.68 123.589 106.202 123.217 104.435 123.095V123.102ZM118.243 126.366C118.341 126.371 118.44 126.358 118.533 126.327C118.625 126.297 118.71 126.25 118.782 126.189C118.854 126.128 118.911 126.055 118.95 125.973C118.989 125.892 119.009 125.804 119.009 125.715C119.009 125.627 118.989 125.539 118.95 125.457C118.911 125.376 118.854 125.303 118.782 125.242C118.71 125.181 118.625 125.134 118.533 125.103C118.44 125.073 118.341 125.06 118.243 125.065H117.042C116.857 125.074 116.683 125.147 116.556 125.268C116.429 125.389 116.358 125.549 116.358 125.715C116.358 125.882 116.429 126.042 116.556 126.163C116.683 126.284 116.857 126.356 117.042 126.366H118.243ZM108.133 126.366C108.318 126.356 108.492 126.284 108.619 126.163C108.746 126.042 108.817 125.882 108.817 125.715C108.817 125.549 108.746 125.389 108.619 125.268C108.492 125.147 108.318 125.074 108.133 125.065H106.923C106.738 125.074 106.564 125.147 106.437 125.268C106.309 125.389 106.238 125.549 106.238 125.715C106.238 125.882 106.309 126.042 106.437 126.163C106.564 126.284 106.738 126.356 106.923 126.366H108.133ZM122.642 122.261C122.834 122.261 123.018 122.193 123.154 122.071C123.289 121.949 123.365 121.784 123.365 121.612V117.9C123.365 117.728 123.289 117.563 123.154 117.441C123.018 117.319 122.834 117.251 122.642 117.251C122.451 117.251 122.267 117.319 122.131 117.441C121.995 117.563 121.919 117.728 121.919 117.9V121.612C121.92 121.784 121.996 121.949 122.132 122.07C122.267 122.192 122.451 122.261 122.642 122.261ZM103.005 122.261C103.197 122.261 103.381 122.193 103.517 122.071C103.652 121.949 103.728 121.784 103.728 121.612V117.9C103.728 117.815 103.71 117.73 103.673 117.651C103.637 117.573 103.584 117.501 103.517 117.441C103.449 117.38 103.37 117.333 103.282 117.3C103.194 117.267 103.1 117.251 103.005 117.251C102.91 117.251 102.816 117.267 102.728 117.3C102.641 117.333 102.561 117.38 102.494 117.441C102.427 117.501 102.373 117.573 102.337 117.651C102.301 117.73 102.282 117.815 102.282 117.9V121.601C102.282 121.773 102.358 121.939 102.494 122.06C102.629 122.182 102.813 122.251 103.005 122.251V122.261ZM110.861 118.718H105.879C105.784 118.718 105.69 118.701 105.602 118.668C105.515 118.636 105.435 118.588 105.368 118.527C105.301 118.467 105.247 118.395 105.211 118.317C105.175 118.238 105.156 118.153 105.156 118.068C105.156 117.983 105.175 117.898 105.211 117.82C105.247 117.741 105.301 117.669 105.368 117.609C105.435 117.549 105.515 117.501 105.602 117.468C105.69 117.435 105.784 117.419 105.879 117.419H110.843C111.035 117.419 111.218 117.487 111.354 117.609C111.49 117.731 111.566 117.896 111.566 118.068C111.566 118.24 111.49 118.406 111.354 118.527C111.218 118.649 111.035 118.718 110.843 118.718H110.861ZM126.668 116.09H98.9612C98.7762 116.081 98.6023 116.008 98.475 115.887C98.3478 115.766 98.2769 115.606 98.2769 115.44C98.2769 115.274 98.3478 115.113 98.475 114.992C98.6023 114.872 98.7762 114.799 98.9612 114.789H126.649C126.834 114.799 127.008 114.872 127.135 114.992C127.262 115.113 127.333 115.274 127.333 115.44C127.333 115.606 127.262 115.766 127.135 115.887C127.008 116.008 126.834 116.081 126.649 116.09H126.668Z" fill="#E5EEFF"/>
<g opacity="0.35">
<path d="M82.3661 80.4595H46.4805V83.5574H82.3661V80.4595Z" fill="#4CBDE2"/>
<path d="M63.3678 88.7257H46.4805V91.8237H63.3678V88.7257Z" fill="#4CBDE2"/>
<path d="M82.3661 102.847H46.4805V105.945H82.3661V102.847Z" fill="#4CBDE2"/>
<path d="M63.3678 111.113H46.4805V114.211H63.3678V111.113Z" fill="#4CBDE2"/>
<path d="M82.3661 124.815H46.4805V127.913H82.3661V124.815Z" fill="#4CBDE2"/>
<path d="M91.664 133.083H46.4805V136.181H91.664V133.083Z" fill="#4CBDE2"/>
<path d="M29.3265 90.2097L24.9502 86.2794L26.6048 84.7935L29.3265 87.2378L34.1194 82.9335L35.7739 84.4194L29.3265 90.2097Z" fill="#4CBDE2"/>
<path d="M29.3265 113.165L24.9502 109.234L26.6048 107.748L29.3265 110.193L34.1194 105.891L35.7739 107.376L29.3265 113.165Z" fill="#4CBDE2"/>
<path d="M29.3265 135.023L24.9502 131.093L26.6048 129.607L29.3265 132.051L34.1194 127.747L35.7739 129.233L29.3265 135.023Z" fill="#4CBDE2"/>
</g>
</svg>
