<svg width="88" height="108" viewBox="0 0 88 108" fill="none" xmlns="http://www.w3.org/2000/svg">
<path opacity="0.5" fill-rule="evenodd" clip-rule="evenodd" d="M21 3.00001L61.065 -4.51217C62.3438 -4.75196 63.6562 -4.75196 64.935 -4.51217L105 3.00001V51.7358C105 67.1413 97.0638 81.4601 84 89.625L65.7825 101.011C64.0801 102.075 61.9199 102.075 60.2175 101.011L42 89.625C28.9362 81.4601 21 67.1413 21 51.7358V3.00001Z" fill="#D6293B"/>
<path fill-rule="evenodd" clip-rule="evenodd" d="M55.5756 45L48.151 37.5754C46.1007 35.5251 46.1007 32.201 48.151 30.1507C50.2012 28.1005 53.5253 28.1005 55.5756 30.1507L63.0002 37.5754L70.4248 30.1507C72.4751 28.1005 75.7992 28.1005 77.8495 30.1507C79.8997 32.201 79.8997 35.5251 77.8495 37.5754L70.4248 45L77.8495 52.4246C79.8997 54.4748 79.8997 57.799 77.8495 59.8492C75.7992 61.8995 72.4751 61.8995 70.4248 59.8492L63.0002 52.4246L55.5756 59.8492C53.5253 61.8995 50.2012 61.8995 48.151 59.8492C46.1007 57.799 46.1007 54.4748 48.151 52.4246L55.5756 45Z" fill="#D6293B"/>
</svg>
