<svg width="135" height="177" viewBox="0 0 135 177" fill="none" xmlns="http://www.w3.org/2000/svg">
<g opacity="0.35">
<path opacity="0.42" fill-rule="evenodd" clip-rule="evenodd" d="M218.543 63.0437C216.762 57.7007 213.622 53.3477 209.617 49.4347C207.62 47.4805 205.5 45.5849 203.817 43.3498C202.104 41.0657 201.075 38.4937 200.475 35.718C199.226 29.9561 199.59 23.9719 198.073 18.2474C196.763 13.3023 194.355 8.69655 191.243 4.65012C184.815 -3.70955 175.793 -9.78973 166.372 -14.3323C161.243 -16.8131 155.398 -19.8297 149.54 -19.1113C143.581 -18.3787 138.599 -14.5032 132.541 -14.0562C126.404 -13.6021 120.398 -15.3621 114.605 -17.1711C108.812 -18.9802 103.122 -20.8993 97.114 -21.6388C89.5214 -22.575 81.8 -21.6552 74.5473 -19.2985C74.1885 -19.3067 73.834 -19.2186 73.5209 -19.0434L73.1061 -18.8094C71.3533 -18.1853 69.6348 -17.4832 67.9507 -16.7031C58.8233 -12.446 50.8183 -5.645 45.3817 2.84806C42.3353 7.62 40.2005 12.8389 38.7242 18.2615C36.9856 22.0256 35.5477 25.9211 34.4241 29.9117C32.7837 35.7204 31.6331 41.9012 32.0807 47.9509C32.4861 53.3126 34.2788 58.328 37.0674 62.9033C42.1759 71.2887 49.7544 77.8019 55.0996 86.0094C57.9117 90.3367 59.8801 95.0548 60.4589 100.218C61.1291 106.181 60.4589 112.188 59.9387 118.133C59.4091 124.269 59.0459 130.471 60.2668 136.551C61.4385 142.353 64.1943 147.722 67.8124 152.369C74.334 160.748 84.9589 167.736 96.0196 166.316C101.409 165.613 105.965 162.805 109.667 158.929C113.417 155.026 116.264 150.392 119.798 146.313C135.916 127.714 161.186 121.973 182.956 112.771C193.602 108.275 204.794 102.808 212.361 93.7887C215.902 89.5761 218.559 84.6263 219.588 79.185C220.613 73.803 220.254 68.2491 218.543 63.0437Z" fill="#FFA800"/>
<path d="M20.6782 70.9369C21.1308 71.638 25.6365 69.6308 30.2703 66.0136C34.9041 62.3965 38.085 58.7034 37.3604 57.7891C36.6358 56.8748 32.2833 59.0362 27.6449 62.6548C23.0065 66.2733 20.0406 69.9454 20.6782 70.9369Z" fill="#3D7299"/>
<path d="M93.3447 36.0512L23.0857 54.0406C21.8529 54.3562 21.1094 55.6115 21.425 56.8443L46.6891 155.515C47.0048 156.748 48.26 157.492 49.4928 157.176L119.752 139.187C120.985 138.871 121.728 137.616 121.412 136.383L96.1484 37.7119C95.8327 36.4791 94.5775 35.7356 93.3447 36.0512Z" fill="white"/>
<path d="M89.7337 46.0673L31.0595 61.0905C30.0429 61.3508 29.4298 62.3859 29.6901 63.4025L50.784 145.787C51.0443 146.803 52.0794 147.417 53.096 147.156L111.77 132.133C112.787 131.873 113.4 130.838 113.14 129.821L92.0457 47.4367C91.7854 46.4201 90.7503 45.807 89.7337 46.0673Z" fill="#FFF7E6"/>
<path d="M89.2506 72.106L46.3132 83.0998C46.1657 83.1376 46.0122 83.1459 45.8615 83.1244C45.7108 83.1028 45.5658 83.0518 45.4348 82.9742C45.3039 82.8966 45.1894 82.794 45.0981 82.6722C45.0068 82.5504 44.9403 82.4118 44.9026 82.2643C44.8649 82.117 44.8566 81.9638 44.8783 81.8133C44.9 81.6628 44.9511 81.5181 45.0289 81.3875C45.1066 81.2569 45.2094 81.1429 45.3313 81.0521C45.4532 80.9613 45.5919 80.8954 45.7393 80.8583L88.6767 69.8645C88.8238 69.8262 88.977 69.8173 89.1275 69.8383C89.2781 69.8594 89.423 69.91 89.554 69.9872C89.6849 70.0644 89.7993 70.1667 89.8907 70.2882C89.982 70.4097 90.0484 70.5481 90.0861 70.6953C90.1624 70.9932 90.1172 71.3092 89.9605 71.5737C89.8038 71.8382 89.5484 72.0297 89.2506 72.106Z" fill="#E69900"/>
<path d="M91.525 80.9882L48.5876 91.9821C48.2906 92.0581 47.9755 92.0134 47.7113 91.8577C47.4472 91.702 47.2555 91.4479 47.1782 91.1512C47.1404 91.0037 47.1321 90.8502 47.1536 90.6995C47.1752 90.5488 47.2262 90.4038 47.3038 90.2729C47.3814 90.1419 47.484 90.0274 47.6058 89.9361C47.7276 89.8448 47.8662 89.7783 48.0137 89.7406L90.9511 78.7468C91.2489 78.6705 91.5649 78.7157 91.8294 78.8724C92.094 79.029 92.2854 79.2844 92.3617 79.5823C92.4365 79.8796 92.3905 80.1945 92.2337 80.458C92.0769 80.7215 91.822 80.9122 91.525 80.9882Z" fill="#E69900"/>
<path d="M93.7987 89.8654L50.8613 100.859C50.7122 100.897 50.5571 100.906 50.4048 100.883C50.2526 100.861 50.1064 100.808 49.9746 100.729C49.8429 100.649 49.7283 100.544 49.6375 100.42C49.5467 100.296 49.4816 100.155 49.4459 100.005C49.4081 99.8576 49.3998 99.7041 49.4214 99.5534C49.4429 99.4027 49.4939 99.2577 49.5715 99.1268C49.6491 98.9958 49.7517 98.8813 49.8735 98.79C49.9953 98.6987 50.1339 98.6322 50.2814 98.5945L93.2188 87.6007C93.5167 87.5244 93.8326 87.5696 94.0972 87.7263C94.3617 87.8829 94.5532 88.1383 94.6294 88.4362C94.6701 88.5846 94.6807 88.7396 94.6609 88.8922C94.641 89.0448 94.5909 89.1919 94.5136 89.3249C94.4362 89.4579 94.3332 89.5742 94.2105 89.667C94.0877 89.7598 93.9478 89.8273 93.7987 89.8654Z" fill="#E69900"/>
<path d="M95.498 96.5013L52.5606 107.495C51.9403 107.654 51.5662 108.285 51.7251 108.906C51.8839 109.526 52.5154 109.9 53.1357 109.741L96.0731 98.7474C96.6933 98.5886 97.0674 97.957 96.9086 97.3368C96.7498 96.7165 96.1182 96.3425 95.498 96.5013Z" fill="#E69900"/>
<path d="M98.3455 107.625L55.4081 118.619C55.2607 118.656 55.1072 118.665 54.9565 118.643C54.8058 118.622 54.6608 118.571 54.5298 118.493C54.3988 118.415 54.2844 118.313 54.1931 118.191C54.1017 118.069 54.0353 117.931 53.9975 117.783C53.9598 117.636 53.9514 117.482 53.973 117.331C53.9945 117.181 54.0455 117.036 54.1231 116.905C54.2007 116.774 54.3033 116.659 54.4251 116.568C54.5469 116.477 54.6855 116.41 54.833 116.372L97.7704 105.379C97.9179 105.341 98.0714 105.333 98.2221 105.354C98.3728 105.376 98.5178 105.427 98.6488 105.504C98.7798 105.582 98.8942 105.684 98.9855 105.806C99.0768 105.928 99.1433 106.067 99.181 106.214C99.2188 106.362 99.2271 106.515 99.2056 106.666C99.184 106.817 99.133 106.962 99.0554 107.093C98.9778 107.223 98.8752 107.338 98.7534 107.429C98.6316 107.521 98.493 107.587 98.3455 107.625Z" fill="#E69900"/>
<path d="M46.1584 69.156C45.9921 69.1904 45.8371 69.2658 45.7073 69.3753C45.5775 69.4849 45.4771 69.6251 45.4153 69.7832C45.2846 70.1801 45.2829 70.6081 45.4106 71.006C45.6719 72.0265 46.1852 72.4413 46.9495 72.2456C47.3464 72.1282 47.7208 71.9451 48.0571 71.7038L48.2611 72.5007C47.9016 72.762 47.4945 72.9506 47.0626 73.0558C46.7836 73.1473 46.4878 73.1755 46.1966 73.1384C45.9054 73.1013 45.6261 72.9999 45.379 72.8414C44.8684 72.4448 44.5211 71.8748 44.4027 71.2392C44.2836 70.8092 44.263 70.3579 44.3427 69.9188C44.4169 69.5361 44.6033 69.1841 44.8783 68.9078C45.1755 68.6215 45.5443 68.4207 45.946 68.3265C46.4131 68.2115 46.9001 68.204 47.3704 68.3044L47.2611 69.1766C47.0721 69.1383 46.8811 69.1109 46.6889 69.0947C46.5099 69.0851 46.3305 69.1058 46.1584 69.156Z" fill="#FFA800"/>
<path d="M51.9218 71.7672L49.2842 72.4425L48.1113 67.8617L50.7489 67.1864L50.9529 67.9832L49.2846 68.4104L49.5424 69.4169L51.0942 69.0196L51.297 69.8118L49.7452 70.2091L50.0483 71.3928L51.7166 70.9656L51.9218 71.7672Z" fill="#FFA800"/>
<path d="M53.3973 69.5175L53.8471 71.2743L52.8779 71.5225L51.705 66.9417L53.0377 66.6005C53.5182 66.436 54.0386 66.4298 54.5228 66.5827C54.7097 66.6647 54.8737 66.7908 55.0011 66.9502C55.1284 67.1097 55.2151 67.2976 55.2537 67.4979C55.3219 67.7533 55.3096 68.0235 55.2185 68.2716C55.1133 68.5314 54.9396 68.7578 54.7158 68.9267C55.6633 69.7765 56.286 70.3271 56.5732 70.5763L55.4921 70.8531L53.9519 69.3755L53.3973 69.5175ZM53.1945 68.7253L53.5067 68.6454C53.7483 68.6023 53.9715 68.4881 54.1477 68.3174C54.2064 68.2455 54.2463 68.1601 54.2637 68.069C54.2811 67.9778 54.2755 67.8837 54.2474 67.7953C54.2335 67.7021 54.1942 67.6146 54.1336 67.5425C54.0731 67.4703 53.9937 67.4164 53.9044 67.3866C53.662 67.3339 53.4099 67.347 53.1742 67.4245L52.8807 67.4997L53.1945 68.7253Z" fill="#FFA800"/>
<path d="M58.8747 69.9869L57.9054 70.2351L56.9401 66.4651L55.6959 66.7837L55.4883 65.9728L58.946 65.0875L59.1536 65.8984L57.9094 66.2169L58.8747 69.9869Z" fill="#FFA800"/>
<path d="M60.8223 69.4881L59.6494 64.9073L60.6187 64.6592L61.7916 69.24L60.8223 69.4881Z" fill="#FFA800"/>
<path d="M63.9024 68.6994L62.9424 68.9452L61.7695 64.3644L64.3931 63.6926L64.5972 64.4895L62.9289 64.9166L63.2307 66.0956L64.7825 65.6983L64.9854 66.4905L63.4336 66.8878L63.9024 68.6994Z" fill="#FFA800"/>
<path d="M66.4659 68.0432L65.293 63.4624L66.2623 63.2142L67.4351 67.795L66.4659 68.0432Z" fill="#FFA800"/>
<path d="M69.5519 63.1664C69.3854 63.2004 69.2301 63.2756 69.1003 63.3852C68.9705 63.4948 68.8702 63.6352 68.8087 63.7936C68.6762 64.1903 68.6729 64.6188 68.7994 65.0175C69.0607 66.0381 69.574 66.4528 70.3429 66.256C70.7383 66.139 71.1112 65.9562 71.4459 65.7153L71.6499 66.5122C71.291 66.7746 70.8836 66.9633 70.4514 67.0674C70.1724 67.1589 69.8766 67.1871 69.5854 67.15C69.2942 67.1129 69.0149 67.0114 68.7678 66.8529C68.2604 66.4538 67.9151 65.8841 67.7961 65.2496C67.6743 64.82 67.6537 64.368 67.7361 63.9292C67.808 63.5457 67.9948 63.1931 68.2717 62.9181C68.5682 62.6309 68.9373 62.43 69.3395 62.3369C69.8051 62.223 70.2904 62.2158 70.7592 62.316L70.6498 63.1881C70.4609 63.1499 70.2698 63.1225 70.0777 63.1062C69.9003 63.0962 69.7224 63.1166 69.5519 63.1664Z" fill="#FFA800"/>
<path d="M75.478 65.7358L74.868 64.7301L73.195 65.1584L73.1434 66.3336L72.0995 66.6008L72.5342 61.5886L73.7225 61.2843L76.5219 65.4685L75.478 65.7358ZM74.4262 63.9742C73.8657 63.0651 73.564 62.5464 73.4806 62.4337C73.4208 62.3416 73.3665 62.2461 73.3179 62.1476C73.316 62.4312 73.291 63.1477 73.2332 64.2797L74.4262 63.9742Z" fill="#FFA800"/>
<path d="M78.8669 64.8682L77.8976 65.1163L76.9323 61.3464L75.6881 61.665L75.4805 60.8541L78.9382 59.9688L79.1458 60.7796L77.9016 61.0982L78.8669 64.8682Z" fill="#FFA800"/>
<path d="M83.4474 63.6955L80.8145 64.3696L79.6416 59.7888L82.2745 59.1147L82.4785 59.9115L80.8149 60.3375L81.0726 61.3441L82.6244 60.9467L82.8273 61.7389L81.2755 62.1363L81.5785 63.3199L83.2422 62.894L83.4474 63.6955Z" fill="#FFA800"/>
<path d="M81.405 139.118C81.405 139.118 81.4294 140.959 81.4472 143.472C81.5013 148.473 81.5647 156.149 81.4962 157.239C81.4278 158.329 81.0359 158.35 80.5298 157.983C80.0237 157.616 77.0007 154.323 76.605 154.29C76.2093 154.257 72.793 155.867 71.5406 156.58C70.4115 157.251 70.3472 156.612 70.4937 156.118C70.5934 155.79 72.6909 147.943 74.0814 142.786L75.2821 138.282L81.405 139.118Z" fill="#FFA800"/>
<path d="M75.3251 138.276L81.4049 139.118C81.4049 139.118 81.4294 140.959 81.4471 143.472C80.1909 142.91 78.6733 141.113 76.8631 142.227C76.4682 142.508 76.0187 142.703 75.5437 142.799C75.0687 142.895 74.5788 142.89 74.1059 142.784L75.3251 138.276Z" fill="#FFA800"/>
<path d="M100.09 149.295C98.6455 149.257 94.8608 149.487 94.553 149.719C94.2451 149.952 93.1648 154.266 92.8857 154.844C92.6067 155.422 92.2281 155.533 91.676 154.657C91.0342 153.624 86.6099 145.363 84.3517 141.139C83.5733 139.67 83.0509 138.696 83.0509 138.696L87.9967 135.032L90.0367 137.181C93.573 140.888 100.481 148.127 100.758 148.394C101.152 148.75 101.403 149.341 100.09 149.295Z" fill="#FFA800"/>
<path d="M90.0652 137.174C89.8264 140.12 87.4125 139.71 86.0334 139.696C85.3544 139.701 84.8447 140.348 84.3614 141.117C83.5831 139.648 83.0607 138.674 83.0607 138.674L88.0065 135.01L90.0652 137.174Z" fill="#A78FE2"/>
<path d="M69.5224 126.221C69.887 125.299 69.257 123.245 70.0458 122.447C70.8346 121.65 72.3973 121.935 73.2637 121.44C74.1301 120.945 74.9258 118.894 75.8811 118.649C76.8364 118.405 78.5397 119.627 79.2589 119.721C79.9781 119.815 82.319 118.659 83.3036 119.053C84.2882 119.446 84.5201 121.457 85.2702 121.866C86.0204 122.275 88.3062 122.514 88.8549 123.203C89.4037 123.891 88.5879 126.31 88.8962 126.971C89.2044 127.632 90.8975 129.726 90.867 130.518C90.8365 131.311 88.614 132.754 88.4433 133.716C88.2726 134.678 88.7184 136.962 88.1243 137.532C87.5302 138.101 85.4611 137.796 84.6899 138.411C83.9187 139.026 82.9632 140.879 82.0713 141.197C81.1794 141.514 79.4883 139.971 78.4781 140.001C77.4679 140.032 75.6646 141.134 74.7274 140.867C73.7902 140.601 73.5109 138.463 72.737 137.787C71.9632 137.111 69.7275 137.068 69.0714 135.96C68.4152 134.852 69.4733 133.185 69.1413 132.257C68.8094 131.329 67.361 129.997 67.387 128.838C67.4131 127.68 69.1394 127.188 69.5224 126.221Z" fill="#E5AE35"/>
<g style="mix-blend-mode:multiply" opacity="0.26">
<path d="M81.1085 138.757C85.965 137.513 88.8993 132.589 87.6624 127.758C86.4255 122.928 81.4859 120.02 76.6294 121.263C71.7729 122.506 68.8386 127.431 70.0755 132.261C71.3124 137.092 76.252 140 81.1085 138.757Z" fill="#C6870A"/>
</g>
<path d="M80.9062 137.969C85.3252 136.838 87.995 132.357 86.8695 127.961C85.744 123.565 81.2493 120.919 76.8303 122.051C72.4114 123.182 69.7415 127.663 70.867 132.058C71.9925 136.454 76.4872 139.101 80.9062 137.969Z" fill="white"/>
<path d="M77.0935 123.076C75.7287 123.438 74.5016 124.196 73.5669 125.254C72.6321 126.313 72.0316 127.624 71.8408 129.023C71.6501 130.422 71.8777 131.847 72.495 133.117C73.1123 134.387 74.0917 135.445 75.3098 136.16C76.5278 136.874 77.93 137.212 79.3398 137.131C80.7495 137.049 82.1036 136.553 83.2315 135.703C84.3595 134.854 85.2107 133.689 85.6781 132.357C86.1454 131.024 86.2079 129.583 85.8577 128.216C85.62 127.302 85.2047 126.445 84.6356 125.693C84.0664 124.94 83.3545 124.307 82.5406 123.83C81.7267 123.352 80.8267 123.04 79.8921 122.911C78.9574 122.781 78.0064 122.837 77.0935 123.076ZM80.3031 135.611C79.1968 135.885 78.0343 135.825 76.9621 135.438C75.8899 135.052 74.956 134.357 74.278 133.441C73.6001 132.525 73.2085 131.429 73.1525 130.291C73.0966 129.153 73.3788 128.023 73.9636 127.045C74.5484 126.067 75.4097 125.284 76.4389 124.795C77.468 124.305 78.6191 124.131 79.7469 124.295C80.8747 124.459 81.9288 124.952 82.7764 125.714C83.624 126.476 84.2272 127.472 84.5099 128.576C84.8824 130.066 84.6488 131.644 83.8603 132.963C83.0717 134.281 81.7926 135.234 80.3031 135.611Z" fill="#917BC6"/>
<g style="mix-blend-mode:multiply" opacity="0.24">
<path d="M21.674 58.862L25.5957 71.5915C27.1746 69.7172 28.8536 67.9297 30.6254 66.2366C32.1488 64.7606 34.006 63.0609 36.2447 61.1783C41.186 57.0234 47.2546 51.4793 56.2646 45.7941L23.1976 55.9816C22.9081 56.0702 22.6389 56.215 22.4055 56.4078C22.1721 56.6007 21.979 56.8377 21.8375 57.1054C21.6959 57.373 21.6086 57.6659 21.5805 57.9674C21.5525 58.2689 21.5842 58.5729 21.674 58.862Z" fill="#85AFD6"/>
</g>
<path d="M1.53772 70.29C3.77976 69.7906 20.0357 65.2253 20.0357 65.2253L50.7655 43.5467C50.7655 43.5467 61.6753 27.8536 62.2932 27.0491C62.558 26.7159 62.6809 26.1344 61.1458 26.5922L57.217 27.7271C47.866 30.4268 25.3386 36.9042 23.9319 37.403C22.7048 37.8313 22.6498 38.2409 22.132 38.9944C19.6778 42.5793 5.03582 63.444 1.69264 68.3749C1.35048 68.8981 1.10976 69.2441 1.03837 69.3718C0.561915 70.1779 0.774221 70.4749 1.53772 70.29Z" fill="#4D87B2"/>
<path d="M1.53714 70.2902C3.77918 69.7908 20.0351 65.2255 20.0351 65.2255L50.7649 43.5469C50.7649 43.5469 61.6747 27.8538 62.2926 27.0493C62.5574 26.7161 62.6803 26.1346 61.1452 26.5924L57.2164 27.7274C52.8134 32.8288 41.9854 44.1478 24.4044 54.95C13.1785 61.8565 6.06565 65.9555 1.6864 68.3567C1.34424 68.8799 1.10352 69.2259 1.03213 69.3536C0.561337 70.1781 0.773641 70.4751 1.53714 70.2902Z" fill="#3778A0"/>
<path d="M20.749 71.0058C21.0086 71.0969 22.7592 67.0744 37.4232 56.4108C38.4248 55.6861 39.377 55.0085 40.2801 54.378C49.6788 47.8633 54.0927 46.4732 55.4238 46.0883C55.8835 45.9467 51.8094 41.3329 49.499 39.5028C47.1885 37.6727 45.7465 37.3871 37.2928 40.9077C28.839 44.4282 17.9115 55.1135 16.887 58.4542C16.6525 59.5515 16.6671 60.6874 16.9296 61.7783C17.6568 65.7069 20.0727 70.7712 20.749 71.0058Z" fill="#85AFD6"/>
<path d="M16.9303 61.778C20.4281 55.8783 29.7532 47.3276 32.3131 46.5037C35.2131 45.575 38.3415 51.1547 40.2762 54.3791C49.6749 47.8644 54.0888 46.4743 55.4199 46.0894C55.8796 45.9478 51.8055 41.334 49.4951 39.5039C47.1846 37.6738 45.7427 37.3882 37.2889 40.9088C28.8351 44.4293 17.9076 55.1146 16.8832 58.4553C16.6504 59.5525 16.6665 60.6879 16.9303 61.778Z" fill="#71A5CC"/>
<path d="M8.50617 106.161C9.00711 105.614 6.61104 91.8404 7.19506 92.184C7.77908 92.5275 9.27227 104.399 9.48333 105.15C9.69438 105.9 10.3986 105.115 10.941 104.882C11.4835 104.649 9.98056 96.2586 7.89213 88.2545C6.51165 82.9568 5.12609 79.2764 4.11601 77.2722C3.5993 76.2485 3.18529 75.6563 2.91787 75.5071C2.22525 75.1215 1.73772 75.5486 1.91783 77.7833C2.03369 78.9858 2.22022 80.1805 2.47648 81.3611C3.88866 88.2648 6.89747 105.514 6.94981 106.484C7.00214 107.455 8.00381 106.703 8.50617 106.161Z" fill="#C11060"/>
<path d="M1.91772 77.7834C2.29953 77.8554 2.69215 77.8471 3.0706 77.7591C3.44904 77.6711 3.80503 77.5053 4.1159 77.2723C3.59919 76.2486 3.18518 75.6564 2.91776 75.5072C2.22231 75.1124 1.73761 75.5486 1.91772 77.7834Z" fill="#91074C"/>
<path d="M1.25176 73.811C1.30983 73.9995 1.39265 74.1703 1.46344 74.3347C1.83402 75.1618 3.19807 75.0637 2.97308 73.925C2.94192 73.8239 2.8796 73.6216 2.79887 73.3595C2.41102 72.1193 1.92158 70.9132 1.33553 69.7534C1.29665 69.6272 1.20924 69.5216 1.09252 69.4599C0.9758 69.3982 0.839326 69.3853 0.713135 69.4242C0.586945 69.4631 0.481374 69.5505 0.419634 69.6672C0.357894 69.7839 0.345043 69.9204 0.383921 70.0466C0.521565 71.3316 0.812932 72.5954 1.25176 73.811Z" fill="#C11060"/>
<path d="M1.25242 73.8107C1.31049 73.9992 1.39331 74.17 1.4641 74.3344C1.83468 75.1615 3.19873 75.0634 2.97374 73.9247C2.94258 73.8236 2.88026 73.6213 2.79954 73.3593C2.25246 73.3669 1.71772 73.5229 1.25242 73.8107Z" fill="#91074C"/>
<path d="M1.09991 76.3041C1.17169 76.4327 1.26061 76.551 1.36422 76.6556C1.64698 76.95 2.02735 77.1314 2.43414 77.1657C2.84093 77.1999 3.24627 77.0848 3.57432 76.8418C3.90237 76.5989 4.13064 76.2447 4.21642 75.8455C4.30221 75.4464 4.23963 75.0297 4.04039 74.6734C3.9425 74.4937 3.81138 74.3343 3.65401 74.2035C3.35443 73.9477 2.9744 73.8053 2.58045 73.8014C2.18649 73.7975 1.80371 73.9322 1.49909 74.1821C1.19447 74.4319 0.987416 74.7809 0.914181 75.1681C0.840945 75.5552 0.906194 75.9557 1.09849 76.2996L1.09991 76.3041Z" fill="#C11060"/>
<path d="M1.36704 76.6598C1.6498 76.9542 2.03017 77.1356 2.43696 77.1698C2.84375 77.2041 3.24909 77.089 3.57714 76.846C3.90519 76.6031 4.13346 76.2489 4.21924 75.8497C4.30503 75.4506 4.24245 75.0339 4.04321 74.6776C3.94532 74.4979 3.8142 74.3385 3.65683 74.2077C3.72115 75.0537 3.41961 76.3949 1.36704 76.6598Z" fill="#A5145D"/>
</g>
</svg>
