<svg width="100" height="167" viewBox="0 0 100 167" fill="none" xmlns="http://www.w3.org/2000/svg">
<path fill-rule="evenodd" clip-rule="evenodd" d="M213.543 63.0437C211.762 57.7007 208.622 53.3477 204.617 49.4347C202.62 47.4805 200.5 45.5849 198.817 43.3498C197.104 41.0657 196.075 38.4937 195.475 35.718C194.226 29.9561 194.59 23.9719 193.073 18.2474C191.763 13.3023 189.355 8.69655 186.243 4.65012C179.815 -3.70955 170.793 -9.78973 161.372 -14.3323C156.243 -16.8131 150.398 -19.8297 144.54 -19.1113C138.581 -18.3787 133.599 -14.5032 127.541 -14.0562C121.404 -13.6021 115.398 -15.3621 109.605 -17.1711C103.812 -18.9802 98.1224 -20.8993 92.114 -21.6388C84.5214 -22.575 76.8 -21.6552 69.5473 -19.2985C69.1885 -19.3067 68.834 -19.2186 68.5209 -19.0434L68.1061 -18.8094C66.3533 -18.1853 64.6348 -17.4832 62.9507 -16.7031C53.8233 -12.446 45.8183 -5.645 40.3817 2.84806C37.3353 7.62 35.2005 12.8389 33.7242 18.2615C31.9856 22.0256 30.5477 25.9211 29.4241 29.9117C27.7837 35.7204 26.6331 41.9012 27.0807 47.9509C27.4861 53.3126 29.2788 58.328 32.0674 62.9033C37.1759 71.2887 44.7544 77.8019 50.0996 86.0094C52.9117 90.3367 54.8801 95.0548 55.4589 100.218C56.1291 106.181 55.4589 112.188 54.9387 118.133C54.4091 124.269 54.0459 130.471 55.2668 136.551C56.4385 142.353 59.1943 147.722 62.8124 152.369C69.334 160.748 79.9589 167.736 91.0196 166.316C96.4094 165.613 100.965 162.805 104.667 158.929C108.417 155.026 111.264 150.392 114.798 146.313C130.916 127.714 156.186 121.973 177.956 112.771C188.602 108.275 199.794 102.808 207.361 93.7887C210.902 89.5761 213.559 84.6263 214.588 79.185C215.613 73.803 215.254 68.2491 213.543 63.0437Z" fill="#FFE6E8"/>
<g opacity="0.2">
<path d="M49.652 58.8728C52.8219 58.0234 54.7019 54.7607 53.8511 51.5853C53.0002 48.4098 49.7407 46.5242 46.5708 47.3736C43.4008 48.223 41.5208 51.4857 42.3717 54.6612C43.2225 57.8366 46.482 59.7222 49.652 58.8728Z" fill="#D6293B"/>
<path d="M87.5037 108.301C89.617 107.734 90.8703 105.559 90.3031 103.442C89.7358 101.325 87.5628 100.068 85.4495 100.635C83.3362 101.201 82.0829 103.376 82.6501 105.493C83.2173 107.61 85.3904 108.867 87.5037 108.301Z" fill="white"/>
<path d="M94.5037 96.1545C96.617 95.5883 97.8703 93.4131 97.3031 91.2961C96.7358 89.1792 94.5628 87.9221 92.4495 88.4884C90.3362 89.0546 89.0829 91.2298 89.6501 93.3467C90.2173 95.4637 92.3904 96.7208 94.5037 96.1545Z" fill="white"/>
<path d="M80.0828 95.9101C82.1961 95.3438 83.4494 93.1687 82.8822 91.0517C82.3149 88.9348 80.1419 87.6777 78.0286 88.2439C75.9153 88.8102 74.662 90.9854 75.2292 93.1023C75.7965 95.2193 77.9695 96.4763 80.0828 95.9101Z" fill="white"/>
<path d="M45.6445 105.138L46.6716 108.971C46.8078 109.479 46.7368 110.02 46.4743 110.476C46.2118 110.932 45.7793 111.264 45.2719 111.4L41.4454 112.425L42.4725 116.258C42.6087 116.767 42.5377 117.308 42.2752 117.764C42.0127 118.219 41.5802 118.551 41.0728 118.687L37.2463 119.713C36.7389 119.849 36.1981 119.777 35.743 119.514C35.2879 119.251 34.9557 118.817 34.8195 118.309L33.7925 114.476L29.966 115.501C29.4586 115.637 28.9178 115.565 28.4627 115.302C28.0076 115.039 27.6754 114.605 27.5392 114.097L26.5121 110.264C26.3759 109.756 26.4469 109.214 26.7094 108.759C26.9719 108.303 27.4044 107.971 27.9118 107.835L31.7383 106.81L30.7112 102.977C30.5751 102.468 30.646 101.927 30.9085 101.471C31.171 101.016 31.6035 100.683 32.1109 100.547L35.9374 99.5221C36.4448 99.3861 36.9856 99.4576 37.4407 99.7209C37.8958 99.9842 38.228 100.418 38.3642 100.926L39.3913 104.759L43.2177 103.734C43.7252 103.598 44.2659 103.669 44.721 103.933C45.1761 104.196 45.5083 104.629 45.6445 105.138Z" fill="white"/>
<path d="M61.0407 78.4171L62.0677 82.2502L50.5883 85.3261L49.5612 81.493L48.5342 77.66L54.2739 76.122L60.0136 74.5841L61.0407 78.4171Z" fill="white"/>
<path d="M81.2017 77.1235C84.9857 76.1096 88.9859 76.2425 92.6965 77.5053C96.4071 78.7682 99.6613 81.1043 102.048 84.2183C104.434 87.3323 105.846 91.0843 106.104 94.9998C106.362 98.9154 105.454 102.819 103.497 106.216C101.539 109.613 98.6194 112.352 95.1062 114.086C91.5931 115.82 87.6445 116.471 83.7598 115.957C79.8751 115.443 76.2289 113.788 73.2821 111.199C70.3353 108.611 68.2203 105.206 67.2047 101.415L55.7252 104.491C56.7409 108.282 56.6117 112.288 55.3539 116.003C54.0961 119.718 51.7663 122.975 48.659 125.362C45.5517 127.75 41.8065 129.16 37.897 129.415C33.9876 129.67 30.0894 128.758 26.6955 126.795C23.3016 124.831 20.5644 121.905 18.83 118.385C17.0956 114.865 16.442 110.91 16.9517 107.02C17.4614 103.13 19.1116 99.4795 21.6937 96.5305C24.2757 93.5815 27.6735 91.4663 31.4576 90.4524L81.2017 77.1235ZM97.3029 91.2964C97.0998 90.5383 96.6768 89.8574 96.0874 89.3397C95.4981 88.822 94.7688 88.4908 93.9919 88.3881C93.2149 88.2853 92.4252 88.4156 91.7226 88.7623C91.0199 89.1091 90.436 89.6569 90.0444 90.3363C89.6529 91.0158 89.4715 91.7964 89.5231 92.5795C89.5747 93.3626 89.857 94.113 90.3343 94.7358C90.8115 95.3586 91.4624 95.8259 92.2045 96.0784C92.9466 96.331 93.7467 96.3576 94.5035 96.1548C95.5166 95.8801 96.3796 95.215 96.9041 94.3047C97.4287 93.3944 97.572 92.3129 97.3029 91.2964ZM90.3044 103.442C90.1012 102.684 89.6783 102.003 89.0889 101.486C88.4995 100.968 87.7703 100.637 86.9933 100.534C86.2164 100.431 85.4267 100.561 84.7241 100.908C84.0214 101.255 83.4374 101.803 83.0459 102.482C82.6544 103.162 82.473 103.942 82.5246 104.725C82.5762 105.509 82.8585 106.259 83.3358 106.882C83.813 107.505 84.4639 107.972 85.206 108.224C85.9481 108.477 86.7482 108.504 87.505 108.301C88.5181 108.026 89.3811 107.361 89.9056 106.451C90.4301 105.54 90.5735 104.459 90.3044 103.442ZM82.8832 91.0519C82.68 90.2938 82.257 89.6128 81.6677 89.0952C81.0783 88.5775 80.3491 88.2463 79.5721 88.1436C78.7952 88.0408 78.0055 88.171 77.3029 88.5178C76.6002 88.8646 76.0162 89.4124 75.6247 90.0918C75.2332 90.7713 75.0518 91.5519 75.1034 92.335C75.155 93.1181 75.4373 93.8685 75.9145 94.4913C76.3918 95.1141 77.0427 95.5813 77.7848 95.8339C78.5269 96.0865 79.327 96.1131 80.0838 95.9103C81.0969 95.6356 81.9599 94.9704 82.4844 94.0601C83.0089 93.1499 83.1523 92.0684 82.8832 91.0519ZM46.6726 108.971L45.6455 105.138C45.5093 104.63 45.1771 104.196 44.722 103.933C44.2669 103.67 43.7262 103.598 43.2188 103.734L39.3923 104.759L38.3652 100.926C38.229 100.418 37.8968 99.9846 37.4417 99.7213C36.9866 99.458 36.4459 99.3865 35.9385 99.5224L32.112 100.548C31.6046 100.684 31.172 101.016 30.9095 101.472C30.647 101.927 30.5761 102.469 30.7123 102.977L31.7394 106.81L27.9129 107.835C27.4055 107.971 26.9729 108.304 26.7104 108.759C26.4479 109.215 26.377 109.756 26.5132 110.264L27.5403 114.098C27.6765 114.606 28.0086 115.039 28.4638 115.303C28.9189 115.566 29.4596 115.637 29.967 115.501L33.7935 114.476L34.8206 118.309C34.9568 118.817 35.289 119.251 35.7441 119.514C36.1992 119.778 36.7399 119.849 37.2473 119.713L41.0738 118.688C41.5812 118.552 42.0138 118.22 42.2763 117.764C42.5387 117.308 42.6097 116.767 42.4735 116.259L41.4464 112.426L45.2729 111.4C45.7803 111.264 46.2129 110.932 46.4754 110.476C46.7379 110.021 46.8088 109.479 46.6726 108.971Z" fill="#D6293B"/>
<path d="M50.5899 85.3259L31.4576 90.4524C27.6735 91.4663 24.2757 93.5815 21.6937 96.5305C19.1116 99.4795 17.4614 103.13 16.9517 107.02C16.442 110.91 17.0956 114.865 18.83 118.385C20.5644 121.905 23.3016 124.831 26.6955 126.795C30.0894 128.758 33.9876 129.67 37.897 129.415C41.8065 129.16 45.5517 127.75 48.659 125.362C51.7663 122.975 54.0961 119.718 55.3539 116.003C56.6117 112.288 56.7409 108.282 55.7252 104.491L67.2047 101.415C68.2203 105.206 70.3353 108.611 73.2821 111.199C76.2289 113.788 79.8751 115.443 83.7598 115.957C87.6445 116.471 91.5931 115.82 95.1062 114.086C98.6194 112.352 101.539 109.613 103.497 106.216C105.454 102.819 106.362 98.9154 106.104 94.9998C105.846 91.0843 104.434 87.3323 102.048 84.2183C99.6614 81.1043 96.4071 78.7682 92.6965 77.5053C88.9859 76.2425 84.9857 76.1096 81.2017 77.1235L50.5899 85.3259Z" stroke="#EE2D41" stroke-width="2" stroke-linejoin="round"/>
<path d="M49.5612 81.493L48.5342 77.66L54.2739 76.122L60.0136 74.5841L61.0407 78.4171" stroke="#EE2D41" stroke-width="2" stroke-linejoin="round"/>
<path d="M43.2177 103.734L39.3913 104.759L38.3642 100.926C38.228 100.418 37.8958 99.9842 37.4407 99.7209C36.9856 99.4576 36.4448 99.3861 35.9374 99.5221L32.1109 100.547C31.6035 100.683 31.171 101.016 30.9085 101.471C30.646 101.927 30.5751 102.468 30.7112 102.977L31.7383 106.81L27.9118 107.835C27.4044 107.971 26.9719 108.303 26.7094 108.759C26.4469 109.214 26.3759 109.756 26.5121 110.264L27.5392 114.097C27.6754 114.605 28.0076 115.039 28.4627 115.302C28.9178 115.565 29.4586 115.637 29.966 115.501L33.7925 114.476L34.8195 118.309C34.9557 118.817 35.2879 119.251 35.743 119.514C36.1981 119.777 36.7389 119.849 37.2463 119.713L41.0728 118.687C41.5802 118.551 42.0127 118.219 42.2752 117.764C42.5377 117.308 42.6087 116.767 42.4725 116.258L41.4454 112.425L45.2719 111.4C45.7793 111.264 46.2118 110.932 46.4743 110.476C46.7368 110.02 46.8078 109.479 46.6716 108.971L45.6445 105.138C45.5083 104.629 45.1761 104.196 44.721 103.933C44.2659 103.669 43.7252 103.598 43.2177 103.734Z" stroke="#EE2D41" stroke-width="2" stroke-linejoin="round"/>
<path d="M87.5037 108.301C89.617 107.734 90.8703 105.559 90.3031 103.442C89.7358 101.325 87.5628 100.068 85.4495 100.635C83.3362 101.201 82.0829 103.376 82.6501 105.493C83.2173 107.61 85.3904 108.867 87.5037 108.301Z" stroke="#EE2D41" stroke-width="2" stroke-linejoin="round"/>
<path d="M94.5037 96.1545C96.617 95.5883 97.8703 93.4131 97.3031 91.2961C96.7358 89.1792 94.5628 87.9221 92.4495 88.4884C90.3362 89.0546 89.0829 91.2298 89.6501 93.3467C90.2173 95.4637 92.3904 96.7208 94.5037 96.1545Z" stroke="#EE2D41" stroke-width="2" stroke-linejoin="round"/>
<path d="M80.0828 95.9101C82.1961 95.3438 83.4494 93.1687 82.8822 91.0517C82.3149 88.9348 80.1419 87.6777 78.0286 88.2439C75.9153 88.8102 74.662 90.9854 75.2292 93.1023C75.7965 95.2193 77.9695 96.4763 80.0828 95.9101Z" stroke="#EE2D41" stroke-width="2" stroke-linejoin="round"/>
<path d="M48.8174 94.0172L67.9497 88.8907" stroke="#EE2D41" stroke-width="2" stroke-linejoin="round"/>
<path d="M54.2751 76.1217L49.6533 58.8729" stroke="#EE2D41" stroke-width="2" stroke-linejoin="round"/>
<path d="M70.791 30.6137C75.3578 29.39 80.2245 30.0338 84.3205 32.4033C88.4164 34.7728 91.4062 38.674 92.6319 43.2487C93.8577 47.8233 93.2191 52.6967 90.8567 56.7968C88.4942 60.8968 84.6014 63.8877 80.0346 65.1113" stroke="#EE2D41" stroke-width="2" stroke-linejoin="round"/>
<path d="M75.2705 39.6837C77.3002 39.1398 79.4632 39.4259 81.2836 40.479C83.104 41.5321 84.4328 43.266 84.9776 45.2992C85.5224 47.3324 85.2386 49.4983 84.1886 51.3206C83.1386 53.1428 81.4085 54.4721 79.3788 55.0159" stroke="#EE2D41" stroke-width="2" stroke-linejoin="round"/>
<path d="M26.4627 79.4658C21.8959 80.6895 17.0292 80.0457 12.9333 77.6762C8.83731 75.3067 5.84758 71.4055 4.6218 66.8308C3.39603 62.2562 4.0346 57.3828 6.39706 53.2827C8.75951 49.1827 12.6523 46.1919 17.2191 44.9682" stroke="#EE2D41" stroke-width="2" stroke-linejoin="round"/>
<path d="M21.9809 70.3959C19.9513 70.9397 17.7883 70.6536 15.9678 69.6005C14.1474 68.5474 12.8187 66.8135 12.2739 64.7803C11.7291 62.7471 12.0129 60.5812 13.0629 58.7589C14.1128 56.9367 15.843 55.6075 17.8727 55.0636" stroke="#EE2D41" stroke-width="2" stroke-linejoin="round"/>
<path d="M36.2607 62.4614C32.4343 63.4867 31.4072 59.6537 27.5807 60.679C23.7543 61.7043 24.7813 65.5373 20.9549 66.5626" stroke="#EE2D41" stroke-width="2" stroke-linejoin="round"/>
<path d="M78.3516 51.1831C74.5251 52.2084 73.498 48.3753 69.6716 49.4006C65.8451 50.4259 66.8722 54.259 63.0457 55.2843" stroke="#EE2D41" stroke-width="2" stroke-linejoin="round"/>
<path d="M49.652 58.8728C52.8219 58.0234 54.7019 54.7607 53.8511 51.5853C53.0002 48.4098 49.7407 46.5242 46.5708 47.3736C43.4008 48.223 41.5208 51.4857 42.3717 54.6612C43.2225 57.8366 46.482 59.7222 49.652 58.8728Z" stroke="#EE2D41" stroke-width="2" stroke-linejoin="round"/>
</g>
</svg>
