<svg width="118" height="109" viewBox="0 0 118 109" fill="none" xmlns="http://www.w3.org/2000/svg">
<path d="M53.001 100.688H47.1484V108.938H58.8536V100.688H53.001Z" fill="#00996A"/>
<path d="M117.379 100.688H64.7061H58.8535V108.938H123.232V100.688H117.379Z" fill="#00996A"/>
<path d="M85.6289 94.5619L91.0425 92.4375L96.4561 94.5619L95.4319 90.0863L99.8214 86.91L93.764 86.25L91.0425 82.1869L88.3211 86.25L82.2637 86.91L86.6531 90.0863L85.6289 94.5619Z" fill="#00B37A"/>
<path d="M64.7061 100.688V75.9375H53.001V100.688H58.8535H64.7061Z" fill="#00996A"/>
<path d="M123.231 100.688H129.084V75.9375H117.379V100.688H123.231Z" fill="#00996A"/>
<path d="M117.379 100.688V75.9375H64.7061V100.688H117.379ZM88.3211 86.25L91.0426 82.1869L93.764 86.25L99.8214 86.91L95.432 90.0863L96.4562 94.5619L91.0426 92.4375L85.629 94.5619L86.6532 90.0863L82.2637 86.91L88.3211 86.25Z" fill="#00996A"/>
<path opacity="0.5" d="M108.601 69.75H102.748H79.3379H73.4854V75.9375H108.601V69.75Z" fill="#00996A"/>
<path d="M102.748 65.625C96.8956 61.5 96.8956 45 96.8956 45H85.1905C85.1905 45 85.1905 61.5 79.3379 65.625V69.75H102.748V65.625Z" fill="#00996A"/>
<path d="M99.8214 45V37.905C94.0947 39.1151 87.9903 39.1151 82.2637 37.905V45H99.8214Z" fill="#00996A" fill-opacity="0.5"/>
<path d="M17.8858 30.7894L23.7384 26.5612L15.6618 25.6744L12.0333 20.25L8.40466 25.6744L0.328125 26.5612L6.18069 30.7894L4.80534 36.75L12.0333 33.9244L19.2612 36.75L17.8858 30.7894Z" fill="#00996A"/>
<path d="M45.6859 61.3556L55.9279 53.9719L41.7647 52.4456L35.4439 42.9375L29.1232 52.4456L14.96 53.9719L25.2019 61.3556L22.7731 71.8125L35.4439 66.8831L48.1147 71.8125L45.6859 61.3556Z" fill="#00996A"/>
<path d="M99.8215 37.905C104.931 36.8132 109.542 34.7911 113.19 32.0428C116.838 29.2944 119.393 25.9169 120.598 22.2506C120.809 21.6522 120.975 21.0463 121.096 20.4356L125.748 -2.4375L129.084 -18.9375H53.001L56.3369 -2.4375L60.9897 20.4356C61.1104 21.0463 61.2764 21.6522 61.4872 22.2506C62.6923 25.9169 65.2475 29.2944 68.8952 32.0428C72.5428 34.7911 77.1539 36.8132 82.2638 37.905C87.9904 39.115 94.0948 39.115 99.8215 37.905Z" fill="#00996A"/>
<path d="M76.1186 22.2506C75.9079 21.6522 75.7418 21.0463 75.6211 20.4356L70.9683 -2.4375L67.6324 -18.9375H53.001L56.3369 -2.4375L60.9897 20.4356C61.1104 21.0463 61.2764 21.6522 61.4872 22.2506C62.6923 25.9169 65.2475 29.2944 68.8952 32.0428C72.5428 34.7911 77.1539 36.8132 82.2638 37.905C87.4948 39.0311 93.0667 39.1111 98.3583 38.136C97.8755 38.0514 97.3693 38.0061 96.8952 37.905C91.7854 36.8132 87.1742 34.7911 83.5266 32.0428C79.8789 29.2944 77.3238 25.9169 76.1186 22.2506Z" fill="#00996A" fill-opacity="0.5"/>
<path d="M60.9898 20.4356L60.905 20.0231L50.663 18.2266C44.9858 17.6014 39.7887 15.6144 35.9495 12.601C32.1103 9.58773 29.8643 5.73283 29.5908 1.68746C29.5908 -3.53685 31.5046 -6.56254 41.296 -6.56254C50.622 -6.56254 53.0625 -1.9611 53.1503 -1.78579C53.3445 -1.37493 53.7172 -1.01756 54.2156 -0.764355C54.7141 -0.511145 55.313 -0.374937 55.9274 -0.375042H56.7555L56.3371 -2.43754L55.4797 -6.67598C53.662 -8.02254 51.4546 -9.07772 49.0073 -9.76989C46.56 -10.4621 43.93 -10.775 41.296 -10.6875C25.5584 -10.6875 23.7383 -3.62554 23.7383 1.68746C23.7383 11.5111 34.5655 20.1675 49.3696 22.2506L60.6533 24.2285L60.9459 24.2883C61.2164 24.3461 61.4974 24.3753 61.7799 24.375H62.3974C62.0412 23.6786 61.7374 22.9695 61.4873 22.2506C61.2766 21.6521 61.1105 21.0463 60.9898 20.4356Z" fill="#00996A" fill-opacity="0.5"/>
<path d="M85.1905 67.6875V65.625C89.6969 64.0369 90.7328 55.1062 90.9728 51.0906C91.0039 50.5595 91.3264 50.0577 91.8723 49.691C92.4183 49.3243 93.1449 49.1213 93.8991 49.125H97.0946C96.8956 46.6954 96.8956 45 96.8956 45H85.1905C85.1905 45 85.1905 61.5 79.3379 65.625V69.75H102.748V67.6875H85.1905Z" fill="#00996A"/>
<path opacity="0.5" d="M73.4854 69.75V75.9375H108.601V73.875H85.1905C84.4144 73.875 83.6701 73.6577 83.1213 73.2709C82.5725 72.8841 82.2642 72.3595 82.2642 71.8125V69.75H73.4854Z" fill="#00996A"/>
<path d="M64.7061 75.9375V100.688H53.001V96.5625H55.9273C56.7034 96.5625 57.4477 96.3452 57.9965 95.9584C58.5452 95.5716 58.8535 95.047 58.8535 94.5V75.9375H64.7061Z" fill="#00996A"/>
<path d="M117.379 75.9375V100.688H129.084V96.5625H126.158C125.382 96.5625 124.637 96.3452 124.089 95.9584C123.54 95.5716 123.231 95.047 123.231 94.5V75.9375H117.379Z" fill="#00996A"/>
<path d="M58.8536 100.688V108.938H47.1484V104.812H53.001C53.7771 104.812 54.5214 104.595 55.0702 104.208C55.619 103.822 55.9273 103.297 55.9273 102.75V100.688H58.8536Z" fill="#00996A"/>
<path d="M85.19 96.5625C82.0856 96.5625 79.1084 95.6933 76.9133 94.1461C74.7181 92.599 73.4849 90.5005 73.4849 88.3125V75.9375H64.7061V100.688H117.379V96.5625H85.19Z" fill="#00996A"/>
</svg>
