<svg width="100" height="157" viewBox="0 0 100 157" fill="none" xmlns="http://www.w3.org/2000/svg">
<path fill-rule="evenodd" clip-rule="evenodd" d="M203.542 53.0437C201.761 47.7007 198.621 43.3477 194.616 39.4347C192.619 37.4805 190.499 35.5849 188.816 33.3498C187.103 31.0657 186.074 28.4937 185.474 25.718C184.225 19.9561 184.589 13.9719 183.072 8.24744C181.763 3.30232 179.354 -1.30345 176.242 -5.34988C169.814 -13.7095 160.792 -19.7897 151.371 -24.3323C146.242 -26.8131 140.397 -29.8297 134.539 -29.1113C128.58 -28.3787 123.598 -24.5032 117.54 -24.0562C111.403 -23.6021 105.397 -25.3621 99.6039 -27.1711C93.8111 -28.9802 88.1214 -30.8993 82.113 -31.6388C74.5205 -32.575 66.799 -31.6552 59.5463 -29.2985C59.1875 -29.3067 58.833 -29.2186 58.5199 -29.0434L58.1051 -28.8094C56.3523 -28.1853 54.6338 -27.4832 52.9497 -26.7031C43.8223 -22.446 35.8173 -15.645 30.3807 -7.15194C27.3343 -2.38 25.1995 2.83894 23.7232 8.26149C21.9846 12.0256 20.5467 15.9211 19.4231 19.9117C17.7827 25.7204 16.6321 31.9012 17.0797 37.9509C17.4851 43.3126 19.2778 48.328 22.0664 52.9033C27.175 61.2887 34.7534 67.8019 40.0987 76.0094C42.9107 80.3367 44.8791 85.0548 45.458 90.2176C46.1282 96.1807 45.458 102.188 44.9377 108.133C44.4081 114.269 44.0449 120.471 45.2658 126.551C46.4375 132.353 49.1933 137.722 52.8115 142.369C59.3331 150.748 69.9579 157.736 81.0186 156.316C86.4084 155.613 90.9639 152.805 94.6664 148.929C98.4158 145.026 101.263 140.392 104.797 136.313C120.915 117.714 146.185 111.973 167.955 102.771C178.601 98.2753 189.793 92.8083 197.36 83.7887C200.901 79.5761 203.558 74.6263 204.587 69.185C205.612 63.803 205.253 58.2491 203.542 53.0437Z" fill="#E6FFF7"/>
<g opacity="0.35">
<path d="M18.8803 106.077C13.0673 104.878 9.32645 99.1939 10.525 93.3809C11.7235 87.5678 17.4076 83.827 23.2206 85.0255C29.0337 86.2241 32.7745 91.9081 31.5759 97.7212C30.3774 103.534 24.6934 107.275 18.8803 106.077Z" fill="#00B37A"/>
<path opacity="0.3" d="M18.8803 106.077C13.0673 104.878 9.32645 99.1939 10.525 93.3809C11.7235 87.5678 17.4076 83.827 23.2206 85.0255C29.0337 86.2241 32.7745 91.9081 31.5759 97.7212C30.3774 103.534 24.6934 107.275 18.8803 106.077Z" fill="white"/>
<path d="M21.776 91.0128C21.4658 91.2743 21.5327 91.8643 21.9037 92.3082C22.2747 92.7522 22.8464 92.9043 23.1596 92.6397C23.4728 92.3751 23.4029 91.7882 23.0319 91.3504C22.6609 90.9125 22.077 90.7604 21.776 91.0128Z" fill="#263238"/>
<path d="M16.8332 95.7538C17.119 95.468 17.6725 95.5227 18.1225 95.9363C18.5726 96.3498 18.6821 96.9033 18.4053 97.2043C18.1286 97.5054 17.563 97.4385 17.119 97.0249C16.6751 96.6114 16.5565 96.0549 16.8332 95.7538Z" fill="#263238"/>
<path d="M19.5275 100.108C19.6157 100.197 21.1057 98.8525 22.8512 97.107C24.5967 95.3616 25.9438 93.8685 25.8556 93.7803C25.7674 93.6921 24.2743 95.0331 22.5258 96.7817C20.7773 98.5302 19.4333 100.014 19.5275 100.108Z" fill="#263238"/>
<path d="M20.2941 90.7482C20.4035 90.8212 20.7624 90.4563 21.2519 90.1005C21.7415 89.7447 22.1946 89.5106 22.1612 89.3859C22.1277 89.2612 21.5469 89.319 20.9813 89.7325C20.4157 90.1461 20.2089 90.6631 20.2941 90.7482Z" fill="#263238"/>
<path d="M15.0576 96.7207C15.1853 96.739 15.3434 96.2403 15.6384 95.6899C15.9334 95.1395 16.2526 94.729 16.1675 94.6256C16.0824 94.5222 15.5685 94.8354 15.234 95.474C14.8995 96.1126 14.9359 96.7146 15.0576 96.7207Z" fill="#263238"/>
<path d="M99.2023 115.51L102.941 112.224L107.764 113.447L105.802 108.88L108.449 104.669L103.495 105.119L100.31 101.3L99.2103 106.152L94.5906 108.004L98.8731 110.547L99.2023 115.51Z" fill="#E0E0E0"/>
<path d="M81.6271 120.188L85.3655 116.902L90.1885 118.125L88.2271 113.557L90.8738 109.347L85.9194 109.797L82.7349 105.977L81.6351 110.829L77.0154 112.681L81.2979 115.224L81.6271 120.188Z" fill="#00B37A"/>
<path d="M64.0509 124.866L67.7893 121.58L72.6123 122.802L70.651 118.235L73.2977 114.025L68.3432 114.474L65.1587 110.655L64.0589 115.507L59.4392 117.359L63.7217 119.902L64.0509 124.866Z" fill="#00B37A"/>
<path d="M46.4758 129.543L50.2141 126.257L55.0371 127.48L53.0758 122.912L55.7225 118.702L50.768 119.152L47.5835 115.333L46.4837 120.184L41.864 122.037L46.1465 124.579L46.4758 129.543Z" fill="#00B37A"/>
<path d="M28.8996 134.221L32.6379 130.935L37.4609 132.157L35.4996 127.59L38.1463 123.38L33.1918 123.83L30.0073 120.01L28.9075 124.862L24.2879 126.714L28.5704 129.257L28.8996 134.221Z" fill="#00B37A"/>
<path d="M69.9209 44.2354C67.0931 31.0898 54.1441 22.7255 40.9985 25.5533C27.8529 28.3811 19.4886 41.3301 22.3164 54.4757C25.1442 67.6213 38.0932 75.9856 51.2388 73.1578C64.3844 70.33 72.7487 57.381 69.9209 44.2354Z" fill="#00B37A"/>
<path d="M35.7534 48.222C36.5149 47.6999 37.7446 48.16 38.5106 49.2585C39.2767 50.357 39.2693 51.6714 38.5113 52.1996C37.7534 52.7278 36.514 52.2652 35.7577 51.1693C35.0014 50.0734 34.9955 48.7502 35.7534 48.222Z" fill="#263238"/>
<path d="M49.0139 40.2361C48.1953 40.6593 48.0312 41.9735 48.6551 43.154C49.2791 44.3346 50.4412 44.949 51.2562 44.5196C52.0712 44.0903 52.2389 42.7823 51.6212 41.5981C51.0034 40.414 49.8172 39.7723 49.0139 40.2361Z" fill="#263238"/>
<path d="M55.2906 45.7993C55.3491 45.815 55.3009 46.1311 55.1715 46.692C54.9887 47.4931 54.7351 48.2765 54.4137 49.0328C53.9299 50.1628 53.2882 51.2185 52.5079 52.1683C51.5405 53.3447 50.3463 54.3144 48.9963 55.0197C47.6479 55.7053 46.1904 56.1508 44.6892 56.3364C43.482 56.5054 42.2613 56.5562 41.0442 56.488C38.9708 56.3503 37.7302 56.0284 37.7307 55.9293C37.7311 55.8301 39.0158 55.9288 41.0303 55.9358C42.2121 55.9287 43.3915 55.829 44.5577 55.6378C45.9738 55.4199 47.3467 54.9804 48.6259 54.3354C49.8894 53.6755 51.0187 52.7859 51.9563 51.7123C52.7227 50.8253 53.379 49.8488 53.9109 48.8041C54.3423 47.8958 54.6841 47.1464 54.872 46.6012C55.0598 46.0561 55.2418 45.7862 55.2906 45.7993Z" fill="#263238"/>
<path d="M33.9682 42.9327C34.0381 43.1395 32.9916 43.6531 31.9033 44.5368C30.8151 45.4205 30.0863 46.3274 29.8973 46.2141C29.7082 46.1008 30.2128 44.9196 31.4298 43.945C32.6469 42.9704 33.93 42.724 33.9682 42.9327Z" fill="#263238"/>
<path d="M51.5103 34.1144C51.4785 34.3305 50.2818 34.3128 48.876 34.6466C47.4703 34.9803 46.3955 35.502 46.2822 35.3202C46.169 35.1383 47.1458 34.2613 48.717 33.9144C50.2882 33.5676 51.5528 33.9169 51.5103 34.1144Z" fill="#263238"/>
<path d="M37.2069 54.2214C37.2872 54.175 37.5409 54.3004 37.7985 54.7038C38.1102 55.2209 38.2452 55.8255 38.1832 56.4262C38.1334 57.0321 37.8845 57.6046 37.4753 58.0543C37.1564 58.3867 36.8894 58.4667 36.8264 58.4289C36.7194 58.2435 37.341 57.5221 37.4263 56.3853C37.5115 55.2485 37.0393 54.3593 37.2069 54.2214Z" fill="#263238"/>
<path d="M57.3229 45.1945C57.3692 45.2748 57.2835 45.4974 56.9702 45.7112C56.551 45.9793 56.0513 46.0929 55.5573 46.0326C55.0587 45.9815 54.5939 45.7571 54.2437 45.3985C53.9902 45.1164 53.9405 44.8732 54.0234 44.8171C54.2088 44.7101 54.7757 45.2067 55.6398 45.2763C56.504 45.346 57.1726 45.0341 57.3229 45.1945Z" fill="#263238"/>
<path d="M71.7689 34.2668C71.7689 34.2668 71.6868 34.1247 71.4856 33.8618L70.6917 32.6723C70.5347 32.4004 70.3254 32.1092 70.1142 31.7862C69.903 31.4632 69.5998 31.1522 69.3159 30.7888C69.0319 30.4254 68.7116 30.0418 68.377 29.6335C68.0091 29.2014 67.6194 28.7884 67.2094 28.3961C65.1836 26.3008 62.8523 24.5243 60.2947 23.127C56.9215 21.2415 53.2166 20.0236 49.3826 19.5397L47.7701 19.3584C47.2247 19.3272 46.6716 19.3252 46.0989 19.318C45.5262 19.3109 44.9701 19.2611 44.4013 19.3176L42.6734 19.4501L41.7983 19.5186L40.9255 19.6765L39.1443 19.988C38.5536 20.1066 37.9677 20.3048 37.3763 20.465C36.7704 20.609 36.1749 20.7932 35.5935 21.0164C34.3884 21.4412 33.214 21.9486 32.0786 22.5349C31.5162 22.8595 30.9049 23.1136 30.3435 23.4542L28.6693 24.5362C28.3789 24.7039 28.0885 24.8715 27.8301 25.0948L27.0373 25.7338C26.5161 26.1583 25.9621 26.5688 25.4526 27.0278C24.4232 27.969 23.4595 28.9796 22.5683 30.0525C21.645 31.1444 20.7967 32.2976 20.0294 33.5041C19.6542 34.1245 19.3287 34.7738 18.9704 35.4091C18.8046 35.7355 18.6024 36.0418 18.4597 36.3796L18.0252 37.3968C17.4324 38.7674 16.9296 40.1751 16.5198 41.6111L16.0394 43.833L15.9198 44.3964L15.8453 44.9668L15.6876 46.1207L15.5299 47.2747L15.5006 48.4369L15.4748 49.6053L15.465 50.1878L15.503 50.7673L15.6896 53.1314L16.0983 55.4662C17.3838 61.8315 20.7153 67.6019 25.5851 71.8978C26.1829 72.3766 26.803 72.9084 27.4089 73.4155C28.0148 73.9226 28.7096 74.3125 29.363 74.7592L29.8494 75.0881L30.3587 75.3708L31.3799 75.9265L32.4011 76.4822L33.4829 76.9288L34.5611 77.3692L35.0861 77.5934L35.6303 77.7654L37.7947 78.4602C39.2442 78.8258 40.7159 79.0963 42.2007 79.2699L43.3014 79.3925C43.6689 79.4439 44.0352 79.422 44.4009 79.4416C45.1302 79.4489 45.8553 79.4918 46.5801 79.477C49.4042 79.3467 52.2002 78.8566 54.9003 78.0185C55.5526 77.8068 56.1851 77.5322 56.8195 77.2895L57.7631 76.926C58.0749 76.7954 58.3654 76.6277 58.6665 76.4786L60.4406 75.5697C61.0091 75.2414 61.5527 74.8699 62.1043 74.5267C63.18 73.8369 64.2066 73.0735 65.1769 72.2419C65.6585 71.8474 66.1157 71.4239 66.5457 70.9737C66.9863 70.5381 67.4412 70.1271 67.849 69.6775L69.0032 68.2943L69.5763 67.6173L70.0732 66.8937L71.0519 65.4635C71.3599 64.9884 71.6431 64.4976 71.9003 63.9932C72.1681 63.5008 72.4491 63.0172 72.701 62.5257L73.3405 61.0359C74.8409 57.473 75.6406 53.6542 75.696 49.7886C75.7578 46.8647 75.3769 43.9483 74.5662 41.1385C74.4326 40.5893 74.271 40.0473 74.0819 39.5147C73.8956 39.0208 73.7174 38.5552 73.5509 38.124C73.3843 37.6928 73.2418 37.289 73.0862 36.9339C72.9306 36.5788 72.7665 36.2945 72.6076 35.9907C72.3343 35.4317 72.12 35.0034 71.9744 34.7084C71.8288 34.4135 71.7653 34.2606 71.7653 34.2606C71.7653 34.2606 71.8473 34.4028 72.0115 34.687C72.1756 34.9713 72.3873 35.4093 72.6756 35.9515C72.8361 36.2296 73.0324 36.5695 73.1701 36.8937C73.3079 37.2179 73.478 37.6552 73.6569 38.0793C73.8358 38.5033 74.0114 38.9787 74.2074 39.4752C74.4012 40.0074 74.5682 40.549 74.7076 41.098C75.5487 43.9123 75.9519 46.8392 75.9031 49.7761C75.8664 53.667 75.0768 57.514 73.578 61.1048L72.9333 62.6141C72.6912 63.1081 72.4101 63.5918 72.1397 64.0939C71.8694 64.5961 71.6221 65.1096 71.2825 65.5776L70.3048 67.0237L69.816 67.7755L69.2402 68.4623L68.0773 69.8588C67.6704 70.3244 67.2058 70.7327 66.7688 71.1745C66.3351 71.6323 65.8741 72.0635 65.3885 72.4658C64.4074 73.3069 63.3696 74.0795 62.2825 74.7782C61.7201 75.1028 61.1918 75.515 60.6135 75.8406L58.8209 76.7602C58.5243 76.9315 58.2029 77.117 57.9051 77.2148L56.9491 77.5855C56.3085 77.8317 55.6699 78.1098 55.0114 78.3252C53.665 78.748 52.2927 79.0835 50.903 79.3294C49.4811 79.5862 48.0436 79.7472 46.6001 79.8115C45.863 79.8333 45.1282 79.7879 44.3891 79.778C44.018 79.7848 43.6468 79.7708 43.2772 79.736L42.1632 79.6047C40.6624 79.4348 39.1745 79.1652 37.7095 78.7978L35.5158 78.0951L34.9618 77.9206L34.4271 77.6937L33.3454 77.2471L32.2564 76.7882L31.2255 76.2299L30.191 75.6654L29.672 75.3801L29.1819 75.045L27.2155 73.7085C26.5999 73.1988 25.9869 72.6793 25.3712 72.1696C20.4428 67.8189 17.0702 61.9775 15.7667 55.534L15.3561 53.1674L15.1818 50.7962L15.1429 50.2007L15.1553 49.6085L15.1837 48.4303L15.2156 47.2584L15.3662 46.0921L15.5168 44.9258L15.5877 44.3493L15.7073 43.7858C15.8766 43.0372 16.0361 42.2859 16.1991 41.5408C16.6149 40.0873 17.1241 38.6621 17.7237 37.2742L18.167 36.2438C18.3159 35.9024 18.5146 35.5899 18.6866 35.2599C19.051 34.621 19.3853 33.9584 19.7666 33.3345C20.544 32.1165 21.4022 30.9521 22.3355 29.8491C23.2434 28.7686 24.2201 27.7478 25.2595 26.7932C25.7752 26.3307 26.3354 25.9166 26.8689 25.485L27.6679 24.8424C27.9369 24.6377 28.2336 24.4664 28.5133 24.2802L30.206 23.1875C30.7869 22.8522 31.384 22.5734 31.9668 22.2698C33.1154 21.6777 34.3034 21.1652 35.5224 20.7361C36.1136 20.5187 36.7161 20.3332 37.3272 20.1802C37.9319 20.0288 38.5179 19.8306 39.1147 19.7085L40.9118 19.396L41.798 19.2469L42.6828 19.181L44.4267 19.0476C45.0052 18.9937 45.5782 19.0584 46.1375 19.0568C46.6969 19.0552 47.267 19.0721 47.8159 19.1095L49.4453 19.3058C53.3011 19.8002 57.0249 21.0357 60.4116 22.9442C62.9759 24.3646 65.3074 26.1697 67.3249 28.2964C67.7322 28.7451 68.1702 29.1184 68.4837 29.5472C68.7972 29.9759 69.1237 30.3559 69.4174 30.7219C69.7111 31.0879 69.9736 31.4142 70.2007 31.7363C70.4279 32.0583 70.5575 32.3543 70.7659 32.6295C71.0798 33.1733 71.3559 33.5659 71.5288 33.8369C71.7018 34.1078 71.7689 34.2668 71.7689 34.2668Z" fill="#00B37A"/>
<path d="M91.9709 84.6685C92.6827 80.1999 89.6371 76.0005 85.1686 75.2887C80.7 74.577 76.5005 77.6225 75.7887 82.091C75.077 86.5596 78.1225 90.7591 82.5911 91.4709C87.0597 92.1826 91.2592 89.1371 91.9709 84.6685Z" fill="#EE2D41"/>
<path d="M91.9709 84.6685C92.6827 80.1999 89.6371 76.0005 85.1686 75.2887C80.7 74.577 76.5005 77.6225 75.7887 82.091C75.077 86.5596 78.1225 90.7591 82.5911 91.4709C87.0597 92.1826 91.2592 89.1371 91.9709 84.6685Z" fill="#00B37A"/>
<path d="M81.0495 81.3114C81.3658 81.2861 81.6442 81.6277 81.6821 82.0769C81.7201 82.5261 81.4987 82.9089 81.1887 82.9342C80.8787 82.9595 80.594 82.6178 80.556 82.1686C80.518 81.7194 80.7395 81.3367 81.0495 81.3114Z" fill="#263238"/>
<path d="M86.2601 81.2037C85.9437 81.2037 85.6812 81.5454 85.6622 81.9946C85.6432 82.4438 85.8836 82.817 86.1936 82.8297C86.5036 82.8423 86.7725 82.4881 86.7915 82.0389C86.8105 81.5897 86.5732 81.2164 86.2601 81.2037Z" fill="#263238"/>
<path d="M87.1543 84.9999C87.1195 85.0442 86.7778 84.8006 86.2053 84.5001C85.4523 84.1069 84.6158 83.9008 83.7663 83.899C82.916 83.9366 82.083 84.1522 81.3211 84.5317C80.7264 84.8227 80.3721 85.0442 80.3436 84.9999C80.3151 84.9556 80.6251 84.6836 81.2104 84.3229C81.9818 83.8566 82.8592 83.5942 83.76 83.5606C84.6659 83.5581 85.554 83.8114 86.3223 84.2913C86.8886 84.6519 87.1764 84.9683 87.1543 84.9999Z" fill="#263238"/>
<path d="M81.6756 80.3688C81.704 80.4036 81.6503 80.5079 81.5143 80.625C81.3359 80.7858 81.1172 80.8951 80.8816 80.9413C80.6418 80.9871 80.3937 80.9595 80.1698 80.8622C80.0022 80.7863 79.9263 80.6978 79.9452 80.6566C79.9642 80.6155 80.3723 80.6978 80.8215 80.6092C81.2707 80.5206 81.6155 80.2928 81.6756 80.3688Z" fill="#263238"/>
<path d="M87.7402 80.7673C87.7402 80.8084 87.6643 80.8875 87.4808 80.9445C87.2396 81.0128 86.983 81.0039 86.747 80.9192C86.5153 80.8375 86.3076 80.6995 86.1427 80.5174C86.0225 80.3782 85.9783 80.2675 86.0099 80.2359C86.0415 80.2042 86.4116 80.4446 86.8545 80.5996C87.2974 80.7547 87.7086 80.6724 87.7402 80.7673Z" fill="#263238"/>
</g>
</svg>
