<svg width="89" height="88" viewBox="0 0 89 88" fill="none" xmlns="http://www.w3.org/2000/svg">
<path opacity="0.3" d="M24.2857 -27H58.6821C60.4555 -27 62.1715 -26.3716 63.5256 -25.2263L87.3435 -5.08029C89.0283 -3.65526 90 -1.56061 90 0.646009V63.4167C90 72.3694 89.8978 73 80.7143 73H24.2857C15.1022 73 15 72.3694 15 63.4167V-17.4167C15 -26.3694 15.1022 -27 24.2857 -27ZM40 28C37.2386 28 35 30.2386 35 33C35 35.7614 37.2386 38 40 38H75C77.7614 38 80 35.7614 80 33C80 30.2386 77.7614 28 75 28H40ZM40 48C37.2386 48 35 50.2386 35 53C35 55.7614 37.2386 58 40 58H55C57.7614 58 60 55.7614 60 53C60 50.2386 57.7614 48 55 48H40Z" fill="#44AACB"/>
<path d="M34.2857 -17H73.6821C75.4555 -17 77.1715 -16.3716 78.5256 -15.2263L102.343 4.91971C104.028 6.34474 105 8.43939 105 10.646V73.4167C105 82.3694 104.898 83 95.7143 83H34.2857C25.1022 83 25 82.3694 25 73.4167V-7.41667C25 -16.3694 25.1022 -17 34.2857 -17ZM40 28C37.2386 28 35 30.2386 35 33C35 35.7614 37.2386 38 40 38H75C77.7614 38 80 35.7614 80 33C80 30.2386 77.7614 28 75 28H40ZM40 48C37.2386 48 35 50.2386 35 53C35 55.7614 37.2386 58 40 58H55C57.7614 58 60 55.7614 60 53C60 50.2386 57.7614 48 55 48H40Z" fill="#44AACB"/>
</svg>
