<svg width="25" height="26" viewBox="0 0 25 26" fill="none" xmlns="http://www.w3.org/2000/svg">
<path d="M11.4688 17.2648C12.0172 17.7041 12.797 17.7038 13.3451 17.2642L20.0169 11.9131L20.246 11.7303C20.9977 11.1307 20.9989 9.98849 20.2485 9.38719L13.3451 3.85579C12.797 3.41656 12.0174 3.41656 11.4692 3.85579L4.56144 9.39078C3.81245 9.99092 3.81196 11.1304 4.56044 11.7311L4.78712 11.9131L11.4688 17.2648Z" fill="white"/>
<path opacity="0.5" fill-rule="evenodd" clip-rule="evenodd" d="M13.3347 19.9705C12.7866 20.4096 12.0072 20.4097 11.459 19.9706L5.52621 15.2187C5.11478 14.8892 4.51294 14.9618 4.19168 15.3797C3.87519 15.7915 3.95204 16.3818 4.36341 16.6988L11.4902 22.1905C12.0297 22.6062 12.7815 22.6063 13.3211 22.1906L20.4445 16.7036C20.8594 16.3841 20.9367 15.7887 20.6172 15.3738C20.2932 14.9532 19.6872 14.8804 19.2729 15.2124L13.3347 19.9705Z" fill="#4299E1"/>
</svg>
