<svg width="24" height="25" viewBox="0 0 24 25" fill="none" xmlns="http://www.w3.org/2000/svg">
<path opacity="0.3" d="M10.8223 9.07791L12.732 10.5315C13.4108 9.63963 14.4589 9.1085 15.5996 9.1085C17.5878 9.1085 19.1996 10.7203 19.1996 12.7085C19.1996 14.6967 17.5878 16.3085 15.5996 16.3085C14.581 16.3085 13.6359 15.8866 12.957 15.1533L11.1959 16.7838C12.2919 17.9675 13.8592 18.7085 15.5996 18.7085C18.9133 18.7085 21.5996 16.0222 21.5996 12.7085C21.5996 9.39479 18.9133 6.7085 15.5996 6.7085C13.6504 6.7085 11.9182 7.63798 10.8223 9.07791Z" fill="white"/>
<path fill-rule="evenodd" clip-rule="evenodd" d="M8.40039 18.7085C5.08668 18.7085 2.40039 16.0222 2.40039 12.7085C2.40039 9.39479 5.08668 6.7085 8.40039 6.7085C11.7141 6.7085 14.4004 9.39479 14.4004 12.7085C14.4004 16.0222 11.7141 18.7085 8.40039 18.7085Z" fill="white"/>
</svg>
