<svg width="24" height="25" viewBox="0 0 24 25" fill="none" xmlns="http://www.w3.org/2000/svg">
<path d="M21.7476 7.80708L12.8983 17.0227C12.623 17.3094 12.2452 17.4751 11.8478 17.4834L8.12452 17.5615L8.20295 13.823C8.2111 13.4347 8.36957 13.0647 8.64501 12.7908L17.6956 3.79196C18.2818 3.20904 19.2292 3.2104 19.8138 3.795L21.7263 5.70748C22.3037 6.28489 22.3132 7.21809 21.7476 7.80708Z" fill="white"/>
<path opacity="0.3" d="M12.9 2.7085C13.4523 2.7085 13.9 3.15621 13.9 3.7085C13.9 4.26078 13.4523 4.7085 12.9 4.7085H6C4.89543 4.7085 4 5.60393 4 6.7085V18.7085C4 19.8131 4.89543 20.7085 6 20.7085H18C19.1046 20.7085 20 19.8131 20 18.7085V13.7085C20 13.1562 20.4477 12.7085 21 12.7085C21.5523 12.7085 22 13.1562 22 13.7085V18.7085C22 20.9176 20.2091 22.7085 18 22.7085H6C3.79086 22.7085 2 20.9176 2 18.7085V6.7085C2 4.49936 3.79086 2.7085 6 2.7085H12.9Z" fill="white"/>
</svg>
