<svg width="24" height="25" viewBox="0 0 24 25" fill="none" xmlns="http://www.w3.org/2000/svg">
<path opacity="0.3" d="M18 14.7085C16.3431 14.7085 15 13.3654 15 11.7085C15 10.0516 16.3431 8.7085 18 8.7085C19.6569 8.7085 21 10.0516 21 11.7085C21 13.3654 19.6569 14.7085 18 14.7085ZM9 11.7085C6.79086 11.7085 5 9.91763 5 7.7085C5 5.49936 6.79086 3.7085 9 3.7085C11.2091 3.7085 13 5.49936 13 7.7085C13 9.91763 11.2091 11.7085 9 11.7085Z" fill="white"/>
<path d="M17.6012 15.7091C21.0077 15.7463 23.7892 17.4686 23.9985 21.1085C24.0069 21.2551 23.9985 21.7085 23.4559 21.7085H19.6C19.6 19.4576 18.8563 17.3803 17.6012 15.7091ZM0.000651684 20.9077C0.388259 16.135 4.26191 13.7085 8.98334 13.7085C13.7712 13.7085 17.7049 16.0017 17.9979 20.9085C18.0096 21.104 17.9979 21.7085 17.2467 21.7085C13.5411 21.7085 8.03472 21.7085 0.727502 21.7085C0.476712 21.7085 -0.0204618 21.1677 0.000651684 20.9077Z" fill="white"/>
</svg>
