<svg width="19" height="19" viewBox="0 0 19 19" fill="none" xmlns="http://www.w3.org/2000/svg">
<path opacity="0.3" d="M4.63699 1.58325H10.7603C11.115 1.58325 11.4582 1.70894 11.729 1.93799L15.3021 4.96025C15.6391 5.24526 15.8334 5.66419 15.8334 6.10551V15.8992C15.8334 17.3167 15.8172 17.4166 14.3632 17.4166H4.63699C3.18294 17.4166 3.16675 17.3167 3.16675 15.8992V3.10061C3.16675 1.6831 3.18294 1.58325 4.63699 1.58325Z" fill="#4299E1"/>
<path fill-rule="evenodd" clip-rule="evenodd" d="M8.70841 11.0834L7.12508 11.0834C6.68785 11.0834 6.33341 10.729 6.33341 10.2917C6.33341 9.85452 6.68785 9.50008 7.12508 9.50008L8.70841 9.50008L8.70841 7.91675C8.70841 7.47952 9.06285 7.12508 9.50008 7.12508C9.9373 7.12508 10.2917 7.47952 10.2917 7.91675L10.2917 9.50008H11.8751C12.3123 9.50008 12.6667 9.85452 12.6667 10.2917C12.6667 10.729 12.3123 11.0834 11.8751 11.0834H10.2917L10.2917 12.6667C10.2917 13.104 9.9373 13.4584 9.50008 13.4584C9.06285 13.4584 8.70841 13.104 8.70841 12.6667L8.70841 11.0834Z" fill="white"/>
</svg>
