<svg width="23" height="23" viewBox="0 0 23 23" fill="none" xmlns="http://www.w3.org/2000/svg">
<path opacity="0.3" fill-rule="evenodd" clip-rule="evenodd" d="M3.83337 3.8333L11.1315 2.46491C11.3751 2.41923 11.625 2.41923 11.8686 2.46491L19.1667 3.8333V11.1532C19.1667 14.9459 17.2129 18.4711 13.9967 20.4812L12.03 21.7104C11.7058 21.9131 11.2943 21.9131 10.97 21.7104L9.00339 20.4812C5.78719 18.4711 3.83337 14.9459 3.83337 11.1532L3.83337 3.8333Z" fill="#4299E1"/>
<path fill-rule="evenodd" clip-rule="evenodd" d="M10.7094 14.1354C10.4798 14.1354 10.2502 14.0436 10.0665 13.8599L8.22974 12.0231C7.86238 11.6557 7.86238 11.1047 8.22974 10.7373C8.59711 10.37 9.19407 10.37 9.51551 10.7373L10.7094 11.9312L13.7402 8.90052C14.1075 8.53316 14.6586 8.53316 15.0259 8.90052C15.3933 9.26788 15.3933 9.81892 15.0259 10.1863L11.3523 13.8599C11.1686 14.0436 10.939 14.1354 10.7094 14.1354Z" fill="white"/>
</svg>
