<svg width="19" height="19" viewBox="0 0 19 19" fill="none" xmlns="http://www.w3.org/2000/svg">
<path opacity="0.3" d="M4.63699 1.58337H10.7603C11.115 1.58337 11.4582 1.70906 11.729 1.93811L15.3021 4.96037C15.6391 5.24538 15.8334 5.66431 15.8334 6.10563V15.8993C15.8334 17.3169 15.8172 17.4167 14.3632 17.4167H4.63699C3.18294 17.4167 3.16675 17.3169 3.16675 15.8993V3.10074C3.16675 1.68322 3.18294 1.58337 4.63699 1.58337Z" fill="#4299E1"/>
<path fill-rule="evenodd" clip-rule="evenodd" d="M8.70841 11.0833L7.12508 11.0833C6.68785 11.0833 6.33341 10.7289 6.33341 10.2916C6.33341 9.8544 6.68785 9.49996 7.12508 9.49996L8.70841 9.49996L8.70841 7.91663C8.70841 7.4794 9.06285 7.12496 9.50008 7.12496C9.9373 7.12496 10.2917 7.4794 10.2917 7.91663L10.2917 9.49996H11.8751C12.3123 9.49996 12.6667 9.8544 12.6667 10.2916C12.6667 10.7289 12.3123 11.0833 11.8751 11.0833H10.2917L10.2917 12.6666C10.2917 13.1039 9.9373 13.4583 9.50008 13.4583C9.06285 13.4583 8.70841 13.1039 8.70841 12.6666L8.70841 11.0833Z" fill="white"/>
</svg>
