<svg width="65" height="64" viewBox="0 0 65 64" fill="none" xmlns="http://www.w3.org/2000/svg">
<path d="M32.625 5.33337C47.345 5.33337 59.2916 17.28 59.2916 32C59.2916 46.72 47.345 58.6667 32.625 58.6667C17.905 58.6667 5.95831 46.72 5.95831 32C5.95831 17.28 17.905 5.33337 32.625 5.33337ZM16.6863 41.1094C20.601 46.9494 26.4783 50.6667 33.0516 50.6667C39.6223 50.6667 45.5023 46.952 49.4143 41.1094C44.9763 36.9616 39.1262 34.6582 33.0516 34.6667C26.9762 34.6575 21.125 36.961 16.6863 41.1094ZM32.625 29.3334C34.7467 29.3334 36.7815 28.4905 38.2818 26.9902C39.7821 25.4899 40.625 23.4551 40.625 21.3334C40.625 19.2116 39.7821 17.1768 38.2818 15.6765C36.7815 14.1762 34.7467 13.3334 32.625 13.3334C30.5032 13.3334 28.4684 14.1762 26.9681 15.6765C25.4678 17.1768 24.625 19.2116 24.625 21.3334C24.625 23.4551 25.4678 25.4899 26.9681 26.9902C28.4684 28.4905 30.5032 29.3334 32.625 29.3334Z" fill="#215480"/>
</svg>
