<svg width="32" height="33" viewBox="0 0 32 33" fill="none" xmlns="http://www.w3.org/2000/svg">
<path opacity="0.3" d="M24 10.7663H21.3333C20.5969 10.7663 20 10.1694 20 9.43297C20 8.69659 20.5969 8.09964 21.3333 8.09964H24V5.43297C24 4.69659 24.5969 4.09964 25.3333 4.09964C26.0697 4.09964 26.6666 4.69659 26.6666 5.43297V8.09964H29.3333C30.0697 8.09964 30.6666 8.69659 30.6666 9.43297C30.6666 10.1694 30.0697 10.7663 29.3333 10.7663H26.6666V13.433C26.6666 14.1694 26.0697 14.7663 25.3333 14.7663C24.5969 14.7663 24 14.1694 24 13.433V10.7663ZM12 14.7663C9.05444 14.7663 6.66663 12.3785 6.66663 9.43297C6.66663 6.48745 9.05444 4.09964 12 4.09964C14.9455 4.09964 17.3333 6.48745 17.3333 9.43297C17.3333 12.3785 14.9455 14.7663 12 14.7663Z" fill="white"/>
<path d="M0.000868912 27.0319C0.517678 20.6683 5.68255 17.433 11.9778 17.433C18.3616 17.433 23.6065 20.4906 23.9972 27.033C24.0128 27.2936 23.9972 28.0996 22.9956 28.0996C18.0548 28.0996 10.713 28.0996 0.970003 28.0996C0.635616 28.0996 -0.0272823 27.3786 0.000868912 27.0319Z" fill="white"/>
</svg>
