<svg width="93" height="95" viewBox="0 0 93 95" fill="none" xmlns="http://www.w3.org/2000/svg">
<path d="M75 28.3334H66.6667C64.3655 28.3334 62.5 26.4679 62.5 24.1667C62.5 21.8655 64.3655 20 66.6667 20H75V11.6667C75 9.36551 76.8655 7.50003 79.1667 7.50003C81.4679 7.50003 83.3334 9.36551 83.3334 11.6667V20H91.6667C93.9679 20 95.8334 21.8655 95.8334 24.1667C95.8334 26.4679 93.9679 28.3334 91.6667 28.3334H83.3334V36.6667C83.3334 38.9679 81.4679 40.8334 79.1667 40.8334C76.8655 40.8334 75 38.9679 75 36.6667V28.3334ZM37.5 40.8334C28.2953 40.8334 20.8334 33.3714 20.8334 24.1667C20.8334 14.962 28.2953 7.50003 37.5 7.50003C46.7048 7.50003 54.1667 14.962 54.1667 24.1667C54.1667 33.3714 46.7048 40.8334 37.5 40.8334Z" fill="#0063CC"/>
<path d="M0.00271535 79.1634C1.61774 59.2772 17.758 49.1667 37.4306 49.1667C57.3801 49.1667 73.7703 58.7217 74.9913 79.1667C75.0399 79.9812 74.9913 82.5 71.8613 82.5C56.4213 82.5 33.478 82.5 3.03126 82.5C1.9863 82.5 -0.0852573 80.2466 0.00271535 79.1634Z" fill="#0063CC"/>
</svg>
