<svg width="33" height="32" viewBox="0 0 33 32" fill="none" xmlns="http://www.w3.org/2000/svg">
<path fill-rule="evenodd" clip-rule="evenodd" d="M8.66663 2.66669H24.6666C26.8758 2.66669 28.6666 4.45755 28.6666 6.66669V25.3334C28.6666 27.5425 26.8758 29.3334 24.6666 29.3334H8.66663C6.45749 29.3334 4.66663 27.5425 4.66663 25.3334V6.66669C4.66663 4.45755 6.45749 2.66669 8.66663 2.66669ZM16.6666 14.6667C18.1394 14.6667 19.3333 13.4728 19.3333 12C19.3333 10.5273 18.1394 9.33335 16.6666 9.33335C15.1939 9.33335 14 10.5273 14 12C14 13.4728 15.1939 14.6667 16.6666 14.6667ZM10.0004 21.9994C9.9848 22.216 10.3531 22.6667 10.5389 22.6667C15.9516 22.6667 20.0304 22.6667 22.7753 22.6667C23.3317 22.6667 23.3404 22.1629 23.3317 22C23.1147 17.911 20.2009 16 16.6543 16C13.1569 16 10.2876 18.0221 10.0004 21.9994Z" fill="white"/>
</svg>
