<svg width="32" height="32" viewBox="0 0 32 32" fill="none" xmlns="http://www.w3.org/2000/svg">
<rect width="32" height="32" rx="16" fill="#215480"/>
<path d="M20.2427 19.5761L16 23.8188L11.7573 19.5761C10.9182 18.737 10.3468 17.6679 10.1153 16.504C9.88378 15.3401 10.0026 14.1337 10.4567 13.0374C10.9109 11.941 11.6799 11.004 12.6666 10.3447C13.6533 9.68539 14.8133 9.3335 16 9.3335C17.1867 9.3335 18.3467 9.68539 19.3334 10.3447C20.3201 11.004 21.0891 11.941 21.5433 13.0374C21.9974 14.1337 22.1162 15.3401 21.8847 16.504C21.6532 17.6679 21.0818 18.737 20.2427 19.5761ZM16 16.6668C16.3536 16.6668 16.6928 16.5263 16.9428 16.2763C17.1929 16.0262 17.3333 15.6871 17.3333 15.3334C17.3333 14.9798 17.1929 14.6407 16.9428 14.3906C16.6928 14.1406 16.3536 14.0001 16 14.0001C15.6464 14.0001 15.3072 14.1406 15.0572 14.3906C14.8071 14.6407 14.6667 14.9798 14.6667 15.3334C14.6667 15.6871 14.8071 16.0262 15.0572 16.2763C15.3072 16.5263 15.6464 16.6668 16 16.6668Z" fill="white"/>
</svg>
