<svg width="400" height="315" viewBox="0 0 400 315" fill="none" xmlns="http://www.w3.org/2000/svg">
<path d="M99.7852 263.383V268.37H137.121V263.383H99.7852Z" fill="#D7E1EA"/>
<path d="M104.877 263.583C105.01 263.583 105.109 264.631 105.109 265.917C105.109 267.21 105.003 268.252 104.877 268.252C104.744 268.252 104.645 267.204 104.645 265.917C104.638 264.631 104.744 263.583 104.877 263.583Z" fill="#F2F7FC"/>
<path d="M104.06 263.483C104.193 263.483 104.292 264.531 104.292 265.818C104.292 267.111 104.186 268.152 104.06 268.152C103.928 268.152 103.828 267.104 103.828 265.818C103.828 264.531 103.928 263.483 104.06 263.483Z" fill="#F2F7FC"/>
<path d="M134.232 263.583C134.365 263.583 134.464 264.631 134.464 265.917C134.464 267.21 134.358 268.252 134.232 268.252C134.099 268.252 134 267.204 134 265.917C134 264.631 134.106 263.583 134.232 263.583Z" fill="#F2F7FC"/>
<path d="M133.424 263.483C133.556 263.483 133.656 264.531 133.656 265.818C133.656 267.111 133.55 268.152 133.424 268.152C133.291 268.152 133.192 267.104 133.192 265.818C133.185 264.531 133.291 263.483 133.424 263.483Z" fill="#F2F7FC"/>
<path d="M128.544 266.024C128.544 266.156 124.267 266.256 118.995 266.256C113.716 266.256 109.445 266.15 109.445 266.024C109.445 265.891 113.723 265.792 118.995 265.792C124.267 265.792 128.544 265.891 128.544 266.024Z" fill="#F2F7FC"/>
<path d="M99.625 285.839V295.812H136.961V285.839H99.625Z" fill="#D7E1EA"/>
<path d="M137.436 293.008C137.443 293.014 137.37 293.054 137.23 293.127C137.091 293.2 136.885 293.293 136.607 293.412C136.05 293.638 135.214 293.963 134.074 294.135C132.953 294.294 131.454 294.341 129.969 293.551C129.239 293.16 128.543 292.57 128.019 291.781C127.502 290.998 127.17 289.97 127.343 288.909C127.429 288.379 127.654 287.855 128.032 287.424C128.397 286.993 128.981 286.674 129.604 286.708C130.227 286.734 130.791 287.092 131.189 287.563C131.587 288.034 131.852 288.631 131.912 289.267C132.058 290.534 131.527 291.847 130.625 292.802C129.737 293.797 128.41 294.4 127.038 294.553C125.658 294.719 124.226 294.5 122.873 294.035C121.52 293.571 120.181 292.809 119.232 291.588C118.768 290.985 118.436 290.229 118.383 289.433C118.317 288.637 118.569 287.782 119.179 287.192C119.484 286.893 119.909 286.701 120.346 286.681C120.784 286.661 121.215 286.8 121.567 287.026C122.289 287.47 122.747 288.24 122.939 289.042C123.291 290.673 122.647 292.371 121.467 293.439C120.287 294.513 118.741 294.99 117.263 295.15C115.777 295.295 114.285 295.189 112.906 294.719C111.533 294.261 110.299 293.359 109.59 292.139C108.867 290.945 108.628 289.44 109.172 288.173C109.431 287.55 110.008 286.993 110.697 286.887C111.367 286.761 112.057 286.946 112.581 287.338C113.635 288.173 113.808 289.606 113.469 290.7C113.125 291.821 112.369 292.683 111.586 293.352C109.988 294.699 108.098 295.282 106.466 295.342C104.815 295.402 103.423 294.944 102.408 294.42C101.387 293.89 100.71 293.286 100.292 292.855C100.087 292.636 99.9343 292.464 99.8481 292.338C99.7553 292.212 99.7088 292.152 99.7155 292.145C99.7619 292.079 100.465 293.233 102.494 294.261C103.502 294.752 104.862 295.163 106.46 295.083C108.038 295.004 109.855 294.413 111.374 293.107C112.117 292.457 112.819 291.628 113.125 290.607C113.43 289.619 113.231 288.339 112.349 287.663C111.918 287.338 111.321 287.185 110.777 287.291C110.22 287.384 109.782 287.802 109.557 288.352C109.086 289.46 109.291 290.832 109.968 291.927C110.631 293.047 111.758 293.87 113.058 294.301C114.358 294.738 115.797 294.845 117.223 294.699C118.635 294.546 120.088 294.082 121.162 293.1C122.223 292.145 122.8 290.587 122.488 289.155C122.316 288.458 121.918 287.802 121.321 287.437C120.738 287.052 119.975 287.066 119.497 287.55C119.013 288.014 118.781 288.737 118.848 289.42C118.887 290.116 119.179 290.773 119.597 291.33C120.452 292.444 121.726 293.18 123.012 293.631C124.319 294.082 125.685 294.294 126.985 294.142C128.278 293.996 129.491 293.452 130.32 292.537C131.162 291.655 131.647 290.454 131.521 289.327C131.428 288.233 130.592 287.159 129.584 287.092C129.087 287.059 128.609 287.304 128.291 287.676C127.959 288.047 127.754 288.518 127.674 288.989C127.508 289.95 127.8 290.899 128.278 291.641C128.762 292.384 129.418 292.961 130.101 293.339C131.494 294.108 132.96 294.102 134.06 293.969C135.181 293.823 136.023 293.538 136.58 293.339C137.144 293.114 137.429 292.988 137.436 293.008Z" fill="#F2F7FC"/>
<path d="M102.953 268.508V285.817H136.953V268.508H102.953Z" fill="#F2F7FC"/>
<path d="M108.607 269.107C108.74 269.107 108.84 272.861 108.84 277.483C108.84 282.112 108.733 285.859 108.607 285.859C108.475 285.859 108.375 282.112 108.375 277.483C108.369 272.854 108.475 269.107 108.607 269.107Z" fill="#D7E1EA"/>
<path d="M111.186 268.889C111.318 268.889 111.418 272.589 111.418 277.158C111.418 281.727 111.312 285.428 111.186 285.428C111.053 285.428 110.953 281.727 110.953 277.158C110.947 272.596 111.053 268.889 111.186 268.889Z" fill="#D7E1EA"/>
<path d="M133.115 268.332C133.248 268.332 133.347 272.231 133.347 277.039C133.347 281.847 133.241 285.746 133.115 285.746C132.983 285.746 132.883 281.847 132.883 277.039C132.876 272.231 132.983 268.332 133.115 268.332Z" fill="#D7E1EA"/>
<path d="M130.084 268.57C130.217 268.57 130.316 272.37 130.316 277.052C130.316 281.741 130.21 285.534 130.084 285.534C129.958 285.534 129.852 281.734 129.852 277.052C129.845 272.364 129.951 268.57 130.084 268.57Z" fill="#D7E1EA"/>
<path d="M313.114 230.73C316.642 228.913 320.787 228.675 324.699 229.324C326.802 229.669 328.997 230.299 330.422 231.878C331.855 233.456 332.127 236.235 330.482 237.594C329.507 238.403 328.141 238.522 326.875 238.509C323.811 238.476 320.415 237.932 317.962 239.776C316.562 240.83 315.634 242.574 313.969 243.092C312.338 243.596 310.495 242.634 309.626 241.162C308.757 239.69 308.731 237.846 309.135 236.182C309.142 236.182 309.566 232.561 313.114 230.73Z" fill="#F2F7FC"/>
<path d="M305.039 215.14C307.194 218.217 311.385 217.202 313.328 215.319C315.271 213.442 316.093 210.716 316.836 208.117C318.54 202.181 320.265 195.961 318.998 189.913C318.62 188.109 317.944 186.305 316.67 184.966C315.404 183.626 313.447 182.831 311.664 183.301C309.548 183.858 308.242 185.927 307.287 187.897C304.495 193.68 303.023 200.093 302.996 206.519C302.996 209.516 303.348 212.659 305.039 215.14Z" fill="#F2F7FC"/>
<path d="M299.122 219.556C301.463 216.778 301.908 212.726 300.867 209.251C299.825 205.769 297.471 202.812 294.759 200.398C291.582 197.566 287.842 195.358 283.823 193.945C282.245 193.388 280.574 192.951 278.909 193.11C277.238 193.269 275.56 194.124 274.785 195.603C273.637 197.798 274.738 200.458 275.932 202.633C278.034 206.459 280.435 210.12 283.114 213.568C285.269 216.34 287.729 219.079 291.012 220.332C294.295 221.586 297.697 221.44 299.441 219.165" fill="#F2F7FC"/>
<path d="M304.894 261.574C304.933 261.574 305 261.076 305.086 260.174C305.185 259.153 305.311 257.88 305.457 256.355C305.636 254.75 305.868 252.84 306.313 250.758C306.757 248.682 307.453 246.434 308.349 244.146C309.277 241.878 310.404 239.815 311.724 238.164C313.037 236.506 314.556 235.306 315.988 234.616C317.414 233.913 318.694 233.621 319.583 233.495C320.478 233.403 320.975 233.336 320.975 233.297C320.975 233.257 320.478 233.25 319.556 233.277C318.648 233.336 317.315 233.568 315.809 234.252C314.297 234.921 312.686 236.142 311.306 237.833C309.92 239.517 308.753 241.626 307.812 243.934C306.903 246.255 306.213 248.529 305.789 250.651C305.364 252.767 305.172 254.703 305.046 256.321C304.927 257.94 304.88 259.253 304.854 260.161C304.847 261.07 304.854 261.574 304.894 261.574Z" fill="#D7E1EA"/>
<path d="M305.157 258.636C305.177 258.636 305.19 258.411 305.196 257.986C305.196 257.495 305.196 256.885 305.19 256.129C305.183 254.518 305.183 252.19 305.269 249.312C305.409 243.556 305.906 237.362 306.868 228.621C307.776 220.405 308.99 210.849 310.276 204.635C310.555 203.223 310.827 201.949 311.092 200.835C311.344 199.721 311.556 198.76 311.762 197.977C311.941 197.241 312.08 196.644 312.193 196.173C312.286 195.762 312.325 195.537 312.305 195.53C312.286 195.523 312.206 195.736 312.08 196.14C311.941 196.604 311.762 197.194 311.543 197.917C311.304 198.687 311.059 199.648 310.78 200.756C310.488 201.863 310.183 203.136 309.878 204.542C308.605 210.172 307.265 218.044 306.297 226.798C305.336 235.551 304.905 243.523 304.865 249.292C304.832 252.177 304.891 254.511 304.964 256.123C305.011 256.879 305.051 257.489 305.077 257.979C305.11 258.417 305.137 258.636 305.157 258.636Z" fill="#D7E1EA"/>
<path d="M305.197 243.264C305.237 243.264 305.23 242.575 305.184 241.328C305.111 240.081 304.939 238.284 304.587 236.076C304.216 233.874 303.698 231.261 302.876 228.423C302.525 227.123 301.689 224.013 299.673 219.364C297.02 213.064 293.413 207.918 290.276 204.728C289.54 203.879 288.718 203.269 288.068 202.672C287.73 202.387 287.431 202.102 287.126 201.87C286.821 201.658 286.536 201.459 286.271 201.28C285.236 200.577 284.659 200.199 284.639 200.232C284.546 200.358 286.954 201.771 289.991 205.007C293.015 208.23 296.523 213.343 299.156 219.59C300.621 222.978 301.649 225.996 302.372 228.562C303.214 231.374 303.771 233.96 304.189 236.142C304.587 238.324 304.819 240.108 304.958 241.341C305.071 242.581 305.157 243.264 305.197 243.264Z" fill="#D7E1EA"/>
<path d="M289.309 268.046L290.847 289.148H317.957L319.502 268.046H289.309Z" fill="#F2F7FC"/>
<path d="M322.73 259.73H286.688V268.046H322.73V259.73Z" fill="#F2F7FC"/>
<path d="M286.688 288.339V290.647H288.385H322.14V288.339H286.688Z" fill="#D7E1EA"/>
<path d="M290.045 294.447L288.387 290.395H320.848L318.912 294.447H290.045Z" fill="#D7E1EA"/>
<path d="M318.996 274.943C319.002 274.95 318.956 275.016 318.87 275.135C318.764 275.281 318.631 275.454 318.465 275.672C318.081 276.163 317.55 276.84 316.887 277.695L316.814 277.788L316.748 277.695C315.753 276.322 314.427 274.485 312.868 272.33H313.094C311.94 273.961 310.653 275.785 309.274 277.741L309.154 277.914L309.022 277.755C307.609 276.077 306.084 274.253 304.492 272.363L304.751 272.357C304.672 272.456 304.585 272.562 304.499 272.668C303.093 274.432 301.734 276.137 300.447 277.748L300.315 277.921L300.189 277.741C298.816 275.798 297.529 273.975 296.369 272.337L296.594 272.35C294.711 274.499 293.113 276.316 291.886 277.715L291.8 277.808L291.733 277.702C291.11 276.661 290.619 275.825 290.261 275.228C290.109 274.956 289.983 274.744 289.883 274.572C289.797 274.419 289.764 274.339 289.77 274.339C289.777 274.333 289.83 274.406 289.93 274.552C290.042 274.717 290.175 274.93 290.347 275.188C290.725 275.778 291.243 276.594 291.892 277.622L291.747 277.609C292.954 276.196 294.525 274.353 296.375 272.184L296.495 272.045L296.601 272.191C297.775 273.829 299.068 275.639 300.454 277.576L300.195 277.569C301.475 275.958 302.835 274.247 304.234 272.483C304.32 272.376 304.406 272.27 304.486 272.171L304.612 272.012L304.744 272.171C306.329 274.068 307.855 275.891 309.261 277.569L309.009 277.582C310.401 275.639 311.701 273.829 312.868 272.197L312.981 272.038L313.094 272.197C314.619 274.379 315.919 276.236 316.893 277.622L316.754 277.615C317.444 276.787 317.994 276.123 318.399 275.646C318.578 275.44 318.724 275.274 318.837 275.135C318.936 274.996 318.989 274.936 318.996 274.943Z" fill="#F2F7FC"/>
<path d="M319.881 267.907C319.881 268 313.09 268.073 304.708 268.073C296.326 268.073 289.535 268 289.535 267.907C289.535 267.814 296.326 267.741 304.708 267.741C313.084 267.741 319.881 267.814 319.881 267.907Z" fill="#F2F7FC"/>
<path d="M165.321 48.0836C165.321 48.0902 165.268 48.0704 165.169 48.0372C165.049 47.9908 164.903 47.9311 164.731 47.8648C164.32 47.6924 163.763 47.4603 163.06 47.1685C161.581 46.5385 159.499 45.6432 156.932 44.5424C151.746 42.281 144.631 39.184 136.766 35.7555C136.527 35.6494 136.288 35.5433 136.069 35.4505H136.215C128.489 38.753 121.526 41.7306 116.46 43.8991C113.953 44.9535 111.924 45.8024 110.478 46.4125C109.795 46.691 109.251 46.9165 108.847 47.0756C108.475 47.2215 108.276 47.2945 108.27 47.2878C108.263 47.2746 108.455 47.1817 108.82 47.0093C109.218 46.8303 109.749 46.5849 110.425 46.2798C111.857 45.6498 113.873 44.7612 116.36 43.6604C121.413 41.4653 128.363 38.4546 136.076 35.1123L136.149 35.0791L136.222 35.1123C136.441 35.2117 136.679 35.3112 136.918 35.4173C144.763 38.879 151.866 42.0157 157.038 44.297C159.585 45.4376 161.654 46.366 163.119 47.0292C163.809 47.3475 164.36 47.5995 164.764 47.7918C164.937 47.8714 165.076 47.9444 165.189 47.9974C165.275 48.0505 165.321 48.077 165.321 48.0836Z" fill="#D7E1EA"/>
<path d="M196.77 45.1924H67.2617V142.166H196.77V45.1924Z" fill="#D7E1EA"/>
<path d="M192.733 49.7021H71.793V138.181H192.733V49.7021Z" fill="#F2F7FC"/>
<path d="M98.5039 88.3574C98.5039 88.3574 98.6299 103.212 99.3859 107.742L118.014 106.86C118.014 106.86 116.376 92.2568 117.006 88.3574H98.5039Z" fill="#D7E1EA"/>
<path d="M107.681 90.4528C107.681 90.4528 107.701 90.4462 107.748 90.4462C107.801 90.4462 107.867 90.4395 107.947 90.4395C108.126 90.4263 108.384 90.4395 108.723 90.4793C109.054 90.5324 109.465 90.6252 109.91 90.8308C110.347 91.0364 110.805 91.3812 111.196 91.8521C111.574 92.3295 111.926 92.9264 112.091 93.6492C112.244 94.3654 112.164 95.1745 111.899 95.9504C111.767 96.3417 111.587 96.7263 111.375 97.0977C111.163 97.4757 110.951 97.847 110.778 98.2582C110.427 99.0739 110.148 99.9691 110.022 100.904L110.016 100.964H109.956C109.366 100.971 108.749 100.984 108.119 100.99C107.456 101.004 106.806 101.01 106.189 101.024H106.123V100.957C106.09 100.022 105.672 99.1667 105.228 98.4107C105.002 98.0261 104.757 97.6746 104.531 97.3099C104.306 96.9518 104.054 96.6136 103.875 96.2422C103.51 95.4994 103.444 94.6771 103.583 93.9742C103.716 93.2646 103.955 92.6213 104.299 92.1173C104.651 91.6133 105.095 91.2619 105.513 91.0231C105.937 90.791 106.329 90.6584 106.66 90.5788C106.985 90.4992 107.244 90.4661 107.423 90.4528C107.509 90.4462 107.575 90.4462 107.622 90.4462C107.662 90.4528 107.681 90.4528 107.681 90.4528C107.681 90.4528 107.662 90.4594 107.615 90.4594C107.562 90.4661 107.496 90.4727 107.416 90.4793C107.244 90.4992 106.985 90.539 106.667 90.6252C106.349 90.7114 105.957 90.8441 105.546 91.0828C105.135 91.3215 104.711 91.6664 104.372 92.1638C104.041 92.6545 103.809 93.2911 103.683 93.9874C103.55 94.6771 103.616 95.4663 103.974 96.1825C104.147 96.5406 104.399 96.8722 104.624 97.2369C104.85 97.595 105.102 97.9531 105.327 98.3378C105.778 99.1004 106.209 99.9691 106.249 100.951L106.176 100.884C106.793 100.871 107.443 100.864 108.106 100.851C108.736 100.845 109.359 100.831 109.943 100.825L109.877 100.884C110.003 99.9227 110.288 99.0274 110.646 98.1985C110.825 97.7873 111.044 97.3961 111.249 97.0247C111.461 96.6533 111.634 96.282 111.767 95.8973C112.038 95.1347 112.118 94.3522 111.972 93.6559C111.82 92.9662 111.481 92.3693 111.117 91.8985C110.732 91.4343 110.294 91.0961 109.87 90.8839C109.439 90.6716 109.041 90.5788 108.709 90.5191C108.378 90.4727 108.119 90.4528 107.94 90.4594C107.861 90.4594 107.794 90.4528 107.741 90.4528C107.708 90.4594 107.681 90.4594 107.681 90.4528Z" fill="white"/>
<path d="M108.638 100.805C108.638 100.805 108.631 100.785 108.625 100.745C108.618 100.705 108.611 100.645 108.598 100.572C108.572 100.42 108.538 100.194 108.499 99.9093C108.412 99.3324 108.293 98.4968 108.207 97.449C108.187 97.1904 108.167 96.9118 108.161 96.6267C108.154 96.3415 108.141 96.0431 108.154 95.738C108.174 95.433 108.22 95.108 108.366 94.803C108.505 94.5046 108.744 94.226 109.076 94.0934C109.401 93.9542 109.818 94.0271 110.09 94.2857C110.223 94.4184 110.309 94.604 110.309 94.7964C110.309 94.9887 110.236 95.1744 110.117 95.3269C110.004 95.486 109.845 95.6054 109.666 95.6916C109.493 95.7778 109.301 95.8309 109.115 95.8773C108.731 95.9569 108.34 96.0033 107.942 96.0166C107.544 96.0232 107.146 96.0166 106.761 95.9569C106.569 95.9237 106.377 95.8773 106.198 95.7977C106.018 95.7181 105.859 95.6054 105.727 95.4661C105.594 95.3269 105.495 95.1545 105.455 94.9688C105.408 94.7831 105.442 94.5842 105.521 94.4184C105.601 94.2526 105.74 94.1067 105.912 94.0404C106.085 93.9674 106.284 93.9873 106.443 94.0669C106.602 94.1398 106.741 94.2592 106.841 94.4051C106.94 94.5444 107 94.7102 107.04 94.8693C107.119 95.1943 107.113 95.5126 107.133 95.8176C107.166 96.4277 107.192 97.0047 107.219 97.5219C107.272 98.5631 107.312 99.4053 107.345 99.9955C107.358 100.287 107.371 100.513 107.378 100.665C107.378 100.738 107.385 100.798 107.385 100.838C107.385 100.878 107.385 100.897 107.385 100.897C107.385 100.897 107.385 100.878 107.378 100.838C107.378 100.798 107.371 100.738 107.365 100.665C107.358 100.506 107.338 100.281 107.325 99.9955C107.292 99.4119 107.245 98.5697 107.179 97.5286C107.152 97.0047 107.119 96.4344 107.086 95.8243C107.066 95.5192 107.066 95.2009 106.993 94.8826C106.954 94.7234 106.894 94.5709 106.801 94.4383C106.708 94.3056 106.576 94.1929 106.423 94.1199C106.27 94.047 106.091 94.0337 105.932 94.1C105.773 94.1597 105.647 94.2924 105.574 94.4515C105.501 94.6107 105.475 94.7897 105.514 94.9688C105.554 95.1412 105.647 95.307 105.773 95.4396C106.025 95.7115 106.396 95.8574 106.768 95.9171C107.146 95.9768 107.544 95.9834 107.942 95.9701C108.34 95.9569 108.731 95.9171 109.109 95.8375C109.295 95.7977 109.48 95.7447 109.646 95.6585C109.812 95.5789 109.964 95.4595 110.077 95.3136C110.19 95.1677 110.256 94.9887 110.256 94.8163C110.263 94.6372 110.177 94.4714 110.057 94.3454C109.805 94.1001 109.414 94.0271 109.102 94.1597C108.791 94.2857 108.558 94.5576 108.419 94.8428C108.28 95.1346 108.227 95.4529 108.214 95.7579C108.194 96.063 108.207 96.3614 108.214 96.6466C108.22 96.9317 108.24 97.2036 108.26 97.4622C108.34 98.5034 108.459 99.339 108.532 99.9226C108.572 100.208 108.605 100.433 108.625 100.592C108.631 100.665 108.645 100.725 108.645 100.765C108.638 100.785 108.638 100.805 108.638 100.805Z" fill="white"/>
<path d="M106.184 100.904C106.191 100.911 106.21 101.136 106.23 101.521C106.25 101.972 106.283 102.509 106.317 103.133L106.303 103.093C106.675 103.524 107.099 104.015 107.557 104.538L107.49 104.512C107.948 104.485 108.432 104.459 108.943 104.432L108.883 104.466C109.115 104.18 109.36 103.889 109.606 103.584C109.725 103.438 109.851 103.285 109.971 103.146L109.951 103.206C109.931 102.357 109.911 101.554 109.898 100.818L109.977 100.891C108.923 100.904 108.008 100.911 107.272 100.924C106.98 100.924 106.721 100.924 106.489 100.924C106.297 100.911 106.191 100.904 106.184 100.904C106.177 100.898 106.27 100.891 106.443 100.878C106.668 100.865 106.92 100.851 107.205 100.838C107.955 100.812 108.89 100.772 109.964 100.732H110.044V100.812C110.063 101.548 110.09 102.35 110.116 103.199V103.232L110.097 103.259C109.977 103.404 109.858 103.55 109.732 103.703C109.486 104.001 109.241 104.3 109.009 104.585L108.982 104.611H108.943C108.439 104.638 107.948 104.658 107.49 104.684H107.451L107.424 104.658C106.973 104.127 106.562 103.63 106.191 103.192L106.177 103.172V103.152C106.171 102.509 106.164 101.959 106.164 101.495C106.171 101.097 106.177 100.891 106.184 100.904Z" fill="white"/>
<path d="M109.931 103C109.931 103.006 109.878 102.98 109.791 102.94C109.705 102.9 109.579 102.847 109.413 102.794C109.095 102.681 108.624 102.575 108.107 102.595C107.583 102.608 107.125 102.741 106.814 102.874C106.655 102.94 106.529 103 106.449 103.046C106.363 103.092 106.316 103.119 106.316 103.112C106.316 103.112 106.356 103.079 106.436 103.026C106.515 102.973 106.641 102.907 106.801 102.834C107.112 102.694 107.583 102.549 108.107 102.535C108.637 102.522 109.108 102.628 109.433 102.754C109.592 102.814 109.718 102.874 109.805 102.92C109.884 102.966 109.931 103 109.931 103Z" fill="white"/>
<path d="M109.923 102.416C109.923 102.423 109.87 102.396 109.784 102.356C109.697 102.317 109.571 102.263 109.406 102.21C109.087 102.098 108.616 101.998 108.099 102.011C107.575 102.025 107.118 102.157 106.806 102.29C106.647 102.356 106.521 102.416 106.441 102.462C106.355 102.509 106.309 102.535 106.309 102.529C106.309 102.529 106.348 102.496 106.428 102.443C106.508 102.389 106.634 102.323 106.793 102.25C107.104 102.111 107.575 101.965 108.099 101.952C108.63 101.939 109.1 102.045 109.425 102.171C109.585 102.23 109.711 102.29 109.797 102.336C109.883 102.389 109.929 102.416 109.923 102.416Z" fill="white"/>
<path d="M109.892 101.866C109.892 101.872 109.838 101.846 109.752 101.806C109.666 101.766 109.54 101.713 109.374 101.66C109.056 101.547 108.585 101.441 108.068 101.461C107.544 101.474 107.086 101.607 106.775 101.74C106.616 101.806 106.49 101.866 106.41 101.912C106.324 101.959 106.277 101.985 106.277 101.978C106.277 101.978 106.317 101.945 106.397 101.892C106.476 101.839 106.602 101.773 106.761 101.7C107.073 101.561 107.544 101.415 108.068 101.402C108.598 101.388 109.069 101.494 109.394 101.62C109.553 101.68 109.679 101.74 109.766 101.786C109.852 101.833 109.898 101.866 109.892 101.866Z" fill="white"/>
<path d="M77.7578 64.0723C77.7578 64.0723 77.8838 78.927 78.6398 83.4564L97.2679 82.5744C97.2679 82.5744 95.6299 67.9716 96.2599 64.0723H77.7578Z" fill="#F2F7FC"/>
<path d="M93.4537 70.3128C93.4603 70.4123 90.6684 70.6643 87.2133 70.8699C83.7583 71.0755 80.9598 71.1617 80.9531 71.0622C80.9465 70.9627 83.7384 70.7107 87.1935 70.5051C90.6419 70.2996 93.447 70.2134 93.4537 70.3128Z" fill="white"/>
<path d="M93.4537 73.4559C93.4603 73.5554 90.6684 73.8074 87.2133 74.0129C83.7583 74.2185 80.9598 74.3047 80.9531 74.2053C80.9465 74.1058 83.7384 73.8538 87.1935 73.6482C90.6485 73.4426 93.447 73.3564 93.4537 73.4559Z" fill="white"/>
<path d="M90.2903 76.5459C90.2969 76.6454 88.7054 76.8244 86.7424 76.9438C84.7728 77.0632 83.1746 77.0764 83.168 76.977C83.1614 76.8775 84.7529 76.6984 86.7159 76.5791C88.6855 76.4597 90.2837 76.4464 90.2903 76.5459Z" fill="white"/>
<path d="M76.8789 107.774C76.8789 107.774 77.0049 122.629 77.7609 127.159L96.389 126.277C96.389 126.277 94.751 111.674 95.381 107.774H76.8789Z" fill="#F2F7FC"/>
<path d="M92.5748 114.008C92.5814 114.108 89.7895 114.36 86.3344 114.565C82.8794 114.771 80.0809 114.857 80.0742 114.758C80.0676 114.658 82.8595 114.406 86.3145 114.2C89.763 113.995 92.5681 113.909 92.5748 114.008Z" fill="white"/>
<path d="M92.5748 117.158C92.5814 117.258 89.7895 117.51 86.3344 117.715C82.8794 117.921 80.0809 118.007 80.0742 117.907C80.0676 117.808 82.8595 117.556 86.3145 117.35C89.7696 117.145 92.5681 117.059 92.5748 117.158Z" fill="white"/>
<path d="M89.4114 120.248C89.418 120.348 87.8265 120.527 85.8635 120.646C83.8939 120.766 82.2957 120.779 82.2891 120.679C82.2825 120.58 83.874 120.401 85.837 120.281C87.8066 120.162 89.4048 120.142 89.4114 120.248Z" fill="white"/>
<path d="M127.789 68.0112L129.633 110.851L183.11 111.494L180.709 68.5749L127.789 68.0112Z" fill="#F2F7FC"/>
<path d="M180.294 67.7061H127.168V107.82H180.294V67.7061Z" fill="#F2F7FC"/>
<path d="M180.293 107.82C180.293 107.82 180.28 107.562 180.28 107.078C180.273 106.58 180.273 105.864 180.26 104.936C180.253 103.052 180.24 100.313 180.22 96.8186C180.2 89.8223 180.174 79.8153 180.14 67.706L180.293 67.8585C165.272 67.8651 146.943 67.8784 127.174 67.8917H127.167L127.353 67.706C127.346 82.1297 127.34 95.7907 127.333 107.82L127.167 107.655C142.884 107.688 156.147 107.714 165.485 107.734C170.153 107.754 173.847 107.767 176.38 107.781C177.64 107.787 178.609 107.794 179.278 107.801C179.603 107.807 179.849 107.807 180.028 107.807C180.2 107.814 180.293 107.82 180.293 107.82C180.293 107.82 180.213 107.827 180.054 107.827C179.882 107.827 179.636 107.834 179.325 107.834C178.662 107.84 177.707 107.847 176.46 107.854C173.933 107.867 170.253 107.88 165.597 107.9C156.227 107.92 142.931 107.946 127.174 107.98H127.008V107.814C127.002 95.7841 126.995 82.1297 126.988 67.6994V67.5137H127.174H127.181C146.949 67.5269 165.279 67.5402 180.3 67.5468H180.452V67.6994C180.419 79.8484 180.392 89.8886 180.373 96.9048C180.359 100.386 180.346 103.112 180.333 104.989C180.326 105.904 180.319 106.613 180.313 107.098C180.306 107.582 180.293 107.82 180.293 107.82Z" fill="#D7E1EA"/>
<path d="M155.115 76.2007H133.582V103.304H155.115V76.2007Z" fill="#F2F7FC"/>
<path d="M155.114 103.304C155.114 103.304 155.108 103.258 155.108 103.165C155.108 103.065 155.101 102.939 155.101 102.78C155.094 102.422 155.088 101.931 155.081 101.301C155.068 99.9948 155.055 98.1114 155.035 95.744C155.015 90.9759 154.988 84.2249 154.955 76.2073L155.121 76.3731C148.702 76.3798 141.36 76.3864 133.588 76.393C133.542 76.4328 133.933 76.0482 133.767 76.214V76.2206V76.2339V76.2604V76.3201V76.4395V76.6716V77.1424V78.0775C133.767 78.7008 133.767 79.3176 133.767 79.9343C133.767 81.1678 133.767 82.3813 133.767 83.5883C133.767 85.9956 133.761 88.3431 133.761 90.6178C133.754 95.167 133.747 99.4377 133.741 103.311L133.588 103.158C140.047 103.191 145.412 103.218 149.179 103.238C151.049 103.258 152.521 103.271 153.556 103.277C154.047 103.284 154.431 103.291 154.716 103.297C154.968 103.291 155.114 103.304 155.114 103.304C155.121 103.311 154.995 103.317 154.736 103.324C154.458 103.33 154.086 103.337 153.602 103.344C152.581 103.35 151.116 103.364 149.259 103.384C145.465 103.403 140.074 103.43 133.568 103.463H133.416V103.311C133.409 99.4377 133.403 95.1736 133.396 90.6178C133.396 88.3431 133.389 85.9889 133.389 83.5883C133.389 82.388 133.389 81.1678 133.389 79.9343C133.389 79.3176 133.389 78.7008 133.389 78.0775V77.1424V76.6716V76.4395V76.3201V76.2604V76.2339V76.2206V76.214C133.224 76.3731 133.608 75.9885 133.575 76.0283C141.347 76.0349 148.688 76.0416 155.108 76.0482H155.274V76.214C155.24 84.2713 155.214 91.0621 155.194 95.8567C155.174 98.2109 155.161 100.081 155.148 101.381C155.141 101.998 155.134 102.482 155.128 102.833C155.121 102.986 155.121 103.105 155.121 103.198C155.121 103.264 155.114 103.304 155.114 103.304Z" fill="#D7E1EA"/>
<path d="M175.671 70.0005H134.402V73.9065H175.671V70.0005Z" fill="#F2F7FC"/>
<path d="M175.672 73.9063C175.665 73.8997 175.665 73.8135 175.658 73.6411C175.652 73.4488 175.645 73.2034 175.638 72.8851C175.632 72.2087 175.612 71.2404 175.599 70.007L175.672 70.0799C168.708 70.1462 152.846 70.186 134.403 70.186C134.768 69.8213 134.503 70.0866 134.589 70.007V70.0136V70.0202V70.0335V70.0667V70.1263V70.2523V70.5043V71.0017C134.589 71.3333 134.589 71.6649 134.589 71.9898C134.589 72.6463 134.589 73.283 134.589 73.9063L134.41 73.7273C145.949 73.7604 156.234 73.787 163.662 73.8069C167.362 73.8268 170.353 73.8467 172.442 73.8599C173.463 73.8732 174.259 73.8798 174.829 73.8864C175.088 73.8931 175.294 73.8931 175.453 73.8997C175.592 73.8997 175.672 73.8997 175.672 73.9063C175.678 73.913 175.612 73.913 175.473 73.9196C175.32 73.9196 175.121 73.9262 174.869 73.9329C174.312 73.9395 173.523 73.9461 172.522 73.9594C170.446 73.9727 167.468 73.9925 163.781 74.0124C156.321 74.0323 145.989 74.0589 134.397 74.092H134.218V73.9063C134.218 73.283 134.218 72.6397 134.218 71.9898C134.218 71.6649 134.218 71.3333 134.218 71.0017V70.5043V70.2523V70.1263V70.0667V70.0335V70.0202V70.0136V70.007C134.297 69.9274 134.032 70.186 134.403 69.8213C152.846 69.8213 168.715 69.8677 175.672 69.9274H175.745V70.0003C175.725 71.2537 175.711 72.2352 175.705 72.9249C175.698 73.2365 175.691 73.4819 175.685 73.6676C175.685 73.8268 175.678 73.913 175.672 73.9063Z" fill="#D7E1EA"/>
<path d="M175.671 76.2012H157.746V92.5348H175.671V76.2012Z" fill="#F2F7FC"/>
<path d="M175.669 92.5348C175.663 92.5282 175.656 92.4221 175.649 92.2165C175.643 91.9911 175.636 91.6993 175.63 91.3279C175.623 90.5321 175.603 89.4114 175.59 87.9989C175.57 85.1274 175.543 81.0689 175.51 76.1947L175.663 76.3472C170.483 76.3538 164.329 76.3671 157.738 76.3737C157.698 76.4135 158.082 76.0289 157.917 76.1947V76.2013V76.2079V76.2278V76.261V76.3339V76.4732V76.7517V77.3088C157.917 77.6801 157.917 78.0449 157.917 78.4096C157.917 79.1391 157.917 79.8685 157.917 80.5848C157.917 82.0238 157.917 83.4297 157.91 84.7958C157.903 87.5346 157.897 90.1342 157.897 92.5282L157.738 92.3691C163.056 92.4022 167.506 92.4287 170.669 92.4486C172.221 92.4685 173.461 92.4818 174.336 92.4884C174.741 92.4951 175.066 92.5017 175.318 92.5083C175.55 92.5216 175.663 92.5282 175.669 92.5348C175.676 92.5415 175.57 92.5481 175.358 92.5547C175.119 92.5614 174.807 92.568 174.409 92.5746C173.541 92.5879 172.32 92.6012 170.775 92.6144C167.592 92.6343 163.102 92.6608 157.744 92.694H157.585V92.5348C157.578 90.1408 157.572 87.5413 157.572 84.8024C157.572 83.4297 157.572 82.0238 157.565 80.5914C157.565 79.8752 157.565 79.1457 157.565 78.4162C157.565 78.0515 157.565 77.6801 157.565 77.3154V76.7583V76.4798V76.3405V76.2676V76.2344V76.2146V76.2079V76.2013C157.399 76.3604 157.784 75.9758 157.751 76.0156C164.343 76.0222 170.497 76.0355 175.676 76.0421H175.835V76.1947C175.802 81.1087 175.775 85.2003 175.756 88.0983C175.736 89.4976 175.722 90.6051 175.716 91.3942C175.709 91.7523 175.702 92.0309 175.696 92.2497C175.683 92.4486 175.676 92.5415 175.669 92.5348Z" fill="#D7E1EA"/>
<path d="M175.671 95.0942H157.746V103.304H175.671V95.0942Z" fill="#F2F7FC"/>
<path d="M175.671 103.304C175.664 103.298 175.651 103.092 175.644 102.707C175.638 102.296 175.624 101.746 175.611 101.056C175.591 99.6105 175.571 97.5812 175.538 95.0944L175.671 95.227C170.996 95.2403 164.689 95.2602 157.746 95.2801C157.58 95.4459 157.964 95.0546 157.925 95.101V95.1076V95.1143V95.1342V95.1673V95.2337V95.3663V95.6382V96.1753C157.925 96.5334 157.925 96.8849 157.925 97.243C157.925 97.946 157.925 98.6489 157.925 99.332C157.925 100.705 157.918 102.038 157.918 103.311L157.746 103.138C162.918 103.172 167.361 103.198 170.564 103.218C172.13 103.238 173.39 103.251 174.298 103.264C174.709 103.271 175.047 103.278 175.306 103.284C175.545 103.291 175.664 103.298 175.671 103.304C175.677 103.311 175.565 103.318 175.352 103.324C175.1 103.331 174.776 103.337 174.378 103.344C173.476 103.357 172.229 103.371 170.684 103.39C167.454 103.41 162.965 103.437 157.752 103.47H157.58V103.298C157.58 102.024 157.573 100.691 157.573 99.3187C157.573 98.629 157.573 97.9327 157.573 97.2298C157.573 96.8783 157.573 96.5202 157.573 96.1621V95.6249V95.353V95.2204V95.1541V95.1209V95.101V95.0944V95.0878C157.533 95.1275 157.918 94.7429 157.759 94.9021C164.702 94.922 171.009 94.9419 175.684 94.9551H175.817V95.0878C175.79 97.6078 175.764 99.6635 175.744 101.136C175.73 101.812 175.717 102.349 175.711 102.754C175.691 103.125 175.684 103.311 175.671 103.304Z" fill="#D7E1EA"/>
<path d="M154.584 76.2476C147.92 85.4588 140.247 94.0931 133.582 103.304L154.584 76.2476Z" fill="white"/>
<path d="M133.58 103.303C133.567 103.297 133.633 103.191 133.759 102.998C133.911 102.773 134.097 102.501 134.323 102.176C134.813 101.46 135.549 100.445 136.478 99.2052C138.328 96.7183 140.974 93.3495 143.938 89.6623C146.903 85.9752 149.582 82.6395 151.485 80.1924C152.407 78.9988 153.169 78.0239 153.733 77.2944C153.979 76.9828 154.184 76.7241 154.35 76.5119C154.496 76.3329 154.575 76.2467 154.589 76.2533C154.602 76.2599 154.536 76.366 154.41 76.5583C154.257 76.7838 154.071 77.0557 153.846 77.3807C153.355 78.0969 152.619 79.1115 151.691 80.3516C149.84 82.8384 147.194 86.2073 144.223 89.8944C141.259 93.575 138.58 96.9173 136.683 99.3643C135.762 100.558 134.999 101.533 134.435 102.262C134.19 102.574 133.984 102.833 133.819 103.045C133.666 103.224 133.586 103.31 133.58 103.303Z" fill="#D7E1EA"/>
<path d="M155.112 103.304C155.032 103.364 150.145 97.3488 144.203 89.8683C138.254 82.3813 133.5 76.267 133.579 76.2006C133.659 76.141 138.54 82.1558 144.488 89.6362C150.43 97.1233 155.191 103.244 155.112 103.304Z" fill="#D7E1EA"/>
<path d="M129.632 76.2609C129.632 78.1244 128.127 79.6298 126.263 79.6298C124.4 79.6298 122.895 78.1244 122.895 76.2609C122.895 74.3975 124.4 72.8921 126.263 72.8921C128.12 72.8921 129.632 74.3975 129.632 76.2609Z" fill="#D7E1EA"/>
<path d="M184.734 68.0842C184.734 69.9477 183.228 71.453 181.365 71.453C179.501 71.453 177.996 69.9477 177.996 68.0842C177.996 66.2207 179.501 64.7153 181.365 64.7153C183.222 64.7153 184.734 66.2207 184.734 68.0842Z" fill="#D7E1EA"/>
<path d="M316.517 91.5469H277.695V147.822H316.517V91.5469Z" fill="#D7E1EA"/>
<path d="M314.571 91.5469H275.75V147.822H314.571V91.5469Z" fill="#F2F7FC"/>
<path d="M309.749 97.6411H280.57V141.728H309.749V97.6411Z" fill="white"/>
<path d="M309.75 141.728C309.75 141.728 309.743 141.655 309.743 141.509C309.743 141.363 309.743 141.158 309.737 140.886C309.737 140.329 309.73 139.52 309.723 138.465C309.717 136.35 309.71 133.273 309.697 129.386C309.684 121.614 309.67 110.606 309.65 97.6411L309.75 97.7405C300.837 97.7405 290.956 97.7472 280.578 97.7472H280.571L280.677 97.6411C280.67 114.273 280.664 129.605 280.657 141.728L280.571 141.642C289.457 141.662 296.739 141.675 301.805 141.688C304.339 141.695 306.321 141.701 307.674 141.708C308.344 141.715 308.861 141.715 309.213 141.715C309.564 141.721 309.75 141.728 309.75 141.728C309.75 141.728 309.578 141.734 309.233 141.734C308.881 141.734 308.371 141.741 307.707 141.741C306.361 141.748 304.385 141.754 301.858 141.761C296.779 141.774 289.477 141.788 280.571 141.807H280.485V141.721C280.478 129.599 280.471 114.266 280.465 97.6344V97.5283H280.571C290.949 97.5283 300.83 97.535 309.743 97.535H309.843V97.6344C309.823 110.626 309.81 121.654 309.796 129.44C309.783 133.319 309.776 136.389 309.77 138.498C309.763 139.539 309.763 140.348 309.757 140.899C309.757 141.164 309.75 141.37 309.75 141.516C309.75 141.662 309.75 141.728 309.75 141.728Z" fill="#D7E1EA"/>
<path d="M314.677 91.5467C314.697 91.5666 314.438 91.9512 313.987 92.5547C313.536 93.1582 312.893 93.9805 312.164 94.8625C311.434 95.7511 310.751 96.5336 310.247 97.0907C309.743 97.6478 309.411 97.9793 309.392 97.9594C309.372 97.9395 309.657 97.5748 310.134 96.9912C310.652 96.3612 311.295 95.5853 312.004 94.7232C312.714 93.8611 313.351 93.0852 313.875 92.4552C314.352 91.8849 314.657 91.5268 314.677 91.5467Z" fill="#D7E1EA"/>
<path d="M309.898 141.582C311.351 143.883 313.055 146.025 314.985 147.948L309.898 141.582Z" fill="white"/>
<path d="M314.983 147.947C314.963 147.967 314.618 147.669 314.094 147.138C313.571 146.614 312.881 145.858 312.178 144.976C311.475 144.094 310.885 143.252 310.487 142.629C310.089 142.006 309.87 141.601 309.897 141.588C309.923 141.574 310.182 141.946 310.613 142.549C311.044 143.153 311.641 143.968 312.344 144.85C313.047 145.726 313.716 146.495 314.207 147.046C314.698 147.589 315.01 147.928 314.983 147.947Z" fill="#D7E1EA"/>
<path d="M275.746 147.776C277.444 145.687 279.135 143.592 280.833 141.503L275.746 147.776Z" fill="white"/>
<path d="M280.83 141.502C280.876 141.542 279.776 142.975 278.37 144.705C276.964 146.436 275.79 147.816 275.744 147.776C275.697 147.736 276.798 146.304 278.204 144.573C279.61 142.842 280.784 141.463 280.83 141.502Z" fill="#D7E1EA"/>
<path d="M275.752 91.5465C275.798 91.5134 276.905 92.833 278.218 94.4976C279.538 96.1621 280.566 97.5415 280.52 97.5813C280.473 97.6144 279.366 96.2947 278.053 94.6302C276.733 92.9657 275.705 91.5863 275.752 91.5465Z" fill="#D7E1EA"/>
<path d="M300.659 106.594H290.891V134.334H300.659V106.594Z" fill="#D7E1EA"/>
<path d="M307.573 31.7691L302.016 31.7988L302.164 59.4525L307.721 59.4227L307.573 31.7691Z" fill="#D7E1EA"/>
<path d="M268.262 31.838L253.871 31.915L253.953 47.1809L268.343 47.1039L268.262 31.838Z" fill="#F2F7FC"/>
<path d="M282.578 31.7652L268.188 31.8423L268.269 47.1082L282.66 47.0311L282.578 31.7652Z" fill="#F2F7FC"/>
<path d="M253.887 36.1336C263.45 36.2132 273.039 36.1601 282.602 36.001C282.801 36.001 282.794 35.6959 282.602 35.6959C273.039 35.6429 263.45 35.6893 253.887 35.8683C253.715 35.875 253.715 36.127 253.887 36.1336Z" fill="#D7E1EA"/>
<path d="M271.039 46.854L244.891 46.9941L244.957 59.435L271.106 59.2949L271.039 46.854Z" fill="#F2F7FC"/>
<path d="M297.07 46.7149L270.922 46.855L270.989 59.2958L297.137 59.1558L297.07 46.7149Z" fill="#F2F7FC"/>
<path d="M244.909 50.4511C262.278 50.6501 279.712 50.471 297.08 50.1925C297.279 50.1925 297.272 49.8874 297.08 49.8874C279.712 49.7946 262.278 49.8078 244.909 50.1858C244.744 50.1925 244.744 50.4511 244.909 50.4511Z" fill="#D7E1EA"/>
<path d="M336.437 59.4297H235.133V63.8861H336.437V59.4297Z" fill="#D7E1EA"/>
<path d="M255.83 61.5713H251.719V76.7775H255.83V61.5713Z" fill="#D7E1EA"/>
<path d="M317.217 61.5713H313.105V76.7775H317.217V61.5713Z" fill="#D7E1EA"/>
<path d="M312.995 21.4566L307.438 21.4863L307.641 59.5184L313.198 59.4887L312.995 21.4566Z" fill="#F2F7FC"/>
<path d="M321.677 28.5377L313.043 28.584L313.208 59.4076L321.843 59.3613L321.677 28.5377Z" fill="#F2F7FC"/>
<path d="M321.615 34.4684C321.615 34.548 319.678 34.621 317.298 34.621C314.91 34.621 312.98 34.5547 312.98 34.4684C312.98 34.3822 314.91 34.3159 317.298 34.3159C319.678 34.3225 321.615 34.3889 321.615 34.4684Z" fill="#D7E1EA"/>
<path d="M321.615 33.1755C321.615 33.2551 319.678 33.328 317.298 33.328C314.91 33.328 312.98 33.2617 312.98 33.1755C312.98 33.0959 314.91 33.0229 317.298 33.0229C319.678 33.0296 321.615 33.0959 321.615 33.1755Z" fill="#D7E1EA"/>
<path d="M321.615 54.7145C321.615 54.7941 319.678 54.8671 317.298 54.8671C314.91 54.8671 312.98 54.8007 312.98 54.7145C312.98 54.635 314.91 54.562 317.298 54.562C319.678 54.5686 321.615 54.635 321.615 54.7145Z" fill="#D7E1EA"/>
<path d="M321.615 53.4216C321.615 53.5011 319.678 53.5741 317.298 53.5741C314.91 53.5741 312.98 53.5078 312.98 53.4216C312.98 53.342 314.91 53.269 317.298 53.269C319.678 53.2757 321.615 53.342 321.615 53.4216Z" fill="#D7E1EA"/>
<path d="M317.438 50.5965C317.358 50.5965 317.285 47.4863 317.285 43.6532C317.285 39.8202 317.351 36.71 317.438 36.71C317.517 36.71 317.59 39.8202 317.59 43.6532C317.584 47.4863 317.517 50.5965 317.438 50.5965Z" fill="#D7E1EA"/>
<path d="M331.104 36.1006H321.707V59.3642H331.104V36.1006Z" fill="#F2F7FC"/>
<path d="M326.676 53.3357C325.443 53.3357 324.574 52.4537 324.574 51.2401C324.574 50.5836 324.826 50.0133 325.337 49.6685L325.549 49.9602C325.131 50.2587 324.932 50.7229 324.932 51.2335C324.932 52.2083 325.629 52.9246 326.676 52.9246C327.724 52.9246 328.421 52.2083 328.421 51.2335C328.421 50.7162 328.222 50.2587 327.804 49.9602L328.016 49.6685C328.513 50.0067 328.779 50.5836 328.779 51.2401C328.772 52.4537 327.903 53.3357 326.676 53.3357Z" fill="#F2F7FC"/>
<path d="M328.24 49.0915L327.922 48.9058C328.194 48.5875 328.419 48.0238 328.419 47.4137C328.419 46.5383 328.108 46.1935 327.643 46.1935C326.437 46.1935 327.325 48.939 325.7 48.939C325.077 48.939 324.566 48.4151 324.566 47.3673C324.566 46.8434 324.726 46.2731 324.971 45.9481L325.289 46.1338C325.037 46.4853 324.918 46.9362 324.918 47.3806C324.918 48.1896 325.249 48.5477 325.694 48.5477C326.941 48.5477 326.059 45.8022 327.637 45.8022C328.313 45.8022 328.771 46.3792 328.771 47.4336C328.771 48.1167 328.545 48.7666 328.24 49.0915Z" fill="#F2F7FC"/>
<path d="M328.24 45.3049L327.922 45.1258C328.194 44.8075 328.419 44.2438 328.419 43.6337C328.419 42.765 328.108 42.4135 327.643 42.4135C326.437 42.4135 327.325 45.159 325.7 45.159C325.077 45.159 324.566 44.6351 324.566 43.5873C324.566 43.0634 324.726 42.4931 324.971 42.1681L325.289 42.3472C325.037 42.6987 324.918 43.1496 324.918 43.5939C324.918 44.403 325.249 44.7611 325.694 44.7611C326.941 44.7611 326.059 42.0156 327.637 42.0156C328.313 42.0156 328.771 42.5926 328.771 43.647C328.771 44.33 328.545 44.9799 328.24 45.3049Z" fill="#F2F7FC"/>
<path d="M310.129 29.548C311.012 29.548 311.728 28.8324 311.728 27.9498C311.728 27.0671 311.012 26.3516 310.129 26.3516C309.247 26.3516 308.531 27.0671 308.531 27.9498C308.531 28.8324 309.247 29.548 310.129 29.548Z" fill="#D7E1EA"/>
<path d="M310.621 32.3398H309.633V54.9668H310.621V32.3398Z" fill="#D7E1EA"/>
<path d="M348.089 295.561C348.089 295.653 284.035 295.733 205.04 295.733C126.018 295.733 61.9766 295.653 61.9766 295.561C61.9766 295.468 126.018 295.388 205.04 295.388C284.035 295.388 348.089 295.468 348.089 295.561Z" fill="#1F1F1F"/>
<path d="M139.44 67.5801C128.797 84.3182 129.493 107.529 141.125 123.597C148.877 134.314 160.502 141.489 169.733 150.959C178.965 160.422 185.981 174.375 181.107 186.67C176.146 199.184 161.616 204.277 150.734 212.202C138.883 220.836 130.561 234.172 128.008 248.609C125.454 263.046 128.71 278.431 136.887 290.6H249.903C249.903 290.6 269.758 252.767 244.233 223.933C218.708 195.099 205 194.628 205.942 175.721C206.89 156.815 220.12 150.667 227.687 143.578C235.253 136.489 272.118 119.943 250.373 67.5801H139.44Z" fill="#F2F7FC"/>
<path d="M139.442 67.5798C139.442 67.5798 140.098 67.5666 141.385 67.5666C142.678 67.5599 144.595 67.5599 147.115 67.5533C152.161 67.5467 159.595 67.5334 169.171 67.5201C188.343 67.5069 216.083 67.487 250.382 67.4604H250.468L250.494 67.5334C252.04 71.4527 253.598 75.4913 254.705 79.7687C255.846 84.0261 256.774 88.4693 257.106 93.065C257.451 97.654 257.305 102.396 256.39 107.104C255.448 111.799 253.764 116.448 251.284 120.752C250.05 122.907 248.598 124.956 247.026 126.926C245.441 128.889 243.684 130.732 241.82 132.496C239.957 134.254 237.974 135.912 235.912 137.497C233.856 139.088 231.707 140.594 229.612 142.178C228.564 142.968 227.602 143.856 226.601 144.745C225.593 145.62 224.558 146.462 223.517 147.291C221.428 148.963 219.319 150.634 217.33 152.457C213.311 156.052 209.916 160.541 208.046 165.774C207.137 168.38 206.487 171.112 206.275 173.911C206.222 174.607 206.122 175.303 206.103 176.006C206.089 176.709 206.05 177.412 206.083 178.115C206.089 179.521 206.248 180.933 206.507 182.319C207.038 185.098 208.205 187.757 209.902 190.058C211.574 192.386 213.629 194.435 215.765 196.405C220.055 200.331 224.605 204.071 228.968 208.116C233.352 212.135 237.603 216.379 241.701 220.842C243.737 223.084 245.799 225.332 247.576 227.832C249.413 230.286 250.959 232.958 252.311 235.73C254.984 241.301 256.635 247.408 257.179 253.655C257.763 259.902 257.318 266.269 256.078 272.496C255.468 275.612 254.652 278.703 253.651 281.74C252.65 284.777 251.496 287.775 250.063 290.666L250.017 290.759H249.911C248.996 290.759 248.001 290.759 247 290.759C208.417 290.759 171.194 290.752 136.895 290.752H136.809L136.763 290.679C131.378 282.596 128.182 273.311 127.3 264.001C126.364 254.69 127.797 245.359 131.212 237.07C134.581 228.754 139.82 221.466 146.153 215.729C149.31 212.838 152.824 210.477 156.352 208.289C159.88 206.1 163.442 204.071 166.804 201.856C170.153 199.634 173.382 197.267 176.002 194.376C178.635 191.504 180.644 188.135 181.692 184.508C182.746 180.88 182.759 177.074 182.143 173.493C181.513 169.898 180.253 166.496 178.648 163.366C177.043 160.23 175.093 157.352 172.958 154.725C170.829 152.093 168.462 149.752 166.074 147.543C161.293 143.14 156.392 139.287 151.989 135.328C149.781 133.352 147.692 131.362 145.768 129.313C143.859 127.251 142.108 125.142 140.609 122.954C137.585 118.59 135.509 113.988 134.143 109.551C132.777 105.108 132.101 100.811 131.942 96.8582C131.849 95.8701 131.889 94.9019 131.889 93.9602C131.902 93.0186 131.875 92.0901 131.968 91.1949C132.034 90.2996 132.107 89.4242 132.167 88.5688C132.267 87.7199 132.412 86.8976 132.525 86.1018C133.52 79.7023 135.45 75.0205 136.955 72.0296C137.313 71.267 137.632 70.5972 137.976 70.06C138.301 69.5096 138.567 69.0454 138.785 68.674C139.216 67.9512 139.442 67.5798 139.442 67.5798C139.396 67.6594 139.21 67.9843 138.799 68.7138C138.586 69.0852 138.321 69.5494 138.003 70.0998C137.665 70.637 137.353 71.3068 136.995 72.0694C135.509 75.0669 133.6 79.7421 132.618 86.135C132.505 86.9308 132.366 87.7531 132.267 88.6019C132.2 89.4508 132.141 90.3261 132.074 91.2214C131.981 92.1167 132.008 93.0385 132.001 93.9801C132.001 94.9218 131.968 95.89 132.061 96.8715C132.227 100.811 132.91 105.095 134.283 109.525C135.649 113.948 137.724 118.524 140.748 122.867C142.247 125.042 143.991 127.145 145.901 129.2C147.824 131.243 149.913 133.226 152.122 135.195C156.525 139.141 161.426 142.988 166.227 147.398C168.614 149.606 170.995 151.953 173.144 154.599C175.292 157.239 177.249 160.124 178.867 163.28C180.478 166.43 181.758 169.845 182.395 173.473C183.018 177.087 183.018 180.933 181.95 184.607C180.889 188.275 178.853 191.69 176.207 194.588C173.561 197.512 170.319 199.893 166.963 202.121C163.588 204.35 160.033 206.379 156.512 208.567C152.99 210.756 149.495 213.103 146.359 215.981C140.065 221.684 134.853 228.946 131.511 237.216C128.115 245.459 126.696 254.736 127.631 263.994C128.513 273.252 131.696 282.483 137.048 290.52L136.909 290.447C171.214 290.447 208.437 290.441 247.013 290.441C248.008 290.441 249.002 290.441 249.924 290.441L249.772 290.534C251.191 287.675 252.345 284.678 253.339 281.66C254.334 278.636 255.143 275.559 255.753 272.456C256.987 266.255 257.431 259.922 256.847 253.715C256.31 247.508 254.672 241.44 252.013 235.909C250.667 233.157 249.135 230.498 247.311 228.064C245.547 225.584 243.491 223.342 241.462 221.108C237.37 216.651 233.126 212.414 228.756 208.395C224.406 204.356 219.863 200.616 215.559 196.677C213.424 194.701 211.348 192.638 209.657 190.277C207.94 187.943 206.752 185.224 206.215 182.406C205.957 180.993 205.798 179.567 205.784 178.148C205.751 177.439 205.791 176.729 205.804 176.019C205.831 175.31 205.924 174.607 205.983 173.904C206.195 171.086 206.852 168.327 207.774 165.687C209.664 160.409 213.099 155.866 217.144 152.252C219.147 150.415 221.262 148.737 223.351 147.073C224.399 146.237 225.427 145.401 226.428 144.533C227.41 143.657 228.398 142.749 229.452 141.953C231.561 140.361 233.703 138.863 235.752 137.271C237.808 135.693 239.784 134.042 241.641 132.291C243.491 130.54 245.242 128.703 246.82 126.753C248.379 124.79 249.825 122.755 251.058 120.619C253.525 116.348 255.203 111.726 256.144 107.064C257.06 102.389 257.206 97.6673 256.867 93.0981C256.542 88.5157 255.614 84.0925 254.487 79.8482C253.386 75.5841 251.834 71.5521 250.295 67.6395L250.408 67.7125C216.13 67.6859 188.403 67.666 169.244 67.6528C159.662 67.6395 152.221 67.6262 147.174 67.6196C144.654 67.613 142.725 67.6063 141.431 67.6063C140.112 67.5865 139.442 67.5798 139.442 67.5798Z" fill="#1F1F1F"/>
<path d="M245.871 98.2768C262.516 101.016 236.268 130.493 221.413 142.125C212.812 148.863 203.575 156.164 199.489 166.297C194.854 177.796 198.289 190.714 196.041 202.28C195.67 204.203 192.831 203.898 192.858 201.942C192.971 194.349 192.765 186.762 191.505 179.288C189.721 168.691 185.643 158.206 178.215 150.434C172.154 144.094 164.203 139.877 157.73 133.955C148.287 125.301 138.585 114.14 137.637 101.361C137.637 101.361 155.767 86.7578 165.834 88.6014C177.599 90.7566 189.177 108.907 207.401 106.825C220.14 105.386 226.566 95.107 245.871 98.2768Z" fill="#4CBDE2"/>
<path d="M247.35 256.076C246.932 251.911 245.818 247.203 242.124 245.24C239.889 244.053 237.164 244.186 234.71 244.829C232.256 245.472 229.955 246.586 227.528 247.309C222.747 248.728 217.508 248.562 212.826 246.845C208.31 245.187 204.43 242.189 200.239 239.829C196.048 237.468 191.134 235.717 186.465 236.878C178.415 238.88 174.223 248.576 166.266 250.917C162.731 251.958 158.931 251.374 155.33 250.558C151.736 249.743 148.122 248.695 144.441 248.834C141.556 248.94 138.552 249.942 136.523 251.918L136.543 251.891C136.523 251.911 136.503 251.931 136.483 251.958C136.152 252.289 135.847 252.641 135.568 253.025C133.101 256.315 132.703 260.745 133.466 264.763C134.315 269.266 136.417 273.424 138.672 277.41C141.331 282.105 144.348 286.78 148.738 289.91C154.156 293.77 160.974 291.104 167.605 291.628C183.077 292.848 199.729 293.684 215.2 292.483C223.377 291.847 231.036 292.735 237.522 287.722C242.084 284.194 245.055 278.875 246.488 273.285C247.933 267.681 247.927 261.812 247.35 256.076Z" fill="#4CBDE2"/>
<g opacity="0.24">
<g opacity="0.24">
<path opacity="0.24" d="M218.146 248.104C217.27 249.444 216.899 251.235 217.741 252.594C218.583 253.954 219.724 255.187 220.089 256.745C220.666 259.186 219.193 261.58 218.093 263.835C216.13 267.873 215.241 272.476 215.898 276.919C216.561 281.362 218.835 285.599 222.39 288.345C223.962 289.558 226.004 290.5 227.901 289.903C229.685 289.346 230.839 287.536 231.19 285.699C231.541 283.862 231.25 281.972 231.018 280.122C229.937 271.514 230.155 262.747 231.674 254.206C231.926 252.78 232.171 251.148 231.263 250.014C230.686 249.292 229.764 248.953 228.882 248.655C225.44 247.508 221.72 248.781 218.146 248.104Z" fill="#1F1F1F"/>
</g>
</g>
<path d="M128.6 295.733C128.6 295.733 128.288 290.547 135.052 287.655H253.923C253.923 287.655 260.124 290.792 260.887 295.62L128.6 295.733Z" fill="#1F1F1F"/>
<path d="M251.41 68.2097C251.351 68.2362 251.284 68.2694 251.225 68.2959L139.449 67.5797C139.449 67.5797 139.052 67.3277 138.461 66.8635C135.278 64.37 137.062 59.257 141.107 59.2902L249.593 60.1656C254.063 60.1987 255.456 66.2998 251.41 68.2097Z" fill="#1F1F1F"/>
<g opacity="0.24">
<g opacity="0.24">
<path opacity="0.24" d="M233.516 110.851C233.741 111.282 232.899 112.217 231.301 113.636C229.696 115.062 227.348 117.012 224.364 119.419C221.367 121.807 217.733 124.678 213.104 127.364C210.783 128.703 208.203 129.917 205.385 130.905C203.965 131.383 202.493 131.827 200.948 132.132C199.41 132.464 197.805 132.682 196.153 132.755C192.864 132.941 189.515 132.464 186.518 131.436C183.54 130.401 180.994 128.942 178.772 127.483C176.544 126.004 174.621 124.545 172.81 123.153C171.007 121.754 169.362 120.407 167.896 119.134C162.027 114.048 158.937 110.307 159.534 109.585C160.151 108.835 164.309 111.216 170.781 115.195C172.399 116.19 174.17 117.277 176.073 118.444C177.97 119.598 180.012 120.878 182.095 122.059C184.183 123.239 186.365 124.313 188.627 125.01C190.875 125.679 193.269 125.998 195.815 125.858C200.908 125.6 205.849 123.803 210.126 121.74C214.43 119.638 218.276 117.251 221.632 115.374C224.981 113.477 227.852 112.071 229.935 111.322C232.024 110.573 233.297 110.433 233.516 110.851Z" fill="#1F1F1F"/>
</g>
</g>
<path d="M192.944 216.14C194.171 215.709 195.636 216.943 195.424 218.223C195.205 219.503 193.415 220.192 192.4 219.383C191.385 218.574 191.651 216.678 192.851 216.18" fill="#4CBDE2"/>
<path d="M152.972 129.346C152.966 129.352 152.826 129.22 152.574 128.948C152.309 128.656 151.944 128.258 151.493 127.761C151.036 127.237 150.432 126.627 149.816 125.851C149.192 125.075 148.483 124.193 147.707 123.225C146.984 122.204 146.168 121.109 145.346 119.889C144.955 119.266 144.55 118.622 144.132 117.959C143.927 117.628 143.708 117.296 143.509 116.945C143.317 116.593 143.124 116.235 142.925 115.87C141.294 112.999 139.842 109.63 138.807 105.956C137.773 102.276 137.289 98.6415 137.242 95.3324C137.242 94.5034 137.282 93.701 137.302 92.9185C137.322 92.5272 137.315 92.1426 137.355 91.7646C137.395 91.3866 137.435 91.0152 137.474 90.6505C137.561 89.921 137.614 89.2114 137.713 88.535C137.832 87.8652 137.952 87.222 138.065 86.6052C138.257 85.3651 138.582 84.2842 138.814 83.3226C138.94 82.8451 139.039 82.3942 139.165 81.9896C139.298 81.5917 139.417 81.2204 139.53 80.8822C139.742 80.2455 139.915 79.7349 140.041 79.3569C140.16 79.0121 140.226 78.833 140.24 78.833C140.253 78.8396 140.206 79.0253 140.107 79.3768C139.994 79.7614 139.848 80.2721 139.656 80.9153C139.557 81.2535 139.444 81.6249 139.325 82.0228C139.205 82.4273 139.119 82.8849 139 83.3624C138.781 84.324 138.476 85.4115 138.303 86.645C138.197 87.2618 138.091 87.8984 137.978 88.5682C137.885 89.238 137.839 89.9475 137.759 90.6704C137.726 91.0351 137.687 91.4065 137.647 91.7779C137.614 92.1558 137.62 92.5405 137.607 92.9251C137.594 93.701 137.554 94.5034 137.561 95.3257C137.62 98.6084 138.111 102.209 139.139 105.863C140.167 109.511 141.599 112.853 143.204 115.718C143.396 116.083 143.589 116.441 143.781 116.792C143.973 117.144 144.192 117.469 144.398 117.807C144.809 118.47 145.207 119.113 145.591 119.737C146.4 120.957 147.203 122.058 147.912 123.079C148.675 124.06 149.365 124.942 149.975 125.732C150.572 126.521 151.162 127.137 151.6 127.681C152.031 128.198 152.375 128.603 152.634 128.908C152.86 129.187 152.979 129.339 152.972 129.346Z" fill="#1F1F1F"/>
<path d="M146.676 227.865C146.67 227.865 146.716 227.785 146.802 227.646C146.902 227.493 147.028 227.288 147.194 227.022C147.373 226.744 147.592 226.406 147.844 226.014C147.976 225.815 148.115 225.603 148.261 225.371C148.427 225.152 148.613 224.933 148.805 224.688C149.196 224.211 149.634 223.68 150.105 223.097C150.616 222.546 151.199 221.976 151.816 221.352C153.076 220.132 154.595 218.832 156.372 217.519C159.893 214.854 164.436 212.201 169.356 209.104C171.797 207.532 174.37 205.874 176.804 203.858C179.237 201.856 181.585 199.548 183.488 196.796C187.235 191.225 188.754 184.773 188.893 179.003C189.046 173.194 187.805 168.015 186.353 163.89C184.881 159.752 183.19 156.595 181.963 154.473C181.346 153.405 180.842 152.596 180.497 152.046C180.332 151.781 180.206 151.575 180.106 151.422C180.02 151.283 179.98 151.204 179.98 151.204C179.987 151.204 180.04 151.27 180.133 151.403C180.239 151.555 180.378 151.754 180.551 152.013C180.915 152.55 181.439 153.352 182.076 154.407C183.342 156.516 185.073 159.659 186.585 163.81C188.077 167.948 189.351 173.154 189.218 179.016C189.191 180.475 189.072 181.974 188.853 183.486C188.641 185.005 188.323 186.537 187.885 188.069C187.03 191.132 185.663 194.183 183.787 196.995C181.864 199.787 179.489 202.114 177.036 204.124C174.582 206.153 172.002 207.804 169.549 209.376C164.608 212.46 160.066 215.086 156.538 217.718C154.767 219.018 153.242 220.291 151.975 221.492C151.358 222.108 150.768 222.666 150.257 223.209C149.78 223.78 149.336 224.304 148.938 224.774C148.739 225.013 148.547 225.225 148.381 225.444C148.228 225.67 148.082 225.882 147.95 226.074C147.684 226.459 147.459 226.79 147.273 227.062C147.094 227.314 146.955 227.513 146.849 227.666C146.729 227.805 146.676 227.871 146.676 227.865Z" fill="#1F1F1F"/>
<path d="M140.508 239.583C140.522 239.589 140.469 239.696 140.362 239.888C140.236 240.113 140.077 240.392 139.892 240.73C139.679 241.088 139.427 241.539 139.169 242.076C138.91 242.613 138.578 243.204 138.3 243.9C138.147 244.245 137.995 244.603 137.836 244.981C137.677 245.359 137.544 245.763 137.391 246.175C137.066 246.99 136.814 247.899 136.529 248.847C136.019 250.757 135.594 252.892 135.369 255.167C135.17 257.442 135.203 259.623 135.356 261.593C135.468 262.575 135.548 263.516 135.72 264.378C135.8 264.809 135.853 265.234 135.939 265.632C136.032 266.03 136.118 266.408 136.204 266.779C136.35 267.515 136.569 268.158 136.728 268.729C136.881 269.306 137.047 269.79 137.192 270.181C137.318 270.546 137.418 270.851 137.504 271.096C137.57 271.308 137.604 271.421 137.59 271.428C137.577 271.434 137.531 271.328 137.438 271.123C137.338 270.884 137.212 270.585 137.066 270.227C136.901 269.836 136.715 269.359 136.543 268.782C136.364 268.211 136.131 267.568 135.966 266.832C135.873 266.467 135.78 266.083 135.68 265.685C135.581 265.287 135.521 264.862 135.435 264.425C135.249 263.556 135.157 262.608 135.037 261.62C134.865 259.63 134.825 257.428 135.024 255.134C135.249 252.839 135.687 250.684 136.218 248.761C136.516 247.806 136.781 246.897 137.12 246.075C137.285 245.664 137.418 245.259 137.59 244.881C137.763 244.51 137.922 244.145 138.081 243.807C138.38 243.111 138.724 242.521 139.003 241.997C139.275 241.466 139.547 241.029 139.779 240.67C139.991 240.345 140.163 240.074 140.309 239.855C140.429 239.669 140.495 239.576 140.508 239.583Z" fill="#1F1F1F"/>
<path d="M222.496 255.526C222.496 255.532 222.457 255.565 222.364 255.625C222.251 255.691 222.118 255.778 221.953 255.884C221.561 256.122 221.024 256.441 220.341 256.852C219.99 257.064 219.598 257.29 219.174 257.542C218.736 257.78 218.252 258.006 217.735 258.271C216.694 258.775 215.533 259.418 214.167 259.929C213.491 260.207 212.781 260.499 212.045 260.798C211.309 261.096 210.506 261.322 209.697 261.607C208.086 262.197 206.295 262.615 204.432 263.105C200.665 263.941 196.454 264.558 191.998 264.704C187.541 264.796 183.297 264.399 179.49 263.762C177.6 263.371 175.797 263.046 174.152 262.542C173.33 262.303 172.521 262.117 171.765 261.859C171.015 261.593 170.292 261.341 169.603 261.103C168.21 260.658 167.023 260.081 165.955 259.631C165.425 259.398 164.928 259.193 164.477 258.981C164.039 258.749 163.641 258.543 163.276 258.351C162.573 257.979 162.023 257.681 161.618 257.469C161.446 257.376 161.307 257.296 161.194 257.23C161.101 257.177 161.055 257.144 161.055 257.137C161.055 257.13 161.108 257.15 161.214 257.197C161.333 257.25 161.479 257.323 161.658 257.402C162.069 257.601 162.633 257.88 163.343 258.225C163.707 258.404 164.112 258.609 164.556 258.828C165.007 259.034 165.511 259.226 166.042 259.451C167.116 259.883 168.303 260.44 169.696 260.871C170.385 261.103 171.102 261.348 171.858 261.607C172.607 261.859 173.416 262.038 174.238 262.27C175.876 262.761 177.673 263.072 179.557 263.45C183.343 264.067 187.561 264.452 191.998 264.365C196.428 264.226 200.619 263.623 204.372 262.807C206.229 262.33 208.013 261.925 209.624 261.348C210.433 261.076 211.229 260.851 211.965 260.566C212.701 260.274 213.411 259.989 214.081 259.723C215.447 259.226 216.607 258.603 217.655 258.119C218.173 257.867 218.663 257.648 219.101 257.416C219.532 257.177 219.923 256.951 220.281 256.752C220.971 256.368 221.521 256.063 221.919 255.844C222.092 255.751 222.238 255.678 222.35 255.612C222.443 255.539 222.496 255.519 222.496 255.526Z" fill="#1F1F1F"/>
<path d="M229.411 115.175C229.418 115.181 229.364 115.221 229.272 115.307C229.159 115.4 229.013 115.519 228.834 115.665C228.429 115.99 227.859 116.441 227.143 117.018C225.664 118.185 223.535 119.876 220.836 121.892C218.137 123.895 214.861 126.229 210.975 128.411C209.012 129.459 206.917 130.533 204.622 131.336C202.334 132.145 199.867 132.762 197.288 132.967C192.108 133.319 187.194 132.006 183.202 130.036C181.206 129.035 179.402 127.914 177.758 126.8C176.139 125.659 174.661 124.552 173.354 123.491C170.728 121.382 168.672 119.598 167.24 118.378C166.544 117.774 165.993 117.303 165.602 116.959C165.429 116.806 165.29 116.68 165.184 116.581C165.091 116.494 165.045 116.448 165.051 116.441C165.058 116.435 165.111 116.474 165.211 116.554C165.323 116.647 165.469 116.76 165.655 116.905C166.059 117.23 166.623 117.688 167.333 118.272C168.792 119.465 170.867 121.216 173.507 123.298C174.82 124.346 176.305 125.434 177.923 126.561C179.561 127.655 181.358 128.763 183.341 129.751C187.307 131.687 192.155 132.967 197.268 132.622C199.808 132.423 202.241 131.813 204.509 131.017C206.784 130.228 208.866 129.167 210.823 128.133C214.702 125.977 217.978 123.67 220.697 121.693C223.409 119.704 225.565 118.046 227.063 116.912C227.799 116.362 228.383 115.924 228.794 115.612C228.98 115.473 229.132 115.367 229.252 115.281C229.351 115.201 229.411 115.168 229.411 115.175Z" fill="#1F1F1F"/>
<g opacity="0.24">
<g opacity="0.24">
<path opacity="0.24" d="M169.602 261.096C172.745 258.669 177.162 259.259 181.041 260.075C184.927 260.89 188.84 262.217 192.772 261.666C195.737 261.248 198.456 259.796 201.38 259.159C204.305 258.523 207.853 258.994 209.471 261.507C196.612 265.692 182.381 265.546 169.602 261.096Z" fill="#1F1F1F"/>
</g>
</g>
<path d="M279.265 243.098L264.987 227.109L264.841 246.546L269.138 259.014L226.418 266.421L224.607 232.713L221.53 206.823C221.152 203.653 222.963 200.623 225.933 199.456L237.691 194.827L254.25 197.864L260.908 200.397C263.707 201.458 266.2 203.196 268.17 205.444L288.224 228.376" fill="#4CBDE2"/>
<path d="M263.985 223.282C263.991 223.216 264.926 223.355 266.398 223.11C267.857 222.885 269.873 222.168 271.545 220.63C273.216 219.085 274.084 217.135 274.429 215.703C274.787 214.257 274.728 213.309 274.794 213.309C274.814 213.309 274.847 213.541 274.854 213.965C274.86 214.39 274.821 215.006 274.668 215.756C274.376 217.241 273.514 219.277 271.777 220.882C270.039 222.48 267.937 223.176 266.432 223.349C265.676 223.442 265.059 223.435 264.634 223.389C264.21 223.355 263.978 223.302 263.985 223.282Z" fill="white"/>
<path d="M265.232 245.718C265.332 245.718 265.358 238.98 265.292 230.677C265.226 222.368 265.086 215.637 264.987 215.637C264.887 215.637 264.861 222.368 264.927 230.677C265 238.987 265.133 245.718 265.232 245.718Z" fill="#1F1F1F"/>
<path d="M263.669 250.658L237.852 240.266C235.77 239.43 234.344 237.481 234.171 235.246L232.281 210.497C232.281 210.497 232.507 199.973 225.928 199.462L222.188 200.934C217.354 203.501 216.153 210.537 216.817 215.975C217.752 223.694 218.143 234.623 219.191 241.32C220.046 246.805 223.19 251.626 228.554 253.038L260.346 259.922L263.669 250.658Z" fill="#4CBDE2"/>
<path d="M232.66 214.271C232.673 214.271 232.699 214.463 232.739 214.834C232.779 215.239 232.839 215.783 232.905 216.466C233.038 217.918 233.223 219.96 233.449 222.467C233.668 225.014 233.926 228.024 234.211 231.373C234.284 232.209 234.357 233.071 234.43 233.946C234.51 234.822 234.563 235.724 234.762 236.592C234.954 237.468 235.372 238.29 236.042 238.913C236.711 239.537 237.547 240.001 238.422 240.392C245.538 243.469 252.103 246.016 256.865 247.8C259.226 248.668 261.149 249.378 262.522 249.882C263.165 250.121 263.675 250.306 264.06 250.446C264.412 250.578 264.591 250.651 264.591 250.665C264.584 250.678 264.398 250.625 264.04 250.512C263.656 250.386 263.138 250.22 262.482 250.008C261.129 249.557 259.186 248.887 256.785 248.025C251.997 246.301 245.425 243.794 238.283 240.704C237.395 240.299 236.526 239.829 235.81 239.159C235.087 238.496 234.623 237.58 234.43 236.665C234.225 235.75 234.178 234.842 234.099 233.966C234.026 233.091 233.959 232.229 233.893 231.393C233.634 228.044 233.402 225.027 233.203 222.48C233.018 219.967 232.872 217.925 232.766 216.472C232.726 215.789 232.693 215.239 232.666 214.834C232.653 214.469 232.646 214.271 232.66 214.271Z" fill="#1F1F1F"/>
<path d="M217.871 227.726C217.885 227.726 217.898 227.838 217.924 228.057C217.944 228.316 217.977 228.627 218.011 229.012C218.09 229.894 218.19 231.081 218.316 232.527C218.455 234.006 218.634 235.77 218.893 237.719C219.158 239.662 219.47 241.811 220.06 243.986C220.338 245.087 220.73 246.102 221.32 246.977C221.91 247.859 222.566 248.648 223.25 249.345C224.616 250.737 226.075 251.765 227.381 252.441C230.02 253.814 231.944 253.834 231.917 253.927C231.917 253.94 231.798 253.934 231.579 253.92C231.36 253.907 231.035 253.881 230.624 253.794C229.802 253.648 228.615 253.323 227.268 252.66C225.922 251.997 224.423 250.976 223.024 249.57C222.328 248.86 221.651 248.065 221.041 247.169C220.425 246.267 220.007 245.187 219.728 244.086C219.131 241.877 218.826 239.722 218.581 237.766C218.342 235.809 218.183 234.039 218.077 232.553C217.971 231.068 217.911 229.861 217.878 229.032C217.871 228.647 217.865 228.329 217.858 228.07C217.851 227.838 217.858 227.726 217.871 227.726Z" fill="#1F1F1F"/>
<path d="M228.904 245.041C228.871 245.034 228.977 244.477 229.375 243.668C229.766 242.859 230.489 241.805 231.543 240.903C232.598 240.001 233.752 239.45 234.614 239.192C235.483 238.927 236.04 238.907 236.046 238.94C236.06 239 235.516 239.106 234.693 239.417C233.871 239.729 232.784 240.293 231.769 241.155C230.754 242.024 230.025 243.012 229.594 243.774C229.149 244.544 228.957 245.061 228.904 245.041Z" fill="#1F1F1F"/>
<path d="M233.984 226.22C233.984 226.214 234.044 226.24 234.15 226.293C234.27 226.36 234.422 226.439 234.614 226.539C235.026 226.731 235.636 227.043 236.458 227.321C238.083 227.885 240.623 228.455 243.693 227.938C246.724 227.441 250.245 225.657 252.685 222.348C253.892 220.716 254.827 218.707 255.04 216.499C255.146 215.404 255.06 214.264 254.695 213.189C254.343 212.115 253.693 211.127 252.831 210.344C251.976 209.562 250.915 209.012 249.801 208.872C248.7 208.7 247.526 208.992 246.763 209.728C246.392 210.099 246.167 210.59 246.173 211.101C246.173 211.611 246.366 212.108 246.671 212.52C247.281 213.355 248.315 213.746 249.297 213.892C251.306 214.171 253.282 213.806 254.94 213.083C256.605 212.36 257.964 211.28 258.939 210.093C259.921 208.899 260.524 207.606 260.882 206.439C261.247 205.265 261.353 204.197 261.373 203.335C261.386 202.466 261.293 201.796 261.227 201.345C261.187 201.133 261.161 200.967 261.134 200.835C261.114 200.722 261.108 200.656 261.114 200.656C261.114 200.656 261.479 201.578 261.512 203.335C261.512 204.21 261.426 205.291 261.074 206.498C260.723 207.692 260.126 209.018 259.131 210.252C258.143 211.479 256.757 212.593 255.06 213.349C253.362 214.098 251.339 214.483 249.257 214.211C248.229 214.065 247.108 213.66 246.412 212.725C246.074 212.274 245.842 211.704 245.842 211.107C245.835 210.51 246.107 209.92 246.531 209.496C247.393 208.66 248.673 208.362 249.854 208.541C251.047 208.693 252.175 209.277 253.07 210.099C253.972 210.921 254.655 211.963 255.026 213.09C255.404 214.217 255.497 215.404 255.384 216.538C255.159 218.82 254.191 220.882 252.951 222.547C250.444 225.915 246.83 227.713 243.739 228.183C240.609 228.681 238.043 228.057 236.418 227.454C234.76 226.817 233.984 226.22 233.984 226.22Z" fill="white"/>
<path d="M217.075 219.622C217.062 219.609 217.201 219.417 217.5 219.092C217.798 218.773 218.255 218.336 218.892 217.878C220.145 216.936 222.221 216.081 224.602 215.855C225.796 215.729 226.95 215.783 227.964 215.995C228.985 216.207 229.861 216.552 230.557 216.903C231.253 217.255 231.784 217.606 232.135 217.865C232.487 218.123 232.666 218.283 232.653 218.303C232.62 218.356 231.844 217.772 230.451 217.129C229.072 216.472 226.963 215.922 224.635 216.2C222.301 216.419 220.285 217.215 219.025 218.084C217.752 218.933 217.122 219.669 217.075 219.622Z" fill="white"/>
<path d="M221.205 201.923C221.258 201.863 221.868 202.712 223.294 203.441C223.997 203.806 224.912 204.111 225.953 204.224C226.994 204.337 228.168 204.217 229.282 203.766C230.39 203.295 231.305 202.553 231.961 201.737C232.625 200.921 233.049 200.066 233.294 199.303C233.785 197.778 233.619 196.75 233.699 196.75C233.719 196.75 233.772 196.995 233.785 197.453C233.805 197.911 233.752 198.58 233.526 199.369C233.308 200.159 232.89 201.067 232.213 201.929C231.544 202.785 230.589 203.581 229.415 204.078C228.234 204.555 227.001 204.668 225.92 204.536C224.832 204.403 223.897 204.058 223.181 203.653C222.465 203.249 221.954 202.811 221.643 202.48C221.324 202.148 221.185 201.936 221.205 201.923Z" fill="white"/>
<path d="M243.699 242.621C243.686 242.621 243.706 242.455 243.752 242.13C243.825 241.818 243.925 241.348 244.21 240.797C244.734 239.683 246.027 238.29 248.076 237.442C250.092 236.533 252.871 236.361 255.663 237.17C257.029 237.574 258.594 238.078 259.615 239.411C260.119 240.068 260.285 241.043 259.907 241.838C259.542 242.641 258.826 243.191 258.07 243.576C257.301 243.954 256.465 244.166 255.623 244.179C254.794 244.193 253.925 243.987 253.275 243.45C252.619 242.919 252.274 242.104 252.228 241.321C252.168 240.532 252.327 239.776 252.579 239.086C253.68 236.328 255.901 234.57 257.898 233.701C259.927 232.813 261.764 232.72 262.977 232.826C264.198 232.952 264.834 233.217 264.834 233.217C264.821 233.264 264.178 233.045 262.971 232.959C261.77 232.892 259.973 233.025 258.004 233.92C257.022 234.365 256.014 235.008 255.106 235.883C254.204 236.759 253.388 237.873 252.877 239.186C252.639 239.842 252.493 240.565 252.552 241.288C252.606 242.004 252.911 242.714 253.488 243.178C254.058 243.649 254.84 243.841 255.616 243.821C256.399 243.808 257.188 243.602 257.911 243.251C258.62 242.893 259.277 242.375 259.589 241.679C259.914 240.996 259.781 240.18 259.337 239.59C258.899 238.987 258.262 238.556 257.612 238.218C256.956 237.886 256.253 237.66 255.57 237.455C252.831 236.646 250.139 236.792 248.162 237.647C246.153 238.45 244.867 239.769 244.323 240.837C243.759 241.931 243.746 242.634 243.699 242.621Z" fill="white"/>
<path d="M226.512 251.938C226.499 251.872 227.493 251.792 228.985 251.255C230.471 250.738 232.44 249.67 234.059 247.886C235.677 246.096 236.532 244.027 236.904 242.495C237.282 240.956 237.268 239.961 237.335 239.961C237.354 239.961 237.381 240.207 237.374 240.658C237.368 241.109 237.308 241.759 237.149 242.548C236.837 244.119 235.988 246.268 234.324 248.112C232.659 249.955 230.604 251.016 229.072 251.48C228.302 251.719 227.659 251.845 227.215 251.898C226.764 251.958 226.512 251.958 226.512 251.938Z" fill="white"/>
<path d="M218.145 232.7C218.145 232.687 218.251 232.647 218.456 232.574C218.662 232.508 218.973 232.408 219.378 232.309C220.18 232.116 221.387 231.844 222.893 231.951C223.642 232.01 224.464 232.183 225.28 232.541C226.096 232.899 226.905 233.469 227.508 234.292C228.099 235.114 228.463 236.182 228.377 237.302C228.337 237.859 228.165 238.416 227.866 238.914C227.561 239.404 227.11 239.849 226.514 240.048C225.923 240.233 225.234 240.141 224.769 239.703C224.312 239.259 224.199 238.635 224.166 238.091C224.126 236.991 224.365 235.936 224.776 235.021C225.598 233.171 227.124 231.957 228.543 231.447C229.969 230.916 231.235 230.956 232.051 231.102C232.462 231.175 232.78 231.268 232.986 231.34C233.192 231.42 233.298 231.466 233.291 231.473C233.278 231.506 232.847 231.334 232.031 231.234C231.222 231.135 229.995 231.142 228.629 231.679C227.276 232.196 225.837 233.376 225.068 235.154C224.683 236.029 224.464 237.037 224.504 238.078C224.531 238.582 224.65 239.119 225.002 239.458C225.353 239.789 225.917 239.875 226.407 239.723C226.898 239.564 227.303 239.179 227.575 238.741C227.847 238.297 227.999 237.786 228.045 237.276C228.132 236.254 227.8 235.246 227.256 234.477C226.699 233.708 225.937 233.158 225.167 232.799C224.391 232.441 223.602 232.262 222.873 232.189C221.407 232.057 220.214 232.282 219.405 232.435C218.602 232.607 218.158 232.726 218.145 232.7Z" fill="white"/>
<g opacity="0.3">
<g opacity="0.3">
<path opacity="0.3" d="M256.249 247.707C253.49 246.148 250.791 244.948 247.9 243.635C245.015 242.322 242.183 240.638 240.3 238.091C236.739 233.29 237.143 226.36 233.496 221.618C233.735 224.801 233.974 227.991 234.212 231.174C234.431 234.092 233.98 236.984 235.864 238.966C237.448 240.638 240.539 241.917 242.727 242.64C247.124 244.106 251.859 246.261 256.249 247.707Z" fill="#1F1F1F"/>
</g>
</g>
<path d="M301.103 284.081C301.103 284.081 322.702 290.056 323.57 290.361C324.87 290.819 324.651 295.587 322.629 295.514C321.674 295.481 306.037 296.098 304.06 295.972C302.084 295.846 296.129 293.498 296.129 293.498L301.103 284.081Z" fill="#4CBDE2"/>
<path d="M310.103 292.324C310.209 292.338 310.355 291.197 311.058 290.003C311.741 288.803 312.65 288.1 312.583 288.014C312.544 287.928 311.476 288.538 310.74 289.824C309.997 291.098 310.01 292.331 310.103 292.324Z" fill="#1F1F1F"/>
<path d="M307.848 291.303C307.954 291.323 308.173 290.302 308.75 289.174C309.313 288.04 310.003 287.258 309.924 287.185C309.864 287.112 309.022 287.821 308.425 289.015C307.821 290.202 307.762 291.296 307.848 291.303Z" fill="#1F1F1F"/>
<path d="M305.74 290.739C305.846 290.732 305.766 289.651 306.244 288.458C306.701 287.251 307.497 286.515 307.418 286.435C307.371 286.356 306.403 287.019 305.906 288.325C305.395 289.618 305.654 290.766 305.74 290.739Z" fill="#1F1F1F"/>
<path d="M306.124 287.947C306.164 287.954 306.356 287.357 306.356 286.342C306.356 285.838 306.296 285.235 306.137 284.578C306.058 284.253 305.952 283.915 305.819 283.577C305.746 283.405 305.666 283.206 305.474 283.046C305.275 282.867 304.904 282.901 304.731 283.086C304.532 283.259 304.473 283.504 304.446 283.696C304.426 283.895 304.413 284.081 304.42 284.267C304.426 284.638 304.473 284.996 304.552 285.321C304.711 285.978 304.97 286.535 305.215 286.972C305.72 287.848 306.157 288.299 306.184 288.272C306.23 288.239 305.872 287.735 305.441 286.853C305.229 286.415 305.01 285.872 304.877 285.248C304.811 284.936 304.771 284.605 304.771 284.26C304.778 283.928 304.778 283.511 304.97 283.352C305.076 283.265 305.169 283.259 305.255 283.325C305.348 283.398 305.428 283.544 305.494 283.703C305.627 284.028 305.739 284.346 305.819 284.658C305.991 285.281 306.071 285.858 306.104 286.342C306.164 287.33 306.064 287.941 306.124 287.947Z" fill="#1F1F1F"/>
<path d="M306.095 287.728C306.108 287.689 305.584 287.51 304.702 287.503C304.264 287.503 303.734 287.549 303.17 287.689C302.892 287.762 302.587 287.835 302.288 288.014C301.99 288.166 301.685 288.577 301.797 289.002C301.89 289.406 302.235 289.685 302.573 289.771C302.918 289.864 303.25 289.831 303.542 289.771C304.132 289.632 304.596 289.34 304.947 289.081C305.637 288.537 305.975 288.12 305.949 288.093C305.909 288.047 305.504 288.405 304.795 288.876C304.443 289.101 303.999 289.347 303.469 289.446C303.203 289.499 302.925 289.512 302.666 289.433C302.414 289.36 302.202 289.167 302.142 288.922C302.083 288.683 302.228 288.458 302.461 288.319C302.693 288.173 302.978 288.093 303.243 288.014C303.78 287.861 304.278 287.788 304.695 287.762C305.551 287.702 306.081 287.788 306.095 287.728Z" fill="#1F1F1F"/>
<path d="M313.426 292.556C313.532 292.543 313.426 291.621 313.85 290.607C314.255 289.585 314.978 289.002 314.905 288.916C314.872 288.829 313.963 289.34 313.512 290.467C313.048 291.595 313.333 292.596 313.426 292.556Z" fill="#1F1F1F"/>
<path d="M298.352 293.551C298.345 293.57 298.637 293.71 299.187 293.942C299.744 294.154 300.553 294.446 301.588 294.685C303.65 295.202 306.601 295.5 309.831 295.467C313.067 295.434 315.985 295.281 318.101 295.202C319.102 295.149 319.937 295.102 320.601 295.069C321.191 295.029 321.516 294.996 321.516 294.97C321.516 294.943 321.184 294.93 320.594 294.93C319.931 294.937 319.089 294.943 318.087 294.95C315.899 294.99 313.014 295.049 309.824 295.109C306.601 295.142 303.697 294.89 301.634 294.439C299.579 294.015 298.378 293.484 298.352 293.551Z" fill="#1F1F1F"/>
<path d="M297.712 294.048C297.738 294.101 298.335 293.75 299.33 293.312C300.318 292.888 301.797 292.384 303.415 292.636C305.04 292.888 306.194 293.975 306.95 294.738C307.706 295.527 308.15 296.045 308.196 296.011C308.23 295.985 307.858 295.408 307.142 294.566C306.777 294.148 306.313 293.664 305.71 293.226C305.113 292.788 304.343 292.41 303.481 292.278C301.737 292.013 300.205 292.596 299.231 293.08C298.229 293.591 297.685 294.009 297.712 294.048Z" fill="#1F1F1F"/>
<path d="M278.178 278.12C278.178 278.12 257.74 291.502 257.004 292.053C255.903 292.882 257.163 296.847 259.073 296.158C259.975 295.833 277.124 291.064 278.968 290.342C280.811 289.625 285.778 285.58 285.778 285.58L278.178 278.12Z" fill="#4CBDE2"/>
<path d="M272.11 288.704C272.203 288.684 271.838 287.503 270.744 286.515C269.656 285.514 268.449 285.262 268.442 285.355C268.403 285.454 269.49 285.846 270.498 286.787C271.526 287.709 272.01 288.75 272.11 288.704Z" fill="#1F1F1F"/>
<path d="M273.947 287.046C274.033 287.013 273.635 285.985 272.7 285.036C271.772 284.081 270.75 283.664 270.717 283.75C270.664 283.843 271.559 284.38 272.441 285.288C273.33 286.19 273.847 287.099 273.947 287.046Z" fill="#1F1F1F"/>
<path d="M275.784 285.865C275.877 285.865 275.777 284.698 274.889 283.617C274.013 282.53 272.893 282.185 272.873 282.278C272.826 282.377 273.801 282.835 274.604 283.843C275.432 284.844 275.678 285.892 275.784 285.865Z" fill="#1F1F1F"/>
<path d="M274.571 283.325C274.624 283.299 274.346 282.748 274.107 281.793C273.988 281.316 273.895 280.746 273.868 280.102C273.855 279.784 273.862 279.446 273.888 279.094C273.901 278.929 273.928 278.763 274.001 278.663C274.067 278.57 274.153 278.551 274.279 278.597C274.512 278.69 274.638 279.088 274.744 279.399C274.85 279.724 274.916 280.056 274.943 280.374C275.009 281.011 274.956 281.594 274.89 282.079C274.744 283.047 274.551 283.637 274.611 283.657C274.651 283.67 274.929 283.113 275.142 282.125C275.248 281.634 275.321 281.024 275.274 280.348C275.248 280.009 275.188 279.658 275.082 279.3C275.029 279.121 274.962 278.948 274.883 278.763C274.797 278.584 274.664 278.371 274.425 278.265C274.206 278.146 273.842 278.219 273.709 278.458C273.57 278.67 273.557 278.882 273.543 279.068C273.517 279.433 273.517 279.784 273.543 280.122C273.59 280.792 273.716 281.382 273.868 281.866C274.173 282.828 274.538 283.345 274.571 283.325Z" fill="#1F1F1F"/>
<path d="M274.532 283.107C274.558 283.16 275.036 282.914 275.858 282.715C276.269 282.616 276.767 282.53 277.324 282.516C277.602 282.51 277.901 282.503 278.166 282.569C278.431 282.629 278.643 282.795 278.657 283.047C278.677 283.305 278.531 283.551 278.312 283.697C278.093 283.849 277.815 283.916 277.549 283.949C277.012 284.008 276.521 283.916 276.11 283.803C275.295 283.571 274.797 283.352 274.777 283.412C274.764 283.451 275.208 283.743 276.037 284.048C276.448 284.194 276.979 284.327 277.582 284.28C277.881 284.254 278.206 284.188 278.504 283.989C278.803 283.803 279.048 283.431 279.008 283.02C278.988 282.576 278.571 282.284 278.246 282.231C277.901 282.152 277.596 282.178 277.304 282.191C276.72 282.231 276.203 282.344 275.785 282.477C274.956 282.742 274.512 283.073 274.532 283.107Z" fill="#1F1F1F"/>
<path d="M261.679 295.415C261.706 295.448 262.024 295.21 262.176 294.626C262.349 294.056 262.243 293.174 261.792 292.411C261.58 292.02 261.334 291.688 261.109 291.39C260.883 291.091 260.651 290.826 260.412 290.647C260.174 290.461 259.928 290.382 259.763 290.375C259.59 290.369 259.504 290.408 259.504 290.428C259.504 290.481 259.869 290.455 260.247 290.839C260.439 291.025 260.631 291.277 260.837 291.582C261.049 291.887 261.275 292.219 261.473 292.577C261.885 293.3 262.011 294.042 261.924 294.573C261.858 295.104 261.633 295.382 261.679 295.415Z" fill="#1F1F1F"/>
<path d="M269.021 289.93C269.114 289.937 269.088 288.902 268.298 287.974C267.523 287.032 266.508 286.82 266.501 286.913C266.462 287.012 267.324 287.351 268.02 288.199C268.736 289.042 268.915 289.957 269.021 289.93Z" fill="#1F1F1F"/>
<path d="M283.684 286.31C283.664 286.29 283.352 286.522 282.789 286.927C282.212 287.324 281.37 287.881 280.269 288.472C279.168 289.062 277.815 289.672 276.263 290.256C274.718 290.832 272.981 291.376 271.144 291.907C267.47 292.968 264.141 293.936 261.733 294.659C260.58 295.01 259.625 295.309 258.895 295.534C258.225 295.747 257.861 295.879 257.867 295.899C257.874 295.926 258.252 295.839 258.935 295.667C259.678 295.468 260.639 295.216 261.806 294.904C264.227 294.248 267.563 293.319 271.243 292.258C273.08 291.728 274.824 291.171 276.376 290.567C277.928 289.964 279.287 289.321 280.381 288.697C281.476 288.074 282.311 287.477 282.862 287.039C283.412 286.588 283.697 286.323 283.684 286.31Z" fill="#1F1F1F"/>
<path d="M284.439 286.582C284.452 286.542 283.802 286.303 282.708 286.124C281.627 285.952 279.989 285.866 278.411 286.648C277.628 287.033 277.011 287.63 276.574 288.226C276.129 288.83 275.838 289.427 275.619 289.937C275.188 290.959 275.009 291.622 275.048 291.635C275.101 291.655 275.367 291.025 275.851 290.043C276.335 289.095 277.104 287.702 278.576 286.966C280.049 286.237 281.607 286.27 282.675 286.37C283.756 286.489 284.425 286.635 284.439 286.582Z" fill="#1F1F1F"/>
<path d="M320.654 245.485C320.654 245.485 326.788 247.674 326.808 254.551C326.854 267.721 300.202 282.238 300.202 282.238L264.729 258.729L262.508 257.827C262.501 257.827 310.394 239.842 320.654 245.485Z" fill="#1F1F1F"/>
<path d="M282.696 270.599C282.709 270.619 283.041 270.394 283.618 269.969C284.201 269.545 285.03 268.921 286.045 268.139C288.074 266.567 290.839 264.346 293.81 261.792C296.781 259.239 299.401 256.845 301.258 255.075C302.186 254.193 302.929 253.463 303.433 252.952C303.937 252.442 304.209 252.15 304.189 252.137C304.169 252.117 303.87 252.376 303.333 252.853C302.756 253.377 301.994 254.06 301.078 254.889C299.175 256.606 296.536 258.974 293.565 261.521C290.594 264.067 287.862 266.322 285.872 267.94C284.917 268.722 284.122 269.366 283.518 269.863C282.981 270.321 282.682 270.579 282.696 270.599Z" fill="#1B3A59"/>
<path d="M310.638 250.406C310.651 250.32 309.066 250.161 307.223 250.718C305.366 251.255 304.126 252.25 304.186 252.316C304.245 252.409 305.539 251.587 307.329 251.07C309.106 250.526 310.638 250.519 310.638 250.406Z" fill="#1B3A59"/>
<path d="M307.584 248.33C307.551 248.244 306.417 248.748 305.482 249.915C304.54 251.076 304.288 252.289 304.381 252.303C304.487 252.336 304.872 251.235 305.767 250.141C306.643 249.033 307.644 248.423 307.584 248.33Z" fill="#1B3A59"/>
<path d="M322.602 290.03C322.622 289.99 322.178 289.904 321.687 290.308C321.203 290.693 320.792 291.469 320.659 292.364C320.527 293.273 320.726 294.108 320.984 294.632C321.236 295.169 321.508 295.421 321.541 295.401C321.588 295.368 321.396 295.07 321.223 294.539C321.044 294.015 320.898 293.246 321.018 292.417C321.137 291.588 321.475 290.872 321.86 290.494C322.238 290.103 322.609 290.089 322.602 290.03Z" fill="#1F1F1F"/>
<path d="M312.496 223.966L299.856 255.996L245.451 256.885L244.449 253.941L263.515 253.251L272.68 224.835L312.496 223.966Z" fill="#1B3A59"/>
<path d="M287.083 237.833C287.78 237.362 289.073 237.548 289.703 238.111C290.333 238.675 290.532 239.65 290.213 240.432C289.895 241.215 289.093 241.759 288.25 241.805C287.355 241.851 286.42 241.294 286.175 240.432C285.923 239.57 286.201 238.29 287.083 237.833Z" fill="#F2F7FC"/>
<path d="M303.559 283.836C303.559 283.836 253.437 250.956 251.381 250.273C249.332 249.59 244.372 246.341 239.411 247.707C234.451 249.073 230.008 253.523 227.779 260.022C226.506 263.735 225.909 270.069 225.631 274.823C225.293 280.507 227.05 286.17 230.77 290.481C232.461 292.443 234.544 294.148 237.017 294.917C237.541 295.076 238.078 295.222 238.635 295.341C248.112 297.397 257.854 293.14 263.172 285.036L264.339 283.259C264.339 283.259 297.126 295.302 297.643 295.136L303.559 283.836Z" fill="#1F1F1F"/>
<path d="M241.555 274.784C241.555 274.784 241.648 274.83 241.827 274.903C242.026 274.983 242.297 275.089 242.649 275.228C243.392 275.513 244.453 275.924 245.825 276.448C248.611 277.496 252.636 279.015 257.636 280.898C262.65 282.768 268.665 284.996 275.402 287.45C282.147 289.904 289.614 292.589 297.598 295.295L297.744 295.342L297.817 295.202C299.07 292.808 300.39 290.288 301.73 287.722C302.413 286.415 303.089 285.116 303.726 283.909L303.805 283.763L303.666 283.677C288.612 274.121 275.15 265.572 265.435 259.405C260.581 256.341 256.668 253.874 253.949 252.163C252.603 251.321 251.555 250.671 250.832 250.214C250.487 250.001 250.216 249.836 250.017 249.716C249.831 249.604 249.731 249.557 249.731 249.557C249.731 249.557 249.818 249.623 249.997 249.749C250.189 249.875 250.454 250.054 250.792 250.28C251.509 250.744 252.543 251.421 253.876 252.283C256.582 254.02 260.475 256.52 265.302 259.624C275.004 265.818 288.447 274.399 303.474 283.988L303.414 283.756C302.777 284.97 302.101 286.263 301.418 287.569C300.078 290.129 298.759 292.656 297.505 295.05L297.724 294.964C289.746 292.271 282.273 289.592 275.528 287.158C268.791 284.705 262.769 282.516 257.736 280.686C252.722 278.849 248.684 277.363 245.892 276.342C244.512 275.838 243.438 275.447 242.689 275.175C242.331 275.049 242.059 274.949 241.86 274.883C241.654 274.81 241.555 274.784 241.555 274.784Z" fill="#1B3A59"/>
<path d="M246.75 158.035C247.606 155.727 249.496 154.719 251.89 154.142C254.284 153.565 256.949 154.248 258.766 155.913C259.98 157.027 260.869 158.565 262.374 159.242C264.848 160.362 268.011 158.724 270.352 160.097C271.738 160.906 272.421 162.75 271.89 164.268C271.36 165.787 269.682 166.808 268.097 166.583C269.709 167.346 270.007 169.766 268.9 171.159C267.792 172.551 265.743 172.929 264.025 172.445C262.314 171.961 260.889 170.767 259.682 169.461C258.468 168.155 257.414 166.709 256.101 165.502C254.788 164.295 253.156 163.327 251.379 163.26C248.972 163.168 246.75 164.792 245.483 166.842C244.217 168.891 243.746 171.324 243.394 173.712C243.043 176.099 242.778 178.526 241.856 180.755C241.75 181.013 241.591 181.305 241.319 181.365C240.921 181.451 240.622 181.007 240.463 180.629C238.653 176.384 237.685 171.775 237.638 167.16C237.612 164.481 237.91 161.967 239.575 159.872C241.239 157.776 245.072 156.456 246.75 158.035Z" fill="#1F1F1F"/>
<path d="M241.099 168.731L237.411 195.51C236.788 200.066 240.097 204.217 244.673 204.615C248.944 204.986 252.764 201.936 253.34 197.691C253.619 195.675 253.851 193.998 253.891 193.792C253.891 193.792 260.794 194.091 262.214 187.413C262.903 184.183 263.772 177.425 264.488 171.298C265.257 164.719 260.841 158.651 254.342 157.352L253.699 157.226C246.662 156.224 241.888 161.662 241.099 168.731Z" fill="#FFBE9D"/>
<path d="M253.925 193.693C253.925 193.693 249.628 193.189 245.695 189.468C245.695 189.468 246.796 194.701 253.6 195.43L253.925 193.693Z" fill="#EB996E"/>
<path d="M261.648 175.383C261.568 175.893 261.064 176.238 260.534 176.165C260.003 176.086 259.638 175.615 259.718 175.104C259.804 174.594 260.301 174.249 260.832 174.322C261.369 174.395 261.734 174.872 261.648 175.383Z" fill="#1F1F1F"/>
<path d="M262.404 174.282C262.259 174.381 261.642 173.705 260.614 173.499C259.586 173.28 258.731 173.658 258.644 173.513C258.598 173.446 258.764 173.247 259.142 173.068C259.513 172.896 260.11 172.77 260.753 172.902C261.396 173.035 261.887 173.38 262.146 173.678C262.411 173.99 262.471 174.242 262.404 174.282Z" fill="#1F1F1F"/>
<path d="M251.491 173.711C251.405 174.222 250.908 174.567 250.377 174.494C249.847 174.414 249.482 173.944 249.562 173.433C249.648 172.922 250.145 172.577 250.676 172.65C251.213 172.73 251.578 173.207 251.491 173.711Z" fill="#1F1F1F"/>
<path d="M252.252 172.458C252.106 172.558 251.489 171.881 250.462 171.676C249.434 171.457 248.578 171.835 248.492 171.689C248.446 171.623 248.611 171.424 248.989 171.245C249.361 171.072 249.958 170.946 250.601 171.079C251.244 171.211 251.735 171.556 251.993 171.855C252.259 172.166 252.318 172.412 252.252 172.458Z" fill="#1F1F1F"/>
<path d="M254.461 180.834C254.468 180.774 255.131 180.794 256.192 180.867C256.457 180.893 256.722 180.887 256.802 180.721C256.901 180.542 256.848 180.237 256.782 179.905C256.663 179.222 256.537 178.499 256.404 177.75C255.893 174.686 255.582 172.186 255.708 172.166C255.834 172.146 256.344 174.613 256.855 177.677C256.974 178.433 257.087 179.149 257.2 179.839C257.24 180.157 257.346 180.529 257.127 180.9C257.014 181.079 256.795 181.185 256.616 181.198C256.437 181.218 256.291 181.192 256.159 181.172C255.104 181.013 254.454 180.893 254.461 180.834Z" fill="#1F1F1F"/>
<path d="M251.291 180.94C251.464 180.967 251.238 182.081 252.034 183.062C252.83 184.051 254.044 184.163 254.024 184.316C254.024 184.389 253.712 184.482 253.208 184.395C252.711 184.316 252.021 184.011 251.537 183.407C251.053 182.804 250.927 182.108 250.986 181.643C251.039 181.166 251.219 180.914 251.291 180.94Z" fill="#1F1F1F"/>
<path d="M253.319 168.472C253.16 168.731 252.158 168.393 250.925 168.3C249.691 168.181 248.643 168.34 248.537 168.055C248.491 167.922 248.71 167.69 249.161 167.498C249.605 167.305 250.281 167.173 251.018 167.239C251.76 167.305 252.397 167.551 252.801 167.816C253.213 168.088 253.392 168.353 253.319 168.472Z" fill="#1F1F1F"/>
<path d="M262.618 171.231C262.393 171.43 261.729 171.045 260.881 170.86C260.038 170.647 259.276 170.7 259.156 170.422C259.11 170.289 259.269 170.077 259.627 169.918C259.979 169.759 260.536 169.686 261.119 169.818C261.703 169.951 262.167 170.269 262.412 170.568C262.671 170.873 262.724 171.131 262.618 171.231Z" fill="#1F1F1F"/>
<path d="M240.656 173.798C240.55 173.725 236.326 171.517 235.556 176.126C234.787 180.735 239.569 180.556 239.602 180.423C239.635 180.291 240.656 173.798 240.656 173.798Z" fill="#FFBE9D"/>
<path d="M238.487 178.441C238.467 178.421 238.394 178.48 238.249 178.52C238.109 178.56 237.871 178.56 237.645 178.434C237.188 178.175 236.909 177.333 237.022 176.498C237.081 176.073 237.234 175.688 237.44 175.383C237.638 175.072 237.89 174.873 238.149 174.866C238.401 174.853 238.554 175.025 238.587 175.165C238.627 175.304 238.58 175.39 238.607 175.403C238.62 175.417 238.719 175.344 238.713 175.145C238.706 175.052 238.673 174.932 238.58 174.826C238.487 174.72 238.328 174.647 238.156 174.634C237.798 174.601 237.42 174.873 237.201 175.211C236.955 175.543 236.776 175.974 236.71 176.451C236.584 177.386 236.916 178.335 237.546 178.633C237.857 178.772 238.142 178.719 238.302 178.633C238.461 178.553 238.501 178.454 238.487 178.441Z" fill="#EB996E"/>
<path d="M266.194 170.177C263.091 170.376 259.921 168.964 257.991 166.523C256.638 164.819 255.776 162.577 253.86 161.543C252.573 160.846 250.982 160.84 249.589 161.278C248.19 161.722 246.963 162.577 245.855 163.546C246.472 167.206 244.841 170.834 243.256 174.189C243.083 174.561 242.878 174.958 242.513 175.138C241.89 175.443 241.14 174.958 240.769 174.368C240.172 173.427 240.099 172.253 240.126 171.139C240.179 168.599 240.623 166.046 241.651 163.725C242.685 161.404 244.323 159.321 246.465 157.955C249.145 156.251 252.527 155.767 255.63 156.436C258.734 157.106 261.552 158.884 263.661 161.258C264.643 162.358 265.491 163.625 265.823 165.058" fill="#1F1F1F"/>
<path d="M80.6045 278.206C80.5979 278.199 80.6377 278.106 80.7239 277.927C80.8167 277.728 80.9427 277.463 81.1019 277.125C81.4202 276.415 81.838 275.347 82.2027 273.915C82.9322 271.063 83.1908 266.706 82.1099 261.527C81.6059 258.934 80.7968 256.156 79.8153 253.211C78.8405 250.26 77.7131 247.123 76.7913 243.741C75.8762 240.366 75.16 236.699 75.2992 232.852C75.4385 228.999 76.5791 225.153 77.8325 221.327C79.0859 217.493 80.379 213.747 80.7637 209.98C81.2013 206.22 80.3989 202.526 78.6813 199.502C77.0234 196.445 74.9345 193.825 73.3694 191.12C71.7845 188.421 70.7898 185.642 70.1797 183.062C68.9926 177.857 69.4104 173.466 69.9741 170.575C70.5908 167.67 71.2739 166.165 71.2739 166.165C71.2805 166.165 71.254 166.265 71.1943 166.457C71.128 166.662 71.0418 166.948 70.929 167.299C70.6969 168.042 70.3985 169.149 70.12 170.602C69.6027 173.486 69.2313 177.843 70.4449 182.996C71.0683 185.549 72.063 188.288 73.648 190.954C75.2064 193.633 77.302 196.233 78.9997 199.33C80.7504 202.387 81.5926 206.2 81.1483 210.026C80.757 213.859 79.4506 217.633 78.2039 221.459C76.9505 225.286 75.8231 229.085 75.6772 232.872C75.538 236.659 76.2343 240.286 77.1362 243.648C78.0447 247.017 79.1588 250.154 80.1204 253.112C81.0952 256.069 81.891 258.868 82.3818 261.481C83.4362 266.693 83.1311 271.097 82.3486 273.955C81.9507 275.387 81.513 276.455 81.1682 277.158C80.9958 277.489 80.8565 277.748 80.757 277.947C80.6642 278.119 80.6111 278.206 80.6045 278.206Z" fill="#1F1F1F"/>
<path d="M75.4924 193.786C75.4924 193.786 72.3159 183.639 78.0124 177.697C78.2113 177.492 78.5628 177.585 78.6159 177.87C78.9209 179.548 79.2989 184.654 75.4924 193.786Z" fill="#4CBDE2"/>
<path d="M77.3942 181.079C77.4473 181.093 77.3544 181.802 77.182 182.949C76.9764 184.236 76.7311 185.755 76.4592 187.426C76.1939 189.097 75.9552 190.615 75.7496 191.902C75.5772 193.049 75.4711 193.759 75.4114 193.752C75.3583 193.746 75.365 193.029 75.4711 191.869C75.5772 190.708 75.7828 189.117 76.0679 187.366C76.3531 185.615 76.6581 184.037 76.9101 182.903C77.1489 181.762 77.3412 181.066 77.3942 181.079Z" fill="#1F1F1F"/>
<path d="M79.2188 217.726C79.2188 217.726 81.1618 207.268 88.9738 204.681C89.2457 204.588 89.5109 204.84 89.4247 205.119C88.9075 206.737 86.8583 211.432 79.2188 217.726Z" fill="#4CBDE2"/>
<path d="M86.8437 207.38C86.8835 207.413 86.4723 208.003 85.776 208.938C84.9868 209.979 84.065 211.206 83.0438 212.559C82.0292 213.912 81.1074 215.139 80.3248 216.187C79.6352 217.122 79.2107 217.699 79.1643 217.665C79.1179 217.639 79.4627 217.002 80.0994 216.027C80.736 215.053 81.6644 213.74 82.7321 212.327C83.8064 210.915 84.8144 209.661 85.5638 208.773C86.3065 207.871 86.7973 207.347 86.8437 207.38Z" fill="#1F1F1F"/>
<path d="M77.1071 243.954C77.1071 243.954 75.9266 233.383 82.6511 228.641C82.8898 228.475 83.2147 228.641 83.2081 228.926C83.1882 230.624 82.5847 235.71 77.1071 243.954Z" fill="#4CBDE2"/>
<path d="M81.3996 231.837C81.4527 231.857 81.2272 232.54 80.8359 233.635C80.385 234.861 79.8545 236.3 79.2709 237.892C78.6939 239.484 78.1634 240.923 77.7191 242.149C77.3278 243.244 77.0891 243.92 77.036 243.907C76.9896 243.894 77.1289 243.184 77.4538 242.063C77.7788 240.943 78.2828 239.417 78.8995 237.753C79.5163 236.088 80.1131 234.596 80.5773 233.528C81.0283 232.467 81.3466 231.817 81.3996 231.837Z" fill="#1F1F1F"/>
<path d="M82.9896 270.334C82.9896 270.334 82.1872 259.73 89.0774 255.227C89.3161 255.068 89.641 255.247 89.6278 255.532C89.5416 257.236 88.759 262.296 82.9896 270.334Z" fill="#4CBDE2"/>
<path d="M87.7124 258.384C87.7655 258.404 87.5135 259.08 87.0824 260.161C86.5851 261.368 86.0081 262.787 85.3648 264.359C84.7282 265.93 84.1513 267.35 83.6605 268.556C83.2295 269.631 82.9708 270.301 82.9178 270.287C82.8714 270.274 83.0372 269.571 83.4019 268.464C83.7666 267.356 84.3237 265.851 85.0001 264.206C85.6765 262.568 86.3264 261.096 86.8238 260.048C87.3212 258.994 87.666 258.357 87.7124 258.384Z" fill="#1F1F1F"/>
<path d="M70.9296 184.873C70.9296 184.873 61.5061 179.952 61.3204 171.723C61.3138 171.431 61.6321 171.252 61.8708 171.417C63.2701 172.386 67.1496 175.721 70.9296 184.873Z" fill="#4CBDE2"/>
<path d="M63.2775 174.548C63.3239 174.515 63.7616 175.085 64.4512 176.02C65.2139 177.081 66.1158 178.321 67.1105 179.694C68.1052 181.067 69.0071 182.3 69.7764 183.361C70.4661 184.296 70.8971 184.866 70.8507 184.906C70.8109 184.939 70.3069 184.429 69.5576 183.534C68.8082 182.638 67.8267 181.372 66.7922 179.926C65.7577 178.487 64.8558 177.154 64.2258 176.179C63.5891 175.204 63.231 174.581 63.2775 174.548Z" fill="#1F1F1F"/>
<path d="M81.0495 206.664C81.0495 206.664 71.3409 202.32 70.6578 194.124C70.6313 193.838 70.943 193.64 71.1884 193.785C72.6473 194.667 76.7257 197.764 81.0495 206.664Z" fill="#4CBDE2"/>
<path d="M72.7849 196.83C72.8313 196.796 73.3022 197.34 74.0449 198.229C74.8739 199.237 75.8487 200.424 76.923 201.737C78.004 203.043 78.9788 204.224 79.8077 205.232C80.5505 206.12 81.0147 206.671 80.9749 206.711C80.9351 206.744 80.398 206.266 79.6022 205.417C78.7997 204.569 77.7453 203.362 76.618 201.989C75.4972 200.616 74.5158 199.343 73.8261 198.401C73.1364 197.466 72.7385 196.863 72.7849 196.83Z" fill="#1F1F1F"/>
<path d="M75.4643 230.982C75.4643 230.982 68.7995 222.699 71.923 215.086C72.0357 214.821 72.3939 214.781 72.5464 215.027C73.4483 216.472 75.6699 221.081 75.4643 230.982Z" fill="#4CBDE2"/>
<path d="M72.5865 218.456C72.6396 218.449 72.8186 219.145 73.0706 220.279C73.3491 221.559 73.6741 223.051 74.0322 224.709C74.3969 226.36 74.7285 227.859 75.007 229.132C75.2657 230.26 75.4248 230.963 75.3718 230.983C75.3253 230.996 75.0601 230.326 74.7351 229.205C74.4102 228.085 74.0189 226.526 73.6409 224.795C73.2696 223.058 72.9778 221.48 72.7921 220.332C72.613 219.178 72.5335 218.462 72.5865 218.456Z" fill="#1F1F1F"/>
<path d="M82.071 259.591C82.071 259.591 72.4353 255.088 71.8915 246.878C71.8716 246.593 72.1833 246.394 72.4287 246.553C73.8677 247.455 77.8931 250.618 82.071 259.591Z" fill="#4CBDE2"/>
<path d="M73.9677 249.61C74.0141 249.577 74.4783 250.128 75.2078 251.029C76.0168 252.051 76.9718 253.258 78.0262 254.584C79.0806 255.91 80.0356 257.104 80.8512 258.125C81.5807 259.027 82.0317 259.584 81.9919 259.624C81.9521 259.657 81.4216 259.166 80.639 258.311C79.8565 257.449 78.8153 256.222 77.7145 254.829C76.6137 253.437 75.6587 252.15 74.9889 251.195C74.3125 250.254 73.9279 249.643 73.9677 249.61Z" fill="#1F1F1F"/>
<path d="M101.258 217.778C101.264 217.778 101.271 217.858 101.271 218.01C101.264 218.196 101.258 218.422 101.251 218.693C101.225 219.33 101.185 220.192 101.138 221.273C101.012 223.541 100.84 226.698 100.634 230.478V230.484V230.498C99.9448 234.344 97.9884 238.608 95.3557 242.753C93.4259 245.803 91.4033 248.575 89.6525 251.155C87.8952 253.728 86.4097 256.109 85.3818 258.218C84.3407 260.327 83.7372 262.137 83.3857 263.404C83.2133 264.04 83.0873 264.531 83.0143 264.876C82.9348 265.214 82.8883 265.393 82.8751 265.386C82.8618 265.386 82.8817 265.201 82.9348 264.856C82.9812 264.511 83.0873 264.007 83.2332 263.364C83.5449 262.077 84.1152 260.24 85.1298 258.098C86.1378 255.956 87.61 253.542 89.3541 250.949C91.085 248.35 93.101 245.578 95.0241 242.541C97.6436 238.422 99.5933 234.218 100.303 230.431V230.451C100.568 226.671 100.787 223.515 100.946 221.253C101.032 220.179 101.105 219.317 101.152 218.68C101.178 218.408 101.198 218.189 101.218 218.004C101.231 217.858 101.251 217.778 101.258 217.778Z" fill="#1F1F1F"/>
<path d="M95.519 241.964C95.519 241.964 99.5975 232.143 94.4646 225.71C94.2856 225.484 93.9275 225.551 93.8479 225.829C93.3969 227.474 92.5547 232.521 95.519 241.964Z" fill="#4CBDE2"/>
<path d="M94.7782 229.138C94.8313 229.132 94.9573 229.841 95.1032 230.995C95.2491 232.149 95.4082 233.747 95.5342 235.518C95.6602 237.288 95.7199 238.893 95.7199 240.06C95.7199 241.228 95.6602 241.944 95.6072 241.944C95.5475 241.944 95.5077 241.228 95.4414 240.067C95.3552 238.767 95.2491 237.235 95.1363 235.544C95.017 233.853 94.9109 232.321 94.818 231.022C94.7517 229.861 94.7252 229.138 94.7782 229.138Z" fill="#1F1F1F"/>
<g opacity="0.3">
<g opacity="0.3">
<path opacity="0.3" d="M95.519 241.964C95.519 241.964 99.5975 232.143 94.4646 225.71C94.2856 225.484 93.9275 225.551 93.8479 225.829C93.3969 227.474 92.5547 232.521 95.519 241.964Z" fill="#1F1F1F"/>
</g>
</g>
<path d="M82.8866 265.626C82.8866 265.626 86.156 255.506 80.5191 249.511C80.3202 249.299 79.9687 249.398 79.9157 249.677C79.5907 251.354 79.1663 256.454 82.8866 265.626Z" fill="#4CBDE2"/>
<path d="M81.1016 252.9C81.1546 252.886 81.3403 253.589 81.5724 254.723C81.8112 255.864 82.103 257.442 82.3682 259.193C82.6401 260.944 82.8258 262.542 82.9253 263.702C83.0181 264.863 83.0181 265.586 82.9651 265.592C82.9054 265.599 82.8125 264.883 82.6467 263.736C82.4544 262.442 82.229 260.93 81.977 259.253C81.725 257.575 81.4929 256.063 81.2939 254.77C81.1347 253.629 81.0485 252.913 81.1016 252.9Z" fill="#1F1F1F"/>
<g opacity="0.3">
<g opacity="0.3">
<path opacity="0.3" d="M82.8866 265.626C82.8866 265.626 86.156 255.506 80.5191 249.511C80.3202 249.299 79.9687 249.398 79.9157 249.677C79.5907 251.354 79.1663 256.454 82.8866 265.626Z" fill="#1F1F1F"/>
</g>
</g>
<path d="M100.711 229.967C100.711 229.967 109.425 223.866 108.543 215.69C108.51 215.404 108.171 215.265 107.959 215.458C106.699 216.598 103.277 220.405 100.711 229.967Z" fill="#4CBDE2"/>
<g opacity="0.3">
<g opacity="0.3">
<path opacity="0.3" d="M100.711 229.967C100.711 229.967 109.425 223.866 108.543 215.69C108.51 215.404 108.171 215.265 107.959 215.458C106.699 216.598 103.277 220.405 100.711 229.967Z" fill="#1F1F1F"/>
</g>
</g>
<path d="M106.971 218.74C107.017 218.767 106.746 219.43 106.248 220.484C105.751 221.532 105.028 222.971 104.186 224.529C103.344 226.094 102.535 227.48 101.905 228.462C101.275 229.443 100.843 230.02 100.797 229.987C100.751 229.954 101.102 229.331 101.659 228.316C102.283 227.169 103.019 225.823 103.828 224.337C104.637 222.845 105.366 221.499 105.99 220.352C106.56 219.337 106.918 218.714 106.971 218.74Z" fill="#1F1F1F"/>
<path d="M86.3945 255.599C86.3945 255.599 96.899 253.961 99.7174 246.228C99.8169 245.956 99.5715 245.684 99.293 245.764C97.655 246.228 92.9067 248.145 86.3945 255.599Z" fill="#4CBDE2"/>
<g opacity="0.3">
<g opacity="0.3">
<path opacity="0.3" d="M86.3945 255.599C86.3945 255.599 96.899 253.961 99.7174 246.228C99.8169 245.956 99.5715 245.684 99.293 245.764C97.655 246.228 92.9067 248.145 86.3945 255.599Z" fill="#1F1F1F"/>
</g>
</g>
<path d="M96.9596 248.278C96.9928 248.324 96.4556 248.795 95.5404 249.524C94.6319 250.247 93.352 251.222 91.9063 252.25C90.4606 253.284 89.1211 254.173 88.1263 254.777C87.1316 255.38 86.4883 255.705 86.4618 255.659C86.4353 255.606 87.0255 255.201 87.9738 254.538C89.0415 253.782 90.2949 252.9 91.6742 251.925C93.0536 250.943 94.307 250.055 95.368 249.299C96.323 248.629 96.9264 248.231 96.9596 248.278Z" fill="#1F1F1F"/>
<path d="M76.3724 274.937L73.3086 295.561H92.4075L89.9273 274.937H76.3724Z" fill="#1B3A59"/>
<path d="M90.6993 281.322C90.6993 281.435 87.2509 281.521 83 281.521C78.7426 281.521 75.3008 281.435 75.3008 281.322C75.3008 281.21 78.7492 281.124 83 281.124C87.2509 281.124 90.6993 281.216 90.6993 281.322Z" fill="#1F1F1F"/>
<path d="M91.0783 282.967C91.0783 283.08 87.5171 283.166 83.127 283.166C78.7303 283.166 75.1758 283.08 75.1758 282.967C75.1758 282.854 78.7369 282.768 83.127 282.768C87.5171 282.768 91.0783 282.854 91.0783 282.967Z" fill="#1F1F1F"/>
</svg>
