<svg width="50" height="50" viewBox="0 0 50 50" fill="none" xmlns="http://www.w3.org/2000/svg">
<rect x="8.3335" y="8.33203" width="14.5833" height="14.5833" rx="1.5" fill="white"/>
<path opacity="0.3" fill-rule="evenodd" clip-rule="evenodd" d="M27.0835 9.83203C27.0835 9.0036 27.7551 8.33203 28.5835 8.33203H40.1668C40.9953 8.33203 41.6668 9.0036 41.6668 9.83203V21.4154C41.6668 22.2438 40.9953 22.9154 40.1668 22.9154H28.5835C27.7551 22.9154 27.0835 22.2438 27.0835 21.4154V9.83203ZM8.3335 28.582C8.3335 27.7536 9.00507 27.082 9.8335 27.082H21.4168C22.2453 27.082 22.9168 27.7536 22.9168 28.582V40.1654C22.9168 40.9938 22.2453 41.6654 21.4168 41.6654H9.83349C9.00507 41.6654 8.3335 40.9938 8.3335 40.1654V28.582ZM28.5835 27.082C27.7551 27.082 27.0835 27.7536 27.0835 28.582V40.1654C27.0835 40.9938 27.7551 41.6654 28.5835 41.6654H40.1668C40.9953 41.6654 41.6668 40.9938 41.6668 40.1654V28.582C41.6668 27.7536 40.9953 27.082 40.1668 27.082H28.5835Z" fill="white"/>
</svg>
