<svg width="33" height="32" viewBox="0 0 33 32" fill="none" xmlns="http://www.w3.org/2000/svg">
<path fill-rule="evenodd" clip-rule="evenodd" d="M18.5806 24.9444C21.5485 23.7587 25.2438 22.9995 29.6666 22.6667C29.6666 22.5768 29.6666 17.4684 29.6666 7.34181H29.6666C29.6666 6.97363 29.3681 6.67517 29 6.67517C28.9944 6.67517 28.9887 6.67524 28.9831 6.67538C25.211 6.77088 21.4388 7.65689 17.6666 9.3334C17.6666 9.39273 17.6666 14.39 17.6666 24.3253H17.6666C17.6666 24.6935 17.9651 24.9919 18.3333 24.9919C18.418 24.9919 18.502 24.9758 18.5806 24.9444Z" fill="white"/>
<path opacity="0.3" fill-rule="evenodd" clip-rule="evenodd" d="M14.0859 24.9444C11.1181 23.7587 7.42276 22.9995 2.99994 22.6667C2.99994 22.5768 2.99994 17.4684 2.99994 7.34181H2.99997C2.99997 6.97363 3.29843 6.67517 3.66661 6.67517C3.67223 6.67517 3.67785 6.67524 3.68348 6.67538C7.45563 6.77088 11.2278 7.65689 14.9999 9.3334C14.9999 9.39273 14.9999 14.39 14.9999 24.3253H15C15 24.6935 14.7015 24.9919 14.3333 24.9919C14.2486 24.9919 14.1646 24.9758 14.0859 24.9444Z" fill="white"/>
</svg>
