<svg width="37" height="36" viewBox="0 0 37 36" fill="none" xmlns="http://www.w3.org/2000/svg">
<path fill-rule="evenodd" clip-rule="evenodd" d="M20.9706 28.1058C24.2333 26.8023 28.2957 25.9677 33.1579 25.6019C33.1579 25.503 33.1579 19.8872 33.1579 8.75459H33.1579C33.1579 8.34984 32.8298 8.02173 32.425 8.02173C32.4188 8.02173 32.4126 8.02181 32.4065 8.02196C28.2596 8.12695 24.1127 9.10097 19.9658 10.944C19.9658 11.0092 19.9658 16.503 19.9658 27.4251H19.9658C19.9658 27.8299 20.294 28.1581 20.6987 28.1581C20.7919 28.1581 20.8842 28.1403 20.9706 28.1058Z" fill="#EE9D01"/>
<path opacity="0.3" fill-rule="evenodd" clip-rule="evenodd" d="M16.0293 28.1058C12.7666 26.8023 8.70422 25.9677 3.84204 25.6019C3.84204 25.503 3.84204 19.8872 3.84204 8.75459H3.84208C3.84208 8.34984 4.17019 8.02173 4.57493 8.02173C4.58112 8.02173 4.5873 8.02181 4.59348 8.02196C8.74036 8.12695 12.8872 9.10097 17.0341 10.944C17.0341 11.0092 17.0341 16.503 17.0341 27.4251H17.0341C17.0341 27.8299 16.706 28.1581 16.3012 28.1581C16.2081 28.1581 16.1158 28.1403 16.0293 28.1058Z" fill="#FFA800"/>
</svg>
