<svg width="96" height="95" viewBox="0 0 96 95" fill="none" xmlns="http://www.w3.org/2000/svg">
<path fill-rule="evenodd" clip-rule="evenodd" d="M34.0033 7.5V9.58333C34.0033 13.0351 36.8016 15.8333 40.2533 15.8333H61.0867C64.5385 15.8333 67.3367 13.0351 67.3367 9.58333V7.5H75.67C80.2724 7.5 84.0033 11.231 84.0033 15.8333V82.5C84.0033 87.1024 80.2724 90.8333 75.67 90.8333H25.67C21.0676 90.8333 17.3367 87.1024 17.3367 82.5V15.8333C17.3367 11.231 21.0676 7.5 25.67 7.5H34.0033Z" fill="#E69700"/>
<path fill-rule="evenodd" clip-rule="evenodd" d="M46.5033 3.33329C46.5033 1.03211 48.3688 -0.833374 50.67 -0.833374C52.9712 -0.833374 54.8367 1.03211 54.8367 3.33329H61.0867C62.2373 3.33329 63.17 4.26603 63.17 5.41663V9.58329C63.17 10.7339 62.2373 11.6666 61.0867 11.6666H40.2533C39.1028 11.6666 38.17 10.7339 38.17 9.58329V5.41663C38.17 4.26603 39.1028 3.33329 40.2533 3.33329H46.5033Z" fill="#E69700"/>
<path d="M67.3367 32.5H46.5033C44.2022 32.5 42.3367 34.3655 42.3367 36.6667C42.3367 38.9679 44.2022 40.8333 46.5033 40.8333H67.3367C69.6379 40.8333 71.5033 38.9679 71.5033 36.6667C71.5033 34.3655 69.6379 32.5 67.3367 32.5Z" fill="#FFA800"/>
<path d="M38.17 36.6667C38.17 34.3655 36.3045 32.5 34.0033 32.5C31.7022 32.5 29.8367 34.3655 29.8367 36.6667C29.8367 38.9679 31.7022 40.8333 34.0033 40.8333C36.3045 40.8333 38.17 38.9679 38.17 36.6667Z" fill="#FFA800"/>
<path d="M38.17 53.3333C38.17 51.0321 36.3045 49.1666 34.0033 49.1666C31.7022 49.1666 29.8367 51.0321 29.8367 53.3333C29.8367 55.6345 31.7022 57.5 34.0033 57.5C36.3045 57.5 38.17 55.6345 38.17 53.3333Z" fill="#FFA800"/>
<path d="M67.3367 49.1666H46.5033C44.2022 49.1666 42.3367 51.0321 42.3367 53.3333C42.3367 55.6345 44.2022 57.5 46.5033 57.5H67.3367C69.6379 57.5 71.5033 55.6345 71.5033 53.3333C71.5033 51.0321 69.6379 49.1666 67.3367 49.1666Z" fill="#FFA800"/>
<path d="M38.17 70C38.17 67.6989 36.3045 65.8334 34.0033 65.8334C31.7022 65.8334 29.8367 67.6989 29.8367 70C29.8367 72.3012 31.7022 74.1667 34.0033 74.1667C36.3045 74.1667 38.17 72.3012 38.17 70Z" fill="#FFA800"/>
<path d="M67.3367 65.8334H46.5033C44.2022 65.8334 42.3367 67.6989 42.3367 70C42.3367 72.3012 44.2022 74.1667 46.5033 74.1667H67.3367C69.6379 74.1667 71.5033 72.3012 71.5033 70C71.5033 67.6989 69.6379 65.8334 67.3367 65.8334Z" fill="#FFA800"/>
</svg>
