<svg width="96" height="95" viewBox="0 0 96 95" fill="none" xmlns="http://www.w3.org/2000/svg">
<path fill-rule="evenodd" clip-rule="evenodd" d="M34 7.5V9.58333C34 13.0351 36.7982 15.8333 40.25 15.8333H61.0834C64.5351 15.8333 67.3334 13.0351 67.3334 9.58333V7.5H75.6667C80.2691 7.5 84 11.231 84 15.8333V82.5C84 87.1024 80.2691 90.8333 75.6667 90.8333H25.6667C21.0643 90.8333 17.3334 87.1024 17.3334 82.5V15.8333C17.3334 11.231 21.0643 7.5 25.6667 7.5H34Z" fill="#D6293B"/>
<path fill-rule="evenodd" clip-rule="evenodd" d="M50.5647 46.0055L57.3499 39.2204C58.977 37.5932 61.6152 37.5932 63.2424 39.2204C64.8696 40.8476 64.8696 43.4858 63.2424 45.1129L56.4573 51.8981L63.2424 58.6832C64.8696 60.3104 64.8696 62.9485 63.2424 64.5757C61.6152 66.2029 58.977 66.2029 57.3499 64.5757L50.5647 57.7906L43.7796 64.5757C42.1524 66.2029 39.5143 66.2029 37.8871 64.5757C36.2599 62.9485 36.2599 60.3104 37.8871 58.6832L44.6722 51.8981L37.8871 45.1129C36.2599 43.4858 36.2599 40.8476 37.8871 39.2204C39.5143 37.5932 42.1524 37.5932 43.7796 39.2204L50.5647 46.0055Z" fill="#EE2D41"/>
<path fill-rule="evenodd" clip-rule="evenodd" d="M46.5 3.33329C46.5 1.03211 48.3655 -0.833374 50.6667 -0.833374C52.9679 -0.833374 54.8334 1.03211 54.8334 3.33329H61.0834C62.2339 3.33329 63.1667 4.26603 63.1667 5.41663V9.58329C63.1667 10.7339 62.2339 11.6666 61.0834 11.6666H40.25C39.0994 11.6666 38.1667 10.7339 38.1667 9.58329V5.41663C38.1667 4.26603 39.0994 3.33329 40.25 3.33329H46.5Z" fill="#D6293B"/>
</svg>
