<svg width="92" height="95" viewBox="0 0 92 95" fill="none" xmlns="http://www.w3.org/2000/svg">
<path fill-rule="evenodd" clip-rule="evenodd" d="M33.3334 7.50003V9.58336C33.3334 13.0351 36.1316 15.8334 39.5834 15.8334H60.4167C63.8685 15.8334 66.6667 13.0351 66.6667 9.58336V7.50003H75C79.6024 7.50003 83.3333 11.231 83.3333 15.8334V82.5C83.3333 87.1024 79.6024 90.8334 75 90.8334H25C20.3976 90.8334 16.6667 87.1024 16.6667 82.5V15.8334C16.6667 11.231 20.3976 7.50003 25 7.50003H33.3334Z" fill="#1A3266"/>
<path fill-rule="evenodd" clip-rule="evenodd" d="M45.8333 3.33335C45.8333 1.03217 47.6988 -0.833313 50 -0.833313C52.3012 -0.833313 54.1667 1.03217 54.1667 3.33335H60.4167C61.5673 3.33335 62.5 4.26609 62.5 5.41669V9.58335C62.5 10.7339 61.5673 11.6667 60.4167 11.6667H39.5833C38.4327 11.6667 37.5 10.7339 37.5 9.58335V5.41669C37.5 4.26609 38.4327 3.33335 39.5833 3.33335H45.8333Z" fill="#1A3266"/>
<path d="M66.6667 32.5H45.8334C43.5322 32.5 41.6667 34.3655 41.6667 36.6667C41.6667 38.9679 43.5322 40.8334 45.8334 40.8334H66.6667C68.9679 40.8334 70.8334 38.9679 70.8334 36.6667C70.8334 34.3655 68.9679 32.5 66.6667 32.5Z" fill="#203E80"/>
<path d="M37.5 36.6667C37.5 34.3655 35.6345 32.5 33.3334 32.5C31.0322 32.5 29.1667 34.3655 29.1667 36.6667C29.1667 38.9679 31.0322 40.8334 33.3334 40.8334C35.6345 40.8334 37.5 38.9679 37.5 36.6667Z" fill="#203E80"/>
<path d="M37.5 53.3334C37.5 51.0322 35.6345 49.1667 33.3334 49.1667C31.0322 49.1667 29.1667 51.0322 29.1667 53.3334C29.1667 55.6346 31.0322 57.5 33.3334 57.5C35.6345 57.5 37.5 55.6346 37.5 53.3334Z" fill="#203E80"/>
<path d="M66.6667 49.1667H45.8334C43.5322 49.1667 41.6667 51.0322 41.6667 53.3334C41.6667 55.6346 43.5322 57.5 45.8334 57.5H66.6667C68.9679 57.5 70.8334 55.6346 70.8334 53.3334C70.8334 51.0322 68.9679 49.1667 66.6667 49.1667Z" fill="#203E80"/>
<path d="M37.5 70C37.5 67.6988 35.6345 65.8334 33.3334 65.8334C31.0322 65.8334 29.1667 67.6988 29.1667 70C29.1667 72.3012 31.0322 74.1667 33.3334 74.1667C35.6345 74.1667 37.5 72.3012 37.5 70Z" fill="#203E80"/>
<path d="M66.6667 65.8334H45.8334C43.5322 65.8334 41.6667 67.6988 41.6667 70C41.6667 72.3012 43.5322 74.1667 45.8334 74.1667H66.6667C68.9679 74.1667 70.8334 72.3012 70.8334 70C70.8334 67.6988 68.9679 65.8334 66.6667 65.8334Z" fill="#203E80"/>
</svg>
