<svg width="33" height="33" viewBox="0 0 33 33" fill="none" xmlns="http://www.w3.org/2000/svg">
<path opacity="0.3" fill-rule="evenodd" clip-rule="evenodd" d="M11.1667 4.09964V4.76631C11.1667 5.87088 12.0621 6.76631 13.1667 6.76631H19.8334C20.9379 6.76631 21.8334 5.87088 21.8334 4.76631V4.09964H24.5C25.9728 4.09964 27.1667 5.29355 27.1667 6.76631V28.0996C27.1667 29.5724 25.9728 30.7663 24.5 30.7663H8.50004C7.02728 30.7663 5.83337 29.5724 5.83337 28.0996V6.76631C5.83337 5.29355 7.02728 4.09964 8.50004 4.09964H11.1667Z" fill="white"/>
<path fill-rule="evenodd" clip-rule="evenodd" d="M15.1667 2.76632C15.1667 2.02994 15.7636 1.43298 16.5 1.43298C17.2364 1.43298 17.8333 2.02994 17.8333 2.76632H19.8333C20.2015 2.76632 20.5 3.06479 20.5 3.43298V4.76632C20.5 5.13451 20.2015 5.43298 19.8333 5.43298H13.1667C12.7985 5.43298 12.5 5.13451 12.5 4.76632V3.43298C12.5 3.06479 12.7985 2.76632 13.1667 2.76632H15.1667Z" fill="white"/>
<path opacity="0.3" d="M21.8334 12.0996H15.1667C14.4303 12.0996 13.8334 12.6966 13.8334 13.433C13.8334 14.1694 14.4303 14.7663 15.1667 14.7663H21.8334C22.5698 14.7663 23.1667 14.1694 23.1667 13.433C23.1667 12.6966 22.5698 12.0996 21.8334 12.0996Z" fill="white"/>
<path opacity="0.3" d="M12.5 13.433C12.5 12.6966 11.9031 12.0996 11.1667 12.0996C10.4303 12.0996 9.83337 12.6966 9.83337 13.433C9.83337 14.1694 10.4303 14.7663 11.1667 14.7663C11.9031 14.7663 12.5 14.1694 12.5 13.433Z" fill="white"/>
<path opacity="0.3" d="M12.5 18.7663C12.5 18.0299 11.9031 17.433 11.1667 17.433C10.4303 17.433 9.83337 18.0299 9.83337 18.7663C9.83337 19.5027 10.4303 20.0996 11.1667 20.0996C11.9031 20.0996 12.5 19.5027 12.5 18.7663Z" fill="white"/>
<path opacity="0.3" d="M21.8334 17.433H15.1667C14.4303 17.433 13.8334 18.0299 13.8334 18.7663C13.8334 19.5027 14.4303 20.0996 15.1667 20.0996H21.8334C22.5698 20.0996 23.1667 19.5027 23.1667 18.7663C23.1667 18.0299 22.5698 17.433 21.8334 17.433Z" fill="white"/>
<path opacity="0.3" d="M12.5 24.0996C12.5 23.3633 11.9031 22.7663 11.1667 22.7663C10.4303 22.7663 9.83337 23.3633 9.83337 24.0996C9.83337 24.836 10.4303 25.433 11.1667 25.433C11.9031 25.433 12.5 24.836 12.5 24.0996Z" fill="white"/>
<path opacity="0.3" d="M21.8334 22.7663H15.1667C14.4303 22.7663 13.8334 23.3633 13.8334 24.0996C13.8334 24.836 14.4303 25.433 15.1667 25.433H21.8334C22.5698 25.433 23.1667 24.836 23.1667 24.0996C23.1667 23.3633 22.5698 22.7663 21.8334 22.7663Z" fill="white"/>
</svg>
