<svg width="96" height="95" viewBox="0 0 96 95" fill="none" xmlns="http://www.w3.org/2000/svg">
<path fill-rule="evenodd" clip-rule="evenodd" d="M34.0033 7.5V9.58333C34.0033 13.0351 36.8016 15.8333 40.2533 15.8333H61.0867C64.5384 15.8333 67.3367 13.0351 67.3367 9.58333V7.5H75.67C80.2724 7.5 84.0033 11.231 84.0033 15.8333V82.5C84.0033 87.1024 80.2724 90.8333 75.67 90.8333H25.67C21.0676 90.8333 17.3367 87.1024 17.3367 82.5V15.8333C17.3367 11.231 21.0676 7.5 25.67 7.5H34.0033Z" fill="#04996B"/>
<path fill-rule="evenodd" clip-rule="evenodd" d="M45.9825 60.625C44.9843 60.625 43.986 60.2257 43.1874 59.427L35.2013 51.4409C33.6041 49.8437 33.6041 47.4479 35.2013 45.8507C36.7985 44.2534 39.394 44.2534 40.7915 45.8507L45.9825 51.0416L59.1596 37.8645C60.7568 36.2673 63.1527 36.2673 64.7499 37.8645C66.3471 39.4618 66.3471 41.8576 64.7499 43.4548L48.7777 59.427C47.979 60.2257 46.9808 60.625 45.9825 60.625Z" fill="#04AA77"/>
<path fill-rule="evenodd" clip-rule="evenodd" d="M46.5033 3.33329C46.5033 1.03211 48.3688 -0.833374 50.67 -0.833374C52.9712 -0.833374 54.8367 1.03211 54.8367 3.33329H61.0867C62.2373 3.33329 63.17 4.26603 63.17 5.41663V9.58329C63.17 10.7339 62.2373 11.6666 61.0867 11.6666H40.2533C39.1028 11.6666 38.17 10.7339 38.17 9.58329V5.41663C38.17 4.26603 39.1028 3.33329 40.2533 3.33329H46.5033Z" fill="#04996B"/>
</svg>
