<svg width="70" height="70" viewBox="0 0 70 70" fill="none" xmlns="http://www.w3.org/2000/svg">
<path d="M37.9167 32.0833V17.4999H32.0833V37.9166H49.5833V32.0833H37.9167ZM53.5617 50.6449L35 69.2066L16.4383 50.6449C12.7672 46.9738 10.2672 42.2965 9.25437 37.2045C8.24154 32.1125 8.76139 26.8345 10.7482 22.038C12.735 17.2414 16.0995 13.1418 20.4163 10.2574C24.7331 7.37302 29.8083 5.8335 35 5.8335C40.1918 5.8335 45.2669 7.37302 49.5837 10.2574C53.9005 13.1418 57.265 17.2414 59.2518 22.038C61.2386 26.8345 61.7585 32.1125 60.7456 37.2045C59.7328 42.2965 57.2328 46.9738 53.5617 50.6449Z" fill="#ADB5BD"/>
</svg>
