<svg width="11" height="25" viewBox="0 0 11 25" fill="none" xmlns="http://www.w3.org/2000/svg">
<path fill-rule="evenodd" clip-rule="evenodd" d="M1.1665 0.875C0.614219 0.875 0.166504 1.32272 0.166504 1.875V23.125C0.166504 23.6773 0.614219 24.125 1.1665 24.125H3.0415C3.59379 24.125 4.0415 23.6773 4.0415 23.125V1.875C4.0415 1.32272 3.59379 0.875 3.0415 0.875H1.1665ZM7.62484 0.875C7.07255 0.875 6.62484 1.32272 6.62484 1.875V23.125C6.62484 23.6773 7.07255 24.125 7.62484 24.125H9.49984C10.0521 24.125 10.4998 23.6773 10.4998 23.125V1.875C10.4998 1.32272 10.0521 0.875 9.49984 0.875H7.62484Z" fill="white"/>
</svg>
