<svg width="24" height="24" viewBox="0 0 24 24" fill="none" xmlns="http://www.w3.org/2000/svg">
<path fill-rule="evenodd" clip-rule="evenodd" d="M3.5 21H20.5C21.3284 21 22 20.3284 22 19.5V8.5C22 7.67157 21.3284 7 20.5 7H10L7.43934 4.43934C7.15804 4.15804 6.7765 4 6.37868 4H3.5C2.67157 4 2 4.67157 2 5.5V19.5C2 20.3284 2.67157 21 3.5 21Z" fill="white"/>
<path d="M8.45397 12.4349L7.29229 13.5966C6.9994 13.8895 6.9994 14.3644 7.29229 14.6573L8.45397 15.819C8.74686 16.1119 9.22174 16.1119 9.51463 15.819L10.6763 14.6573C10.9692 14.3644 10.9692 13.8895 10.6763 13.5966L9.51463 12.4349C9.22174 12.1421 8.74686 12.1421 8.45397 12.4349Z" fill="#215480"/>
<path d="M14.7396 12.4349L13.5779 13.5966C13.285 13.8895 13.285 14.3644 13.5779 14.6573L14.7396 15.819C15.0325 16.1119 15.5074 16.1119 15.8003 15.819L16.9619 14.6573C17.2548 14.3644 17.2548 13.8895 16.9619 13.5966L15.8003 12.4349C15.5074 12.1421 15.0325 12.1421 14.7396 12.4349Z" fill="#215480"/>
<path d="M11.5968 15.578L10.4351 16.7397C10.1422 17.0326 10.1422 17.5075 10.4351 17.8003L11.5968 18.962C11.8897 19.2549 12.3646 19.2549 12.6575 18.962L13.8191 17.8003C14.112 17.5075 14.112 17.0326 13.8191 16.7397L12.6575 15.578C12.3646 15.2851 11.8897 15.2851 11.5968 15.578Z" fill="#215480"/>
<path d="M11.5968 9.29237L10.4351 10.454C10.1422 10.7469 10.1422 11.2218 10.4351 11.5147L11.5968 12.6764C11.8897 12.9693 12.3646 12.9693 12.6575 12.6764L13.8191 11.5147C14.112 11.2218 14.112 10.7469 13.8191 10.454L12.6575 9.29237C12.3646 8.99948 11.8897 8.99948 11.5968 9.29237Z" fill="#215480"/>
</svg>
