<svg width="16" height="16" viewBox="0 0 16 16" fill="none" xmlns="http://www.w3.org/2000/svg">
<path d="M3.90472 1.33325H9.15757C9.39402 1.33325 9.62283 1.41704 9.80337 1.56975L12.9791 4.25588C13.2037 4.44588 13.3333 4.72517 13.3333 5.01939V13.3888C13.3333 14.5825 13.3197 14.6666 12.0952 14.6666H3.90472C2.68026 14.6666 2.66663 14.5825 2.66663 13.3888V2.61103C2.66663 1.41734 2.68026 1.33325 3.90472 1.33325Z" fill="white"/>
<path fill-rule="evenodd" clip-rule="evenodd" d="M7.05714 8.66657L6.11433 7.72377C5.85398 7.46342 5.85398 7.04131 6.11433 6.78096C6.37468 6.52061 6.79679 6.52061 7.05714 6.78096L7.99995 7.72377L8.94276 6.78096C9.20311 6.52061 9.62522 6.52061 9.88557 6.78096C10.1459 7.04131 10.1459 7.46342 9.88557 7.72377L8.94276 8.66657L9.88557 9.60938C10.1459 9.86973 10.1459 10.2918 9.88557 10.5522C9.62522 10.8125 9.20311 10.8125 8.94276 10.5522L7.99995 9.60938L7.05714 10.5522C6.79679 10.8125 6.37468 10.8125 6.11433 10.5522C5.85398 10.2918 5.85398 9.86973 6.11433 9.60938L7.05714 8.66657Z" fill="#4299E1"/>
</svg>
