<svg width="23" height="24" viewBox="0 0 23 24" fill="none" xmlns="http://www.w3.org/2000/svg">
<path opacity="0.3" d="M5.89733 5.63538H13.0742C13.4289 5.63538 13.7721 5.76106 14.0429 5.99012L18.3303 9.61654C18.6673 9.90155 18.8616 10.3205 18.8616 10.7618V22.2118C18.8616 23.8531 18.8429 23.9687 17.1592 23.9687H5.89733C4.21369 23.9687 4.19495 23.8531 4.19495 22.2118V7.39232C4.19495 5.75099 4.21369 5.63538 5.89733 5.63538Z" fill="#0BB783"/>
<path fill-rule="evenodd" clip-rule="evenodd" d="M10.6118 16.6353L8.77842 16.6353C8.27216 16.6353 7.86175 16.2249 7.86175 15.7186C7.86175 15.2124 8.27216 14.802 8.77842 14.802L10.6118 14.802L10.6118 12.9686C10.6118 12.4624 11.0222 12.052 11.5284 12.052C12.0347 12.052 12.4451 12.4624 12.4451 12.9686L12.4451 14.802L14.2784 14.802C14.7847 14.802 15.1951 15.2124 15.1951 15.7186C15.1951 16.2249 14.7847 16.6353 14.2784 16.6353L12.4451 16.6353L12.4451 18.4686C12.4451 18.9749 12.0347 19.3853 11.5284 19.3853C11.0222 19.3853 10.6118 18.9749 10.6118 18.4686L10.6118 16.6353Z" fill="#0BB783"/>
</svg>
