<svg width="23" height="25" viewBox="0 0 23 25" fill="none" xmlns="http://www.w3.org/2000/svg">
<path opacity="0.3" fill-rule="evenodd" clip-rule="evenodd" d="M8.22013 6.552H6.55347C5.4489 6.552 4.55347 7.44743 4.55347 8.552V22.8853C4.55347 23.9899 5.4489 24.8853 6.55347 24.8853H17.2201C18.3247 24.8853 19.2201 23.9899 19.2201 22.8853V8.552C19.2201 7.44743 18.3247 6.552 17.2201 6.552H15.5535V7.01034C15.5535 7.76973 14.9379 8.38534 14.1785 8.38534H9.59513C8.83574 8.38534 8.22013 7.76973 8.22013 7.01034V6.552Z" fill="#6993FF"/>
<path fill-rule="evenodd" clip-rule="evenodd" d="M10.8559 18.2395C10.6363 18.2395 10.4166 18.1516 10.2409 17.9759L8.484 16.219C8.13261 15.8676 8.13261 15.3405 8.484 14.9891C8.83539 14.6377 9.4064 14.6377 9.71386 14.9891L10.8559 16.1311L13.7548 13.2322C14.1062 12.8808 14.6333 12.8808 14.9847 13.2322C15.3361 13.5836 15.3361 14.1106 14.9847 14.462L11.4708 17.9759C11.2951 18.1516 11.0755 18.2395 10.8559 18.2395Z" fill="#6993FF"/>
<path fill-rule="evenodd" clip-rule="evenodd" d="M10.9703 5.63529L9.63696 5.63529C9.36082 5.63529 9.13696 5.85915 9.13696 6.1353V6.96863C9.13696 7.24477 9.36082 7.46863 9.63696 7.46863H14.137C14.4131 7.46863 14.637 7.24477 14.637 6.96863V6.13529C14.637 5.85915 14.4131 5.63529 14.137 5.63529L12.8036 5.63529C12.8036 5.12903 12.3932 4.71863 11.887 4.71863C11.3807 4.71863 10.9703 5.12903 10.9703 5.63529Z" fill="#6993FF"/>
</svg>
