<svg width="19" height="19" viewBox="0 0 19 19" fill="none" xmlns="http://www.w3.org/2000/svg">
<path opacity="0.3" d="M4.63699 1.5835H10.7603C11.115 1.5835 11.4582 1.70918 11.729 1.93824L15.3021 4.96049C15.6391 5.2455 15.8334 5.66443 15.8334 6.10575V15.8995C15.8334 17.317 15.8172 17.4168 14.3632 17.4168H4.63699C3.18294 17.4168 3.16675 17.317 3.16675 15.8995V3.10086C3.16675 1.68334 3.18294 1.5835 4.63699 1.5835Z" fill="#187DE4"/>
<path fill-rule="evenodd" clip-rule="evenodd" d="M8.70841 11.0832L7.12508 11.0832C6.68785 11.0832 6.33341 10.7287 6.33341 10.2915C6.33341 9.85428 6.68785 9.49984 7.12508 9.49984L8.70841 9.49984L8.70841 7.9165C8.70841 7.47928 9.06285 7.12484 9.50008 7.12484C9.9373 7.12484 10.2917 7.47928 10.2917 7.9165L10.2917 9.49984H11.8751C12.3123 9.49984 12.6667 9.85428 12.6667 10.2915C12.6667 10.7287 12.3123 11.0832 11.8751 11.0832H10.2917L10.2917 12.6665C10.2917 13.1037 9.9373 13.4582 9.50008 13.4582C9.06285 13.4582 8.70841 13.1037 8.70841 12.6665L8.70841 11.0832Z" fill="#187DE4"/>
</svg>
