<svg width="32" height="32" viewBox="0 0 32 32" fill="none" xmlns="http://www.w3.org/2000/svg">
<path opacity="0.3" d="M16 29.3332C23.3638 29.3332 29.3333 23.3636 29.3333 15.9998C29.3333 8.63604 23.3638 2.6665 16 2.6665C8.63616 2.6665 2.66663 8.63604 2.66663 15.9998C2.66663 23.3636 8.63616 29.3332 16 29.3332Z" fill="white"/>
<path d="M22.3586 10.4236C22.8611 9.88525 23.7048 9.85615 24.2431 10.3586C24.7814 10.861 24.8105 11.7048 24.3081 12.2431L14.9748 22.2431C14.4873 22.7654 13.6748 22.8106 13.1323 22.3457L8.46564 18.3457C7.90653 17.8665 7.84179 17.0247 8.32102 16.4656C8.80024 15.9065 9.64198 15.8418 10.2011 16.321L13.8973 19.4892L22.3586 10.4236Z" fill="white"/>
</svg>
