<svg width="30" height="31" viewBox="0 0 30 31" fill="none" xmlns="http://www.w3.org/2000/svg">
<path opacity="0.3" d="M15 27.7104C21.9036 27.7104 27.5 22.114 27.5 15.2104C27.5 8.30689 21.9036 2.71045 15 2.71045C8.09644 2.71045 2.5 8.30689 2.5 15.2104C2.5 22.114 8.09644 27.7104 15 27.7104Z" fill="#0BB783"/>
<path d="M20.9612 9.98256C21.4322 9.47787 22.2232 9.45059 22.7279 9.92163C23.2326 10.3927 23.2599 11.1837 22.7888 11.6884L14.0388 21.0633C13.5818 21.553 12.8201 21.5954 12.3115 21.1595L7.93653 17.4095C7.41238 16.9602 7.35167 16.1711 7.80095 15.647C8.25023 15.1228 9.03935 15.0621 9.56351 15.5114L13.0288 18.4816L20.9612 9.98256Z" fill="#0BB783"/>
</svg>
