<svg width="33" height="32" viewBox="0 0 33 32" fill="none" xmlns="http://www.w3.org/2000/svg">
<path opacity="0.3" d="M16.3333 29.3332C23.6971 29.3332 29.6667 23.3636 29.6667 15.9998C29.6667 8.63604 23.6971 2.6665 16.3333 2.6665C8.96954 2.6665 3 8.63604 3 15.9998C3 23.3636 8.96954 29.3332 16.3333 29.3332Z" fill="white"/>
<path fill-rule="evenodd" clip-rule="evenodd" d="M16.3807 14.1618L20.1519 10.3905C20.6726 9.86983 21.5168 9.86983 22.0375 10.3905C22.5582 10.9112 22.5582 11.7554 22.0375 12.2761L18.2663 16.0474L22.0375 19.8186C22.5582 20.3393 22.5582 21.1835 22.0375 21.7042C21.5168 22.2249 20.6726 22.2249 20.1519 21.7042L16.3807 17.933L12.6095 21.7042C12.0888 22.2249 11.2445 22.2249 10.7238 21.7042C10.2031 21.1835 10.2031 20.3393 10.7238 19.8186L14.4951 16.0474L10.7238 12.2761C10.2031 11.7554 10.2031 10.9112 10.7238 10.3905C11.2445 9.86983 12.0888 9.86983 12.6095 10.3905L16.3807 14.1618Z" fill="white"/>
</svg>
