<svg width="16" height="17" viewBox="0 0 16 17" fill="none" xmlns="http://www.w3.org/2000/svg">
<path d="M0.787354 8.28906C1.41402 4.87573 4.40535 2.28906 8.00002 2.28906C11.5947 2.28906 14.5854 4.87573 15.2127 8.28906C14.586 11.7024 11.5947 14.2891 8.00002 14.2891C4.40535 14.2891 1.41469 11.7024 0.787354 8.28906ZM8.00002 11.6224C8.88408 11.6224 9.73192 11.2712 10.357 10.6461C10.9822 10.021 11.3334 9.17312 11.3334 8.28906C11.3334 7.40501 10.9822 6.55716 10.357 5.93204C9.73192 5.30692 8.88408 4.95573 8.00002 4.95573C7.11597 4.95573 6.26812 5.30692 5.643 5.93204C5.01788 6.55716 4.66669 7.40501 4.66669 8.28906C4.66669 9.17312 5.01788 10.021 5.643 10.6461C6.26812 11.2712 7.11597 11.6224 8.00002 11.6224ZM8.00002 10.2891C7.46959 10.2891 6.96088 10.0783 6.58581 9.70328C6.21073 9.3282 6.00002 8.8195 6.00002 8.28906C6.00002 7.75863 6.21073 7.24992 6.58581 6.87485C6.96088 6.49978 7.46959 6.28906 8.00002 6.28906C8.53045 6.28906 9.03916 6.49978 9.41423 6.87485C9.78931 7.24992 10 7.75863 10 8.28906C10 8.8195 9.78931 9.3282 9.41423 9.70328C9.03916 10.0783 8.53045 10.2891 8.00002 10.2891Z" fill="white"/>
</svg>
