<svg width="70" height="70" viewBox="0 0 70 70" fill="none" xmlns="http://www.w3.org/2000/svg">
<path d="M17.0833 5.83325H40.0645C41.099 5.83325 42.1 6.19983 42.8899 6.86791L56.7837 18.6198C57.7664 19.451 58.3333 20.6729 58.3333 21.9601V58.5763C58.3333 63.7987 58.2736 64.1666 52.9166 64.1666H17.0833C11.7263 64.1666 11.6666 63.7987 11.6666 58.5763V11.4235C11.6666 6.20112 11.7263 5.83325 17.0833 5.83325Z" fill="#ADB5BD"/>
<path d="M40.8333 32.0833H20.4167C18.8058 32.0833 17.5 33.3891 17.5 34.9999C17.5 36.6107 18.8058 37.9166 20.4167 37.9166H40.8333C42.4442 37.9166 43.75 36.6107 43.75 34.9999C43.75 33.3891 42.4442 32.0833 40.8333 32.0833Z" fill="white"/>
<path d="M29.1667 43.75H20.4167C18.8058 43.75 17.5 45.0558 17.5 46.6667C17.5 48.2775 18.8058 49.5833 20.4167 49.5833H29.1667C30.7775 49.5833 32.0833 48.2775 32.0833 46.6667C32.0833 45.0558 30.7775 43.75 29.1667 43.75Z" fill="white"/>
</svg>
