<svg width="70" height="70" viewBox="0 0 70 70" fill="none" xmlns="http://www.w3.org/2000/svg">
<path d="M46.6667 5.83325L61.25 20.4166V61.2733C61.2492 62.0409 60.9437 62.7768 60.4007 63.3193C59.8576 63.8619 59.1214 64.1666 58.3538 64.1666H11.6463C10.8803 64.1613 10.1471 63.8548 9.60522 63.3134C9.0633 62.7721 8.75611 62.0392 8.75 61.2733V8.72659C8.75 7.12825 10.0479 5.83325 11.6463 5.83325H46.6667ZM25.0688 37.3683L22.1754 39.0366L25.0921 44.0883L27.9854 42.417C29.1317 43.502 30.5317 44.3245 32.0833 44.7853V48.1249H37.9167V44.7853C39.4495 44.3282 40.8533 43.5169 42.0146 42.417L44.9079 44.0883L47.8246 39.0366L44.9313 37.3653C45.3006 35.81 45.3006 34.1898 44.9313 32.6345L47.8246 30.9633L44.9079 25.9116L42.0146 27.5828C40.8533 26.4829 39.4495 25.6716 37.9167 25.2145V21.8749H32.0833V25.2145C30.5505 25.6716 29.1467 26.4829 27.9854 27.5828L25.0921 25.9116L22.1754 30.9633L25.0688 32.6345C24.6989 34.1908 24.6989 35.812 25.0688 37.3683ZM35 39.3749C33.8397 39.3749 32.7269 38.914 31.9064 38.0935C31.0859 37.273 30.625 36.1602 30.625 34.9999C30.625 33.8396 31.0859 32.7268 31.9064 31.9063C32.7269 31.0859 33.8397 30.6249 35 30.6249C36.1603 30.6249 37.2731 31.0859 38.0936 31.9063C38.9141 32.7268 39.375 33.8396 39.375 34.9999C39.375 36.1602 38.9141 37.273 38.0936 38.0935C37.2731 38.914 36.1603 39.3749 35 39.3749Z" fill="#ADB5BD"/>
</svg>
