<svg width="25" height="24" viewBox="0 0 25 24" fill="none" xmlns="http://www.w3.org/2000/svg">
<path fill-rule="evenodd" clip-rule="evenodd" d="M4.33337 21H21.3334C22.1618 21 22.8334 20.3284 22.8334 19.5V8.5C22.8334 7.67157 22.1618 7 21.3334 7H10.8334L8.27271 4.43934C7.99141 4.15804 7.60988 4 7.21205 4H4.33337C3.50495 4 2.83337 4.67157 2.83337 5.5V19.5C2.83337 20.3284 3.50495 21 4.33337 21Z" fill="white"/>
<path fill-rule="evenodd" clip-rule="evenodd" d="M11.7084 16.75C11.4688 16.75 11.2292 16.6542 11.0375 16.4625L9.12087 14.5458C8.73754 14.1625 8.73754 13.5875 9.12087 13.2042C9.50421 12.8208 10.1271 12.8208 10.4625 13.2042L11.7084 14.45L14.8709 11.2875C15.2542 10.9042 15.8292 10.9042 16.2125 11.2875C16.5959 11.6708 16.5959 12.2458 16.2125 12.6292L12.3792 16.4625C12.1875 16.6542 11.948 16.75 11.7084 16.75Z" fill="#4CBDE2"/>
</svg>
