<svg width="25" height="24" viewBox="0 0 25 24" fill="none" xmlns="http://www.w3.org/2000/svg">
<path d="M22.6666 11.255C22.0558 10.8285 21.3806 10.5027 20.6666 10.29V7H12.2526L10.2526 5H4.66663V19H11.9566C12.1716 19.722 12.4996 20.396 12.9216 21H3.66663C3.40141 21 3.14706 20.8946 2.95952 20.7071C2.77198 20.5196 2.66663 20.2652 2.66663 20V4C2.66663 3.73478 2.77198 3.48043 2.95952 3.29289C3.14706 3.10536 3.40141 3 3.66663 3H11.0806L13.0806 5H21.6666C21.9318 5 22.1862 5.10536 22.3737 5.29289C22.5613 5.48043 22.6666 5.73478 22.6666 6V11.255ZM18.6666 22C17.3405 22 16.0688 21.4732 15.1311 20.5355C14.1934 19.5979 13.6666 18.3261 13.6666 17C13.6666 15.6739 14.1934 14.4021 15.1311 13.4645C16.0688 12.5268 17.3405 12 18.6666 12C19.9927 12 21.2645 12.5268 22.2022 13.4645C23.1398 14.4021 23.6666 15.6739 23.6666 17C23.6666 18.3261 23.1398 19.5979 22.2022 20.5355C21.2645 21.4732 19.9927 22 18.6666 22ZM17.3736 19.708C17.9336 19.9759 18.5629 20.0635 19.1747 19.9588C19.7865 19.854 20.3508 19.5621 20.7898 19.1231C21.2287 18.6842 21.5207 18.1199 21.6254 17.5081C21.7302 16.8962 21.6425 16.267 21.3746 15.707L17.3736 19.707V19.708ZM15.9586 18.293L19.9596 14.293C19.3997 14.0251 18.7704 13.9375 18.1586 14.0422C17.5467 14.147 16.9824 14.4389 16.5435 14.8779C16.1046 15.3168 15.8126 15.8811 15.7078 16.4929C15.6031 17.1048 15.6907 17.734 15.9586 18.294V18.293Z" fill="white"/>
</svg>
