<svg width="400" height="315" viewBox="0 0 400 315" fill="none" xmlns="http://www.w3.org/2000/svg">
<path d="M192.088 32.4829H150.23V43.5583H192.088V32.4829Z" fill="#D7E1EA"/>
<path d="M174.39 55.2195C174.384 55.2132 174.384 55.1502 174.378 55.0179C174.371 54.8667 174.371 54.684 174.365 54.4509C174.359 53.928 174.346 53.2035 174.333 52.2711C174.315 50.3622 174.289 47.6091 174.264 44.1441L174.396 44.2764C164.839 44.2953 149.637 44.3268 132.546 44.3583C132.64 44.2638 132.331 44.5725 132.753 44.1441V44.1504V44.163V44.1882V44.2323V44.3205V44.4969V44.8497V45.5616C132.753 46.0341 132.753 46.5066 132.753 46.9728C132.753 47.9115 132.753 48.8439 132.753 49.77C132.753 51.6159 132.754 53.4366 132.747 55.2195L132.539 55.0116C144.459 55.0494 154.885 55.0809 162.37 55.1061C166.093 55.1313 169.086 55.1502 171.177 55.1628C172.191 55.1754 172.992 55.1817 173.559 55.188C173.817 55.1943 174.018 55.2006 174.182 55.2006C174.308 55.2132 174.384 55.2132 174.39 55.2195C174.396 55.2258 174.327 55.2258 174.195 55.2321C174.037 55.2384 173.842 55.2384 173.596 55.2447C173.036 55.251 172.254 55.2636 171.259 55.2699C169.18 55.2825 166.206 55.3014 162.502 55.3266C154.986 55.3518 144.503 55.3833 132.527 55.4211H132.319V55.2132C132.319 53.4303 132.319 51.6159 132.312 49.7637C132.312 48.8376 132.312 47.9052 132.312 46.9665C132.312 46.5003 132.312 46.0278 132.312 45.5553V44.8434V44.4906V44.3142V44.226V44.1819V44.1567V44.1441V44.1378C132.741 43.7094 132.432 44.0181 132.527 43.9236C149.625 43.9551 164.82 43.9866 174.378 44.0055H174.51V44.1378C174.478 47.6343 174.453 50.4126 174.441 52.3404C174.428 53.2602 174.415 53.9784 174.409 54.4887C174.403 54.7155 174.396 54.8919 174.396 55.0368C174.396 55.1628 174.39 55.2258 174.39 55.2195Z" fill="#F2F7FC"/>
<path d="M141.956 15.5168H69.3672V91.1861H141.956V15.5168Z" fill="#F2F7FC"/>
<path d="M137.042 15.5168H64.4531V91.1861H137.042V15.5168Z" fill="#F2F7FC"/>
<path d="M137.069 91.2114H64.4297V15.4917H137.069V91.2114ZM64.4738 91.161H137.018V15.5358H64.4738V91.161Z" fill="#F2F7FC"/>
<path d="M127.292 25.6851H74.2148V81.0117H127.292V25.6851Z" fill="white"/>
<path d="M74.2116 81.3834C74.2557 81.4338 73.7517 82.0134 72.9012 82.908C72.0507 83.8026 70.86 85.0122 69.5244 86.3289C68.1888 87.6456 66.9603 88.8174 66.0594 89.649C65.1522 90.4806 64.5726 90.972 64.5222 90.9279C64.4781 90.8838 64.9758 90.3042 65.8263 89.4096C66.6768 88.515 67.8675 87.2991 69.2094 85.9824C70.5513 84.6657 71.7798 83.4876 72.6807 82.656C73.5879 81.8244 74.1675 81.333 74.2116 81.3834Z" fill="#F2F7FC"/>
<path d="M127.285 81.2446C127.335 81.2005 127.915 81.7045 128.809 82.555C129.704 83.4055 130.914 84.5962 132.23 85.9318C133.547 87.2674 134.719 88.4959 135.55 89.3968C136.382 90.304 136.873 90.8836 136.829 90.9277C136.785 90.9718 136.206 90.4741 135.311 89.6236C134.416 88.7731 133.2 87.5824 131.884 86.2405C130.567 84.8986 129.389 83.6701 128.557 82.7692C127.726 81.8683 127.234 81.2887 127.285 81.2446Z" fill="#F2F7FC"/>
<path d="M127.139 25.8363C127.095 25.7859 127.599 25.2063 128.45 24.3117C129.3 23.4171 130.491 22.2075 131.827 20.8908C133.162 19.5741 134.391 18.4023 135.292 17.5707C136.199 16.7391 136.778 16.2477 136.822 16.2918C136.867 16.3359 136.369 16.9155 135.518 17.8101C134.668 18.7047 133.477 19.9206 132.135 21.2373C130.793 22.554 129.565 23.7321 128.664 24.5637C127.763 25.3953 127.183 25.8867 127.139 25.8363Z" fill="#F2F7FC"/>
<path d="M74.0668 25.9685C74.0164 26.0126 73.4368 25.5086 72.5422 24.6581C71.6476 23.8076 70.438 22.6169 69.1213 21.2813C67.8046 19.9457 66.6328 18.7172 65.8012 17.8163C64.9696 16.9091 64.4782 16.3295 64.5223 16.2854C64.5664 16.2413 65.146 16.739 66.0406 17.5895C66.9352 18.44 68.1511 19.6307 69.4678 20.9726C70.7845 22.3145 71.9626 23.543 72.7942 24.4439C73.6258 25.3511 74.1172 25.9307 74.0668 25.9685Z" fill="#F2F7FC"/>
<path d="M127.14 81.0118C127.134 81.0055 127.134 80.9174 127.127 80.7409C127.127 80.5519 127.121 80.2999 127.115 79.966C127.108 79.273 127.102 78.2776 127.089 76.9798C127.077 74.359 127.058 70.5475 127.033 65.7028C127.008 56.0134 126.97 42.2101 126.926 25.6789L127.134 25.8805C111.68 25.8868 93.5357 25.8994 74.2073 25.912H74.201L74.4341 25.6789C74.4215 45.9838 74.4089 64.9846 74.4026 81.0055L74.201 80.8039C90.0644 80.848 103.269 80.8795 112.524 80.9047C117.148 80.9299 120.789 80.9425 123.291 80.9551C124.525 80.9677 125.477 80.974 126.138 80.9803C126.453 80.9866 126.693 80.9866 126.875 80.9929C127.052 81.0055 127.14 81.0118 127.14 81.0118C127.146 81.0181 127.064 81.0181 126.907 81.0244C126.73 81.0244 126.497 81.0308 126.195 81.037C125.54 81.0434 124.601 81.0496 123.385 81.0622C120.897 81.0748 117.274 81.0937 112.669 81.1126C103.376 81.1378 90.1274 81.1756 74.2136 81.2134H74.012V81.0118C73.9994 64.9909 73.9931 45.9901 73.9805 25.6852V25.4521H74.2136H74.2199C93.5483 25.4647 111.692 25.471 127.146 25.4836H127.354V25.6915C127.31 42.2731 127.272 56.1205 127.247 65.8477C127.222 70.6672 127.203 74.4661 127.19 77.0743C127.178 78.3532 127.171 79.336 127.165 80.0227C127.159 80.344 127.159 80.5898 127.152 80.7724C127.146 80.9363 127.146 81.0181 127.14 81.0118Z" fill="#F2F7FC"/>
<path d="M109.6 44.4968H91.8906V62.2061H109.6V44.4968Z" fill="#D7E1EA"/>
<path d="M85.9844 106.105L96.9842 103.597L100.071 125.679L92.7191 127.355L85.9844 106.105ZM95.0186 138.789C93.7523 138.04 92.9585 136.95 92.6372 135.52C92.3033 134.058 92.549 132.741 93.3743 131.563C94.1996 130.385 95.4218 129.61 97.0472 129.245C98.6726 128.873 100.096 129.043 101.337 129.755C102.572 130.461 103.36 131.551 103.694 133.006C104.021 134.436 103.776 135.759 102.963 136.987C102.15 138.216 100.947 139.01 99.3593 139.369C97.7213 139.734 96.2786 139.545 95.0186 138.789Z" fill="#F2F7FC"/>
<path d="M64.2103 109.922C65.2939 109.96 66.1885 110.382 66.9067 111.182C67.6375 112.008 67.9462 112.94 67.8328 113.992C67.7194 115.044 67.2028 115.977 66.2893 116.789C65.3758 117.602 64.393 117.999 63.3472 117.986C62.3014 117.968 61.4068 117.545 60.676 116.726C59.9578 115.92 59.6491 114.981 59.7373 113.904C59.8255 112.827 60.3169 111.888 61.2178 111.088C62.125 110.275 63.1267 109.885 64.2103 109.922ZM81.6298 127.789L75.4243 133.308L65.6026 120.166L69.748 116.481L81.6298 127.789Z" fill="#F2F7FC"/>
<path d="M333.416 174.1H291.559V185.175H333.416V174.1Z" fill="#D7E1EA"/>
<path d="M315.714 196.837C315.708 196.83 315.708 196.767 315.702 196.635C315.696 196.484 315.696 196.301 315.689 196.068C315.683 195.545 315.67 194.821 315.658 193.888C315.639 191.979 315.614 189.226 315.588 185.761L315.721 185.894C306.164 185.913 290.962 185.944 273.87 185.976C273.964 185.881 273.656 186.19 274.078 185.761V185.768V185.78V185.805V185.85V185.938V186.114V186.467V187.179C274.078 187.651 274.078 188.124 274.078 188.59C274.078 189.529 274.078 190.461 274.078 191.387C274.078 193.233 274.078 195.054 274.071 196.837L273.864 196.629C285.783 196.667 296.21 196.698 303.694 196.723C307.417 196.749 310.41 196.767 312.501 196.78C313.516 196.793 314.316 196.799 314.883 196.805C315.141 196.812 315.343 196.818 315.507 196.818C315.639 196.83 315.714 196.83 315.714 196.837C315.721 196.843 315.651 196.843 315.519 196.849C315.362 196.856 315.166 196.856 314.921 196.862C314.36 196.868 313.579 196.875 312.583 196.887C310.504 196.9 307.531 196.919 303.826 196.944C296.31 196.969 285.827 197.001 273.851 197.038H273.643V196.83C273.643 195.048 273.643 193.233 273.637 191.381C273.637 190.455 273.637 189.522 273.637 188.584C273.637 188.118 273.637 187.645 273.637 187.173V186.461V186.108V185.931V185.85V185.805V185.78V185.768V185.761C274.065 185.333 273.756 185.642 273.851 185.547C290.949 185.579 306.145 185.61 315.702 185.629H315.834V185.761C315.803 189.258 315.777 192.036 315.765 193.964C315.752 194.884 315.74 195.602 315.733 196.112C315.727 196.339 315.721 196.515 315.721 196.66C315.727 196.78 315.721 196.843 315.714 196.837Z" fill="#F2F7FC"/>
<path d="M300.738 40.8681C300.732 40.8618 300.732 40.7988 300.725 40.6665C300.719 40.5153 300.719 40.3326 300.713 40.0995C300.706 39.5766 300.694 38.8521 300.681 37.9197C300.662 36.0108 300.637 33.2577 300.612 29.7927L300.744 29.925C291.187 29.9439 275.985 29.9754 258.893 30.0069C258.988 29.9124 258.679 30.2211 259.101 29.7927V29.799V29.8116V29.8368V29.8809V29.9691V30.1455V30.4983V31.2102C259.101 31.6827 259.101 32.1552 259.101 32.6214C259.101 33.5601 259.101 34.4925 259.101 35.4186C259.101 37.2645 259.101 39.0852 259.095 40.8681L258.887 40.6602C270.807 40.698 281.233 40.7295 288.717 40.7547C292.441 40.7799 295.433 40.7988 297.525 40.8114C298.539 40.824 299.339 40.8303 299.906 40.8366C300.165 40.8429 300.366 40.8492 300.53 40.8492C300.656 40.8555 300.732 40.8618 300.738 40.8681C300.744 40.8744 300.675 40.8744 300.543 40.8807C300.385 40.887 300.19 40.887 299.944 40.8933C299.383 40.8996 298.602 40.9059 297.607 40.9185C295.528 40.9311 292.554 40.95 288.85 40.9752C281.334 41.0004 270.851 41.0319 258.874 41.0697H258.666V40.8618C258.666 39.0789 258.666 37.2645 258.66 35.4123C258.66 34.4862 258.66 33.5538 258.66 32.6151C258.66 32.1489 258.66 31.6764 258.66 31.2039V30.492V30.1392V29.9628V29.8746V29.8305V29.8053V29.799C259.089 29.3706 258.78 29.6793 258.874 29.5848C275.973 29.6163 291.168 29.6478 300.725 29.6667H300.858V29.799C300.826 33.2955 300.801 36.0738 300.788 38.0016C300.776 38.9214 300.763 39.6396 300.757 40.1499C300.75 40.3767 300.744 40.5531 300.744 40.698C300.744 40.8114 300.738 40.8681 300.738 40.8681Z" fill="#F2F7FC"/>
<path d="M306.413 29.7928C306.407 29.7865 306.4 29.7172 306.394 29.5849C306.388 29.4274 306.381 29.2321 306.375 28.999C306.369 28.4572 306.35 27.7138 306.337 26.7814C306.318 24.841 306.287 22.1005 306.255 18.7237L306.407 18.8749C299.892 18.8875 291.028 18.9127 281.257 18.9379C281.068 19.1269 281.515 18.6796 281.471 18.7237V18.73V18.7426V18.7678V18.8119V18.9001V19.0828V19.4482V20.1727C281.471 20.6515 281.471 21.1303 281.471 21.6091C281.471 22.5604 281.471 23.4991 281.471 24.4252C281.471 26.2774 281.465 28.0729 281.465 29.7928L281.263 29.5912C288.521 29.629 294.777 29.6605 299.256 29.6857C301.467 29.7109 303.238 29.7298 304.498 29.7424C305.084 29.755 305.556 29.7613 305.909 29.7676C306.23 29.7739 306.4 29.7865 306.413 29.7928C306.419 29.7991 306.268 29.8117 305.959 29.818C305.613 29.8243 305.159 29.8306 304.586 29.8432C303.338 29.8558 301.581 29.8747 299.395 29.8999C294.884 29.9251 288.584 29.9566 281.27 29.9944H281.068V29.7928C281.068 28.0729 281.062 26.2774 281.062 24.4252C281.062 23.4991 281.062 22.5604 281.062 21.6091C281.062 21.1303 281.062 20.6515 281.062 20.1727V19.4482V19.0828V18.9001V18.8119V18.7678V18.7426V18.73V18.7237C281.018 18.7678 281.465 18.3205 281.276 18.5095C291.047 18.5347 299.905 18.5536 306.425 18.5725H306.583V18.7237C306.551 22.132 306.52 24.9103 306.501 26.8696C306.482 27.7894 306.47 28.5202 306.463 29.0557C306.432 29.5471 306.419 29.8054 306.413 29.7928Z" fill="#F2F7FC"/>
<path d="M241.062 258.515C241.056 258.508 241.056 258.445 241.049 258.313C241.043 258.162 241.043 257.979 241.037 257.746C241.031 257.223 241.018 256.499 241.005 255.566C240.986 253.657 240.961 250.904 240.936 247.439L241.068 247.572C231.511 247.591 216.309 247.622 199.217 247.654C199.312 247.559 199.003 247.868 199.425 247.439V247.446V247.458V247.483V247.527V247.616V247.792V248.145V248.857C199.425 249.329 199.425 249.802 199.425 250.268C199.425 251.207 199.425 252.139 199.425 253.065C199.425 254.911 199.425 256.732 199.419 258.515L199.211 258.307C211.131 258.345 221.557 258.376 229.042 258.401C232.765 258.427 235.757 258.445 237.849 258.458C238.863 258.471 239.663 258.477 240.23 258.483C240.489 258.49 240.69 258.496 240.854 258.496C240.986 258.508 241.056 258.508 241.062 258.515C241.068 258.521 240.999 258.521 240.867 258.527C240.709 258.534 240.514 258.534 240.268 258.54C239.708 258.546 238.926 258.553 237.931 258.565C235.852 258.578 232.878 258.597 229.174 258.622C221.658 258.647 211.175 258.679 199.199 258.716H198.991V258.508C198.991 256.726 198.991 254.911 198.984 253.059C198.984 252.133 198.984 251.2 198.984 250.262C198.984 249.796 198.984 249.323 198.984 248.851V248.139V247.786V247.609V247.521V247.477V247.452V247.439V247.433C199.413 247.005 199.104 247.313 199.199 247.219C216.297 247.25 231.492 247.282 241.049 247.301H241.182V247.433C241.15 250.93 241.125 253.708 241.112 255.636C241.1 256.555 241.087 257.274 241.081 257.784C241.075 258.011 241.068 258.187 241.068 258.332C241.075 258.458 241.068 258.521 241.062 258.515Z" fill="#F2F7FC"/>
<path d="M246.737 247.439C246.731 247.433 246.724 247.363 246.718 247.231C246.712 247.074 246.706 246.878 246.699 246.645C246.693 246.103 246.674 245.36 246.661 244.428C246.643 242.487 246.611 239.747 246.58 236.37L246.731 236.521C240.217 236.534 231.352 236.559 221.581 236.584C221.392 236.773 221.839 236.326 221.795 236.37V236.376V236.389V236.414V236.458V236.546V236.729V237.094V237.819C221.795 238.298 221.795 238.776 221.795 239.255C221.795 240.207 221.795 241.145 221.795 242.071C221.795 243.924 221.789 245.719 221.789 247.439L221.587 247.237C228.845 247.275 235.101 247.307 239.58 247.332C241.792 247.357 243.562 247.376 244.822 247.389C245.408 247.401 245.88 247.407 246.233 247.414C246.554 247.426 246.731 247.433 246.737 247.439C246.743 247.445 246.592 247.458 246.283 247.464C245.937 247.47 245.483 247.477 244.91 247.489C243.663 247.502 241.905 247.521 239.719 247.546C235.208 247.571 228.908 247.603 221.594 247.641H221.392V247.439C221.392 245.719 221.386 243.924 221.386 242.071C221.386 241.145 221.386 240.207 221.386 239.255C221.386 238.776 221.386 238.298 221.386 237.819V237.094V236.729V236.546V236.458V236.414V236.389V236.376V236.37C221.342 236.414 221.789 235.967 221.6 236.156C231.371 236.181 240.229 236.2 246.75 236.219H246.907V236.37C246.876 239.778 246.844 242.556 246.825 244.516C246.806 245.436 246.794 246.166 246.787 246.702C246.756 247.2 246.75 247.452 246.737 247.439Z" fill="#F2F7FC"/>
<path d="M325.292 295.817C325.292 295.905 269.417 295.98 200.508 295.98C131.573 295.98 75.7109 295.905 75.7109 295.817C75.7109 295.728 131.573 295.653 200.508 295.653C269.417 295.653 325.292 295.722 325.292 295.817Z" fill="#1F1F1F"/>
<path d="M302.244 223.783C301.948 224.52 301.816 225.326 301.873 226.126C301.684 225.188 301.325 224.28 300.808 223.474C300.619 223.171 300.31 222.844 299.964 222.932C299.617 223.02 299.504 223.455 299.491 223.814C299.454 224.797 299.68 225.792 300.14 226.668C299.504 225.862 298.666 225.213 297.727 224.797C297.564 224.721 297.362 224.658 297.204 224.753C297.022 224.866 297.022 225.125 297.047 225.332C297.286 226.989 298.458 228.482 300.014 229.1L300.525 229.175C301.608 228.873 302.578 228.155 303.171 227.197C303.769 226.24 303.99 225.055 303.782 223.953C303.7 223.531 303.46 223.039 303.032 223.033C302.648 223.033 302.389 223.423 302.244 223.783Z" fill="#4CBDE2"/>
<path d="M290.793 246.658C291.977 245.801 294.207 244.982 295.65 244.698C294.629 241.221 294.573 237.466 295.511 233.969C295.883 232.583 296.419 231.216 297.326 230.107C298.227 228.999 299.543 228.161 300.973 228.073C302.517 227.978 303.991 228.778 305.024 229.95L306.814 234.095C306.914 234.7 306.996 235.305 307.028 235.916C307.248 239.923 306.328 243.98 304.413 247.508C306.278 249.568 308.3 253.115 307.696 257.229H286.42C286.042 253.279 287.542 249.001 290.793 246.658Z" fill="#1B3A59"/>
<path d="M305.357 248.831C305.363 248.825 305.313 248.743 305.193 248.598C305.073 248.459 304.922 248.226 304.664 247.987C304.185 247.47 303.404 246.802 302.308 246.185C301.211 245.561 299.775 245.038 298.112 244.843C296.455 244.648 294.565 244.837 292.776 245.586C290.999 246.368 289.563 247.615 288.567 248.957C287.566 250.299 286.961 251.704 286.659 252.926C286.356 254.148 286.306 255.181 286.35 255.881C286.35 256.233 286.413 256.498 286.432 256.681C286.457 256.863 286.476 256.958 286.488 256.958C286.583 256.964 286.217 255.389 286.879 252.983C287.2 251.792 287.811 250.431 288.801 249.133C289.783 247.842 291.182 246.639 292.895 245.883C294.628 245.152 296.455 244.963 298.068 245.139C299.687 245.309 301.104 245.801 302.188 246.387C304.399 247.552 305.294 248.9 305.357 248.831Z" fill="#1F1F1F"/>
<path d="M307.133 237.44C307.177 237.44 307.208 236.899 307.171 236.029C307.133 235.16 307.026 233.944 306.597 232.665C306.169 231.386 305.438 230.353 304.777 229.767C304.115 229.169 303.586 228.98 303.58 229.011C303.548 229.062 304.027 229.32 304.619 229.931C305.218 230.536 305.879 231.531 306.295 232.766C306.711 234.001 306.849 235.191 306.944 236.048C307.038 236.905 307.089 237.44 307.133 237.44Z" fill="#1F1F1F"/>
<path d="M294.836 254.52C294.892 254.451 293.96 253.587 292.851 252.491C291.736 251.395 290.867 250.469 290.797 250.526C290.728 250.582 291.497 251.609 292.624 252.718C293.739 253.827 294.779 254.589 294.836 254.52Z" fill="#1F1F1F"/>
<path d="M297.204 253.279C297.293 253.26 297.135 252.315 296.858 251.168C296.581 250.022 296.285 249.115 296.196 249.134C296.108 249.152 296.266 250.097 296.543 251.244C296.82 252.391 297.116 253.304 297.204 253.279Z" fill="#1F1F1F"/>
<path d="M303.524 250.916C303.455 250.866 302.831 251.691 302.315 252.838C301.792 253.984 301.584 254.992 301.666 255.018C301.754 255.043 302.1 254.098 302.611 252.97C303.115 251.849 303.6 250.967 303.524 250.916Z" fill="#1F1F1F"/>
<path d="M296.687 240.981C296.756 240.924 296.114 239.954 295.251 238.807C294.387 237.661 293.625 236.779 293.556 236.829C293.487 236.886 294.129 237.856 294.992 239.003C295.855 240.149 296.618 241.038 296.687 240.981Z" fill="#1F1F1F"/>
<path d="M298.194 234.328C298.269 234.278 297.538 233.087 296.562 231.664C295.585 230.24 294.741 229.131 294.666 229.181C294.59 229.232 295.321 230.422 296.297 231.846C297.267 233.27 298.118 234.379 298.194 234.328Z" fill="#1F1F1F"/>
<path d="M300.589 236.074C300.501 236.067 300.362 237.075 300.287 238.329C300.211 239.576 300.217 240.597 300.306 240.603C300.394 240.61 300.532 239.602 300.608 238.348C300.69 237.1 300.677 236.08 300.589 236.074Z" fill="#1F1F1F"/>
<path d="M310.143 239.104C310.106 239.028 308.726 239.671 307.126 240.647C305.526 241.624 304.322 242.556 304.373 242.625C304.423 242.701 305.702 241.895 307.296 240.924C308.883 239.948 310.188 239.179 310.143 239.104Z" fill="#1F1F1F"/>
<g opacity="0.3">
<g opacity="0.3">
<g opacity="0.3">
<g opacity="0.3">
<g opacity="0.3">
<g opacity="0.3">
<g opacity="0.3">
<path opacity="0.3" d="M302.492 244.831C301.458 244.226 300.236 244.037 299.039 243.98C297.798 243.917 296.412 244.043 295.574 244.957V245.001C298.554 244.786 302.025 245.807 304.312 247.729C304.331 246.532 303.519 245.435 302.492 244.831Z" fill="#1F1F1F"/>
</g>
</g>
</g>
</g>
</g>
</g>
</g>
<path d="M292.372 203.043C291.767 202.879 291.124 202.854 290.507 202.974C291.225 202.74 291.899 202.369 292.479 201.89C292.699 201.714 292.92 201.443 292.819 201.178C292.718 200.913 292.365 200.869 292.082 200.895C291.307 200.958 290.551 201.228 289.915 201.669C290.488 201.096 290.91 200.384 291.149 199.609C291.193 199.471 291.225 199.307 291.13 199.194C291.023 199.061 290.822 199.086 290.658 199.124C289.385 199.464 288.327 200.523 287.993 201.795L287.98 202.199C288.314 203.018 288.97 203.704 289.776 204.082C290.582 204.46 291.527 204.523 292.372 204.252C292.693 204.152 293.058 203.919 293.02 203.578C292.995 203.289 292.668 203.118 292.372 203.043Z" fill="#4CBDE2"/>
<path d="M249.463 175.846C249.35 176.463 249.381 177.106 249.545 177.711C249.249 177.018 248.827 176.375 248.304 175.833C248.109 175.632 247.819 175.43 247.567 175.55C247.315 175.676 247.296 176.028 247.346 176.306C247.479 177.068 247.806 177.799 248.298 178.404C247.68 177.881 246.931 177.515 246.137 177.345C245.998 177.314 245.828 177.295 245.727 177.396C245.608 177.509 245.645 177.711 245.702 177.868C246.149 179.109 247.29 180.073 248.587 180.3L248.991 180.275C249.778 179.871 250.408 179.16 250.717 178.328C251.026 177.496 251.007 176.545 250.673 175.726C250.547 175.411 250.282 175.071 249.948 175.134C249.652 175.203 249.514 175.55 249.463 175.846Z" fill="#4CBDE2"/>
<path d="M279.338 231.487C279.023 231.5 278.727 231.538 278.424 231.563C277.87 225.483 279.716 219.316 277.857 213.501L278.103 213.816C280.34 214.112 282.664 214.024 284.775 213.217C286.885 212.417 288.75 210.836 289.601 208.744C290.451 206.653 290.13 204.057 288.574 202.425C286.47 200.227 282.765 200.34 280.125 201.858C277.58 203.32 275.797 205.771 274.115 208.19C273.233 207.497 272.257 206.917 271.211 206.52C274.147 202.482 276.982 198.242 277.908 193.366C278.922 188.03 276.925 181.705 271.973 179.481C267.752 177.585 262.467 179.298 259.493 182.839C259.26 183.116 259.065 183.418 258.857 183.708L258.957 183.418C258.22 181.566 256.778 179.979 254.944 179.197C253.111 178.41 250.912 178.473 249.186 179.475C247.46 180.476 246.301 182.423 246.357 184.414C246.427 186.657 248.002 188.691 250.024 189.674C251.958 190.619 254.226 190.695 256.337 190.26C256.066 192.138 256.078 194.065 256.368 195.93C257.03 200.176 258.92 204.126 261.169 207.799C260.545 208.221 259.959 208.688 259.443 209.229C255.618 213.23 255.373 219.656 257.376 224.816C259.38 229.975 264.804 233.781 268.571 237.838H268.578C266.958 240.578 266.108 243.848 265.686 246.916C264.375 244.182 261.452 242.216 258.403 242.241C256.759 242.254 254.919 242.985 254.415 244.547C253.968 245.921 254.724 247.414 255.7 248.478C257.981 250.961 262.057 252.095 265.333 251.301L265.377 250.293C265.169 254.237 265.541 257.229 265.541 257.229H289.821C289.802 257.229 296.291 230.857 279.338 231.487Z" fill="#1B3A59"/>
<path d="M317.637 257.229H260.188V267.41H317.637V257.229Z" fill="#4CBDE2"/>
<path d="M264.477 265.387L271.463 295.816H305.698L313.346 265.387H264.477Z" fill="#4CBDE2"/>
<path d="M317.605 267.422C317.605 267.536 304.646 267.624 288.669 267.624C272.679 267.624 259.727 267.536 259.727 267.422C259.727 267.309 272.679 267.221 288.669 267.221C304.646 267.221 317.605 267.309 317.605 267.422Z" fill="#1F1F1F"/>
<path d="M283.843 232.489C283.849 232.476 283.736 232.413 283.509 232.3C283.289 232.174 282.948 232.035 282.501 231.865C281.606 231.55 280.214 231.273 278.501 231.405C276.8 231.544 274.777 232.13 272.875 233.377C270.972 234.625 269.277 236.553 268.043 238.846C266.801 241.145 266.096 243.558 265.73 245.782C265.378 248.012 265.34 250.047 265.34 251.742C265.352 253.443 265.403 254.81 265.441 255.761C265.46 256.209 265.472 256.568 265.485 256.851C265.497 257.103 265.51 257.229 265.523 257.229C265.535 257.229 265.541 257.097 265.548 256.851C265.554 256.568 265.554 256.202 265.56 255.761C265.56 254.772 265.56 253.411 265.567 251.748C265.598 250.06 265.655 248.037 266.02 245.839C266.398 243.646 267.104 241.265 268.326 239.003C269.542 236.748 271.193 234.858 273.038 233.629C274.884 232.401 276.856 231.802 278.519 231.639C280.195 231.481 281.562 231.714 282.457 231.991C283.364 232.262 283.824 232.527 283.843 232.489Z" fill="#1F1F1F"/>
<path d="M278.708 219.599C278.721 219.599 278.733 219.498 278.746 219.309C278.752 219.12 278.79 218.837 278.777 218.478C278.784 217.753 278.702 216.701 278.418 215.435C278.128 214.175 277.624 212.688 276.73 211.214C276.295 210.47 275.753 209.74 275.105 209.066C274.462 208.385 273.706 207.749 272.83 207.264C271.961 206.766 271.041 206.426 270.121 206.218C269.195 206.029 268.288 205.985 267.425 206.016C265.699 206.117 264.193 206.558 263.002 207.068C261.811 207.579 260.904 208.121 260.312 208.536C260.01 208.732 259.795 208.921 259.644 209.034C259.493 209.154 259.424 209.217 259.43 209.229C259.449 209.255 259.777 209.021 260.381 208.643C260.986 208.265 261.9 207.761 263.084 207.283C264.268 206.81 265.755 206.401 267.431 206.319C268.269 206.294 269.151 206.344 270.046 206.533C270.934 206.735 271.822 207.068 272.66 207.547C273.504 208.02 274.235 208.631 274.865 209.286C275.501 209.941 276.037 210.653 276.465 211.371C277.354 212.801 277.87 214.25 278.185 215.485C278.494 216.726 278.607 217.76 278.639 218.478C278.689 219.196 278.683 219.593 278.708 219.599Z" fill="#1F1F1F"/>
<path d="M256.142 193.908C256.186 193.914 256.261 193.164 256.349 191.961C256.393 191.363 256.456 190.644 256.589 189.863C256.715 189.076 256.916 188.244 257.275 187.4C257.975 185.712 258.832 184.275 259.493 183.274C260.155 182.272 260.659 181.717 260.621 181.68C260.608 181.667 260.463 181.787 260.224 182.026C259.991 182.272 259.663 182.644 259.304 183.135C258.586 184.118 257.691 185.548 256.973 187.274C256.601 188.131 256.4 189.019 256.293 189.813C256.173 190.613 256.135 191.337 256.116 191.942C256.091 193.158 256.097 193.908 256.142 193.908Z" fill="#1F1F1F"/>
<path d="M259.275 248.497C259.218 248.428 258.475 248.976 257.618 249.719C256.761 250.463 256.119 251.118 256.175 251.187C256.232 251.257 256.975 250.708 257.832 249.965C258.689 249.222 259.332 248.566 259.275 248.497Z" fill="#1F1F1F"/>
<path d="M257.238 246.475C257.244 246.387 256.324 246.223 255.178 246.11C254.031 245.996 253.099 245.977 253.086 246.066C253.08 246.154 253.999 246.318 255.146 246.431C256.293 246.544 257.225 246.563 257.238 246.475Z" fill="#1F1F1F"/>
<path d="M258.782 242.891C258.845 242.821 258.259 242.166 257.629 241.297C256.993 240.427 256.552 239.665 256.464 239.709C256.388 239.747 256.71 240.591 257.365 241.486C258.02 242.387 258.726 242.954 258.782 242.891Z" fill="#1F1F1F"/>
<path d="M261.496 241.246C261.408 241.265 261.578 242.317 261.874 243.596C262.17 244.875 262.479 245.895 262.567 245.876C262.655 245.857 262.485 244.805 262.189 243.526C261.893 242.248 261.584 241.227 261.496 241.246Z" fill="#1F1F1F"/>
<path d="M263.316 249.455C263.373 249.386 262.995 248.945 262.459 248.466C261.924 247.987 261.445 247.653 261.388 247.716C261.332 247.785 261.71 248.226 262.245 248.705C262.774 249.184 263.253 249.518 263.316 249.455Z" fill="#1F1F1F"/>
<path d="M271.759 247.861C271.822 247.798 271.356 247.206 270.72 246.545C270.083 245.877 269.51 245.385 269.447 245.448C269.384 245.511 269.85 246.104 270.487 246.765C271.123 247.433 271.696 247.924 271.759 247.861Z" fill="#1F1F1F"/>
<path d="M273.594 240.068C273.669 240.024 273.323 239.312 272.812 238.487C272.308 237.661 271.836 237.025 271.76 237.076C271.685 237.12 272.031 237.832 272.542 238.657C273.046 239.482 273.518 240.112 273.594 240.068Z" fill="#1F1F1F"/>
<path d="M278.968 233.724C278.88 233.724 278.792 234.631 278.779 235.746C278.766 236.868 278.823 237.775 278.911 237.775C279 237.775 279.088 236.868 279.1 235.752C279.119 234.631 279.056 233.724 278.968 233.724Z" fill="#1F1F1F"/>
<path d="M290.245 235.872C290.17 235.822 289.508 236.704 288.639 237.743C287.776 238.789 287.038 239.608 287.101 239.671C287.158 239.734 288.009 239.01 288.884 237.945C289.773 236.893 290.321 235.916 290.245 235.872Z" fill="#1F1F1F"/>
<path d="M291.695 246.954C291.676 246.866 290.775 246.966 289.685 247.181C288.589 247.395 287.72 247.634 287.739 247.722C287.757 247.811 288.652 247.71 289.748 247.496C290.838 247.281 291.714 247.042 291.695 246.954Z" fill="#1F1F1F"/>
<path d="M279.994 250.81C280.076 250.784 279.811 249.757 279.219 248.592C278.633 247.426 277.959 246.601 277.89 246.652C277.814 246.702 278.356 247.597 278.929 248.737C279.509 249.877 279.906 250.841 279.994 250.81Z" fill="#1F1F1F"/>
<path d="M283.895 245.499C283.983 245.499 284.072 244.768 284.091 243.861C284.109 242.953 284.053 242.216 283.965 242.216C283.876 242.216 283.788 242.947 283.769 243.854C283.75 244.755 283.807 245.492 283.895 245.499Z" fill="#1F1F1F"/>
<path d="M271.308 254.866C271.389 254.835 271.163 254.029 270.621 253.153C270.085 252.277 269.468 251.704 269.405 251.767C269.336 251.83 269.827 252.473 270.35 253.323C270.867 254.167 271.219 254.904 271.308 254.866Z" fill="#1F1F1F"/>
<path d="M284.664 255.635C284.745 255.673 285.136 254.967 285.533 254.06C285.93 253.153 286.188 252.391 286.106 252.353C286.024 252.315 285.634 253.021 285.237 253.928C284.84 254.835 284.582 255.597 284.664 255.635Z" fill="#1F1F1F"/>
<path d="M263.899 230.933C263.899 230.845 262.897 230.807 261.675 230.845C260.446 230.882 259.457 230.99 259.457 231.078C259.457 231.166 260.459 231.204 261.681 231.166C262.909 231.128 263.899 231.021 263.899 230.933Z" fill="#1F1F1F"/>
<path d="M259.052 222.648C259.103 222.573 258.145 221.811 256.916 220.935C255.688 220.059 254.648 219.417 254.592 219.486C254.541 219.561 255.499 220.324 256.727 221.199C257.962 222.069 259.002 222.718 259.052 222.648Z" fill="#1F1F1F"/>
<path d="M259.556 212.002C259.594 211.913 258.769 211.485 257.817 210.849C256.86 210.219 256.141 209.626 256.078 209.696C256.015 209.759 256.658 210.471 257.641 211.12C258.617 211.768 259.525 212.077 259.556 212.002Z" fill="#1F1F1F"/>
<path d="M264.981 208.234C265.069 208.215 264.855 207.05 264.508 205.638C264.162 204.227 263.809 203.099 263.727 203.118C263.639 203.137 263.853 204.303 264.199 205.714C264.546 207.132 264.899 208.259 264.981 208.234Z" fill="#1F1F1F"/>
<path d="M274.055 205.55C273.979 205.506 273.507 206.206 272.996 207.113C272.492 208.02 272.146 208.789 272.221 208.833C272.297 208.877 272.769 208.177 273.28 207.27C273.784 206.363 274.13 205.594 274.055 205.55Z" fill="#1F1F1F"/>
<path d="M281.872 223.518C281.809 223.448 280.776 224.236 279.415 225.074C278.054 225.918 276.889 226.485 276.927 226.573C276.958 226.649 278.206 226.208 279.585 225.351C280.971 224.494 281.923 223.581 281.872 223.518Z" fill="#1F1F1F"/>
<path d="M269.194 227.556C269.239 227.481 268.546 226.964 267.638 226.409C266.731 225.849 265.956 225.458 265.912 225.534C265.868 225.609 266.561 226.126 267.468 226.68C268.375 227.241 269.15 227.632 269.194 227.556Z" fill="#1F1F1F"/>
<path d="M267.072 218.963C267.135 218.894 266.316 218.087 265.56 216.915C264.791 215.75 264.382 214.673 264.287 214.704C264.205 214.723 264.489 215.876 265.289 217.092C266.076 218.308 267.021 219.026 267.072 218.963Z" fill="#1F1F1F"/>
<path d="M271.236 217.022C271.324 217.016 271.356 216.084 271.299 214.937C271.249 213.79 271.129 212.864 271.041 212.871C270.953 212.877 270.921 213.809 270.978 214.956C271.028 216.103 271.148 217.029 271.236 217.022Z" fill="#1F1F1F"/>
<path d="M273.532 225.515C273.62 225.527 273.803 224.582 273.935 223.411C274.068 222.239 274.112 221.281 274.017 221.269C273.929 221.256 273.746 222.201 273.614 223.373C273.482 224.545 273.444 225.509 273.532 225.515Z" fill="#1F1F1F"/>
<path d="M279.958 199.931C279.863 199.918 279.655 201.002 279.277 202.306C278.906 203.61 278.515 204.643 278.597 204.681C278.673 204.719 279.208 203.723 279.586 202.394C279.977 201.065 280.046 199.943 279.958 199.931Z" fill="#1F1F1F"/>
<path d="M284.487 214.849C284.532 214.767 283.65 214.232 282.629 213.482C281.602 212.739 280.821 212.071 280.758 212.134C280.695 212.19 281.394 212.984 282.44 213.74C283.479 214.503 284.443 214.925 284.487 214.849Z" fill="#1F1F1F"/>
<path d="M290.627 210.269C290.633 210.175 289.606 210.049 288.365 209.809C287.117 209.576 286.122 209.312 286.091 209.4C286.059 209.482 287.036 209.885 288.302 210.124C289.574 210.37 290.627 210.357 290.627 210.269Z" fill="#1F1F1F"/>
<path d="M284.65 205.153C284.6 205.078 284.02 205.361 283.358 205.79C282.691 206.218 282.193 206.621 282.237 206.697C282.287 206.772 282.867 206.489 283.529 206.061C284.196 205.632 284.694 205.229 284.65 205.153Z" fill="#1F1F1F"/>
<path d="M287.638 199.628C287.587 199.559 286.863 200.044 286.164 200.844C285.464 201.644 285.086 202.425 285.162 202.469C285.244 202.52 285.729 201.833 286.409 201.058C287.083 200.277 287.694 199.697 287.638 199.628Z" fill="#1F1F1F"/>
<path d="M291.707 204.895C291.67 204.807 290.756 205.109 289.616 205.418C288.476 205.727 287.53 205.928 287.543 206.016C287.556 206.105 288.532 206.041 289.698 205.727C290.863 205.412 291.739 204.971 291.707 204.895Z" fill="#1F1F1F"/>
<path d="M263.509 197.808C263.578 197.751 262.69 196.548 261.675 195.01C260.655 193.479 259.893 192.188 259.811 192.232C259.735 192.27 260.378 193.637 261.411 195.187C262.431 196.737 263.446 197.864 263.509 197.808Z" fill="#1F1F1F"/>
<path d="M265.322 191.362C265.41 191.35 265.341 190.273 265.171 188.956C264.995 187.639 264.787 186.581 264.699 186.593C264.61 186.606 264.68 187.683 264.85 189C265.02 190.317 265.234 191.375 265.322 191.362Z" fill="#1F1F1F"/>
<path d="M271.584 192.364C271.49 192.346 271.225 193.587 270.608 195.004C269.997 196.428 269.272 197.467 269.354 197.524C269.417 197.581 270.274 196.598 270.904 195.13C271.54 193.675 271.666 192.371 271.584 192.364Z" fill="#1F1F1F"/>
<path d="M278.94 193.92C278.865 193.863 277.951 194.941 276.685 196.125C275.425 197.316 274.291 198.166 274.341 198.242C274.386 198.311 275.62 197.574 276.906 196.358C278.197 195.161 279.01 193.971 278.94 193.92Z" fill="#1F1F1F"/>
<path d="M276.094 180.558C276 180.545 275.716 181.9 275.212 183.532C274.715 185.163 274.179 186.442 274.267 186.486C274.343 186.524 275.011 185.283 275.521 183.632C276.038 181.969 276.183 180.571 276.094 180.558Z" fill="#1F1F1F"/>
<path d="M267.616 176.161C267.528 176.155 267.389 177.219 267.307 178.542C267.225 179.859 267.231 180.936 267.326 180.943C267.414 180.949 267.553 179.884 267.635 178.561C267.717 177.238 267.71 176.167 267.616 176.161Z" fill="#1F1F1F"/>
<path d="M250.118 187.463C250.093 187.375 249.293 187.513 248.297 187.595C247.302 187.677 246.483 187.671 246.477 187.759C246.464 187.841 247.296 187.998 248.323 187.916C249.349 187.835 250.143 187.545 250.118 187.463Z" fill="#1F1F1F"/>
<path d="M250.636 183.047C250.68 182.965 249.559 182.291 248.129 181.535C246.705 180.779 245.514 180.231 245.47 180.306C245.426 180.382 246.547 181.062 247.977 181.818C249.401 182.581 250.592 183.129 250.636 183.047Z" fill="#1F1F1F"/>
<path d="M255.366 183.204C255.455 183.179 255.209 182.171 254.831 180.955C254.453 179.739 254.075 178.775 253.987 178.807C253.899 178.832 254.144 179.84 254.522 181.056C254.9 182.272 255.278 183.236 255.366 183.204Z" fill="#1F1F1F"/>
<g opacity="0.3">
<g opacity="0.3">
<g opacity="0.3">
<g opacity="0.3">
<g opacity="0.3">
<g opacity="0.3">
<g opacity="0.3">
<path opacity="0.3" d="M268.617 237.863C268.661 235.557 269.94 233.201 271.849 231.922C273.764 230.637 277.204 230.511 278.559 231.475C276.555 231.456 274.281 232.313 272.674 233.503C271.068 234.694 269.707 236.175 268.617 237.863Z" fill="#1F1F1F"/>
</g>
</g>
</g>
</g>
</g>
</g>
</g>
<g opacity="0.3">
<g opacity="0.3">
<g opacity="0.3">
<g opacity="0.3">
<g opacity="0.3">
<g opacity="0.3">
<g opacity="0.3">
<path opacity="0.3" d="M261.125 208.234C261.957 206.42 263.784 204.99 265.749 204.63C267.715 204.271 270.493 205.361 271.23 206.596C269.643 205.884 267.545 205.783 265.856 206.174C264.168 206.565 262.574 207.27 261.125 208.234Z" fill="#1F1F1F"/>
</g>
</g>
</g>
</g>
</g>
</g>
</g>
<g opacity="0.3">
<g opacity="0.3">
<g opacity="0.3">
<g opacity="0.3">
<g opacity="0.3">
<g opacity="0.3">
<g opacity="0.3">
<path opacity="0.3" d="M256.175 190.619C255.4 189.277 255.28 187.576 255.86 186.14C256.439 184.703 257.567 183.998 259.054 183.569C257.529 185.781 256.332 188.017 256.219 190.701" fill="#1F1F1F"/>
</g>
</g>
</g>
</g>
</g>
</g>
</g>
<path d="M286.821 233.881C286.802 233.906 287.073 234.114 287.476 234.587C287.873 235.053 288.415 235.778 288.944 236.741C289.921 238.701 290.803 241.693 291.055 245.051C291.313 248.422 290.96 251.49 290.626 253.676C290.456 254.772 290.293 255.654 290.179 256.265C290.059 256.876 290.009 257.216 290.034 257.223C290.059 257.229 290.154 256.901 290.318 256.297C290.475 255.692 290.677 254.816 290.878 253.72C291.275 251.534 291.679 248.441 291.414 245.026C291.156 241.611 290.23 238.606 289.171 236.615C288.604 235.645 288.025 234.94 287.584 234.492C287.136 234.039 286.834 233.862 286.821 233.881Z" fill="#1F1F1F"/>
<path d="M260.188 257.229C260.188 257.236 260.244 257.242 260.364 257.248C260.496 257.255 260.666 257.261 260.874 257.267C261.347 257.273 262.008 257.286 262.846 257.299C264.585 257.311 267.055 257.33 270.097 257.349C276.24 257.362 284.682 257.381 294.012 257.399C303.21 257.381 311.545 257.368 317.637 257.355L317.524 257.242C317.536 260.373 317.543 262.918 317.555 264.701C317.568 265.564 317.574 266.245 317.58 266.73C317.587 266.944 317.593 267.12 317.593 267.259C317.599 267.379 317.606 267.442 317.612 267.442C317.618 267.442 317.625 267.379 317.631 267.259C317.637 267.12 317.644 266.95 317.65 266.73C317.656 266.245 317.669 265.564 317.688 264.701C317.707 262.918 317.732 260.373 317.763 257.242V257.129H317.643C311.545 257.116 303.21 257.103 294.019 257.084C284.688 257.103 276.246 257.122 270.104 257.135C267.061 257.154 264.591 257.173 262.852 257.185C262.015 257.198 261.353 257.21 260.881 257.217C260.673 257.223 260.503 257.229 260.37 257.236C260.244 257.217 260.188 257.223 260.188 257.229Z" fill="#1F1F1F"/>
<path d="M199.516 52.687L204.285 149.102L221.326 148.781V173.987L245.487 149.165H322.655L331.324 47.7478L199.516 52.687Z" fill="white"/>
<path d="M199.516 52.6871C200.788 52.6367 252.883 50.627 331.318 47.603L331.482 47.5967L331.469 47.7605C328.886 78.0131 325.944 112.556 322.819 149.178L322.807 149.329H322.655C319.984 149.329 317.111 149.329 314.22 149.329C290.311 149.329 267.209 149.323 245.487 149.323L245.6 149.272C237.227 157.866 229.157 166.156 221.433 174.082L221.181 174.346V173.981C221.188 165.224 221.188 156.826 221.194 148.775L221.333 148.913C215.442 149.02 209.766 149.127 204.291 149.228H204.165L204.159 149.102C201.33 90.3422 199.566 53.7518 199.516 52.6871C199.572 53.7518 201.431 90.3359 204.417 149.09L204.285 148.964C209.759 148.857 215.429 148.749 221.326 148.636H221.465V148.775C221.465 156.826 221.471 165.218 221.471 173.981L221.219 173.88C228.937 165.948 237.001 157.658 245.367 149.058L245.411 149.008H245.48C267.203 149.008 290.305 149.001 314.213 149.001C317.105 149.001 319.978 149.001 322.649 149.001L322.485 149.153C325.623 112.531 328.584 77.9879 331.173 47.7353L331.324 47.8928C252.883 50.7467 200.788 52.643 199.516 52.6871Z" fill="#1F1F1F"/>
<path d="M310.836 76.7091L318.541 58.2627L325.143 62.1813L310.836 76.7091Z" fill="#4CBDE2"/>
<path d="M318.414 90.802L338.694 92.1439L337.1 99.7858L318.414 90.802Z" fill="#4CBDE2"/>
<path d="M315.512 80.4323L341.959 65.2871L347.138 76.8161L315.512 80.4323Z" fill="#4CBDE2"/>
<path d="M285.972 62.9058L287.138 65.7282L289.96 66.8937L287.138 68.0529L285.972 70.8816L284.813 68.0529L281.984 66.8937L284.813 65.7282L285.972 62.9058Z" fill="#4CBDE2"/>
<path d="M218.902 130.618L220.067 133.447L222.89 134.606L220.067 135.771L218.902 138.594L217.743 135.771L214.914 134.606L217.743 133.447L218.902 130.618Z" fill="#4CBDE2"/>
<path d="M276.393 61.1165L276.979 62.5277L278.39 63.1135L276.979 63.6931L276.393 65.1043L275.814 63.6931L274.402 63.1135L275.814 62.5277L276.393 61.1165Z" fill="#4CBDE2"/>
<path d="M229.182 129.471L229.762 130.889L231.179 131.469L229.762 132.048L229.182 133.459L228.603 132.048L227.191 131.469L228.603 130.889L229.182 129.471Z" fill="#4CBDE2"/>
<path d="M318.856 109.204L319.436 110.616L320.854 111.195L319.436 111.775L318.856 113.192L318.277 111.775L316.859 111.195L318.277 110.616L318.856 109.204Z" fill="#4CBDE2"/>
<path d="M221.261 97.5C221.087 97.5 220.931 97.4393 220.793 97.318C220.671 97.1793 220.611 97.0233 220.611 96.85V79.95C220.611 79.7593 220.671 79.6033 220.793 79.482C220.931 79.3607 221.087 79.3 221.261 79.3H224.537C224.727 79.3 224.883 79.3607 225.005 79.482C225.126 79.6033 225.187 79.7593 225.187 79.95V85.722L229.997 79.794C230.205 79.4647 230.543 79.3 231.011 79.3H234.755C234.911 79.3 235.041 79.3607 235.145 79.482C235.249 79.586 235.301 79.7073 235.301 79.846C235.301 79.9673 235.275 80.0713 235.223 80.158L228.983 88.01L235.691 96.642C235.76 96.7113 235.795 96.8153 235.795 96.954C235.795 97.0927 235.743 97.2227 235.639 97.344C235.535 97.448 235.405 97.5 235.249 97.5H231.375C230.959 97.5 230.612 97.3267 230.335 96.98L225.187 90.558V96.85C225.187 97.0407 225.126 97.1967 225.005 97.318C224.883 97.4393 224.727 97.5 224.537 97.5H221.261ZM238.501 97.5C238.328 97.5 238.172 97.4393 238.033 97.318C237.912 97.1793 237.851 97.0233 237.851 96.85V79.95C237.851 79.7593 237.912 79.6033 238.033 79.482C238.172 79.3607 238.328 79.3 238.501 79.3H250.643C250.834 79.3 250.99 79.3607 251.111 79.482C251.232 79.6033 251.293 79.7593 251.293 79.95V82.394C251.293 82.5673 251.232 82.7233 251.111 82.862C250.99 82.9833 250.834 83.044 250.643 83.044H242.349V86.554H250.071C250.262 86.554 250.418 86.6233 250.539 86.762C250.66 86.8833 250.721 87.0393 250.721 87.23V89.492C250.721 89.6653 250.66 89.8213 250.539 89.96C250.418 90.0813 250.262 90.142 250.071 90.142H242.349V93.756H250.851C251.042 93.756 251.198 93.8167 251.319 93.938C251.44 94.0593 251.501 94.2153 251.501 94.406V96.85C251.501 97.0233 251.44 97.1793 251.319 97.318C251.198 97.4393 251.042 97.5 250.851 97.5H238.501ZM255.107 97.5C254.933 97.5 254.777 97.4393 254.639 97.318C254.517 97.1793 254.457 97.0233 254.457 96.85V79.95C254.457 79.7593 254.517 79.6033 254.639 79.482C254.777 79.3607 254.933 79.3 255.107 79.3H262.179C264.449 79.3 266.217 79.82 267.483 80.86C268.765 81.8827 269.407 83.3387 269.407 85.228C269.407 86.4413 269.121 87.4727 268.549 88.322C267.977 89.1713 267.188 89.8213 266.183 90.272L269.745 96.668C269.797 96.772 269.823 96.8673 269.823 96.954C269.823 97.0927 269.762 97.2227 269.641 97.344C269.537 97.448 269.415 97.5 269.277 97.5H265.819C265.316 97.5 264.961 97.266 264.753 96.798L261.789 91.078H259.137V96.85C259.137 97.0407 259.067 97.1967 258.929 97.318C258.807 97.4393 258.651 97.5 258.461 97.5H255.107ZM262.127 87.386C262.924 87.386 263.531 87.1953 263.947 86.814C264.363 86.4153 264.571 85.8693 264.571 85.176C264.571 84.4827 264.363 83.9367 263.947 83.538C263.548 83.122 262.941 82.914 262.127 82.914H259.137V87.386H262.127ZM278.573 97.76C277.238 97.76 275.999 97.5347 274.855 97.084C273.728 96.616 272.818 95.9313 272.125 95.03C271.449 94.1287 271.093 93.0453 271.059 91.78C271.059 91.624 271.111 91.494 271.215 91.39C271.319 91.2687 271.457 91.208 271.631 91.208H275.141C275.366 91.208 275.539 91.2687 275.661 91.39C275.799 91.5113 275.921 91.6933 276.025 91.936C276.302 93.3227 277.195 94.016 278.703 94.016C279.569 94.016 280.237 93.73 280.705 93.158C281.173 92.586 281.407 91.7627 281.407 90.688V83.174H272.983C272.809 83.174 272.653 83.1133 272.515 82.992C272.393 82.8533 272.333 82.6973 272.333 82.524V79.95C272.333 79.7593 272.393 79.6033 272.515 79.482C272.653 79.3607 272.809 79.3 272.983 79.3H285.567C285.757 79.3 285.913 79.3607 286.035 79.482C286.173 79.6033 286.243 79.7593 286.243 79.95V90.818C286.243 92.2913 285.922 93.548 285.281 94.588C284.639 95.628 283.738 96.4167 282.577 96.954C281.415 97.4913 280.081 97.76 278.573 97.76ZM288.278 97.5C288.139 97.5 288.009 97.448 287.888 97.344C287.784 97.2227 287.732 97.0927 287.732 96.954C287.732 96.85 287.741 96.772 287.758 96.72L293.868 80.028C293.92 79.82 294.033 79.6467 294.206 79.508C294.379 79.3693 294.605 79.3 294.882 79.3H298.73C299.007 79.3 299.233 79.3693 299.406 79.508C299.579 79.6467 299.692 79.82 299.744 80.028L305.828 96.72L305.88 96.954C305.88 97.0927 305.819 97.2227 305.698 97.344C305.594 97.448 305.464 97.5 305.308 97.5H302.11C301.694 97.5 301.417 97.318 301.278 96.954L300.264 94.302H293.322L292.334 96.954C292.195 97.318 291.909 97.5 291.476 97.5H288.278ZM299.224 90.558L296.806 83.694L294.388 90.558H299.224Z" fill="#4CBDE2"/>
<path d="M240.474 121.05C239.207 121.05 238.121 120.863 237.214 120.49C236.307 120.117 235.621 119.63 235.154 119.03C234.701 118.417 234.461 117.75 234.434 117.03C234.434 116.923 234.474 116.83 234.554 116.75C234.647 116.657 234.754 116.61 234.874 116.61H237.394C237.554 116.61 237.681 116.643 237.774 116.71C237.881 116.763 237.987 116.85 238.094 116.97C238.267 117.317 238.547 117.603 238.934 117.83C239.321 118.057 239.834 118.17 240.474 118.17C241.234 118.17 241.814 118.05 242.214 117.81C242.614 117.57 242.814 117.243 242.814 116.83C242.814 116.537 242.707 116.297 242.494 116.11C242.294 115.923 241.974 115.757 241.534 115.61C241.094 115.463 240.441 115.297 239.574 115.11C237.974 114.777 236.774 114.29 235.974 113.65C235.187 112.997 234.794 112.07 234.794 110.87C234.794 110.057 235.021 109.33 235.474 108.69C235.927 108.05 236.574 107.55 237.414 107.19C238.254 106.83 239.234 106.65 240.354 106.65C241.514 106.65 242.521 106.85 243.374 107.25C244.227 107.65 244.874 108.157 245.314 108.77C245.767 109.37 246.007 109.963 246.034 110.55C246.034 110.67 245.994 110.77 245.914 110.85C245.834 110.93 245.734 110.97 245.614 110.97H242.974C242.814 110.97 242.681 110.943 242.574 110.89C242.481 110.837 242.394 110.75 242.314 110.63C242.234 110.323 242.014 110.063 241.654 109.85C241.307 109.637 240.874 109.53 240.354 109.53C239.754 109.53 239.294 109.637 238.974 109.85C238.654 110.063 238.494 110.377 238.494 110.79C238.494 111.07 238.581 111.303 238.754 111.49C238.941 111.677 239.234 111.85 239.634 112.01C240.047 112.157 240.634 112.31 241.394 112.47C242.634 112.697 243.621 112.983 244.354 113.33C245.101 113.663 245.647 114.103 245.994 114.65C246.341 115.183 246.514 115.857 246.514 116.67C246.514 117.563 246.254 118.343 245.734 119.01C245.227 119.663 244.514 120.17 243.594 120.53C242.687 120.877 241.647 121.05 240.474 121.05ZM247.501 120.85C247.394 120.85 247.294 120.81 247.201 120.73C247.121 120.637 247.081 120.537 247.081 120.43C247.081 120.35 247.087 120.29 247.101 120.25L251.801 107.41C251.841 107.25 251.927 107.117 252.061 107.01C252.194 106.903 252.367 106.85 252.581 106.85H255.541C255.754 106.85 255.927 106.903 256.061 107.01C256.194 107.117 256.281 107.25 256.321 107.41L261.001 120.25L261.041 120.43C261.041 120.537 260.994 120.637 260.901 120.73C260.821 120.81 260.721 120.85 260.601 120.85H258.141C257.821 120.85 257.607 120.71 257.501 120.43L256.721 118.39H251.381L250.621 120.43C250.514 120.71 250.294 120.85 249.961 120.85H247.501ZM255.921 115.51L254.061 110.23L252.201 115.51H255.921ZM263.117 120.85C262.984 120.85 262.864 120.803 262.757 120.71C262.664 120.603 262.617 120.483 262.617 120.35V107.35C262.617 107.203 262.664 107.083 262.757 106.99C262.864 106.897 262.984 106.85 263.117 106.85H265.277C265.597 106.85 265.831 106.997 265.977 107.29L269.497 113.59L273.017 107.29C273.164 106.997 273.397 106.85 273.717 106.85H275.857C276.004 106.85 276.124 106.897 276.217 106.99C276.324 107.083 276.377 107.203 276.377 107.35V120.35C276.377 120.497 276.324 120.617 276.217 120.71C276.124 120.803 276.004 120.85 275.857 120.85H273.477C273.331 120.85 273.204 120.803 273.097 120.71C273.004 120.617 272.957 120.497 272.957 120.35V112.85L270.717 117.03C270.544 117.337 270.311 117.49 270.017 117.49H268.977C268.804 117.49 268.664 117.45 268.557 117.37C268.451 117.29 268.357 117.177 268.277 117.03L266.017 112.85V120.35C266.017 120.483 265.971 120.603 265.877 120.71C265.784 120.803 265.664 120.85 265.517 120.85H263.117ZM278.38 120.85C278.273 120.85 278.173 120.81 278.08 120.73C278 120.637 277.96 120.537 277.96 120.43C277.96 120.35 277.966 120.29 277.98 120.25L282.68 107.41C282.72 107.25 282.806 107.117 282.94 107.01C283.073 106.903 283.246 106.85 283.46 106.85H286.42C286.633 106.85 286.806 106.903 286.94 107.01C287.073 107.117 287.16 107.25 287.2 107.41L291.88 120.25L291.92 120.43C291.92 120.537 291.873 120.637 291.78 120.73C291.7 120.81 291.6 120.85 291.48 120.85H289.02C288.7 120.85 288.486 120.71 288.38 120.43L287.6 118.39H282.26L281.5 120.43C281.393 120.71 281.173 120.85 280.84 120.85H278.38ZM286.8 115.51L284.94 110.23L283.08 115.51H286.8Z" fill="#4CBDE2"/>
<path d="M121.52 73.6657C123.334 67.6933 127.662 62.5273 133.225 59.6923C139.336 56.5738 146.612 56.3092 153.297 57.8464C159.981 59.3836 166.155 62.6028 171.995 66.2064C175.271 68.2288 178.528 70.4401 180.834 73.5208C185.042 79.1404 189.106 88.2879 189.326 95.3124C189.503 100.989 186.932 115.113 184.387 120.191C183.48 121.999 181.363 123.599 178.812 124.941C176.065 129.95 172.48 134.486 168.158 138.228C166.955 134.385 165.752 130.542 164.542 126.699L121.52 73.6657Z" fill="#1F1F1F"/>
<path d="M191.801 143.734C194.567 133.503 193.351 120.903 192.916 112.146C192.481 103.389 194.415 99.6153 187.826 84.9489C182.886 73.968 174.728 67.3152 166.947 63.2769L135.536 66.6978C135.756 66.1434 135.983 65.6016 136.21 65.0976L124.983 66.7734C120.857 66.2694 118.003 68.235 116.006 71.3976C115.325 72.1662 114.733 73.023 114.267 73.9239C112.78 76.8156 112.289 80.0916 111.816 83.3109C111.381 86.2782 111.186 89.5164 111.136 92.9058C111.041 94.1784 110.966 95.2935 110.877 96.1629C110.764 97.2969 110.915 98.7333 111.224 100.327C111.684 113.822 113.416 128.696 111.772 139.897C111.602 141.069 111.438 142.323 111.955 143.388C112.509 144.522 113.7 145.183 114.846 145.725C128.776 152.34 138.629 144.402 152.401 137.459C155.078 136.105 157.819 134.473 160.818 134.587C163.993 134.706 166.62 143.016 169.524 144.295" fill="#1F1F1F"/>
<path d="M177.235 92.484C176.876 83.9727 171.577 76.8474 163.387 74.5101L137.854 67.2147C126.772 65.6964 118.96 79.1595 117.914 90.2916C116.755 102.665 115.879 115.725 117.064 125.017C119.445 143.703 133.626 146.506 133.626 146.506C133.626 146.481 133.374 155.352 133.229 160.789L145.621 220.368L172.567 158.193L177.292 92.7108C177.31 92.3958 177.254 92.9124 177.235 92.484Z" fill="#FFBE9D"/>
<path d="M124.63 107.081C124.548 108.341 125.543 109.45 126.854 109.557C128.164 109.67 129.298 108.738 129.38 107.484C129.462 106.224 128.466 105.115 127.156 105.008C125.846 104.895 124.718 105.827 124.63 107.081Z" fill="#1F1F1F"/>
<path d="M120.505 97.6622C120.788 97.9835 122.64 96.6983 125.204 96.7865C127.769 96.8369 129.614 98.2166 129.898 97.9079C130.037 97.7756 129.753 97.2023 128.953 96.5786C128.165 95.9612 126.805 95.3375 125.204 95.2934C123.604 95.2556 122.243 95.7974 121.45 96.377C120.65 96.9629 120.36 97.5173 120.505 97.6622Z" fill="#1F1F1F"/>
<path d="M146.516 107.446C146.435 108.706 147.43 109.815 148.74 109.922C150.051 110.036 151.178 109.103 151.267 107.85C151.349 106.59 150.353 105.481 149.043 105.374C147.732 105.26 146.598 106.193 146.516 107.446Z" fill="#1F1F1F"/>
<path d="M144.88 98.3555C145.169 98.6768 147.015 97.3916 149.579 97.4798C152.144 97.5302 153.989 98.9036 154.273 98.6012C154.412 98.4689 154.134 97.8956 153.328 97.2719C152.54 96.6545 151.18 96.0308 149.579 95.9867C147.979 95.9489 146.618 96.497 145.825 97.0703C145.025 97.6562 144.735 98.2106 144.88 98.3555Z" fill="#1F1F1F"/>
<path d="M136.279 118.282C136.298 118.137 134.71 117.81 132.134 117.4C131.478 117.312 130.867 117.161 130.766 116.714C130.628 116.235 130.924 115.536 131.264 114.786C131.932 113.217 132.625 111.579 133.356 109.853C136.266 102.828 138.396 97.0513 138.112 96.9316C137.829 96.8182 135.239 102.413 132.329 109.437C131.63 111.17 130.955 112.82 130.319 114.402C130.048 115.139 129.595 115.97 129.897 116.966C130.061 117.463 130.527 117.829 130.943 117.955C131.359 118.093 131.73 118.112 132.052 118.144C134.647 118.371 136.266 118.427 136.279 118.282Z" fill="#1F1F1F"/>
<path d="M158.485 140.603C158.485 140.603 152.065 153.203 133.512 150.891L133.631 146.519C133.625 146.512 145.86 147.672 158.485 140.603Z" fill="#EB996E"/>
<path d="M145.949 86.688C146.182 87.3936 148.752 87.1416 151.751 87.5952C154.763 87.9921 157.163 88.9434 157.579 88.3323C157.768 88.0362 157.364 87.3684 156.401 86.6628C155.449 85.9572 153.912 85.2705 152.117 85.0122C150.315 84.7602 148.652 84.9933 147.543 85.4091C146.421 85.8186 145.848 86.3541 145.949 86.688Z" fill="#1F1F1F"/>
<path d="M121.077 86.4421C121.512 87.0406 123.295 86.4862 125.424 86.524C127.554 86.4862 129.337 87.0343 129.771 86.4421C129.96 86.1523 129.696 85.5601 128.927 84.9805C128.171 84.4072 126.886 83.9158 125.424 83.9158C123.963 83.9158 122.678 84.4072 121.922 84.9805C121.147 85.5601 120.882 86.1523 121.077 86.4421Z" fill="#1F1F1F"/>
<path d="M123.453 73.4517C124.669 70.686 127.788 69.0921 130.812 69.0291C133.836 68.9598 136.746 70.1883 139.317 71.7759C150.209 78.4917 155.464 94.122 166.218 101.058C168.864 102.766 172.411 101.373 174.634 103.597C176.865 105.821 178.251 109.311 176.902 112.153C178.433 110.181 179.977 108.165 180.884 105.84C181.785 103.509 181.968 100.781 180.783 98.5824C179.882 96.9129 178.244 95.6151 177.841 93.7629C177.482 92.1375 178.169 90.4617 178.15 88.7922C178.125 87.0975 177.375 85.4973 176.581 83.9979C172.511 76.293 166.81 69.2685 159.338 64.7892C154.456 61.8597 148.83 60.0705 143.134 60.102C137.439 60.1335 131.7 62.0613 127.429 65.8224C124.915 68.0337 122.275 70.3206 123.453 73.4517Z" fill="#1F1F1F"/>
<path d="M174.304 105.89C174.512 105.361 184.315 102.136 184.151 112.455C183.987 122.478 173.939 120.217 173.926 119.927C173.913 119.637 174.304 105.89 174.304 105.89Z" fill="#FFBE9D"/>
<path d="M177.089 116.184C177.133 116.153 177.259 116.31 177.555 116.449C177.839 116.587 178.336 116.688 178.859 116.499C179.924 116.134 180.85 114.464 180.932 112.663C180.976 111.749 180.8 110.88 180.491 110.155C180.201 109.418 179.735 108.895 179.206 108.788C178.677 108.656 178.292 108.964 178.166 109.248C178.028 109.525 178.084 109.727 178.034 109.746C178.002 109.771 177.82 109.576 177.914 109.16C177.958 108.958 178.078 108.725 178.317 108.542C178.563 108.353 178.916 108.259 179.288 108.303C180.063 108.372 180.743 109.097 181.083 109.891C181.467 110.691 181.682 111.673 181.638 112.694C181.537 114.71 180.466 116.581 179.01 116.972C178.305 117.142 177.719 116.915 177.417 116.676C177.102 116.43 177.051 116.203 177.089 116.184Z" fill="#EB996E"/>
<path d="M178.437 100.85C178.431 100.863 178.223 100.743 177.845 100.497C177.467 100.245 176.888 99.8988 176.195 99.3822C174.821 98.3301 172.925 96.6732 170.928 94.3044C168.912 91.9482 166.826 88.9116 164.558 85.5222C162.29 82.1391 159.802 78.3969 156.583 74.9949C154.945 73.3317 153.212 71.826 151.366 70.629C149.527 69.4194 147.586 68.5185 145.677 67.8507C141.853 66.5025 138.161 66.1245 135.1 66.2442C132.032 66.3513 129.587 66.9309 127.949 67.4349C127.118 67.6617 126.5 67.92 126.072 68.0712C125.643 68.2224 125.417 68.298 125.41 68.2854C125.404 68.2728 125.618 68.172 126.034 67.9893C126.45 67.8129 127.061 67.5231 127.892 67.2711C129.524 66.7104 131.981 66.0741 135.081 65.9292C138.168 65.7654 141.923 66.1119 145.81 67.4601C147.75 68.1279 149.728 69.0351 151.599 70.2636C153.483 71.4795 155.241 73.0041 156.898 74.6925C160.148 78.1386 162.643 81.9123 164.892 85.308C167.135 88.71 169.189 91.7529 171.161 94.1154C173.114 96.4905 174.96 98.1726 176.289 99.2625C176.957 99.798 177.524 100.163 177.883 100.441C178.255 100.693 178.444 100.838 178.437 100.85Z" fill="#1B3A59"/>
<path d="M178.179 117.993C179.162 117.841 180.195 118.547 180.409 119.517C180.623 120.487 179.981 121.565 179.03 121.842C178.078 122.119 176.957 121.54 176.623 120.607C176.289 119.675 176.793 118.522 177.707 118.131" fill="white"/>
<path d="M177.706 118.125C177.763 118.188 177.045 118.452 176.767 119.448C176.635 119.92 176.686 120.556 177.114 121.029C177.523 121.501 178.273 121.81 178.966 121.615C179.653 121.413 180.132 120.752 180.22 120.134C180.333 119.504 180.037 118.944 179.672 118.61C178.909 117.917 178.16 118.074 178.172 117.992C178.166 117.967 178.33 117.892 178.645 117.898C178.954 117.898 179.432 118.005 179.88 118.37C180.327 118.711 180.749 119.404 180.629 120.197C180.535 120.966 179.987 121.785 179.08 122.062C178.166 122.308 177.265 121.905 176.78 121.306C176.257 120.689 176.251 119.882 176.446 119.359C176.635 118.811 176.982 118.471 177.246 118.301C177.517 118.125 177.694 118.099 177.706 118.125Z" fill="#1F1F1F"/>
<path d="M175.836 103.616C175.917 106.356 175.955 109.248 174.626 111.642C173.29 114.036 170.058 115.598 167.715 114.174C165.806 113.009 165.296 110.508 165.031 108.29C164.262 101.883 164.01 95.4194 163.191 89.0186L175.836 103.616Z" fill="#1F1F1F"/>
<path d="M126.059 68.7579C126.065 68.8146 126.947 68.6193 128.554 68.613C130.154 68.613 132.504 68.8965 135.15 70.0116C136.466 70.566 137.865 71.2968 139.245 72.267C140.624 73.2372 142.023 74.3901 143.434 75.6627C146.238 78.2268 149.129 81.3012 151.567 84.9426C152.79 86.7633 153.861 88.6344 155.039 90.3732C156.198 92.112 157.502 93.6933 158.926 95.0037C161.767 97.6182 164.716 99.4767 167.229 100.907C169.756 102.337 171.866 103.345 173.328 104.044C174.014 104.359 174.575 104.618 175.022 104.825C175.413 104.996 175.621 105.077 175.627 105.059C175.633 105.04 175.444 104.926 175.073 104.718C174.644 104.492 174.096 104.202 173.428 103.843C171.998 103.087 169.913 102.022 167.431 100.56C164.955 99.0924 162.057 97.215 159.279 94.6194C157.899 93.3279 156.639 91.7844 155.492 90.0582C154.339 88.3383 153.268 86.4672 152.034 84.6276C149.564 80.9295 146.628 77.8425 143.781 75.2721C142.344 73.9995 140.92 72.8466 139.509 71.8764C138.092 70.9062 136.655 70.1817 135.301 69.6336C132.586 68.5374 130.173 68.3169 128.554 68.3799C127.741 68.4114 127.111 68.4996 126.695 68.5878C126.267 68.6823 126.052 68.739 126.059 68.7579Z" fill="#1B3A59"/>
<path d="M146.496 124.752C146.421 123.788 146.1 122.868 145.785 121.955C145.665 121.608 145.514 121.23 145.186 121.067C144.858 120.903 144.462 121.016 144.115 121.13C142.011 121.81 139.308 123.057 137.204 123.744C136.883 125.149 137.343 126.768 138.237 127.915C138.918 128.79 140.694 129.143 141.803 129.131C143.403 129.112 144.714 128.702 145.747 127.474C146.37 126.737 146.566 125.716 146.496 124.752Z" fill="#EB996E"/>
<path d="M139.126 128.167C139.182 128.028 140.247 128.954 142.213 128.778C143.164 128.684 144.311 128.268 145.104 127.316C145.898 126.378 146.308 124.922 146.012 123.524C145.86 122.843 145.539 122.157 145.104 121.741C144.689 121.319 144.147 121.426 143.517 121.665C142.351 122.144 141.249 122.591 140.209 123.02C138.319 123.77 137.116 124.185 137.072 124.091C137.022 123.99 138.137 123.398 139.983 122.51C141.003 122.031 142.093 121.527 143.246 120.991C143.567 120.865 143.926 120.72 144.367 120.701C144.808 120.67 145.306 120.872 145.621 121.174C146.257 121.772 146.591 122.541 146.787 123.366C147.133 125.03 146.635 126.712 145.659 127.808C144.663 128.917 143.309 129.32 142.251 129.351C141.167 129.383 140.323 129.068 139.812 128.772C139.302 128.463 139.094 128.205 139.126 128.167Z" fill="#1F1F1F"/>
<path d="M156.042 112.877C156.004 112.927 155.456 112.48 154.441 112.001C153.938 111.755 153.308 111.535 152.596 111.352C151.877 111.188 151.071 111.075 150.221 111.069C149.37 111.075 148.564 111.188 147.845 111.346C147.133 111.529 146.504 111.749 146 111.989C144.985 112.467 144.437 112.908 144.399 112.858C144.387 112.839 144.513 112.719 144.758 112.518C144.878 112.411 145.036 112.291 145.231 112.178C145.426 112.058 145.634 111.907 145.899 111.781C146.403 111.503 147.045 111.251 147.776 111.05C148.513 110.867 149.345 110.741 150.227 110.735C151.109 110.741 151.94 110.867 152.677 111.056C153.408 111.258 154.051 111.51 154.555 111.793C154.813 111.913 155.027 112.07 155.216 112.19C155.412 112.31 155.563 112.43 155.689 112.537C155.928 112.738 156.054 112.858 156.042 112.877Z" fill="#EB996E"/>
<path d="M99.8891 295.816L198.106 295.697L197.086 276.639L198.919 208.095L196.922 163.447C188.725 160.076 173.114 154.885 173.114 154.885C173.114 154.885 167.324 168.796 152.198 168.796C138.124 168.796 132.895 156.479 132.895 156.479L125.927 159.226C125.927 159.226 113.245 161.04 99.8828 166.54L103.36 214.193C103.36 214.193 110.668 254.287 109.415 261.387C108.167 268.481 99.8891 295.816 99.8891 295.816Z" fill="#4CBDE2"/>
<g opacity="0.3">
<g opacity="0.3">
<path opacity="0.3" d="M142.667 226.882C141.842 232.312 141.256 238.562 144.96 242.613C147.096 244.95 150.24 246.015 153.024 247.52C158.745 250.614 163.111 255.685 167.067 260.845C171.017 266.011 174.753 271.435 179.705 275.65C184.657 279.865 191.133 282.8 197.572 281.887L196.23 269.073L162.909 235.147L142.667 226.882Z" fill="#1F1F1F"/>
</g>
</g>
<path d="M101.15 166.068C101.15 166.068 93.3186 168.758 86.3256 183.122C82.0101 191.992 66.3672 246.122 65.7876 252.901C65.7498 253.323 65.7939 253.814 65.7372 254.343C63.6897 273.243 81.8022 286.297 97.1427 276.11C101.723 273.067 105.062 268.48 106.757 263.245L112.685 244.925L101.15 166.068Z" fill="#4CBDE2"/>
<path d="M146.56 254.551C146.509 254.627 139.813 250.551 131.597 245.448C123.382 240.338 116.761 236.136 116.805 236.061C116.855 235.985 123.552 240.061 131.767 245.164C139.983 250.273 146.604 254.475 146.56 254.551Z" fill="#1F1F1F"/>
<path d="M196.92 163.44C196.92 163.44 215.606 167.013 219.613 179.858C223.16 191.23 231.394 242.064 232.509 252.648C234.027 267.107 230.859 283.304 215.398 284.936C199.938 286.568 170.914 259.83 170.914 259.83L189.965 235.141L197.576 239.229L196.177 203.987L196.92 163.44Z" fill="#4CBDE2"/>
<path d="M203.058 282.303C203.058 282.309 202.995 282.284 202.876 282.24C202.743 282.19 202.567 282.12 202.347 282.032C201.887 281.831 201.175 281.597 200.318 281.163C198.573 280.337 196.116 278.983 193.155 277.099C187.252 273.288 179.364 267.359 170.809 259.957L170.695 259.862L170.79 259.743C173.127 256.712 175.603 253.499 178.155 250.192C182.294 244.831 186.25 239.715 189.847 235.059L189.923 234.958L190.036 235.015C194.264 237.17 198.075 239.35 201.471 241.309C204.86 243.268 207.828 245.032 210.272 246.5C212.716 247.968 214.65 249.152 215.961 249.965C216.603 250.368 217.107 250.683 217.46 250.904C217.618 251.005 217.744 251.086 217.845 251.149C217.933 251.206 217.971 251.238 217.971 251.244C217.971 251.25 217.92 251.225 217.832 251.175C217.731 251.118 217.599 251.042 217.435 250.948C217.076 250.734 216.566 250.438 215.91 250.047C214.562 249.253 212.622 248.1 210.177 246.658C207.72 245.209 204.747 243.47 201.345 241.529C197.943 239.589 194.125 237.428 189.904 235.286L190.093 235.242C186.496 239.904 182.552 245.026 178.419 250.387C175.868 253.688 173.385 256.901 171.048 259.932L171.029 259.718C179.559 267.126 187.416 273.08 193.275 276.929C196.217 278.838 198.655 280.211 200.375 281.068C201.225 281.516 201.924 281.768 202.378 281.982C202.599 282.083 202.769 282.158 202.901 282.215C203.002 282.265 203.065 282.297 203.058 282.303Z" fill="#1F1F1F"/>
<path d="M104.267 208.378C104.267 208.385 104.128 208.378 103.857 208.353C103.567 208.322 103.171 208.278 102.673 208.221C101.614 208.095 100.102 207.912 98.2124 207.679C94.3757 207.194 88.9892 206.507 82.6766 205.707L82.8404 205.6C81.7694 209.298 80.6228 213.374 79.451 217.639C76.9499 226.768 74.852 235.072 73.466 241.113C72.773 244.137 72.2564 246.588 71.9099 248.289C71.7461 249.121 71.6138 249.776 71.5193 250.248C71.4752 250.456 71.4374 250.626 71.4122 250.759C71.387 250.872 71.3681 250.929 71.3618 250.929C71.3555 250.929 71.3618 250.866 71.3744 250.752C71.3933 250.62 71.4185 250.45 71.45 250.236C71.5319 249.763 71.639 249.102 71.7776 248.264C72.0863 246.556 72.5651 244.093 73.2329 241.063C74.5559 235.002 76.6286 226.68 79.1297 217.551C80.3015 213.28 81.4481 209.21 82.538 205.512L82.5758 205.386L82.7081 205.405C89.0081 206.255 94.3946 206.98 98.225 207.496C100.109 207.761 101.614 207.975 102.673 208.12C103.171 208.196 103.561 208.252 103.851 208.297C104.128 208.347 104.267 208.372 104.267 208.378Z" fill="#1F1F1F"/>
<path d="M107.927 200.233C108.015 200.227 108.55 213.161 109.111 229.112C109.678 245.07 110.062 258.004 109.968 258.004C109.88 258.01 109.344 245.076 108.783 229.118C108.223 213.173 107.838 200.233 107.927 200.233Z" fill="#1F1F1F"/>
<path d="M196.242 206.06C196.255 206.06 196.261 206.18 196.267 206.401C196.267 206.659 196.267 206.98 196.267 207.371C196.267 208.209 196.274 209.425 196.311 210.924C196.374 213.929 196.532 218.074 196.752 222.655C196.992 227.209 197.206 231.336 197.37 234.379C197.445 235.84 197.508 237.044 197.552 237.932C197.565 238.323 197.578 238.644 197.59 238.902C197.596 239.123 197.59 239.242 197.584 239.242C197.571 239.242 197.552 239.129 197.527 238.909C197.502 238.65 197.47 238.335 197.433 237.945C197.363 237.056 197.263 235.859 197.149 234.398C196.929 231.399 196.658 227.254 196.437 222.673C196.217 218.093 196.091 213.942 196.091 210.93C196.085 209.425 196.11 208.209 196.154 207.371C196.179 206.98 196.198 206.659 196.211 206.401C196.217 206.174 196.229 206.06 196.242 206.06Z" fill="#1F1F1F"/>
<path d="M209.357 177.055C209.433 177.105 206.32 182.101 202.402 188.206C198.483 194.317 195.245 199.231 195.169 199.187C195.094 199.136 198.206 194.147 202.131 188.03C206.043 181.925 209.281 177.011 209.357 177.055Z" fill="#1F1F1F"/>
<path d="M113.358 164.707C111.197 164.802 110.983 163.623 108.602 167.145C106.22 170.667 107.575 174.774 103.606 175.461C99.6369 176.148 97.0917 167.662 96.7074 166.855C96.531 166.49 95.523 164.272 94.2 161.362C92.5935 157.827 90.5145 153.266 88.8891 149.745C85.9281 143.325 82.9356 145.902 82.9356 145.902L88.1457 164.638C88.1457 164.638 80.6298 150.696 77.442 147.615C74.2542 144.534 72.1248 147.231 72.1248 147.231L82.3056 167.051C82.3056 167.051 74.2668 155.906 71.9736 152.706C69.6804 149.505 67.7904 149.612 67.1415 150.652C66.4926 151.691 66.9525 153.739 67.7211 155.352C68.4897 156.964 78.2484 171.845 77.883 171.795C77.5176 171.744 69.6174 165.747 67.5195 164.694C65.4216 163.649 63.6702 164.524 63.4056 166.358C63.1473 168.197 78.4626 181.749 78.4626 181.749L85.1217 199.067L83.9562 205.821L103.19 208.07L103.524 198.021C103.524 198.021 107.827 191.425 109.383 186.644C110.939 181.868 113.327 169.457 114.133 168.197C114.94 166.956 115.513 164.619 113.358 164.707Z" fill="#FFBE9D"/>
<path d="M102.996 186.625C102.99 186.65 102.599 186.549 101.881 186.43C101.163 186.31 100.111 186.184 98.813 186.241C98.1641 186.266 97.4648 186.354 96.7025 186.48C95.9465 186.593 95.0897 186.726 94.2077 186.48C93.332 186.241 92.5508 185.648 91.9082 184.949C91.253 184.25 90.6986 183.437 90.0875 182.662C87.6431 179.518 84.9341 177.106 82.8614 175.524C81.8219 174.73 80.9525 174.138 80.3414 173.735C79.7303 173.332 79.3901 173.111 79.4027 173.092C79.409 173.08 79.5035 173.124 79.6736 173.218C79.8437 173.313 80.0957 173.445 80.4107 173.634C81.0407 174.006 81.9353 174.573 83 175.348C85.1231 176.885 87.8762 179.298 90.3458 182.467C90.9695 183.254 91.5176 184.061 92.1476 184.741C92.765 185.422 93.4895 185.976 94.2896 186.196C95.0897 186.43 95.9087 186.322 96.6647 186.215C97.4207 186.096 98.1515 186.02 98.8067 186.014C100.13 185.989 101.188 186.152 101.906 186.31C102.265 186.392 102.543 186.467 102.725 186.524C102.902 186.581 102.996 186.619 102.996 186.625Z" fill="#EB996E"/>
<path d="M141.973 193.914L142.818 237.333C142.862 239.551 144.695 241.309 146.913 241.264L165.208 240.874C167.35 240.83 169.076 239.104 169.126 236.962L170.179 193.933C170.235 191.683 168.421 189.825 166.172 189.825H145.987C143.731 189.825 141.929 191.671 141.973 193.914Z" fill="#1F1F1F"/>
<path d="M158.064 198.141C158.064 199.073 157.308 199.829 156.376 199.829C155.444 199.829 154.688 199.073 154.688 198.141C154.688 197.209 155.444 196.453 156.376 196.453C157.315 196.453 158.064 197.209 158.064 198.141Z" fill="white"/>
<path d="M169.723 203.874C169.723 203.874 174.958 210.073 176.886 212.826C178.814 215.579 179.507 224.538 179.507 224.538L180.748 234.87L188.062 239.122L174.373 256.378L163.102 245.889L152.241 241.894C152.241 241.894 144.933 235.008 143.692 231.84C142.45 228.671 142.589 226.188 142.589 226.188C142.589 226.188 139.143 218.748 138.456 216.134C137.77 213.513 137.77 208.832 137.77 208.832C137.77 208.832 139.697 208.284 141.354 211.446L138.733 206.073C138.733 206.073 140.113 201.94 143.692 205.934C147.276 209.928 153.198 216.682 153.198 216.682L159.952 222.056L160.777 221.092C160.777 221.092 148.788 206.488 149.065 203.868C149.343 201.247 151.819 201.114 154.439 203.868C157.06 206.621 167.802 220.399 169.181 220.537C170.561 220.676 170.971 218.748 170.971 218.748L170.007 213.513L169.459 212.41L169.723 203.874Z" fill="#FFBE9D"/>
<path d="M151.14 225.647C151.121 225.659 150.951 225.477 150.655 225.13C150.359 224.784 149.949 224.28 149.445 223.637C148.443 222.364 147.108 220.562 145.716 218.521C144.323 216.474 143.139 214.578 142.32 213.179C141.91 212.48 141.589 211.913 141.375 211.509C141.161 211.113 141.054 210.886 141.072 210.873C141.091 210.86 141.236 211.068 141.488 211.446C141.772 211.887 142.118 212.423 142.521 213.059C143.391 214.426 144.607 216.297 145.993 218.339C147.385 220.374 148.689 222.188 149.64 223.498C150.081 224.109 150.459 224.626 150.762 225.048C151.02 225.426 151.152 225.634 151.14 225.647Z" fill="#EB996E"/>
<path d="M147.905 232.552C147.829 232.602 146.374 230.706 144.647 228.318C142.921 225.924 141.586 223.946 141.655 223.889C141.731 223.839 143.186 225.735 144.912 228.123C146.645 230.51 147.98 232.495 147.905 232.552Z" fill="#EB996E"/>
</svg>
