<svg width="1108" height="240" viewBox="0 0 1108 240" fill="none" xmlns="http://www.w3.org/2000/svg">
<g clip-path="url(#clip0)">
<rect width="1108" height="240" fill="#215480"/>
<path d="M424.002 55.0022L400.998 31.9978C400.447 31.4467 399.553 31.4467 399.002 31.9978L375.998 55.0022C375.447 55.5533 375.447 56.4467 375.998 56.9978L399.002 80.0022C399.553 80.5533 400.447 80.5533 400.998 80.0022L424.002 56.9978C424.553 56.4467 424.553 55.5533 424.002 55.0022Z" stroke="#ACB5E8" stroke-opacity="0.5" stroke-miterlimit="10"/>
<path d="M410.2 55.5727L400.425 45.7977C400.19 45.5632 399.81 45.5632 399.575 45.7977L389.8 55.5727C389.566 55.8073 389.566 56.1876 389.8 56.4221L399.575 66.1971C399.81 66.4317 400.19 66.4317 400.425 66.1971L410.2 56.4221C410.434 56.1876 410.434 55.8073 410.2 55.5727Z" fill="#D2D7F6"/>
<path d="M1062.77 176.658L1056.83 175.862C1055.86 175.733 1054.98 176.41 1054.85 177.373L1054.05 183.32C1053.93 184.284 1054.6 185.169 1055.57 185.298L1061.51 186.094C1062.48 186.223 1063.36 185.546 1063.49 184.583L1064.29 178.636C1064.41 177.672 1063.74 176.787 1062.77 176.658Z" fill="#D2D7F6"/>
<path d="M1060.18 172.568L1066.67 173.435C1067.16 173.504 1067.62 173.767 1067.92 174.167C1068.23 174.567 1068.36 175.071 1068.3 175.57L1067.43 182.062C1067.36 182.56 1067.1 183.011 1066.7 183.317C1066.3 183.622 1065.79 183.757 1065.29 183.693L1058.81 182.826C1058.31 182.757 1057.86 182.494 1057.56 182.094C1057.25 181.694 1057.12 181.19 1057.18 180.691L1058.05 174.199C1058.12 173.7 1058.38 173.25 1058.78 172.944C1059.18 172.639 1059.69 172.503 1060.18 172.568ZM1065.49 182.207C1065.55 182.215 1065.6 182.213 1065.65 182.2C1065.7 182.187 1065.75 182.164 1065.79 182.132C1065.84 182.101 1065.87 182.06 1065.9 182.014C1065.93 181.968 1065.95 181.917 1065.95 181.865L1066.82 175.372C1066.83 175.319 1066.82 175.266 1066.81 175.214C1066.8 175.163 1066.77 175.114 1066.74 175.072C1066.71 175.03 1066.67 174.995 1066.62 174.97C1066.57 174.944 1066.52 174.927 1066.47 174.922L1059.99 174.054C1059.88 174.04 1059.77 174.068 1059.69 174.133C1059.61 174.197 1059.55 174.293 1059.54 174.398L1058.67 180.89C1058.65 180.995 1058.68 181.101 1058.75 181.186C1058.81 181.27 1058.91 181.325 1059.01 181.339L1065.49 182.207Z" fill="#C8D6F9"/>
<path d="M1091.56 222.207C1091.63 221.684 1091.54 221.151 1091.31 220.677C1091.08 220.203 1090.71 219.809 1090.25 219.544C1089.8 219.279 1089.27 219.155 1088.74 219.188C1088.22 219.222 1087.71 219.411 1087.29 219.731C1086.87 220.052 1086.56 220.49 1086.39 220.989C1086.21 221.489 1086.2 222.028 1086.33 222.539C1086.47 223.049 1086.75 223.508 1087.15 223.857C1087.54 224.206 1088.03 224.429 1088.56 224.499C1088.91 224.547 1089.26 224.526 1089.6 224.436C1089.94 224.347 1090.26 224.191 1090.54 223.978C1090.81 223.765 1091.05 223.499 1091.22 223.195C1091.4 222.891 1091.51 222.555 1091.56 222.207Z" fill="#C8D6F9"/>
<path d="M293.516 54.0486L303.795 55.4237C305.464 55.647 306.999 54.4746 307.222 52.8051L308.597 42.5266C308.821 40.857 307.648 39.3225 305.979 39.0991L295.7 37.724C294.031 37.5006 292.496 38.673 292.273 40.3426L290.898 50.621C290.674 52.2906 291.847 53.8252 293.516 54.0486Z" fill="#D2D7F6"/>
<path d="M290.664 30.5728L301.884 32.0739C302.749 32.1896 303.532 32.6441 304.062 33.3375C304.592 34.0309 304.824 34.9063 304.709 35.7711L303.208 46.9911C303.09 47.8539 302.634 48.6347 301.941 49.1623C301.249 49.69 300.375 49.9214 299.512 49.8059L288.292 48.3048C287.429 48.1893 286.646 47.7364 286.117 47.0452C285.587 46.354 285.353 45.481 285.466 44.6175L286.967 33.3975C287.083 32.5326 287.537 31.7492 288.23 31.2194C288.924 30.6897 289.799 30.4571 290.664 30.5728ZM299.854 47.2487C300.037 47.2706 300.222 47.2201 300.369 47.1079C300.516 46.9957 300.613 46.8306 300.641 46.6477L302.142 35.4277C302.166 35.2437 302.117 35.0574 302.004 34.9099C301.891 34.7624 301.725 34.6657 301.541 34.641L290.321 33.1399C290.137 33.1153 289.95 33.1648 289.803 33.2775C289.655 33.3902 289.559 33.5569 289.534 33.7409L288.033 44.961C288.008 45.145 288.058 45.3312 288.17 45.4788C288.283 45.6263 288.45 45.723 288.634 45.7476L299.854 47.2487Z" fill="#C8D6F9"/>
<path d="M88.6534 23.8358C89.2212 23.9126 89.7359 24.2098 90.0863 24.6631L94.5192 30.442C94.8659 30.8986 95.0179 31.4739 94.9419 32.0422C94.8658 32.6105 94.568 33.1256 94.1134 33.475L88.3134 37.9151C87.8568 38.2618 87.2815 38.4138 86.7132 38.3378C86.1449 38.2617 85.6298 37.9639 85.2804 37.5093L80.8416 31.6994C80.6697 31.4735 80.5439 31.2159 80.4716 30.9413C80.3993 30.6668 80.3817 30.3807 80.4201 30.0993C80.4989 29.5322 80.7957 29.0182 81.2474 28.6664L87.056 24.2375C87.2828 24.0689 87.5406 23.9466 87.8147 23.8776C88.0888 23.8087 88.3738 23.7945 88.6534 23.8358ZM86.9441 36.612C86.996 36.62 87.049 36.6168 87.0996 36.6027C87.1502 36.5886 87.1972 36.5638 87.2375 36.5302L93.0362 32.1C93.0808 32.069 93.1179 32.0287 93.1451 31.9817C93.1723 31.9348 93.1889 31.8825 93.1936 31.8285C93.2016 31.7765 93.1984 31.7235 93.1843 31.6729C93.1702 31.6223 93.1455 31.5753 93.1118 31.535L88.7028 25.7291C88.6368 25.6457 88.541 25.5912 88.4356 25.5771C88.3302 25.5629 88.2234 25.5903 88.1378 25.6535L82.3391 30.0837C82.2967 30.1156 82.2611 30.1555 82.2343 30.2013C82.2075 30.2471 82.1901 30.2978 82.1831 30.3503C82.176 30.4029 82.1795 30.4564 82.1933 30.5076C82.2071 30.5588 82.231 30.6067 82.2635 30.6486L86.6725 36.4546C86.7035 36.4991 86.7439 36.5363 86.7908 36.5635C86.8377 36.5907 86.8901 36.6072 86.9441 36.612Z" fill="#C8D6F9"/>
<path d="M21.5586 2.20708C21.6287 1.68366 21.5419 1.15124 21.3093 0.677133C21.0767 0.203027 20.7088 -0.191478 20.252 -0.456475C19.7953 -0.721471 19.2702 -0.845063 18.7431 -0.81163C18.2161 -0.778198 17.7109 -0.589229 17.2913 -0.268636C16.8716 0.0519572 16.5565 0.489782 16.3857 0.989476C16.2149 1.48917 16.1961 2.02828 16.3317 2.53865C16.4673 3.04901 16.7512 3.50771 17.1475 3.85673C17.5438 4.20574 18.0347 4.42941 18.5581 4.49943C18.9058 4.54729 19.2596 4.52586 19.599 4.43636C19.9384 4.34687 20.2567 4.19107 20.5357 3.97798C20.8146 3.76488 21.0486 3.49871 21.2241 3.19477C21.3997 2.89083 21.5134 2.55515 21.5586 2.20708Z" fill="#C8D6F9"/>
<path d="M204.305 37.935C202.75 37.727 201.321 38.8186 201.113 40.3733C200.905 41.9279 201.997 43.3568 203.552 43.5648C205.106 43.7728 206.535 42.6811 206.743 41.1265C206.951 39.5718 205.859 38.143 204.305 37.935Z" fill="#C8D6F9"/>
<path d="M148.505 21.1689C148.591 20.5259 148.485 19.8718 148.199 19.2894C147.913 18.707 147.461 18.2224 146.9 17.8968C146.339 17.5713 145.694 17.4195 145.047 17.4605C144.399 17.5016 143.778 17.7337 143.263 18.1276C142.747 18.5214 142.36 19.0593 142.151 19.6731C141.941 20.287 141.918 20.9493 142.084 21.5762C142.251 22.2032 142.6 22.7667 143.086 23.1954C143.573 23.6242 144.176 23.899 144.819 23.985C145.682 24.1003 146.554 23.8685 147.245 23.3403C147.937 22.8122 148.39 22.0311 148.505 21.1689Z" fill="#D2D7F6"/>
<path d="M57.5162 223.049L67.7946 224.424C69.4642 224.647 70.9987 223.475 71.2221 221.805L72.5972 211.527C72.8206 209.857 71.6482 208.322 69.9786 208.099L59.7002 206.724C58.0306 206.501 56.496 207.673 56.2726 209.343L54.8975 219.621C54.6742 221.291 55.8466 222.825 57.5162 223.049Z" fill="#D2D7F6"/>
<path d="M54.6641 199.573L65.8841 201.074C66.749 201.19 67.5324 201.644 68.0621 202.338C68.5919 203.031 68.8245 203.906 68.7087 204.771L67.2077 215.991C67.0896 216.854 66.6342 217.635 65.9414 218.162C65.2486 218.69 64.3749 218.921 63.5118 218.806L52.2917 217.305C51.4286 217.189 50.6465 216.736 50.1167 216.045C49.587 215.354 49.3529 214.481 49.4657 213.618L50.9668 202.397C51.0825 201.533 51.5371 200.749 52.2304 200.219C52.9238 199.69 53.7992 199.457 54.6641 199.573ZM63.8539 216.249C64.0375 216.271 64.2223 216.22 64.3692 216.108C64.5161 215.996 64.6135 215.831 64.6405 215.648L66.1416 204.428C66.1662 204.244 66.1168 204.057 66.0041 203.91C65.8913 203.762 65.7247 203.666 65.5406 203.641L54.3206 202.14C54.1366 202.115 53.9503 202.165 53.8028 202.278C53.6553 202.39 53.5586 202.557 53.534 202.741L52.0329 213.961C52.0082 214.145 52.0577 214.331 52.1704 214.479C52.2831 214.626 52.4499 214.723 52.6339 214.748L63.8539 216.249Z" fill="#C8D6F9"/>
<path d="M73.2792 153.111C73.5242 153.143 73.7603 153.223 73.9741 153.347C74.1878 153.471 74.3749 153.636 74.5246 153.832L78.371 158.867C78.6715 159.264 78.803 159.764 78.7369 160.258C78.6708 160.751 78.4126 161.199 78.0182 161.503L72.9837 165.35C72.5829 165.64 72.0857 165.766 71.595 165.7C71.1042 165.634 70.6575 165.383 70.3472 164.997L66.5107 159.964C66.3594 159.768 66.2484 159.544 66.1842 159.305C66.1199 159.066 66.1037 158.817 66.1366 158.572C66.1694 158.327 66.2505 158.09 66.3753 157.877C66.5001 157.663 66.666 157.476 66.8635 157.327L71.8881 153.479C72.2855 153.179 72.7851 153.046 73.2792 153.111ZM71.7954 164.202C71.8411 164.209 71.8879 164.207 71.9327 164.196C71.9776 164.185 72.0197 164.164 72.0564 164.136L77.091 160.29C77.1274 160.261 77.1579 160.226 77.1806 160.186C77.2033 160.145 77.2178 160.101 77.2232 160.055C77.2306 160.009 77.2285 159.963 77.2172 159.918C77.2058 159.873 77.1854 159.831 77.1573 159.794L73.3109 154.759C73.2892 154.715 73.2569 154.676 73.2168 154.648C73.1766 154.619 73.13 154.6 73.0809 154.593C73.0318 154.587 72.9819 154.592 72.9356 154.61C72.8892 154.627 72.8479 154.656 72.8153 154.693L67.7907 158.541C67.7513 158.567 67.7181 158.601 67.6935 158.642C67.6689 158.682 67.6536 158.727 67.6485 158.774C67.6417 158.821 67.645 158.868 67.6581 158.913C67.6711 158.959 67.6938 159.001 67.7244 159.036L71.5609 164.07C71.5893 164.106 71.6247 164.137 71.6649 164.159C71.7052 164.182 71.7495 164.196 71.7954 164.202Z" fill="#C8D6F9"/>
<path d="M842.774 43.6579L836.827 42.8623C835.864 42.7334 834.979 43.4099 834.85 44.3734L834.054 50.3204C833.925 51.2838 834.602 52.1693 835.565 52.2982L841.512 53.0939C842.476 53.2228 843.361 52.5462 843.49 51.5828L844.286 45.6358C844.414 44.6723 843.738 43.7868 842.774 43.6579Z" fill="#D2D7F6"/>
<path d="M840.184 39.5675L846.666 40.4348C847.165 40.5041 847.616 40.7672 847.921 41.167C848.226 41.5668 848.362 42.0709 848.298 42.5699L847.429 49.0621C847.36 49.5604 847.097 50.0112 846.697 50.3167C846.297 50.6221 845.793 50.7575 845.294 50.6934L838.812 49.8261C838.313 49.7568 837.863 49.4937 837.557 49.0939C837.252 48.6941 837.116 48.19 837.18 47.691L838.049 41.1988C838.118 40.7005 838.381 40.2496 838.781 39.9442C839.181 39.6388 839.685 39.5034 840.184 39.5675ZM845.493 49.2066C845.546 49.215 845.599 49.2128 845.651 49.2C845.703 49.1873 845.752 49.1643 845.795 49.1324C845.838 49.1005 845.874 49.0604 845.901 49.0144C845.928 48.9684 845.945 48.9174 845.952 48.8645L846.821 42.3723C846.828 42.3194 846.824 42.2656 846.81 42.2141C846.796 42.1626 846.772 42.1145 846.739 42.0724C846.706 42.0304 846.665 41.9954 846.619 41.9695C846.572 41.9436 846.521 41.9273 846.468 41.9215L839.985 41.0543C839.88 41.0402 839.774 41.0685 839.689 41.1329C839.605 41.1973 839.55 41.2926 839.536 41.3977L838.667 47.8899C838.653 47.995 838.681 48.1014 838.746 48.1857C838.81 48.27 838.906 48.3253 839.011 48.3394L845.493 49.2066Z" fill="#C8D6F9"/>
<path d="M938.653 110.836C939.221 110.913 939.736 111.21 940.086 111.663L944.519 117.442C944.866 117.899 945.018 118.474 944.942 119.042C944.866 119.61 944.568 120.126 944.113 120.475L938.313 124.915C937.857 125.262 937.282 125.414 936.713 125.338C936.145 125.262 935.63 124.964 935.28 124.509L930.842 118.699C930.67 118.473 930.544 118.216 930.472 117.941C930.399 117.667 930.382 117.381 930.42 117.099C930.499 116.532 930.796 116.018 931.247 115.666L937.056 111.238C937.283 111.069 937.541 110.947 937.815 110.878C938.089 110.809 938.374 110.794 938.653 110.836ZM936.944 123.612C936.996 123.62 937.049 123.617 937.1 123.603C937.15 123.589 937.197 123.564 937.238 123.53L943.036 119.1C943.081 119.069 943.118 119.029 943.145 118.982C943.172 118.935 943.189 118.882 943.194 118.828C943.202 118.777 943.198 118.724 943.184 118.673C943.17 118.622 943.145 118.575 943.112 118.535L938.703 112.729C938.637 112.646 938.541 112.591 938.436 112.577C938.33 112.563 938.223 112.59 938.138 112.653L932.339 117.084C932.297 117.116 932.261 117.156 932.234 117.201C932.207 117.247 932.19 117.298 932.183 117.35C932.176 117.403 932.179 117.456 932.193 117.508C932.207 117.559 932.231 117.607 932.264 117.649L936.673 123.455C936.703 123.499 936.744 123.536 936.791 123.563C936.838 123.591 936.89 123.607 936.944 123.612Z" fill="#C8D6F9"/>
<path d="M871.559 89.2071C871.629 88.6837 871.542 88.1512 871.309 87.6771C871.077 87.203 870.709 86.8085 870.252 86.5435C869.795 86.2785 869.27 86.1549 868.743 86.1884C868.216 86.2218 867.711 86.4108 867.291 86.7314C866.872 87.052 866.557 87.4898 866.386 87.9895C866.215 88.4892 866.196 89.0283 866.332 89.5386C866.467 90.049 866.751 90.5077 867.148 90.8567C867.544 91.2057 868.035 91.4294 868.558 91.4994C868.906 91.5473 869.26 91.5259 869.599 91.4364C869.938 91.3469 870.257 91.1911 870.536 90.978C870.815 90.7649 871.049 90.4987 871.224 90.1948C871.4 89.8908 871.513 89.5552 871.559 89.2071Z" fill="#C8D6F9"/>
<path d="M1054.3 124.935C1052.75 124.727 1051.32 125.819 1051.11 127.373C1050.91 128.928 1052 130.357 1053.55 130.565C1055.11 130.773 1056.54 129.681 1056.74 128.126C1056.95 126.572 1055.86 125.143 1054.3 124.935Z" fill="#C8D6F9"/>
<path d="M998.505 108.169C998.591 107.526 998.485 106.872 998.199 106.289C997.913 105.707 997.461 105.222 996.9 104.897C996.339 104.571 995.694 104.419 995.047 104.461C994.399 104.502 993.778 104.734 993.263 105.128C992.747 105.521 992.36 106.059 992.151 106.673C991.941 107.287 991.918 107.949 992.084 108.576C992.251 109.203 992.6 109.767 993.086 110.195C993.573 110.624 994.176 110.899 994.819 110.985C995.682 111.1 996.554 110.868 997.245 110.34C997.937 109.812 998.39 109.031 998.505 108.169Z" fill="#D2D7F6"/>
<path d="M42.7745 46.6579L36.8275 45.8623C35.864 45.7334 34.9785 46.4099 34.8496 47.3734L34.054 53.3204C33.9251 54.2838 34.6016 55.1693 35.5651 55.2982L41.5121 56.0939C42.4755 56.2228 43.361 55.5462 43.4899 54.5828L44.2856 48.6358C44.4145 47.6723 43.7379 46.7868 42.7745 46.6579Z" fill="#D2D7F6"/>
<path d="M40.1842 42.5675L46.6665 43.4348C47.1648 43.5041 47.6156 43.7672 47.921 44.167C48.2265 44.5668 48.3619 45.0709 48.2978 45.5699L47.4292 52.0621C47.3599 52.5604 47.0967 53.0112 46.6969 53.3167C46.2971 53.6221 45.793 53.7575 45.294 53.6934L38.8118 52.8261C38.3135 52.7568 37.8626 52.4937 37.5572 52.0939C37.2517 51.6941 37.1164 51.19 37.1805 50.691L38.049 44.1988C38.1184 43.7005 38.3815 43.2496 38.7813 42.9442C39.1811 42.6388 39.6852 42.5034 40.1842 42.5675ZM45.4929 52.2066C45.5456 52.215 45.5995 52.2128 45.6513 52.2C45.7031 52.1873 45.7519 52.1643 45.7947 52.1324C45.8375 52.1005 45.8735 52.0604 45.9006 52.0144C45.9277 51.9684 45.9452 51.9174 45.9523 51.8645L46.8209 45.3723C46.828 45.3194 46.8244 45.2656 46.8104 45.2141C46.7964 45.1626 46.7722 45.1145 46.7393 45.0724C46.7063 45.0304 46.6653 44.9954 46.6187 44.9695C46.572 44.9436 46.5206 44.9273 46.4676 44.9215L39.9853 44.0543C39.8802 44.0402 39.7738 44.0685 39.6895 44.1329C39.6052 44.1973 39.5499 44.2926 39.5358 44.3977L38.6672 50.8899C38.6532 50.995 38.6815 51.1014 38.7459 51.1857C38.8103 51.27 38.9055 51.3253 39.0107 51.3394L45.4929 52.2066Z" fill="#C8D6F9"/>
<path d="M343.516 144.049L353.795 145.424C355.464 145.647 356.999 144.475 357.222 142.805L358.597 132.527C358.821 130.857 357.648 129.322 355.979 129.099L345.7 127.724C344.031 127.501 342.496 128.673 342.273 130.343L340.898 140.621C340.674 142.291 341.847 143.825 343.516 144.049Z" fill="#D2D7F6"/>
<path d="M340.664 120.573L351.884 122.074C352.749 122.19 353.532 122.644 354.062 123.338C354.592 124.031 354.824 124.906 354.709 125.771L353.208 136.991C353.09 137.854 352.634 138.635 351.941 139.162C351.249 139.69 350.375 139.921 349.512 139.806L338.292 138.305C337.429 138.189 336.646 137.736 336.117 137.045C335.587 136.354 335.353 135.481 335.466 134.618L336.967 123.397C337.083 122.533 337.537 121.749 338.23 121.219C338.924 120.69 339.799 120.457 340.664 120.573ZM349.854 137.249C350.037 137.271 350.222 137.22 350.369 137.108C350.516 136.996 350.613 136.831 350.641 136.648L352.142 125.428C352.166 125.244 352.117 125.057 352.004 124.91C351.891 124.762 351.725 124.666 351.541 124.641L340.321 123.14C340.137 123.115 339.95 123.165 339.803 123.278C339.655 123.39 339.559 123.557 339.534 123.741L338.033 134.961C338.008 135.145 338.058 135.331 338.17 135.479C338.283 135.626 338.45 135.723 338.634 135.748L349.854 137.249Z" fill="#C8D6F9"/>
<path d="M138.653 113.836C139.221 113.913 139.736 114.21 140.086 114.663L144.519 120.442C144.866 120.899 145.018 121.474 144.942 122.042C144.866 122.61 144.568 123.126 144.113 123.475L138.313 127.915C137.857 128.262 137.282 128.414 136.713 128.338C136.145 128.262 135.63 127.964 135.28 127.509L130.842 121.699C130.67 121.473 130.544 121.216 130.472 120.941C130.399 120.667 130.382 120.381 130.42 120.099C130.499 119.532 130.796 119.018 131.247 118.666L137.056 114.238C137.283 114.069 137.541 113.947 137.815 113.878C138.089 113.809 138.374 113.794 138.653 113.836ZM136.944 126.612C136.996 126.62 137.049 126.617 137.1 126.603C137.15 126.589 137.197 126.564 137.238 126.53L143.036 122.1C143.081 122.069 143.118 122.029 143.145 121.982C143.172 121.935 143.189 121.882 143.194 121.828C143.202 121.777 143.198 121.724 143.184 121.673C143.17 121.622 143.145 121.575 143.112 121.535L138.703 115.729C138.637 115.646 138.541 115.591 138.436 115.577C138.33 115.563 138.223 115.59 138.138 115.653L132.339 120.084C132.297 120.116 132.261 120.156 132.234 120.201C132.207 120.247 132.19 120.298 132.183 120.35C132.176 120.403 132.179 120.456 132.193 120.508C132.207 120.559 132.231 120.607 132.264 120.649L136.673 126.455C136.703 126.499 136.744 126.536 136.791 126.563C136.838 126.591 136.89 126.607 136.944 126.612Z" fill="#C8D6F9"/>
<path d="M359.279 74.1107C359.524 74.1428 359.76 74.223 359.974 74.3469C360.188 74.4707 360.375 74.6357 360.525 74.8322L364.371 79.8667C364.671 80.264 364.803 80.7638 364.737 81.2576C364.671 81.7513 364.413 82.1989 364.018 82.5032L358.984 86.3496C358.583 86.6402 358.086 86.7656 357.595 86.7C357.104 86.6343 356.658 86.3826 356.347 85.9969L352.511 80.9637C352.359 80.768 352.248 80.5442 352.184 80.3052C352.12 80.0663 352.104 79.817 352.137 79.5718C352.169 79.3266 352.251 79.0903 352.375 78.8766C352.5 78.663 352.666 78.4762 352.863 78.3272L357.888 74.4795C358.285 74.1789 358.785 74.0465 359.279 74.1107ZM357.795 85.2019C357.841 85.2092 357.888 85.2072 357.933 85.1959C357.978 85.1845 358.02 85.1641 358.056 85.1359L363.091 81.2896C363.127 81.2612 363.158 81.2258 363.181 81.1855C363.203 81.1453 363.218 81.1009 363.223 81.055C363.231 81.0093 363.229 80.9626 363.217 80.9177C363.206 80.8728 363.185 80.8307 363.157 80.794L359.311 75.7595C359.289 75.715 359.257 75.6765 359.217 75.6475C359.177 75.6185 359.13 75.5999 359.081 75.5933C359.032 75.5868 358.982 75.5925 358.936 75.6099C358.889 75.6273 358.848 75.6559 358.815 75.6932L353.791 79.5409C353.751 79.5668 353.718 79.6012 353.693 79.6415C353.669 79.6819 353.654 79.7271 353.649 79.7741C353.642 79.8207 353.645 79.8682 353.658 79.9135C353.671 79.9587 353.694 80.0007 353.724 80.0365L357.561 85.0696C357.589 85.1061 357.625 85.1365 357.665 85.1592C357.705 85.1819 357.749 85.1964 357.795 85.2019Z" fill="#C8D6F9"/>
<path d="M71.5586 92.2071C71.6287 91.6837 71.5419 91.1512 71.3093 90.6771C71.0767 90.203 70.7088 89.8085 70.252 89.5435C69.7953 89.2785 69.2702 89.1549 68.7431 89.1884C68.2161 89.2218 67.7109 89.4108 67.2913 89.7314C66.8716 90.052 66.5565 90.4898 66.3857 90.9895C66.2149 91.4892 66.1961 92.0283 66.3317 92.5386C66.4673 93.049 66.7512 93.5077 67.1475 93.8567C67.5438 94.2057 68.0347 94.4294 68.5581 94.4994C68.9058 94.5473 69.2596 94.5259 69.599 94.4364C69.9384 94.3469 70.2567 94.1911 70.5357 93.978C70.8146 93.7649 71.0486 93.4987 71.2241 93.1948C71.3997 92.8908 71.5134 92.5552 71.5586 92.2071Z" fill="#C8D6F9"/>
<path d="M254.305 127.935C252.75 127.727 251.321 128.819 251.113 130.373C250.905 131.928 251.997 133.357 253.552 133.565C255.106 133.773 256.535 132.681 256.743 131.126C256.951 129.572 255.859 128.143 254.305 127.935Z" fill="#C8D6F9"/>
<path d="M198.505 111.169C198.591 110.526 198.485 109.872 198.199 109.289C197.913 108.707 197.461 108.222 196.9 107.897C196.339 107.571 195.694 107.419 195.047 107.461C194.399 107.502 193.778 107.734 193.263 108.128C192.747 108.521 192.36 109.059 192.151 109.673C191.941 110.287 191.918 110.949 192.084 111.576C192.251 112.203 192.6 112.767 193.086 113.195C193.573 113.624 194.176 113.899 194.819 113.985C195.682 114.1 196.554 113.868 197.245 113.34C197.937 112.812 198.39 112.031 198.505 111.169Z" fill="#D2D7F6"/>
<path d="M450.775 52.6579L444.828 51.8623C443.865 51.7334 442.979 52.4099 442.85 53.3734L442.054 59.3204C441.926 60.2838 442.602 61.1693 443.566 61.2982L449.513 62.0939C450.476 62.2228 451.362 61.5462 451.49 60.5828L452.286 54.6358C452.415 53.6723 451.738 52.7868 450.775 52.6579Z" fill="#D2D7F6"/>
<path d="M448.185 48.5675L454.667 49.4348C455.165 49.5041 455.616 49.7672 455.922 50.167C456.227 50.5668 456.362 51.0709 456.298 51.5699L455.43 58.0621C455.36 58.5604 455.097 59.0112 454.697 59.3167C454.298 59.6221 453.793 59.7575 453.294 59.6934L446.812 58.8261C446.314 58.7568 445.863 58.4937 445.558 58.0939C445.252 57.6941 445.117 57.19 445.181 56.691L446.05 50.1988C446.119 49.7005 446.382 49.2496 446.782 48.9442C447.182 48.6388 447.686 48.5034 448.185 48.5675ZM453.493 58.2066C453.546 58.215 453.6 58.2128 453.652 58.2C453.704 58.1873 453.752 58.1643 453.795 58.1324C453.838 58.1005 453.874 58.0604 453.901 58.0144C453.928 57.9684 453.946 57.9174 453.953 57.8645L454.821 51.3723C454.828 51.3194 454.825 51.2656 454.811 51.2141C454.797 51.1626 454.773 51.1145 454.74 51.0724C454.707 51.0304 454.666 50.9954 454.619 50.9695C454.572 50.9436 454.521 50.9273 454.468 50.9215L447.986 50.0543C447.881 50.0402 447.774 50.0685 447.69 50.1329C447.606 50.1973 447.55 50.2926 447.536 50.3977L446.668 56.8899C446.654 56.995 446.682 57.1014 446.746 57.1857C446.811 57.27 446.906 57.3253 447.011 57.3394L453.493 58.2066Z" fill="#C8D6F9"/>
<path d="M751.517 150.049L761.795 151.424C763.465 151.647 764.999 150.475 765.223 148.805L766.598 138.527C766.821 136.857 765.649 135.322 763.979 135.099L753.701 133.724C752.031 133.501 750.496 134.673 750.273 136.343L748.898 146.621C748.675 148.291 749.847 149.825 751.517 150.049Z" fill="#D2D7F6"/>
<path d="M748.665 126.573L759.885 128.074C760.749 128.19 761.533 128.644 762.063 129.338C762.592 130.031 762.825 130.906 762.709 131.771L761.208 142.991C761.09 143.854 760.635 144.635 759.942 145.162C759.249 145.69 758.375 145.921 757.512 145.806L746.292 144.305C745.429 144.189 744.647 143.736 744.117 143.045C743.587 142.354 743.353 141.481 743.466 140.618L744.967 129.397C745.083 128.533 745.538 127.749 746.231 127.219C746.924 126.69 747.8 126.457 748.665 126.573ZM757.854 143.249C758.038 143.271 758.223 143.22 758.37 143.108C758.517 142.996 758.614 142.831 758.641 142.648L760.142 131.428C760.167 131.244 760.117 131.057 760.005 130.91C759.892 130.762 759.725 130.666 759.541 130.641L748.321 129.14C748.137 129.115 747.951 129.165 747.803 129.278C747.656 129.39 747.559 129.557 747.534 129.741L746.033 140.961C746.009 141.145 746.058 141.331 746.171 141.479C746.284 141.626 746.45 141.723 746.634 141.748L757.854 143.249Z" fill="#C8D6F9"/>
<path d="M546.654 119.836C547.222 119.913 547.736 120.21 548.087 120.663L552.52 126.442C552.866 126.899 553.018 127.474 552.942 128.042C552.866 128.61 552.568 129.126 552.114 129.475L546.314 133.915C545.857 134.262 545.282 134.414 544.714 134.338C544.145 134.262 543.63 133.964 543.281 133.509L538.842 127.699C538.67 127.473 538.544 127.216 538.472 126.941C538.4 126.667 538.382 126.381 538.421 126.099C538.499 125.532 538.796 125.018 539.248 124.666L545.056 120.238C545.283 120.069 545.541 119.947 545.815 119.878C546.089 119.809 546.374 119.794 546.654 119.836ZM544.945 132.612C544.997 132.62 545.049 132.617 545.1 132.603C545.151 132.589 545.198 132.564 545.238 132.53L551.037 128.1C551.081 128.069 551.118 128.029 551.146 127.982C551.173 127.935 551.189 127.882 551.194 127.828C551.202 127.777 551.199 127.724 551.185 127.673C551.171 127.622 551.146 127.575 551.112 127.535L546.703 121.729C546.637 121.646 546.541 121.591 546.436 121.577C546.331 121.563 546.224 121.59 546.138 121.653L540.34 126.084C540.297 126.116 540.262 126.156 540.235 126.201C540.208 126.247 540.191 126.298 540.184 126.35C540.177 126.403 540.18 126.456 540.194 126.508C540.208 126.559 540.232 126.607 540.264 126.649L544.673 132.455C544.704 132.499 544.744 132.536 544.791 132.563C544.838 132.591 544.891 132.607 544.945 132.612Z" fill="#C8D6F9"/>
<path d="M767.28 80.1107C767.525 80.1428 767.761 80.223 767.975 80.3469C768.188 80.4707 768.375 80.6357 768.525 80.8322L772.371 85.8667C772.672 86.264 772.803 86.7638 772.737 87.2576C772.671 87.7513 772.413 88.1989 772.019 88.5032L766.984 92.3496C766.583 92.6402 766.086 92.7656 765.595 92.7C765.105 92.6343 764.658 92.3826 764.348 91.9969L760.511 86.9637C760.36 86.768 760.249 86.5442 760.185 86.3052C760.12 86.0663 760.104 85.817 760.137 85.5718C760.17 85.3266 760.251 85.0903 760.376 84.8766C760.501 84.663 760.666 84.4762 760.864 84.3272L765.889 80.4795C766.286 80.1789 766.786 80.0465 767.28 80.1107ZM765.796 91.2019C765.842 91.2092 765.888 91.2072 765.933 91.1959C765.978 91.1845 766.02 91.1641 766.057 91.1359L771.091 87.2896C771.128 87.2612 771.158 87.2258 771.181 87.1855C771.204 87.1453 771.218 87.1009 771.224 87.055C771.231 87.0093 771.229 86.9626 771.218 86.9177C771.206 86.8728 771.186 86.8307 771.158 86.794L767.311 81.7595C767.29 81.715 767.257 81.6765 767.217 81.6475C767.177 81.6185 767.13 81.5999 767.081 81.5933C767.032 81.5868 766.982 81.5925 766.936 81.6099C766.89 81.6273 766.848 81.6559 766.816 81.6932L761.791 85.5409C761.752 85.5668 761.719 85.6012 761.694 85.6415C761.669 85.6819 761.654 85.7271 761.649 85.7741C761.642 85.8207 761.645 85.8682 761.659 85.9135C761.672 85.9587 761.694 86.0007 761.725 86.0365L765.561 91.0696C765.59 91.1061 765.625 91.1365 765.665 91.1592C765.706 91.1819 765.75 91.1964 765.796 91.2019Z" fill="#C8D6F9"/>
<path d="M479.559 98.2071C479.629 97.6837 479.542 97.1512 479.31 96.6771C479.077 96.203 478.709 95.8085 478.253 95.5435C477.796 95.2785 477.271 95.1549 476.744 95.1884C476.217 95.2218 475.711 95.4108 475.292 95.7314C474.872 96.052 474.557 96.4898 474.386 96.9895C474.215 97.4892 474.197 98.0283 474.332 98.5386C474.468 99.049 474.752 99.5077 475.148 99.8567C475.544 100.206 476.035 100.429 476.559 100.499C476.906 100.547 477.26 100.526 477.6 100.436C477.939 100.347 478.257 100.191 478.536 99.978C478.815 99.7649 479.049 99.4987 479.225 99.1948C479.4 98.8908 479.514 98.5552 479.559 98.2071Z" fill="#C8D6F9"/>
<path d="M662.305 133.935C660.751 133.727 659.322 134.819 659.114 136.373C658.906 137.928 659.997 139.357 661.552 139.565C663.107 139.773 664.536 138.681 664.744 137.126C664.952 135.572 663.86 134.143 662.305 133.935Z" fill="#C8D6F9"/>
<path d="M606.506 117.169C606.592 116.526 606.485 115.872 606.199 115.289C605.914 114.707 605.462 114.222 604.901 113.897C604.34 113.571 603.694 113.419 603.047 113.461C602.4 113.502 601.779 113.734 601.263 114.128C600.748 114.521 600.361 115.059 600.151 115.673C599.941 116.287 599.918 116.949 600.085 117.576C600.251 118.203 600.6 118.767 601.087 119.195C601.574 119.624 602.177 119.899 602.82 119.985C603.682 120.1 604.555 119.868 605.246 119.34C605.937 118.812 606.39 118.031 606.506 117.169Z" fill="#D2D7F6"/>
<path d="M1116.77 15.6579L1110.83 14.8623C1109.86 14.7334 1108.98 15.4099 1108.85 16.3734L1108.05 22.3204C1107.93 23.2838 1108.6 24.1693 1109.57 24.2982L1115.51 25.0939C1116.48 25.2228 1117.36 24.5462 1117.49 23.5828L1118.29 17.6358C1118.41 16.6723 1117.74 15.7868 1116.77 15.6579Z" fill="#D2D7F6"/>
<path d="M193.774 187.658L187.827 186.862C186.864 186.733 185.979 187.41 185.85 188.373L185.054 194.32C184.925 195.284 185.602 196.169 186.565 196.298L192.512 197.094C193.476 197.223 194.361 196.546 194.49 195.583L195.286 189.636C195.414 188.672 194.738 187.787 193.774 187.658Z" fill="#D2D7F6"/>
<path d="M191.184 183.568L197.666 184.435C198.165 184.504 198.616 184.767 198.921 185.167C199.226 185.567 199.362 186.071 199.298 186.57L198.429 193.062C198.36 193.56 198.097 194.011 197.697 194.317C197.297 194.622 196.793 194.757 196.294 194.693L189.812 193.826C189.313 193.757 188.863 193.494 188.557 193.094C188.252 192.694 188.116 192.19 188.18 191.691L189.049 185.199C189.118 184.7 189.381 184.25 189.781 183.944C190.181 183.639 190.685 183.503 191.184 183.568ZM196.493 193.207C196.546 193.215 196.599 193.213 196.651 193.2C196.703 193.187 196.752 193.164 196.795 193.132C196.838 193.101 196.874 193.06 196.901 193.014C196.928 192.968 196.945 192.917 196.952 192.865L197.821 186.372C197.828 186.319 197.824 186.266 197.81 186.214C197.796 186.163 197.772 186.114 197.739 186.072C197.706 186.03 197.665 185.995 197.619 185.97C197.572 185.944 197.521 185.927 197.468 185.922L190.985 185.054C190.88 185.04 190.774 185.068 190.689 185.133C190.605 185.197 190.55 185.293 190.536 185.398L189.667 191.89C189.653 191.995 189.681 192.101 189.746 192.186C189.81 192.27 189.906 192.325 190.011 192.339L196.493 193.207Z" fill="#C8D6F9"/>
<path d="M510.279 215.111C510.524 215.143 510.76 215.223 510.974 215.347C511.188 215.471 511.375 215.636 511.525 215.832L515.371 220.867C515.671 221.264 515.803 221.764 515.737 222.258C515.671 222.751 515.413 223.199 515.018 223.503L509.984 227.35C509.583 227.64 509.086 227.766 508.595 227.7C508.104 227.634 507.658 227.383 507.347 226.997L503.511 221.964C503.359 221.768 503.248 221.544 503.184 221.305C503.12 221.066 503.104 220.817 503.137 220.572C503.169 220.327 503.251 220.09 503.375 219.877C503.5 219.663 503.666 219.476 503.863 219.327L508.888 215.479C509.285 215.179 509.785 215.046 510.279 215.111ZM508.795 226.202C508.841 226.209 508.888 226.207 508.933 226.196C508.978 226.185 509.02 226.164 509.056 226.136L514.091 222.29C514.127 222.261 514.158 222.226 514.181 222.186C514.203 222.145 514.218 222.101 514.223 222.055C514.231 222.009 514.229 221.963 514.217 221.918C514.206 221.873 514.185 221.831 514.157 221.794L510.311 216.759C510.289 216.715 510.257 216.676 510.217 216.648C510.177 216.619 510.13 216.6 510.081 216.593C510.032 216.587 509.982 216.592 509.936 216.61C509.889 216.627 509.848 216.656 509.815 216.693L504.791 220.541C504.751 220.567 504.718 220.601 504.693 220.642C504.669 220.682 504.654 220.727 504.649 220.774C504.642 220.821 504.645 220.868 504.658 220.913C504.671 220.959 504.694 221.001 504.724 221.036L508.561 226.07C508.589 226.106 508.625 226.137 508.665 226.159C508.705 226.182 508.749 226.196 508.795 226.202Z" fill="#C8D6F9"/>
<path d="M222.559 233.207C222.629 232.684 222.542 232.151 222.309 231.677C222.077 231.203 221.709 230.809 221.252 230.544C220.795 230.279 220.27 230.155 219.743 230.188C219.216 230.222 218.711 230.411 218.291 230.731C217.872 231.052 217.557 231.49 217.386 231.989C217.215 232.489 217.196 233.028 217.332 233.539C217.467 234.049 217.751 234.508 218.148 234.857C218.544 235.206 219.035 235.429 219.558 235.499C219.906 235.547 220.26 235.526 220.599 235.436C220.938 235.347 221.257 235.191 221.536 234.978C221.815 234.765 222.049 234.499 222.224 234.195C222.4 233.891 222.513 233.555 222.559 233.207Z" fill="#C8D6F9"/>
<path d="M696.774 187.658L690.827 186.862C689.864 186.733 688.979 187.41 688.85 188.373L688.054 194.32C687.925 195.284 688.602 196.169 689.565 196.298L695.512 197.094C696.476 197.223 697.361 196.546 697.49 195.583L698.286 189.636C698.414 188.672 697.738 187.787 696.774 187.658Z" fill="#D2D7F6"/>
<path d="M694.184 183.568L700.666 184.435C701.165 184.504 701.616 184.767 701.921 185.167C702.226 185.567 702.362 186.071 702.298 186.57L701.429 193.062C701.36 193.56 701.097 194.011 700.697 194.317C700.297 194.622 699.793 194.757 699.294 194.693L692.812 193.826C692.313 193.757 691.863 193.494 691.557 193.094C691.252 192.694 691.116 192.19 691.18 191.691L692.049 185.199C692.118 184.7 692.381 184.25 692.781 183.944C693.181 183.639 693.685 183.503 694.184 183.568ZM699.493 193.207C699.546 193.215 699.599 193.213 699.651 193.2C699.703 193.187 699.752 193.164 699.795 193.132C699.838 193.101 699.874 193.06 699.901 193.014C699.928 192.968 699.945 192.917 699.952 192.865L700.821 186.372C700.828 186.319 700.824 186.266 700.81 186.214C700.796 186.163 700.772 186.114 700.739 186.072C700.706 186.03 700.665 185.995 700.619 185.97C700.572 185.944 700.521 185.927 700.468 185.922L693.985 185.054C693.88 185.04 693.774 185.068 693.689 185.133C693.605 185.197 693.55 185.293 693.536 185.398L692.667 191.89C692.653 191.995 692.681 192.101 692.746 192.186C692.81 192.27 692.906 192.325 693.011 192.339L699.493 193.207Z" fill="#C8D6F9"/>
<path d="M1013.28 215.111C1013.52 215.143 1013.76 215.223 1013.97 215.347C1014.19 215.471 1014.37 215.636 1014.52 215.832L1018.37 220.867C1018.67 221.264 1018.8 221.764 1018.74 222.258C1018.67 222.751 1018.41 223.199 1018.02 223.503L1012.98 227.35C1012.58 227.64 1012.09 227.766 1011.59 227.7C1011.1 227.634 1010.66 227.383 1010.35 226.997L1006.51 221.964C1006.36 221.768 1006.25 221.544 1006.18 221.305C1006.12 221.066 1006.1 220.817 1006.14 220.572C1006.17 220.327 1006.25 220.09 1006.38 219.877C1006.5 219.663 1006.67 219.476 1006.86 219.327L1011.89 215.479C1012.29 215.179 1012.79 215.046 1013.28 215.111ZM1011.8 226.202C1011.84 226.209 1011.89 226.207 1011.93 226.196C1011.98 226.185 1012.02 226.164 1012.06 226.136L1017.09 222.29C1017.13 222.261 1017.16 222.226 1017.18 222.186C1017.2 222.145 1017.22 222.101 1017.22 222.055C1017.23 222.009 1017.23 221.963 1017.22 221.918C1017.21 221.873 1017.19 221.831 1017.16 221.794L1013.31 216.759C1013.29 216.715 1013.26 216.676 1013.22 216.648C1013.18 216.619 1013.13 216.6 1013.08 216.593C1013.03 216.587 1012.98 216.592 1012.94 216.61C1012.89 216.627 1012.85 216.656 1012.82 216.693L1007.79 220.541C1007.75 220.567 1007.72 220.601 1007.69 220.642C1007.67 220.682 1007.65 220.727 1007.65 220.774C1007.64 220.821 1007.64 220.868 1007.66 220.913C1007.67 220.959 1007.69 221.001 1007.72 221.036L1011.56 226.07C1011.59 226.106 1011.62 226.137 1011.66 226.159C1011.71 226.182 1011.75 226.196 1011.8 226.202Z" fill="#C8D6F9"/>
<path d="M725.559 233.207C725.629 232.684 725.542 232.151 725.309 231.677C725.077 231.203 724.709 230.809 724.252 230.544C723.795 230.279 723.27 230.155 722.743 230.188C722.216 230.222 721.711 230.411 721.291 230.731C720.872 231.052 720.557 231.49 720.386 231.989C720.215 232.489 720.196 233.028 720.332 233.539C720.467 234.049 720.751 234.508 721.148 234.857C721.544 235.206 722.035 235.429 722.558 235.499C722.906 235.547 723.26 235.526 723.599 235.436C723.938 235.347 724.257 235.191 724.536 234.978C724.815 234.765 725.049 234.499 725.224 234.195C725.4 233.891 725.513 233.555 725.559 233.207Z" fill="#C8D6F9"/>
<path d="M454.925 150.325L448.887 159.9C448.422 160.639 447.682 161.161 446.831 161.354C445.98 161.547 445.088 161.394 444.35 160.928L434.774 154.89C434.039 154.423 433.519 153.684 433.328 152.835C433.137 151.985 433.29 151.094 433.755 150.358L439.793 140.783C440.258 140.046 440.995 139.524 441.844 139.33C442.693 139.136 443.584 139.287 444.322 139.749L453.898 145.788C454.636 146.253 455.159 146.993 455.351 147.844C455.544 148.695 455.391 149.587 454.925 150.325ZM435.937 151.734C435.841 151.892 435.81 152.081 435.851 152.261C435.891 152.441 436.001 152.599 436.156 152.699L445.731 158.738C445.888 158.837 446.078 158.869 446.259 158.828C446.44 158.787 446.597 158.676 446.697 158.519L452.735 148.944C452.834 148.787 452.866 148.597 452.825 148.416C452.784 148.235 452.673 148.077 452.516 147.978L442.941 141.94C442.784 141.841 442.594 141.808 442.413 141.85C442.232 141.891 442.074 142.002 441.975 142.159L435.937 151.734Z" fill="#C8D6F9"/>
<path d="M480.35 206.119C481.066 204.723 480.514 203.011 479.119 202.296C477.723 201.58 476.011 202.132 475.296 203.527C474.58 204.923 475.131 206.635 476.527 207.35C477.923 208.066 479.635 207.515 480.35 206.119Z" fill="#C8D6F9"/>
<path d="M439.112 85.92H445.064V104H450.536V85.92H456.488V81.536H439.112V85.92ZM467.106 90.272C468.93 90.272 470.466 91.392 470.466 93.344H463.618C463.938 91.36 465.314 90.272 467.106 90.272ZM475.65 98.08H469.826C469.378 99.04 468.514 99.808 466.978 99.808C465.218 99.808 463.778 98.72 463.586 96.384H475.97C476.034 95.84 476.066 95.296 476.066 94.784C476.066 89.344 472.386 85.888 467.17 85.888C461.858 85.888 458.146 89.408 458.146 95.072C458.146 100.736 461.922 104.256 467.17 104.256C471.618 104.256 474.786 101.568 475.65 98.08ZM491.273 104H496.713V93.568C496.713 88.768 493.961 85.952 489.833 85.952C487.433 85.952 485.513 87.008 484.425 88.512V86.144H478.953V104H484.425V94.304C484.425 91.872 485.769 90.528 487.849 90.528C489.929 90.528 491.273 91.872 491.273 94.304V104ZM501.379 97.792C501.379 102.432 503.971 104 507.683 104H510.467V99.36H508.515C507.299 99.36 506.851 98.912 506.851 97.856V90.688H510.435V86.144H506.851V81.792H501.379V86.144H499.203V90.688H501.379V97.792ZM512.427 95.04C512.427 100.672 515.915 104.256 520.267 104.256C522.923 104.256 524.811 103.04 525.803 101.472V104H531.275V86.144H525.803V88.672C524.843 87.104 522.955 85.888 520.299 85.888C515.915 85.888 512.427 89.408 512.427 95.04ZM525.803 95.072C525.803 97.92 523.979 99.488 521.899 99.488C519.851 99.488 517.995 97.888 517.995 95.04C517.995 92.192 519.851 90.656 521.899 90.656C523.979 90.656 525.803 92.224 525.803 95.072ZM547.554 104H552.994V93.568C552.994 88.768 550.242 85.952 546.114 85.952C543.714 85.952 541.794 87.008 540.706 88.512V86.144H535.234V104H540.706V94.304C540.706 91.872 542.05 90.528 544.13 90.528C546.21 90.528 547.554 91.872 547.554 94.304V104ZM555.709 95.04C555.709 100.672 559.197 104.256 563.581 104.256C566.205 104.256 568.093 103.008 569.085 101.44V103.968C569.085 106.976 567.453 108.064 565.373 108.064C563.485 108.064 562.141 107.2 561.789 105.856H556.381C556.861 110.112 560.317 112.8 565.629 112.8C571.805 112.8 574.557 108.736 574.557 103.968V86.144H569.085V88.672C568.125 87.072 566.205 85.888 563.581 85.888C559.197 85.888 555.709 89.408 555.709 95.04ZM569.085 95.072C569.085 97.92 567.261 99.488 565.181 99.488C563.133 99.488 561.277 97.888 561.277 95.04C561.277 92.192 563.133 90.656 565.181 90.656C567.261 90.656 569.085 92.224 569.085 95.072ZM598.321 104H605.009L595.985 92.544L604.689 81.536H598.257L590.769 91.392V81.536H585.297V104H590.769V94.08L598.321 104ZM606.521 95.04C606.521 100.672 610.009 104.256 614.361 104.256C617.017 104.256 618.905 103.04 619.897 101.472V104H625.369V86.144H619.897V88.672C618.937 87.104 617.049 85.888 614.393 85.888C610.009 85.888 606.521 89.408 606.521 95.04ZM619.897 95.072C619.897 97.92 618.073 99.488 615.993 99.488C613.945 99.488 612.089 97.888 612.089 95.04C612.089 92.192 613.945 90.656 615.993 90.656C618.073 90.656 619.897 92.224 619.897 95.072ZM653.936 104H659.376V93.568C659.376 88.768 656.528 85.952 652.112 85.952C649.52 85.952 647.28 87.392 646.096 89.28C644.88 87.136 642.704 85.952 640.016 85.952C637.68 85.952 635.856 86.944 634.8 88.384V86.144H629.328V104H634.8V94.304C634.8 91.968 636.144 90.688 638.224 90.688C640.304 90.688 641.648 91.968 641.648 94.304V104H647.088V94.304C647.088 91.968 648.432 90.688 650.512 90.688C652.592 90.688 653.936 91.968 653.936 94.304V104ZM663.203 104H668.675V86.144H663.203V104ZM665.955 84.288C667.875 84.288 669.187 82.976 669.187 81.344C669.187 79.68 667.875 78.368 665.955 78.368C664.003 78.368 662.691 79.68 662.691 81.344C662.691 82.976 664.003 84.288 665.955 84.288Z" fill="white"/>
</g>
<defs>
<clipPath id="clip0">
<rect width="1108" height="240" fill="white"/>
</clipPath>
</defs>
</svg>
