<svg width="65" height="64" viewBox="0 0 65 64" fill="none" xmlns="http://www.w3.org/2000/svg">
<path d="M49.0957 46.304L32.125 63.2746L15.1543 46.304C11.7979 42.9475 9.51216 38.6711 8.58614 34.0156C7.66012 29.36 8.13542 24.5344 9.95193 20.149C11.7684 15.7636 14.8446 12.0153 18.7914 9.3782C22.7381 6.74106 27.3783 5.3335 32.125 5.3335C36.8717 5.3335 41.5119 6.74106 45.4587 9.3782C49.4054 12.0153 52.4816 15.7636 54.2981 20.149C56.1146 24.5344 56.5899 29.36 55.6639 34.0156C54.7379 38.6711 52.4521 42.9475 49.0957 46.304ZM32.125 34.6666C33.5395 34.6666 34.896 34.1047 35.8962 33.1045C36.8964 32.1043 37.4583 30.7478 37.4583 29.3333C37.4583 27.9188 36.8964 26.5622 35.8962 25.5621C34.896 24.5619 33.5395 24 32.125 24C30.7105 24 29.354 24.5619 28.3538 25.5621C27.3536 26.5622 26.7917 27.9188 26.7917 29.3333C26.7917 30.7478 27.3536 32.1043 28.3538 33.1045C29.354 34.1047 30.7105 34.6666 32.125 34.6666Z" fill="white"/>
</svg>
