<svg width="65" height="64" viewBox="0 0 65 64" fill="none" xmlns="http://www.w3.org/2000/svg">
<path d="M32.125 5.33337C46.845 5.33337 58.7917 17.28 58.7917 32C58.7917 46.72 46.845 58.6667 32.125 58.6667C17.405 58.6667 5.45833 46.72 5.45833 32C5.45833 17.28 17.405 5.33337 32.125 5.33337ZM16.1863 41.1094C20.101 46.9494 25.9783 50.6667 32.5517 50.6667C39.1223 50.6667 45.0023 46.952 48.9143 41.1094C44.4763 36.9616 38.6262 34.6582 32.5517 34.6667C26.4762 34.6575 20.625 36.961 16.1863 41.1094ZM32.125 29.3334C34.2467 29.3334 36.2816 28.4905 37.7819 26.9902C39.2821 25.4899 40.125 23.4551 40.125 21.3334C40.125 19.2116 39.2821 17.1768 37.7819 15.6765C36.2816 14.1762 34.2467 13.3334 32.125 13.3334C30.0033 13.3334 27.9684 14.1762 26.4681 15.6765C24.9678 17.1768 24.125 19.2116 24.125 21.3334C24.125 23.4551 24.9678 25.4899 26.4681 26.9902C27.9684 28.4905 30.0033 29.3334 32.125 29.3334Z" fill="white"/>
</svg>
