<svg width="33" height="32" viewBox="0 0 33 32" fill="none" xmlns="http://www.w3.org/2000/svg">
<path opacity="0.3" d="M16.6666 29.3332C24.0304 29.3332 29.9999 23.3636 29.9999 15.9998C29.9999 8.63604 24.0304 2.6665 16.6666 2.6665C9.30279 2.6665 3.33325 8.63604 3.33325 15.9998C3.33325 23.3636 9.30279 29.3332 16.6666 29.3332Z" fill="white"/>
<path d="M17.9999 14.6668C17.9999 13.9304 17.403 13.3335 16.6666 13.3335C15.9302 13.3335 15.3333 13.9304 15.3333 14.6668V21.3335C15.3333 22.0699 15.9302 22.6668 16.6666 22.6668C17.403 22.6668 17.9999 22.0699 17.9999 21.3335V14.6668Z" fill="white"/>
<path d="M17.9999 10.6668C17.9999 9.93045 17.403 9.3335 16.6666 9.3335C15.9302 9.3335 15.3333 9.93045 15.3333 10.6668C15.3333 11.4032 15.9302 12.0002 16.6666 12.0002C17.403 12.0002 17.9999 11.4032 17.9999 10.6668Z" fill="white"/>
</svg>
