<svg width="35" height="47" viewBox="0 0 35 47" fill="none" xmlns="http://www.w3.org/2000/svg">
<path opacity="0.3" fill-rule="evenodd" clip-rule="evenodd" d="M18.5263 20.9385L22.8473 15.0616V19.4693L16.3658 26.8691L13.1251 18.0001H16.3658V20.9385H8.75008C7.94467 20.9385 7.29175 20.2807 7.29175 19.4693V4.77686C7.29175 3.96542 7.94467 3.30762 8.75008 3.30762H26.2501C27.0555 3.30762 27.7084 3.96542 27.7084 4.77686V19.4693C27.7084 20.2807 27.0555 20.9385 26.2501 20.9385H18.5263Z" fill="#F65464"/>
<path fill-rule="evenodd" clip-rule="evenodd" d="M14.2979 16.4048L13.125 18.0001H16.3657V23.8771L22.8472 15.0616H22.5481L29.4689 10.0259C29.7954 9.78831 30.2512 9.86237 30.487 10.1913C30.5767 10.3165 30.625 10.467 30.625 10.6214V25.3463C30.625 26.9692 29.3192 28.2848 27.7083 28.2848H7.29167C5.68084 28.2848 4.375 26.9692 4.375 25.3463V10.6214C4.375 10.2157 4.70146 9.88677 5.10417 9.88677C5.25745 9.88677 5.40683 9.93544 5.53109 10.0259L14.2979 16.4048Z" fill="#F65464"/>
<path fill-rule="evenodd" clip-rule="evenodd" d="M16.3753 11.7438L10.1191 23.005C9.91789 23.3671 10.0484 23.8237 10.4104 24.0248C10.5219 24.0867 10.6472 24.1192 10.7747 24.1192H23.9127C24.327 24.1192 24.6627 23.7834 24.6627 23.3692C24.6627 23.2312 24.6247 23.0959 24.5527 22.9781L17.6709 11.7169C17.4549 11.3635 16.9933 11.2521 16.6398 11.4681C16.5293 11.5356 16.4382 11.6306 16.3753 11.7438Z" fill="#FCD9DD"/>
<path d="M17.75 15.8691C17.75 15.4549 17.4142 15.1191 17 15.1191C16.5858 15.1191 16.25 15.4549 16.25 15.8691V19.6191C16.25 20.0334 16.5858 20.3691 17 20.3691C17.4142 20.3691 17.75 20.0334 17.75 19.6191V15.8691Z" fill="#F65464"/>
<path d="M17.75 21.8691C17.75 21.4549 17.4142 21.1191 17 21.1191C16.5858 21.1191 16.25 21.4549 16.25 21.8691C16.25 22.2834 16.5858 22.6191 17 22.6191C17.4142 22.6191 17.75 22.2834 17.75 21.8691Z" fill="#F65464"/>
</svg>
