<svg width="466" height="355" viewBox="0 0 466 355" fill="none" xmlns="http://www.w3.org/2000/svg">
<path d="M228.523 44.4238H183.137V56.433H228.523V44.4238Z" fill="#EBEBEB"/>
<path d="M209.336 69.0775C209.33 69.0706 209.33 69.0023 209.323 68.8589C209.316 68.6949 209.316 68.4968 209.309 68.2441C209.302 67.6771 209.289 66.8915 209.275 65.8805C209.254 63.8106 209.227 60.8254 209.2 57.0682L209.343 57.2117C198.98 57.2322 182.497 57.2664 163.964 57.3005C164.066 57.198 163.731 57.5328 164.189 57.0682V57.0751V57.0887V57.1161V57.1639V57.2595V57.4508V57.8333V58.6053C164.189 59.1176 164.189 59.6299 164.189 60.1354C164.189 61.1533 164.189 62.1643 164.189 63.1685C164.189 65.17 164.189 67.1442 164.182 69.0775L163.957 68.852C176.881 68.893 188.187 68.9272 196.302 68.9545C200.34 68.9818 203.585 69.0023 205.852 69.016C206.952 69.0296 207.82 69.0365 208.435 69.0433C208.715 69.0501 208.933 69.057 209.111 69.057C209.248 69.0706 209.33 69.0706 209.336 69.0775C209.343 69.0843 209.268 69.0843 209.125 69.0911C208.954 69.0979 208.742 69.098 208.476 69.1048C207.868 69.1116 207.021 69.1253 205.941 69.1321C203.687 69.1458 200.463 69.1663 196.446 69.1936C188.296 69.2209 176.929 69.2551 163.943 69.2961H163.718V69.0706C163.718 67.1374 163.718 65.17 163.711 63.1617C163.711 62.1575 163.711 61.1465 163.711 60.1286C163.711 59.6231 163.711 59.1108 163.711 58.5984V57.8265V57.444V57.2527V57.1571V57.1092V57.0819V57.0682V57.0614C164.175 56.5969 163.841 56.9316 163.943 56.8292C182.483 56.8633 198.96 56.8975 209.323 56.918H209.466V57.0614C209.432 60.8527 209.405 63.8653 209.391 65.9556C209.377 66.953 209.364 67.7317 209.357 68.285C209.35 68.531 209.343 68.7222 209.343 68.8794C209.343 69.016 209.336 69.0843 209.336 69.0775Z" fill="#E0E0E0"/>
<path d="M174.17 26.0273H95.4609V108.077H174.17V26.0273Z" fill="#E0E0E0"/>
<path d="M168.83 26.0273H90.1211V108.077H168.83V26.0273Z" fill="#FAFAFA"/>
<path d="M168.869 108.104H90.1055V26H168.869V108.104ZM90.1533 108.049H168.814V26.0478H90.1533V108.049Z" fill="#E0E0E0"/>
<path d="M158.267 37.0527H100.715V97.0441H158.267V37.0527Z" fill="white"/>
<path d="M100.712 97.4474C100.76 97.5021 100.214 98.1306 99.2915 99.1006C98.3693 100.071 97.0782 101.382 95.63 102.81C94.1818 104.238 92.8497 105.508 91.8729 106.41C90.8892 107.312 90.2607 107.844 90.2061 107.797C90.1582 107.749 90.6979 107.12 91.6201 106.15C92.5423 105.18 93.8334 103.862 95.2885 102.434C96.7435 101.006 98.0756 99.7291 99.0524 98.8273C100.036 97.9256 100.665 97.3928 100.712 97.4474Z" fill="#E0E0E0"/>
<path d="M158.246 97.2981C158.301 97.2502 158.929 97.7967 159.899 98.7189C160.869 99.6412 162.181 100.932 163.608 102.38C165.036 103.829 166.307 105.161 167.209 106.138C168.11 107.121 168.643 107.75 168.595 107.798C168.547 107.845 167.919 107.306 166.949 106.384C165.979 105.461 164.66 104.17 163.233 102.715C161.805 101.26 160.528 99.9281 159.626 98.9512C158.724 97.9744 158.191 97.3459 158.246 97.2981Z" fill="#E0E0E0"/>
<path d="M158.116 37.2174C158.068 37.1628 158.615 36.5343 159.537 35.5643C160.459 34.5943 161.75 33.2827 163.199 31.855C164.647 30.4272 165.979 29.1566 166.956 28.2549C167.939 27.3532 168.568 26.8204 168.616 26.8682C168.664 26.916 168.124 27.5445 167.202 28.5145C166.279 29.4845 164.988 30.803 163.533 32.2307C162.078 33.6584 160.746 34.9358 159.769 35.8375C158.792 36.7393 158.164 37.2721 158.116 37.2174Z" fill="#E0E0E0"/>
<path d="M100.555 37.3601C100.501 37.4079 99.8722 36.8614 98.9022 35.9392C97.9322 35.017 96.6206 33.7259 95.1929 32.2777C93.7651 30.8295 92.4945 29.4974 91.5928 28.5206C90.6911 27.5369 90.1583 26.9084 90.2061 26.8606C90.2539 26.8128 90.8824 27.3524 91.8524 28.2747C92.8224 29.1969 94.1409 30.488 95.5686 31.943C96.9963 33.398 98.2737 34.7301 99.1754 35.707C100.077 36.6907 100.61 37.3191 100.555 37.3601Z" fill="#E0E0E0"/>
<path d="M158.102 97.0442C158.096 97.0374 158.096 96.9417 158.089 96.7504C158.089 96.5455 158.082 96.2723 158.075 95.9102C158.068 95.1588 158.061 94.0795 158.048 92.6722C158.034 89.8305 158.014 85.6976 157.986 80.4444C157.959 69.9381 157.918 54.971 157.87 37.046L158.096 37.2646C141.339 37.2714 121.665 37.2851 100.707 37.2987H100.7L100.953 37.046C100.939 59.0628 100.925 79.6657 100.919 97.0374L100.7 96.8188C117.901 96.8666 132.219 96.9007 142.254 96.9281C147.268 96.9554 151.217 96.969 153.929 96.9827C155.267 96.9964 156.299 97.0032 157.016 97.01C157.358 97.0169 157.617 97.0169 157.815 97.0237C158.007 97.0374 158.102 97.0442 158.102 97.0442C158.109 97.051 158.02 97.051 157.85 97.0578C157.658 97.0578 157.406 97.0647 157.078 97.0715C156.367 97.0783 155.349 97.0852 154.031 97.0988C151.333 97.1125 147.405 97.133 142.411 97.1535C132.335 97.1808 117.969 97.2218 100.714 97.2628H100.495V97.0442C100.481 79.6725 100.475 59.0697 100.461 37.0528V36.8H100.714H100.721C121.679 36.8137 141.352 36.8205 158.109 36.8342H158.335V37.0596C158.287 55.0393 158.246 70.0542 158.219 80.6015C158.191 85.8274 158.171 89.9466 158.157 92.7747C158.143 94.1614 158.137 95.2271 158.13 95.9717C158.123 96.3201 158.123 96.5865 158.116 96.7846C158.109 96.9622 158.109 97.051 158.102 97.0442Z" fill="#E0E0E0"/>
<path d="M139.074 57.4514H119.871V76.6539H139.074V57.4514Z" fill="#EBEBEB"/>
<path d="M113.473 124.253L125.4 121.534L128.747 145.477L120.775 147.294L113.473 124.253ZM123.269 159.693C121.895 158.88 121.035 157.698 120.686 156.148C120.324 154.563 120.591 153.135 121.486 151.858C122.381 150.58 123.706 149.74 125.468 149.344C127.231 148.941 128.774 149.125 130.12 149.897C131.459 150.662 132.313 151.844 132.675 153.422C133.03 154.973 132.764 156.407 131.883 157.739C131.001 159.071 129.697 159.932 127.975 160.321C126.199 160.718 124.635 160.513 123.269 159.693Z" fill="#E0E0E0"/>
<path d="M89.8661 128.392C91.041 128.433 92.011 128.891 92.7898 129.759C93.5822 130.653 93.9169 131.664 93.794 132.805C93.671 133.946 93.1109 134.957 92.1203 135.838C91.1298 136.72 90.0642 137.15 88.9302 137.136C87.7962 137.116 86.8262 136.658 86.0338 135.77C85.255 134.896 84.9203 133.878 85.0159 132.71C85.1116 131.542 85.6444 130.524 86.6212 129.656C87.6049 128.775 88.6911 128.351 89.8661 128.392ZM108.754 147.766L102.026 153.75L91.3757 139.5L95.8707 135.504L108.754 147.766Z" fill="#E0E0E0"/>
<path d="M381.769 197.982H336.383V209.991H381.769V197.982Z" fill="#EBEBEB"/>
<path d="M362.567 222.636C362.56 222.629 362.56 222.56 362.553 222.417C362.546 222.253 362.546 222.055 362.54 221.802C362.533 221.235 362.519 220.45 362.505 219.439C362.485 217.369 362.458 214.384 362.43 210.626L362.574 210.77C352.211 210.79 335.727 210.824 317.194 210.859C317.297 210.756 316.962 211.091 317.42 210.626V210.633V210.647V210.674V210.722V210.818V211.009V211.391V212.163C317.42 212.676 317.42 213.188 317.42 213.694C317.42 214.711 317.42 215.722 317.42 216.727C317.42 218.728 317.42 220.702 317.413 222.636L317.187 222.41C330.112 222.451 341.418 222.485 349.533 222.513C353.57 222.54 356.815 222.56 359.083 222.574C360.183 222.588 361.05 222.595 361.665 222.601C361.945 222.608 362.164 222.615 362.341 222.615C362.485 222.629 362.567 222.629 362.567 222.636C362.574 222.642 362.499 222.642 362.355 222.649C362.184 222.656 361.973 222.656 361.706 222.663C361.098 222.67 360.251 222.677 359.172 222.69C356.917 222.704 353.693 222.724 349.676 222.752C341.527 222.779 330.16 222.813 317.174 222.854H316.948V222.629C316.948 220.696 316.948 218.728 316.941 216.72C316.941 215.716 316.941 214.705 316.941 213.687C316.941 213.181 316.941 212.669 316.941 212.157V211.385V211.002V210.811V210.722V210.674V210.647V210.633V210.626C317.406 210.162 317.071 210.497 317.174 210.394C335.713 210.428 352.19 210.462 362.553 210.483H362.697V210.626C362.662 214.418 362.635 217.43 362.621 219.521C362.608 220.518 362.594 221.297 362.587 221.85C362.58 222.096 362.574 222.287 362.574 222.444C362.581 222.574 362.574 222.642 362.567 222.636Z" fill="#E0E0E0"/>
<path d="M346.336 53.5162C346.33 53.5094 346.33 53.441 346.323 53.2976C346.316 53.1336 346.316 52.9355 346.309 52.6828C346.302 52.1158 346.289 51.3302 346.275 50.3192C346.254 48.2494 346.227 45.2641 346.2 41.507L346.343 41.6504C335.98 41.6709 319.497 41.7051 300.964 41.7392C301.066 41.6368 300.731 41.9715 301.189 41.507V41.5138V41.5275V41.5548V41.6026V41.6983V41.8895V42.2721V43.044C301.189 43.5563 301.189 44.0687 301.189 44.5742C301.189 45.592 301.189 46.603 301.189 47.6072C301.189 49.6088 301.189 51.583 301.182 53.5162L300.957 53.2908C313.881 53.3317 325.187 53.3659 333.302 53.3932C337.34 53.4206 340.585 53.441 342.852 53.4547C343.952 53.4684 344.82 53.4752 345.435 53.482C345.715 53.4889 345.933 53.4957 346.111 53.4957C346.248 53.5025 346.33 53.5094 346.336 53.5162C346.343 53.523 346.268 53.523 346.125 53.5298C345.954 53.5367 345.742 53.5367 345.476 53.5435C344.868 53.5503 344.021 53.5572 342.941 53.5708C340.687 53.5845 337.463 53.605 333.446 53.6323C325.296 53.6596 313.929 53.6938 300.943 53.7348H300.718V53.5094C300.718 51.5761 300.718 49.6088 300.711 47.6004C300.711 46.5962 300.711 45.5852 300.711 44.5673C300.711 44.0618 300.711 43.5495 300.711 43.0372V42.2652V41.8827V41.6914V41.5958V41.548V41.5206V41.5138C301.175 41.0493 300.841 41.384 300.943 41.2816C319.483 41.3157 335.96 41.3499 346.323 41.3704H346.466V41.5138C346.432 45.3051 346.405 48.3177 346.391 50.408C346.377 51.4054 346.364 52.1841 346.357 52.7374C346.35 52.9834 346.343 53.1746 346.343 53.3317C346.343 53.4547 346.336 53.5162 346.336 53.5162Z" fill="#E0E0E0"/>
<path d="M352.484 41.5071C352.477 41.5002 352.471 41.4251 352.464 41.2816C352.457 41.1109 352.45 40.8991 352.443 40.6463C352.436 40.0589 352.416 39.2528 352.402 38.2418C352.382 36.1378 352.348 33.1662 352.313 29.5047L352.477 29.6686C345.414 29.6823 335.802 29.7096 325.207 29.737C325.002 29.9419 325.487 29.4569 325.44 29.5047V29.5115V29.5252V29.5525V29.6003V29.696V29.8941V30.2903V31.0759C325.44 31.595 325.44 32.1142 325.44 32.6334C325.44 33.6649 325.44 34.6827 325.44 35.6869C325.44 37.6953 325.433 39.6422 325.433 41.5071L325.214 41.2885C333.084 41.3295 339.867 41.3636 344.724 41.3909C347.122 41.4183 349.041 41.4388 350.407 41.4524C351.043 41.4661 351.555 41.4729 351.938 41.4797C352.286 41.4866 352.471 41.5002 352.484 41.5071C352.491 41.5139 352.327 41.5276 351.992 41.5344C351.617 41.5412 351.125 41.5481 350.503 41.5617C349.151 41.5754 347.245 41.5959 344.874 41.6232C339.983 41.6505 333.152 41.6847 325.221 41.7257H325.002V41.5071C325.002 39.6422 324.996 37.6953 324.996 35.6869C324.996 34.6827 324.996 33.6649 324.996 32.6334C324.996 32.1142 324.996 31.595 324.996 31.0759V30.2903V29.8941V29.696V29.6003V29.5525V29.5252V29.5115V29.5047C324.948 29.5525 325.433 29.0675 325.228 29.2724C335.823 29.2998 345.428 29.3203 352.498 29.3407H352.669V29.5047C352.634 33.2004 352.6 36.2129 352.58 38.3374C352.559 39.3348 352.546 40.1272 352.539 40.7078C352.505 41.2407 352.491 41.5207 352.484 41.5071Z" fill="#E0E0E0"/>
<path d="M281.625 289.512C281.619 289.505 281.619 289.437 281.612 289.294C281.605 289.13 281.605 288.932 281.598 288.679C281.591 288.112 281.578 287.326 281.564 286.315C281.543 284.245 281.516 281.26 281.489 277.503L281.632 277.647C271.269 277.667 254.786 277.701 236.253 277.735C236.355 277.633 236.02 277.968 236.478 277.503V277.51V277.524V277.551V277.599V277.694V277.886V278.268V279.04C236.478 279.552 236.478 280.065 236.478 280.57C236.478 281.588 236.478 282.599 236.478 283.603C236.478 285.605 236.478 287.579 236.471 289.512L236.246 289.287C249.171 289.328 260.476 289.362 268.592 289.389C272.629 289.417 275.874 289.437 278.142 289.451C279.241 289.464 280.109 289.471 280.724 289.478C281.004 289.485 281.222 289.492 281.4 289.492C281.543 289.505 281.619 289.505 281.625 289.512C281.632 289.519 281.557 289.519 281.414 289.526C281.243 289.533 281.031 289.533 280.765 289.54C280.157 289.546 279.31 289.553 278.23 289.567C275.976 289.581 272.752 289.601 268.735 289.628C260.585 289.656 249.218 289.69 236.232 289.731H236.007V289.505C236.007 287.572 236.007 285.605 236 283.596C236 282.592 236 281.581 236 280.563C236 280.058 236 279.546 236 279.033V278.261V277.879V277.688V277.592V277.544V277.517V277.503V277.496C236.465 277.032 236.13 277.366 236.232 277.264C254.772 277.298 271.249 277.332 281.612 277.353H281.755V277.496C281.721 281.288 281.694 284.3 281.68 286.39C281.666 287.388 281.653 288.167 281.646 288.72C281.639 288.966 281.632 289.157 281.632 289.314C281.639 289.451 281.632 289.519 281.625 289.512Z" fill="#E0E0E0"/>
<path d="M287.793 277.504C287.786 277.497 287.779 277.422 287.772 277.278C287.765 277.107 287.759 276.896 287.752 276.643C287.745 276.055 287.724 275.249 287.711 274.238C287.69 272.134 287.656 269.163 287.622 265.501L287.786 265.665C280.723 265.679 271.111 265.706 260.516 265.734C260.311 265.938 260.796 265.453 260.748 265.501V265.508V265.522V265.549V265.597V265.693V265.891V266.287V267.072C260.748 267.592 260.748 268.111 260.748 268.63C260.748 269.661 260.748 270.679 260.748 271.683C260.748 273.692 260.741 275.639 260.741 277.504L260.523 277.285C268.392 277.326 275.176 277.36 280.033 277.388C282.43 277.415 284.35 277.435 285.716 277.449C286.351 277.463 286.864 277.469 287.246 277.476C287.595 277.49 287.786 277.497 287.793 277.504C287.8 277.51 287.636 277.524 287.301 277.531C286.925 277.538 286.433 277.545 285.812 277.558C284.459 277.572 282.553 277.592 280.183 277.62C275.292 277.647 268.461 277.681 260.53 277.722H260.311V277.504C260.311 275.639 260.304 273.692 260.304 271.683C260.304 270.679 260.304 269.661 260.304 268.63C260.304 268.111 260.304 267.592 260.304 267.072V266.287V265.891V265.693V265.597V265.549V265.522V265.508V265.501C260.256 265.549 260.741 265.064 260.536 265.269C271.132 265.296 280.736 265.317 287.806 265.337H287.977V265.501C287.943 269.197 287.909 272.209 287.888 274.334C287.868 275.331 287.854 276.124 287.847 276.704C287.813 277.244 287.806 277.517 287.793 277.504Z" fill="#E0E0E0"/>
<path d="M347.957 251.852C347.636 252.651 347.493 253.526 347.554 254.393C347.349 253.375 346.96 252.392 346.4 251.517C346.195 251.189 345.86 250.834 345.484 250.93C345.109 251.026 344.986 251.497 344.972 251.886C344.931 252.952 345.177 254.031 345.675 254.981C344.986 254.106 344.077 253.403 343.059 252.952C342.882 252.87 342.663 252.802 342.492 252.904C342.294 253.027 342.294 253.307 342.321 253.533C342.581 255.329 343.852 256.948 345.539 257.618L346.092 257.7C347.267 257.372 348.319 256.593 348.961 255.555C349.61 254.516 349.849 253.232 349.624 252.037C349.535 251.579 349.276 251.046 348.811 251.039C348.394 251.039 348.114 251.463 347.957 251.852Z" fill="#4299E1"/>
<path d="M335.541 276.657C336.825 275.728 339.244 274.84 340.808 274.532C339.701 270.761 339.64 266.69 340.658 262.899C341.061 261.396 341.641 259.914 342.625 258.711C343.602 257.509 345.03 256.6 346.58 256.505C348.254 256.402 349.852 257.27 350.973 258.54L352.913 263.035C353.022 263.691 353.111 264.347 353.145 265.01C353.384 269.354 352.387 273.754 350.31 277.579C352.332 279.813 354.525 283.659 353.869 288.119H330.8C330.39 283.836 332.016 279.198 335.541 276.657Z" fill="#455A64"/>
<path d="M351.34 279.013C351.346 279.006 351.292 278.917 351.162 278.76C351.032 278.61 350.868 278.357 350.588 278.097C350.069 277.537 349.222 276.813 348.033 276.143C346.845 275.467 345.287 274.9 343.484 274.688C341.687 274.477 339.638 274.682 337.698 275.494C335.771 276.342 334.214 277.694 333.134 279.149C332.048 280.604 331.393 282.128 331.065 283.453C330.737 284.778 330.682 285.898 330.73 286.657C330.73 287.039 330.798 287.326 330.819 287.524C330.846 287.722 330.866 287.825 330.88 287.825C330.983 287.832 330.586 286.124 331.304 283.514C331.652 282.223 332.315 280.748 333.387 279.34C334.453 277.94 335.969 276.635 337.827 275.816C339.706 275.023 341.687 274.818 343.436 275.009C345.191 275.194 346.728 275.727 347.903 276.362C350.301 277.626 351.271 279.088 351.34 279.013Z" fill="#263238"/>
<path d="M353.268 266.662C353.316 266.662 353.35 266.074 353.309 265.132C353.268 264.189 353.152 262.87 352.688 261.484C352.223 260.097 351.431 258.977 350.714 258.341C349.996 257.692 349.422 257.487 349.416 257.522C349.382 257.576 349.901 257.856 350.543 258.519C351.192 259.175 351.909 260.254 352.36 261.593C352.811 262.932 352.961 264.223 353.064 265.152C353.166 266.081 353.221 266.662 353.268 266.662Z" fill="#263238"/>
<path d="M339.942 285.181C340.004 285.106 338.993 284.17 337.79 282.982C336.581 281.793 335.638 280.789 335.563 280.85C335.488 280.912 336.322 282.025 337.544 283.228C338.753 284.43 339.881 285.256 339.942 285.181Z" fill="#263238"/>
<path d="M342.491 283.835C342.586 283.815 342.416 282.79 342.115 281.547C341.814 280.304 341.493 279.32 341.398 279.34C341.302 279.361 341.473 280.386 341.773 281.629C342.074 282.872 342.395 283.863 342.491 283.835Z" fill="#263238"/>
<path d="M349.339 281.275C349.263 281.22 348.587 282.115 348.027 283.359C347.46 284.602 347.235 285.695 347.323 285.722C347.419 285.75 347.795 284.725 348.348 283.502C348.895 282.286 349.421 281.33 349.339 281.275Z" fill="#263238"/>
<path d="M341.94 270.501C342.015 270.439 341.318 269.387 340.382 268.144C339.446 266.901 338.62 265.944 338.545 265.999C338.469 266.061 339.166 267.113 340.102 268.356C341.038 269.599 341.865 270.562 341.94 270.501Z" fill="#263238"/>
<path d="M343.573 263.287C343.655 263.233 342.863 261.941 341.804 260.398C340.745 258.854 339.83 257.651 339.748 257.706C339.666 257.761 340.458 259.052 341.517 260.596C342.569 262.14 343.492 263.342 343.573 263.287Z" fill="#263238"/>
<path d="M346.17 265.179C346.074 265.172 345.924 266.265 345.842 267.625C345.76 268.977 345.767 270.084 345.862 270.091C345.958 270.098 346.108 269.005 346.19 267.645C346.279 266.293 346.265 265.186 346.17 265.179Z" fill="#263238"/>
<path d="M356.532 268.465C356.491 268.383 354.995 269.08 353.26 270.139C351.525 271.198 350.22 272.209 350.275 272.284C350.33 272.366 351.716 271.491 353.445 270.439C355.166 269.38 356.58 268.547 356.532 268.465Z" fill="#263238"/>
<g opacity="0.3">
<g opacity="0.3">
<g opacity="0.3">
<g opacity="0.3">
<g opacity="0.3">
<g opacity="0.3">
<g opacity="0.3">
<path opacity="0.3" d="M348.231 274.675C347.111 274.019 345.786 273.814 344.488 273.752C343.142 273.684 341.639 273.821 340.73 274.811V274.859C343.962 274.627 347.726 275.733 350.205 277.817C350.226 276.519 349.345 275.33 348.231 274.675Z" fill="black"/>
</g>
</g>
</g>
</g>
</g>
</g>
</g>
<path d="M337.246 229.364C336.59 229.186 335.893 229.159 335.224 229.289C336.002 229.036 336.733 228.633 337.362 228.114C337.601 227.922 337.84 227.629 337.731 227.342C337.621 227.055 337.239 227.007 336.931 227.034C336.091 227.103 335.271 227.396 334.582 227.875C335.203 227.253 335.661 226.481 335.92 225.641C335.968 225.491 336.002 225.313 335.9 225.19C335.784 225.047 335.565 225.074 335.388 225.115C334.008 225.484 332.86 226.631 332.498 228.011L332.484 228.448C332.846 229.337 333.557 230.081 334.431 230.491C335.306 230.901 336.33 230.969 337.246 230.675C337.594 230.566 337.99 230.313 337.949 229.944C337.922 229.63 337.567 229.446 337.246 229.364Z" fill="#4299E1"/>
<path d="M290.718 199.874C290.595 200.543 290.63 201.24 290.807 201.896C290.486 201.145 290.028 200.448 289.461 199.86C289.25 199.642 288.935 199.423 288.662 199.553C288.389 199.689 288.368 200.072 288.423 200.373C288.567 201.199 288.922 201.992 289.455 202.647C288.785 202.08 287.972 201.684 287.112 201.5C286.961 201.466 286.777 201.445 286.668 201.554C286.538 201.677 286.579 201.896 286.64 202.067C287.125 203.412 288.362 204.458 289.769 204.704L290.206 204.676C291.06 204.239 291.743 203.467 292.078 202.565C292.413 201.664 292.392 200.632 292.03 199.744C291.893 199.403 291.606 199.034 291.244 199.102C290.923 199.177 290.773 199.553 290.718 199.874Z" fill="#4299E1"/>
<path d="M323.134 260.207C322.793 260.22 322.472 260.261 322.144 260.289C321.543 253.697 323.544 247.009 321.529 240.704L321.796 241.045C324.221 241.366 326.741 241.271 329.03 240.396C331.318 239.529 333.34 237.814 334.262 235.546C335.185 233.278 334.836 230.464 333.149 228.694C330.867 226.31 326.851 226.433 323.988 228.08C321.229 229.664 319.295 232.322 317.471 234.945C316.515 234.194 315.456 233.565 314.322 233.135C317.506 228.756 320.58 224.159 321.584 218.871C322.684 213.085 320.518 206.227 315.149 203.815C310.572 201.759 304.841 203.617 301.616 207.456C301.364 207.757 301.152 208.085 300.926 208.399L301.036 208.085C300.236 206.076 298.672 204.355 296.684 203.508C294.696 202.654 292.312 202.722 290.44 203.808C288.569 204.895 287.312 207.005 287.373 209.164C287.448 211.596 289.156 213.802 291.349 214.868C293.446 215.893 295.905 215.975 298.194 215.503C297.9 217.539 297.914 219.629 298.228 221.651C298.945 226.256 300.995 230.539 303.433 234.521C302.757 234.979 302.122 235.485 301.562 236.072C297.415 240.41 297.149 247.378 299.321 252.972C301.493 258.567 307.375 262.693 311.46 267.092H311.467C309.711 270.064 308.789 273.609 308.331 276.936C306.91 273.971 303.741 271.84 300.434 271.867C298.652 271.881 296.657 272.674 296.11 274.368C295.625 275.857 296.445 277.476 297.504 278.63C299.977 281.322 304.397 282.551 307.949 281.691L307.997 280.598C307.771 284.874 308.174 288.119 308.174 288.119H334.502C334.481 288.119 341.517 259.524 323.134 260.207Z" fill="#455A64"/>
<path d="M364.661 288.118H302.367V299.157H364.661V288.118Z" fill="#4299E1"/>
<path d="M307.008 296.965L314.584 329.96H351.704L359.997 296.965H307.008Z" fill="#4299E1"/>
<path d="M364.606 299.171C364.606 299.294 350.554 299.39 333.23 299.39C315.893 299.39 301.848 299.294 301.848 299.171C301.848 299.049 315.893 298.953 333.23 298.953C350.554 298.953 364.606 299.049 364.606 299.171Z" fill="#263238"/>
<path d="M328.012 261.293C328.019 261.279 327.896 261.211 327.65 261.088C327.411 260.951 327.042 260.801 326.557 260.617C325.587 260.275 324.078 259.975 322.22 260.118C320.375 260.268 318.182 260.904 316.119 262.256C314.056 263.609 312.219 265.699 310.88 268.186C309.534 270.679 308.769 273.295 308.373 275.707C307.99 278.125 307.949 280.331 307.949 282.169C307.963 284.013 308.018 285.496 308.058 286.527C308.079 287.012 308.093 287.402 308.106 287.709C308.12 287.982 308.134 288.119 308.147 288.119C308.161 288.119 308.168 287.976 308.175 287.709C308.181 287.402 308.181 287.005 308.188 286.527C308.188 285.455 308.188 283.979 308.195 282.176C308.229 280.345 308.291 278.152 308.687 275.768C309.097 273.391 309.862 270.809 311.187 268.356C312.506 265.911 314.295 263.861 316.297 262.529C318.298 261.197 320.437 260.548 322.24 260.371C324.057 260.2 325.539 260.453 326.51 260.753C327.493 261.047 327.992 261.334 328.012 261.293Z" fill="#263238"/>
<path d="M322.443 247.316C322.457 247.316 322.47 247.207 322.484 247.002C322.491 246.797 322.532 246.49 322.518 246.101C322.525 245.315 322.436 244.174 322.129 242.801C321.814 241.435 321.268 239.823 320.298 238.224C319.827 237.418 319.239 236.626 318.535 235.895C317.839 235.157 317.019 234.467 316.069 233.941C315.127 233.401 314.129 233.032 313.132 232.807C312.128 232.602 311.144 232.554 310.208 232.588C308.337 232.698 306.704 233.176 305.413 233.729C304.122 234.283 303.138 234.87 302.496 235.321C302.168 235.533 301.936 235.738 301.772 235.861C301.608 235.99 301.533 236.059 301.539 236.072C301.56 236.1 301.915 235.847 302.571 235.437C303.227 235.027 304.217 234.481 305.502 233.961C306.786 233.449 308.398 233.005 310.215 232.916C311.124 232.889 312.08 232.944 313.05 233.149C314.013 233.367 314.976 233.729 315.885 234.248C316.8 234.761 317.593 235.423 318.276 236.134C318.966 236.844 319.546 237.616 320.011 238.395C320.974 239.946 321.534 241.517 321.876 242.856C322.211 244.201 322.334 245.322 322.368 246.101C322.422 246.879 322.416 247.31 322.443 247.316Z" fill="#263238"/>
<path d="M297.985 219.458C298.033 219.465 298.114 218.652 298.21 217.347C298.258 216.698 298.326 215.919 298.47 215.072C298.606 214.219 298.825 213.317 299.214 212.401C299.973 210.571 300.902 209.013 301.619 207.927C302.336 206.841 302.883 206.24 302.842 206.199C302.828 206.185 302.671 206.315 302.411 206.574C302.159 206.841 301.803 207.244 301.414 207.777C300.635 208.842 299.665 210.393 298.886 212.265C298.483 213.194 298.265 214.157 298.149 215.018C298.019 215.885 297.978 216.671 297.957 217.327C297.93 218.645 297.937 219.458 297.985 219.458Z" fill="#263238"/>
<path d="M301.357 278.651C301.295 278.576 300.489 279.171 299.56 279.977C298.631 280.783 297.934 281.493 297.996 281.568C298.057 281.643 298.864 281.049 299.793 280.243C300.722 279.437 301.418 278.727 301.357 278.651Z" fill="#263238"/>
<path d="M299.15 276.459C299.157 276.363 298.16 276.185 296.916 276.062C295.673 275.94 294.662 275.919 294.648 276.015C294.642 276.11 295.639 276.288 296.882 276.411C298.126 276.534 299.137 276.554 299.15 276.459Z" fill="#263238"/>
<path d="M300.846 272.572C300.914 272.497 300.279 271.786 299.596 270.844C298.906 269.901 298.428 269.074 298.332 269.122C298.25 269.163 298.599 270.078 299.309 271.048C300.019 272.025 300.784 272.64 300.846 272.572Z" fill="#263238"/>
<path d="M303.771 270.788C303.676 270.809 303.86 271.95 304.181 273.336C304.502 274.723 304.837 275.83 304.933 275.809C305.028 275.789 304.844 274.648 304.523 273.261C304.202 271.875 303.867 270.768 303.771 270.788Z" fill="#263238"/>
<path d="M305.764 279.69C305.826 279.614 305.416 279.136 304.835 278.617C304.255 278.098 303.736 277.736 303.674 277.804C303.613 277.879 304.022 278.357 304.603 278.877C305.177 279.396 305.696 279.758 305.764 279.69Z" fill="#263238"/>
<path d="M314.896 277.961C314.964 277.893 314.459 277.251 313.769 276.534C313.079 275.81 312.457 275.277 312.389 275.345C312.321 275.413 312.826 276.055 313.516 276.773C314.206 277.497 314.828 278.03 314.896 277.961Z" fill="#263238"/>
<path d="M316.886 269.51C316.968 269.462 316.592 268.691 316.039 267.796C315.492 266.901 314.98 266.211 314.898 266.265C314.816 266.313 315.192 267.085 315.745 267.98C316.292 268.875 316.804 269.558 316.886 269.51Z" fill="#263238"/>
<path d="M322.715 262.632C322.619 262.632 322.523 263.616 322.51 264.825C322.496 266.041 322.558 267.025 322.653 267.025C322.749 267.025 322.844 266.041 322.858 264.832C322.879 263.616 322.81 262.632 322.715 262.632Z" fill="#263238"/>
<path d="M334.936 264.962C334.854 264.907 334.137 265.863 333.194 266.991C332.258 268.125 331.459 269.013 331.528 269.081C331.589 269.149 332.511 268.364 333.461 267.209C334.424 266.068 335.018 265.01 334.936 264.962Z" fill="#263238"/>
<path d="M336.521 276.977C336.5 276.882 335.523 276.991 334.342 277.223C333.153 277.456 332.21 277.715 332.231 277.811C332.251 277.907 333.221 277.797 334.41 277.565C335.592 277.333 336.541 277.073 336.521 276.977Z" fill="#263238"/>
<path d="M323.836 281.158C323.925 281.131 323.638 280.017 322.996 278.753C322.361 277.49 321.63 276.595 321.555 276.649C321.473 276.704 322.06 277.674 322.682 278.91C323.31 280.147 323.741 281.192 323.836 281.158Z" fill="#263238"/>
<path d="M328.055 275.399C328.15 275.399 328.246 274.606 328.266 273.623C328.287 272.639 328.225 271.84 328.13 271.84C328.034 271.84 327.938 272.632 327.918 273.616C327.898 274.593 327.959 275.392 328.055 275.399Z" fill="#263238"/>
<path d="M314.406 285.558C314.495 285.524 314.249 284.649 313.661 283.7C313.081 282.75 312.411 282.129 312.343 282.197C312.268 282.265 312.801 282.962 313.368 283.884C313.928 284.8 314.31 285.599 314.406 285.558Z" fill="#263238"/>
<path d="M328.899 286.391C328.988 286.432 329.412 285.667 329.842 284.683C330.272 283.699 330.552 282.873 330.464 282.832C330.375 282.791 329.951 283.556 329.521 284.539C329.091 285.523 328.81 286.35 328.899 286.391Z" fill="#263238"/>
<path d="M306.371 259.605C306.371 259.509 305.285 259.468 303.959 259.509C302.627 259.55 301.555 259.667 301.555 259.762C301.555 259.858 302.641 259.899 303.966 259.858C305.298 259.817 306.371 259.701 306.371 259.605Z" fill="#263238"/>
<path d="M301.132 250.623C301.186 250.541 300.148 249.714 298.816 248.765C297.484 247.815 296.357 247.118 296.295 247.194C296.24 247.276 297.279 248.102 298.611 249.052C299.95 249.994 301.077 250.698 301.132 250.623Z" fill="#263238"/>
<path d="M301.678 239.078C301.719 238.982 300.824 238.518 299.792 237.828C298.754 237.145 297.975 236.503 297.907 236.578C297.839 236.646 298.535 237.418 299.601 238.122C300.66 238.825 301.644 239.16 301.678 239.078Z" fill="#263238"/>
<path d="M307.557 234.993C307.652 234.972 307.42 233.709 307.044 232.179C306.669 230.648 306.286 229.426 306.197 229.446C306.102 229.467 306.334 230.73 306.71 232.26C307.085 233.798 307.468 235.02 307.557 234.993Z" fill="#263238"/>
<path d="M317.405 232.082C317.323 232.034 316.811 232.792 316.258 233.776C315.711 234.76 315.336 235.593 315.417 235.641C315.499 235.689 316.012 234.931 316.565 233.947C317.112 232.963 317.487 232.13 317.405 232.082Z" fill="#263238"/>
<path d="M325.879 251.566C325.811 251.491 324.69 252.345 323.215 253.253C321.739 254.169 320.476 254.784 320.517 254.879C320.551 254.961 321.903 254.483 323.399 253.554C324.902 252.625 325.934 251.634 325.879 251.566Z" fill="#263238"/>
<path d="M312.135 255.945C312.183 255.863 311.432 255.303 310.448 254.702C309.464 254.094 308.624 253.67 308.576 253.752C308.529 253.834 309.28 254.394 310.264 254.996C311.247 255.604 312.088 256.027 312.135 255.945Z" fill="#263238"/>
<path d="M309.827 246.626C309.895 246.551 309.007 245.677 308.188 244.406C307.354 243.143 306.91 241.974 306.808 242.009C306.719 242.029 307.026 243.279 307.894 244.598C308.748 245.916 309.772 246.695 309.827 246.626Z" fill="#263238"/>
<path d="M314.33 244.523C314.426 244.516 314.46 243.505 314.399 242.261C314.344 241.018 314.214 240.014 314.119 240.021C314.023 240.028 313.989 241.039 314.05 242.282C314.105 243.525 314.235 244.529 314.33 244.523Z" fill="#263238"/>
<path d="M316.814 253.73C316.909 253.744 317.107 252.719 317.251 251.449C317.394 250.178 317.442 249.14 317.339 249.126C317.244 249.112 317.046 250.137 316.902 251.408C316.759 252.678 316.718 253.723 316.814 253.73Z" fill="#263238"/>
<path d="M323.808 225.99C323.705 225.976 323.48 227.151 323.07 228.565C322.667 229.98 322.243 231.1 322.332 231.141C322.414 231.182 322.995 230.102 323.405 228.661C323.828 227.22 323.903 226.004 323.808 225.99Z" fill="#263238"/>
<path d="M328.693 242.166C328.741 242.077 327.784 241.497 326.678 240.684C325.564 239.878 324.717 239.153 324.649 239.222C324.58 239.283 325.339 240.144 326.473 240.964C327.6 241.79 328.645 242.248 328.693 242.166Z" fill="#263238"/>
<path d="M335.368 237.199C335.375 237.097 334.262 236.96 332.916 236.701C331.564 236.448 330.484 236.161 330.45 236.257C330.416 236.345 331.475 236.783 332.848 237.042C334.228 237.309 335.368 237.295 335.368 237.199Z" fill="#263238"/>
<path d="M328.897 231.653C328.842 231.571 328.214 231.878 327.496 232.343C326.772 232.807 326.232 233.244 326.28 233.326C326.335 233.408 326.963 233.101 327.681 232.636C328.405 232.172 328.944 231.735 328.897 231.653Z" fill="#263238"/>
<path d="M332.125 225.661C332.07 225.586 331.284 226.112 330.526 226.98C329.768 227.847 329.358 228.694 329.44 228.742C329.529 228.797 330.055 228.052 330.793 227.212C331.524 226.365 332.186 225.737 332.125 225.661Z" fill="#263238"/>
<path d="M336.535 231.372C336.494 231.277 335.504 231.605 334.267 231.939C333.031 232.274 332.006 232.493 332.02 232.588C332.033 232.684 333.092 232.616 334.356 232.274C335.62 231.932 336.569 231.454 336.535 231.372Z" fill="#263238"/>
<path d="M305.962 223.687C306.037 223.626 305.074 222.321 303.974 220.654C302.867 218.994 302.041 217.594 301.952 217.642C301.87 217.683 302.567 219.165 303.687 220.846C304.794 222.526 305.893 223.749 305.962 223.687Z" fill="#263238"/>
<path d="M307.917 216.699C308.013 216.685 307.938 215.517 307.753 214.089C307.562 212.661 307.336 211.514 307.241 211.527C307.145 211.541 307.22 212.709 307.405 214.137C307.589 215.565 307.822 216.712 307.917 216.699Z" fill="#263238"/>
<path d="M314.718 217.785C314.616 217.765 314.329 219.111 313.659 220.648C312.997 222.191 312.211 223.319 312.3 223.38C312.368 223.442 313.297 222.376 313.98 220.784C314.67 219.206 314.807 217.792 314.718 217.785Z" fill="#263238"/>
<path d="M322.696 219.473C322.614 219.411 321.623 220.579 320.25 221.863C318.884 223.155 317.654 224.077 317.709 224.159C317.757 224.234 319.096 223.435 320.489 222.116C321.889 220.818 322.771 219.527 322.696 219.473Z" fill="#263238"/>
<path d="M319.605 204.983C319.502 204.97 319.195 206.439 318.648 208.208C318.109 209.977 317.528 211.364 317.624 211.412C317.706 211.453 318.43 210.107 318.983 208.317C319.543 206.514 319.7 204.997 319.605 204.983Z" fill="#263238"/>
<path d="M310.412 200.216C310.317 200.209 310.166 201.363 310.077 202.798C309.989 204.226 309.995 205.394 310.098 205.4C310.194 205.407 310.344 204.253 310.433 202.818C310.521 201.384 310.515 200.222 310.412 200.216Z" fill="#263238"/>
<path d="M291.437 212.47C291.41 212.375 290.542 212.525 289.463 212.614C288.383 212.702 287.495 212.696 287.488 212.791C287.475 212.88 288.376 213.051 289.49 212.962C290.603 212.873 291.464 212.559 291.437 212.47Z" fill="#263238"/>
<path d="M291.994 207.681C292.041 207.592 290.825 206.862 289.275 206.042C287.731 205.222 286.44 204.628 286.392 204.71C286.344 204.792 287.56 205.529 289.111 206.349C290.655 207.176 291.946 207.77 291.994 207.681Z" fill="#263238"/>
<path d="M297.133 207.853C297.228 207.825 296.962 206.732 296.552 205.414C296.142 204.096 295.732 203.05 295.637 203.085C295.541 203.112 295.807 204.205 296.217 205.523C296.627 206.842 297.037 207.887 297.133 207.853Z" fill="#263238"/>
<g opacity="0.3">
<g opacity="0.3">
<g opacity="0.3">
<g opacity="0.3">
<g opacity="0.3">
<g opacity="0.3">
<g opacity="0.3">
<path opacity="0.3" d="M311.5 267.12C311.548 264.62 312.935 262.065 315.004 260.678C317.081 259.285 320.811 259.148 322.28 260.193C320.107 260.173 317.641 261.102 315.899 262.393C314.157 263.684 312.682 265.289 311.5 267.12Z" fill="black"/>
</g>
</g>
</g>
</g>
</g>
</g>
</g>
<g opacity="0.3">
<g opacity="0.3">
<g opacity="0.3">
<g opacity="0.3">
<g opacity="0.3">
<g opacity="0.3">
<g opacity="0.3">
<path opacity="0.3" d="M303.367 234.993C304.269 233.026 306.25 231.475 308.381 231.086C310.513 230.697 313.525 231.878 314.324 233.217C312.603 232.445 310.328 232.336 308.497 232.76C306.667 233.183 304.938 233.948 303.367 234.993Z" fill="black"/>
</g>
</g>
</g>
</g>
</g>
</g>
</g>
<g opacity="0.3">
<g opacity="0.3">
<g opacity="0.3">
<g opacity="0.3">
<g opacity="0.3">
<g opacity="0.3">
<g opacity="0.3">
<path opacity="0.3" d="M297.997 215.893C297.157 214.438 297.027 212.593 297.656 211.036C298.284 209.478 299.507 208.713 301.119 208.249C299.466 210.646 298.168 213.071 298.045 215.981" fill="black"/>
</g>
</g>
</g>
</g>
</g>
</g>
</g>
<path d="M331.239 262.803C331.219 262.83 331.513 263.055 331.95 263.568C332.38 264.073 332.968 264.859 333.541 265.904C334.6 268.029 335.557 271.273 335.83 274.914C336.11 278.569 335.727 281.896 335.365 284.266C335.181 285.455 335.003 286.411 334.88 287.074C334.751 287.737 334.696 288.105 334.723 288.112C334.751 288.119 334.853 287.764 335.031 287.108C335.201 286.452 335.42 285.503 335.639 284.314C336.069 281.944 336.506 278.59 336.219 274.887C335.939 271.185 334.935 267.926 333.787 265.767C333.173 264.715 332.544 263.95 332.066 263.465C331.581 262.974 331.253 262.782 331.239 262.803Z" fill="#263238"/>
<path d="M302.371 288.119C302.371 288.126 302.433 288.133 302.562 288.14C302.706 288.146 302.89 288.153 303.116 288.16C303.628 288.167 304.345 288.181 305.254 288.194C307.139 288.208 309.817 288.228 313.117 288.249C319.777 288.262 328.931 288.283 339.048 288.303C349.021 288.283 358.059 288.269 364.665 288.256L364.542 288.133C364.555 291.528 364.562 294.288 364.576 296.221C364.589 297.157 364.596 297.894 364.603 298.42C364.61 298.653 364.617 298.844 364.617 298.994C364.624 299.124 364.63 299.192 364.637 299.192C364.644 299.192 364.651 299.124 364.658 298.994C364.665 298.844 364.671 298.66 364.678 298.42C364.685 297.894 364.699 297.157 364.719 296.221C364.74 294.288 364.767 291.528 364.801 288.133V288.01H364.671C358.059 287.996 349.021 287.982 339.055 287.962C328.938 287.982 319.784 288.003 313.123 288.017C309.824 288.037 307.146 288.058 305.261 288.071C304.352 288.085 303.635 288.099 303.123 288.105C302.897 288.112 302.713 288.119 302.569 288.126C302.433 288.105 302.371 288.112 302.371 288.119Z" fill="#263238"/>
<path d="M152.004 89.0792C153.971 82.6032 158.664 77.0017 164.696 73.9277C171.322 70.5462 179.212 70.2593 186.46 71.9261C193.708 73.5929 200.403 77.0837 206.735 80.9911C210.287 83.1839 213.819 85.5816 216.319 88.9221C220.883 95.0155 225.289 104.934 225.528 112.551C225.719 118.706 222.932 134.022 220.172 139.527C219.189 141.488 216.893 143.223 214.127 144.678C211.148 150.109 207.261 155.027 202.575 159.085C201.27 154.918 199.966 150.751 198.654 146.584L152.004 89.0792Z" fill="#263238"/>
<path d="M228.213 165.055C231.212 153.962 229.893 140.299 229.422 130.804C228.951 121.309 231.048 117.217 223.903 101.314C218.547 89.407 209.701 82.1932 201.264 77.8145L167.204 81.5238C167.443 80.9226 167.689 80.3352 167.935 79.7887L155.762 81.6058C151.287 81.0593 148.193 83.1906 146.027 86.6198C145.289 87.4532 144.647 88.3823 144.142 89.3591C142.53 92.4946 141.997 96.0469 141.484 99.5376C141.013 102.755 140.801 106.266 140.747 109.941C140.644 111.321 140.562 112.53 140.467 113.473C140.344 114.703 140.508 116.26 140.842 117.989C141.341 132.621 143.219 148.749 141.437 160.895C141.252 162.166 141.075 163.525 141.635 164.68C142.236 165.909 143.527 166.627 144.77 167.214C159.874 174.387 170.558 165.78 185.491 158.252C188.394 156.783 191.366 155.014 194.617 155.137C198.06 155.266 200.909 164.277 204.058 165.663" fill="#263238"/>
<path d="M212.418 109.484C212.029 100.255 206.284 92.5291 197.403 89.9947L169.716 82.0842C157.7 80.4379 149.23 95.0361 148.096 107.107C146.839 120.523 145.889 134.684 147.174 144.76C149.756 165.022 165.133 168.061 165.133 168.061C165.133 168.034 164.859 177.652 164.702 183.548L178.139 248.15L207.356 180.733L212.48 109.73C212.5 109.388 212.439 109.949 212.418 109.484Z" fill="#FFBE9D"/>
<path d="M168.009 137.458C168.03 137.301 166.308 136.945 163.514 136.501C162.804 136.406 162.141 136.242 162.032 135.757C161.881 135.237 162.203 134.479 162.571 133.666C163.296 131.965 164.047 130.189 164.839 128.318C167.995 120.701 170.304 114.437 169.997 114.307C169.689 114.184 166.882 120.25 163.726 127.867C162.968 129.745 162.237 131.535 161.547 133.25C161.253 134.049 160.761 134.951 161.089 136.03C161.267 136.57 161.772 136.966 162.223 137.102C162.674 137.253 163.077 137.273 163.425 137.307C166.24 137.553 167.995 137.615 168.009 137.458Z" fill="#263238"/>
<path d="M192.087 161.661C192.087 161.661 185.126 175.323 165.008 172.816L165.138 168.075C165.131 168.068 178.397 169.325 192.087 161.661Z" fill="#EB996E"/>
<path d="M178.481 103.199C178.734 103.964 181.521 103.691 184.773 104.183C188.038 104.613 190.641 105.645 191.091 104.982C191.296 104.661 190.859 103.937 189.814 103.172C188.782 102.407 187.116 101.662 185.169 101.382C183.215 101.109 181.412 101.362 180.209 101.812C178.993 102.256 178.372 102.837 178.481 103.199Z" fill="#263238"/>
<path d="M151.516 102.932C151.988 103.581 153.921 102.98 156.23 103.021C158.539 102.98 160.472 103.575 160.943 102.932C161.148 102.618 160.861 101.976 160.028 101.348C159.208 100.726 157.814 100.193 156.23 100.193C154.645 100.193 153.251 100.726 152.432 101.348C151.591 101.976 151.304 102.618 151.516 102.932Z" fill="#263238"/>
<path d="M154.103 88.847C155.421 85.8482 158.803 84.1199 162.081 84.0516C165.36 83.9764 168.516 85.3085 171.304 87.03C183.115 94.312 188.812 111.26 200.473 118.781C203.342 120.633 207.188 119.123 209.599 121.534C212.017 123.946 213.52 127.73 212.058 130.811C213.718 128.673 215.392 126.487 216.376 123.966C217.353 121.439 217.551 118.481 216.266 116.097C215.29 114.286 213.513 112.879 213.076 110.871C212.687 109.108 213.431 107.291 213.411 105.481C213.384 103.643 212.571 101.908 211.71 100.282C207.297 91.9279 201.115 84.3111 193.013 79.4542C187.719 76.2777 181.619 74.3376 175.443 74.3718C169.268 74.4059 163.045 76.4963 158.413 80.5745C155.687 82.9722 152.825 85.4519 154.103 88.847Z" fill="#263238"/>
<path d="M209.27 124.023C209.495 123.449 220.124 119.951 219.947 131.141C219.769 142.009 208.873 139.557 208.86 139.243C208.846 138.928 209.27 124.023 209.27 124.023Z" fill="#FFBE9D"/>
<path d="M212.262 135.183C212.31 135.149 212.446 135.32 212.767 135.47C213.075 135.62 213.614 135.729 214.181 135.524C215.336 135.128 216.34 133.318 216.429 131.364C216.477 130.374 216.285 129.431 215.951 128.645C215.636 127.846 215.131 127.279 214.557 127.163C213.983 127.02 213.566 127.354 213.43 127.662C213.28 127.962 213.341 128.181 213.286 128.201C213.252 128.229 213.054 128.017 213.157 127.566C213.204 127.348 213.334 127.095 213.594 126.897C213.86 126.692 214.243 126.589 214.646 126.637C215.486 126.712 216.224 127.498 216.593 128.359C217.009 129.226 217.242 130.292 217.194 131.398C217.085 133.584 215.923 135.613 214.345 136.037C213.58 136.221 212.945 135.975 212.617 135.716C212.275 135.449 212.221 135.203 212.262 135.183Z" fill="#7B4B45"/>
<path d="M213.725 118.556C213.718 118.569 213.492 118.44 213.083 118.173C212.673 117.9 212.044 117.524 211.293 116.964C209.804 115.823 207.747 114.027 205.582 111.458C203.396 108.903 201.135 105.611 198.676 101.935C196.216 98.267 193.518 94.2093 190.027 90.5205C188.251 88.7171 186.373 87.0844 184.371 85.7865C182.376 84.4749 180.272 83.498 178.203 82.7739C174.056 81.3121 170.053 80.9022 166.733 81.032C163.406 81.1481 160.756 81.7766 158.98 82.3231C158.078 82.569 157.409 82.8491 156.944 83.013C156.479 83.177 156.234 83.259 156.227 83.2453C156.22 83.2316 156.452 83.1223 156.903 82.9242C157.354 82.733 158.016 82.4187 158.918 82.1455C160.687 81.5375 163.352 80.8476 166.713 80.6904C170.06 80.5128 174.131 80.8885 178.346 82.3504C180.45 83.0745 182.595 84.0582 184.624 85.3903C186.666 86.7087 188.572 88.3618 190.369 90.1926C193.894 93.9293 196.599 98.0211 199.038 101.703C201.47 105.392 203.697 108.691 205.835 111.253C207.952 113.828 209.954 115.652 211.395 116.834C212.119 117.415 212.734 117.811 213.124 118.112C213.527 118.385 213.732 118.542 213.725 118.556Z" fill="#455A64"/>
<path d="M213.444 137.143C214.51 136.979 215.63 137.744 215.862 138.796C216.095 139.848 215.398 141.017 214.366 141.317C213.335 141.618 212.119 140.989 211.757 139.978C211.395 138.967 211.941 137.717 212.932 137.294" fill="white"/>
<path d="M212.932 137.287C212.993 137.355 212.214 137.642 211.914 138.721C211.77 139.234 211.825 139.924 212.29 140.436C212.734 140.948 213.547 141.283 214.298 141.071C215.043 140.853 215.562 140.135 215.657 139.466C215.78 138.783 215.459 138.175 215.063 137.813C214.236 137.061 213.424 137.232 213.437 137.143C213.43 137.116 213.608 137.034 213.95 137.041C214.284 137.041 214.803 137.157 215.288 137.553C215.774 137.922 216.231 138.674 216.101 139.534C215.999 140.368 215.405 141.256 214.421 141.556C213.43 141.823 212.454 141.386 211.928 140.737C211.361 140.067 211.354 139.193 211.566 138.626C211.77 138.031 212.146 137.663 212.433 137.478C212.727 137.287 212.918 137.26 212.932 137.287Z" fill="#263238"/>
<path d="M210.902 121.555C210.99 124.526 211.031 127.662 209.59 130.258C208.142 132.854 204.637 134.548 202.096 133.004C200.026 131.74 199.473 129.028 199.186 126.624C198.353 119.676 198.079 112.668 197.191 105.727L210.902 121.555Z" fill="#263238"/>
<path d="M156.93 83.7577C156.937 83.8191 157.893 83.6074 159.635 83.6005C161.37 83.6005 163.918 83.9079 166.787 85.1171C168.215 85.7182 169.731 86.5106 171.227 87.5626C172.724 88.6146 174.24 89.8647 175.77 91.2446C178.81 94.0249 181.946 97.3585 184.589 101.307C185.915 103.281 187.076 105.31 188.353 107.195C189.61 109.081 191.024 110.795 192.568 112.216C195.649 115.051 198.846 117.066 201.572 118.617C204.311 120.168 206.599 121.261 208.184 122.019C208.929 122.361 209.537 122.641 210.022 122.866C210.445 123.051 210.671 123.139 210.678 123.119C210.684 123.098 210.479 122.975 210.076 122.75C209.612 122.504 209.018 122.19 208.293 121.8C206.743 120.981 204.482 119.826 201.79 118.241C199.106 116.65 195.963 114.614 192.951 111.8C191.455 110.399 190.088 108.726 188.845 106.854C187.595 104.989 186.434 102.96 185.095 100.965C182.417 96.9555 179.234 93.6082 176.146 90.8211C174.588 89.4412 173.045 88.1911 171.514 87.1391C169.977 86.0871 168.42 85.3015 166.951 84.7072C164.007 83.5186 161.391 83.2795 159.635 83.3478C158.754 83.3819 158.071 83.4776 157.62 83.5732C157.155 83.6757 156.923 83.7372 156.93 83.7577Z" fill="#455A64"/>
<path d="M179.093 144.473C179.011 143.428 178.663 142.431 178.321 141.44C178.191 141.064 178.028 140.655 177.672 140.477C177.317 140.299 176.887 140.422 176.511 140.545C174.229 141.283 171.299 142.636 169.017 143.38C168.669 144.904 169.168 146.659 170.138 147.902C170.875 148.852 172.802 149.234 174.004 149.221C175.739 149.2 177.16 148.756 178.28 147.424C178.957 146.625 179.168 145.518 179.093 144.473Z" fill="#EB996E"/>
<path d="M171.104 148.176C171.165 148.026 172.32 149.03 174.451 148.838C175.483 148.736 176.726 148.285 177.587 147.254C178.447 146.236 178.891 144.658 178.57 143.141C178.406 142.404 178.058 141.659 177.587 141.208C177.136 140.75 176.548 140.866 175.865 141.126C174.601 141.645 173.406 142.13 172.279 142.595C170.229 143.408 168.925 143.859 168.877 143.756C168.822 143.647 170.031 143.005 172.033 142.041C173.139 141.522 174.321 140.976 175.571 140.395C175.92 140.259 176.309 140.101 176.787 140.081C177.265 140.047 177.805 140.265 178.147 140.593C178.837 141.242 179.199 142.076 179.41 142.97C179.786 144.774 179.246 146.598 178.188 147.786C177.108 148.989 175.64 149.426 174.492 149.46C173.317 149.494 172.402 149.153 171.848 148.832C171.295 148.497 171.07 148.217 171.104 148.176Z" fill="#263238"/>
<path d="M128.554 329.96L235.052 329.83L233.945 309.166L235.933 234.843L233.767 186.43C224.88 182.776 207.952 177.147 207.952 177.147C207.952 177.147 201.675 192.23 185.273 192.23C170.012 192.23 164.342 178.875 164.342 178.875L156.787 181.853C156.787 181.853 143.036 183.821 128.547 189.784L132.318 241.455C132.318 241.455 140.242 284.929 138.882 292.628C137.53 300.32 128.554 329.96 128.554 329.96Z" fill="#4299E1"/>
<g opacity="0.3">
<g opacity="0.3">
<path opacity="0.3" d="M174.938 255.213C174.043 261.102 173.408 267.878 177.424 272.271C179.74 274.805 183.149 275.96 186.168 277.592C192.371 280.946 197.105 286.446 201.395 292.04C205.678 297.642 209.729 303.523 215.098 308.094C220.468 312.664 227.49 315.847 234.471 314.856L233.016 300.962L196.886 264.176L174.938 255.213Z" fill="black"/>
</g>
</g>
<path d="M129.918 189.272C129.918 189.272 121.427 192.189 113.844 207.764C109.165 217.382 92.2033 276.076 91.5748 283.426C91.5338 283.884 91.5817 284.417 91.5202 284.99C89.3 305.484 108.94 319.638 125.574 308.592C130.54 305.293 134.16 300.32 135.998 294.643L142.426 274.778L129.918 189.272Z" fill="#4299E1"/>
<path d="M179.158 285.216C179.104 285.298 171.842 280.878 162.934 275.345C154.027 269.805 146.847 265.248 146.895 265.166C146.949 265.084 154.211 269.504 163.119 275.037C172.027 280.578 179.206 285.134 179.158 285.216Z" fill="#263238"/>
<path d="M233.769 186.424C233.769 186.424 254.031 190.297 258.375 204.226C262.221 216.556 271.15 271.677 272.359 283.153C274.005 298.831 270.569 316.394 253.805 318.163C237.042 319.932 205.57 290.941 205.57 290.941L226.228 264.169L234.48 268.603L232.963 230.389L233.769 186.424Z" fill="#4299E1"/>
<path d="M240.42 315.307C240.42 315.314 240.352 315.287 240.222 315.239C240.078 315.184 239.887 315.109 239.648 315.013C239.149 314.795 238.377 314.542 237.448 314.071C235.556 313.176 232.892 311.707 229.681 309.665C223.28 305.532 214.728 299.104 205.451 291.077L205.328 290.975L205.431 290.845C207.965 287.559 210.65 284.075 213.416 280.489C217.904 274.675 222.194 269.128 226.095 264.08L226.177 263.971L226.3 264.032C230.884 266.369 235.016 268.732 238.698 270.857C242.374 272.981 245.591 274.894 248.242 276.486C250.892 278.077 252.989 279.362 254.41 280.243C255.107 280.68 255.653 281.022 256.036 281.261C256.207 281.37 256.343 281.459 256.453 281.527C256.548 281.589 256.589 281.623 256.589 281.63C256.589 281.636 256.535 281.609 256.439 281.554C256.33 281.493 256.186 281.411 256.009 281.308C255.619 281.076 255.066 280.755 254.355 280.332C252.894 279.471 250.79 278.221 248.139 276.656C245.475 275.085 242.251 273.2 238.562 271.096C234.873 268.992 230.733 266.649 226.156 264.326L226.361 264.278C222.461 269.333 218.184 274.887 213.703 280.7C210.937 284.28 208.245 287.764 205.711 291.05L205.69 290.817C214.94 298.851 223.458 305.306 229.811 309.48C233.001 311.55 235.645 313.039 237.51 313.968C238.432 314.453 239.19 314.727 239.682 314.959C239.921 315.068 240.106 315.15 240.249 315.212C240.358 315.266 240.427 315.3 240.42 315.307Z" fill="#263238"/>
<path d="M133.303 235.15C133.303 235.157 133.153 235.15 132.859 235.123C132.545 235.089 132.114 235.041 131.575 234.98C130.427 234.843 128.788 234.645 126.738 234.392C122.578 233.866 116.737 233.121 109.893 232.254L110.07 232.138C108.909 236.148 107.666 240.567 106.395 245.192C103.683 255.091 101.408 264.094 99.9054 270.645C99.154 273.924 98.5938 276.581 98.2181 278.426C98.0405 279.328 97.897 280.038 97.7946 280.55C97.7467 280.776 97.7057 280.96 97.6784 281.104C97.6511 281.227 97.6306 281.288 97.6238 281.288C97.6169 281.288 97.6238 281.22 97.6374 281.097C97.6579 280.953 97.6853 280.769 97.7194 280.537C97.8082 280.024 97.9243 279.307 98.0746 278.398C98.4094 276.547 98.9285 273.876 99.6526 270.59C101.087 264.019 103.335 254.995 106.047 245.097C107.317 240.465 108.56 236.052 109.742 232.042L109.783 231.906L109.927 231.926C116.758 232.848 122.599 233.634 126.752 234.194C128.794 234.481 130.427 234.713 131.575 234.87C132.114 234.952 132.538 235.014 132.852 235.062C133.153 235.116 133.303 235.143 133.303 235.15Z" fill="#263238"/>
<path d="M137.271 226.318C137.367 226.311 137.948 240.335 138.556 257.632C139.171 274.935 139.587 288.96 139.485 288.96C139.389 288.966 138.808 274.942 138.201 257.639C137.593 240.349 137.176 226.318 137.271 226.318Z" fill="#263238"/>
<path d="M233.028 232.636C233.042 232.636 233.049 232.766 233.056 233.005C233.056 233.285 233.056 233.634 233.056 234.057C233.056 234.966 233.062 236.284 233.103 237.91C233.172 241.169 233.343 245.664 233.582 250.63C233.841 255.569 234.073 260.043 234.251 263.343C234.333 264.927 234.401 266.232 234.449 267.195C234.463 267.619 234.476 267.967 234.49 268.247C234.497 268.486 234.49 268.616 234.483 268.616C234.47 268.616 234.449 268.493 234.422 268.254C234.395 267.974 234.36 267.633 234.319 267.209C234.244 266.246 234.135 264.948 234.012 263.363C233.773 260.111 233.479 255.617 233.24 250.65C233.001 245.684 232.864 241.182 232.864 237.917C232.857 236.284 232.885 234.966 232.933 234.057C232.96 233.634 232.98 233.285 232.994 233.005C233.001 232.759 233.015 232.636 233.028 232.636Z" fill="#263238"/>
<path d="M247.252 201.186C247.334 201.241 243.96 206.658 239.711 213.277C235.462 219.903 231.951 225.232 231.869 225.184C231.787 225.129 235.161 219.719 239.417 213.086C243.659 206.466 247.17 201.138 247.252 201.186Z" fill="#263238"/>
<path d="M143.16 187.796C140.817 187.899 140.585 186.621 138.003 190.44C135.42 194.259 136.889 198.713 132.585 199.457C128.282 200.202 125.522 191 125.105 190.126C124.914 189.73 123.821 187.325 122.386 184.169C120.645 180.337 118.39 175.391 116.628 171.572C113.417 164.611 110.172 167.405 110.172 167.405L115.822 187.721C115.822 187.721 107.672 172.604 104.216 169.263C100.759 165.923 98.45 168.847 98.45 168.847L109.489 190.338C109.489 190.338 100.773 178.253 98.2861 174.783C95.7995 171.313 93.7502 171.429 93.0466 172.556C92.343 173.683 92.8416 175.903 93.675 177.652C94.5085 179.401 105.09 195.536 104.694 195.481C104.298 195.427 95.7312 188.924 93.4564 187.783C91.1817 186.649 89.2826 187.598 88.9957 189.586C88.7156 191.581 105.322 206.275 105.322 206.275L112.543 225.054L111.279 232.377L132.135 234.815L132.497 223.92C132.497 223.92 137.162 216.767 138.85 211.583C140.537 206.405 143.126 192.947 144 191.581C144.875 190.235 145.496 187.701 143.16 187.796Z" fill="#FFBE9D"/>
<path d="M131.923 211.562C131.916 211.589 131.493 211.48 130.714 211.35C129.935 211.22 128.794 211.084 127.387 211.145C126.683 211.173 125.925 211.268 125.099 211.405C124.279 211.528 123.35 211.671 122.393 211.405C121.444 211.145 120.597 210.503 119.9 209.745C119.19 208.987 118.589 208.105 117.926 207.265C115.275 203.856 112.338 201.24 110.091 199.525C108.963 198.665 108.021 198.022 107.358 197.585C106.695 197.148 106.327 196.909 106.34 196.889C106.347 196.875 106.45 196.923 106.634 197.025C106.818 197.128 107.092 197.271 107.433 197.476C108.116 197.879 109.086 198.494 110.241 199.334C112.543 201.001 115.528 203.617 118.206 207.053C118.882 207.907 119.477 208.782 120.16 209.519C120.829 210.257 121.615 210.858 122.482 211.097C123.35 211.35 124.238 211.234 125.058 211.118C125.877 210.988 126.67 210.906 127.38 210.899C128.815 210.872 129.962 211.05 130.741 211.22C131.131 211.309 131.431 211.391 131.629 211.453C131.82 211.514 131.923 211.555 131.923 211.562Z" fill="#7B4B45"/>
<path d="M174.184 219.466L175.1 266.546C175.148 268.951 177.136 270.857 179.54 270.809L199.378 270.385C201.7 270.338 203.572 268.466 203.627 266.143L204.768 219.486C204.829 217.048 202.862 215.032 200.423 215.032H178.536C176.09 215.032 174.137 217.034 174.184 219.466Z" fill="#263238"/>
<path d="M191.63 224.05C191.63 225.061 190.811 225.881 189.8 225.881C188.788 225.881 187.969 225.061 187.969 224.05C187.969 223.039 188.788 222.219 189.8 222.219C190.817 222.219 191.63 223.039 191.63 224.05Z" fill="white"/>
<path d="M204.277 230.266C204.277 230.266 209.953 236.988 212.044 239.973C214.134 242.958 214.885 252.672 214.885 252.672L216.231 263.875L224.162 268.486L209.318 287.197L197.097 275.823L185.32 271.492C185.32 271.492 177.396 264.026 176.05 260.59C174.704 257.154 174.855 254.462 174.855 254.462C174.855 254.462 171.118 246.394 170.374 243.559C169.629 240.718 169.629 235.642 169.629 235.642C169.629 235.642 171.719 235.048 173.516 238.477L170.674 232.65C170.674 232.65 172.17 228.169 176.05 232.5C179.937 236.831 186.358 244.154 186.358 244.154L193.681 249.981L194.576 248.936C194.576 248.936 181.577 233.101 181.877 230.259C182.178 227.417 184.862 227.274 187.704 230.259C190.546 233.244 202.193 248.184 203.689 248.334C205.185 248.485 205.629 246.394 205.629 246.394L204.584 240.718L203.99 239.522L204.277 230.266Z" fill="#FFBE9D"/>
<path d="M184.126 253.875C184.105 253.888 183.921 253.69 183.6 253.315C183.279 252.939 182.834 252.392 182.288 251.696C181.202 250.316 179.754 248.362 178.244 246.149C176.734 243.928 175.45 241.872 174.562 240.356C174.118 239.598 173.769 238.983 173.537 238.546C173.305 238.115 173.189 237.869 173.209 237.856C173.23 237.842 173.387 238.067 173.66 238.477C173.968 238.955 174.343 239.536 174.781 240.226C175.723 241.708 177.042 243.737 178.544 245.951C180.054 248.157 181.468 250.124 182.5 251.545C182.978 252.208 183.388 252.768 183.716 253.226C183.996 253.636 184.139 253.861 184.126 253.875Z" fill="#7B4B45"/>
<path d="M180.619 261.362C180.537 261.416 178.959 259.36 177.087 256.771C175.216 254.175 173.767 252.03 173.843 251.969C173.925 251.914 175.503 253.97 177.374 256.559C179.253 259.148 180.701 261.3 180.619 261.362Z" fill="#7B4B45"/>
</svg>
