<svg width="28" height="28" viewBox="0 0 28 28" fill="none" xmlns="http://www.w3.org/2000/svg">
<path opacity="0.3" fill-rule="evenodd" clip-rule="evenodd" d="M0.43934 12.8284C-0.146447 13.4142 -0.146447 14.364 0.43934 14.9497L4.32843 18.8388C4.91421 19.4246 5.86396 19.4246 6.44975 18.8388L10.3388 14.9497C10.9246 14.364 10.9246 13.4142 10.3388 12.8284L6.44975 8.93934C5.86396 8.35355 4.91421 8.35355 4.32843 8.93934L0.43934 12.8284ZM17.4393 12.8284C16.8536 13.4142 16.8536 14.364 17.4393 14.9497L21.3284 18.8388C21.9142 19.4246 22.864 19.4246 23.4497 18.8388L27.3388 14.9497C27.9246 14.364 27.9246 13.4142 27.3388 12.8284L23.4497 8.93934C22.864 8.35356 21.9142 8.35356 21.3284 8.93934L17.4393 12.8284Z" fill="#F65464"/>
<path fill-rule="evenodd" clip-rule="evenodd" d="M8.93934 4.32843C8.35355 4.91421 8.35355 5.86396 8.93934 6.44975L12.8284 10.3388C13.4142 10.9246 14.364 10.9246 14.9497 10.3388L18.8388 6.44975C19.4246 5.86396 19.4246 4.91421 18.8388 4.32843L14.9497 0.43934C14.364 -0.146446 13.4142 -0.146447 12.8284 0.43934L8.93934 4.32843ZM8.93934 21.3284C8.35355 21.9142 8.35355 22.864 8.93934 23.4497L12.8284 27.3388C13.4142 27.9246 14.364 27.9246 14.9497 27.3388L18.8388 23.4497C19.4246 22.864 19.4246 21.9142 18.8388 21.3284L14.9497 17.4393C14.364 16.8536 13.4142 16.8536 12.8284 17.4393L8.93934 21.3284Z" fill="#F65464"/>
</svg>
