<svg width="24" height="24" viewBox="0 0 24 24" fill="none" xmlns="http://www.w3.org/2000/svg">
<path opacity="0.3" fill-rule="evenodd" clip-rule="evenodd" d="M14.5607 10.6818C13.9749 11.2675 13.9749 12.2173 14.5607 12.8031L16.682 14.9244C17.2678 15.5102 18.2175 15.5102 18.8033 14.9244L20.9246 12.8031C21.5104 12.2173 21.5104 11.2675 20.9246 10.6818L18.8033 8.56043C18.2175 7.97465 17.2678 7.97465 16.682 8.56043L14.5607 10.6818ZM2.56068 10.6818C1.97489 11.2675 1.97489 12.2173 2.56068 12.8031L4.682 14.9244C5.26778 15.5102 6.21753 15.5102 6.80332 14.9244L8.92464 12.8031C9.51042 12.2173 9.51042 11.2675 8.92464 10.6818L6.80332 8.56043C6.21753 7.97465 5.26778 7.97465 4.682 8.56043L2.56068 10.6818Z" fill="#187DE4"/>
<path fill-rule="evenodd" clip-rule="evenodd" d="M8.56068 4.68175C7.97489 5.26754 7.97489 6.21729 8.56068 6.80307L10.682 8.92439C11.2678 9.51018 12.2175 9.51018 12.8033 8.92439L14.9246 6.80307C15.5104 6.21729 15.5104 5.26754 14.9246 4.68175L12.8033 2.56043C12.2175 1.97465 11.2678 1.97465 10.682 2.56043L8.56068 4.68175ZM8.56068 16.6818C7.97489 17.2675 7.97489 18.2173 8.56068 18.8031L10.682 20.9244C11.2678 21.5102 12.2175 21.5102 12.8033 20.9244L14.9246 18.8031C15.5104 18.2173 15.5104 17.2675 14.9246 16.6818L12.8033 14.5604C12.2175 13.9747 11.2678 13.9747 10.682 14.5604L8.56068 16.6818Z" fill="#187DE4"/>
</svg>
