<svg width="32" height="32" viewBox="0 0 32 32" fill="none" xmlns="http://www.w3.org/2000/svg">
<rect width="32" height="32" rx="16" fill="#0063CC"/>
<path d="M9.33331 22.6667C9.33331 21.2523 9.89522 19.8957 10.8954 18.8955C11.8956 17.8953 13.2522 17.3334 14.6666 17.3334C16.0811 17.3334 17.4377 17.8953 18.4379 18.8955C19.4381 19.8957 20 21.2523 20 22.6667H9.33331ZM14.6666 16.6667C12.4566 16.6667 10.6666 14.8767 10.6666 12.6667C10.6666 10.4567 12.4566 8.66675 14.6666 8.66675C16.8766 8.66675 18.6666 10.4567 18.6666 12.6667C18.6666 14.8767 16.8766 16.6667 14.6666 16.6667ZM19.5753 18.1554C20.5951 18.4175 21.5062 18.9946 22.1789 19.8046C22.8516 20.6146 23.2516 21.6162 23.322 22.6667H21.3333C21.3333 20.9267 20.6666 19.3427 19.5753 18.1554ZM18.2266 16.6381C18.7853 16.1384 19.2321 15.5263 19.5377 14.8419C19.8433 14.1575 20.0008 13.4163 20 12.6667C20.0014 11.7557 19.7684 10.8597 19.3233 10.0647C20.0784 10.2165 20.7577 10.625 21.2456 11.2209C21.7336 11.8168 22.0001 12.5632 22 13.3334C22.0002 13.8084 21.8988 14.2779 21.7027 14.7105C21.5066 15.1431 21.2203 15.5288 20.863 15.8418C20.5057 16.1547 20.0856 16.3877 19.6309 16.525C19.1762 16.6623 18.6975 16.7009 18.2266 16.6381Z" fill="white"/>
</svg>
