<svg width="32" height="32" viewBox="0 0 32 32" fill="none" xmlns="http://www.w3.org/2000/svg">
<rect width="32" height="32" rx="16" fill="#215480"/>
<path d="M12.6667 15.3333C12.2727 15.3333 11.8826 15.2557 11.5186 15.1049C11.1546 14.9541 10.8239 14.7331 10.5454 14.4546C10.2668 14.176 10.0458 13.8453 9.89504 13.4813C9.74427 13.1173 9.66668 12.7272 9.66668 12.3333C9.66668 11.9393 9.74427 11.5492 9.89504 11.1852C10.0458 10.8212 10.2668 10.4905 10.5454 10.2119C10.8239 9.93336 11.1546 9.71238 11.5186 9.56161C11.8826 9.41085 12.2727 9.33325 12.6667 9.33325C13.4623 9.33325 14.2254 9.64932 14.788 10.2119C15.3506 10.7745 15.6667 11.5376 15.6667 12.3333C15.6667 13.1289 15.3506 13.892 14.788 14.4546C14.2254 15.0172 13.4623 15.3333 12.6667 15.3333ZM19.6667 17.9999C18.9594 17.9999 18.2812 17.719 17.7811 17.2189C17.281 16.7188 17 16.0405 17 15.3333C17 14.626 17.281 13.9477 17.7811 13.4476C18.2812 12.9475 18.9594 12.6666 19.6667 12.6666C20.3739 12.6666 21.0522 12.9475 21.5523 13.4476C22.0524 13.9477 22.3333 14.626 22.3333 15.3333C22.3333 16.0405 22.0524 16.7188 21.5523 17.2189C21.0522 17.719 20.3739 17.9999 19.6667 17.9999ZM19.6667 18.6666C20.4623 18.6666 21.2254 18.9827 21.788 19.5453C22.3506 20.1079 22.6667 20.8709 22.6667 21.6666V21.9999H16.6667V21.6666C16.6667 20.8709 16.9827 20.1079 17.5454 19.5453C18.108 18.9827 18.871 18.6666 19.6667 18.6666ZM12.6667 15.9999C13.1044 15.9999 13.5379 16.0861 13.9423 16.2537C14.3467 16.4212 14.7142 16.6667 15.0237 16.9762C15.3332 17.2858 15.5788 17.6532 15.7463 18.0576C15.9138 18.4621 16 18.8955 16 19.3333V21.9999H9.33334V19.3333C9.33334 18.4492 9.68453 17.6014 10.3097 16.9762C10.9348 16.3511 11.7826 15.9999 12.6667 15.9999Z" fill="white"/>
</svg>
