<svg width="25" height="26" viewBox="0 0 25 26" fill="none" xmlns="http://www.w3.org/2000/svg">
<path d="M11.4688 17.2646C12.0172 17.7038 12.797 17.7035 13.3451 17.264L20.0169 11.9128L20.246 11.7301C20.9977 11.1304 20.9989 9.98824 20.2485 9.38695L13.3451 3.85555C12.797 3.41632 12.0174 3.41632 11.4692 3.85555L4.56144 9.39053C3.81245 9.99068 3.81196 11.1301 4.56044 11.7309L4.78712 11.9128L11.4688 17.2646Z" fill="#187DE4"/>
<path opacity="0.3" fill-rule="evenodd" clip-rule="evenodd" d="M13.3347 19.9702C12.7866 20.4094 12.0072 20.4094 11.459 19.9704L5.52621 15.2185C5.11478 14.889 4.51294 14.9616 4.19168 15.3795C3.87519 15.7913 3.95204 16.3815 4.36341 16.6985L11.4902 22.1902C12.0297 22.606 12.7815 22.606 13.3211 22.1904L20.4445 16.7034C20.8594 16.3838 20.9367 15.7885 20.6172 15.3736C20.2932 14.9529 19.6872 14.8802 19.2729 15.2121L13.3347 19.9702Z" fill="#187DE4"/>
</svg>
