<svg width="31" height="31" viewBox="0 0 31 31" fill="none" xmlns="http://www.w3.org/2000/svg">
<path fill-rule="evenodd" clip-rule="evenodd" d="M6.1665 3.875C5.61422 3.875 5.1665 4.32272 5.1665 4.875V26.125C5.1665 26.6773 5.61422 27.125 6.1665 27.125H8.0415C8.59379 27.125 9.0415 26.6773 9.0415 26.125V4.875C9.0415 4.32272 8.59379 3.875 8.0415 3.875H6.1665ZM12.6248 3.875C12.0726 3.875 11.6248 4.32272 11.6248 4.875V26.125C11.6248 26.6773 12.0726 27.125 12.6248 27.125H14.4998C15.0521 27.125 15.4998 26.6773 15.4998 26.125V4.875C15.4998 4.32272 15.0521 3.875 14.4998 3.875H12.6248Z" fill="white"/>
<rect opacity="0.3" x="17.4082" y="5.07031" width="3.875" height="23.25" rx="1" transform="rotate(-19 17.4082 5.07031)" fill="white"/>
</svg>
