<svg width="16" height="17" viewBox="0 0 16 17" fill="none" xmlns="http://www.w3.org/2000/svg">
<path d="M12.2427 10.8568L11.3 9.91284L12.2427 8.97017C12.5544 8.66114 12.8021 8.29357 12.9714 7.88857C13.1407 7.48357 13.2283 7.04911 13.2293 6.61015C13.2303 6.17118 13.1445 5.73635 12.977 5.33061C12.8094 4.92487 12.5634 4.55622 12.253 4.24583C11.9426 3.93543 11.574 3.6894 11.1682 3.52185C10.7625 3.35431 10.3276 3.26856 9.88868 3.26952C9.44971 3.27048 9.01526 3.35814 8.61026 3.52746C8.20526 3.69677 7.83769 3.94442 7.52865 4.25617L6.58599 5.1995L5.64265 4.25684L6.58665 3.31417C7.46187 2.43896 8.64891 1.94727 9.88665 1.94727C11.1244 1.94727 12.3114 2.43896 13.1867 3.31417C14.0619 4.18938 14.5536 5.37643 14.5536 6.61417C14.5536 7.85191 14.0619 9.03896 13.1867 9.91417L12.2433 10.8568H12.2427ZM10.3573 12.7422L9.41399 13.6848C8.53877 14.5601 7.35173 15.0517 6.11399 15.0517C4.87625 15.0517 3.6892 14.5601 2.81399 13.6848C1.93877 12.8096 1.44708 11.6226 1.44708 10.3848C1.44708 9.1471 1.93877 7.96005 2.81399 7.08484L3.75732 6.14217L4.69999 7.08617L3.75732 8.02884C3.44557 8.33787 3.19792 8.70544 3.02861 9.11044C2.85929 9.51544 2.77163 9.94989 2.77067 10.3889C2.76971 10.8278 2.85546 11.2627 3.023 11.6684C3.19055 12.0741 3.43658 12.4428 3.74698 12.7532C4.05737 13.0636 4.42602 13.3096 4.83176 13.4772C5.2375 13.6447 5.67233 13.7304 6.1113 13.7295C6.55026 13.7285 6.98472 13.6409 7.38972 13.4716C7.79472 13.3022 8.16229 13.0546 8.47132 12.7428L9.41399 11.8002L10.3573 12.7428V12.7422ZM9.88532 5.67084L10.8287 6.61417L6.11465 11.3275L5.17132 10.3848L9.88532 5.6715V5.67084Z" fill="white"/>
</svg>
