<svg width="70" height="70" viewBox="0 0 70 70" fill="none" xmlns="http://www.w3.org/2000/svg">
<path d="M53.5617 45.3134L49.4375 41.1834L53.5617 37.0592C54.9256 35.7072 56.009 34.0991 56.7498 32.3272C57.4906 30.5553 57.8741 28.6546 57.8783 26.7341C57.8825 24.8136 57.5073 22.9112 56.7743 21.1361C56.0413 19.361 54.9649 17.7482 53.6069 16.3902C52.249 15.0322 50.6361 13.9558 48.861 13.2228C47.0859 12.4898 45.1835 12.1147 43.263 12.1189C41.3426 12.1231 39.4418 12.5066 37.6699 13.2473C35.8981 13.9881 34.29 15.0715 32.9379 16.4354L28.8138 20.5625L24.6867 16.4384L28.8167 12.3142C32.6457 8.48513 37.8391 6.33398 43.2542 6.33398C48.6693 6.33398 53.8626 8.48513 57.6917 12.3142C61.5207 16.1433 63.6719 21.3366 63.6719 26.7517C63.6719 32.1668 61.5207 37.3601 57.6917 41.1892L53.5646 45.3134H53.5617ZM45.3133 53.5617L41.1863 57.6859C37.3572 61.5149 32.1639 63.6661 26.7488 63.6661C21.3337 63.6661 16.1403 61.5149 12.3113 57.6859C8.4822 53.8568 6.33105 48.6635 6.33105 43.2484C6.33105 37.8332 8.4822 32.6399 12.3113 28.8109L16.4383 24.6867L20.5625 28.8167L16.4383 32.9409C15.0744 34.2929 13.991 35.901 13.2502 37.6729C12.5095 39.4447 12.126 41.3455 12.1218 43.266C12.1176 45.1864 12.4927 47.0888 13.2257 48.8639C13.9587 50.639 15.0351 52.2519 16.3931 53.6099C17.7511 54.9679 19.3639 56.0442 21.139 56.7772C22.9141 57.5102 24.8165 57.8854 26.737 57.8812C28.6575 57.877 30.5582 57.4935 32.3301 56.7527C34.102 56.012 35.7101 54.9285 37.0621 53.5646L41.1863 49.4404L45.3133 53.5646V53.5617ZM43.2483 22.6246L47.3754 26.7517L26.7517 47.3725L22.6246 43.2484L43.2483 22.6275V22.6246Z" fill="#ADB5BD"/>
</svg>
