<svg width="50" height="50" viewBox="0 0 50 50" fill="none" xmlns="http://www.w3.org/2000/svg">
<path opacity="0.3" fill-rule="evenodd" clip-rule="evenodd" d="M16.6668 6.25V7.29167C16.6668 9.01756 18.0659 10.4167 19.7918 10.4167H30.2085C31.9344 10.4167 33.3335 9.01756 33.3335 7.29167V6.25H37.5002C39.8013 6.25 41.6668 8.11548 41.6668 10.4167V43.75C41.6668 46.0512 39.8013 47.9167 37.5002 47.9167H12.5002C10.199 47.9167 8.3335 46.0512 8.3335 43.75V10.4167C8.3335 8.11548 10.199 6.25 12.5002 6.25H16.6668Z" fill="white"/>
<path fill-rule="evenodd" clip-rule="evenodd" d="M22.9167 4.16536C22.9167 3.01477 23.8494 2.08203 25 2.08203C26.1506 2.08203 27.0833 3.01477 27.0833 4.16536H30.2083C30.7836 4.16536 31.25 4.63173 31.25 5.20703V7.29036C31.25 7.86566 30.7836 8.33203 30.2083 8.33203H19.7917C19.2164 8.33203 18.75 7.86566 18.75 7.29036V5.20703C18.75 4.63173 19.2164 4.16536 19.7917 4.16536H22.9167Z" fill="#F5F5F5"/>
<path opacity="0.3" d="M33.3335 18.75H22.9168C21.7662 18.75 20.8335 19.6827 20.8335 20.8333C20.8335 21.9839 21.7662 22.9167 22.9168 22.9167H33.3335C34.4841 22.9167 35.4168 21.9839 35.4168 20.8333C35.4168 19.6827 34.4841 18.75 33.3335 18.75Z" fill="black"/>
<path opacity="0.3" d="M18.7502 20.8333C18.7502 19.6827 17.8174 18.75 16.6668 18.75C15.5162 18.75 14.5835 19.6827 14.5835 20.8333C14.5835 21.9839 15.5162 22.9167 16.6668 22.9167C17.8174 22.9167 18.7502 21.9839 18.7502 20.8333Z" fill="white"/>
<path opacity="0.3" d="M18.7502 29.1654C18.7502 28.0148 17.8174 27.082 16.6668 27.082C15.5162 27.082 14.5835 28.0148 14.5835 29.1654C14.5835 30.316 15.5162 31.2487 16.6668 31.2487C17.8174 31.2487 18.7502 30.316 18.7502 29.1654Z" fill="white"/>
<path opacity="0.3" d="M33.3335 27.082H22.9168C21.7662 27.082 20.8335 28.0148 20.8335 29.1654C20.8335 30.316 21.7662 31.2487 22.9168 31.2487H33.3335C34.4841 31.2487 35.4168 30.316 35.4168 29.1654C35.4168 28.0148 34.4841 27.082 33.3335 27.082Z" fill="black"/>
<path opacity="0.3" d="M18.7502 37.5013C18.7502 36.3507 17.8174 35.418 16.6668 35.418C15.5162 35.418 14.5835 36.3507 14.5835 37.5013C14.5835 38.6519 15.5162 39.5846 16.6668 39.5846C17.8174 39.5846 18.7502 38.6519 18.7502 37.5013Z" fill="white"/>
<path opacity="0.3" d="M33.3335 35.418H22.9168C21.7662 35.418 20.8335 36.3507 20.8335 37.5013C20.8335 38.6519 21.7662 39.5846 22.9168 39.5846H33.3335C34.4841 39.5846 35.4168 38.6519 35.4168 37.5013C35.4168 36.3507 34.4841 35.418 33.3335 35.418Z" fill="black"/>
</svg>
