<svg width="70" height="70" viewBox="0 0 70 70" fill="none" xmlns="http://www.w3.org/2000/svg">
<path fill-rule="evenodd" clip-rule="evenodd" d="M14.5833 17.5H55.4167C58.6383 17.5 61.25 20.1117 61.25 23.3333V49.5833C61.25 52.805 58.6383 55.4167 55.4167 55.4167H14.5833C11.3617 55.4167 8.75 52.805 8.75 49.5833V23.3333C8.75 20.1117 11.3617 17.5 14.5833 17.5ZM52.9212 22.8656L35 32.5155L17.0788 22.8656C16.015 22.2929 14.6884 22.6909 14.1156 23.7546C13.5429 24.8183 13.9409 26.1449 15.0046 26.7177L33.9629 36.926C34.6104 37.2747 35.3896 37.2747 36.0371 36.926L54.9954 26.7177C56.0591 26.1449 56.4571 24.8183 55.8844 23.7546C55.3116 22.6909 53.985 22.2929 52.9212 22.8656Z" fill="#ADB5BD"/>
</svg>
