<svg width="47" height="50" viewBox="0 0 47 50" fill="none" xmlns="http://www.w3.org/2000/svg">
<path opacity="0.3" fill-rule="evenodd" clip-rule="evenodd" d="M25.1379 29.1602L30.7742 20.8268H26.547V12.4935L18.0925 24.9935H22.3197V29.1602H12.3857C11.3351 29.1602 10.4834 28.2274 10.4834 27.0768V6.24349C10.4834 5.0929 11.3351 4.16016 12.3857 4.16016H35.2128C36.2634 4.16016 37.1151 5.0929 37.1151 6.24349V27.0768C37.1151 28.2274 36.2634 29.1602 35.2128 29.1602H25.1379Z" fill="#3699FF"/>
<path fill-rule="evenodd" clip-rule="evenodd" d="M19.6223 22.7424L18.0923 25.0045H22.3195V33.3378L30.774 20.8378H30.3838L39.4114 13.6973C39.8373 13.3605 40.4318 13.4655 40.7394 13.9319C40.8564 14.1094 40.9195 14.3228 40.9195 14.5417V35.4212C40.9195 37.7223 39.2161 39.5878 37.1149 39.5878H10.4832C8.38206 39.5878 6.67871 37.7223 6.67871 35.4212V14.5417C6.67871 13.9664 7.10455 13.5001 7.62984 13.5001C7.82978 13.5001 8.02464 13.5691 8.18672 13.6973L19.6223 22.7424Z" fill="#3699FF"/>
</svg>
