<svg width="35" height="36" viewBox="0 0 35 36" fill="none" xmlns="http://www.w3.org/2000/svg">
<path opacity="0.3" fill-rule="evenodd" clip-rule="evenodd" d="M18.5261 20.5684L22.8471 14.6914H19.6063V8.81447L13.1248 17.6299H16.3656V20.5684H8.74984C7.94442 20.5684 7.2915 19.9106 7.2915 19.0992V4.40674C7.2915 3.5953 7.94442 2.9375 8.74984 2.9375H26.2498C27.0553 2.9375 27.7082 3.5953 27.7082 4.40674V19.0992C27.7082 19.9106 27.0553 20.5684 26.2498 20.5684H18.5261Z" fill="#B099DC"/>
<path fill-rule="evenodd" clip-rule="evenodd" d="M14.2979 16.0376L13.125 17.6329H16.3657V23.5099L22.8472 14.6944H22.5481L29.4689 9.65866C29.7954 9.42112 30.2512 9.49518 30.487 9.82409C30.5767 9.94928 30.625 10.0998 30.625 10.2542V24.9791C30.625 26.602 29.3192 27.9176 27.7083 27.9176H7.29167C5.68084 27.9176 4.375 26.602 4.375 24.9791V10.2542C4.375 9.84849 4.70146 9.51959 5.10417 9.51959C5.25745 9.51959 5.40683 9.56825 5.53109 9.65866L14.2979 16.0376Z" fill="#8A50FC"/>
</svg>
