<svg width="49" height="59" viewBox="0 0 49 59" fill="none" xmlns="http://www.w3.org/2000/svg">
<path d="M41.8457 41.304L24.875 58.2746L7.90434 41.304C4.54791 37.9475 2.26216 33.6711 1.33614 29.0156C0.410121 24.36 0.885418 19.5344 2.70193 15.149C4.51844 10.7636 7.59458 7.01535 11.5414 4.3782C15.4881 1.74106 20.1283 0.333496 24.875 0.333496C29.6217 0.333496 34.2619 1.74106 38.2087 4.3782C42.1554 7.01535 45.2316 10.7636 47.0481 15.149C48.8646 19.5344 49.3399 24.36 48.4139 29.0156C47.4879 33.6711 45.2021 37.9475 41.8457 41.304ZM24.875 29.6666C26.2895 29.6666 27.646 29.1047 28.6462 28.1045C29.6464 27.1043 30.2083 25.7478 30.2083 24.3333C30.2083 22.9188 29.6464 21.5622 28.6462 20.5621C27.646 19.5619 26.2895 19 24.875 19C23.4605 19 22.104 19.5619 21.1038 20.5621C20.1036 21.5622 19.5417 22.9188 19.5417 24.3333C19.5417 25.7478 20.1036 27.1043 21.1038 28.1045C22.104 29.1047 23.4605 29.6666 24.875 29.6666Z" fill="#215480"/>
</svg>
