<svg width="70" height="70" viewBox="0 0 70 70" fill="none" xmlns="http://www.w3.org/2000/svg">
<path d="M53.9584 14.5833H16.0417C13.6255 14.5833 11.6667 16.542 11.6667 18.9583C11.6667 21.3745 13.6255 23.3333 16.0417 23.3333H53.9584C56.3747 23.3333 58.3334 21.3745 58.3334 18.9583C58.3334 16.542 56.3747 14.5833 53.9584 14.5833Z" fill="#ADB5BD"/>
<path fill-rule="evenodd" clip-rule="evenodd" d="M16.0417 43.7501H53.9584C56.3747 43.7501 58.3334 45.7088 58.3334 48.1251C58.3334 50.5413 56.3747 52.5001 53.9584 52.5001H16.0417C13.6255 52.5001 11.6667 50.5413 11.6667 48.1251C11.6667 45.7088 13.6255 43.7501 16.0417 43.7501ZM16.0417 29.1667H53.9584C56.3747 29.1667 58.3334 31.1255 58.3334 33.5417C58.3334 35.958 56.3747 37.9167 53.9584 37.9167H16.0417C13.6255 37.9167 11.6667 35.958 11.6667 33.5417C11.6667 31.1255 13.6255 29.1667 16.0417 29.1667Z" fill="#ADB5BD"/>
</svg>
