<svg width="70" height="70" viewBox="0 0 70 70" fill="none" xmlns="http://www.w3.org/2000/svg">
<path fill-rule="evenodd" clip-rule="evenodd" d="M49.5833 37.9167H53.9583C56.3745 37.9167 58.3333 39.8755 58.3333 42.2917C58.3333 44.708 56.3745 46.6667 53.9583 46.6667H16.0416C13.6254 46.6667 11.6666 44.708 11.6666 42.2917C11.6666 39.8755 13.6254 37.9167 16.0416 37.9167H20.4166L22.0449 23.2621C22.7784 16.6608 28.3581 11.6667 35 11.6667C41.6418 11.6667 47.2215 16.6608 47.955 23.2621L49.5833 37.9167Z" fill="#ADB5BD"/>
<path opacity="0.3" d="M40.8333 55.4168C40.8333 52.1952 38.2216 49.5835 35 49.5835C31.7783 49.5835 29.1666 52.1952 29.1666 55.4168C29.1666 58.6385 31.7783 61.2502 35 61.2502C38.2216 61.2502 40.8333 58.6385 40.8333 55.4168Z" fill="black"/>
</svg>
