<svg width="23" height="23" viewBox="0 0 23 23" fill="none" xmlns="http://www.w3.org/2000/svg">
<path fill-rule="evenodd" clip-rule="evenodd" d="M4.79163 6.70833C4.79163 8.82543 6.50787 10.5417 8.62496 10.5417C10.7421 10.5417 12.4583 8.82543 12.4583 6.70833C12.4583 4.59124 10.7421 2.875 8.62496 2.875C6.50787 2.875 4.79163 4.59124 4.79163 6.70833ZM14.375 10.5417C14.375 12.1295 15.6621 13.4167 17.25 13.4167C18.8378 13.4167 20.125 12.1295 20.125 10.5417C20.125 8.95385 18.8378 7.66667 17.25 7.66667C15.6621 7.66667 14.375 8.95385 14.375 10.5417Z" fill="#187DE4"/>
<path opacity="0.3" fill-rule="evenodd" clip-rule="evenodd" d="M8.60904 12.4585C4.08433 12.4585 0.372081 14.7839 0.000624531 19.3577C-0.0196092 19.6069 0.456849 20.1252 0.69719 20.1252H16.5281C17.248 20.1252 17.2592 19.5458 17.248 19.3585C16.9672 14.6561 13.1974 12.4585 8.60904 12.4585ZM22.4786 20.1252L18.7833 20.1252C18.7833 17.968 18.0706 15.9773 16.8678 14.3758C20.1324 14.4114 22.7979 16.062 22.9985 19.5502C23.0066 19.6907 22.9985 20.1252 22.4786 20.1252Z" fill="#187DE4"/>
</svg>
