<svg width="35" height="35" viewBox="0 0 35 35" fill="none" xmlns="http://www.w3.org/2000/svg">
<path opacity="0.3" fill-rule="evenodd" clip-rule="evenodd" d="M13.1248 16.0417C9.90318 16.0417 7.2915 13.43 7.2915 10.2083C7.2915 6.98667 9.90318 4.375 13.1248 4.375C16.3465 4.375 18.9582 6.98667 18.9582 10.2083C18.9582 13.43 16.3465 16.0417 13.1248 16.0417ZM27.2498 16.0417C26.6976 16.0417 26.2498 15.594 26.2498 15.0417V11.6667H22.8748C22.3226 11.6667 21.8748 11.219 21.8748 10.6667V9.75C21.8748 9.19772 22.3226 8.75 22.8748 8.75H26.2498V5.375C26.2498 4.82272 26.6976 4.375 27.2498 4.375H28.1665C28.7188 4.375 29.1665 4.82272 29.1665 5.375V8.75H32.5415C33.0938 8.75 33.5415 9.19772 33.5415 9.75V10.6667C33.5415 11.219 33.0938 11.6667 32.5415 11.6667H29.1665V15.0417C29.1665 15.594 28.7188 16.0417 28.1665 16.0417H27.2498Z" fill="#59C6C0"/>
<path d="M0.000950373 29.4559C0.56621 22.4957 6.21529 18.957 13.1007 18.957C20.083 18.957 25.8196 22.3013 26.247 29.457C26.264 29.7421 26.247 30.6237 25.1514 30.6237C19.7475 30.6237 11.7173 30.6237 1.06094 30.6237C0.695205 30.6237 -0.0298401 29.835 0.000950373 29.4559Z" fill="#1BC5BC"/>
</svg>
