<svg width="34" height="27" viewBox="0 0 34 27" fill="none" xmlns="http://www.w3.org/2000/svg">
<path opacity="0.3" fill-rule="evenodd" clip-rule="evenodd" d="M13.1251 11.7521C9.90342 11.7521 7.29175 9.14044 7.29175 5.91878C7.29175 2.69712 9.90342 0.0854492 13.1251 0.0854492C16.3467 0.0854492 18.9584 2.69712 18.9584 5.91878C18.9584 9.14044 16.3467 11.7521 13.1251 11.7521ZM27.2501 11.7521C26.6978 11.7521 26.2501 11.3044 26.2501 10.7521V7.37712H22.8751C22.3228 7.37712 21.8751 6.9294 21.8751 6.37712V5.46045C21.8751 4.90817 22.3228 4.46045 22.8751 4.46045H26.2501V1.08545C26.2501 0.533165 26.6978 0.0854492 27.2501 0.0854492H28.1667C28.719 0.0854492 29.1667 0.533165 29.1667 1.08545V4.46045H32.5417C33.094 4.46045 33.5417 4.90816 33.5417 5.46045V6.37712C33.5417 6.9294 33.094 7.37712 32.5417 7.37712H29.1667V10.7521C29.1667 11.3044 28.719 11.7521 28.1667 11.7521H27.2501Z" fill="#8A50FC"/>
<path d="M0.000950373 25.1677C0.56621 18.2075 6.21529 14.6688 13.1007 14.6688C20.083 14.6688 25.8196 18.0131 26.247 25.1688C26.264 25.4539 26.247 26.3355 25.1514 26.3355C19.7475 26.3355 11.7173 26.3355 1.06094 26.3355C0.695205 26.3355 -0.0298401 25.5468 0.000950373 25.1677Z" fill="#8A50FC"/>
</svg>
