<svg width="70" height="70" viewBox="0 0 70 70" fill="none" xmlns="http://www.w3.org/2000/svg">
<path d="M58.3333 64.1666H11.6667C10.8931 64.1666 10.1513 63.8593 9.60427 63.3123C9.05729 62.7653 8.75 62.0235 8.75 61.2499V8.74992C8.75 7.97637 9.05729 7.2345 9.60427 6.68752C10.1513 6.14054 10.8931 5.83325 11.6667 5.83325H58.3333C59.1069 5.83325 59.8488 6.14054 60.3957 6.68752C60.9427 7.2345 61.25 7.97637 61.25 8.74992V61.2499C61.25 62.0235 60.9427 62.7653 60.3957 63.3123C59.8488 63.8593 59.1069 64.1666 58.3333 64.1666ZM23.3333 20.4166V26.2499H46.6667V20.4166H23.3333ZM23.3333 32.0833V37.9166H46.6667V32.0833H23.3333ZM23.3333 43.7499V49.5833H37.9167V43.7499H23.3333Z" fill="#ADB5BD"/>
</svg>
