<svg width="25" height="24" viewBox="0 0 25 24" fill="none" xmlns="http://www.w3.org/2000/svg">
<path opacity="0.3" fill-rule="evenodd" clip-rule="evenodd" d="M2.10205 19.5C2.10205 20.3284 2.77362 21 3.60205 21H20.6021C21.4305 21 22.1021 20.3284 22.1021 19.5V8.5C22.1021 7.67157 21.4305 7 20.6021 7H10.1021L7.54139 4.43934C7.26009 4.15804 6.87856 4 6.48073 4H3.60205C2.77362 4 2.10205 4.67157 2.10205 5.5V19.5Z" fill="#187DE4"/>
<path opacity="0.5" fill-rule="evenodd" clip-rule="evenodd" d="M4.10205 19L10.1021 11L16.1021 19H4.10205Z" fill="#187DE4"/>
<path fill-rule="evenodd" clip-rule="evenodd" d="M11.1021 19L15.1021 14L19.1021 19H11.1021Z" fill="#187DE4"/>
<path opacity="0.5" fill-rule="evenodd" clip-rule="evenodd" d="M18.1021 12C18.9305 12 19.6021 11.3284 19.6021 10.5C19.6021 9.67157 18.9305 9 18.1021 9C17.2736 9 16.6021 9.67157 16.6021 10.5C16.6021 11.3284 17.2736 12 18.1021 12Z" fill="#187DE4"/>
</svg>
