<svg width="70" height="70" viewBox="0 0 70 70" fill="none" xmlns="http://www.w3.org/2000/svg">
<path d="M53.5617 50.6449L35 69.2066L16.4383 50.6449C12.7672 46.9738 10.2672 42.2965 9.25437 37.2045C8.24154 32.1125 8.76139 26.8345 10.7482 22.038C12.735 17.2414 16.0995 13.1418 20.4163 10.2574C24.7331 7.37302 29.8083 5.8335 35 5.8335C40.1918 5.8335 45.2669 7.37302 49.5837 10.2574C53.9005 13.1418 57.265 17.2414 59.2518 22.038C61.2386 26.8345 61.7585 32.1125 60.7456 37.2045C59.7328 42.2965 57.2328 46.9738 53.5617 50.6449ZM35 37.9166C36.5471 37.9166 38.0308 37.302 39.1248 36.2081C40.2188 35.1141 40.8333 33.6304 40.8333 32.0833C40.8333 30.5362 40.2188 29.0524 39.1248 27.9585C38.0308 26.8645 36.5471 26.2499 35 26.2499C33.4529 26.2499 31.9692 26.8645 30.8752 27.9585C29.7813 29.0524 29.1667 30.5362 29.1667 32.0833C29.1667 33.6304 29.7813 35.1141 30.8752 36.2081C31.9692 37.302 33.4529 37.9166 35 37.9166Z" fill="white"/>
</svg>
