<svg width="12" height="11" viewBox="0 0 12 11" fill="none" xmlns="http://www.w3.org/2000/svg">
<path d="M10.6667 4.83398H1.33333C0.965145 4.83398 0.666668 5.13246 0.666668 5.50065C0.666668 5.86884 0.965145 6.16732 1.33333 6.16732H10.6667C11.0349 6.16732 11.3333 5.86884 11.3333 5.50065C11.3333 5.13246 11.0349 4.83398 10.6667 4.83398Z" fill="white"/>
<path d="M6.66667 10.167L6.66667 0.833659C6.66667 0.465469 6.36819 0.166992 6 0.166992C5.63181 0.166992 5.33333 0.465469 5.33333 0.833659L5.33333 10.167C5.33333 10.5352 5.63181 10.8337 6 10.8337C6.36819 10.8337 6.66667 10.5352 6.66667 10.167Z" fill="white"/>
</svg>
