<svg width="70" height="70" viewBox="0 0 70 70" fill="none" xmlns="http://www.w3.org/2000/svg">
<path d="M35 40.8334V64.1667H11.6666C11.6666 57.9784 14.125 52.0434 18.5008 47.6676C22.8766 43.2917 28.8116 40.8334 35 40.8334ZM35 37.9167C25.3312 37.9167 17.5 30.0855 17.5 20.4167C17.5 10.748 25.3312 2.91675 35 2.91675C44.6687 2.91675 52.5 10.748 52.5 20.4167C52.5 30.0855 44.6687 37.9167 35 37.9167ZM42.5687 54.8684C42.1989 53.3122 42.1989 51.6909 42.5687 50.1347L39.6754 48.4634L42.592 43.4117L45.4854 45.083C46.6467 43.9831 48.0505 43.1718 49.5833 42.7147V39.3751H55.4166V42.7147C56.9683 43.1755 58.3683 43.998 59.5145 45.083L62.4079 43.4117L65.3245 48.4634L62.4312 50.1347C62.8006 51.69 62.8006 53.3102 62.4312 54.8655L65.3245 56.5367L62.4079 61.5884L59.5145 59.9172C58.3532 61.0171 56.9494 61.8284 55.4166 62.2855V65.6251H49.5833V62.2855C48.0505 61.8284 46.6467 61.0171 45.4854 59.9172L42.592 61.5884L39.6754 56.5367L42.5687 54.8684ZM52.5 49.5834C51.7264 49.5834 50.9845 49.8907 50.4376 50.4377C49.8906 50.9847 49.5833 51.7265 49.5833 52.5001C49.5833 53.2736 49.8906 54.0155 50.4376 54.5625C50.9845 55.1095 51.7264 55.4167 52.5 55.4167C53.2735 55.4167 54.0154 55.1095 54.5624 54.5625C55.1093 54.0155 55.4166 53.2736 55.4166 52.5001C55.4166 51.7265 55.1093 50.9847 54.5624 50.4377C54.0154 49.8907 53.2735 49.5834 52.5 49.5834Z" fill="#ADB5BD"/>
</svg>
