<svg width="26" height="26" viewBox="0 0 26 26" fill="none" xmlns="http://www.w3.org/2000/svg">
<rect width="26" height="26" rx="6" fill="#F3F6F9"/>
<path d="M19.592 9.80686L17.158 7.34938C16.8968 7.08566 16.5425 6.9375 16.1731 6.9375H8.39286C7.62359 6.9375 7 7.56709 7 8.34375V18.6562C7 19.4329 7.62359 20.0625 8.39286 20.0625H18.6071C19.3764 20.0625 20 19.4329 20 18.6562V10.8012C20 10.4283 19.8532 10.0706 19.592 9.80686ZM14.8929 8.34375V10.6875H11.1786V8.34375H14.8929ZM18.433 18.6562H8.56696C8.52079 18.6562 8.4765 18.6377 8.44385 18.6048C8.4112 18.5718 8.39286 18.5271 8.39286 18.4805V8.51953C8.39286 8.47291 8.4112 8.4282 8.44385 8.39524C8.4765 8.36227 8.52079 8.34375 8.56696 8.34375H9.78571V11.3906C9.78571 11.779 10.0975 12.0938 10.4821 12.0938H15.5893C15.9739 12.0938 16.2857 11.779 16.2857 11.3906V8.45748L18.5562 10.7498C18.5723 10.7661 18.5851 10.7855 18.5939 10.8068C18.6026 10.8281 18.6071 10.851 18.6071 10.8741V18.4805C18.6071 18.5271 18.5888 18.5718 18.5561 18.6048C18.5235 18.6377 18.4792 18.6562 18.433 18.6562ZM13.5 12.7969C12.092 12.7969 10.9464 13.9534 10.9464 15.375C10.9464 16.7966 12.092 17.9531 13.5 17.9531C14.908 17.9531 16.0536 16.7966 16.0536 15.375C16.0536 13.9534 14.908 12.7969 13.5 12.7969ZM13.5 16.5469C12.86 16.5469 12.3393 16.0212 12.3393 15.375C12.3393 14.7288 12.86 14.2031 13.5 14.2031C14.14 14.2031 14.6607 14.7288 14.6607 15.375C14.6607 16.0212 14.14 16.5469 13.5 16.5469Z" fill="#3699FF"/>
</svg>
