<svg width="24" height="25" viewBox="0 0 24 25" fill="none" xmlns="http://www.w3.org/2000/svg">
<path opacity="0.3" d="M14.2929 17.6826C13.9024 17.2923 13.9024 16.6596 14.2929 16.2693C14.6834 15.879 15.3166 15.879 15.7071 16.2693L19.7071 20.2668C20.0976 20.6571 20.0976 21.2898 19.7071 21.6801C19.3166 22.0704 18.6834 22.0704 18.2929 21.6801L14.2929 17.6826Z" fill="#6993FF"/>
<path fill-rule="evenodd" clip-rule="evenodd" d="M4 11.98C4 15.8436 7.13401 18.9757 11 18.9757C14.866 18.9757 18 15.8436 18 11.98C18 8.11644 14.866 4.98438 11 4.98438C7.13401 4.98438 4 8.11644 4 11.98ZM16 11.9796C16 14.7394 13.7614 16.9765 11 16.9765C8.23858 16.9765 6 14.7394 6 11.9796C6 9.21993 8.23858 6.98274 11 6.98274C13.7614 6.98274 16 9.21993 16 11.9796Z" fill="#6993FF"/>
</svg>
