<svg width="70" height="70" viewBox="0 0 70 70" fill="none" xmlns="http://www.w3.org/2000/svg">
<path d="M6.21831 39.7541C5.69513 36.6063 5.69513 33.3937 6.21831 30.2458C9.43247 30.3216 12.32 28.7816 13.4429 26.0721C14.5658 23.3596 13.6121 20.2271 11.2846 18.0133C13.1408 15.4154 15.4133 13.1419 18.0104 11.2846C20.2271 13.6121 23.3596 14.5658 26.0721 13.4429C28.7846 12.32 30.3216 9.42955 30.2429 6.2183C33.3926 5.69448 36.6073 5.69448 39.7571 6.2183C39.6783 9.43247 41.2183 12.32 43.9279 13.4429C46.6404 14.5658 49.7729 13.6121 51.9866 11.2846C54.5845 13.1408 56.8581 15.4133 58.7154 18.0104C56.3879 20.2271 55.4341 23.3596 56.5571 26.0721C57.68 28.7846 60.5704 30.3216 63.7816 30.2429C64.3055 33.3926 64.3055 36.6073 63.7816 39.7571C60.5675 39.6783 57.68 41.2183 56.5571 43.9279C55.4341 46.6404 56.3879 49.7729 58.7154 51.9866C56.8592 54.5845 54.5867 56.8581 51.9896 58.7154C49.7729 56.3879 46.6404 55.4341 43.9279 56.5571C41.2154 57.68 39.6783 60.5704 39.7571 63.7816C36.6073 64.3055 33.3926 64.3055 30.2429 63.7816C30.3216 60.5675 28.7816 57.68 26.0721 56.5571C23.3596 55.4341 20.2271 56.3879 18.0133 58.7154C15.4154 56.8592 13.1419 54.5867 11.2846 51.9896C13.6121 49.7729 14.5658 46.6404 13.4429 43.9279C12.32 41.2154 9.42956 39.6783 6.21831 39.7571V39.7541ZM35 43.75C37.3206 43.75 39.5462 42.8281 41.1872 41.1872C42.8281 39.5462 43.75 37.3206 43.75 35C43.75 32.6793 42.8281 30.4537 41.1872 28.8128C39.5462 27.1718 37.3206 26.25 35 26.25C32.6793 26.25 30.4537 27.1718 28.8128 28.8128C27.1718 30.4537 26.25 32.6793 26.25 35C26.25 37.3206 27.1718 39.5462 28.8128 41.1872C30.4537 42.8281 32.6793 43.75 35 43.75Z" fill="white"/>
</svg>
