<svg width="70" height="70" viewBox="0 0 70 70" fill="none" xmlns="http://www.w3.org/2000/svg">
<path fill-rule="evenodd" clip-rule="evenodd" d="M35.0001 52.5L23.0873 58.763C21.6615 59.5126 19.898 58.9644 19.1484 57.5386C18.8499 56.9708 18.7469 56.3205 18.8554 55.6883L21.1305 42.4232L11.4929 33.0288C10.3394 31.9045 10.3158 30.0579 11.4401 28.9044C11.8879 28.4451 12.4745 28.1461 13.1093 28.0539L26.4282 26.1186L32.3846 14.0496C33.0975 12.6051 34.8464 12.012 36.2909 12.7249C36.8661 13.0088 37.3317 13.4744 37.6156 14.0496L43.5719 26.1186L56.8908 28.0539C58.4849 28.2855 59.5894 29.7656 59.3578 31.3597C59.2655 31.9944 58.9666 32.5811 58.5073 33.0288L48.8697 42.4232L51.1448 55.6883C51.4171 57.2759 50.3508 58.7837 48.7631 59.056C48.1309 59.1645 47.4806 59.0615 46.9129 58.763L35.0001 52.5Z" fill="#ADB5BD"/>
</svg>
