<svg width="25" height="24" viewBox="0 0 25 24" fill="none" xmlns="http://www.w3.org/2000/svg">
<path opacity="0.7" d="M12.1666 22C6.64378 22 2.16663 17.5228 2.16663 12C2.16663 6.47715 6.64378 2 12.1666 2C17.6895 2 22.1666 6.47715 22.1666 12C22.1666 17.5228 17.6895 22 12.1666 22ZM12.1666 20C16.5849 20 20.1666 16.4183 20.1666 12C20.1666 7.58172 16.5849 4 12.1666 4C7.74835 4 4.16663 7.58172 4.16663 12C4.16663 16.4183 7.74835 20 12.1666 20ZM19.2377 4.92893C19.6282 5.31946 19.6282 5.95262 19.2377 6.34315L6.50977 19.0711C6.11925 19.4616 5.48608 19.4616 5.09556 19.0711C4.70503 18.6805 4.70503 18.0474 5.09556 17.6569L17.8235 4.92893C18.214 4.53841 18.8472 4.53841 19.2377 4.92893Z" fill="white"/>
</svg>
