<svg width="90" height="197" viewBox="0 0 90 197" fill="none" xmlns="http://www.w3.org/2000/svg">
<path d="M32.0612 100.259C35.7265 109.574 31.2116 120.071 21.9768 123.705C12.742 127.338 2.28467 122.733 -1.38062 113.417" stroke="#F6F7F9" stroke-width="13" stroke-linecap="round" stroke-linejoin="round"/>
<path d="M-26.121 198.866C-23.1958 224.518 -0.41448 243.004 24.7622 240.159C49.9374 237.31 67.9782 214.205 65.053 188.553C62.1278 162.9 39.3469 144.415 14.1705 147.261" stroke="#F6F7F9" stroke-width="13" stroke-linecap="round" stroke-linejoin="round"/>
<path d="M-22.8328 78.5376C-18.9781 88.3343 -8.03887 93.2016 1.5983 89.4096C11.2355 85.6176 15.9212 74.6023 12.0664 64.8056C8.21164 55.0089 -2.72406 50.1402 -12.3612 53.9322L-70.8118 76.9312" stroke="#F6F7F9" stroke-width="13" stroke-linecap="round" stroke-linejoin="round"/>
<path d="M-28.536 32.7592C-12.2555 26.3532 -4.33825 7.75151 -10.8472 -8.79053C-17.3561 -25.3326 -35.8266 -33.5513 -52.1071 -27.1453L-129.356 3.25024" stroke="white" stroke-width="13" stroke-linecap="round" stroke-linejoin="round"/>
<path d="M12.0777 177.919C21.3125 174.285 31.7232 178.773 35.3298 187.939C38.9364 197.105 34.375 207.483 25.1401 211.117C15.9053 214.75 5.49461 210.263 1.88801 201.097L-40.668 92.9434" stroke="#F6F7F9" stroke-width="13" stroke-linecap="round" stroke-linejoin="round"/>
</svg>
