<svg width="90" height="197" viewBox="0 0 90 197" fill="none" xmlns="http://www.w3.org/2000/svg">
<path d="M32.0611 100.259C35.7264 109.574 31.2115 120.071 21.9767 123.705C12.7419 127.338 2.28455 122.733 -1.38074 113.417" stroke="#1A4367" stroke-width="13" stroke-linecap="round" stroke-linejoin="round"/>
<path d="M-26.1211 198.866C-23.196 224.518 -0.414602 243.004 24.762 240.159C49.9373 237.31 67.978 214.205 65.0529 188.553C62.1277 162.9 39.3468 144.415 14.1704 147.261" stroke="#1A4367" stroke-width="13" stroke-linecap="round" stroke-linejoin="round"/>
<path d="M-22.833 78.5376C-18.9782 88.3343 -8.03899 93.2016 1.59818 89.4096C11.2353 85.6176 15.921 74.6023 12.0663 64.8056C8.21152 55.0089 -2.72418 50.1402 -12.3614 53.9322L-70.8119 76.9312" stroke="#1A4367" stroke-width="13" stroke-linecap="round" stroke-linejoin="round"/>
<path d="M-28.5362 32.7592C-12.2557 26.3532 -4.33837 7.75151 -10.8473 -8.79053C-17.3562 -25.3326 -35.8267 -33.5513 -52.1072 -27.1453L-129.356 3.25024" stroke="white" stroke-width="13" stroke-linecap="round" stroke-linejoin="round"/>
<path d="M12.0776 177.919C21.3124 174.285 31.7231 178.773 35.3297 187.939C38.9363 197.105 34.3748 207.483 25.14 211.117C15.9052 214.75 5.49449 210.263 1.88789 201.097L-40.6681 92.9434" stroke="#1A4367" stroke-width="13" stroke-linecap="round" stroke-linejoin="round"/>
</svg>
