<svg width="400" height="315" viewBox="0 0 400 315" fill="none" xmlns="http://www.w3.org/2000/svg">
<g clip-path="url(#clip0_4312:22210)">
<path d="M208.283 42H166.426V53.0754H208.283V42Z" fill="#D7E1EA"/>
<path d="M153.09 219.177C149.575 216.979 145.549 215.599 141.421 215.17C139.512 214.975 137.432 215.032 135.903 216.185C135.58 216.43 135.264 216.79 135.334 217.186C135.384 217.483 135.637 217.69 135.871 217.873C140.618 221.483 147.805 221.943 153.09 219.177Z" fill="#D7E1EA"/>
<path d="M152.792 218.843C150.15 216.789 147.495 214.716 145.251 212.234C143.013 209.746 141.193 206.797 140.523 203.521C140.321 202.526 140.257 201.392 140.896 200.604C146.913 205.285 151.629 211.333 152.792 218.843Z" fill="#D7E1EA"/>
<path d="M153.032 219.127C152.577 215.851 152.419 212.48 153.171 209.261C153.923 206.041 155.68 202.961 158.442 201.121C159.479 203.54 159.037 206.325 158.303 208.858C157.172 212.764 155.402 216.487 153.076 219.826" fill="#D7E1EA"/>
<path d="M158.918 229.647C155.341 230.082 152.231 231.96 149.557 234.366C146.89 236.773 144.987 240.024 144.203 243.526C147.711 243.312 150.688 240.843 152.844 238.083C154.999 235.317 156.497 232.287 158.868 229.704" fill="#D7E1EA"/>
<path d="M160.201 231.329C157.318 224.261 158.361 215.737 162.868 209.569C164.904 216.789 164.151 224.948 160.201 231.329Z" fill="#D7E1EA"/>
<path d="M167.984 240.566C164.741 240.364 161.441 241.133 158.622 242.752C155.803 244.371 153.477 246.828 152.023 249.72C151.827 250.117 151.65 250.614 151.916 250.967C152.143 251.276 152.592 251.301 152.971 251.276C156.119 251.074 158.907 249.184 161.208 247.036C163.508 244.888 165.512 242.405 168.053 240.547" fill="#D7E1EA"/>
<path d="M167.735 240.067C166.059 234.731 165.958 228.91 167.437 223.517C168.025 221.388 169.005 219.145 170.984 218.143C171.154 218.055 171.35 217.979 171.527 218.049C171.698 218.112 171.793 218.282 171.868 218.445C172.57 219.907 172.779 221.57 172.703 223.196C172.633 224.815 172.292 226.415 171.957 228.003C171.337 230.938 171.002 234.095 169.384 236.634C168.999 237.232 168.664 237.887 168.354 238.53C168.051 239.172 168.044 239.399 167.766 239.91" fill="#D7E1EA"/>
<path d="M188.336 243.123C186.813 237.34 188.431 230.321 192.091 225.577C192.363 225.231 192.717 224.853 193.159 224.897C193.836 224.96 194.006 225.855 193.975 226.529C193.709 232.438 191.731 238.266 188.336 243.123Z" fill="#D7E1EA"/>
<path d="M190.195 244.389C197.25 246.216 205.34 244.44 211.206 240.13C207.73 238.373 203.634 237.875 199.829 238.738C196.03 239.607 192.559 241.302 190.195 244.389Z" fill="#D7E1EA"/>
<path d="M191.762 240.535C195.712 234.115 203.285 229.925 210.832 229.541C209.96 232.603 207.438 234.978 204.593 236.414C201.749 237.851 198.569 238.474 195.441 239.085C194.221 239.325 192.552 239.583 191.762 240.535Z" fill="#D7E1EA"/>
<path d="M188.728 221.841C189.796 218.187 190.871 214.502 191.168 210.709C191.459 206.917 190.922 202.954 188.943 199.697C185.252 206.816 184.879 215.125 188.621 222.219" fill="#D7E1EA"/>
<path d="M201.156 215.579C205.473 207.761 214.279 201.518 223.185 200.642C219.746 209.172 210.372 215.768 201.156 215.579Z" fill="#D7E1EA"/>
<path d="M198.438 217.117C204.872 218.093 210.359 222.188 216.37 224.677C217.653 225.206 219.044 225.628 220.422 225.451C221.8 225.269 223.165 224.349 223.475 222.994C223.734 221.873 223.216 220.676 222.413 219.857C221.604 219.032 220.536 218.521 219.467 218.074C212.919 215.359 205.89 215.29 198.994 216.934" fill="#D7E1EA"/>
<path d="M194.715 221.615C196.169 222.031 196.668 222.781 197.825 223.764C201.737 227.084 206.434 229.49 211.421 230.725C211.94 230.851 212.622 230.908 212.881 230.435C213.109 230.026 212.825 229.534 212.527 229.169C210.435 226.561 207.452 224.778 204.316 223.612C201.181 222.447 198.457 221.042 194.715 221.344" fill="#D7E1EA"/>
<path d="M190.512 194.443C195.746 199.313 203.116 201.814 210.24 201.134C210.562 201.102 210.916 201.052 211.137 200.813C211.636 200.277 211.036 199.446 210.461 198.992C204.664 194.481 197.635 192.616 190.512 194.443Z" fill="#D7E1EA"/>
<path d="M195.492 192.622C202.407 187.45 211.895 185.894 220.112 188.572C217.009 191.614 212.711 193.259 208.381 193.706C204.051 194.16 199.715 193.681 195.492 192.622Z" fill="#D7E1EA"/>
<path d="M193.515 180.136C192.946 174.365 193.313 169.81 192.914 164.014C192.883 163.548 192.782 162.994 192.346 162.83C191.739 162.597 191.233 163.34 191.037 163.958C189.312 169.3 190.253 175.43 193.509 180.016" fill="#D7E1EA"/>
<path d="M193.098 180.778C197.023 178.359 199.969 175.203 202.687 171.486C204.583 168.903 206.176 165.809 205.746 162.634C203.085 162.584 200.556 164.045 198.824 166.061C197.093 168.077 196.069 170.597 195.297 173.136C194.539 175.669 194.002 178.277 193.098 180.778Z" fill="#D7E1EA"/>
<path d="M202.521 178.164C211.136 174.989 219.17 170.27 226.124 164.291C223.304 163.157 220.074 163.838 217.255 164.972C210.814 167.561 205.555 171.939 202.395 178.101" fill="#D7E1EA"/>
<path d="M195.746 183.934C200.101 184.407 204.532 184.716 208.856 183.997C213.104 183.292 217.124 181.61 221.093 179.947C221.422 179.808 221.782 179.644 221.928 179.317C222.086 178.964 221.915 178.535 221.631 178.271C221.346 178.012 220.961 177.886 220.588 177.786C216.27 176.582 211.612 177.143 207.364 178.573C203.11 179.997 199.627 181.692 195.746 183.934Z" fill="#D7E1EA"/>
<path d="M170.867 194.639C167.896 188.66 168.085 181.679 170.658 175.512C172.466 178.259 172.687 181.755 172.358 185.018C172.03 188.288 171.031 191.646 170.968 194.928" fill="#D7E1EA"/>
<path d="M158.987 188.666C151.567 188.527 144.139 191.677 139.102 197.108C142.806 197.688 146.624 196.736 149.993 195.098C153.362 193.46 156.358 191.155 159.322 188.874" fill="#D7E1EA"/>
<path d="M151.005 186.008C147.376 185.712 143.881 185.265 140.392 186.336C136.902 187.4 133.723 189.82 132.301 193.171C135.695 193.555 139.14 192.705 142.256 191.3C145.36 189.889 148.192 187.942 151.005 186.008Z" fill="#D7E1EA"/>
<path d="M162.824 186.127C159.556 183.991 156.206 181.824 152.401 180.936C148.596 180.054 144.19 180.702 141.535 183.563C144.613 185.364 148.349 185.579 151.921 185.572C155.492 185.572 159.866 185.528 163.229 186.719" fill="#D7E1EA"/>
<path d="M162.845 186.303C157.263 180.835 155.146 171.02 157.39 163.548C161.783 170.194 163.749 178.391 162.845 186.303Z" fill="#D7E1EA"/>
<path d="M178.203 170.818C179.259 168.38 179.998 165.816 180.94 163.334C181.882 160.852 183.058 158.407 184.847 156.435C186.629 154.463 189.101 152.996 191.762 152.863C190.093 160.385 185.087 167.101 178.336 170.862" fill="#D7E1EA"/>
<path d="M175.424 174.043C173.679 171.649 171.669 168.404 169.305 166.622C166.941 164.839 163.863 163.755 160.98 164.442C163.913 169.664 169.457 173.35 175.424 174.043Z" fill="#D7E1EA"/>
<path d="M175.981 171.013C174.837 168.122 173.686 165.198 173.225 162.124C172.763 159.05 173.041 155.767 174.622 153.083C177.687 158.861 178.674 165.06 176.139 171.083" fill="#D7E1EA"/>
<path d="M178.23 153.083C179.969 147.356 185.228 143.142 190.904 141.208C191.618 140.962 192.377 140.76 193.129 140.874C193.875 140.987 194.608 141.497 194.766 142.235C194.975 143.211 194.166 144.08 193.407 144.729C188.982 148.497 183.787 151.357 178.23 153.083Z" fill="#D7E1EA"/>
<path d="M178.294 148.396C178.515 144.705 178.743 140.962 179.95 137.46C181.157 133.963 183.477 130.681 186.853 129.15C187.428 132.88 185.778 136.59 183.787 139.797C181.796 143.004 179.4 146.034 178.199 149.612" fill="#D7E1EA"/>
<path d="M178.205 150.941C176.77 146.771 176.618 141.466 174.115 137.831C172.364 135.292 169.558 133.56 168.047 130.87C167.042 133.383 167.351 136.281 168.401 138.776C169.45 141.271 171.182 143.419 173.04 145.391C174.892 147.363 176.479 148.85 178.205 150.941Z" fill="#D7E1EA"/>
<path d="M178.231 273.817C178.117 273.817 178.022 245.983 178.016 211.655C178.01 177.313 178.092 149.486 178.206 149.486C178.319 149.486 178.414 177.313 178.421 211.655C178.427 245.983 178.345 273.817 178.231 273.817Z" fill="#D7E1EA"/>
<path d="M202.635 190.437C202.641 190.462 202.268 190.601 201.586 190.827C200.833 191.079 199.86 191.407 198.697 191.798C196.263 192.623 192.913 193.82 189.279 195.307C185.682 196.844 182.288 198.091 180.36 199.761C179.393 200.586 178.843 201.474 178.565 202.123C178.286 202.779 178.236 203.175 178.198 203.169C178.185 203.169 178.192 203.068 178.211 202.879C178.242 202.69 178.293 202.413 178.413 202.067C178.647 201.38 179.184 200.429 180.164 199.547C181.137 198.665 182.484 197.871 184.032 197.153C185.581 196.434 187.294 195.678 189.121 194.935C192.762 193.448 196.137 192.289 198.602 191.527C199.835 191.142 200.84 190.859 201.535 190.676C202.237 190.5 202.629 190.412 202.635 190.437Z" fill="#D7E1EA"/>
<path d="M210.639 170.856C210.645 170.868 210.544 170.975 210.342 171.171C210.101 171.391 209.804 171.668 209.444 172.009C208.61 172.765 207.478 173.785 206.1 175.039C203.211 177.603 199.292 181.081 194.963 184.924C190.614 188.779 186.859 192.465 184.255 195.237C182.953 196.623 181.922 197.769 181.227 198.569C180.898 198.941 180.633 199.243 180.418 199.489C180.228 199.697 180.127 199.804 180.115 199.792C180.102 199.785 180.184 199.659 180.355 199.432C180.525 199.206 180.772 198.878 181.107 198.462C181.771 197.631 182.769 196.446 184.046 195.035C186.6 192.206 190.336 188.477 194.691 184.615C199.052 180.766 203.022 177.313 205.904 174.818C207.32 173.609 208.483 172.613 209.337 171.883C209.716 171.568 210.032 171.309 210.285 171.101C210.506 170.931 210.626 170.843 210.639 170.856Z" fill="#D7E1EA"/>
<path d="M190.271 188.836C190.158 188.786 191.068 186.694 191.972 184.054C192.882 181.415 193.312 179.184 193.432 179.203C193.539 179.216 193.28 181.509 192.357 184.187C191.902 185.522 191.403 186.7 191.005 187.532C190.606 188.363 190.322 188.861 190.271 188.836Z" fill="#D7E1EA"/>
<path d="M178.256 205.689C178.23 205.707 177.997 205.43 177.586 204.914C177.131 204.334 176.555 203.597 175.873 202.721C174.431 200.863 172.44 198.299 170.203 195.495C167.965 192.692 165.917 190.172 164.425 188.351C163.724 187.488 163.136 186.763 162.674 186.19C162.264 185.673 162.049 185.384 162.068 185.365C162.087 185.346 162.346 185.604 162.794 186.089C163.243 186.574 163.875 187.286 164.647 188.168C166.189 189.945 168.281 192.433 170.519 195.243C172.756 198.053 174.716 200.649 176.1 202.545C176.796 203.496 177.345 204.271 177.712 204.813C178.085 205.361 178.281 205.67 178.256 205.689Z" fill="#D7E1EA"/>
<path d="M172.906 198.841C172.843 198.91 171.415 197.222 170.662 194.658C170.112 192.85 170.087 191.199 170.157 190.443L170.334 190.456C170.251 190.777 170.195 190.947 170.163 190.941C170.131 190.935 170.131 190.758 170.157 190.424L170.334 190.437C170.397 191.187 170.511 192.781 171.048 194.538C171.769 197.027 173.014 198.772 172.906 198.841Z" fill="#D7E1EA"/>
<path d="M165.996 190.178C165.946 190.235 165.484 189.655 164.429 189.271C163.386 188.867 161.812 188.779 160.086 188.924C158.361 189.05 156.812 189.359 155.712 189.63C154.606 189.901 153.93 190.115 153.911 190.058C153.892 190.008 154.536 189.699 155.636 189.353C156.736 189.006 158.297 188.653 160.061 188.521C161.805 188.37 163.462 188.502 164.542 189C165.63 189.491 166.028 190.165 165.996 190.178Z" fill="#D7E1EA"/>
<path d="M164.361 188.08C164.33 188.143 163.451 187.715 161.965 187.211C160.48 186.7 158.369 186.171 155.986 185.982C153.596 185.806 151.428 186.014 149.886 186.291C148.337 186.568 147.402 186.858 147.383 186.789C147.377 186.763 147.598 186.669 148.021 186.518C148.439 186.36 149.058 186.184 149.829 186.014C151.378 185.661 153.584 185.403 156.017 185.585C158.445 185.774 160.588 186.36 162.067 186.946C162.806 187.236 163.394 187.507 163.78 187.721C164.165 187.929 164.374 188.055 164.361 188.08Z" fill="#D7E1EA"/>
<path d="M178.204 179.204C178.097 179.229 177.313 176.52 176.453 173.149C175.594 169.779 174.987 167.026 175.094 166.994C175.202 166.969 175.986 169.678 176.845 173.049C177.705 176.419 178.312 179.172 178.204 179.204Z" fill="#D7E1EA"/>
<path d="M178.313 179.203C178.193 179.241 177.687 177.433 176.372 175.58C175.095 173.69 173.458 172.739 173.521 172.645C173.54 172.601 173.995 172.764 174.621 173.212C175.253 173.646 176.031 174.39 176.701 175.347C178.072 177.275 178.414 179.197 178.313 179.203Z" fill="#D7E1EA"/>
<path d="M178.228 258.98C178.184 258.987 178.102 258.313 177.786 257.128C177.476 255.944 176.888 254.268 175.921 252.309C173.993 248.378 170.478 243.394 166.022 238.405C163.81 235.885 161.667 233.51 159.847 231.242C158.026 228.974 156.522 226.806 155.428 224.891C154.328 222.976 153.614 221.338 153.197 220.179C152.995 219.599 152.843 219.146 152.761 218.831C152.672 218.522 152.634 218.352 152.647 218.352C152.685 218.339 152.887 218.988 153.349 220.122C153.81 221.256 154.556 222.869 155.675 224.746C156.793 226.63 158.304 228.759 160.131 231.008C161.958 233.258 164.107 235.62 166.319 238.14C170.794 243.142 174.296 248.189 176.174 252.183C177.115 254.174 177.672 255.887 177.937 257.09C178.064 257.695 178.152 258.161 178.184 258.489C178.228 258.804 178.241 258.974 178.228 258.98Z" fill="#D7E1EA"/>
<path d="M200.281 234.152C200.294 234.184 199.871 234.398 199.125 234.801C198.385 235.217 197.33 235.853 196.129 236.779C194.921 237.699 193.575 238.909 192.191 240.358C190.806 241.813 189.384 243.501 187.93 245.316C185.023 248.951 182.311 252.164 180.68 254.728C179.852 256.001 179.251 257.072 178.86 257.828C178.461 258.577 178.253 258.999 178.221 258.987C178.208 258.981 178.246 258.867 178.329 258.659C178.417 258.451 178.531 258.143 178.714 257.758C179.068 256.983 179.631 255.881 180.433 254.577C182.014 251.95 184.706 248.693 187.608 245.064C189.062 243.249 190.503 241.555 191.912 240.106C193.322 238.657 194.706 237.453 195.945 236.553C197.184 235.652 198.271 235.041 199.043 234.669C199.428 234.48 199.738 234.36 199.946 234.272C200.161 234.177 200.275 234.14 200.281 234.152Z" fill="#D7E1EA"/>
<path d="M200.715 242.204C200.721 242.261 199.779 242.374 198.275 242.557C196.77 242.752 194.678 243.004 192.478 243.697C190.291 244.409 188.477 245.486 187.289 246.412C186.094 247.332 185.532 248.094 185.475 248.05C185.456 248.038 185.57 247.83 185.835 247.49C186.094 247.149 186.524 246.696 187.106 246.192C188.269 245.19 190.108 244.044 192.352 243.319C194.602 242.607 196.726 242.406 198.243 242.28C199.766 242.166 200.715 242.154 200.715 242.204Z" fill="#D7E1EA"/>
<path d="M186.186 247.162C186.059 247.093 187.159 245.417 188.013 243.161C188.815 240.887 188.999 238.89 189.144 238.915C189.195 238.922 189.195 239.419 189.106 240.219C189.011 241.019 188.815 242.128 188.392 243.294C187.962 244.459 187.406 245.436 186.976 246.116C186.54 246.803 186.23 247.193 186.186 247.162Z" fill="#D7E1EA"/>
<path d="M207.426 212.53C207.432 212.543 207.293 212.612 207.034 212.738C206.731 212.877 206.352 213.047 205.884 213.261C205.378 213.475 204.771 213.746 204.082 214.112C203.393 214.465 202.584 214.83 201.75 215.334C201.326 215.573 200.878 215.825 200.416 216.09C199.955 216.355 199.5 216.67 199.013 216.972C198.033 217.564 197.047 218.295 195.998 219.045C193.943 220.601 191.782 222.44 189.702 224.563C187.641 226.712 185.872 228.923 184.38 231.027C183.666 232.098 182.964 233.106 182.408 234.102C182.117 234.599 181.82 235.066 181.573 235.532C181.327 236.004 181.087 236.452 180.859 236.886C180.385 237.737 180.044 238.556 179.715 239.255C179.374 239.954 179.121 240.572 178.925 241.076C178.729 241.548 178.571 241.933 178.444 242.235C178.331 242.5 178.261 242.638 178.248 242.632C178.236 242.626 178.274 242.481 178.369 242.21C178.476 241.895 178.615 241.504 178.779 241.019C178.956 240.502 179.19 239.872 179.506 239.161C179.822 238.449 180.145 237.623 180.606 236.754C180.827 236.313 181.061 235.859 181.301 235.381C181.548 234.902 181.839 234.429 182.123 233.932C182.679 232.917 183.368 231.897 184.083 230.813C185.568 228.684 187.344 226.441 189.424 224.28C191.523 222.138 193.71 220.292 195.789 218.742C196.851 217.999 197.85 217.274 198.849 216.688C199.342 216.386 199.809 216.077 200.277 215.819C200.745 215.561 201.2 215.315 201.63 215.082C202.483 214.591 203.299 214.244 204.007 213.904C204.708 213.557 205.328 213.305 205.846 213.116C206.326 212.934 206.712 212.782 207.028 212.663C207.274 212.562 207.42 212.518 207.426 212.53Z" fill="#D7E1EA"/>
<path d="M189.973 224.186C189.935 224.179 190.131 223.505 190.934 222.762C191.718 222.018 193.14 221.332 194.802 221.281C196.459 221.237 197.893 221.697 198.873 222.075C199.859 222.459 200.428 222.774 200.409 222.818C200.384 222.875 199.771 222.655 198.778 222.34C197.786 222.037 196.383 221.64 194.815 221.678C193.254 221.729 191.901 222.327 191.124 222.97C190.321 223.619 190.036 224.223 189.973 224.186Z" fill="#D7E1EA"/>
<path d="M187.365 226.87C187.251 226.807 188.237 225.371 188.464 223.31C188.724 221.25 188.098 219.625 188.218 219.593C188.262 219.575 188.483 219.953 188.673 220.633C188.863 221.307 188.989 222.29 188.869 223.361C188.743 224.432 188.395 225.358 188.054 225.969C187.706 226.58 187.402 226.895 187.365 226.87Z" fill="#D7E1EA"/>
<path d="M158.945 262.969C159.546 273.603 162.763 284.427 167.713 295.363H189.223C193.938 284.534 196.935 273.735 197.466 262.969H158.945Z" fill="#D7E1EA"/>
<path d="M193.976 280.179C193.976 280.293 186.891 280.381 178.161 280.381C169.426 280.381 162.34 280.293 162.34 280.179C162.34 280.066 169.419 279.978 178.161 279.978C186.897 279.978 193.976 280.066 193.976 280.179Z" fill="#F2F7FC"/>
<path d="M193.494 284.036C193.494 284.149 186.857 284.237 178.665 284.237C170.473 284.237 163.836 284.149 163.836 284.036C163.836 283.922 170.473 283.834 178.665 283.834C186.857 283.834 193.494 283.922 193.494 284.036Z" fill="#F2F7FC"/>
<path d="M168.054 269.948C168.168 269.948 168.256 272.16 168.256 274.887C168.256 277.615 168.168 279.827 168.054 279.827C167.94 279.827 167.852 277.615 167.852 274.887C167.852 272.16 167.946 269.948 168.054 269.948Z" fill="#F2F7FC"/>
<path d="M179.581 269.948C179.695 269.948 179.783 272.235 179.783 275.064C179.783 277.886 179.695 280.179 179.581 280.179C179.467 280.179 179.379 277.893 179.379 275.064C179.379 272.241 179.467 269.948 179.581 269.948Z" fill="#F2F7FC"/>
<path d="M190.398 269.866C190.511 269.866 190.6 272.203 190.6 275.083C190.6 277.962 190.511 280.299 190.398 280.299C190.284 280.299 190.195 277.962 190.195 275.083C190.202 272.197 190.29 269.866 190.398 269.866Z" fill="#F2F7FC"/>
<path d="M196.78 269.949C196.78 270.062 188.474 270.15 178.228 270.15C167.982 270.15 159.676 270.062 159.676 269.949C159.676 269.835 167.982 269.747 178.228 269.747C188.468 269.747 196.78 269.842 196.78 269.949Z" fill="#F2F7FC"/>
<path d="M279.025 24.125H329.758V76.8308H279.025V24.125Z" fill="#D7E1EA"/>
<path d="M282.467 24.125H333.199V76.8308H282.467V24.125Z" fill="#F2F7FC"/>
<path d="M282.447 76.8496H333.211V24.1123H282.447V76.8496ZM333.179 76.8181H282.479V24.1438H333.179V76.8181Z" fill="#D7E1EA"/>
<path d="M289.287 31.2119H326.379V69.749H289.287V31.2119Z" fill="white"/>
<path d="M326.377 70.0077C326.345 70.0392 326.699 70.4424 327.293 71.0661C327.887 71.6898 328.715 72.534 329.651 73.4475C330.586 74.361 331.44 75.18 332.072 75.7596C332.704 76.3392 333.115 76.6794 333.146 76.6479C333.178 76.6164 332.83 76.2132 332.236 75.5895C331.642 74.9658 330.808 74.1216 329.872 73.2018C328.937 72.282 328.077 71.463 327.445 70.8834C326.806 70.3101 326.402 69.9699 326.377 70.0077Z" fill="#D7E1EA"/>
<path d="M289.287 69.9072C289.255 69.8757 288.851 70.2285 288.225 70.8207C287.599 71.4129 286.752 72.2382 285.836 73.1706C284.919 74.103 284.098 74.9535 283.516 75.5835C282.934 76.2135 282.593 76.623 282.625 76.6545C282.656 76.686 283.061 76.3395 283.687 75.7473C284.312 75.1551 285.159 74.3235 286.082 73.3911C287.005 72.4587 287.827 71.6019 288.408 70.9719C288.977 70.3419 289.319 69.9387 289.287 69.9072Z" fill="#D7E1EA"/>
<path d="M289.389 31.3131C289.42 31.2753 289.066 30.8784 288.472 30.2547C287.878 29.631 287.05 28.7868 286.114 27.8733C285.179 26.9598 284.326 26.1408 283.693 25.5612C283.061 24.9816 282.651 24.6414 282.619 24.6729C282.587 24.7044 282.935 25.1076 283.529 25.7313C284.123 26.355 284.958 27.1992 285.893 28.119C286.829 29.0388 287.688 29.8578 288.32 30.4374C288.953 31.0107 289.357 31.3509 289.389 31.3131Z" fill="#D7E1EA"/>
<path d="M326.48 31.407C326.512 31.4385 326.916 31.0857 327.542 30.4935C328.168 29.9013 329.015 29.076 329.931 28.1436C330.848 27.2112 331.67 26.3607 332.251 25.7307C332.833 25.1007 333.174 24.6912 333.143 24.6597C333.111 24.6282 332.706 24.9747 332.081 25.5669C331.455 26.1591 330.608 26.9907 329.685 27.9231C328.762 28.8555 327.94 29.7123 327.359 30.3423C326.784 30.9786 326.442 31.3818 326.48 31.407Z" fill="#D7E1EA"/>
<path d="M289.388 69.7497C289.388 69.7497 289.394 69.6867 289.394 69.5607C289.394 69.4284 289.401 69.252 289.401 69.0252C289.407 68.5401 289.413 67.8471 289.42 66.9462C289.426 65.1192 289.439 62.4669 289.458 59.0901C289.477 52.3428 289.502 42.7227 289.534 31.2126L289.388 31.3575C300.184 31.3638 312.864 31.3701 326.372 31.3764H326.379L326.214 31.2126C326.221 45.3561 326.233 58.5861 326.24 69.7497L326.379 69.6111C315.292 69.6426 306.063 69.6678 299.597 69.6804C296.367 69.693 293.819 69.7056 292.075 69.7182C291.209 69.7245 290.545 69.7308 290.083 69.7371C289.862 69.7434 289.698 69.7434 289.571 69.7434C289.451 69.7434 289.388 69.7434 289.388 69.7497C289.388 69.7497 289.439 69.756 289.552 69.756C289.673 69.756 289.837 69.7623 290.052 69.7623C290.507 69.7686 291.164 69.7686 292.018 69.7812C293.756 69.7875 296.291 69.8001 299.508 69.819C306 69.8379 315.26 69.8631 326.379 69.8883H326.518V69.7497C326.524 58.5924 326.53 45.3561 326.543 31.2126V31.0488H326.379H326.372C312.864 31.0551 300.184 31.0614 289.388 31.0677H289.243V31.2126C289.274 42.7605 289.3 52.4121 289.312 59.1783C289.331 62.5362 289.344 65.1822 289.35 67.0029C289.357 67.8912 289.363 68.5779 289.369 69.0567C289.375 69.2772 289.375 69.4536 289.375 69.5796C289.382 69.693 289.382 69.7497 289.388 69.7497Z" fill="#D7E1EA"/>
<path d="M301.643 44.3105H314.02V56.646H301.643V44.3105Z" fill="#D7E1EA"/>
<path d="M64.1673 23.3169H137.883V129.806H64.1673V23.3169Z" fill="#D7E1EA"/>
<path d="M67.8665 23.3174H141.582V129.806H67.8665V23.3174Z" fill="#F2F7FC"/>
<path d="M77.0285 34.8516H132.426V118.276H77.0285V34.8516Z" fill="white"/>
<path d="M77.0255 118.277C77.0255 118.277 77.0318 118.138 77.0381 117.867C77.0381 117.59 77.0444 117.199 77.0508 116.683C77.0571 115.637 77.0634 114.1 77.076 112.109C77.0887 108.108 77.1013 102.287 77.1266 94.9225C77.1519 80.212 77.1772 59.3842 77.2151 34.852L77.0318 35.0347C93.9594 35.041 112.708 35.0473 132.423 35.0536H132.429L132.227 34.852C132.239 66.3205 132.258 95.3383 132.265 118.277L132.423 118.119C115.552 118.157 101.722 118.182 92.1011 118.201C87.2908 118.22 83.5298 118.232 80.9635 118.239C79.6866 118.245 78.7069 118.251 78.0368 118.258C77.3731 118.264 77.0255 118.277 77.0255 118.277C77.0255 118.277 77.3541 118.289 78.0052 118.295C78.6689 118.302 79.636 118.308 80.9002 118.314C83.4602 118.321 87.2086 118.34 92.0062 118.352C101.652 118.371 115.514 118.403 132.429 118.434H132.587V118.277C132.6 95.3383 132.612 66.3268 132.625 34.852V34.6504H132.423H132.416C112.708 34.6567 93.9531 34.663 77.0255 34.6693H76.8422V34.852C76.8801 59.4283 76.9117 80.3065 76.9307 95.0422C76.9496 102.382 76.9686 108.197 76.9812 112.184C76.9939 114.163 77.0002 115.681 77.0065 116.72C77.0128 117.224 77.0128 117.615 77.0191 117.88C77.0191 118.151 77.0255 118.277 77.0255 118.277Z" fill="#D7E1EA"/>
<path d="M67.6551 23.3165C67.6109 23.348 68.1103 24.0788 68.9699 25.2191C69.8232 26.3594 71.0432 27.9155 72.4275 29.5913C73.8181 31.2671 75.1139 32.7539 76.0683 33.8123C77.0291 34.8707 77.6486 35.5007 77.6928 35.4629C77.7371 35.4251 77.1871 34.7321 76.2832 33.6296C75.2972 32.4326 74.0772 30.9647 72.7372 29.3393C71.3908 27.7139 70.1772 26.2397 69.1911 25.049C68.2809 23.9528 67.6994 23.285 67.6551 23.3165Z" fill="#D7E1EA"/>
<path d="M76.7383 118.006C73.9886 122.366 70.7397 126.417 67.0735 130.052L76.7383 118.006Z" fill="white"/>
<path d="M67.0819 130.053C67.1199 130.09 67.7772 129.523 68.7633 128.528C69.7557 127.533 71.0642 126.102 72.4105 124.433C73.7506 122.763 74.8631 121.17 75.6216 119.985C76.3801 118.801 76.791 118.038 76.7468 118.013C76.6962 117.982 76.2032 118.694 75.3877 119.828C74.5723 120.962 73.4345 122.518 72.1008 124.181C70.7671 125.844 69.4966 127.293 68.561 128.333C67.6255 129.372 67.0377 130.008 67.0819 130.053Z" fill="#D7E1EA"/>
<path d="M141.586 129.724C138.369 125.767 135.151 121.811 131.934 117.848L141.586 129.724Z" fill="white"/>
<path d="M131.935 117.855C131.846 117.924 133.939 120.64 136.606 123.916C139.274 127.198 141.505 129.794 141.587 129.724C141.676 129.655 139.583 126.94 136.916 123.664C134.248 120.381 132.017 117.78 131.935 117.855Z" fill="#D7E1EA"/>
<path d="M141.58 23.3168C141.491 23.2475 139.392 25.7486 136.896 28.8986C134.393 32.0486 132.439 34.6631 132.522 34.7324C132.61 34.8017 134.709 32.3006 137.205 29.1506C139.709 26.0006 141.662 23.3861 141.58 23.3168Z" fill="#D7E1EA"/>
<path d="M94.2862 51.7925H112.832V104.284H94.2862V51.7925Z" fill="#D7E1EA"/>
<path d="M120.341 227.281C120.267 227.369 119.682 227.015 119.03 226.491C118.378 225.967 117.904 225.472 117.971 225.384C118.045 225.295 118.63 225.649 119.282 226.174C119.934 226.698 120.408 227.192 120.341 227.281Z" fill="#1F1F1F"/>
<path d="M138.202 200.655C138.313 198.168 138.38 195.621 137.594 193.251C136.809 190.889 134.98 188.719 132.536 188.21C129.744 187.634 126.885 189.391 125.322 191.768C123.759 194.145 123.219 197.031 122.76 199.829C119.575 219.146 118.397 238.797 119.256 258.358L130.677 259.953C135.691 239.527 137.291 221.671 138.202 200.655Z" fill="#1A4367"/>
<path d="M130.953 188.128C130.961 188.128 130.946 188.195 130.902 188.313C130.85 188.453 130.791 188.623 130.716 188.83C130.531 189.31 130.28 189.966 129.954 190.793C129.791 191.221 129.583 191.686 129.413 192.218C129.243 192.749 129.057 193.325 128.857 193.945C128.658 194.565 128.443 195.222 128.221 195.924C128.035 196.64 127.835 197.392 127.628 198.182C126.769 201.334 126.05 205.173 125.421 209.447C124.806 213.728 124.399 218.475 124.08 223.457C123.495 233.43 123.406 242.487 123.147 249.035C123.029 252.312 122.91 254.955 122.784 256.786C122.725 257.672 122.673 258.373 122.644 258.89C122.621 259.111 122.607 259.288 122.599 259.436C122.584 259.561 122.577 259.62 122.569 259.62C122.562 259.62 122.562 259.554 122.555 259.436C122.555 259.288 122.562 259.111 122.562 258.89C122.577 258.373 122.599 257.672 122.629 256.778C122.703 254.948 122.777 252.298 122.858 249.028C123.044 242.48 123.088 233.423 123.673 223.435C123.992 218.445 124.414 213.691 125.051 209.403C125.702 205.114 126.45 201.275 127.354 198.116C127.569 197.326 127.776 196.573 127.976 195.857C128.213 195.156 128.435 194.499 128.65 193.879C128.857 193.266 129.057 192.69 129.235 192.159C129.42 191.627 129.643 191.17 129.813 190.742C130.161 189.922 130.442 189.273 130.65 188.8C130.739 188.601 130.813 188.431 130.879 188.298C130.916 188.18 130.946 188.128 130.953 188.128Z" fill="#1F1F1F"/>
<path d="M132.004 188.136C132.004 188.136 132.707 188.852 133.396 190.491C134.115 192.114 134.566 194.698 134.441 197.857C134.137 204.147 133.574 212.82 132.819 222.387C132.063 231.961 131.226 240.612 130.552 246.872C130.219 250.002 129.923 252.527 129.708 254.276C129.597 255.117 129.515 255.789 129.449 256.284C129.419 256.49 129.389 256.66 129.375 256.808C129.352 256.926 129.345 256.985 129.338 256.985C129.33 256.985 129.33 256.926 129.338 256.808C129.345 256.668 129.36 256.49 129.375 256.284C129.419 255.789 129.478 255.118 129.56 254.269C129.73 252.482 129.975 249.958 130.271 246.857C130.871 240.598 131.663 231.939 132.419 222.372C133.167 212.805 133.781 204.132 134.159 197.865C134.322 194.735 133.922 192.188 133.256 190.572C132.619 188.918 131.959 188.165 132.004 188.136Z" fill="#1F1F1F"/>
<path d="M139.927 217.603C139.89 217.707 138.92 217.456 137.765 217.042C136.609 216.629 135.698 216.208 135.735 216.105C135.772 216.001 136.743 216.252 137.898 216.666C139.053 217.072 139.964 217.493 139.927 217.603Z" fill="#1F1F1F"/>
<path d="M141.305 205.999C141.35 206.103 140.431 206.612 139.246 207.143C138.061 207.675 137.069 208.014 137.017 207.911C136.973 207.808 137.891 207.298 139.076 206.767C140.261 206.243 141.254 205.896 141.305 205.999Z" fill="#1F1F1F"/>
<path d="M140.588 196.528C140.581 196.639 139.818 196.676 138.885 196.617C137.952 196.551 137.204 196.41 137.211 196.3C137.218 196.189 137.981 196.152 138.914 196.211C139.848 196.27 140.596 196.418 140.588 196.528Z" fill="#1F1F1F"/>
<path d="M128.803 190.461C128.707 190.52 128.211 189.9 127.685 189.074C127.166 188.247 126.818 187.531 126.914 187.472C127.011 187.413 127.507 188.033 128.033 188.859C128.551 189.679 128.899 190.402 128.803 190.461Z" fill="#1F1F1F"/>
<path d="M124.908 196.189C124.908 196.3 124.183 196.374 123.286 196.359C122.39 196.337 121.672 196.234 121.672 196.123C121.672 196.012 122.398 195.938 123.294 195.953C124.183 195.968 124.908 196.071 124.908 196.189Z" fill="#1F1F1F"/>
<path d="M122.108 207.646C122.064 207.749 121.301 207.542 120.397 207.181C119.494 206.819 118.797 206.442 118.842 206.339C118.886 206.236 119.649 206.442 120.553 206.804C121.456 207.158 122.152 207.542 122.108 207.646Z" fill="#1F1F1F"/>
<path d="M121.813 217.279C121.835 217.39 121.183 217.619 120.361 217.789C119.532 217.958 118.85 218.01 118.821 217.899C118.799 217.789 119.45 217.56 120.273 217.39C121.102 217.22 121.791 217.168 121.813 217.279Z" fill="#1F1F1F"/>
<path d="M120.496 233.046C120.518 233.157 119.822 233.371 118.955 233.526C118.081 233.681 117.363 233.718 117.34 233.607C117.318 233.497 118.014 233.283 118.881 233.128C119.755 232.973 120.473 232.936 120.496 233.046Z" fill="#1F1F1F"/>
<path d="M119.621 241.742C119.673 241.838 119.095 242.251 118.332 242.65C117.569 243.055 116.91 243.299 116.851 243.196C116.799 243.1 117.377 242.686 118.14 242.288C118.91 241.889 119.569 241.646 119.621 241.742Z" fill="#1F1F1F"/>
<path d="M126.752 251.618C126.656 251.677 126.152 250.983 125.634 250.075C125.115 249.167 124.767 248.385 124.864 248.333C124.96 248.274 125.464 248.968 125.982 249.876C126.5 250.784 126.849 251.566 126.752 251.618Z" fill="#1F1F1F"/>
<path d="M128.804 235.208C128.886 235.289 128.323 235.961 127.553 236.714C126.782 237.467 126.094 238.006 126.02 237.932C125.938 237.851 126.501 237.179 127.271 236.426C128.042 235.673 128.73 235.127 128.804 235.208Z" fill="#1F1F1F"/>
<path d="M128.353 226.595C128.272 226.668 127.754 226.248 127.198 225.65C126.643 225.052 126.258 224.506 126.339 224.424C126.42 224.351 126.939 224.771 127.494 225.369C128.05 225.975 128.435 226.521 128.353 226.595Z" fill="#1F1F1F"/>
<path d="M129.769 215.596C129.85 215.67 129.383 216.327 128.724 217.057C128.065 217.788 127.465 218.327 127.376 218.246C127.295 218.172 127.762 217.515 128.421 216.784C129.08 216.053 129.68 215.522 129.769 215.596Z" fill="#1F1F1F"/>
<path d="M130.559 207.609C130.477 207.69 129.833 207.181 129.107 206.472C128.381 205.764 127.863 205.121 127.937 205.048C128.018 204.966 128.663 205.476 129.388 206.184C130.114 206.893 130.64 207.528 130.559 207.609Z" fill="#1F1F1F"/>
<path d="M132.125 196.816C132.221 196.875 131.895 197.599 131.399 198.433C130.903 199.267 130.414 199.895 130.318 199.843C130.221 199.784 130.547 199.06 131.051 198.226C131.547 197.385 132.028 196.757 132.125 196.816Z" fill="#1F1F1F"/>
<path d="M135.072 186.814C135.169 186.866 134.88 187.589 134.428 188.431C133.969 189.272 133.525 189.907 133.421 189.856C133.325 189.804 133.613 189.081 134.065 188.239C134.524 187.397 134.969 186.755 135.072 186.814Z" fill="#1F1F1F"/>
<path d="M138.402 191.354C138.454 191.458 137.994 191.775 137.38 192.063C136.765 192.358 136.232 192.506 136.18 192.41C136.128 192.307 136.587 191.989 137.202 191.701C137.817 191.406 138.357 191.251 138.402 191.354Z" fill="#1F1F1F"/>
<path d="M138.485 227.282C138.463 227.385 137.426 227.245 136.248 226.743C135.071 226.241 134.248 225.599 134.308 225.51C134.374 225.414 135.263 225.887 136.404 226.374C137.552 226.854 138.515 227.164 138.485 227.282Z" fill="#1F1F1F"/>
<path d="M137.121 234.885C137.143 234.995 136.454 235.217 135.588 235.387C134.721 235.556 133.995 235.601 133.973 235.49C133.951 235.379 134.64 235.158 135.514 234.988C136.373 234.826 137.099 234.781 137.121 234.885Z" fill="#1F1F1F"/>
<path d="M135.449 247.935C135.383 248.016 134.509 247.425 133.709 246.414C132.902 245.41 132.524 244.421 132.62 244.377C132.724 244.325 133.257 245.189 134.027 246.156C134.798 247.13 135.523 247.846 135.449 247.935Z" fill="#1F1F1F"/>
<path d="M117.078 253.9C117.004 253.811 117.471 253.302 118.115 252.748C118.759 252.194 119.344 251.818 119.418 251.906C119.492 251.995 119.026 252.504 118.382 253.058C117.737 253.612 117.152 253.988 117.078 253.9Z" fill="#1F1F1F"/>
<path d="M111.804 225.428C111.063 223.118 109.663 220.416 107.227 220.379C105.782 220.357 104.479 221.391 103.797 222.668C103.116 223.937 102.827 225.414 102.872 226.853C103.153 236.375 104.805 247.263 108.108 257.177H117.025C116.914 246.164 115.174 235.918 111.804 225.428Z" fill="#1A4367"/>
<path d="M95.6724 210.857C94.4282 205.889 90.7028 203.202 86.3849 202.951C82.4447 203.638 80.9116 207.506 80.445 211.47C79.9784 215.434 81.2078 219.376 82.4299 223.177C86.3404 235.379 90.2584 247.574 94.1689 259.776C97.8647 259.37 101.568 258.971 105.264 258.565C101.753 242.229 99.7385 227.075 95.6724 210.857Z" fill="#1A4367"/>
<path d="M107.228 220.379C107.265 220.408 106.865 220.778 106.473 221.634C106.088 222.497 105.902 223.87 106.058 225.561C106.228 227.251 106.428 229.289 106.71 231.518C106.999 233.755 107.406 236.198 107.902 238.752C108.909 243.86 110.05 248.444 110.768 251.781C111.131 253.449 111.413 254.807 111.583 255.745C111.657 256.18 111.716 256.535 111.768 256.83C111.805 257.081 111.82 257.214 111.805 257.214C111.791 257.214 111.753 257.088 111.687 256.845C111.613 256.557 111.531 256.202 111.428 255.774C111.191 254.785 110.872 253.456 110.487 251.84C109.695 248.518 108.517 243.949 107.502 238.826C106.999 236.264 106.606 233.806 106.332 231.562C106.191 230.44 106.095 229.37 106.006 228.366C105.925 227.369 105.814 226.439 105.769 225.583C105.651 223.87 105.88 222.438 106.332 221.567C106.776 220.704 107.228 220.379 107.228 220.379Z" fill="#1F1F1F"/>
<path d="M86.5511 202.641C86.5881 202.67 85.9586 203.202 85.2106 204.434C84.4625 205.652 83.67 207.645 83.5219 210.222C83.3516 212.798 83.9293 215.847 84.8921 219.124C85.8697 222.416 86.9362 226.026 88.0546 229.82C90.2691 237.401 92.2688 244.259 93.7353 249.278C94.4315 251.744 95.0017 253.752 95.4091 255.191C95.5868 255.863 95.735 256.394 95.8461 256.8C95.9424 257.169 95.9868 257.369 95.972 257.369C95.9572 257.376 95.8905 257.184 95.7646 256.822C95.6387 256.424 95.4683 255.892 95.2536 255.228C94.8166 253.796 94.2019 251.803 93.4538 249.352C91.9577 244.347 89.9136 237.497 87.6621 229.931C86.5511 226.137 85.492 222.52 84.5292 219.227C83.5812 215.935 83.0183 212.827 83.2331 210.2C83.4182 207.579 84.27 205.564 85.0773 204.346C85.8771 203.128 86.5511 202.641 86.5511 202.641Z" fill="#1F1F1F"/>
<path d="M102.851 257.391C102.836 257.398 102.754 257.214 102.599 256.859C102.451 256.505 102.214 255.988 101.969 255.302C101.443 253.944 100.762 251.943 100.058 249.426C99.3547 246.916 98.6586 243.89 97.992 240.509C97.3476 237.121 96.644 233.408 95.9034 229.51C95.1331 225.62 94.274 221.936 93.2742 218.644C92.2817 215.359 91.1633 212.466 90.0376 210.126C88.9192 207.786 87.8453 205.962 87.0454 204.752C86.6677 204.132 86.3196 203.681 86.1122 203.364C85.8974 203.047 85.7937 202.877 85.8012 202.869C85.816 202.862 85.9419 203.017 86.1789 203.32C86.4085 203.63 86.7788 204.065 87.1787 204.671C88.0231 205.859 89.1414 207.668 90.2968 210.008C91.4596 212.348 92.615 215.249 93.6296 218.541C94.6517 221.84 95.5257 225.531 96.2959 229.436C97.0292 233.341 97.7179 237.054 98.3549 240.442C99.0066 243.823 99.6658 246.842 100.332 249.36C100.999 251.869 101.628 253.884 102.11 255.25C102.34 255.944 102.547 256.468 102.673 256.83C102.799 257.192 102.858 257.383 102.851 257.391Z" fill="#1F1F1F"/>
<path d="M82.633 221.353C82.6627 221.464 82.0554 221.7 81.2851 221.892C80.5149 222.077 79.8705 222.143 79.8409 222.032C79.8113 221.922 80.4186 221.685 81.1888 221.493C81.9591 221.309 82.6034 221.242 82.633 221.353Z" fill="#1F1F1F"/>
<path d="M81.4544 213.81C81.447 213.92 80.6101 213.972 79.5806 214.009C78.5511 214.046 77.7142 214.068 77.6994 213.957C77.6846 213.847 78.5141 213.647 79.5658 213.603C80.6175 213.559 81.4618 213.699 81.4544 213.81Z" fill="#1F1F1F"/>
<path d="M82.7064 206.915C82.6323 207.004 82.0324 206.613 81.3584 206.044C80.6844 205.476 80.203 204.944 80.277 204.863C80.3511 204.775 80.951 205.166 81.625 205.734C82.2916 206.295 82.7804 206.827 82.7064 206.915Z" fill="#1F1F1F"/>
<path d="M86.0925 200.529C86.2036 200.552 86.174 201.09 86.1592 201.74C86.1369 202.39 86.137 202.928 86.0259 202.951C85.9148 202.973 85.7296 202.427 85.7518 201.733C85.7666 201.039 85.9814 200.507 86.0925 200.529Z" fill="#1F1F1F"/>
<path d="M93.0064 203.541C93.0952 203.608 92.8286 204.154 92.399 204.759C91.9695 205.365 91.5547 205.808 91.4585 205.741C91.3696 205.675 91.6362 205.128 92.0658 204.523C92.4879 203.91 92.9101 203.475 93.0064 203.541Z" fill="#1F1F1F"/>
<path d="M97.4979 211.307C97.5423 211.41 96.9646 211.742 96.2166 212.045C95.4685 212.347 94.8242 212.51 94.7797 212.406C94.7353 212.303 95.313 211.971 96.061 211.668C96.8091 211.366 97.4534 211.203 97.4979 211.307Z" fill="#1F1F1F"/>
<path d="M100.216 219.309C100.261 219.405 99.4978 219.841 98.4535 220.077C97.4092 220.313 96.5352 220.254 96.5352 220.143C96.5278 220.025 97.3647 219.907 98.3646 219.678C99.3718 219.449 100.172 219.199 100.216 219.309Z" fill="#1F1F1F"/>
<path d="M87.7139 217.035C87.6028 216.998 87.6842 216.452 87.8916 215.802C88.0916 215.153 88.3508 214.658 88.4545 214.688C88.5656 214.725 88.4842 215.271 88.2768 215.921C88.0768 216.57 87.825 217.072 87.7139 217.035Z" fill="#1F1F1F"/>
<path d="M89.459 227.074C89.3553 227.03 89.5776 226.284 89.9627 225.413C90.3404 224.542 90.733 223.87 90.8366 223.915C90.9403 223.959 90.7181 224.705 90.333 225.576C89.9553 226.447 89.5627 227.118 89.459 227.074Z" fill="#1F1F1F"/>
<path d="M85.1507 229.82C85.1062 229.924 84.4026 229.732 83.5509 229.473C82.6992 229.208 82.0104 228.964 82.04 228.853C82.0622 228.743 82.8028 228.816 83.6768 229.082C84.5433 229.355 85.1951 229.724 85.1507 229.82Z" fill="#1F1F1F"/>
<path d="M87.631 238.007C87.6976 238.095 87.2236 238.545 86.5719 239.011C85.9201 239.476 85.335 239.778 85.2758 239.682C85.2091 239.594 85.6831 239.143 86.3349 238.678C86.9866 238.221 87.5717 237.918 87.631 238.007Z" fill="#1F1F1F"/>
<path d="M89.6254 246.171C89.655 246.282 89.0625 246.518 88.3145 246.695C87.5591 246.88 86.9295 246.939 86.9073 246.828C86.8777 246.717 87.4702 246.481 88.2182 246.304C88.9736 246.119 89.6032 246.06 89.6254 246.171Z" fill="#1F1F1F"/>
<path d="M100.438 226.121C100.497 226.217 99.9934 226.616 99.2602 226.889C98.527 227.162 97.8826 227.199 97.8678 227.088C97.8456 226.978 98.4233 226.771 99.1195 226.513C99.8157 226.254 100.379 226.025 100.438 226.121Z" fill="#1F1F1F"/>
<path d="M101.983 238.819C101.939 238.922 101.339 238.737 100.643 238.413C99.9541 238.088 99.4282 237.741 99.4801 237.645C99.5245 237.542 100.124 237.726 100.821 238.051C101.509 238.376 102.028 238.723 101.983 238.819Z" fill="#1F1F1F"/>
<path d="M104.711 247.906C104.666 248.009 103.881 247.802 102.941 247.433C102.008 247.071 101.282 246.688 101.326 246.584C101.371 246.481 102.156 246.688 103.096 247.057C104.029 247.418 104.748 247.802 104.711 247.906Z" fill="#1F1F1F"/>
<path d="M90.0612 255.021C90.0094 254.918 90.7352 254.43 91.5721 253.766C92.4164 253.109 93.0608 252.519 93.1497 252.6C93.2311 252.674 92.6979 253.404 91.8239 254.091C90.9574 254.777 90.1131 255.124 90.0612 255.021Z" fill="#1F1F1F"/>
<path d="M97.275 250.408C97.1565 250.422 97.001 249.81 96.7269 249.101C96.4529 248.392 96.1567 247.831 96.2529 247.765C96.3418 247.698 96.8084 248.186 97.1047 248.953C97.4009 249.721 97.3787 250.393 97.275 250.408Z" fill="#1F1F1F"/>
<path d="M95.3643 239.476C95.2976 239.565 94.831 239.343 94.3274 238.982C93.8164 238.62 93.4609 238.251 93.5276 238.155C93.5942 238.066 94.0608 238.288 94.5644 238.649C95.068 239.018 95.4309 239.388 95.3643 239.476Z" fill="#1F1F1F"/>
<path d="M112.16 222.35C112.226 222.439 111.774 222.889 111.145 223.347C110.515 223.805 109.96 224.107 109.893 224.019C109.827 223.93 110.278 223.48 110.908 223.022C111.53 222.564 112.093 222.262 112.16 222.35Z" fill="#1F1F1F"/>
<path d="M114.695 229.252C114.702 229.363 113.999 229.51 113.117 229.415C112.236 229.319 111.577 229.023 111.606 228.92C111.636 228.809 112.317 228.92 113.154 229.009C113.999 229.105 114.687 229.141 114.695 229.252Z" fill="#1F1F1F"/>
<path d="M103.808 230.802C103.83 230.913 103.178 231.142 102.327 231.201C101.475 231.26 100.793 231.113 100.801 231.002C100.808 230.891 101.482 230.847 102.297 230.795C103.119 230.743 103.786 230.692 103.808 230.802Z" fill="#1F1F1F"/>
<path d="M104.748 224.277C104.74 224.387 104.074 224.402 103.348 224.07C102.622 223.738 102.2 223.228 102.274 223.147C102.355 223.059 102.852 223.398 103.518 223.701C104.177 224.003 104.763 224.166 104.748 224.277Z" fill="#1F1F1F"/>
<path d="M115.627 236.663C115.567 236.759 114.886 236.442 114.108 235.947C113.331 235.46 112.746 234.988 112.805 234.892C112.864 234.796 113.546 235.113 114.323 235.608C115.108 236.095 115.686 236.567 115.627 236.663Z" fill="#1F1F1F"/>
<path d="M142.186 256.024H84.1133V266.285H142.186V256.024Z" fill="#4CBDE2"/>
<path d="M88.457 264.248L95.5153 294.897H130.132L137.857 264.248H88.457Z" fill="#4CBDE2"/>
<path d="M142.158 266.292C142.158 266.403 129.057 266.499 112.903 266.499C96.7428 266.499 83.6484 266.41 83.6484 266.292C83.6484 266.181 96.7428 266.085 112.903 266.085C129.057 266.085 142.158 266.181 142.158 266.292Z" fill="#1F1F1F"/>
<path d="M109.857 231.024C109.76 231.083 109.368 230.625 108.968 229.998C108.575 229.37 108.331 228.809 108.427 228.75C108.524 228.691 108.916 229.149 109.316 229.776C109.716 230.411 109.953 230.965 109.857 231.024Z" fill="#1F1F1F"/>
<path d="M109.879 239.276C109.775 239.239 109.908 238.545 110.183 237.718C110.457 236.891 110.768 236.257 110.871 236.286C110.975 236.323 110.842 237.017 110.568 237.844C110.294 238.67 109.99 239.313 109.879 239.276Z" fill="#1F1F1F"/>
<path d="M112.717 247.942C112.614 247.993 112.184 247.3 111.747 246.392C111.31 245.491 111.044 244.716 111.147 244.672C111.251 244.62 111.681 245.314 112.118 246.222C112.547 247.122 112.821 247.89 112.717 247.942Z" fill="#1F1F1F"/>
<path d="M106.586 254.911C106.505 254.837 106.845 254.298 107.356 253.715C107.868 253.124 108.356 252.711 108.438 252.785C108.519 252.859 108.179 253.398 107.66 253.981C107.157 254.571 106.668 254.985 106.586 254.911Z" fill="#1F1F1F"/>
<path d="M105.294 242.259C105.271 242.369 104.716 242.362 104.049 242.244C103.383 242.126 102.85 241.941 102.872 241.831C102.894 241.72 103.449 241.727 104.123 241.845C104.79 241.963 105.316 242.148 105.294 242.259Z" fill="#1F1F1F"/>
<path d="M196.893 126.609L188.014 111.009C191.947 104.654 194.211 97.1707 194.211 89.1628C194.211 66.119 175.47 47.4404 152.35 47.4404C129.229 47.4404 110.488 66.119 110.488 89.1628C110.488 112.207 129.229 130.885 152.35 130.885C162.003 130.885 170.882 127.619 177.973 122.145L177.963 122.165L196.893 126.609Z" fill="#F2F7FC"/>
<path d="M196.897 126.61C195.994 126.402 190.005 125.036 177.928 122.295L177.73 122.255L177.849 122.097L177.859 122.077L178.037 122.255C175.654 124.096 172.794 125.917 169.427 127.432C166.06 128.917 162.207 130.134 157.946 130.698C155.821 130.966 153.596 131.144 151.312 131.035C150.17 130.966 149.008 130.946 147.836 130.847C146.674 130.669 145.492 130.491 144.3 130.312C139.563 129.382 134.706 127.59 130.187 124.789C125.668 121.998 121.487 118.216 118.13 113.574C114.783 108.931 112.241 103.428 111.049 97.4492C109.867 91.4804 109.967 85.076 111.546 78.8795C113.135 72.7028 116.094 66.6746 120.524 61.7154L122.232 59.8446C122.798 59.2111 123.464 58.6964 124.069 58.1124C124.705 57.5679 125.281 56.9443 125.966 56.4593L127.973 54.9646C128.628 54.44 129.343 54.0143 130.058 53.5887C130.763 53.1631 131.478 52.7275 132.183 52.3019C132.928 51.9456 133.663 51.5793 134.408 51.223C135.153 50.8765 135.868 50.4707 136.653 50.2331C142.731 47.8278 149.226 46.9072 155.423 47.3625C161.631 47.808 167.56 49.5798 172.655 52.4405C177.759 55.2715 182.07 59.0626 185.397 63.2794C188.734 67.5061 191.078 72.1683 192.537 76.8107C193.987 81.4729 194.375 86.1054 194.355 90.3816C194.226 94.6776 193.451 98.6271 192.309 102.102C191.167 105.576 189.657 108.565 188.108 111.079V110.951C193.729 120.958 196.47 125.848 196.897 126.61C196.46 125.848 193.65 120.998 187.909 111.07L187.87 111.01L187.909 110.951C189.439 108.437 190.909 105.457 192.031 102.003C193.143 98.5479 193.908 94.6281 194.017 90.3618C194.017 86.1153 193.61 81.5323 192.17 76.9196C190.72 72.3267 188.376 67.7139 185.069 63.5368C181.772 59.3596 177.501 55.6278 172.446 52.8364C167.411 50.0153 161.541 48.2732 155.413 47.8377C149.286 47.4021 142.88 48.3128 136.871 50.6884C136.097 50.9359 135.391 51.3318 134.656 51.6684C133.922 52.0247 133.197 52.3811 132.462 52.7275C131.766 53.1532 131.061 53.5689 130.366 53.9946C129.661 54.4103 128.956 54.8359 128.31 55.3507L126.324 56.8255C125.649 57.3007 125.082 57.9144 124.447 58.4588C123.841 59.0329 123.186 59.5476 122.629 60.1712L120.941 62.0223C116.561 66.9221 113.641 72.881 112.072 78.9785C110.513 85.0958 110.414 91.421 111.566 97.3205C112.738 103.23 115.24 108.674 118.538 113.267C121.845 117.87 125.976 121.621 130.445 124.383C134.915 127.165 139.702 128.946 144.399 129.887C145.581 130.065 146.753 130.243 147.905 130.421C149.067 130.52 150.219 130.55 151.341 130.619C153.606 130.738 155.801 130.57 157.916 130.312C162.137 129.768 165.971 128.58 169.318 127.115C172.664 125.63 175.515 123.839 177.898 122.027L178.683 121.433L178.087 122.205L178.077 122.225L178.008 122.017C190.025 124.947 196.004 126.393 196.897 126.61Z" fill="#1F1F1F"/>
<path d="M123.277 94.7002C123.157 94.7002 123.049 94.6582 122.953 94.5742C122.869 94.4782 122.827 94.3702 122.827 94.2502V82.5502C122.827 82.4182 122.869 82.3102 122.953 82.2262C123.049 82.1422 123.157 82.1002 123.277 82.1002H125.221C125.509 82.1002 125.719 82.2322 125.851 82.4962L129.019 88.1662L132.187 82.4962C132.319 82.2322 132.529 82.1002 132.817 82.1002H134.743C134.875 82.1002 134.983 82.1422 135.067 82.2262C135.163 82.3102 135.211 82.4182 135.211 82.5502V94.2502C135.211 94.3822 135.163 94.4902 135.067 94.5742C134.983 94.6582 134.875 94.7002 134.743 94.7002H132.601C132.469 94.7002 132.355 94.6582 132.259 94.5742C132.175 94.4902 132.133 94.3822 132.133 94.2502V87.5002L130.117 91.2622C129.961 91.5382 129.751 91.6762 129.487 91.6762H128.551C128.395 91.6762 128.269 91.6402 128.173 91.5682C128.077 91.4962 127.993 91.3942 127.921 91.2622L125.887 87.5002V94.2502C125.887 94.3702 125.845 94.4782 125.761 94.5742C125.677 94.6582 125.569 94.7002 125.437 94.7002H123.277ZM137.013 94.7002C136.917 94.7002 136.827 94.6642 136.743 94.5922C136.671 94.5082 136.635 94.4182 136.635 94.3222C136.635 94.2502 136.641 94.1962 136.653 94.1602L140.883 82.6042C140.919 82.4602 140.997 82.3402 141.117 82.2442C141.237 82.1482 141.393 82.1002 141.585 82.1002H144.249C144.441 82.1002 144.597 82.1482 144.717 82.2442C144.837 82.3402 144.915 82.4602 144.951 82.6042L149.163 94.1602L149.199 94.3222C149.199 94.4182 149.157 94.5082 149.073 94.5922C149.001 94.6642 148.911 94.7002 148.803 94.7002H146.589C146.301 94.7002 146.109 94.5742 146.013 94.3222L145.311 92.4862H140.505L139.821 94.3222C139.725 94.5742 139.527 94.7002 139.227 94.7002H137.013ZM144.591 89.8942L142.917 85.1422L141.243 89.8942H144.591ZM149.898 94.7002C149.802 94.7002 149.712 94.6642 149.628 94.5922C149.556 94.5082 149.52 94.4182 149.52 94.3222C149.52 94.2502 149.526 94.1962 149.538 94.1602L153.768 82.6042C153.804 82.4602 153.882 82.3402 154.002 82.2442C154.122 82.1482 154.278 82.1002 154.47 82.1002H157.134C157.326 82.1002 157.482 82.1482 157.602 82.2442C157.722 82.3402 157.8 82.4602 157.836 82.6042L162.048 94.1602L162.084 94.3222C162.084 94.4182 162.042 94.5082 161.958 94.5922C161.886 94.6642 161.796 94.7002 161.688 94.7002H159.474C159.186 94.7002 158.994 94.5742 158.898 94.3222L158.196 92.4862H153.39L152.706 94.3222C152.61 94.5742 152.412 94.7002 152.112 94.7002H149.898ZM157.476 89.8942L155.802 85.1422L154.128 89.8942H157.476ZM163.952 94.7002C163.832 94.7002 163.724 94.6582 163.628 94.5742C163.544 94.4782 163.502 94.3702 163.502 94.2502V82.5502C163.502 82.4182 163.544 82.3102 163.628 82.2262C163.724 82.1422 163.832 82.1002 163.952 82.1002H172.232C172.364 82.1002 172.472 82.1422 172.556 82.2262C172.64 82.3102 172.682 82.4182 172.682 82.5502V84.3682C172.682 84.4882 172.64 84.5962 172.556 84.6922C172.472 84.7762 172.364 84.8182 172.232 84.8182H166.67V87.4642H171.872C172.004 87.4642 172.112 87.5122 172.196 87.6082C172.28 87.6922 172.322 87.8002 172.322 87.9322V89.7322C172.322 89.8522 172.28 89.9602 172.196 90.0562C172.112 90.1402 172.004 90.1822 171.872 90.1822H166.67V94.2502C166.67 94.3822 166.628 94.4902 166.544 94.5742C166.46 94.6582 166.352 94.7002 166.22 94.7002H163.952ZM174.123 94.7002C174.003 94.7002 173.895 94.6582 173.799 94.5742C173.715 94.4782 173.673 94.3702 173.673 94.2502V91.9642C173.673 91.8322 173.715 91.7242 173.799 91.6402C173.895 91.5562 174.003 91.5142 174.123 91.5142H176.409C176.541 91.5142 176.649 91.5562 176.733 91.6402C176.817 91.7242 176.859 91.8322 176.859 91.9642V94.2502C176.859 94.3702 176.817 94.4782 176.733 94.5742C176.649 94.6582 176.541 94.7002 176.409 94.7002H174.123ZM179.239 94.7002C179.119 94.7002 179.011 94.6582 178.915 94.5742C178.831 94.4782 178.789 94.3702 178.789 94.2502V91.9642C178.789 91.8322 178.831 91.7242 178.915 91.6402C179.011 91.5562 179.119 91.5142 179.239 91.5142H181.525C181.657 91.5142 181.765 91.5562 181.849 91.6402C181.933 91.7242 181.975 91.8322 181.975 91.9642V94.2502C181.975 94.3702 181.933 94.4782 181.849 94.5742C181.765 94.6582 181.657 94.7002 181.525 94.7002H179.239Z" fill="#1F1F1F"/>
<path d="M221.828 144.404L239.249 137.987L282.39 134.834L293.753 138.289L278.419 204.027L240.797 212.133L223.342 189.046L221.828 144.404Z" fill="#FFBE9D"/>
<path d="M319.577 147.097L291.455 137.192C291.455 137.192 265.083 174.779 221.829 144.403C221.829 144.403 202.861 151.189 200.045 152.755C197.219 154.32 213.237 202.103 213.237 202.103L211.352 261.491C236.053 274.181 275.527 269.463 309.896 263.705L308.898 197.721L319.577 147.097Z" fill="#4CBDE2"/>
<path d="M308.675 93.2115C311.569 89.0749 310.84 82.8365 307.06 79.4825C303.28 76.1285 296.976 76.1173 293.184 79.4601L287.553 89.3768C284.48 93.1668 282.236 97.6947 281.574 102.525C280.924 107.354 281.956 112.475 284.827 116.41C288.608 121.575 295.529 124.258 301.81 122.973C308.092 121.687 313.409 116.522 314.845 110.283C316.303 104.056 313.779 97.1022 308.675 93.2115Z" fill="#1F1F1F"/>
<path d="M294.104 93.9823C293.936 90.6395 293.577 87.2184 294.53 84.0209C294.889 82.8135 295.439 81.6284 295.45 80.3651C295.472 78.5315 294.227 76.7539 292.5 76.139C290.772 75.5241 288.686 76.1055 287.531 77.5253L287.34 77.8719C285.399 79.4371 284.457 81.9079 283.705 84.2781C282.528 87.9675 281.563 91.7352 280.834 95.5364C280.419 97.6717 280.082 99.8742 280.464 102.01C280.845 104.156 282.068 106.258 284.053 107.175C287.093 108.583 290.862 106.627 292.533 103.731C294.205 100.836 294.272 97.314 294.104 93.9823Z" fill="#4CBDE2"/>
<path d="M289.92 82.49C289.28 78.6888 287.62 75.1111 287.048 71.3099C286.285 66.3125 287.418 61.2479 287.699 56.1945C287.979 51.1411 287.183 45.5847 283.47 42.1412C279.51 38.463 273.554 38.3065 268.225 37.3338C262.168 36.2382 256.425 33.8568 250.468 32.2804C244.512 30.7041 238.062 29.9662 232.296 32.1127C227.08 34.0581 222.997 38.1388 219.307 42.2866C213.328 49.0058 207.652 56.9659 207.719 65.9547C207.753 70.6279 209.368 75.1335 209.963 79.762C210.535 84.2005 210.176 88.762 211.219 93.1222C212.262 97.4824 215.212 101.843 219.632 102.648L268.113 107.477C274.44 107.645 280.778 104.872 284.928 100.11C289.078 95.3582 290.963 88.7061 289.92 82.49Z" fill="#1F1F1F"/>
<path d="M276.728 58.7894L276.605 52.8752L240.743 47.5646C229.728 46.8491 218.309 58.2863 218.062 69.2986C217.793 81.5184 217.938 96.4549 219.756 105.5C223.412 123.678 237.58 125.434 237.58 125.434V135.764C237.58 147.223 246.913 156.514 258.41 156.514C270.177 156.514 279.611 146.799 279.23 135.082L276.728 58.7894Z" fill="#FFBE9D"/>
<path d="M225.656 81.4852C225.667 82.7262 226.722 83.7436 228.023 83.7659C229.324 83.7771 230.368 82.7933 230.368 81.5523C230.356 80.3113 229.302 79.2939 228.001 79.2716C226.699 79.2604 225.656 80.2442 225.656 81.4852Z" fill="#1F1F1F"/>
<path d="M222.256 76.9114C222.559 77.2021 224.286 75.8158 226.821 75.7264C229.345 75.5922 231.263 76.822 231.521 76.4978C231.656 76.3524 231.331 75.8158 230.5 75.2568C229.682 74.709 228.302 74.1947 226.72 74.2618C225.139 74.3289 223.837 74.9661 223.097 75.5922C222.346 76.2183 222.11 76.7773 222.256 76.9114Z" fill="#1F1F1F"/>
<path d="M249.617 80.6784C249.628 81.9194 250.683 82.9368 251.984 82.948C253.285 82.9704 254.329 81.9753 254.329 80.7343C254.317 79.4934 253.263 78.476 251.962 78.4536C250.66 78.4536 249.606 79.4375 249.617 80.6784Z" fill="#1F1F1F"/>
<path d="M247.182 76.3748C247.484 76.6655 249.223 75.2792 251.747 75.1897C254.271 75.0556 256.189 76.2854 256.447 75.9612C256.57 75.8158 256.256 75.2792 255.426 74.7202C254.607 74.1724 253.228 73.6581 251.646 73.7252C250.064 73.7922 248.763 74.4295 248.023 75.0556C247.271 75.6817 247.036 76.2407 247.182 76.3748Z" fill="#1F1F1F"/>
<path d="M238.747 95.4695C238.758 95.3241 237.165 95.1229 234.596 94.8993C233.946 94.8546 233.329 94.7539 233.205 94.3179C233.037 93.8595 233.273 93.1552 233.564 92.3949C234.114 90.8074 234.675 89.1527 235.281 87.4086C237.647 80.3093 239.341 74.4845 239.05 74.3951C238.758 74.3056 236.604 79.9851 234.237 87.0732C233.665 88.8173 233.127 90.4943 232.611 92.0819C232.398 92.8198 232.005 93.6695 232.375 94.631C232.566 95.1005 233.06 95.4359 233.475 95.5254C233.89 95.6372 234.26 95.626 234.574 95.6372C237.154 95.6707 238.747 95.6148 238.747 95.4695Z" fill="#1F1F1F"/>
<path d="M237.59 125.477C237.59 125.477 250.602 125.712 262.537 117.886C262.537 117.886 256.659 130.989 237.59 130.083V125.477Z" fill="#EB996E"/>
<path d="M240.069 101.519C240.933 100.278 242.503 99.5621 244.096 99.6627C245.195 99.741 246.328 100.222 247.035 101.083C247.742 101.943 247.932 103.207 247.36 104.079C246.721 105.063 245.296 105.342 244.073 105.051C242.851 104.761 241.774 104.012 240.753 103.251C240.473 103.039 240.181 102.827 240.002 102.536C239.822 102.245 239.766 101.854 239.968 101.597" fill="#EB996E"/>
<path d="M258.872 68.8723C258.726 68.1568 256.168 68.1121 253.285 67.3295C250.38 66.6028 248.125 65.3953 247.654 65.9543C247.441 66.2226 247.755 66.9158 248.619 67.7208C249.471 68.5145 250.896 69.3642 252.635 69.8114C254.373 70.2586 256.034 70.2139 257.167 69.9344C258.311 69.6661 258.928 69.2077 258.872 68.8723Z" fill="#1F1F1F"/>
<path d="M229.561 67.0495C228.764 66.8147 226.947 68.4135 224.446 69.7215C221.978 71.0967 219.622 71.7563 219.409 72.5389C219.331 72.9078 219.925 73.2432 221.103 73.2544C222.27 73.2656 224.008 72.8743 225.713 71.9464C227.418 71.0184 228.675 69.7886 229.28 68.8159C229.909 67.8545 229.931 67.1837 229.561 67.0495Z" fill="#1F1F1F"/>
<path d="M270.03 41.3364L242.346 43.5054L219.406 51.3873C222.356 57.7934 222.917 63.0592 229.95 63.7412C236.984 64.4343 244.275 61.1586 248.425 55.4456C249.603 60.6331 255.481 63.2716 260.764 64.0095C264.5 64.535 268.437 64.4791 271.903 63.0033C275.381 61.5275 278.308 58.4195 278.791 54.6854C279.273 50.9624 273.754 41.9513 270.03 41.3364Z" fill="#1F1F1F"/>
<path d="M291.96 59.6725C290.457 56.8328 287.855 54.6079 284.848 53.4676C284.613 51.6788 284.377 49.9012 284.153 48.1235L263.637 54.5744C258.779 62.2886 261 73.3792 268.494 78.8015L268.583 82.681C268.673 86.7505 269.795 90.7306 271.859 94.2411L278.365 108.362C283.143 108.473 284.243 103.331 286.127 99.1045C288.023 94.8784 288.045 90.1269 287.877 85.5319C287.799 83.2847 287.675 81.0375 287.529 78.8015C288.976 76.3307 291.063 74.05 292.274 71.4339C293.979 67.7445 293.867 63.2613 291.96 59.6725Z" fill="#1F1F1F"/>
<path d="M271.309 83.8648C271.578 83.7194 282.503 79.4151 283.188 90.8635C283.872 102.301 272.206 100.635 272.172 100.299C272.127 99.9752 271.309 83.8648 271.309 83.8648Z" fill="#FFBE9D"/>
<path d="M275.414 95.7621C275.459 95.7173 275.627 95.885 275.975 96.0192C276.311 96.1534 276.883 96.2204 277.467 95.9633C278.656 95.449 279.564 93.4702 279.486 91.4019C279.452 90.3621 279.172 89.3783 278.757 88.5845C278.353 87.7683 277.781 87.2205 277.164 87.1423C276.547 87.0416 276.143 87.4329 276.02 87.7572C275.885 88.0814 275.975 88.305 275.907 88.3385C275.874 88.3721 275.649 88.1596 275.717 87.6789C275.75 87.4441 275.874 87.1758 276.121 86.9298C276.379 86.6951 276.782 86.5497 277.209 86.5721C278.095 86.5833 278.947 87.3435 279.407 88.2155C279.912 89.0988 280.26 90.1944 280.293 91.3683C280.361 93.6826 279.306 95.9074 277.669 96.4888C276.872 96.7459 276.188 96.5447 275.818 96.2987C275.448 96.0416 275.38 95.7844 275.414 95.7621Z" fill="#EB996E"/>
<path d="M290.76 58.307C290.939 58.3517 291.051 58.8772 290.872 59.8051C290.681 60.7219 290.154 62.0299 289.021 63.338C287.899 64.6237 286.127 65.9206 283.771 66.4125C281.393 66.9156 279.026 66.3901 277.03 66.6137C276.054 66.7143 275.044 67.0386 273.956 67.3628C273.418 67.5305 272.846 67.687 272.262 67.81C271.701 67.9218 271.152 68.0224 270.602 68.0895C268.426 68.3802 266.339 68.2013 264.702 67.6087C263.064 67.0274 261.965 66.0994 261.37 65.3839C260.764 64.6684 260.619 64.1429 260.753 64.0311C261.079 63.6957 262.503 65.138 265.251 65.6299C266.62 65.8647 268.302 65.8311 270.176 65.451C270.647 65.3504 271.129 65.2386 271.612 65.1156C272.072 64.9926 272.565 64.8361 273.081 64.6572C274.113 64.3106 275.313 63.8746 276.704 63.7293C279.441 63.4945 281.595 64.0535 283.289 63.774C285.005 63.5504 286.486 62.7566 287.551 61.8734C289.75 60.0846 290.322 58.1952 290.76 58.307Z" fill="white"/>
<path d="M248.784 100.132C248.852 100.468 246.619 101.138 244.118 102.469C241.605 103.777 239.788 105.23 239.553 104.996C239.328 104.794 240.887 102.849 243.568 101.44C246.249 100.009 248.74 99.8304 248.784 100.132Z" fill="#1F1F1F"/>
<path d="M250.795 101.877C250.649 101.799 250.919 101.005 250.694 100.055C250.492 99.0931 249.898 98.5006 250.01 98.3664C250.077 98.2211 251.008 98.7465 251.266 99.9316C251.524 101.106 250.919 101.978 250.795 101.877Z" fill="#EB996E"/>
<path d="M256.124 83.3948C256.258 83.4619 255.709 84.5352 254.419 85.1389C253.129 85.7538 251.94 85.4967 251.973 85.3402C251.985 85.1725 253.039 85.1501 254.161 84.6135C255.305 84.0992 255.989 83.2942 256.124 83.3948Z" fill="#EB996E"/>
<path d="M257.188 84.2789C257.311 84.3683 256.885 85.1174 255.988 85.6093C255.09 86.1012 254.227 86.0565 254.215 85.9C254.193 85.7323 254.922 85.531 255.707 85.095C256.504 84.6702 257.065 84.1783 257.188 84.2789Z" fill="#EB996E"/>
<path d="M225.768 86.7055C225.768 86.862 225.151 86.9626 224.5 86.6272C223.85 86.2918 223.569 85.7328 223.692 85.6434C223.816 85.5427 224.231 85.8446 224.769 86.1129C225.285 86.3812 225.779 86.5378 225.768 86.7055Z" fill="#EB996E"/>
<path d="M225.666 88.0571C225.644 88.2136 224.937 88.2248 224.174 87.8782C223.411 87.5316 222.951 86.995 223.064 86.8832C223.165 86.7602 223.725 87.0397 224.421 87.3527C225.116 87.6658 225.7 87.9006 225.666 88.0571Z" fill="#EB996E"/>
<path d="M241.967 65.6979C242.079 65.7985 240.251 67.2743 237.469 67.5314C234.687 67.8221 232.601 66.7265 232.69 66.6147C232.746 66.447 234.799 67.2296 237.402 66.9501C240.026 66.7153 241.877 65.5414 241.967 65.6979Z" fill="#EB996E"/>
<path d="M243.054 66.8721C243.189 66.9503 242.336 68.169 240.665 68.6833C238.993 69.2199 237.591 68.728 237.659 68.5826C237.692 68.4149 238.993 68.6162 240.485 68.1242C241.977 67.6659 242.931 66.7491 243.054 66.8721Z" fill="#EB996E"/>
<path d="M222.963 59.8162C222.952 59.8274 222.851 59.7156 222.683 59.492C222.503 59.2796 222.29 58.9218 222.043 58.4411C221.572 57.4908 221.101 55.9703 221.135 54.0473C221.112 50.2126 223.367 44.9803 227.82 41.1679C230.03 39.2673 232.542 37.9257 234.954 37.1767C237.366 36.4164 239.665 36.1928 241.561 36.2264C243.468 36.2599 244.994 36.5618 246.014 36.8301C246.53 36.9642 246.923 37.0872 247.181 37.1878C247.439 37.2885 247.574 37.3444 247.574 37.3667C247.551 37.5009 245.308 36.6288 241.561 36.64C239.699 36.6512 237.456 36.9083 235.122 37.6798C232.778 38.44 230.355 39.7481 228.201 41.6039C223.872 45.3157 221.628 50.3579 221.55 54.0585C221.471 55.9144 221.852 57.3901 222.256 58.3516C222.66 59.3131 223.008 59.7827 222.963 59.8162Z" fill="#1A4367"/>
<path d="M264.345 63.9323C264.333 63.9658 263.986 63.8987 263.369 63.7087C262.752 63.5074 261.888 63.1497 260.879 62.5795C258.893 61.4391 256.223 59.5162 254.26 56.5199C253.307 54.9883 252.881 53.3001 252.645 51.8019C252.409 50.2926 252.376 48.9175 252.409 47.766C252.443 46.6144 252.567 45.6865 252.679 45.0604C252.791 44.4231 252.892 44.0877 252.925 44.0989C253.026 44.1101 252.791 45.5076 252.825 47.7771C252.847 48.9063 252.914 50.2591 253.172 51.7237C253.43 53.1883 253.845 54.787 254.743 56.2181C256.616 59.0801 259.185 61.0255 261.069 62.2329C263.021 63.4292 264.378 63.8428 264.345 63.9323Z" fill="#1A4367"/>
<path d="M231.725 59.661C231.691 59.6722 231.545 59.2808 231.377 58.5653C231.209 57.8386 231.052 56.7653 231.063 55.4237C231.063 52.7853 231.96 48.9505 234.664 45.7977C237.378 42.645 241.035 41.1692 243.649 40.7555C244.972 40.5319 246.061 40.5208 246.801 40.5767C247.541 40.6326 247.945 40.722 247.945 40.7555C247.945 40.8785 246.285 40.6326 243.716 41.1692C241.181 41.6723 237.692 43.1704 235.101 46.189C232.51 49.2188 231.579 52.8859 231.467 55.4573C231.343 58.0399 231.837 59.6386 231.725 59.661Z" fill="#1A4367"/>
<path d="M268.886 38.062C268.863 38.2521 265.599 37.2906 261.662 38.2186C257.713 39.0906 255.189 41.3713 255.088 41.2036C255.044 41.1589 255.593 40.5216 256.704 39.7502C257.803 38.9788 259.508 38.1179 261.527 37.6484C263.558 37.19 265.464 37.2235 266.788 37.4471C268.123 37.6707 268.897 38.0061 268.886 38.062Z" fill="#1A4367"/>
<path d="M309.381 93.4475C308.809 94.0512 305.858 92.0835 301.843 90.9096C297.849 89.6575 294.305 89.6687 294.159 88.8413C294.103 88.4612 294.978 87.9358 296.548 87.6563C298.107 87.3768 300.351 87.4215 302.684 88.1258C305.017 88.8302 306.913 90.0376 308.046 91.1332C309.201 92.2401 309.639 93.168 309.381 93.4475Z" fill="white"/>
<path d="M307.621 96.4314C307.598 96.3867 308.125 96.1854 309 95.6712C309.864 95.1569 311.064 94.3184 312.197 92.9432C313.319 91.5793 314.374 89.6451 314.62 87.3197C314.878 85.0166 314.284 82.3446 312.713 80.1645C311.154 77.9508 308.731 76.6875 306.454 76.1956C304.155 75.6701 301.99 75.849 300.229 76.1844C296.706 76.9334 294.721 78.0738 294.676 77.9508C294.665 77.9173 295.136 77.6266 296.067 77.1906C296.987 76.7657 298.366 76.1955 300.15 75.7819C301.934 75.3794 304.166 75.1558 306.578 75.6701C308.956 76.1508 311.547 77.4701 313.196 79.8291C314.856 82.1433 315.462 84.9607 315.159 87.3867C314.878 89.8464 313.723 91.8364 312.523 93.2227C311.311 94.6202 310.021 95.4252 309.113 95.8836C308.653 96.1072 308.283 96.2637 308.025 96.342C307.767 96.409 307.632 96.4426 307.621 96.4314Z" fill="#1F1F1F"/>
<path d="M214.876 264.152C214.876 264.152 206.85 272.475 202.125 295.575H322.875C318.15 271.425 309.965 264.175 309.965 264.175C309.965 264.175 244.018 274.852 214.876 264.152Z" fill="#1F1F1F"/>
<path d="M217.073 264.488L213.035 278.329L224.679 280.822L227.965 266.892L217.073 264.488Z" fill="#1A4367"/>
<path d="M232.34 267.474L229.984 280.823C229.984 280.823 243.097 282.288 257.422 281.896C271.073 281.527 284.422 280.398 290.39 278.308L288.651 266.412C288.651 266.412 243.535 270.571 232.34 267.474Z" fill="#1A4367"/>
<path d="M294.508 265.774L297.402 277.502C297.402 277.502 306.712 276.496 310.549 274.26L307.34 263.717L294.508 265.774Z" fill="#1A4367"/>
<path d="M260.646 282.45C260.668 282.45 260.679 282.498 260.701 282.59C260.712 282.695 260.723 282.827 260.746 282.989C260.768 283.352 260.79 283.847 260.823 284.452C260.889 285.688 261 287.394 261.255 289.278C261.509 291.161 261.841 292.867 262.118 294.1C262.251 294.705 262.35 295.201 262.428 295.562C262.45 295.723 262.472 295.856 262.494 295.96C262.505 296.05 262.494 296.1 262.472 296.1C262.45 296.1 262.417 296.053 262.372 295.963C262.328 295.858 262.273 295.728 262.195 295.566C262.051 295.222 261.885 294.724 261.697 294.107C261.321 292.874 260.923 291.168 260.668 289.282C260.414 287.396 260.369 285.691 260.414 284.455C260.436 283.838 260.469 283.337 260.513 282.991C260.535 282.83 260.557 282.697 260.58 282.593C260.602 282.498 260.624 282.45 260.646 282.45Z" fill="#1A4367"/>
<path d="M262.501 296.099C262.501 296.104 262.248 296.095 261.785 296.077C261.257 296.057 260.585 296.03 259.748 295.996C257.985 295.918 255.408 295.819 252.313 295.613C251.542 295.557 250.738 295.503 249.956 295.393C249.769 295.361 249.559 295.332 249.438 295.269C249.361 295.225 249.295 295.18 249.24 295.133C249.119 295.041 249.042 294.944 248.986 294.846C248.766 294.453 248.887 294.04 248.865 293.605C248.887 292.733 248.92 291.777 248.942 290.775C249.053 288.772 249.141 286.959 249.218 285.631C249.284 284.983 249.328 284.456 249.361 284.072C249.394 283.897 249.416 283.758 249.427 283.649C249.449 283.552 249.471 283.5 249.493 283.5C249.515 283.5 249.526 283.552 249.548 283.649C249.559 283.758 249.57 283.897 249.581 284.072C249.592 284.454 249.603 284.983 249.614 285.631C249.592 286.959 249.548 288.772 249.504 290.775C249.46 291.777 249.416 292.733 249.372 293.605C249.372 294.04 249.251 294.455 249.438 294.834C249.493 294.929 249.559 295.021 249.669 295.11C249.724 295.155 249.78 295.198 249.846 295.24C249.879 295.267 250.044 295.296 250.198 295.321C250.87 295.418 251.685 295.478 252.423 295.534C255.463 295.747 258.029 295.859 259.77 295.951C260.596 295.994 261.268 296.028 261.785 296.055C262.27 296.077 262.512 296.095 262.501 296.099Z" fill="#1A4367"/>
<path d="M289.802 296.1C289.802 296.1 289.798 296.087 289.805 296.062C289.813 296.036 289.823 295.998 289.834 295.951C289.867 295.852 289.91 295.707 289.968 295.523C290.098 295.149 290.289 294.612 290.52 293.948C290.996 292.618 291.66 290.782 292.19 288.752C292.692 286.721 292.926 284.879 292.702 283.548C292.666 283.381 292.634 283.223 292.601 283.073C292.569 282.923 292.547 282.781 292.482 282.65C292.367 282.386 292.306 282.159 292.19 281.974C292.067 281.791 291.97 281.648 291.901 281.549C291.873 281.502 291.847 281.465 291.833 281.439C291.819 281.414 291.815 281.4 291.815 281.4C291.815 281.4 291.829 281.413 291.851 281.438C291.873 281.464 291.901 281.501 291.941 281.548C292.017 281.647 292.125 281.79 292.266 281.972C292.392 282.157 292.464 282.385 292.591 282.648C292.659 282.78 292.688 282.921 292.724 283.071C292.76 283.222 292.8 283.38 292.84 283.546C293.099 284.879 292.886 286.722 292.385 288.754C291.855 290.785 291.169 292.621 290.66 293.949C290.404 294.613 290.195 295.15 290.047 295.523C289.975 295.707 289.917 295.851 289.881 295.95C289.859 295.998 289.845 296.035 289.834 296.061C289.813 296.088 289.802 296.1 289.802 296.1Z" fill="#1A4367"/>
<path d="M258.298 282.41V285.004L273.363 284.422C274.35 284.389 275.135 283.572 275.135 282.577V268.692C275.135 267.674 274.305 266.847 273.284 266.847H257.277V268.927L272.454 269.72V274.763L271.422 274.74C270.974 274.729 270.603 275.087 270.603 275.534C270.603 275.959 270.951 276.317 271.377 276.328L272.544 276.361V281.404L258.298 282.41Z" fill="#D7E1EA"/>
<path d="M249.571 267.797H245.309V282.331H249.571V267.797Z" fill="#1F1F1F"/>
<path d="M271.131 277.213C271.075 277.269 270.839 277.146 270.604 276.822C270.357 276.497 270.133 275.938 270.178 275.301C270.223 274.664 270.514 274.138 270.795 273.848C271.075 273.557 271.322 273.468 271.367 273.524C271.479 273.647 270.817 274.306 270.75 275.335C270.682 276.363 271.255 277.112 271.131 277.213Z" fill="#1F1F1F"/>
<path d="M259.018 274.26C259.018 274.227 259.096 274.171 259.253 274.182C259.421 274.193 259.646 274.316 259.803 274.573C259.949 274.831 260.05 275.177 259.87 275.602C259.668 275.982 259.276 276.262 258.76 276.239C258.21 276.194 257.885 275.747 257.806 275.356C257.716 274.942 257.93 274.551 258.154 274.383C258.659 274.026 259.051 274.204 259.018 274.26C259.018 274.35 258.704 274.372 258.457 274.674C258.345 274.831 258.277 275.021 258.345 275.233C258.401 275.445 258.603 275.647 258.805 275.658C259.029 275.68 259.298 275.512 259.399 275.345C259.5 275.188 259.5 274.92 259.433 274.752C259.32 274.383 259.029 274.339 259.018 274.26Z" fill="#1F1F1F"/>
<path d="M301.068 277.211C301.001 277.166 301.427 276.35 302.168 275.075C302.583 274.371 303.02 273.622 303.491 272.839C303.749 272.415 304.018 271.979 304.288 271.531C304.534 271.084 304.927 270.592 305.073 270.179C305.207 269.731 305.118 269.228 304.86 268.871C304.624 268.524 304.119 268.278 303.738 267.976C302.986 267.44 302.291 266.936 301.618 266.456C300.429 265.584 299.711 265.002 299.756 264.935C299.801 264.868 300.597 265.326 301.854 266.12C302.538 266.567 303.267 267.037 304.041 267.529C304.243 267.663 304.456 267.808 304.669 267.943C304.871 268.066 305.151 268.278 305.32 268.524C305.69 269.016 305.824 269.709 305.634 270.346C305.544 270.671 305.342 270.939 305.207 271.151C305.062 271.386 304.916 271.61 304.77 271.833C304.49 272.28 304.209 272.705 303.94 273.119C303.435 273.879 302.964 274.606 302.515 275.288C301.685 276.518 301.136 277.256 301.068 277.211Z" fill="#1F1F1F"/>
<path d="M310.801 294.772C310.807 294.781 310.742 294.809 310.612 294.859C310.482 294.91 310.282 294.965 310.012 295.011C309.476 295.094 308.66 295.057 307.746 294.772C306.827 294.496 305.832 293.994 304.772 293.396C303.717 292.788 302.62 292.038 301.576 291.154C299.472 289.391 298.045 287.44 297.207 285.972C296.796 285.231 296.509 284.614 296.336 284.181C296.168 283.749 296.087 283.505 296.104 283.5C296.12 283.495 296.239 283.726 296.439 284.149C296.644 284.568 296.958 285.171 297.385 285.898C298.267 287.334 299.7 289.249 301.776 290.989C302.809 291.858 303.885 292.604 304.923 293.216C305.962 293.824 306.935 294.33 307.822 294.615C308.703 294.915 309.482 294.974 310.001 294.919C310.52 294.859 310.79 294.749 310.801 294.772Z" fill="#1A4367"/>
<path d="M217.348 288.751C217.376 288.771 217.045 289.276 216.411 290.051C215.777 290.82 214.828 291.84 213.657 292.87C212.486 293.894 211.315 294.724 210.435 295.279C209.555 295.833 208.973 296.128 208.95 296.098C208.927 296.063 209.464 295.719 210.304 295.129C211.144 294.539 212.28 293.694 213.44 292.68C214.6 291.665 215.565 290.67 216.239 289.936C216.913 289.201 217.308 288.731 217.348 288.751Z" fill="#1A4367"/>
<path d="M256.277 176.131L255.492 138.801C255.099 134.005 250.938 134.899 250.938 134.899C250.938 134.899 250.68 148.137 249.558 155.571C248.436 163.006 244.432 171.201 244.308 172.889C244.174 174.577 243.658 188.698 243.142 193.237C242.626 197.776 240.281 204.518 240.281 204.518L250.949 212.679L254.202 208.14C254.202 208.14 257.848 205.546 258.711 202.304C259.564 199.073 256.277 176.131 256.277 176.131Z" fill="#FFBE9D"/>
<path d="M256.279 176.133C256.279 176.133 256.335 176.334 256.402 176.726C256.469 177.15 256.559 177.732 256.683 178.481C256.918 180.024 257.243 182.293 257.625 185.211C257.995 188.129 258.455 191.685 258.803 195.81C258.892 196.839 258.971 197.912 259.016 199.019C259.027 199.578 259.072 200.125 259.049 200.707C259.049 201.277 259.016 201.881 258.881 202.473C258.545 203.636 257.894 204.709 257.109 205.671C256.312 206.632 255.393 207.527 254.338 208.32L254.394 208.264C253.385 209.684 252.285 211.227 251.152 212.804L251.007 213.016L250.805 212.859C247.484 210.333 243.895 207.582 240.126 204.709L239.969 204.597L240.025 204.407C241.506 199.868 242.975 195.027 243.143 189.829C243.491 184.63 243.704 179.252 243.973 173.741C244.007 173.293 243.996 172.835 244.119 172.343C244.243 171.885 244.388 171.46 244.534 171.035C244.848 170.196 245.162 169.347 245.465 168.519C246.093 166.854 246.699 165.199 247.249 163.556C248.359 160.257 249.178 156.948 249.537 153.65C250.289 147.043 250.524 140.715 250.692 134.901L250.704 134.689L250.906 134.655C251.792 134.51 252.667 134.599 253.474 134.946C254.282 135.281 254.899 135.986 255.247 136.735C255.606 137.484 255.729 138.322 255.763 139.105C255.774 139.876 255.796 140.637 255.808 141.397C255.864 144.415 255.909 147.277 255.965 149.961C256.054 155.338 256.133 160.034 256.2 163.925C256.245 167.782 256.29 170.823 256.312 172.936C256.312 173.953 256.324 174.747 256.324 175.317C256.324 175.563 256.324 175.764 256.312 175.932C256.29 176.066 256.29 176.133 256.279 176.133C256.267 176.133 256.267 176.066 256.256 175.932C256.245 175.775 256.234 175.574 256.223 175.328C256.2 174.758 256.167 173.964 256.133 172.958C256.077 170.845 255.987 167.804 255.875 163.958C255.774 160.067 255.662 155.372 255.527 149.994C255.46 147.3 255.393 144.438 255.325 141.419C255.235 139.921 255.46 138.3 254.798 136.947C254.484 136.276 253.968 135.695 253.261 135.404C252.577 135.102 251.758 135.024 251.007 135.158L251.208 134.912C251.063 140.748 250.838 147.076 250.098 153.717C249.739 157.049 248.909 160.425 247.798 163.746C247.249 165.411 246.643 167.066 246.015 168.743C245.712 169.57 245.398 170.409 245.084 171.247C244.938 171.672 244.792 172.086 244.68 172.511C244.579 172.891 244.579 173.349 244.545 173.796C244.276 179.297 244.063 184.697 243.704 189.896C243.525 195.15 242.022 200.07 240.53 204.62L240.44 204.318C244.198 207.202 247.776 209.964 251.085 212.502L250.737 212.558C251.87 210.981 252.981 209.438 254.002 208.03L254.024 208.007L254.058 207.985C256.043 206.453 257.804 204.564 258.466 202.395C258.589 201.858 258.634 201.299 258.634 200.74C258.668 200.181 258.623 199.622 258.612 199.075C258.567 197.979 258.5 196.917 258.421 195.888C258.096 191.774 257.681 188.208 257.356 185.29C257.008 182.394 256.739 180.124 256.548 178.548C256.458 177.799 256.391 177.206 256.335 176.782C256.279 176.346 256.279 176.133 256.279 176.133Z" fill="#EB996E"/>
<path d="M255.539 142.124C255.483 142.158 255.281 141.599 254.597 140.894C254.249 140.548 253.778 140.167 253.161 139.888C252.578 139.62 251.703 139.541 251.209 140.145L251.266 139.966C251.411 141.129 251.636 142.426 251.748 143.857C251.86 145.288 251.905 146.82 251.849 148.418C251.725 152.376 251.097 155.909 250.604 158.436C250.357 159.699 250.121 160.716 249.953 161.421C249.785 162.125 249.673 162.505 249.628 162.494C249.549 162.483 249.796 160.906 250.189 158.357C250.581 155.819 251.131 152.298 251.254 148.396C251.299 146.82 251.277 145.299 251.187 143.89C251.109 142.482 250.907 141.174 250.794 140.022L250.783 139.921L250.851 139.843C251.187 139.452 251.692 139.262 252.129 139.262C252.578 139.251 252.971 139.385 253.318 139.553C253.98 139.899 254.451 140.335 254.788 140.726C255.124 141.129 255.315 141.487 255.427 141.733C255.528 141.979 255.562 142.124 255.539 142.124Z" fill="#EB996E"/>
<path d="M255.841 156.612C255.774 156.612 255.752 155.964 255.572 154.857C255.471 154.309 255.325 153.627 254.91 153.024C254.495 152.409 253.688 152.085 252.745 151.895L253.048 151.66C252.981 153.784 252.846 156.333 252.577 159.05C252.207 162.873 251.657 166.306 251.175 168.776C250.928 170.006 250.715 171.001 250.547 171.683C250.379 172.365 250.266 172.734 250.222 172.734C250.143 172.712 250.39 171.18 250.771 168.709C251.141 166.227 251.624 162.806 251.994 158.994C252.263 156.288 252.431 153.762 252.544 151.637L252.555 151.347L252.835 151.414C253.789 151.626 254.765 152.04 255.224 152.789C255.684 153.516 255.774 154.242 255.841 154.801C255.954 155.975 255.886 156.612 255.841 156.612Z" fill="#EB996E"/>
<path d="M250.291 176.793C250.19 176.916 249.573 176.446 249.483 175.563C249.393 174.68 249.92 174.099 250.044 174.199C250.19 174.289 249.988 174.837 250.066 175.507C250.122 176.178 250.414 176.681 250.291 176.793Z" fill="#EB996E"/>
<path d="M248.605 167.581C248.459 167.637 248.033 166.799 248.111 165.658C248.178 164.529 248.728 163.746 248.863 163.825C249.02 163.892 248.762 164.697 248.694 165.703C248.616 166.698 248.762 167.525 248.605 167.581Z" fill="#EB996E"/>
<path d="M271.441 197.318C270.6 192.824 269.086 178.771 268.839 177.105C268.592 175.428 264.016 167.535 262.378 160.201C260.74 152.866 259.54 139.674 259.54 139.674C259.54 139.674 255.322 139.082 255.277 143.889L257.128 181.186C257.128 181.186 255.468 204.306 256.556 207.47C257.644 210.645 261.458 212.97 261.458 212.97L265.025 217.264L275.087 208.375C275.087 208.364 272.283 201.802 271.441 197.318Z" fill="#FFBE9D"/>
<path d="M271.444 197.318C271.455 197.318 271.466 197.386 271.5 197.509C271.534 197.654 271.579 197.844 271.635 198.068C271.758 198.559 271.949 199.297 272.24 200.236C272.812 202.126 273.777 204.887 275.224 208.308L275.269 208.409L275.191 208.476C272.453 210.925 269.066 213.943 265.173 217.409L265.016 217.554L264.882 217.387C263.76 216.045 262.56 214.603 261.303 213.105L261.36 213.149C260.328 212.49 259.363 211.696 258.466 210.779C257.591 209.851 256.772 208.778 256.334 207.47C255.998 206.106 256.02 204.776 255.964 203.4C255.942 202.025 255.953 200.628 255.975 199.208C256.099 193.528 256.435 187.469 256.861 181.141V181.175C256.547 174.981 256.222 168.429 255.886 161.688C255.672 157.361 255.459 153.113 255.257 148.976C255.201 147.947 255.156 146.919 255.112 145.902C255.089 144.884 254.932 143.9 255.1 142.827C255.257 141.798 255.728 140.736 256.615 140.11C257.49 139.473 258.566 139.283 259.598 139.372L259.812 139.395L259.834 139.63C260.238 143.9 260.698 148.026 261.236 151.95C261.808 155.874 262.347 159.631 263.401 163.029C264.456 166.439 265.813 169.525 267.103 172.387C267.742 173.818 268.404 175.171 268.898 176.557C269.122 177.306 269.122 177.988 269.223 178.681C269.301 179.363 269.38 180.034 269.447 180.694C270.031 185.915 270.502 190.074 270.861 192.914C271.04 194.311 271.186 195.396 271.287 196.167C271.332 196.514 271.377 196.793 271.41 197.005C271.444 197.218 271.455 197.307 271.444 197.318C271.433 197.318 271.41 197.229 271.365 197.039C271.321 196.827 271.264 196.547 271.197 196.212C271.063 195.474 270.883 194.389 270.681 192.969C270.266 190.13 269.739 185.982 269.1 180.761C269.021 180.112 268.942 179.442 268.853 178.76C268.752 178.089 268.729 177.34 268.527 176.703C268.045 175.372 267.361 174.008 266.71 172.588C265.398 169.737 264.018 166.64 262.93 163.197C261.842 159.742 261.281 155.975 260.698 152.039C260.148 148.104 259.666 143.979 259.251 139.697L259.486 139.943C258.611 139.864 257.635 140.043 256.918 140.58C256.177 141.105 255.773 142 255.628 142.928C255.482 143.844 255.616 144.884 255.65 145.902C255.706 146.919 255.751 147.947 255.807 148.976C256.009 153.101 256.222 157.35 256.446 161.677C256.783 168.418 257.097 174.97 257.411 181.152V181.175V181.197C256.974 187.514 256.626 193.573 256.48 199.23C256.446 200.65 256.435 202.036 256.446 203.4C256.48 204.753 256.48 206.128 256.772 207.325C257.176 208.521 257.938 209.561 258.78 210.455C259.632 211.349 260.586 212.132 261.573 212.758L261.606 212.78L261.629 212.803C262.874 214.312 264.063 215.754 265.173 217.107L264.871 217.085C268.797 213.652 272.207 210.656 274.977 208.241L274.944 208.409C273.519 204.954 272.611 202.182 272.083 200.27C271.814 199.309 271.646 198.571 271.556 198.068C271.511 197.833 271.489 197.643 271.455 197.497C271.444 197.386 271.433 197.318 271.444 197.318Z" fill="#EB996E"/>
<path d="M255.446 147.275C255.412 147.253 255.558 146.884 255.895 146.258C256.074 145.945 256.299 145.565 256.624 145.151C256.949 144.76 257.398 144.279 258.116 144.111C258.867 143.932 259.686 144.458 260.023 145.229C260.337 146.045 260.191 146.873 260.225 147.689C260.225 149.366 260.314 151.199 260.494 153.134C260.864 156.991 261.526 160.434 262.042 162.927C262.558 165.42 262.928 166.952 262.838 166.974C262.805 166.986 262.659 166.617 262.446 165.935C262.233 165.253 261.952 164.258 261.638 163.028C261.01 160.557 260.281 157.091 259.911 153.201C259.731 151.255 259.664 149.399 259.686 147.7C259.675 146.862 259.81 146.023 259.574 145.419C259.316 144.827 258.733 144.402 258.183 144.525C257.622 144.614 257.196 145.006 256.871 145.363C256.545 145.732 256.287 146.079 256.086 146.37C255.693 146.962 255.491 147.298 255.446 147.275Z" fill="#EB996E"/>
<path d="M256.189 162.213C256.167 162.213 256.133 162.045 256.1 161.709C256.077 161.385 256.044 160.904 256.089 160.278C256.145 159.664 256.223 158.903 256.616 158.087C256.975 157.282 257.76 156.466 258.848 156.153L259.128 156.075L259.162 156.365C259.42 158.423 259.757 160.849 260.194 163.431C260.833 167.266 261.563 170.709 262.123 173.203C262.684 175.696 263.054 177.227 262.976 177.25C262.942 177.261 262.796 176.892 262.572 176.21C262.348 175.528 262.056 174.533 261.72 173.303C261.058 170.832 260.261 167.389 259.622 163.532C259.185 160.938 258.882 158.501 258.669 156.432L258.994 156.645C258.029 156.902 257.345 157.562 256.986 158.288C256.605 159.004 256.47 159.731 256.38 160.323C256.223 161.508 256.268 162.213 256.189 162.213Z" fill="#EB996E"/>
<path d="M263.199 181.288C263.064 181.187 263.322 180.662 263.334 179.991C263.356 179.32 263.132 178.783 263.266 178.683C263.378 178.571 263.939 179.119 263.917 180.002C263.894 180.885 263.3 181.411 263.199 181.288Z" fill="#EB996E"/>
<path d="M264.221 171.984C264.053 171.939 264.143 171.112 263.997 170.117C263.862 169.122 263.548 168.339 263.694 168.261C263.817 168.172 264.423 168.921 264.569 170.039C264.737 171.157 264.367 172.029 264.221 171.984Z" fill="#EB996E"/>
<g opacity="0.3">
<g opacity="0.3">
<g opacity="0.3">
<path opacity="0.3" d="M268.822 216.907C266.735 214.515 264.122 212.111 260.947 212.133C258.131 212.156 255.731 214.09 253.734 216.058C247.206 222.486 242.192 230.323 238.176 238.552C234.16 246.78 229.269 256.652 226.207 265.283C232.96 263.875 238.905 259.693 243.448 254.517C247.991 249.341 251.266 243.192 254.183 236.953C255.193 234.807 256.628 232.313 259.006 232.258C260.768 232.224 262.203 233.599 263.291 234.974C266.443 238.943 268.564 243.605 270.785 248.156C273.006 252.706 275.429 257.267 279.041 260.834C282.652 264.4 287.667 266.871 292.714 266.312C286.982 248.815 280.936 230.815 268.822 216.907Z" fill="#1F1F1F"/>
</g>
</g>
</g>
<path d="M200.036 152.767C200.036 152.767 185.331 162.012 184.893 180.191C184.456 198.381 185.544 246.869 188.808 253.365C192.061 259.86 194.45 283.238 215.527 273.5C227.362 268.022 240.194 250.279 248.618 235.398C255.192 223.793 258.849 213.754 258.849 213.754L238.983 200.986L214.002 230.423L213.228 202.115L200.036 152.767Z" fill="#4CBDE2"/>
<path d="M214.001 230.412C214.012 230.512 213.103 230.568 211.735 230.948C210.355 231.317 208.538 232.122 206.822 233.464C205.094 234.794 203.782 236.292 202.862 237.388C201.942 238.495 201.404 239.21 201.325 239.166C201.269 239.121 201.684 238.327 202.526 237.142C203.378 235.968 204.679 234.381 206.463 233.005C208.246 231.619 210.187 230.837 211.634 230.557C213.081 230.266 214.001 230.356 214.001 230.412Z" fill="#1F1F1F"/>
<path d="M213.879 230.19C213.857 230.369 211.221 229.899 208.024 230.424C204.827 230.916 202.46 232.168 202.381 232.001C202.292 231.889 204.602 230.357 207.934 229.843C211.254 229.306 213.935 230.056 213.879 230.19Z" fill="#1F1F1F"/>
<path d="M258.847 213.743C258.87 213.754 258.802 213.955 258.679 214.346C258.522 214.794 258.32 215.353 258.073 216.035C257.546 217.499 256.705 219.59 255.606 222.139C253.396 227.237 249.941 234.135 245.375 241.301C240.81 248.468 236.065 254.55 232.464 258.787C230.67 260.911 229.166 262.599 228.101 263.729C227.607 264.254 227.192 264.69 226.867 265.025C226.575 265.316 226.418 265.461 226.407 265.45C226.396 265.439 226.519 265.26 226.777 264.947C227.08 264.578 227.461 264.131 227.921 263.572C228.931 262.398 230.378 260.665 232.128 258.519C235.639 254.214 240.316 248.121 244.859 240.977C249.402 233.833 252.902 227.002 255.202 221.949C256.357 219.422 257.254 217.365 257.838 215.934C258.118 215.274 258.354 214.726 258.544 214.29C258.735 213.933 258.825 213.731 258.847 213.743Z" fill="#1F1F1F"/>
<path d="M213.229 202.105C213.241 202.105 213.263 202.284 213.286 202.641C213.308 203.044 213.33 203.558 213.375 204.195C213.431 205.604 213.51 207.572 213.611 210.031C213.779 215.085 214.003 222.139 214.273 230.413L213.79 230.245C217.156 226.265 220.857 221.905 224.727 217.321C229.842 211.306 234.654 205.66 238.782 200.808L238.928 200.64L239.119 200.763C245.008 204.598 249.932 207.807 253.455 210.098C255.137 211.216 256.483 212.111 257.459 212.759C257.885 213.05 258.233 213.285 258.502 213.475C258.738 213.643 258.85 213.732 258.85 213.743C258.839 213.754 258.716 213.687 258.458 213.542C258.177 213.374 257.818 213.151 257.369 212.893C256.382 212.279 255.003 211.418 253.286 210.356C249.742 208.108 244.772 204.956 238.839 201.188L239.175 201.143C235.07 206.007 230.269 211.675 225.176 217.701C221.295 222.262 217.593 226.623 214.205 230.591L213.745 231.139L213.734 230.424C213.555 222.162 213.398 215.096 213.286 210.043C213.252 207.583 213.218 205.615 213.207 204.207C213.207 203.569 213.207 203.055 213.207 202.653C213.207 202.295 213.218 202.105 213.229 202.105Z" fill="#1F1F1F"/>
<path d="M319.581 147.099C319.581 147.099 332.01 153.371 332.559 182.484C333.109 211.597 335.285 246.165 332.559 252.147C330.495 256.663 325.649 270.314 316.844 274.987C314.197 276.385 312.189 276.463 308.577 275.938C296.574 274.194 280.814 260.207 268.845 237.244C259.737 219.769 259.176 211.675 259.176 211.675L275.89 194.894L308.521 235.231L309.126 196.56L319.581 147.099Z" fill="#4CBDE2"/>
<path d="M308.889 197.733C308.889 197.733 308.912 197.957 308.912 198.404C308.912 198.874 308.923 199.522 308.923 200.361C308.923 202.105 308.912 204.631 308.912 207.862C308.878 214.38 308.822 223.749 308.754 235.231V235.846L308.362 235.365C299.298 224.185 288.07 210.333 275.686 195.072L276.112 195.095C271.95 199.276 267.609 203.636 263.19 208.075C261.889 209.372 260.599 210.669 259.398 211.876L259.477 211.608C262.64 225.482 268.754 237.791 275.675 247.853C282.618 257.949 290.538 265.797 298.042 271.141C299.904 272.494 301.744 273.69 303.628 274.529C304.57 274.943 305.513 275.278 306.455 275.502C307.397 275.725 308.339 275.815 309.237 275.926C312.871 276.262 316.046 275.513 318.222 274.182C320.409 272.852 321.677 271.253 322.473 270.18C322.866 269.632 323.157 269.207 323.337 268.916C323.528 268.626 323.629 268.48 323.629 268.48C323.629 268.48 323.314 269.118 322.563 270.236C321.8 271.331 320.544 272.975 318.334 274.361C316.135 275.748 312.894 276.541 309.214 276.239C308.295 276.128 307.352 276.049 306.376 275.837C305.412 275.613 304.436 275.278 303.482 274.864C301.553 274.026 299.68 272.83 297.806 271.466C290.235 266.133 282.237 258.273 275.237 248.155C268.26 238.06 262.102 225.706 258.905 211.731L258.871 211.574L258.983 211.462C260.184 210.255 261.474 208.958 262.775 207.661C267.206 203.211 271.547 198.862 275.708 194.681L275.933 194.458L276.135 194.715C288.474 210.009 299.668 223.883 308.71 235.086L308.317 235.22C308.463 223.738 308.586 214.369 308.676 207.851C308.732 204.62 308.777 202.093 308.811 200.349C308.833 199.511 308.844 198.862 308.855 198.393C308.855 197.957 308.889 197.733 308.889 197.733Z" fill="#1F1F1F"/>
<path d="M321.869 250.245C321.791 250.289 321.208 249.328 320.187 247.841C319.166 246.354 317.663 244.353 315.812 242.318C313.961 240.283 312.122 238.584 310.764 237.388C309.407 236.191 308.554 235.465 308.599 235.398C308.644 235.342 309.598 235.945 311.022 237.075C312.458 238.204 314.354 239.87 316.238 241.927C318.112 243.995 319.581 246.052 320.523 247.617C321.477 249.171 321.937 250.211 321.869 250.245Z" fill="#1F1F1F"/>
<path d="M318.246 152.935C318.324 153.002 317.349 154.198 315.991 156.289C314.634 158.368 312.951 161.376 311.605 164.92C310.27 168.464 309.541 171.829 309.182 174.289C308.823 176.748 308.756 178.291 308.655 178.291C308.61 178.291 308.599 177.9 308.599 177.207C308.588 176.502 308.644 175.496 308.778 174.244C309.036 171.751 309.71 168.319 311.067 164.719C312.435 161.13 314.196 158.111 315.655 156.065C316.384 155.048 317.012 154.243 317.483 153.729C317.943 153.192 318.212 152.912 318.246 152.935Z" fill="#1F1F1F"/>
<path d="M210.492 182.763C210.402 182.775 210.189 181.276 209.751 178.873C209.314 176.469 208.585 173.171 207.508 169.604C206.42 166.038 205.175 162.896 204.21 160.66C203.234 158.413 202.572 157.049 202.651 157.016C202.684 156.993 202.898 157.318 203.234 157.91C203.582 158.503 204.042 159.386 204.58 160.493C205.657 162.706 206.97 165.848 208.069 169.448C209.157 173.037 209.819 176.38 210.166 178.817C210.335 180.035 210.447 181.019 210.481 181.712C210.525 182.383 210.537 182.763 210.492 182.763Z" fill="#1F1F1F"/>
<g opacity="0.3">
<g opacity="0.3">
<g opacity="0.3">
<path opacity="0.3" d="M323.495 250.167C323.147 247.797 321.599 245.773 319.962 244.018C316.686 240.519 312.805 237.578 308.531 235.376C313.646 239.267 318.582 244.991 322.037 250.402C322.317 250.849 322.867 251.352 323.282 251.028C323.54 250.838 323.54 250.48 323.495 250.167Z" fill="#1F1F1F"/>
</g>
</g>
</g>
<g opacity="0.3">
<g opacity="0.3">
<g opacity="0.3">
<path opacity="0.3" d="M213.79 230.38C210.392 229.865 206.825 230.525 203.829 232.213C200.834 233.901 198.445 236.618 197.133 239.793C196.886 240.386 196.684 241.012 196.729 241.638C196.774 242.275 197.122 242.924 197.727 243.158C198.412 243.427 199.208 243.058 199.69 242.51C200.173 241.962 200.419 241.247 200.7 240.565C202.999 235.019 208.53 230.961 214.52 230.402L213.79 230.38Z" fill="#1F1F1F"/>
</g>
</g>
</g>
<path d="M332.79 295.533C332.79 295.621 273.341 295.697 200.03 295.697C126.688 295.697 67.2578 295.621 67.2578 295.533C67.2578 295.445 126.694 295.369 200.03 295.369C273.348 295.369 332.79 295.445 332.79 295.533Z" fill="#1F1F1F"/>
<path d="M64.053 175.35H105.91V186.425H64.053V175.35Z" fill="#D7E1EA"/>
<path d="M81.7543 198.087C81.7606 198.08 81.7607 198.017 81.7669 197.885C81.7733 197.734 81.7732 197.551 81.7795 197.318C81.7858 196.795 81.7984 196.071 81.811 195.138C81.8299 193.229 81.8551 190.476 81.8803 187.011L81.748 187.144C91.3051 187.163 106.507 187.194 123.599 187.226C123.504 187.131 123.813 187.44 123.391 187.011V187.018V187.03V187.055V187.1V187.188V187.364V187.717V188.429C123.391 188.901 123.391 189.374 123.391 189.84C123.391 190.779 123.391 191.711 123.391 192.637C123.391 194.483 123.391 196.304 123.397 198.087L123.605 197.879C111.686 197.917 101.259 197.948 93.7747 197.973C90.0514 197.999 87.0589 198.017 84.9673 198.03C83.953 198.043 83.1529 198.049 82.5859 198.055C82.3276 198.062 82.126 198.068 81.9622 198.068C81.8299 198.08 81.7543 198.08 81.7543 198.087C81.748 198.093 81.8173 198.093 81.9496 198.099C82.1071 198.106 82.3024 198.106 82.5481 198.112C83.1088 198.118 83.89 198.125 84.8854 198.137C86.9644 198.15 89.938 198.169 93.6424 198.194C101.158 198.219 111.642 198.251 123.618 198.288H123.826V198.08C123.826 196.298 123.826 194.483 123.832 192.631C123.832 191.705 123.832 190.772 123.832 189.834C123.832 189.368 123.832 188.895 123.832 188.423V187.711V187.358V187.181V187.1V187.055V187.03V187.018V187.011C123.404 186.583 123.712 186.892 123.618 186.797C106.52 186.829 91.324 186.86 81.7669 186.879H81.6346V187.011C81.6661 190.508 81.6913 193.286 81.7039 195.214C81.7165 196.134 81.7291 196.852 81.7354 197.362C81.7417 197.589 81.748 197.765 81.748 197.91C81.7417 198.03 81.748 198.093 81.7543 198.087Z" fill="#F2F7FC"/>
</g>
<defs>
<clipPath id="clip0_4312:22210">
<rect width="400" height="315" fill="white"/>
</clipPath>
</defs>
</svg>
