<svg width="21" height="22" viewBox="0 0 21 22" fill="none" xmlns="http://www.w3.org/2000/svg">
<path d="M6.44891 2.21226H6.23462C6.35248 2.21226 6.44891 2.11583 6.44891 1.99798V2.21226H14.5918V1.99798C14.5918 2.11583 14.6882 2.21226 14.806 2.21226H14.5918V4.14084H16.5203V1.99798C16.5203 1.05244 15.7516 0.283691 14.806 0.283691H6.23462C5.28908 0.283691 4.52033 1.05244 4.52033 1.99798V4.14084H6.44891V2.21226ZM19.9489 4.14084H1.09176C0.617655 4.14084 0.234619 4.52387 0.234619 4.99798V5.85512C0.234619 5.97298 0.331048 6.06941 0.448905 6.06941H2.06676L2.72837 20.0783C2.77123 20.9917 3.52658 21.7123 4.43998 21.7123H16.6007C17.5168 21.7123 18.2694 20.9944 18.3123 20.0783L18.9739 6.06941H20.5918C20.7096 6.06941 20.806 5.97298 20.806 5.85512V4.99798C20.806 4.52387 20.423 4.14084 19.9489 4.14084ZM16.3944 19.7837H4.64623L3.99801 6.06941H17.0427L16.3944 19.7837Z" fill="#FF4D4F"/>
</svg>
