<svg width="16" height="16" viewBox="0 0 16 16" fill="none" xmlns="http://www.w3.org/2000/svg">
<path d="M3.90472 1.33325H9.15757C9.39402 1.33325 9.62283 1.41704 9.80337 1.56975L12.9791 4.25588C13.2037 4.44588 13.3333 4.72517 13.3333 5.01939V13.3888C13.3333 14.5825 13.3197 14.6666 12.0952 14.6666H3.90472C2.68026 14.6666 2.66663 14.5825 2.66663 13.3888V2.61103C2.66663 1.41734 2.68026 1.33325 3.90472 1.33325Z" fill="white"/>
<path d="M9.33333 7.33325H4.66667C4.29848 7.33325 4 7.63173 4 7.99992C4 8.36811 4.29848 8.66659 4.66667 8.66659H9.33333C9.70152 8.66659 10 8.36811 10 7.99992C10 7.63173 9.70152 7.33325 9.33333 7.33325Z" fill="#4299E1"/>
<path d="M6.66667 10H4.66667C4.29848 10 4 10.2985 4 10.6667C4 11.0349 4.29848 11.3333 4.66667 11.3333H6.66667C7.03486 11.3333 7.33333 11.0349 7.33333 10.6667C7.33333 10.2985 7.03486 10 6.66667 10Z" fill="#4299E1"/>
</svg>
