<svg width="32" height="32" viewBox="0 0 32 32" fill="none" xmlns="http://www.w3.org/2000/svg">
<path opacity="0.3" d="M16 14.6667C13.0544 14.6667 10.6666 12.2789 10.6666 9.33333C10.6666 6.38781 13.0544 4 16 4C18.9455 4 21.3333 6.38781 21.3333 9.33333C21.3333 12.2789 18.9455 14.6667 16 14.6667Z" fill="white"/>
<path d="M4.00087 26.9323C4.51768 20.5687 9.68255 17.3334 15.9778 17.3334C22.3616 17.3334 27.6065 20.391 27.9972 26.9334C28.0128 27.194 27.9972 28 26.9956 28C22.0548 28 14.713 28 4.97 28C4.63562 28 3.97272 27.2789 4.00087 26.9323Z" fill="white"/>
</svg>
