<svg width="70" height="70" viewBox="0 0 70 70" fill="none" xmlns="http://www.w3.org/2000/svg">
<path d="M40.8333 41.5684V64.1667H11.6667C11.6658 60.6052 12.4802 57.0906 14.0475 53.8925C15.6149 50.6943 17.8936 47.8974 20.709 45.716C23.5244 43.5346 26.8018 42.0267 30.29 41.3078C33.7783 40.5889 37.3848 40.678 40.8333 41.5684ZM35 37.9167C25.3312 37.9167 17.5 30.0855 17.5 20.4167C17.5 10.748 25.3312 2.91675 35 2.91675C44.6687 2.91675 52.5 10.748 52.5 20.4167C52.5 30.0855 44.6687 37.9167 35 37.9167ZM52.5 49.5834V40.8334H58.3333V49.5834H67.0833V55.4167H58.3333V64.1667H52.5V55.4167H43.75V49.5834H52.5Z" fill="#ADB5BD"/>
</svg>
