<svg width="35" height="35" viewBox="0 0 35 35" fill="none" xmlns="http://www.w3.org/2000/svg">
<path opacity="0.3" d="M13.1248 16.0417C9.90318 16.0417 7.2915 13.43 7.2915 10.2083C7.2915 6.98667 9.90318 4.375 13.1248 4.375C16.3465 4.375 18.9582 6.98667 18.9582 10.2083C18.9582 13.43 16.3465 16.0417 13.1248 16.0417Z" fill="#59C6C0"/>
<path d="M0.000950373 29.4559C0.56621 22.4957 6.21529 18.957 13.1007 18.957C20.083 18.957 25.8196 22.3013 26.247 29.457C26.264 29.7421 26.247 30.6237 25.1514 30.6237C19.7475 30.6237 11.7173 30.6237 1.06094 30.6237C0.695205 30.6237 -0.0298401 29.835 0.000950373 29.4559Z" fill="white"/>
</svg>
