<svg width="70" height="70" viewBox="0 0 70 70" fill="none" xmlns="http://www.w3.org/2000/svg">
<path d="M35 40.8334V64.1667H11.6667C11.6667 57.9784 14.125 52.0434 18.5008 47.6676C22.8767 43.2917 28.8116 40.8334 35 40.8334ZM52.5 62.7084L43.9279 67.2147L45.5642 57.6713L38.6313 50.9105L48.2154 49.5163L52.5 40.8334L56.7875 49.5163L66.3688 50.9105L59.4358 57.6713L61.0692 67.2147L52.5 62.7084ZM35 37.9167C25.3313 37.9167 17.5 30.0855 17.5 20.4167C17.5 10.748 25.3313 2.91675 35 2.91675C44.6688 2.91675 52.5 10.748 52.5 20.4167C52.5 30.0855 44.6688 37.9167 35 37.9167Z" fill="#ADB5BD"/>
</svg>
