<svg width="31" height="32" viewBox="0 0 31 32" fill="none" xmlns="http://www.w3.org/2000/svg">
<path opacity="0.3" d="M23.25 18.4525C21.1099 18.4525 19.375 16.7176 19.375 14.5775C19.375 12.4374 21.1099 10.7025 23.25 10.7025C25.3901 10.7025 27.125 12.4374 27.125 14.5775C27.125 16.7176 25.3901 18.4525 23.25 18.4525ZM11.625 14.5775C8.77157 14.5775 6.45837 12.2643 6.45837 9.41081C6.45837 6.55734 8.77157 4.24414 11.625 4.24414C14.4785 4.24414 16.7917 6.55734 16.7917 9.41081C16.7917 12.2643 14.4785 14.5775 11.625 14.5775Z" fill="#1BC5BC"/>
<path d="M22.7349 19.745C27.135 19.7931 30.7277 22.0177 30.9981 26.7192C31.0089 26.9086 30.9981 27.4942 30.2973 27.4942H25.3167C25.3167 24.5868 24.356 21.9037 22.7349 19.745ZM0.000841759 26.4599C0.501501 20.2951 5.50497 17.1609 11.6035 17.1609C17.7878 17.1609 22.8688 20.1229 23.2473 26.4609C23.2624 26.7134 23.2473 27.4942 22.277 27.4942C17.4906 27.4942 10.3782 27.4942 0.93969 27.4942C0.615753 27.4942 -0.0264298 26.7957 0.000841759 26.4599Z" fill="#1BC5BC"/>
</svg>
