<svg width="25" height="24" viewBox="0 0 25 24" fill="none" xmlns="http://www.w3.org/2000/svg">
<path opacity="0.3" d="M12.3333 22C17.8562 22 22.3333 17.5228 22.3333 12C22.3333 6.47715 17.8562 2 12.3333 2C6.81047 2 2.33331 6.47715 2.33331 12C2.33331 17.5228 6.81047 22 12.3333 22Z" fill="white"/>
<path d="M13.3333 8C13.3333 7.44772 12.8856 7 12.3333 7C11.781 7 11.3333 7.44772 11.3333 8V14C11.3333 14.5523 11.781 15 12.3333 15C12.8856 15 13.3333 14.5523 13.3333 14V8Z" fill="white"/>
<path d="M13.3333 17C13.3333 16.4477 12.8856 16 12.3333 16C11.781 16 11.3333 16.4477 11.3333 17C11.3333 17.5523 11.781 18 12.3333 18C12.8856 18 13.3333 17.5523 13.3333 17Z" fill="white"/>
</svg>
