<svg width="16" height="16" viewBox="0 0 16 16" fill="none" xmlns="http://www.w3.org/2000/svg">
<path d="M14.1383 2.98759C14.7157 3.565 14.7252 4.4982 14.1596 5.08719L8.74273 10.7283C8.46744 11.015 8.08962 11.1807 7.69225 11.189L5.41693 11.2367L5.46498 8.94619C5.47313 8.55786 5.6316 8.18782 5.90704 7.91396L11.4441 2.40857C12.0303 1.82565 12.9777 1.827 13.5623 2.4116L14.1383 2.98759Z" fill="#3699FF"/>
<path opacity="0.3" d="M8.60016 1.33203C8.96835 1.33203 9.26683 1.63051 9.26683 1.9987C9.26683 2.36689 8.96835 2.66536 8.60016 2.66536H4.00016C3.26378 2.66536 2.66683 3.26232 2.66683 3.9987V11.9987C2.66683 12.7351 3.26378 13.332 4.00016 13.332H12.0002C12.7365 13.332 13.3335 12.7351 13.3335 11.9987V8.66536C13.3335 8.29717 13.632 7.9987 14.0002 7.9987C14.3684 7.9987 14.6668 8.29717 14.6668 8.66536V11.9987C14.6668 13.4715 13.4729 14.6654 12.0002 14.6654H4.00016C2.5274 14.6654 1.3335 13.4715 1.3335 11.9987V3.9987C1.3335 2.52594 2.5274 1.33203 4.00016 1.33203H8.60016Z" fill="#3699FF"/>
</svg>
