<svg width="100" height="108" viewBox="0 0 100 108" fill="none" xmlns="http://www.w3.org/2000/svg">
<g clip-path="url(#clip0_4072:23353)">
<path d="M24.9994 20.4448H12.5006C12.5006 67.418 51.6731 105.501 99.9994 105.501V93.3501C58.5751 93.3501 24.9994 60.7092 24.9994 20.4448Z" fill="#04996B"/>
<path d="M99.9994 -25.6497V-37.8003C65.4789 -37.8003 37.5 -10.6048 37.5 22.9438C37.5 56.4977 65.4789 83.7003 99.9994 83.7003V71.5497C72.3827 71.5497 50.0006 49.789 50.0006 22.9455C50.0006 -3.88898 72.3823 -25.6497 99.9994 -25.6497Z" fill="#04996B"/>
<path d="M99.9993 -13.5015C79.2842 -13.5015 62.4993 2.81347 62.4993 22.9432C62.4993 43.0783 79.2842 59.3985 99.9993 59.3985V22.9485L137.499 22.9432C137.499 2.81347 120.716 -13.5015 99.9993 -13.5015Z" fill="#04996B"/>
</g>
<defs>
<clipPath id="clip0_4072:23353">
<rect width="100" height="108" fill="white"/>
</clipPath>
</defs>
</svg>
