<svg width="24" height="24" viewBox="0 0 24 24" fill="none" xmlns="http://www.w3.org/2000/svg">
<path opacity="0.3" d="M5.85714 2H13.7364C14.0911 2 14.4343 2.12568 14.7051 2.35474L19.4687 6.38394C19.8057 6.66895 20 7.08788 20 7.5292V20.0833C20 21.8739 19.9796 22 18.1429 22H5.85714C4.02045 22 4 21.8739 4 20.0833V3.91667C4 2.12612 4.02045 2 5.85714 2ZM10.875 15.75C11.1146 15.75 11.3542 15.6542 11.5458 15.4625L15.3792 11.6292C15.7625 11.2458 15.7625 10.6708 15.3792 10.2875C14.9958 9.90417 14.4208 9.90417 14.0375 10.2875L10.875 13.45L9.62917 12.2042C9.29375 11.8208 8.67083 11.8208 8.2875 12.2042C7.90417 12.5875 7.90417 13.1625 8.2875 13.5458L10.2042 15.4625C10.3958 15.6542 10.6354 15.75 10.875 15.75Z" fill="#ADB5BD"/>
<path fill-rule="evenodd" clip-rule="evenodd" d="M10.875 15.75C10.6354 15.75 10.3958 15.6542 10.2042 15.4625L8.2875 13.5458C7.90417 13.1625 7.90417 12.5875 8.2875 12.2042C8.67083 11.8208 9.29375 11.8208 9.62917 12.2042L10.875 13.45L14.0375 10.2875C14.4208 9.90417 14.9958 9.90417 15.3792 10.2875C15.7625 10.6708 15.7625 11.2458 15.3792 11.6292L11.5458 15.4625C11.3542 15.6542 11.1146 15.75 10.875 15.75Z" fill="#ADB5BD"/>
</svg>
