<svg width="24" height="24" viewBox="0 0 24 24" fill="none" xmlns="http://www.w3.org/2000/svg">
<path fill-rule="evenodd" clip-rule="evenodd" d="M17 12H18.5C19.3284 12 20 12.6716 20 13.5C20 14.3284 19.3284 15 18.5 15H5.5C4.67157 15 4 14.3284 4 13.5C4 12.6716 4.67157 12 5.5 12H7L7.55827 6.97553C7.80975 4.71226 9.72279 3 12 3C14.2772 3 16.1903 4.71226 16.4417 6.97553L17 12Z" fill="#ADB5BD"/>
<path opacity="0.3" d="M14 18C14 16.8954 13.1046 16 12 16C10.8954 16 10 16.8954 10 18C10 19.1046 10.8954 20 12 20C13.1046 20 14 19.1046 14 18Z" fill="#ADB5BD"/>
</svg>
