<svg width="1095" height="246" viewBox="0 0 1095 246" fill="none" xmlns="http://www.w3.org/2000/svg">
<g clip-path="url(#clip0)">
<rect y="49" width="1095" height="197" rx="12" fill="white"/>
<g clip-path="url(#clip1)">
<g opacity="0.504511">
<path opacity="0.504511" fill-rule="evenodd" clip-rule="evenodd" d="M290.212 321.919C294.198 351.74 197.523 371.192 114.312 357.617C31.1014 344.042 -7.07174 291.032 32.635 262.786C72.3417 234.541 286.225 292.098 290.212 321.919Z" fill="#F2F2F2"/>
</g>
<path fill-rule="evenodd" clip-rule="evenodd" d="M172.674 184.113C170.542 183.056 167.699 184.282 168.885 187.078C170.155 190.071 174.851 190.108 177.504 190.049C177.238 190.035 176.383 187.29 176.091 186.875C175.228 185.651 173.985 184.765 172.674 184.113ZM197.243 237.784C197.78 238.245 197.286 237.828 197.243 237.784V237.784ZM170.62 197.653C169.372 198.607 169.312 200.291 170.332 201.431C171.545 202.789 173.762 202.739 175.416 202.607C176.165 202.547 180.161 202.227 179.213 201.573C179.286 201.601 179.438 201.668 179.601 201.758C179.689 202.079 179.781 202.398 179.877 202.715C179.853 202.729 179.833 202.744 179.808 202.757C179.835 202.746 179.854 202.733 179.878 202.721C180.839 205.896 182.207 208.919 183.998 211.748C183.328 211.484 182.634 211.284 181.93 211.195C179.845 210.931 175.46 212.551 177.792 215.327C180.028 217.989 183.509 215.134 186.046 214.74C188.508 218.175 191.221 221.468 194.065 224.65C193.891 224.705 193.738 224.818 193.651 224.996C192.51 224.417 191.321 223.589 190.265 223.364C188.741 223.041 185.617 222.845 184.465 224.209C183.049 225.887 184.567 227.249 186.24 227.571C188.667 228.037 191.843 226.851 194.178 226.05C194.445 226.097 194.737 226.019 194.911 225.806C194.963 225.789 195.014 225.772 195.065 225.756C197.945 228.923 200.935 231.985 203.907 234.98C203.875 234.979 203.844 234.977 203.811 234.975C203.035 234.467 202.204 234.049 201.302 233.831C199.217 233.322 196.764 233.32 195.072 234.829C193.386 236.331 192.789 238.959 194.533 240.646C198.023 244.023 203.166 236.323 204.926 236.002C207.947 239.014 211.14 241.828 214.384 244.585C214.016 244.473 213.638 244.39 213.247 244.353C210.067 244.049 202.601 247.949 206.504 251.786C209.906 255.129 213.843 248.694 216.585 246.443C219.642 249.013 222.715 251.565 225.702 254.217C224.073 253.784 222.498 253.72 220.752 254.248C218.945 254.795 216.029 256.16 217.171 258.6C218.333 261.081 221.835 259.952 223.659 259.164C224.653 258.735 226.648 257.285 228.399 256.674C233.165 261.174 237.294 266.131 240.42 271.971C242.371 275.617 243.852 279.512 244.894 283.516C245.559 286.071 246.87 290.363 246.608 293.689C247.859 287.031 245.597 279.036 243.16 273.085C240.92 267.613 237.568 262.809 233.641 258.485C234.626 255.521 242.921 251.246 237.962 248.492C235.329 247.036 232.632 249.452 232.056 252.011C231.661 253.769 232.263 255.979 232.903 257.686C231.667 256.368 230.383 255.092 229.06 253.858C227.231 252.154 225.358 250.499 223.468 248.865C226.583 245.938 229.531 237.57 225.354 236.201C219.186 234.186 222.156 245.6 222.586 247.739C222.709 247.747 222.804 247.71 222.874 247.63C222.839 247.826 222.799 248.036 222.75 248.247C219.132 245.135 215.46 242.085 211.909 238.899C212.229 238.663 212.737 237.759 213.137 237.278C214.039 236.194 214.902 235.061 215.533 233.793C216.529 231.788 217.491 228.591 214.849 227.412C211.976 226.127 210.611 229.743 210.591 231.901C210.578 233.393 210.984 234.81 211.196 236.272C211.262 236.728 211.007 238.784 211.628 237.9C211.599 238.226 211.595 238.462 211.609 238.63C210.972 238.055 210.339 237.474 209.71 236.888C209.74 236.814 209.761 236.734 209.766 236.64C209.8 235.997 209.153 235.75 208.699 235.938C207.869 235.15 207.048 234.351 206.241 233.537C204.531 231.813 202.797 230.039 201.074 228.227C201.448 227.906 201.299 227.461 201.649 227.12C201.998 226.78 202.685 226.592 203.095 226.276C204.128 225.481 204.983 224.323 205.602 223.183C206.624 221.299 207.945 217.348 204.96 216.45C201.883 215.523 200.321 219.327 200.123 221.705C200.085 222.165 200.429 226.317 200.694 227.824C197.506 224.457 194.371 220.963 191.531 217.409C192.392 217.401 194.834 215.637 195.327 215.155C196.532 213.981 198.446 211.386 196.335 210.013C194.457 208.795 192.143 210.559 191.34 212.273C191.208 212.556 190.743 215.183 190.707 216.362C189.531 214.855 188.41 213.339 187.367 211.818C186.671 210.807 186.021 209.769 185.412 208.709C185.559 208.626 185.697 208.481 185.827 208.301C188.958 207.77 192.95 202.884 189.272 201.184C187.521 200.376 185.622 202.044 184.764 203.41C184.588 203.69 184.304 205.095 184.072 206.203C182.322 202.691 180.985 198.974 179.967 195.162C180.239 195.095 180.47 194.886 180.501 194.528C182.021 193.661 183.221 192.94 184.282 191.273C184.942 190.238 186.129 187.873 184.192 187.298C181.671 186.551 180.087 190.401 179.881 192.298C179.857 192.518 179.858 193.158 179.866 193.745C179.779 193.733 179.69 193.735 179.604 193.75C179.025 191.39 178.562 188.999 178.195 186.604C179.571 186.162 179.809 178.935 178.893 177.906C176.845 175.602 175.4 178.93 175.51 180.689C175.639 182.763 176.578 184.65 177.698 186.325C177.818 186.502 177.783 186.493 177.814 186.246C177.832 186.368 177.873 186.458 177.933 186.524C177.875 187.616 177.763 188.733 177.817 189.699C177.972 192.466 178.294 195.249 178.762 197.98C178.876 198.644 179.006 199.303 179.152 199.956C178.046 199.014 176.555 198.177 175.972 197.915C174.457 197.236 172.124 196.503 170.62 197.653ZM246.785 293.698C246.715 294.663 246.541 295.546 246.216 296.275C246.46 295.445 246.647 294.583 246.785 293.698Z" fill="#E1E9D9"/>
<path opacity="0.2" fill-rule="evenodd" clip-rule="evenodd" d="M93.7316 126.114C95.2547 125.358 97.2852 126.234 96.4381 128.231C95.5308 130.369 92.1763 130.396 90.2817 130.353C90.4714 130.343 91.082 128.383 91.291 128.086C91.9075 127.212 92.7952 126.579 93.7316 126.114ZM76.1942 165.074C75.6562 165.534 76.1504 165.117 76.1942 165.074V165.074ZM95.5018 136.041C96.4126 136.731 96.4554 137.948 95.7107 138.773C94.824 139.755 93.2058 139.72 91.9979 139.625C91.4515 139.582 88.534 139.352 89.2258 138.879C89.1726 138.899 89.0615 138.947 88.9425 139.013C88.8784 139.244 88.8111 139.475 88.741 139.705C88.7581 139.715 88.7728 139.726 88.7911 139.735C88.7712 139.727 88.7573 139.718 88.7398 139.709C88.037 142.005 87.0372 144.192 85.7284 146.238C86.2178 146.047 86.7246 145.902 87.2386 145.837C88.7608 145.646 91.9622 146.816 90.2586 148.824C88.6251 150.749 86.0846 148.686 84.232 148.402C82.4336 150.887 80.4509 153.269 78.3732 155.571C78.5004 155.611 78.6121 155.693 78.676 155.821C79.5093 155.402 80.3776 154.803 81.1487 154.64C82.2613 154.406 84.5427 154.263 85.383 155.249C86.4166 156.461 85.3075 157.447 84.0855 157.68C82.3136 158.018 79.9948 157.162 78.2903 156.584C78.0952 156.618 77.8824 156.562 77.7553 156.407C77.7176 156.395 77.68 156.383 77.6433 156.371C75.5393 158.662 73.3549 160.878 71.1838 163.045C71.2069 163.043 71.2299 163.042 71.254 163.041C71.8203 162.673 72.4276 162.371 73.0858 162.212C74.6084 161.844 76.3997 161.841 77.6346 162.932C78.8648 164.018 79.2997 165.917 78.0259 167.138C75.4762 169.581 71.7243 164.015 70.4389 163.784C68.2326 165.963 65.8998 167.999 63.5304 169.994C63.7994 169.912 64.0752 169.853 64.3603 169.826C66.6829 169.604 72.1327 172.422 69.2811 175.198C66.7961 177.617 63.9237 172.964 61.9228 171.338C59.6901 173.197 57.4451 175.044 55.2632 176.963C56.4529 176.649 57.6025 176.602 58.8774 176.983C60.1967 177.378 62.3253 178.364 61.4903 180.129C60.641 181.924 58.0847 181.108 56.7534 180.539C56.0272 180.229 54.5716 179.181 53.2932 178.74C49.8113 181.996 46.795 185.582 44.5107 189.806C43.0846 192.443 42.002 195.26 41.2395 198.155C40.7528 200.003 39.7941 203.107 39.9844 205.512C39.0736 200.699 40.7279 194.916 42.5091 190.612C44.1468 186.655 46.5965 183.18 49.4653 180.052C48.7469 177.909 42.6922 174.821 46.3137 172.827C48.2369 171.773 50.2051 173.52 50.6244 175.37C50.9125 176.641 50.4718 178.239 50.0045 179.473C50.9069 178.52 51.8451 177.597 52.8117 176.705C54.1477 175.471 55.5156 174.274 56.8965 173.091C54.623 170.976 52.4733 164.927 55.5237 163.936C60.028 162.476 57.8553 170.731 57.5404 172.278C57.4511 172.283 57.3816 172.256 57.3305 172.199C57.3558 172.341 57.3851 172.492 57.4206 172.645C60.0637 170.393 62.746 168.186 65.3399 165.881C65.1064 165.71 64.7354 165.057 64.4437 164.709C63.7854 163.926 63.1556 163.107 62.6955 162.19C61.9687 160.741 61.2682 158.429 63.1972 157.576C65.2952 156.646 66.2906 159.26 66.3044 160.82C66.3138 161.899 66.0166 162.924 65.8616 163.982C65.8131 164.311 65.9983 165.798 65.545 165.159C65.5663 165.394 65.5693 165.565 65.5586 165.686C66.0243 165.27 66.4864 164.85 66.9456 164.426C66.9244 164.373 66.9087 164.315 66.9051 164.247C66.8808 163.782 67.3533 163.603 67.6846 163.739C68.2905 163.169 68.8906 162.591 69.4799 162.002C70.7289 160.754 71.996 159.471 73.2544 158.16C72.9817 157.928 73.0904 157.607 72.8353 157.36C72.5806 157.114 72.0789 156.979 71.7794 156.75C71.0262 156.176 70.4017 155.338 69.9502 154.514C69.2048 153.153 68.2421 150.296 70.422 149.646C72.6689 148.974 73.8078 151.724 73.9514 153.444C73.9794 153.777 73.726 156.779 73.5326 157.869C75.8611 155.433 78.1514 152.906 80.2265 150.334C79.5977 150.329 77.8157 149.054 77.4555 148.706C76.5766 147.857 75.1797 145.981 76.7218 144.988C78.093 144.106 79.7819 145.381 80.3675 146.621C80.4637 146.825 80.8025 148.725 80.8285 149.577C81.6874 148.487 82.5067 147.39 83.269 146.29C83.7774 145.558 84.2525 144.808 84.6971 144.041C84.5902 143.981 84.4896 143.876 84.3947 143.746C82.1088 143.363 79.1959 139.832 81.8818 138.601C83.1606 138.016 84.5465 139.222 85.1723 140.209C85.3005 140.411 85.5078 141.427 85.6765 142.229C86.9557 139.689 87.9335 137 88.6781 134.243C88.4792 134.195 88.3107 134.044 88.2886 133.785C87.179 133.159 86.3028 132.638 85.5286 131.433C85.0476 130.685 84.1816 128.975 85.5962 128.559C87.437 128.017 88.5918 130.801 88.7417 132.172C88.7591 132.331 88.7583 132.794 88.752 133.219C88.8159 133.21 88.8805 133.211 88.9438 133.222C89.3674 131.515 89.7057 129.786 89.975 128.055C88.9705 127.735 88.7995 122.509 89.4687 121.765C90.9647 120.098 92.0183 122.504 91.9378 123.776C91.8428 125.276 91.1559 126.641 90.3382 127.852C90.2505 127.98 90.2755 127.974 90.2529 127.796C90.2403 127.884 90.2104 127.949 90.1662 127.996C90.2079 128.786 90.2897 129.594 90.2499 130.293C90.1357 132.293 89.8994 134.305 89.5567 136.28C89.4734 136.761 89.378 137.237 89.2711 137.71C90.0789 137.028 91.1679 136.422 91.594 136.232C92.6998 135.741 94.404 135.21 95.5018 136.041ZM39.8035 205.322C39.8569 205.965 40.0154 206.552 40.3275 207.033C40.0984 206.483 39.9266 205.911 39.8035 205.322Z" fill="#C1DEE2"/>
<g opacity="0.7">
<path opacity="0.7" fill-rule="evenodd" clip-rule="evenodd" d="M214.153 249.462C220.075 249.154 227.399 252.611 228.031 259.049C228.49 263.727 228.348 268.391 229.058 273.062C229.626 276.795 230.827 280.379 232.466 283.779C234.041 287.049 237.309 289.832 238.159 293.325C238.7 295.551 238.397 298.682 237.65 300.859C236.742 303.506 237.224 303.297 239.035 305.518C242.582 309.871 245.776 314.334 248.035 319.533C251.288 327.02 253.421 335.773 252.214 343.969C252.06 345.01 251.878 348.745 250.445 349.006C248.844 349.298 249.593 347.162 249.678 346.472C250.223 342.069 250.707 338.22 250.05 333.749C247.515 316.495 235.139 305.128 227.08 290.484C226.637 289.729 225.702 287.931 225.052 286.745C224.025 284.872 222.993 281.308 221.603 279.919C218.986 277.303 221.392 282.563 221.902 283.567C222.547 284.837 223.256 286.187 223.917 287.3C226.941 292.458 230.315 298.09 233.438 303.408C219.933 306.485 210.422 290.248 206.798 279.572C203.812 270.777 200.239 250.214 214.153 249.462Z" fill="#69A1AC"/>
<path opacity="0.7" fill-rule="evenodd" clip-rule="evenodd" d="M293.528 233.131C283.628 233.916 277.272 240.45 274.314 249.588C272.719 254.512 272.537 259.571 271.65 264.632C270.317 272.246 267.449 278.016 261.844 283.44C260.108 285.12 258.829 286.845 257.919 288.69C256.114 290.533 254.542 292.618 253.387 295.167C251.912 298.423 251.495 302.328 253.198 305.574C253.656 306.447 254.798 308.198 255.982 308.994C251.55 318.434 249.113 328.773 249.388 339.098C249.554 345.331 249.858 351.567 250.213 357.792C250.308 359.464 250.853 362.224 251.67 359.421C252.418 356.857 251.48 352.831 251.393 350.153C250.971 337.103 250.61 325.237 255.981 313.045C256.544 311.767 257.142 310.5 257.764 309.242C257.8 309.221 257.834 309.196 257.868 309.171C257.892 309.189 257.914 309.209 257.937 309.227C257.977 309.156 258.031 309.071 258.095 308.977C258.273 308.793 258.429 308.56 258.577 308.301C259.054 307.64 259.593 306.865 259.596 306.44C259.596 306.437 259.594 306.432 259.594 306.428C262.919 301 266.728 295.87 270.618 290.841C270.589 290.878 274.838 285.092 274.181 288.292C273.864 289.834 270.739 292.77 269.477 294.403C266.684 298.037 263.405 302.641 260.681 307.093C260.314 307.303 259.796 308.338 259.421 309.109C259.214 309.499 259.021 309.893 258.832 310.236C268.486 313.426 275.997 307 281.118 299.526C281.124 299.517 281.13 299.508 281.135 299.499C282.694 297.434 284.29 295.383 286.285 293.751C289.612 291.027 293.175 290.546 297.099 289.205C307.797 285.55 312.346 271.683 313.791 261.394C315.421 249.786 307.448 231.986 293.528 233.131Z" fill="#E1E9D9"/>
<path opacity="0.7" fill-rule="evenodd" clip-rule="evenodd" d="M273.972 200.625C263.811 211.201 258.902 225.87 255.015 239.66C250.674 255.063 247.806 270.703 247.696 286.718C247.624 297.239 247.338 307.826 247.952 318.335C248.17 322.067 248.542 325.806 249.133 329.498C249.182 329.802 250.506 338.046 251.772 336.125C252.492 335.032 250.415 327.573 250.258 326.33C249.376 319.332 249.171 312.283 249.214 305.235C249.284 293.63 248.942 282.084 250.118 270.522C250.294 268.795 250.432 266.982 250.842 265.293C251.278 263.498 250.723 264.282 252.141 263.571C253.519 262.88 255.222 262.979 256.651 262.112C262.322 258.673 265.223 249.84 267.481 244.044C270.063 237.416 271.632 230.348 272.886 223.373C273.806 218.249 274.464 213.155 274.837 207.965C274.954 206.329 274.961 204.618 275.283 203.01C275.369 202.576 275.804 201.808 275.788 201.424C275.755 200.611 275.264 200.132 275.224 199.449C274.798 199.832 274.381 200.224 273.972 200.625Z" fill="#E1E9D9"/>
</g>
<g opacity="0.5">
<path opacity="0.5" fill-rule="evenodd" clip-rule="evenodd" d="M79.8537 191.62C81.6766 189.021 85.0594 182.419 87.6251 181.49C89.2777 180.892 88.7958 187.08 88.8162 188.26C88.8957 192.826 88.4513 197.362 87.9025 201.889C86.9137 210.054 83.6805 217.325 79.246 224.274C76.9641 227.85 74.2876 231.469 70.5805 233.7C68.8741 234.727 66.8209 234.899 65.1358 235.785C63.1732 236.815 64.242 235.982 63.3575 238.027C62.1292 240.867 61.7364 244.53 61.168 247.561C58.5586 261.47 52.2413 334.999 53.3365 349.147C53.4338 350.401 51.6853 350.701 51.598 349.17C51.1341 341.053 55.1486 284.839 57.174 266.455C59.1994 248.072 61.249 231.831 63.3041 225.471C65.7973 217.755 70.3002 208.476 74.0485 201.28C75.7895 197.937 77.6873 194.709 79.8537 191.62Z" fill="#69A1AC"/>
<path opacity="0.5" fill-rule="evenodd" clip-rule="evenodd" d="M13.8486 149.224C23.8473 166.566 32.0638 185.615 37.3693 204.909C40.5837 216.6 42.8317 228.596 45.0653 240.505C48.5235 258.945 51.7946 277.383 52.7251 296.151C53.6612 315.027 55.5123 336.798 49.3319 354.979C52.419 336.521 49.4799 316.873 48.9595 298.3C48.7108 289.434 47.9901 280.654 47.0448 271.839C46.1274 263.289 44.6286 254.779 43.2329 246.295C42.5531 242.164 41.8391 238.038 41.1121 233.915C40.8951 232.685 40.8034 229.035 40.0232 228.194C39.2379 227.348 35.2311 227.004 33.9732 226.383C31.4401 225.133 29.0574 223.357 26.9487 221.481C22.9062 217.884 19.3895 213.185 16.6138 208.552C10.1915 197.833 7.62391 184.751 7.75369 172.337C7.77863 169.927 11.6546 143.972 10.0979 143.614C10.1916 143.505 10.2803 143.391 10.3639 143.273C11.5424 145.247 12.6988 147.234 13.8486 149.224Z" fill="#89C5CC"/>
<path opacity="0.5" fill-rule="evenodd" clip-rule="evenodd" d="M121.767 211.768C121.922 211.546 122.926 209.998 122.42 210.097C123.45 209.896 121.004 211.804 123.569 210.633C122.351 211.783 123.054 213.278 123.07 214.826C123.097 217.34 122.676 219.833 122.203 222.293C121.455 226.181 120.341 229.961 118.723 233.578C115.198 241.459 109.212 249.046 102.105 253.973C98.5965 256.405 95.1581 257.234 91.1567 258.354C88.6293 259.061 88.4289 260.369 87.0873 262.821C84.2943 267.93 81.551 273.02 79.0878 278.301C76.1466 284.608 73.2914 290.921 70.5981 297.338C61.5249 318.953 54.1401 341.347 50.2619 364.523C50.1669 350.866 53.326 336.8 57.311 323.782C60.2137 314.298 63.9926 305.155 68.0232 296.105C68.9999 293.912 70.4799 291.092 70.8947 288.671C71.1851 286.975 70.2972 285.344 69.8907 283.558C68.3058 276.6 68.4193 268.806 69.811 261.811C71.3455 254.098 75.7833 250.518 83.2903 249.426C86.0358 249.026 89.5253 249.173 92.0428 248.002C94.7855 246.727 95.9169 242.536 97.4765 239.846C101.666 232.621 106.643 225.691 112.358 219.602C113.941 217.916 115.642 216.361 117.448 214.919C118.586 214.01 120.991 212.889 121.767 211.768Z" fill="#89C5CC"/>
</g>
<g opacity="0.5">
<path fill-rule="evenodd" clip-rule="evenodd" d="M300.828 162.718C299.534 158.401 296.495 155.022 293.341 151.926C287.201 145.899 283.899 142.173 281.71 133.356C280.423 128.171 279.113 122.677 275.031 118.915C272.059 116.175 266.944 113.874 262.969 115.835C256.854 119.485 255.212 126.976 255.828 133.684C256.593 141.997 260.476 147.123 267.935 150.186C272.139 151.91 274.933 154.186 277.214 158.151C279.039 161.321 280.104 165.292 282.397 168.166C285.826 172.463 290.117 174.373 295.406 173.659C290.452 164.544 284.664 155.343 277.683 147.668C277.029 146.897 273.175 143.943 273.952 142.628C274.809 141.18 278.766 146.619 278.738 146.586C280.766 148.915 282.644 151.39 284.487 153.889C284.482 153.891 284.477 153.893 284.472 153.895C286.37 156.459 288.253 159.061 290.1 161.695C290.847 162.81 291.574 163.938 292.27 165.095C293.291 166.793 294.912 171.611 296.583 172.654C296.941 172.878 297.272 173.002 297.581 173.054C298.721 174.921 299.831 176.803 300.886 178.708C303.642 183.682 306.007 188.934 307.093 194.55C307.41 196.189 307.186 202.321 308.304 203.504C310.35 205.668 309.751 201.5 309.628 200.242C308.612 189.825 304.873 180.95 299.443 172.191C301.111 170.013 301.352 164.468 300.828 162.718Z" fill="#89C5CC"/>
<path fill-rule="evenodd" clip-rule="evenodd" d="M230.77 167.753C232.927 165.212 238.11 164.781 241.281 164.951C245.204 165.162 249.233 166.117 252.966 167.272C259.114 169.174 265.088 172.645 270.503 176.005C271.155 176.41 279.195 181.245 278.483 182.094C277.778 182.934 269.886 177.191 268.127 176.201C264.374 174.088 260.932 171.589 256.794 170.194C252.511 168.749 247.98 168.177 243.475 168.216C242.897 168.221 241.011 167.818 240.971 168.673C240.931 169.51 244.051 169.074 244.602 169.079C246.874 169.099 249.161 169.313 251.401 169.707C255.599 170.445 259.545 171.932 263.14 174.212C262.137 176.544 259.732 177.62 257.21 177.036C255.029 176.531 252.904 175.287 250.769 174.927C249.299 174.679 247.827 174.827 246.401 175.241C242.64 176.334 240.471 178.573 236.336 177.016C233.094 175.795 227.673 171.408 230.77 167.753Z" fill="#89C5CC"/>
<path fill-rule="evenodd" clip-rule="evenodd" d="M233.209 143.708H234.229C234.158 142.413 234.065 141.121 233.846 139.84C233.026 135.041 230.462 127.993 224.838 127.214C224.631 127.185 223.867 127.18 222.943 127.234C222.505 126.991 222.014 126.845 221.497 126.811C216.709 126.462 211.362 130.284 209.052 134.261C207.19 137.467 207.504 141.678 208.654 145.085C209.424 147.366 211.105 150.617 213.907 150.649C217.414 150.689 217.583 146.401 217.651 143.894C217.741 140.561 218.167 137.658 220.821 135.386C221.44 134.857 222.116 134.392 222.741 133.87C223.719 133.053 224.801 132.217 224.927 130.865C225.101 129.001 224.037 128.665 222.413 129.012C222.136 129.071 219.347 130.309 219.76 129.33C219.886 129.031 220.347 128.794 220.928 128.617C222.432 128.455 224.225 128.267 224.741 128.38C230.305 129.587 232.472 137.213 233.047 142.058C233.112 142.606 233.164 143.157 233.209 143.708H233.209Z" fill="#89C5CC"/>
</g>
</g>
</g>
<g clip-path="url(#clip2)">
<g clip-path="url(#clip3)">
<g opacity="0.504511">
<path opacity="0.504511" fill-rule="evenodd" clip-rule="evenodd" d="M1065.88 212.919C1069.87 242.74 973.192 262.192 889.981 248.617C806.771 235.042 768.598 182.032 808.304 153.786C848.011 125.541 1061.89 183.098 1065.88 212.919Z" fill="#F2F2F2"/>
</g>
<path fill-rule="evenodd" clip-rule="evenodd" d="M948.343 75.1132C946.211 74.0558 943.368 75.2822 944.554 78.0777C945.824 81.0712 950.521 81.1082 953.173 81.0489C952.908 81.035 952.053 78.2898 951.76 77.875C950.897 76.6514 949.654 75.7645 948.343 75.1132ZM972.912 128.784C973.45 129.245 972.956 128.828 972.912 128.784V128.784ZM946.289 88.6531C945.041 89.6071 944.982 91.2914 946.001 92.4315C947.215 93.7887 949.431 93.7393 951.086 93.6071C951.834 93.5471 955.83 93.2272 954.883 92.5732C954.956 92.6007 955.108 92.6675 955.271 92.7583C955.358 93.0785 955.45 93.3976 955.546 93.7153C955.523 93.729 955.503 93.7438 955.478 93.7575C955.505 93.7455 955.524 93.7326 955.548 93.7206C956.509 96.8958 957.877 99.9191 959.668 102.748C958.998 102.484 958.304 102.284 957.6 102.195C955.515 101.931 951.129 103.551 953.461 106.327C955.697 108.989 959.178 106.134 961.716 105.74C964.177 109.175 966.891 112.468 969.735 115.65C969.561 115.705 969.408 115.818 969.32 115.996C968.179 115.417 966.99 114.589 965.934 114.364C964.41 114.041 961.286 113.845 960.134 115.209C958.718 116.887 960.236 118.249 961.91 118.571C964.336 119.037 967.513 117.851 969.848 117.05C970.115 117.097 970.406 117.019 970.581 116.806C970.632 116.789 970.684 116.772 970.734 116.756C973.614 119.923 976.604 122.985 979.576 125.98C979.545 125.979 979.513 125.977 979.48 125.975C978.705 125.467 977.873 125.049 976.972 124.831C974.887 124.322 972.433 124.32 970.741 125.829C969.056 127.331 968.459 129.959 970.202 131.646C973.693 135.023 978.835 127.323 980.596 127.002C983.616 130.014 986.81 132.828 990.054 135.585C989.685 135.473 989.307 135.39 988.917 135.353C985.736 135.049 978.27 138.949 982.174 142.786C985.575 146.129 989.513 139.694 992.254 137.443C995.311 140.013 998.384 142.565 1001.37 145.217C999.742 144.784 998.168 144.72 996.421 145.248C994.614 145.795 991.698 147.16 992.841 149.6C994.002 152.081 997.504 150.952 999.328 150.164C1000.32 149.735 1002.32 148.285 1004.07 147.674C1008.83 152.174 1012.96 157.131 1016.09 162.971C1018.04 166.617 1019.52 170.512 1020.56 174.516C1021.23 177.071 1022.54 181.363 1022.28 184.689C1023.53 178.031 1021.27 170.036 1018.83 164.085C1016.59 158.613 1013.24 153.809 1009.31 149.485C1010.3 146.521 1018.59 142.246 1013.63 139.492C1011 138.036 1008.3 140.452 1007.73 143.011C1007.33 144.769 1007.93 146.979 1008.57 148.686C1007.34 147.368 1006.05 146.092 1004.73 144.858C1002.9 143.154 1001.03 141.499 999.137 139.865C1002.25 136.938 1005.2 128.57 1001.02 127.201C994.856 125.186 997.826 136.6 998.256 138.739C998.378 138.747 998.473 138.71 998.543 138.63C998.509 138.826 998.468 139.036 998.42 139.247C994.801 136.135 991.129 133.085 987.578 129.899C987.898 129.663 988.407 128.759 988.806 128.278C989.708 127.194 990.572 126.061 991.202 124.793C992.199 122.788 993.16 119.591 990.518 118.412C987.646 117.127 986.281 120.743 986.261 122.901C986.247 124.393 986.653 125.81 986.865 127.272C986.931 127.728 986.676 129.784 987.298 128.9C987.268 129.226 987.264 129.462 987.279 129.63C986.641 129.055 986.008 128.474 985.38 127.888C985.409 127.814 985.431 127.734 985.435 127.64C985.469 126.997 984.822 126.75 984.368 126.938C983.539 126.15 982.717 125.351 981.911 124.537C980.201 122.813 978.466 121.039 976.744 119.227C977.117 118.906 976.969 118.461 977.318 118.12C977.667 117.78 978.355 117.592 978.765 117.276C979.797 116.481 980.653 115.323 981.272 114.183C982.294 112.299 983.614 108.348 980.629 107.45C977.552 106.523 975.99 110.327 975.792 112.705C975.754 113.165 976.099 117.317 976.363 118.824C973.176 115.457 970.041 111.963 967.2 108.409C968.061 108.401 970.503 106.637 970.997 106.155C972.201 104.981 974.115 102.386 972.004 101.013C970.127 99.7945 967.813 101.559 967.01 103.273C966.878 103.556 966.413 106.183 966.376 107.362C965.201 105.855 964.079 104.339 963.036 102.818C962.34 101.807 961.69 100.769 961.082 99.7088C961.228 99.6258 961.366 99.4811 961.496 99.3011C964.627 98.7696 968.619 93.8838 964.941 92.1839C963.19 91.3756 961.291 93.0442 960.434 94.4102C960.258 94.6897 959.973 96.0947 959.742 97.203C957.991 93.6915 956.654 89.9739 955.636 86.1622C955.909 86.0946 956.14 85.8863 956.17 85.5282C957.69 84.6615 958.891 83.9398 959.952 82.2731C960.611 81.2379 961.798 78.8727 959.861 78.2981C957.34 77.5505 955.757 81.4012 955.551 83.2979C955.527 83.5181 955.527 84.1584 955.536 84.7452C955.448 84.7332 955.36 84.7346 955.273 84.7499C954.694 82.3897 954.232 79.9991 953.864 77.6045C955.24 77.1616 955.478 69.9349 954.562 68.9059C952.514 66.6019 951.07 69.9302 951.179 71.6892C951.308 73.7634 952.248 75.6501 953.367 77.3246C953.487 77.5019 953.453 77.4933 953.484 77.2463C953.501 77.3684 953.542 77.4585 953.603 77.5237C953.545 78.6155 953.432 79.7333 953.486 80.6994C953.641 83.4661 953.963 86.2489 954.431 88.9799C954.545 89.6442 954.676 90.303 954.822 90.9561C953.716 90.0138 952.225 89.1767 951.641 88.9149C950.127 88.2361 947.793 87.5032 946.289 88.6531ZM1022.45 184.698C1022.38 185.663 1022.21 186.546 1021.89 187.275C1022.13 186.445 1022.32 185.583 1022.45 184.698Z" fill="#E1E9D9"/>
<path opacity="0.2" fill-rule="evenodd" clip-rule="evenodd" d="M869.401 17.1135C870.924 16.3582 872.955 17.2342 872.108 19.231C871.2 21.3693 867.846 21.3957 865.951 21.3533C866.141 21.3434 866.751 19.3825 866.96 19.0862C867.577 18.2122 868.465 17.5787 869.401 17.1135ZM851.864 56.074C851.326 56.534 851.82 56.1171 851.864 56.074V56.074ZM871.171 27.0412C872.082 27.7305 872.125 28.9484 871.38 29.7732C870.493 30.755 868.875 30.7201 867.667 30.6251C867.121 30.5821 864.203 30.3521 864.895 29.8789C864.842 29.8988 864.731 29.9472 864.612 30.0129C864.548 30.2445 864.481 30.4753 864.41 30.705C864.428 30.7149 864.442 30.7256 864.461 30.7355C864.441 30.7269 864.427 30.7175 864.409 30.7088C863.706 33.0052 862.707 35.1918 861.398 37.2377C861.887 37.0467 862.394 36.902 862.908 36.8374C864.43 36.646 867.632 37.8159 865.928 39.824C864.295 41.7491 861.754 39.6859 859.901 39.4022C858.103 41.8873 856.12 44.2691 854.043 46.5713C854.17 46.6107 854.282 46.6929 854.345 46.8209C855.179 46.4019 856.047 45.8026 856.818 45.6401C857.931 45.4059 860.212 45.2631 861.052 46.249C862.086 47.4612 860.977 48.4469 859.755 48.6801C857.983 49.0183 855.664 48.1621 853.96 47.5837C853.765 47.6179 853.552 47.5616 853.425 47.4071C853.387 47.3949 853.349 47.3829 853.313 47.3712C851.209 49.6623 849.024 51.8777 846.853 54.0447C846.876 54.0435 846.899 54.0421 846.923 54.0408C847.49 53.6728 848.097 53.3708 848.755 53.2124C850.278 52.8441 852.069 52.8414 853.304 53.9318C854.534 55.0176 854.969 56.9174 853.695 58.1379C851.146 60.5811 847.394 55.0153 846.108 54.7836C843.902 56.9626 841.569 58.9986 839.2 60.9935C839.469 60.9123 839.745 60.8525 840.03 60.8256C842.352 60.6042 847.802 63.4215 844.951 66.1975C842.465 68.6166 839.593 63.9644 837.592 62.3379C835.36 64.1973 833.115 66.044 830.933 67.9626C832.122 67.6491 833.272 67.6025 834.547 67.9834C835.866 68.3783 837.995 69.3639 837.16 71.1288C836.31 72.9236 833.754 72.1084 832.423 71.5394C831.697 71.2291 830.241 70.1811 828.963 69.7401C825.481 72.9961 822.464 76.5821 820.18 80.8057C818.754 83.4429 817.671 86.2601 816.909 89.1554C816.422 91.0035 815.464 94.1074 815.654 96.5123C814.743 91.6988 816.397 85.9163 818.179 81.6125C819.816 77.6549 822.266 74.1802 825.135 71.0521C824.416 68.909 818.362 65.8206 821.983 63.8273C823.906 62.7734 825.875 64.5196 826.294 66.3698C826.582 67.6412 826.141 69.2391 825.674 70.4735C826.576 69.5199 827.515 68.597 828.481 67.7047C829.817 66.4714 831.185 65.2739 832.566 64.0915C830.292 61.9761 828.143 55.9266 831.193 54.9356C835.697 53.4762 833.525 61.7305 833.21 63.2775C833.121 63.2828 833.051 63.2561 833 63.1989C833.025 63.3406 833.055 63.492 833.09 63.6448C835.733 61.3934 838.415 59.1863 841.009 56.8812C840.776 56.7103 840.405 56.0571 840.113 55.7094C839.455 54.9257 838.825 54.107 838.365 53.1901C837.638 51.741 836.938 49.4294 838.867 48.5758C840.965 47.6459 841.96 50.2602 841.974 51.8201C841.983 52.899 841.686 53.924 841.531 54.9815C841.483 55.3114 841.668 56.7979 841.214 56.1586C841.236 56.3944 841.239 56.5652 841.228 56.6862C841.694 56.2703 842.156 55.8499 842.615 55.4265C842.594 55.3731 842.578 55.3148 842.575 55.2472C842.55 54.7822 843.023 54.6028 843.354 54.7389C843.96 54.1685 844.56 53.591 845.149 53.002C846.398 51.7543 847.665 50.4708 848.924 49.1601C848.651 48.9281 848.76 48.6065 848.505 48.3601C848.25 48.1143 847.748 47.9786 847.449 47.7503C846.696 47.1757 846.071 46.3385 845.62 45.5144C844.874 44.1527 843.912 41.296 846.091 40.6457C848.338 39.9744 849.477 42.7242 849.621 44.4437C849.649 44.7768 849.395 47.7786 849.202 48.8687C851.531 46.4328 853.821 43.9055 855.896 41.3344C855.267 41.329 853.485 40.054 853.125 39.706C852.246 38.8572 850.849 36.9815 852.391 35.9877C853.762 35.1063 855.451 36.3811 856.037 37.6205C856.133 37.8246 856.472 39.7245 856.498 40.577C857.357 39.4867 858.176 38.39 858.938 37.2898C859.447 36.5584 859.922 35.8076 860.367 35.041C860.26 34.981 860.159 34.8764 860.064 34.7462C857.778 34.3631 854.865 30.8317 857.551 29.6012C858.83 29.016 860.216 30.2218 860.842 31.2093C860.97 31.4113 861.177 32.4272 861.346 33.2285C862.625 30.6887 863.603 28 864.348 25.2435C864.149 25.1946 863.98 25.0441 863.958 24.7852C862.848 24.159 861.972 23.6376 861.198 22.4328C860.717 21.6845 859.851 19.9747 861.266 19.5585C863.106 19.017 864.261 21.8008 864.411 23.1722C864.429 23.3314 864.428 23.7944 864.421 24.2187C864.485 24.2101 864.55 24.211 864.613 24.2221C865.037 22.5152 865.375 20.7864 865.644 19.0547C864.64 18.735 864.469 13.5095 865.138 12.7651C866.634 11.0983 867.688 13.5044 867.607 14.7764C867.512 16.2763 866.825 17.6409 866.008 18.8521C865.92 18.9804 865.945 18.9742 865.922 18.7955C865.91 18.8838 865.88 18.949 865.836 18.9962C865.877 19.7857 865.959 20.5939 865.919 21.2925C865.805 23.2931 865.569 25.3055 865.226 27.2805C865.143 27.7608 865.047 28.2372 864.94 28.7096C865.748 28.0278 866.837 27.4219 867.263 27.2324C868.369 26.741 870.073 26.2102 871.171 27.0412ZM815.473 96.3224C815.526 96.9653 815.685 97.552 815.997 98.0326C815.768 97.4832 815.596 96.911 815.473 96.3224Z" fill="#C1DEE2"/>
<g opacity="0.7">
<path opacity="0.7" fill-rule="evenodd" clip-rule="evenodd" d="M989.822 140.462C995.744 140.154 1003.07 143.611 1003.7 150.049C1004.16 154.727 1004.02 159.391 1004.73 164.062C1005.3 167.795 1006.5 171.379 1008.13 174.779C1009.71 178.049 1012.98 180.832 1013.83 184.325C1014.37 186.551 1014.07 189.682 1013.32 191.859C1012.41 194.506 1012.89 194.297 1014.7 196.518C1018.25 200.871 1021.45 205.334 1023.7 210.533C1026.96 218.02 1029.09 226.773 1027.88 234.969C1027.73 236.01 1027.55 239.745 1026.11 240.006C1024.51 240.298 1025.26 238.162 1025.35 237.472C1025.89 233.069 1026.38 229.22 1025.72 224.749C1023.18 207.495 1010.81 196.128 1002.75 181.484C1002.31 180.729 1001.37 178.931 1000.72 177.745C999.694 175.872 998.662 172.308 997.273 170.919C994.655 168.303 997.062 173.563 997.572 174.567C998.216 175.837 998.926 177.187 999.587 178.3C1002.61 183.458 1005.98 189.09 1009.11 194.408C995.602 197.485 986.091 181.248 982.467 170.572C979.481 161.777 975.908 141.214 989.822 140.462Z" fill="#69A1AC"/>
<path opacity="0.7" fill-rule="evenodd" clip-rule="evenodd" d="M1069.2 124.131C1059.3 124.916 1052.94 131.45 1049.98 140.588C1048.39 145.512 1048.21 150.571 1047.32 155.632C1045.99 163.246 1043.12 169.016 1037.51 174.44C1035.78 176.12 1034.5 177.845 1033.59 179.69C1031.78 181.533 1030.21 183.618 1029.06 186.167C1027.58 189.423 1027.16 193.328 1028.87 196.574C1029.33 197.447 1030.47 199.198 1031.65 199.994C1027.22 209.434 1024.78 219.773 1025.06 230.098C1025.22 236.331 1025.53 242.567 1025.88 248.792C1025.98 250.464 1026.52 253.224 1027.34 250.421C1028.09 247.857 1027.15 243.831 1027.06 241.153C1026.64 228.103 1026.28 216.237 1031.65 204.045C1032.21 202.767 1032.81 201.5 1033.43 200.242C1033.47 200.221 1033.5 200.196 1033.54 200.171C1033.56 200.189 1033.58 200.209 1033.61 200.227C1033.65 200.156 1033.7 200.071 1033.76 199.977C1033.94 199.793 1034.1 199.56 1034.25 199.301C1034.72 198.64 1035.26 197.865 1035.27 197.44C1035.27 197.437 1035.26 197.432 1035.26 197.428C1038.59 192 1042.4 186.87 1046.29 181.841C1046.26 181.878 1050.51 176.092 1049.85 179.292C1049.53 180.834 1046.41 183.77 1045.15 185.403C1042.35 189.037 1039.07 193.641 1036.35 198.093C1035.98 198.303 1035.47 199.338 1035.09 200.109C1034.88 200.499 1034.69 200.893 1034.5 201.236C1044.16 204.426 1051.67 198 1056.79 190.526C1056.79 190.517 1056.8 190.508 1056.8 190.499C1058.36 188.434 1059.96 186.383 1061.95 184.751C1065.28 182.027 1068.84 181.546 1072.77 180.205C1083.47 176.55 1088.02 162.683 1089.46 152.394C1091.09 140.786 1083.12 122.986 1069.2 124.131Z" fill="#89C5CC"/>
<path opacity="0.7" fill-rule="evenodd" clip-rule="evenodd" d="M1049.64 91.6245C1039.48 102.201 1034.57 116.87 1030.68 130.66C1026.34 146.063 1023.48 161.703 1023.37 177.718C1023.29 188.239 1023.01 198.826 1023.62 209.335C1023.84 213.067 1024.21 216.806 1024.8 220.498C1024.85 220.802 1026.18 229.046 1027.44 227.125C1028.16 226.032 1026.08 218.573 1025.93 217.33C1025.05 210.332 1024.84 203.283 1024.88 196.235C1024.95 184.63 1024.61 173.084 1025.79 161.522C1025.96 159.795 1026.1 157.982 1026.51 156.293C1026.95 154.498 1026.39 155.282 1027.81 154.571C1029.19 153.88 1030.89 153.979 1032.32 153.112C1037.99 149.673 1040.89 140.84 1043.15 135.044C1045.73 128.416 1047.3 121.348 1048.56 114.373C1049.48 109.249 1050.13 104.155 1050.51 98.9647C1050.62 97.3288 1050.63 95.6181 1050.95 94.0095C1051.04 93.5756 1051.47 92.8081 1051.46 92.4238C1051.42 91.6106 1050.93 91.1323 1050.89 90.449C1050.47 90.8318 1050.05 91.2239 1049.64 91.6245Z" fill="#89C5CC"/>
<path opacity="0.7" fill-rule="evenodd" clip-rule="evenodd" d="M994.237 232.531C994.237 250.022 1008.41 264.2 1025.9 264.2C1043.39 264.2 1057.57 250.022 1057.57 232.531" fill="#89C5CC"/>
<path opacity="0.7" fill-rule="evenodd" clip-rule="evenodd" d="M1028.44 232.635H1026.77C1026.89 230.536 1027.04 228.44 1027.39 226.364C1028.73 218.423 1032.93 206.761 1042.14 205.473C1042.48 205.424 1043.72 205.416 1045.24 205.505C1045.95 205.104 1046.76 204.862 1047.6 204.806C1055.44 204.228 1064.19 210.552 1067.97 217.132C1071.02 222.437 1070.51 229.404 1068.63 235.041C1067.37 238.814 1064.61 244.195 1060.03 244.247C1054.29 244.313 1054.01 237.218 1053.9 233.07C1053.75 227.556 1053.06 222.753 1048.71 218.994C1047.7 218.119 1046.59 217.348 1045.57 216.485C1043.97 215.133 1042.2 213.75 1041.99 211.514C1041.71 208.429 1043.45 207.874 1046.11 208.447C1046.56 208.545 1051.12 210.593 1050.45 208.974C1050.24 208.479 1049.49 208.087 1048.54 207.794C1046.07 207.526 1043.14 207.216 1042.29 207.401C1033.19 209.399 1029.64 222.016 1028.7 230.032C1028.6 230.898 1028.52 231.766 1028.44 232.635Z" fill="#69A1AC"/>
</g>
<g opacity="0.5">
<path opacity="0.5" fill-rule="evenodd" clip-rule="evenodd" d="M855.523 82.62C857.346 80.0205 860.729 73.4187 863.295 72.4898C864.947 71.8916 864.465 78.0803 864.486 79.2604C864.565 83.8258 864.121 88.3623 863.572 92.8894C862.583 101.054 859.35 108.325 854.915 115.274C852.634 118.85 849.957 122.469 846.25 124.7C844.544 125.727 842.49 125.899 840.805 126.785C838.843 127.815 839.911 126.982 839.027 129.027C837.799 131.867 837.406 135.53 836.837 138.561C834.228 152.47 827.911 225.999 829.006 240.147C829.103 241.401 827.355 241.701 827.267 240.17C826.804 232.053 830.818 175.839 832.843 157.455C834.869 139.072 836.918 122.831 838.974 116.471C841.467 108.755 845.97 99.4755 849.718 92.2799C851.459 88.9369 853.357 85.7091 855.523 82.62Z" fill="#69A1AC"/>
<path opacity="0.5" fill-rule="evenodd" clip-rule="evenodd" d="M869.053 172.785C873.797 169.302 878.931 175.875 874.639 179.359C872.266 181.284 869.785 180.599 868.388 178.995C867.482 180.1 866.633 181.255 865.818 182.231C863.334 185.206 860.986 188.251 858.742 191.367C854.081 197.841 850.086 204.681 845.909 211.396C841.787 218.023 837.698 224.683 833.962 231.478C830.797 237.235 826.579 244.008 825.495 250.319C827.139 236.934 833.378 224.068 840.807 212.268C848.175 200.565 856.632 187.784 868.041 178.549C866.88 176.841 866.848 174.403 869.053 172.785Z" fill="#C1DEE2"/>
<path opacity="0.5" fill-rule="evenodd" clip-rule="evenodd" d="M779.043 140.138C781.697 140.658 786.035 146.663 788.223 148.951C790.823 151.67 793.182 154.568 795.406 157.605C800.193 164.14 804.475 171.089 808.115 178.336C814.051 190.15 818.805 202.277 822.256 215.141C824.369 223.015 825.736 231.177 826.547 239.282C826.7 240.81 828.302 252.595 825.993 252.913C823.917 253.199 824.558 243.964 824.458 242.708C823.326 228.537 819.933 214.749 815.214 201.392C814.186 198.483 813.231 194.919 811.587 192.3C810.404 190.414 811.579 191.072 809.499 190.358C807.712 189.745 805.677 189.895 803.848 189.144C799.874 187.514 796.692 184.351 793.903 181.168C788.483 174.983 784.188 168.292 781.949 160.367C780.707 155.973 779.566 151.554 778.932 147.024C778.768 145.853 777.333 139.804 779.043 140.138Z" fill="#69A1AC"/>
<path opacity="0.5" fill-rule="evenodd" clip-rule="evenodd" d="M789.518 40.2238C799.517 57.5656 807.733 76.6151 813.039 95.9095C816.253 107.6 818.501 119.596 820.735 131.505C824.193 149.945 827.464 168.383 828.395 187.151C829.331 206.027 831.182 227.798 825.001 245.979C828.088 227.521 825.149 207.873 824.629 189.3C824.38 180.434 823.66 171.654 822.714 162.839C821.797 154.289 820.298 145.779 818.902 137.295C818.223 133.164 817.509 129.038 816.782 124.915C816.565 123.685 816.473 120.035 815.693 119.194C814.907 118.348 810.901 118.004 809.643 117.383C807.11 116.133 804.727 114.357 802.618 112.481C798.576 108.884 795.059 104.185 792.283 99.5519C785.861 88.8327 783.293 75.7513 783.423 63.3371C783.448 60.9268 787.324 34.9719 785.767 34.6145C785.861 34.5047 785.95 34.3913 786.033 34.2734C787.212 36.2468 788.368 38.2336 789.518 40.2238Z" fill="#89C5CC"/>
<path opacity="0.5" fill-rule="evenodd" clip-rule="evenodd" d="M897.437 102.768C897.591 102.546 898.595 100.998 898.09 101.097C899.119 100.896 896.674 102.804 899.239 101.633C898.021 102.783 898.724 104.278 898.74 105.826C898.766 108.34 898.346 110.833 897.872 113.293C897.124 117.181 896.01 120.961 894.393 124.578C890.867 132.459 884.881 140.046 877.774 144.973C874.266 147.405 870.828 148.234 866.826 149.354C864.299 150.061 864.098 151.369 862.757 153.821C859.964 158.93 857.22 164.02 854.757 169.301C851.816 175.608 848.961 181.921 846.268 188.338C837.194 209.953 829.81 232.347 825.931 255.523C825.836 241.866 828.995 227.8 832.98 214.782C835.883 205.298 839.662 196.155 843.693 187.105C844.669 184.912 846.149 182.092 846.564 179.671C846.855 177.975 845.967 176.344 845.56 174.558C843.975 167.6 844.089 159.806 845.48 152.811C847.015 145.098 851.453 141.518 858.96 140.426C861.705 140.026 865.195 140.173 867.712 139.002C870.455 137.727 871.586 133.536 873.146 130.846C877.335 123.621 882.312 116.691 888.028 110.602C889.61 108.916 891.312 107.361 893.117 105.919C894.256 105.01 896.661 103.889 897.437 102.768Z" fill="#89C5CC"/>
<path opacity="0.5" fill-rule="evenodd" clip-rule="evenodd" d="M813.259 240.773H839.901C841.099 240.773 842.07 241.745 842.07 242.943C842.07 243.048 842.062 243.154 842.046 243.259L839.987 257.223C839.36 261.48 835.707 264.634 831.404 264.634H821.755C817.453 264.634 813.8 261.48 813.173 257.223L811.113 243.259C810.939 242.074 811.758 240.971 812.943 240.797C813.047 240.781 813.153 240.773 813.259 240.773Z" fill="#C1DEE2"/>
</g>
<path fill-rule="evenodd" clip-rule="evenodd" d="M802.658 242.15C802.3 242.77 801.98 243.402 801.698 244.044C801.688 242.722 801.761 241.391 801.96 240.041C802.301 237.729 802.822 235.429 803.312 233.133C803.664 231.482 803.642 228.518 804.977 227.203C805.343 226.919 805.432 227.477 805.432 227.719C805.436 227.77 805.43 226.731 805.075 226.912C802.962 228.003 802.278 231.435 801.601 233.153C800.614 235.66 799.775 238.224 799.429 240.833C799.341 241.492 799.294 242.151 799.283 242.809C799.211 242.633 799.144 242.455 799.069 242.28C797.85 239.42 796.204 236.629 794.151 234.055C793.646 233.421 787.294 227.172 786.797 228.129C786.846 228.268 786.948 228.383 787.105 228.475C787.114 228.485 787.114 228.479 787.109 228.464C787.482 229.067 788.543 229.997 788.873 230.526C789.705 231.855 790.351 233.265 791.008 234.648C792.395 237.572 793.683 240.525 794.93 243.484C795.221 244.174 795.524 244.859 795.833 245.542C792.648 240.948 788.399 236.778 782.551 234.39C784.548 235.406 785.858 237.319 787.207 238.783C788.834 240.549 790.548 242.267 792.178 244.031C794.1 246.112 796.363 248.303 798.212 250.606C800.003 254.367 801.744 258.132 802.819 262.086C802.378 260.72 802.784 258.832 802.709 257.399C802.649 256.258 802.516 255.126 802.333 253.996C802.559 254.506 802.753 255.016 802.842 255.49C802.761 254.694 802.668 253.904 802.569 253.117C802.824 252.381 803.076 251.694 803.245 251.128C804.115 248.226 805.15 245.373 806.56 242.592C807.865 240.02 809.362 237.48 810.993 235.018C811.754 233.87 812.525 232.727 813.291 231.581C813.793 230.831 814.27 229.63 814.969 228.912C810.454 233.04 805.522 237.197 802.658 242.15Z" fill="#F2F2F2"/>
<path fill-rule="evenodd" clip-rule="evenodd" d="M1076.5 53.7184C1075.2 49.4013 1072.16 46.0224 1069.01 42.9265C1062.87 36.8994 1059.57 33.1729 1057.38 24.3565C1056.09 19.1713 1054.78 13.6766 1050.7 9.91471C1047.73 7.17522 1042.61 4.87355 1038.64 6.83525C1032.52 10.4854 1030.88 17.9762 1031.5 24.6838C1032.26 32.9973 1036.15 38.1235 1043.6 41.1855C1047.81 42.9101 1050.6 45.1856 1052.88 49.1508C1054.71 52.3214 1055.77 56.2917 1058.07 59.166C1061.5 63.4626 1065.79 65.3727 1071.08 64.6589C1066.12 55.5437 1060.33 46.3428 1053.35 38.6681C1052.7 37.8965 1048.84 34.9433 1049.62 33.6284C1050.48 32.1805 1054.44 37.6193 1054.41 37.5864C1056.44 39.9154 1058.31 42.3903 1060.16 44.889C1060.15 44.8914 1060.15 44.8928 1060.14 44.8953C1062.04 47.4593 1063.92 50.061 1065.77 52.6954C1066.52 53.8097 1067.24 54.9383 1067.94 56.0951C1068.96 57.7927 1070.58 62.6106 1072.25 63.6545C1072.61 63.8776 1072.94 64.0024 1073.25 64.0538C1074.39 65.9212 1075.5 67.8035 1076.56 69.708C1079.31 74.6822 1081.68 79.9343 1082.76 85.5502C1083.08 87.1893 1082.85 93.3207 1083.97 94.504C1086.02 96.6684 1085.42 92.5005 1085.3 91.2425C1084.28 80.8248 1080.54 71.9495 1075.11 63.1915C1076.78 61.0128 1077.02 55.4676 1076.5 53.7184Z" fill="#E1E9D9"/>
<path fill-rule="evenodd" clip-rule="evenodd" d="M1006.44 58.7534C1008.6 56.2124 1013.78 55.7812 1016.95 55.9513C1020.87 56.1618 1024.9 57.1168 1028.64 58.2717C1034.78 60.1739 1040.76 63.6452 1046.17 67.0051C1046.82 67.4099 1054.86 72.245 1054.15 73.0936C1053.45 73.9343 1045.56 68.1909 1043.8 67.201C1040.04 65.088 1036.6 62.5891 1032.46 61.1938C1028.18 59.7487 1023.65 59.1766 1019.14 59.216C1018.57 59.2212 1016.68 58.8181 1016.64 59.6735C1016.6 60.5101 1019.72 60.0736 1020.27 60.0786C1022.54 60.0995 1024.83 60.3134 1027.07 60.7073C1031.27 61.4451 1035.21 62.9317 1038.81 65.2117C1037.81 67.5443 1035.4 68.6199 1032.88 68.0362C1030.7 67.5314 1028.57 66.287 1026.44 65.9271C1024.97 65.6793 1023.5 65.8267 1022.07 66.241C1018.31 67.3341 1016.14 69.5734 1012.01 68.0157C1008.76 66.7947 1003.34 62.4076 1006.44 58.7534Z" fill="#D9DFD1"/>
<path fill-rule="evenodd" clip-rule="evenodd" d="M1008.88 34.7082H1009.9C1009.83 33.4134 1009.73 32.1207 1009.52 30.8404C1008.7 26.0414 1006.13 18.9929 1000.51 18.214C1000.3 18.1849 999.537 18.18 998.612 18.2337C998.174 17.9915 997.683 17.845 997.166 17.8113C992.378 17.4621 987.031 21.2838 984.721 25.2609C982.86 28.4675 983.173 32.6782 984.323 36.0849C985.093 38.3656 986.774 41.6174 989.577 41.6491C993.084 41.6887 993.253 37.4007 993.321 34.894C993.411 31.5613 993.836 28.6581 996.491 26.3864C997.109 25.8572 997.785 25.3917 998.41 24.8698C999.389 24.053 1000.47 23.2166 1000.6 21.8653C1000.77 20.001 999.706 19.6654 998.082 20.0118C997.806 20.0708 995.017 21.3088 995.43 20.3303C995.556 20.0313 996.016 19.7944 996.597 19.6169C998.101 19.4551 999.894 19.2674 1000.41 19.3796C1005.97 20.5873 1008.14 28.2129 1008.72 33.0578C1008.78 33.6064 1008.83 34.1569 1008.88 34.7082H1008.88Z" fill="#F2F2F2"/>
</g>
<path fill-rule="evenodd" clip-rule="evenodd" d="M937.506 104.13C940.186 100.979 942 97.1179 941.697 92.7914C940.824 80.3256 923.498 83.0679 920.128 89.3596C916.758 95.6512 917.158 111.611 921.514 112.735C923.251 113.183 926.951 112.085 930.718 109.811L928.354 126.562H942.312L937.506 104.13Z" fill="#CFAF92"/>
<path fill-rule="evenodd" clip-rule="evenodd" d="M928.084 82.1065C929.923 81.8044 934.877 81.5966 935.79 81.5967C936.374 81.5967 937.006 81.7303 937.352 81.1935C937.635 80.7539 937.532 80.0103 937.616 79.5002C937.714 78.9075 937.854 78.3225 937.995 77.739C938.396 76.0786 939.002 74.4989 939.851 73.0157C941.443 70.2332 943.776 68.0536 946.722 66.7853C949.974 65.3849 953.655 65.0643 957.153 65.3483C960.897 65.6522 964.286 66.8901 967.821 68.0549C971.189 69.165 974.717 69.6019 978.24 69.0598C981.79 68.5137 984.472 66.5868 987.466 64.7579C990.531 62.8856 994.034 61.661 997.657 61.9425C1001.04 62.2054 1004.16 63.6042 1006.95 65.4728C1009.57 67.221 1011.73 69.3245 1012.95 72.2848C1014.26 75.4693 1014.26 78.9648 1012.1 81.7791C1008.98 85.8586 1003.17 86.9135 998.346 86.8086C995.554 86.7481 992.811 86.2376 990.175 85.3088C986.659 84.0702 983.62 81.9708 980.331 80.2674C978.787 79.4681 977.192 78.8116 975.519 78.3388C973.896 77.8797 972.298 77.6692 970.828 78.6511C969.274 79.6899 967.881 80.7104 966.103 81.3607C964.397 81.9846 962.59 82.3336 960.772 82.3195C957.236 82.2921 953.75 81.1885 950.315 80.4493C947.514 79.8466 944.517 79.2459 941.662 79.8253C940.47 80.0671 938.73 80.5662 938.299 81.8065C945.543 83.1213 948.387 92.0934 946.345 98.6798C945.243 102.235 938.619 106.39 936.043 104.521C934.411 103.337 935.402 101.783 936.043 100.757C937.271 98.792 937.691 96.2679 935.419 94.8998C933.459 93.7199 931.398 96.5219 931.359 96.5188C930.821 96.4763 926.167 93.84 922.96 89.9929C919.797 90.1807 919.317 88.0916 920.072 86.383C920.827 84.6745 925.542 82.5243 928.084 82.1065Z" fill="#191847"/>
<path d="M948.127 276.26C923.395 276.26 903.346 257.092 903.346 233.447C903.346 209.801 923.395 190.633 948.127 190.633C972.859 190.633 992.909 209.801 992.909 233.447C992.909 257.092 972.859 276.26 948.127 276.26Z" fill="#C5CFD6"/>
<path fill-rule="evenodd" clip-rule="evenodd" d="M863.502 269.657C870.954 253.138 876.343 238.754 878.506 231.166C882.209 218.171 885.027 206.737 885.739 202.467C887.437 192.285 872.676 191.692 870.725 196.752C867.771 204.412 862.616 229.577 856.421 267.588L863.502 269.657ZM949.937 217.817C943.1 215.11 919.158 206.639 907.61 204.243C904.292 203.554 901.076 202.915 898.052 202.337C889.064 200.618 884.408 216.858 893.064 218.106C914.621 221.213 945.183 224.422 947.798 224.782C951.464 225.287 954.234 219.518 949.937 217.817Z" fill="#CFAF92"/>
<path fill-rule="evenodd" clip-rule="evenodd" d="M892.536 197.866L929.517 179.011V174.906H925.119C889.341 184.037 871.059 189.889 870.272 192.462C870.263 192.489 870.256 192.517 870.249 192.545C870.231 192.568 870.213 192.592 870.196 192.616C863.105 202.383 858.859 250.064 857.465 253.635L871.052 255.665C876.249 236.362 892.877 222.915 892.435 199.796C892.555 199.118 892.585 198.475 892.536 197.866Z" fill="#1F28CF"/>
<path fill-rule="evenodd" clip-rule="evenodd" d="M926.444 209.064C929.828 208.386 932.944 207.78 935.61 207.312C952.832 204.286 957.855 195.053 954.885 174.906L923.153 174.906C917.969 176.398 891.031 187.712 877.054 193.731C867.804 197.714 870.72 212.072 875.958 215.809C875.987 216.038 876.081 216.194 876.249 216.264C904.429 227.962 926.722 221.824 934.169 223.785L937.614 212.902L926.444 209.064Z" fill="#2B44FF"/>
<path fill-rule="evenodd" clip-rule="evenodd" d="M947.595 216.086C949.442 216.264 950.754 216.542 951.529 216.921C952.472 217.382 953.772 218.211 955.428 219.41C954.895 220.505 950.104 230.347 941.055 248.935C938.147 248.464 936.994 247.352 937.597 245.6C938.2 243.849 938.686 242.386 939.055 241.213L939.623 224.504C939.634 224.182 939.904 223.931 940.225 223.942C940.23 223.942 940.236 223.942 940.241 223.943L942.808 224.105C944.267 222.924 945.229 221.854 945.695 220.898C946.073 220.12 946.282 218.894 946.322 217.217L946.322 217.217C946.337 216.574 946.87 216.065 947.512 216.081C947.54 216.082 947.568 216.083 947.595 216.086Z" fill="#E4E4E4"/>
<path fill-rule="evenodd" clip-rule="evenodd" d="M893.459 158.959L872.386 149.69C868.694 146.006 865.129 143.205 861.691 141.289C860.663 140.961 858.907 140.862 860.781 143.604C862.655 146.345 864.503 149.313 863.754 150.273C863.005 151.234 860.836 150.174 859.979 151.736C859.408 152.778 863.064 154.023 870.947 155.474L886.73 167.593L893.459 158.959ZM978.655 161.513L966.738 163.881C978.723 186.252 985.15 198.109 986.02 199.451C987.977 202.471 986.151 208.006 985.477 210.921C989.708 211.907 988.039 205.529 993.393 206.861C998.28 208.076 1002.42 211.196 1006.98 206.989C1007.54 206.471 1007.95 204.855 1006.04 204.026C1001.28 201.96 994.251 198.091 993.111 196.59C991.556 194.542 986.738 182.849 978.655 161.513Z" fill="#CFAF92"/>
<path fill-rule="evenodd" clip-rule="evenodd" d="M934.347 116.853L929.318 115.989C918.364 126.632 913.894 152.2 906.595 155.584C899.693 158.784 889.909 155.687 878.28 151.507L874.719 159.476C885.285 170.926 907.795 180.599 916.92 175.077C931.508 166.248 934.876 134.714 934.347 116.853Z" fill="#DB2721"/>
<path fill-rule="evenodd" clip-rule="evenodd" d="M956.27 180.151C936.105 180.151 921.273 180.151 911.772 180.151C909.739 180.151 910.122 177.21 910.416 175.727C913.808 158.601 927.05 140.14 927.05 115.762L939.885 113.746C950.502 130.847 954.173 151.902 956.27 180.151Z" fill="#DDE3E9"/>
<path fill-rule="evenodd" clip-rule="evenodd" d="M960.707 162.812C969.778 179.2 977.403 190.999 983.582 198.209L992.909 196.379C986.901 159.059 969.502 131.515 940.713 113.746L940.567 113.746L935.631 113.746C924.109 153.086 920.932 179.299 926.101 192.384H966.156C965.522 182.809 963.49 172.684 960.707 162.812H960.707Z" fill="#FF4133"/>
</g>
<path d="M32.0688 112.076C32.0688 109.124 27.7728 110.06 27.7728 108.38C27.7728 107.696 28.2648 107.372 28.9248 107.396C29.6448 107.408 30.0888 107.84 30.1248 108.392H31.9728C31.8648 106.88 30.6888 106.004 28.9728 106.004C27.2448 106.004 26.0208 106.916 26.0208 108.428C26.0088 111.464 30.3288 110.372 30.3288 112.184C30.3288 112.784 29.8608 113.204 29.0688 113.204C28.2888 113.204 27.8448 112.76 27.7968 112.088H25.9968C26.0208 113.672 27.3648 114.584 29.1048 114.584C31.0128 114.584 32.0688 113.396 32.0688 112.076ZM39.8013 107.852H38.1093V111.512C38.1093 112.58 37.5333 113.156 36.6213 113.156C35.7333 113.156 35.1453 112.58 35.1453 111.512V107.852H33.4653V111.752C33.4653 113.576 34.5813 114.584 36.1293 114.584C36.9573 114.584 37.6893 114.224 38.1093 113.66V114.5H39.8013V107.852ZM41.0269 111.152C41.0269 113.228 42.3709 114.608 44.0629 114.608C45.1069 114.608 45.8509 114.128 46.2469 113.516V114.5H47.9509V105.62H46.2469V108.776C45.7909 108.152 44.9509 107.744 44.0749 107.744C42.3709 107.744 41.0269 109.076 41.0269 111.152ZM46.2589 111.176C46.2589 112.436 45.4189 113.132 44.4949 113.132C43.5949 113.132 42.7429 112.412 42.7429 111.152C42.7429 109.892 43.5949 109.22 44.4949 109.22C45.4189 109.22 46.2589 109.916 46.2589 111.176ZM49.1597 111.152C49.1597 113.228 50.5037 114.608 52.1837 114.608C53.2397 114.608 53.9957 114.104 54.3917 113.528V114.5H56.0837V107.852H54.3917V108.8C53.9957 108.248 53.2637 107.744 52.1957 107.744C50.5037 107.744 49.1597 109.076 49.1597 111.152ZM54.3917 111.176C54.3917 112.436 53.5517 113.132 52.6277 113.132C51.7277 113.132 50.8757 112.412 50.8757 111.152C50.8757 109.892 51.7277 109.22 52.6277 109.22C53.5517 109.22 54.3917 109.916 54.3917 111.176ZM57.7245 114.5H59.4045V110.828C59.4045 109.76 59.9925 109.184 60.9045 109.184C61.7925 109.184 62.3805 109.76 62.3805 110.828V114.5H64.0605V110.6C64.0605 108.764 62.9685 107.756 61.4685 107.756C60.5805 107.756 59.8365 108.116 59.4045 108.68V105.62H57.7245V114.5ZM68.5175 114.5H70.1975V109.052L72.4535 114.5H73.7255L75.9695 109.052V114.5H77.6495V106.124H75.7535L73.0895 112.352L70.4255 106.124H68.5175V114.5ZM78.8784 111.152C78.8784 113.228 80.2224 114.608 81.9024 114.608C82.9584 114.608 83.7144 114.104 84.1104 113.528V114.5H85.8024V107.852H84.1104V108.8C83.7144 108.248 82.9824 107.744 81.9144 107.744C80.2224 107.744 78.8784 109.076 78.8784 111.152ZM84.1104 111.176C84.1104 112.436 83.2704 113.132 82.3464 113.132C81.4464 113.132 80.5944 112.412 80.5944 111.152C80.5944 109.892 81.4464 109.22 82.3464 109.22C83.2704 109.22 84.1104 109.916 84.1104 111.176ZM87.4432 114.5H89.1232V111.668L91.3792 114.5H93.5632L90.6112 111.188L93.5392 107.852H91.3552L89.1232 110.672V105.62H87.4432V114.5ZM94.019 111.152C94.019 113.228 95.363 114.608 97.043 114.608C98.099 114.608 98.855 114.104 99.251 113.528V114.5H100.943V107.852H99.251V108.8C98.855 108.248 98.123 107.744 97.055 107.744C95.363 107.744 94.019 109.076 94.019 111.152ZM99.251 111.176C99.251 112.436 98.411 113.132 97.487 113.132C96.587 113.132 95.735 112.412 95.735 111.152C95.735 109.892 96.587 109.22 97.487 109.22C98.411 109.22 99.251 109.916 99.251 111.176ZM107.24 114.5H108.92V110.6C108.92 108.764 107.816 107.756 106.268 107.756C105.416 107.756 104.696 108.116 104.264 108.68V107.852H102.584V114.5H104.264V110.828C104.264 109.76 104.852 109.184 105.764 109.184C106.652 109.184 107.24 109.76 107.24 110.828V114.5ZM118.645 114.5H120.325V106.124H118.645V109.568H115.057V106.124H113.377V114.5H115.057V110.936H118.645V114.5ZM121.546 111.152C121.546 113.228 122.89 114.608 124.57 114.608C125.626 114.608 126.382 114.104 126.778 113.528V114.5H128.47V107.852H126.778V108.8C126.382 108.248 125.65 107.744 124.582 107.744C122.89 107.744 121.546 109.076 121.546 111.152ZM126.778 111.176C126.778 112.436 125.938 113.132 125.014 113.132C124.114 113.132 123.262 112.412 123.262 111.152C123.262 109.892 124.114 109.22 125.014 109.22C125.938 109.22 126.778 109.916 126.778 111.176ZM131.791 111.188C131.791 109.904 132.391 109.52 133.387 109.52H133.831V107.756C132.907 107.756 132.211 108.2 131.791 108.884V107.852H130.111V114.5H131.791V111.188ZM134.963 114.5H136.643V107.852H134.963V114.5ZM135.815 107.06C136.403 107.06 136.847 106.628 136.847 106.076C136.847 105.524 136.403 105.092 135.815 105.092C135.215 105.092 134.783 105.524 134.783 106.076C134.783 106.628 135.215 107.06 135.815 107.06ZM141.162 114.5H142.842V107.852H141.162V114.5ZM142.014 107.06C142.602 107.06 143.046 106.628 143.046 106.076C143.046 105.524 142.602 105.092 142.014 105.092C141.414 105.092 140.982 105.524 140.982 106.076C140.982 106.628 141.414 107.06 142.014 107.06ZM149.158 114.5H150.838V110.6C150.838 108.764 149.734 107.756 148.186 107.756C147.334 107.756 146.614 108.116 146.182 108.68V107.852H144.502V114.5H146.182V110.828C146.182 109.76 146.77 109.184 147.682 109.184C148.57 109.184 149.158 109.76 149.158 110.828V114.5ZM152.435 114.5H154.115V107.852H152.435V114.5ZM153.287 107.06C153.875 107.06 154.319 106.628 154.319 106.076C154.319 105.524 153.875 105.092 153.287 105.092C152.687 105.092 152.255 105.524 152.255 106.076C152.255 106.628 152.687 107.06 153.287 107.06ZM155.367 108.368H156.951C156.951 107.66 157.383 107.24 158.115 107.24C158.823 107.24 159.255 107.672 159.255 108.368C159.267 109.448 158.331 109.676 157.083 109.676H156.543L156.603 111.716H158.079L158.127 110.792C159.723 110.792 160.887 110 160.887 108.38C160.887 106.76 159.747 105.836 158.115 105.836C156.363 105.836 155.343 106.916 155.367 108.368ZM158.355 113.6C158.355 113.048 157.923 112.616 157.335 112.616C156.723 112.616 156.291 113.048 156.291 113.6C156.291 114.152 156.723 114.584 157.335 114.584C157.923 114.584 158.355 114.152 158.355 113.6ZM30.9408 133.5H33.0648L29.5128 129.276L32.9688 125.124H30.9408L27.8928 128.88V125.124H26.2128V133.5H27.8928V129.768L30.9408 133.5ZM33.7378 130.152C33.7378 132.228 35.0818 133.608 36.7618 133.608C37.8178 133.608 38.5738 133.104 38.9698 132.528V133.5H40.6618V126.852H38.9698V127.8C38.5738 127.248 37.8418 126.744 36.7738 126.744C35.0818 126.744 33.7378 128.076 33.7378 130.152ZM38.9698 130.176C38.9698 131.436 38.1298 132.132 37.2058 132.132C36.3058 132.132 35.4538 131.412 35.4538 130.152C35.4538 128.892 36.3058 128.22 37.2058 128.22C38.1298 128.22 38.9698 128.916 38.9698 130.176ZM42.3026 133.5H43.9826V124.62H42.3026V133.5ZM45.2105 130.152C45.2105 132.228 46.5545 133.608 48.2345 133.608C49.2905 133.608 50.0465 133.104 50.4425 132.528V133.5H52.1345V126.852H50.4425V127.8C50.0465 127.248 49.3145 126.744 48.2465 126.744C46.5545 126.744 45.2105 128.076 45.2105 130.152ZM50.4425 130.176C50.4425 131.436 49.6025 132.132 48.6785 132.132C47.7785 132.132 46.9265 131.412 46.9265 130.152C46.9265 128.892 47.7785 128.22 48.6785 128.22C49.6025 128.22 50.4425 128.916 50.4425 130.176ZM60.0513 126.852H58.3593V130.512C58.3593 131.58 57.7833 132.156 56.8713 132.156C55.9833 132.156 55.3953 131.58 55.3953 130.512V126.852H53.7153V130.752C53.7153 132.576 54.8313 133.584 56.3793 133.584C57.2073 133.584 57.9393 133.224 58.3593 132.66V133.5H60.0513V126.852ZM69.7282 131.604C69.6802 129.168 65.9962 129.924 65.9962 128.712C65.9962 128.328 66.3202 128.076 66.9442 128.076C67.6042 128.076 68.0122 128.424 68.0602 128.94H69.6682C69.5722 127.62 68.6002 126.744 66.9922 126.744C65.3482 126.744 64.3642 127.632 64.3642 128.736C64.3642 131.172 68.1202 130.416 68.1202 131.604C68.1202 131.988 67.7602 132.288 67.1002 132.288C66.4282 132.288 65.9602 131.904 65.9002 131.4H64.2082C64.2802 132.636 65.4442 133.608 67.1122 133.608C68.7322 133.608 69.7282 132.744 69.7282 131.604ZM77.3833 126.852H75.6913V130.512C75.6913 131.58 75.1153 132.156 74.2033 132.156C73.3153 132.156 72.7273 131.58 72.7273 130.512V126.852H71.0473V130.752C71.0473 132.576 72.1633 133.584 73.7113 133.584C74.5393 133.584 75.2713 133.224 75.6913 132.66V133.5H77.3833V126.852ZM78.6089 130.152C78.6089 132.228 79.9529 133.608 81.6449 133.608C82.6889 133.608 83.4329 133.128 83.8289 132.516V133.5H85.5329V124.62H83.8289V127.776C83.3729 127.152 82.5329 126.744 81.6569 126.744C79.9529 126.744 78.6089 128.076 78.6089 130.152ZM83.8409 130.176C83.8409 131.436 83.0009 132.132 82.0769 132.132C81.1769 132.132 80.3249 131.412 80.3249 130.152C80.3249 128.892 81.1769 128.22 82.0769 128.22C83.0009 128.22 83.8409 128.916 83.8409 130.176ZM86.7417 130.152C86.7417 132.228 88.0857 133.608 89.7657 133.608C90.8217 133.608 91.5777 133.104 91.9737 132.528V133.5H93.6657V126.852H91.9737V127.8C91.5777 127.248 90.8457 126.744 89.7777 126.744C88.0857 126.744 86.7417 128.076 86.7417 130.152ZM91.9737 130.176C91.9737 131.436 91.1337 132.132 90.2097 132.132C89.3097 132.132 88.4577 131.412 88.4577 130.152C88.4577 128.892 89.3097 128.22 90.2097 128.22C91.1337 128.22 91.9737 128.916 91.9737 130.176ZM95.3065 133.5H96.9865V129.828C96.9865 128.76 97.5745 128.184 98.4865 128.184C99.3745 128.184 99.9625 128.76 99.9625 129.828V133.5H101.643V129.6C101.643 127.764 100.551 126.756 99.0505 126.756C98.1625 126.756 97.4185 127.116 96.9865 127.68V124.62H95.3065V133.5ZM108.931 131.496L107.215 126.852H105.331L107.995 133.332L106.555 136.644H108.343L112.459 126.852H110.671L108.931 131.496ZM119.641 126.852H117.949V130.512C117.949 131.58 117.373 132.156 116.461 132.156C115.573 132.156 114.985 131.58 114.985 130.512V126.852H113.305V130.752C113.305 132.576 114.421 133.584 115.969 133.584C116.797 133.584 117.529 133.224 117.949 132.66V133.5H119.641V126.852ZM121.299 133.5H122.979V130.668L125.235 133.5H127.419L124.467 130.188L127.395 126.852H125.211L122.979 129.672V124.62H121.299V133.5ZM130.734 130.152C130.734 132.228 132.078 133.608 133.77 133.608C134.814 133.608 135.558 133.128 135.954 132.516V133.5H137.658V124.62H135.954V127.776C135.498 127.152 134.658 126.744 133.782 126.744C132.078 126.744 130.734 128.076 130.734 130.152ZM135.966 130.176C135.966 131.436 135.126 132.132 134.202 132.132C133.302 132.132 132.45 131.412 132.45 130.152C132.45 128.892 133.302 128.22 134.202 128.22C135.126 128.22 135.966 128.916 135.966 130.176ZM139.299 133.5H140.979V126.852H139.299V133.5ZM140.151 126.06C140.739 126.06 141.183 125.628 141.183 125.076C141.183 124.524 140.739 124.092 140.151 124.092C139.551 124.092 139.119 124.524 139.119 125.076C139.119 125.628 139.551 126.06 140.151 126.06ZM142.207 130.176C142.207 132.264 143.575 133.608 145.495 133.608C147.151 133.608 148.267 132.672 148.627 131.256H146.815C146.611 131.856 146.179 132.168 145.483 132.168C144.547 132.168 143.923 131.472 143.923 130.176C143.923 128.88 144.547 128.172 145.483 128.172C146.179 128.172 146.623 128.532 146.815 129.096H148.627C148.267 127.608 147.151 126.744 145.495 126.744C143.575 126.744 142.207 128.088 142.207 130.176ZM149.857 133.5H151.537V129.828C151.537 128.76 152.125 128.184 153.037 128.184C153.925 128.184 154.513 128.76 154.513 129.828V133.5H156.193V129.6C156.193 127.764 155.101 126.756 153.601 126.756C152.713 126.756 151.969 127.116 151.537 127.68V124.62H149.857V133.5ZM160.647 128.124C161.511 128.124 162.207 128.676 162.231 129.552H159.075C159.207 128.64 159.843 128.124 160.647 128.124ZM163.803 131.412H161.991C161.775 131.856 161.379 132.216 160.659 132.216C159.819 132.216 159.147 131.664 159.063 130.68H163.923C163.959 130.464 163.971 130.248 163.971 130.032C163.971 128.052 162.615 126.744 160.695 126.744C158.727 126.744 157.359 128.076 157.359 130.176C157.359 132.264 158.763 133.608 160.695 133.608C162.339 133.608 163.443 132.636 163.803 131.412ZM164.765 130.176C164.765 132.264 166.133 133.608 168.053 133.608C169.709 133.608 170.825 132.672 171.185 131.256H169.373C169.169 131.856 168.737 132.168 168.041 132.168C167.105 132.168 166.481 131.472 166.481 130.176C166.481 128.88 167.105 128.172 168.041 128.172C168.737 128.172 169.181 128.532 169.373 129.096H171.185C170.825 127.608 169.709 126.744 168.053 126.744C166.133 126.744 164.765 128.088 164.765 130.176ZM172.416 133.5H174.096V130.668L176.352 133.5H178.536L175.584 130.188L178.512 126.852H176.328L174.096 129.672V124.62H172.416V133.5ZM181.575 126.852L184.023 133.5H186.063L188.523 126.852H186.735L185.055 131.952L183.375 126.852H181.575ZM192.323 128.124C193.187 128.124 193.883 128.676 193.907 129.552H190.751C190.883 128.64 191.519 128.124 192.323 128.124ZM195.479 131.412H193.667C193.451 131.856 193.055 132.216 192.335 132.216C191.495 132.216 190.823 131.664 190.739 130.68H195.599C195.635 130.464 195.647 130.248 195.647 130.032C195.647 128.052 194.291 126.744 192.371 126.744C190.403 126.744 189.035 128.076 189.035 130.176C189.035 132.264 190.439 133.608 192.371 133.608C194.015 133.608 195.119 132.636 195.479 131.412ZM198.553 130.188C198.553 128.904 199.153 128.52 200.149 128.52H200.593V126.756C199.669 126.756 198.973 127.2 198.553 127.884V126.852H196.873V133.5H198.553V130.188ZM201.724 133.5H203.404V126.852H201.724V133.5ZM202.576 126.06C203.164 126.06 203.608 125.628 203.608 125.076C203.608 124.524 203.164 124.092 202.576 124.092C201.976 124.092 201.544 124.524 201.544 125.076C201.544 125.628 201.976 126.06 202.576 126.06ZM205.244 133.5H206.948V128.232H208.112V126.852H206.948V126.576C206.948 125.832 207.224 125.568 208.04 125.592V124.176C206.168 124.128 205.244 124.884 205.244 126.516V126.852H204.488V128.232H205.244V133.5ZM209.201 133.5H210.881V126.852H209.201V133.5ZM210.053 126.06C210.641 126.06 211.085 125.628 211.085 125.076C211.085 124.524 210.641 124.092 210.053 124.092C209.453 124.092 209.021 124.524 209.021 125.076C209.021 125.628 209.453 126.06 210.053 126.06ZM212.541 133.5H214.221V130.668L216.477 133.5H218.661L215.709 130.188L218.637 126.852H216.453L214.221 129.672V124.62H212.541V133.5ZM219.117 130.152C219.117 132.228 220.461 133.608 222.141 133.608C223.197 133.608 223.953 133.104 224.349 132.528V133.5H226.041V126.852H224.349V127.8C223.953 127.248 223.221 126.744 222.153 126.744C220.461 126.744 219.117 128.076 219.117 130.152ZM224.349 130.176C224.349 131.436 223.509 132.132 222.585 132.132C221.685 132.132 220.833 131.412 220.833 130.152C220.833 128.892 221.685 128.22 222.585 128.22C223.509 128.22 224.349 128.916 224.349 130.176ZM232.842 131.604C232.794 129.168 229.11 129.924 229.11 128.712C229.11 128.328 229.434 128.076 230.058 128.076C230.718 128.076 231.126 128.424 231.174 128.94H232.782C232.686 127.62 231.714 126.744 230.106 126.744C228.462 126.744 227.478 127.632 227.478 128.736C227.478 131.172 231.234 130.416 231.234 131.604C231.234 131.988 230.874 132.288 230.214 132.288C229.542 132.288 229.074 131.904 229.014 131.4H227.322C227.394 132.636 228.558 133.608 230.226 133.608C231.846 133.608 232.842 132.744 232.842 131.604ZM234.221 133.5H235.901V126.852H234.221V133.5ZM235.073 126.06C235.661 126.06 236.105 125.628 236.105 125.076C236.105 124.524 235.661 124.092 235.073 124.092C234.473 124.092 234.041 124.524 234.041 125.076C234.041 125.628 234.473 126.06 235.073 126.06ZM245.148 133.5H247.272L243.72 129.276L247.176 125.124H245.148L242.1 128.88V125.124H240.42V133.5H242.1V129.768L245.148 133.5ZM254.797 130.176C254.797 128.076 253.297 126.744 251.377 126.744C249.457 126.744 247.957 128.076 247.957 130.176C247.957 132.264 249.409 133.608 251.329 133.608C253.261 133.608 254.797 132.264 254.797 130.176ZM249.661 130.176C249.661 128.844 250.465 128.208 251.353 128.208C252.241 128.208 253.069 128.844 253.069 130.176C253.069 131.496 252.217 132.144 251.329 132.144C250.429 132.144 249.661 131.496 249.661 130.176ZM260.685 133.5H262.365V129.6C262.365 127.764 261.261 126.756 259.713 126.756C258.861 126.756 258.141 127.116 257.709 127.68V126.852H256.029V133.5H257.709V129.828C257.709 128.76 258.297 128.184 259.209 128.184C260.097 128.184 260.685 128.76 260.685 129.828V133.5ZM264.227 131.436C264.227 132.96 265.079 133.5 266.351 133.5H267.407V132.084H266.627C266.099 132.084 265.919 131.892 265.919 131.448V128.232H267.407V126.852H265.919V125.208H264.227V126.852H263.435V128.232H264.227V131.436ZM271.471 128.124C272.335 128.124 273.031 128.676 273.055 129.552H269.899C270.031 128.64 270.667 128.124 271.471 128.124ZM274.627 131.412H272.815C272.599 131.856 272.203 132.216 271.483 132.216C270.643 132.216 269.971 131.664 269.887 130.68H274.747C274.783 130.464 274.795 130.248 274.795 130.032C274.795 128.052 273.439 126.744 271.519 126.744C269.551 126.744 268.183 128.076 268.183 130.176C268.183 132.264 269.587 133.608 271.519 133.608C273.163 133.608 274.267 132.636 274.627 131.412ZM280.677 133.5H282.357V129.6C282.357 127.764 281.253 126.756 279.705 126.756C278.853 126.756 278.133 127.116 277.701 127.68V126.852H276.021V133.5H277.701V129.828C277.701 128.76 278.289 128.184 279.201 128.184C280.089 128.184 280.677 128.76 280.677 129.828V133.5ZM295.95 126.852H294.258V130.512C294.258 131.58 293.682 132.156 292.77 132.156C291.882 132.156 291.294 131.58 291.294 130.512V126.852H289.614V130.752C289.614 132.576 290.73 133.584 292.278 133.584C293.106 133.584 293.838 133.224 294.258 132.66V133.5H295.95V126.852ZM302.263 133.5H303.943V129.6C303.943 127.764 302.839 126.756 301.291 126.756C300.439 126.756 299.719 127.116 299.287 127.68V126.852H297.607V133.5H299.287V129.828C299.287 128.76 299.875 128.184 300.787 128.184C301.675 128.184 302.263 128.76 302.263 129.828V133.5ZM305.805 131.436C305.805 132.96 306.657 133.5 307.929 133.5H308.985V132.084H308.205C307.677 132.084 307.497 131.892 307.497 131.448V128.232H308.985V126.852H307.497V125.208H305.805V126.852H305.013V128.232H305.805V131.436ZM316.469 126.852H314.777V130.512C314.777 131.58 314.201 132.156 313.289 132.156C312.401 132.156 311.813 131.58 311.813 130.512V126.852H310.133V130.752C310.133 132.576 311.249 133.584 312.797 133.584C313.625 133.584 314.357 133.224 314.777 132.66V133.5H316.469V126.852ZM318.127 133.5H319.807V130.668L322.063 133.5H324.247L321.295 130.188L324.223 126.852H322.039L319.807 129.672V124.62H318.127V133.5ZM327.994 133.5H329.674V129.828C329.674 128.76 330.262 128.184 331.174 128.184C332.062 128.184 332.65 128.76 332.65 129.828V133.5H334.33V129.6C334.33 127.764 333.238 126.756 331.738 126.756C330.85 126.756 330.106 127.116 329.674 127.68V124.62H327.994V133.5ZM335.496 130.152C335.496 132.228 336.84 133.608 338.52 133.608C339.576 133.608 340.332 133.104 340.728 132.528V133.5H342.42V126.852H340.728V127.8C340.332 127.248 339.6 126.744 338.532 126.744C336.84 126.744 335.496 128.076 335.496 130.152ZM340.728 130.176C340.728 131.436 339.888 132.132 338.964 132.132C338.064 132.132 337.212 131.412 337.212 130.152C337.212 128.892 338.064 128.22 338.964 128.22C339.888 128.22 340.728 128.916 340.728 130.176ZM345.74 130.188C345.74 128.904 346.34 128.52 347.336 128.52H347.78V126.756C346.856 126.756 346.16 127.2 345.74 127.884V126.852H344.06V133.5H345.74V130.188ZM348.912 133.5H350.592V126.852H348.912V133.5ZM349.764 126.06C350.352 126.06 350.796 125.628 350.796 125.076C350.796 124.524 350.352 124.092 349.764 124.092C349.164 124.092 348.732 124.524 348.732 125.076C348.732 125.628 349.164 126.06 349.764 126.06ZM355.111 133.5H356.791V126.852H355.111V133.5ZM355.963 126.06C356.551 126.06 356.995 125.628 356.995 125.076C356.995 124.524 356.551 124.092 355.963 124.092C355.363 124.092 354.931 124.524 354.931 125.076C354.931 125.628 355.363 126.06 355.963 126.06ZM363.107 133.5H364.787V129.6C364.787 127.764 363.683 126.756 362.135 126.756C361.283 126.756 360.563 127.116 360.131 127.68V126.852H358.451V133.5H360.131V129.828C360.131 128.76 360.719 128.184 361.631 128.184C362.519 128.184 363.107 128.76 363.107 129.828V133.5ZM366.385 133.5H368.065V126.852H366.385V133.5ZM367.237 126.06C367.825 126.06 368.269 125.628 368.269 125.076C368.269 124.524 367.825 124.092 367.237 124.092C366.637 124.092 366.205 124.524 366.205 125.076C366.205 125.628 366.637 126.06 367.237 126.06ZM374.348 132.6C374.348 132.048 373.916 131.616 373.328 131.616C372.716 131.616 372.284 132.048 372.284 132.6C372.284 133.152 372.716 133.584 373.328 133.584C373.916 133.584 374.348 133.152 374.348 132.6ZM374.348 127.632C374.348 127.08 373.916 126.648 373.328 126.648C372.716 126.648 372.284 127.08 372.284 127.632C372.284 128.184 372.716 128.616 373.328 128.616C373.916 128.616 374.348 128.184 374.348 127.632ZM375.304 135.864V135.696C376.948 134.004 377.824 131.628 377.824 129.228C377.824 126.828 376.948 124.296 375.124 122.568V122.412H376.816C378.568 123.984 379.444 126.564 379.444 129.228C379.444 131.88 378.568 134.352 376.996 135.864H375.304Z" fill="#6C6C6C"/>
<path d="M35.5448 92.5H38.3448V78.54H35.5448V84.28H29.5648V78.54H26.7648V92.5H29.5648V86.56H35.5448V92.5ZM40.3807 86.92C40.3807 90.38 42.6207 92.68 45.4207 92.68C47.1807 92.68 48.4407 91.84 49.1007 90.88V92.5H51.9207V81.42H49.1007V83C48.4407 82.08 47.2207 81.24 45.4407 81.24C42.6207 81.24 40.3807 83.46 40.3807 86.92ZM49.1007 86.96C49.1007 89.06 47.7007 90.22 46.1607 90.22C44.6607 90.22 43.2407 89.02 43.2407 86.92C43.2407 84.82 44.6607 83.7 46.1607 83.7C47.7007 83.7 49.1007 84.86 49.1007 86.96ZM54.6554 92.5H57.4554V77.7H54.6554V92.5ZM60.2218 92.5H63.0218V77.7H60.2218V92.5ZM76.4882 86.96C76.4882 83.46 73.9882 81.24 70.7882 81.24C67.5882 81.24 65.0882 83.46 65.0882 86.96C65.0882 90.44 67.5082 92.68 70.7082 92.68C73.9282 92.68 76.4882 90.44 76.4882 86.96ZM67.9282 86.96C67.9282 84.74 69.2682 83.68 70.7482 83.68C72.2282 83.68 73.6082 84.74 73.6082 86.96C73.6082 89.16 72.1882 90.24 70.7082 90.24C69.2082 90.24 67.9282 89.16 67.9282 86.96ZM92.7877 92.5H95.7477L90.7277 78.52H87.4677L82.4477 92.5H85.3877L86.3077 89.84H91.8677L92.7877 92.5ZM91.1077 87.6H87.0677L89.0877 81.76L91.1077 87.6ZM96.9041 86.92C96.9041 90.38 99.1441 92.68 101.964 92.68C103.704 92.68 104.944 91.88 105.604 90.86V92.5H108.444V77.7H105.604V82.96C104.844 81.92 103.444 81.24 101.984 81.24C99.1441 81.24 96.9041 83.46 96.9041 86.92ZM105.624 86.96C105.624 89.06 104.224 90.22 102.684 90.22C101.184 90.22 99.7641 89.02 99.7641 86.92C99.7641 84.82 101.184 83.7 102.684 83.7C104.224 83.7 105.624 84.86 105.624 86.96ZM126.679 92.5H129.479V86C129.479 82.94 127.599 81.26 124.939 81.26C123.319 81.26 121.859 82.12 121.139 83.38C120.379 82 118.959 81.26 117.239 81.26C115.859 81.26 114.679 81.84 113.979 82.76V81.42H111.179V92.5H113.979V86.38C113.979 84.62 114.959 83.7 116.479 83.7C117.959 83.7 118.939 84.62 118.939 86.38V92.5H121.739V86.38C121.739 84.62 122.719 83.7 124.219 83.7C125.699 83.7 126.679 84.62 126.679 86.38V92.5ZM132.136 92.5H134.936V81.42H132.136V92.5ZM133.556 80.1C134.536 80.1 135.276 79.38 135.276 78.46C135.276 77.54 134.536 76.82 133.556 76.82C132.556 76.82 131.836 77.54 131.836 78.46C131.836 79.38 132.556 80.1 133.556 80.1ZM145.462 92.5H148.262V86C148.262 82.94 146.422 81.26 143.842 81.26C142.422 81.26 141.222 81.86 140.502 82.8V81.42H137.702V92.5H140.502V86.38C140.502 84.6 141.482 83.64 143.002 83.64C144.482 83.64 145.462 84.6 145.462 86.38V92.5ZM165.171 92.5H168.131L163.111 78.52H159.851L154.831 92.5H157.771L158.691 89.84H164.251L165.171 92.5ZM163.491 87.6H159.451L161.471 81.76L163.491 87.6Z" fill="#6C6C6C"/>
<defs>
<clipPath id="clip0">
<rect y="49" width="1095" height="197" rx="12" fill="white"/>
</clipPath>
<clipPath id="clip1">
<rect width="321" height="295" fill="white" transform="translate(-7 109)"/>
</clipPath>
<clipPath id="clip2">
<rect width="321" height="246" fill="white" transform="translate(769)"/>
</clipPath>
<clipPath id="clip3">
<rect width="321" height="295" fill="white" transform="translate(768.669)"/>
</clipPath>
</defs>
</svg>
