<svg width="1440" height="320" viewBox="0 0 1440 320" fill="none" xmlns="http://www.w3.org/2000/svg">
<path d="M424.002 14.0022L400.998 -9.00218C400.447 -9.55326 399.553 -9.55326 399.002 -9.00218L375.998 14.0022C375.447 14.5533 375.447 15.4467 375.998 15.9978L399.002 39.0022C399.553 39.5533 400.447 39.5533 400.998 39.0022L424.002 15.9978C424.553 15.4467 424.553 14.5533 424.002 14.0022Z" stroke="#F2F7FC" stroke-miterlimit="10"/>
<path d="M410.2 14.5727L400.425 4.79774C400.19 4.56319 399.81 4.56319 399.575 4.79774L389.8 14.5727C389.566 14.8073 389.566 15.1876 389.8 15.4221L399.575 25.1971C399.81 25.4317 400.19 25.4317 400.425 25.1971L410.2 15.4221C410.434 15.1876 410.434 14.8073 410.2 14.5727Z" fill="#E5EEFF"/>
<path d="M624.002 324.002L600.998 300.998C600.447 300.447 599.553 300.447 599.002 300.998L575.998 324.002C575.447 324.553 575.447 325.447 575.998 325.998L599.002 349.002C599.553 349.553 600.447 349.553 600.998 349.002L624.002 325.998C624.553 325.447 624.553 324.553 624.002 324.002Z" stroke="#F2F7FC" stroke-miterlimit="10"/>
<path d="M610.2 324.573L600.425 314.798C600.19 314.563 599.81 314.563 599.575 314.798L589.8 324.573C589.566 324.807 589.566 325.188 589.8 325.422L599.575 335.197C599.81 335.432 600.19 335.432 600.425 335.197L610.2 325.422C610.434 325.188 610.434 324.807 610.2 324.573Z" fill="#E5EEFF"/>
<path d="M1382 28.0022L1359 4.99782C1358.45 4.44674 1357.55 4.44674 1357 4.99782L1334 28.0022C1333.45 28.5533 1333.45 29.4467 1334 29.9978L1357 53.0022C1357.55 53.5533 1358.45 53.5533 1359 53.0022L1382 29.9978C1382.55 29.4467 1382.55 28.5533 1382 28.0022Z" stroke="#F2F7FC" stroke-miterlimit="10"/>
<path d="M1368.2 28.5727L1358.42 18.7977C1358.19 18.5632 1357.81 18.5632 1357.58 18.7977L1347.8 28.5727C1347.57 28.8073 1347.57 29.1876 1347.8 29.4221L1357.58 39.1971C1357.81 39.4317 1358.19 39.4317 1358.42 39.1971L1368.2 29.4221C1368.43 29.1876 1368.43 28.8073 1368.2 28.5727Z" fill="#E5EEFF"/>
<path d="M1062.77 135.658L1056.83 134.863C1055.86 134.734 1054.98 135.41 1054.85 136.374L1054.05 142.321C1053.93 143.284 1054.6 144.17 1055.57 144.299L1061.51 145.094C1062.48 145.223 1063.36 144.547 1063.49 143.583L1064.29 137.636C1064.41 136.673 1063.74 135.787 1062.77 135.658Z" fill="#E5EEFF"/>
<path d="M1060.18 131.569L1066.67 132.436C1067.16 132.506 1067.62 132.769 1067.92 133.168C1068.23 133.568 1068.36 134.072 1068.3 134.571L1067.43 141.064C1067.36 141.562 1067.1 142.013 1066.7 142.318C1066.3 142.624 1065.79 142.759 1065.29 142.695L1058.81 141.828C1058.31 141.758 1057.86 141.495 1057.56 141.095C1057.25 140.696 1057.12 140.191 1057.18 139.692L1058.05 133.2C1058.12 132.702 1058.38 132.251 1058.78 131.946C1059.18 131.64 1059.68 131.505 1060.18 131.569ZM1065.49 141.208C1065.55 141.216 1065.6 141.214 1065.65 141.201C1065.7 141.189 1065.75 141.166 1065.79 141.134C1065.84 141.102 1065.87 141.062 1065.9 141.016C1065.93 140.97 1065.94 140.919 1065.95 140.866L1066.82 134.374C1066.83 134.321 1066.82 134.267 1066.81 134.216C1066.8 134.164 1066.77 134.116 1066.74 134.074C1066.71 134.032 1066.67 133.997 1066.62 133.971C1066.57 133.945 1066.52 133.929 1066.47 133.923L1059.99 133.056C1059.88 133.042 1059.77 133.07 1059.69 133.134C1059.6 133.199 1059.55 133.294 1059.54 133.399L1058.67 139.891C1058.65 139.996 1058.68 140.103 1058.75 140.187C1058.81 140.272 1058.91 140.327 1059.01 140.341L1065.49 141.208Z" fill="#E6F2FF"/>
<path d="M1363.52 233.049L1373.79 234.424C1375.46 234.647 1377 233.475 1377.22 231.805L1378.6 221.527C1378.82 219.857 1377.65 218.322 1375.98 218.099L1365.7 216.724C1364.03 216.501 1362.5 217.673 1362.27 219.343L1360.9 229.621C1360.67 231.291 1361.85 232.825 1363.52 233.049Z" fill="#E5EEFF"/>
<path d="M1360.66 209.573L1371.88 211.074C1372.75 211.19 1373.53 211.645 1374.06 212.338C1374.59 213.031 1374.82 213.907 1374.71 214.772L1373.21 225.992C1373.09 226.854 1372.63 227.635 1371.94 228.163C1371.25 228.69 1370.37 228.922 1369.51 228.806L1358.29 227.305C1357.43 227.19 1356.65 226.737 1356.12 226.046C1355.59 225.355 1355.35 224.481 1355.47 223.618L1356.97 212.398C1357.08 211.533 1357.54 210.75 1358.23 210.22C1358.92 209.69 1359.8 209.458 1360.66 209.573ZM1369.85 226.249C1370.04 226.271 1370.22 226.221 1370.37 226.108C1370.52 225.996 1370.61 225.831 1370.64 225.648L1372.14 214.428C1372.17 214.244 1372.12 214.058 1372 213.91C1371.89 213.763 1371.72 213.666 1371.54 213.642L1360.32 212.14C1360.14 212.116 1359.95 212.165 1359.8 212.278C1359.66 212.391 1359.56 212.557 1359.53 212.741L1358.03 223.961C1358.01 224.145 1358.06 224.332 1358.17 224.479C1358.28 224.627 1358.45 224.723 1358.63 224.748L1369.85 226.249Z" fill="#E6F2FF"/>
<path d="M1158.65 202.836C1159.22 202.913 1159.74 203.21 1160.09 203.663L1164.52 209.442C1164.87 209.899 1165.02 210.474 1164.94 211.042C1164.87 211.61 1164.57 212.126 1164.11 212.475L1158.31 216.915C1157.86 217.262 1157.28 217.414 1156.71 217.338C1156.15 217.262 1155.63 216.964 1155.28 216.509L1150.84 210.699C1150.67 210.473 1150.54 210.216 1150.47 209.941C1150.4 209.667 1150.38 209.381 1150.42 209.099C1150.5 208.532 1150.8 208.018 1151.25 207.666L1157.06 203.238C1157.28 203.069 1157.54 202.947 1157.81 202.878C1158.09 202.809 1158.37 202.794 1158.65 202.836ZM1156.94 215.612C1157 215.62 1157.05 215.617 1157.1 215.603C1157.15 215.589 1157.2 215.564 1157.24 215.53L1163.04 211.1C1163.08 211.069 1163.12 211.029 1163.15 210.982C1163.17 210.935 1163.19 210.882 1163.19 210.828C1163.2 210.777 1163.2 210.724 1163.18 210.673C1163.17 210.622 1163.15 210.575 1163.11 210.535L1158.7 204.729C1158.64 204.646 1158.54 204.591 1158.44 204.577C1158.33 204.563 1158.22 204.59 1158.14 204.653L1152.34 209.084C1152.3 209.116 1152.26 209.156 1152.23 209.201C1152.21 209.247 1152.19 209.298 1152.18 209.35C1152.18 209.403 1152.18 209.456 1152.19 209.508C1152.21 209.559 1152.23 209.607 1152.26 209.649L1156.67 215.455C1156.7 215.499 1156.74 215.536 1156.79 215.563C1156.84 215.591 1156.89 215.607 1156.94 215.612Z" fill="#E6F2FF"/>
<path d="M1379.28 163.111C1379.52 163.143 1379.76 163.224 1379.97 163.347C1380.19 163.471 1380.37 163.636 1380.52 163.833L1384.37 168.867C1384.67 169.264 1384.8 169.764 1384.74 170.258C1384.67 170.752 1384.41 171.199 1384.02 171.504L1378.98 175.35C1378.58 175.641 1378.09 175.766 1377.59 175.7C1377.1 175.635 1376.66 175.383 1376.35 174.997L1372.51 169.964C1372.36 169.768 1372.25 169.545 1372.18 169.306C1372.12 169.067 1372.1 168.818 1372.14 168.572C1372.17 168.327 1372.25 168.091 1372.38 167.877C1372.5 167.663 1372.67 167.477 1372.86 167.328L1377.89 163.48C1378.29 163.179 1378.78 163.047 1379.28 163.111ZM1377.8 174.202C1377.84 174.21 1377.89 174.208 1377.93 174.196C1377.98 174.185 1378.02 174.165 1378.06 174.136L1383.09 170.29C1383.13 170.262 1383.16 170.226 1383.18 170.186C1383.2 170.146 1383.22 170.101 1383.22 170.056C1383.23 170.01 1383.23 169.963 1383.22 169.918C1383.21 169.873 1383.19 169.831 1383.16 169.794L1379.31 164.76C1379.29 164.715 1379.26 164.677 1379.22 164.648C1379.18 164.619 1379.13 164.6 1379.08 164.594C1379.03 164.587 1378.98 164.593 1378.94 164.61C1378.89 164.628 1378.85 164.656 1378.82 164.694L1373.79 168.541C1373.75 168.567 1373.72 168.602 1373.69 168.642C1373.67 168.682 1373.65 168.728 1373.65 168.775C1373.64 168.821 1373.64 168.869 1373.66 168.914C1373.67 168.959 1373.69 169.001 1373.72 169.037L1377.56 174.07C1377.59 174.107 1377.62 174.137 1377.66 174.16C1377.7 174.182 1377.75 174.197 1377.8 174.202Z" fill="#E6F2FF"/>
<path d="M1091.56 181.208C1091.63 180.685 1091.54 180.152 1091.31 179.678C1091.08 179.204 1090.71 178.809 1090.25 178.545C1089.8 178.28 1089.27 178.156 1088.74 178.189C1088.22 178.223 1087.71 178.412 1087.29 178.732C1086.87 179.053 1086.56 179.491 1086.39 179.99C1086.21 180.49 1086.2 181.029 1086.33 181.54C1086.47 182.05 1086.75 182.509 1087.15 182.858C1087.54 183.207 1088.03 183.43 1088.56 183.5C1088.91 183.548 1089.26 183.527 1089.6 183.437C1089.94 183.348 1090.26 183.192 1090.54 182.979C1090.81 182.766 1091.05 182.5 1091.22 182.196C1091.4 181.892 1091.51 181.556 1091.56 181.208Z" fill="#E6F2FF"/>
<path d="M1274.3 216.936C1272.75 216.728 1271.32 217.82 1271.11 219.375C1270.91 220.929 1272 222.358 1273.55 222.566C1275.11 222.774 1276.54 221.683 1276.74 220.128C1276.95 218.573 1275.86 217.144 1274.3 216.936Z" fill="#E6F2FF"/>
<path d="M1218.5 200.169C1218.59 199.526 1218.48 198.872 1218.2 198.289C1217.91 197.707 1217.46 197.222 1216.9 196.897C1216.34 196.571 1215.69 196.419 1215.05 196.461C1214.4 196.502 1213.78 196.734 1213.26 197.128C1212.75 197.521 1212.36 198.059 1212.15 198.673C1211.94 199.287 1211.92 199.949 1212.08 200.576C1212.25 201.203 1212.6 201.767 1213.09 202.195C1213.57 202.624 1214.18 202.899 1214.82 202.985C1215.68 203.1 1216.55 202.868 1217.24 202.34C1217.94 201.812 1218.39 201.031 1218.5 200.169Z" fill="#E5EEFF"/>
<path d="M293.516 13.0487L303.794 14.4238C305.464 14.6472 306.998 13.4748 307.222 11.8052L308.597 1.52675C308.82 -0.142838 307.648 -1.67739 305.978 -1.90076L295.7 -3.27588C294.03 -3.49925 292.496 -2.32685 292.272 -0.657259L290.897 9.62117C290.674 11.2908 291.846 12.8253 293.516 13.0487Z" fill="#E5EEFF"/>
<path d="M290.664 -10.4266L301.884 -8.92549C302.749 -8.80978 303.532 -8.35525 304.062 -7.66189C304.592 -6.96853 304.824 -6.09312 304.709 -5.22827L303.207 5.99176C303.089 6.85454 302.634 7.63532 301.941 8.16295C301.248 8.69057 300.375 8.92201 299.512 8.80653L288.291 7.30543C287.428 7.18996 286.646 6.73699 286.116 6.04581C285.587 5.35462 285.353 4.48161 285.465 3.61812L286.967 -7.6019C287.082 -8.46676 287.537 -9.25023 288.23 -9.77996C288.924 -10.3097 289.799 -10.5423 290.664 -10.4266ZM299.854 6.24931C300.037 6.27126 300.222 6.22075 300.369 6.10852C300.516 5.99629 300.613 5.83118 300.64 5.64831L302.141 -5.57171C302.166 -5.75573 302.117 -5.94199 302.004 -6.08951C301.891 -6.23703 301.724 -6.33373 301.54 -6.35835L290.32 -7.85945C290.136 -7.88407 289.95 -7.83459 289.803 -7.72188C289.655 -7.60917 289.558 -7.44247 289.534 -7.25846L288.033 3.96157C288.008 4.14558 288.057 4.33184 288.17 4.47936C288.283 4.62689 288.45 4.7236 288.634 4.74822L299.854 6.24931Z" fill="#E6F2FF"/>
<path d="M204.304 -3.06345C202.75 -3.27144 201.321 -2.17977 201.113 -0.625133C200.905 0.929504 201.997 2.3584 203.551 2.56639C205.106 2.77438 206.535 1.68271 206.743 0.12807C206.951 -1.42657 205.859 -2.85546 204.304 -3.06345Z" fill="#E6F2FF"/>
<path d="M118.774 262.658L112.827 261.863C111.864 261.734 110.979 262.41 110.85 263.374L110.054 269.321C109.925 270.284 110.602 271.17 111.565 271.299L117.512 272.094C118.476 272.223 119.361 271.547 119.49 270.583L120.286 264.636C120.414 263.673 119.738 262.787 118.774 262.658Z" fill="#E5EEFF"/>
<path d="M116.184 258.569L122.666 259.436C123.164 259.506 123.615 259.769 123.921 260.168C124.226 260.568 124.361 261.072 124.297 261.571L123.429 268.064C123.359 268.562 123.096 269.013 122.696 269.318C122.297 269.624 121.793 269.759 121.294 269.695L114.811 268.828C114.313 268.758 113.862 268.495 113.557 268.095C113.251 267.696 113.116 267.191 113.18 266.692L114.049 260.2C114.118 259.702 114.381 259.251 114.781 258.946C115.181 258.64 115.685 258.505 116.184 258.569ZM121.492 268.208C121.545 268.216 121.599 268.214 121.651 268.201C121.703 268.189 121.751 268.166 121.794 268.134C121.837 268.102 121.873 268.062 121.9 268.016C121.927 267.97 121.945 267.919 121.952 267.866L122.82 261.374C122.827 261.321 122.824 261.267 122.81 261.216C122.796 261.164 122.772 261.116 122.739 261.074C122.706 261.032 122.665 260.997 122.618 260.971C122.572 260.945 122.52 260.929 122.467 260.923L115.985 260.056C115.88 260.042 115.773 260.07 115.689 260.134C115.605 260.199 115.549 260.294 115.535 260.399L114.667 266.891C114.653 266.996 114.681 267.103 114.745 267.187C114.81 267.272 114.905 267.327 115.01 267.341L121.492 268.208Z" fill="#E6F2FF"/>
<path d="M435.279 290.111C435.524 290.143 435.76 290.224 435.974 290.347C436.187 290.471 436.374 290.636 436.524 290.833L440.37 295.867C440.671 296.264 440.802 296.764 440.736 297.258C440.67 297.752 440.412 298.199 440.018 298.504L434.983 302.35C434.582 302.641 434.085 302.766 433.594 302.7C433.104 302.635 432.657 302.383 432.347 301.997L428.51 296.964C428.359 296.768 428.248 296.545 428.184 296.306C428.119 296.067 428.103 295.818 428.136 295.572C428.169 295.327 428.25 295.091 428.375 294.877C428.5 294.663 428.665 294.477 428.863 294.328L433.888 290.48C434.285 290.179 434.785 290.047 435.279 290.111ZM433.795 301.202C433.841 301.21 433.887 301.208 433.932 301.196C433.977 301.185 434.019 301.165 434.056 301.136L439.09 297.29C439.127 297.262 439.157 297.226 439.18 297.186C439.203 297.146 439.217 297.101 439.223 297.056C439.23 297.01 439.228 296.963 439.217 296.918C439.205 296.873 439.185 296.831 439.157 296.794L435.31 291.76C435.289 291.715 435.256 291.677 435.216 291.648C435.176 291.619 435.129 291.6 435.08 291.594C435.031 291.587 434.981 291.593 434.935 291.61C434.889 291.628 434.847 291.656 434.815 291.694L429.79 295.541C429.751 295.567 429.718 295.602 429.693 295.642C429.668 295.682 429.653 295.728 429.648 295.775C429.641 295.821 429.644 295.869 429.658 295.914C429.671 295.959 429.693 296.001 429.724 296.037L433.56 301.07C433.589 301.107 433.624 301.137 433.664 301.16C433.705 301.182 433.749 301.197 433.795 301.202Z" fill="#E6F2FF"/>
<path d="M147.558 308.208C147.628 307.685 147.541 307.152 147.309 306.678C147.076 306.204 146.708 305.809 146.252 305.545C145.795 305.28 145.27 305.156 144.743 305.189C144.216 305.223 143.71 305.412 143.291 305.732C142.871 306.053 142.556 306.491 142.385 306.99C142.214 307.49 142.196 308.029 142.331 308.54C142.467 309.05 142.751 309.509 143.147 309.858C143.543 310.207 144.034 310.43 144.558 310.5C144.905 310.548 145.259 310.527 145.599 310.437C145.938 310.348 146.256 310.192 146.535 309.979C146.814 309.766 147.048 309.5 147.224 309.196C147.399 308.892 147.513 308.556 147.558 308.208Z" fill="#E6F2FF"/>
<path d="M57.5159 182.049L67.7943 183.424C69.4639 183.647 70.9985 182.475 71.2218 180.805L72.5969 170.527C72.8203 168.857 71.6479 167.322 69.9783 167.099L59.6999 165.724C58.0303 165.501 56.4958 166.673 56.2724 168.343L54.8973 178.621C54.6739 180.291 55.8463 181.825 57.5159 182.049Z" fill="#E5EEFF"/>
<path d="M54.6638 158.573L65.8839 160.074C66.7487 160.19 67.5322 160.645 68.0619 161.338C68.5916 162.031 68.8242 162.907 68.7085 163.772L67.2074 174.992C67.0893 175.854 66.634 176.635 65.9412 177.163C65.2484 177.69 64.3747 177.922 63.5115 177.806L52.2915 176.305C51.4284 176.19 50.6462 175.737 50.1165 175.046C49.5867 174.355 49.3526 173.481 49.4655 172.618L50.9666 161.398C51.0823 160.533 51.5368 159.75 52.2302 159.22C52.9236 158.69 53.799 158.458 54.6638 158.573ZM63.8537 175.249C64.0372 175.271 64.2221 175.221 64.369 175.108C64.5159 174.996 64.6132 174.831 64.6403 174.648L66.1414 163.428C66.166 163.244 66.1165 163.058 66.0038 162.91C65.8911 162.763 65.7244 162.666 65.5404 162.642L54.3204 161.14C54.1363 161.116 53.9501 161.165 53.8026 161.278C53.655 161.391 53.5583 161.557 53.5337 161.741L52.0326 172.961C52.008 173.145 52.0575 173.332 52.1702 173.479C52.2829 173.627 52.4496 173.723 52.6336 173.748L63.8537 175.249Z" fill="#E6F2FF"/>
<path d="M73.2787 112.111C73.5237 112.143 73.7599 112.224 73.9736 112.347C74.1873 112.471 74.3745 112.636 74.5241 112.833L78.3705 117.867C78.671 118.264 78.8025 118.764 78.7364 119.258C78.6704 119.752 78.4121 120.199 78.0177 120.504L72.9832 124.35C72.5824 124.641 72.0852 124.766 71.5945 124.7C71.1038 124.635 70.6571 124.383 70.3467 123.997L66.5102 118.964C66.3589 118.768 66.2479 118.545 66.1837 118.306C66.1194 118.067 66.1033 117.818 66.1361 117.572C66.1689 117.327 66.25 117.091 66.3748 116.877C66.4996 116.663 66.6655 116.477 66.863 116.328L71.8876 112.48C72.285 112.179 72.7846 112.047 73.2787 112.111ZM71.7949 123.202C71.8406 123.21 71.8874 123.208 71.9323 123.196C71.9771 123.185 72.0192 123.165 72.0559 123.136L77.0905 119.29C77.1269 119.262 77.1574 119.226 77.1801 119.186C77.2028 119.146 77.2173 119.101 77.2227 119.056C77.2301 119.01 77.228 118.963 77.2167 118.918C77.2054 118.873 77.185 118.831 77.1568 118.794L73.3104 113.76C73.2887 113.715 73.2564 113.677 73.2163 113.648C73.1762 113.619 73.1295 113.6 73.0804 113.594C73.0313 113.587 72.9814 113.593 72.9351 113.61C72.8887 113.628 72.8474 113.656 72.8148 113.694L67.7902 117.541C67.7508 117.567 67.7176 117.602 67.693 117.642C67.6684 117.682 67.6531 117.728 67.648 117.775C67.6412 117.821 67.6445 117.869 67.6576 117.914C67.6707 117.959 67.6933 118.001 67.7239 118.037L71.5604 123.07C71.5888 123.107 71.6242 123.137 71.6644 123.16C71.7047 123.182 71.749 123.197 71.7949 123.202Z" fill="#E6F2FF"/>
<path d="M842.774 2.65854L836.827 1.8629C835.864 1.73401 834.979 2.41053 834.85 3.37397L834.054 9.32098C833.925 10.2844 834.602 11.1699 835.565 11.2988L841.512 12.0945C842.476 12.2234 843.361 11.5468 843.49 10.5834L844.286 4.63638C844.414 3.67294 843.738 2.78743 842.774 2.65854Z" fill="#E5EEFF"/>
<path d="M840.184 -1.4309L846.666 -0.563659C847.164 -0.49434 847.615 -0.231212 847.921 0.168571C848.226 0.568355 848.361 1.07252 848.297 1.57153L847.429 8.06368C847.359 8.56199 847.096 9.01282 846.696 9.31825C846.297 9.62369 845.793 9.75906 845.294 9.69495L838.811 8.82771C838.313 8.75839 837.862 8.49525 837.557 8.09547C837.251 7.69569 837.116 7.19155 837.18 6.69254L838.049 0.20038C838.118 -0.29793 838.381 -0.748775 838.781 -1.05421C839.181 -1.35964 839.685 -1.49501 840.184 -1.4309ZM845.492 8.20819C845.545 8.21659 845.599 8.21435 845.651 8.20161C845.703 8.18887 845.751 8.16588 845.794 8.134C845.837 8.10212 845.873 8.06198 845.9 8.01597C845.927 7.96996 845.945 7.91901 845.952 7.8661L846.82 1.37394C846.827 1.32103 846.824 1.26723 846.81 1.21572C846.796 1.16422 846.772 1.11604 846.739 1.07403C846.706 1.03201 846.665 0.997018 846.618 0.971097C846.572 0.945176 846.52 0.928849 846.467 0.923095L839.985 0.0558575C839.88 0.0417898 839.773 0.0700698 839.689 0.134474C839.605 0.198879 839.549 0.294139 839.535 0.399289L838.667 6.89145C838.653 6.9966 838.681 7.10303 838.745 7.18733C838.81 7.27163 838.905 7.32689 839.01 7.34096L845.492 8.20819Z" fill="#E6F2FF"/>
<path d="M1143.52 100.049L1153.79 101.424C1155.46 101.647 1157 100.475 1157.22 98.8051L1158.6 88.5266C1158.82 86.857 1157.65 85.3225 1155.98 85.0991L1145.7 83.724C1144.03 83.5006 1142.5 84.673 1142.27 86.3426L1140.9 96.621C1140.67 98.2906 1141.85 99.8252 1143.52 100.049Z" fill="#E5EEFF"/>
<path d="M1140.66 76.5733L1151.88 78.0744C1152.75 78.1901 1153.53 78.6446 1154.06 79.338C1154.59 80.0314 1154.82 80.9068 1154.71 81.7716L1153.21 92.9916C1153.09 93.8544 1152.63 94.6352 1151.94 95.1628C1151.25 95.6904 1150.37 95.9219 1149.51 95.8064L1138.29 94.3053C1137.43 94.1898 1136.65 93.7369 1136.12 93.0457C1135.59 92.3545 1135.35 91.4815 1135.47 90.618L1136.97 79.398C1137.08 78.5331 1137.54 77.7496 1138.23 77.2199C1138.92 76.6902 1139.8 76.4576 1140.66 76.5733ZM1149.85 93.2492C1150.04 93.2711 1150.22 93.2206 1150.37 93.1084C1150.52 92.9962 1150.61 92.8311 1150.64 92.6482L1152.14 81.4282C1152.17 81.2442 1152.12 81.0579 1152 80.9104C1151.89 80.7628 1151.72 80.6661 1151.54 80.6415L1140.32 79.1404C1140.14 79.1158 1139.95 79.1653 1139.8 79.278C1139.66 79.3907 1139.56 79.5574 1139.53 79.7414L1138.03 90.9614C1138.01 91.1455 1138.06 91.3317 1138.17 91.4792C1138.28 91.6268 1138.45 91.7235 1138.63 91.7481L1149.85 93.2492Z" fill="#E6F2FF"/>
<path d="M938.653 69.8358C939.221 69.9126 939.736 70.2098 940.086 70.6631L944.519 76.442C944.866 76.8986 945.018 77.4739 944.942 78.0422C944.866 78.6105 944.568 79.1256 944.113 79.475L938.313 83.9151C937.857 84.2618 937.282 84.4138 936.713 84.3378C936.145 84.2617 935.63 83.9639 935.28 83.5093L930.842 77.6994C930.67 77.4735 930.544 77.2159 930.472 76.9413C930.399 76.6668 930.382 76.3807 930.42 76.0993C930.499 75.5322 930.796 75.0182 931.247 74.6664L937.056 70.2375C937.283 70.0689 937.541 69.9466 937.815 69.8776C938.089 69.8087 938.374 69.7945 938.653 69.8358ZM936.944 82.612C936.996 82.62 937.049 82.6168 937.1 82.6027C937.15 82.5886 937.197 82.5638 937.238 82.5302L943.036 78.1C943.081 78.069 943.118 78.0287 943.145 77.9817C943.172 77.9348 943.189 77.8825 943.194 77.8285C943.202 77.7765 943.198 77.7235 943.184 77.6729C943.17 77.6223 943.145 77.5753 943.112 77.535L938.703 71.7291C938.637 71.6457 938.541 71.5912 938.436 71.5771C938.33 71.5629 938.223 71.5903 938.138 71.6535L932.339 76.0837C932.297 76.1156 932.261 76.1555 932.234 76.2013C932.207 76.2471 932.19 76.2978 932.183 76.3503C932.176 76.4029 932.179 76.4564 932.193 76.5076C932.207 76.5588 932.231 76.6067 932.264 76.6486L936.673 82.4546C936.703 82.4991 936.744 82.5363 936.791 82.5635C936.838 82.5907 936.89 82.6072 936.944 82.612Z" fill="#E6F2FF"/>
<path d="M1159.28 30.1113C1159.52 30.1434 1159.76 30.2236 1159.97 30.3475C1160.19 30.4713 1160.37 30.6363 1160.52 30.8328L1164.37 35.8674C1164.67 36.2646 1164.8 36.7644 1164.74 37.2582C1164.67 37.7519 1164.41 38.1996 1164.02 38.5039L1158.98 42.3502C1158.58 42.6408 1158.09 42.7662 1157.59 42.7006C1157.1 42.6349 1156.66 42.3832 1156.35 41.9975L1152.51 36.9643C1152.36 36.7686 1152.25 36.5448 1152.18 36.3058C1152.12 36.0669 1152.1 35.8176 1152.14 35.5724C1152.17 35.3272 1152.25 35.0909 1152.38 34.8772C1152.5 34.6636 1152.67 34.4769 1152.86 34.3278L1157.89 30.4801C1158.29 30.1795 1158.78 30.0471 1159.28 30.1113ZM1157.8 41.2025C1157.84 41.2099 1157.89 41.2078 1157.93 41.1965C1157.98 41.1851 1158.02 41.1647 1158.06 41.1365L1163.09 37.2902C1163.13 37.2618 1163.16 37.2264 1163.18 37.1861C1163.2 37.1459 1163.22 37.1015 1163.22 37.0557C1163.23 37.0099 1163.23 36.9632 1163.22 36.9183C1163.21 36.8734 1163.19 36.8313 1163.16 36.7946L1159.31 31.7601C1159.29 31.7156 1159.26 31.6771 1159.22 31.6481C1159.18 31.6191 1159.13 31.6005 1159.08 31.5939C1159.03 31.5874 1158.98 31.5931 1158.94 31.6105C1158.89 31.6279 1158.85 31.6565 1158.82 31.6938L1153.79 35.5415C1153.75 35.5675 1153.72 35.6018 1153.69 35.6421C1153.67 35.6825 1153.65 35.7277 1153.65 35.7747C1153.64 35.8213 1153.64 35.8688 1153.66 35.9141C1153.67 35.9593 1153.69 36.0013 1153.72 36.0371L1157.56 41.0702C1157.59 41.1067 1157.62 41.1371 1157.66 41.1598C1157.7 41.1825 1157.75 41.197 1157.8 41.2025Z" fill="#E6F2FF"/>
<path d="M871.558 48.2081C871.628 47.6846 871.541 47.1522 871.309 46.6781C871.076 46.204 870.708 45.8095 870.252 45.5445C869.795 45.2795 869.27 45.1559 868.743 45.1893C868.216 45.2228 867.71 45.4117 867.291 45.7323C866.871 46.0529 866.556 46.4908 866.385 46.9905C866.214 47.4901 866.196 48.0293 866.331 48.5396C866.467 49.05 866.751 49.5087 867.147 49.8577C867.543 50.2067 868.034 50.4304 868.558 50.5004C868.905 50.5483 869.259 50.5268 869.599 50.4373C869.938 50.3478 870.256 50.192 870.535 49.979C870.814 49.7659 871.048 49.4997 871.224 49.1957C871.399 48.8918 871.513 48.5561 871.558 48.2081Z" fill="#E6F2FF"/>
<path d="M1054.3 83.9364C1052.75 83.7284 1051.32 84.8201 1051.11 86.3747C1050.91 87.9294 1052 89.3583 1053.55 89.5663C1055.11 89.7743 1056.54 88.6826 1056.74 87.1279C1056.95 85.5733 1055.86 84.1444 1054.3 83.9364Z" fill="#E6F2FF"/>
<path d="M998.505 67.1689C998.591 66.5259 998.484 65.8718 998.198 65.2894C997.913 64.707 997.461 64.2224 996.899 63.8968C996.338 63.5713 995.693 63.4195 995.046 63.4605C994.398 63.5016 993.778 63.7337 993.262 64.1276C992.747 64.5214 992.36 65.0593 992.15 65.6731C991.94 66.287 991.917 66.9493 992.083 67.5762C992.25 68.2032 992.599 68.7667 993.086 69.1954C993.572 69.6242 994.176 69.899 994.819 69.985C995.681 70.1003 996.554 69.8685 997.245 69.3403C997.936 68.8122 998.389 68.0311 998.505 67.1689Z" fill="#E5EEFF"/>
<path d="M42.7745 5.65854L36.8275 4.8629C35.864 4.73401 34.9785 5.41053 34.8496 6.37397L34.054 12.321C33.9251 13.2844 34.6016 14.1699 35.5651 14.2988L41.5121 15.0945C42.4755 15.2234 43.361 14.5468 43.4899 13.5834L44.2856 7.63638C44.4145 6.67294 43.7379 5.78743 42.7745 5.65854Z" fill="#E5EEFF"/>
<path d="M40.1838 1.5691L46.666 2.43634C47.1643 2.50566 47.6151 2.76879 47.9205 3.16857C48.226 3.56836 48.3614 4.07252 48.2973 4.57153L47.4287 11.0637C47.3594 11.562 47.0962 12.0128 46.6964 12.3183C46.2966 12.6237 45.7925 12.7591 45.2935 12.6949L38.8113 11.8277C38.313 11.7584 37.8621 11.4953 37.5567 11.0955C37.2512 10.6957 37.1159 10.1915 37.18 9.69254L38.0486 3.20038C38.1179 2.70207 38.381 2.25123 38.7808 1.94579C39.1806 1.64036 39.6848 1.50499 40.1838 1.5691ZM45.4924 11.2082C45.5451 11.2166 45.599 11.2144 45.6508 11.2016C45.7027 11.1889 45.7514 11.1659 45.7942 11.134C45.837 11.1021 45.873 11.062 45.9001 11.016C45.9272 10.97 45.9448 10.919 45.9518 10.8661L46.8204 4.37394C46.8275 4.32103 46.8239 4.26723 46.8099 4.21572C46.7959 4.16422 46.7717 4.11604 46.7388 4.07403C46.7058 4.03201 46.6648 3.99702 46.6182 3.9711C46.5715 3.94518 46.5201 3.92885 46.4671 3.92309L39.9848 3.05586C39.8797 3.04179 39.7733 3.07007 39.689 3.13447C39.6047 3.19888 39.5494 3.29414 39.5353 3.39929L38.6667 9.89145C38.6527 9.9966 38.681 10.103 38.7454 10.1873C38.8098 10.2716 38.905 10.3269 39.0102 10.341L45.4924 11.2082Z" fill="#E6F2FF"/>
<path d="M343.516 103.049L353.794 104.424C355.464 104.647 356.998 103.475 357.222 101.805L358.597 91.5266C358.82 89.857 357.648 88.3225 355.978 88.0991L345.7 86.724C344.03 86.5006 342.496 87.673 342.272 89.3426L340.897 99.621C340.674 101.291 341.846 102.825 343.516 103.049Z" fill="#E5EEFF"/>
<path d="M340.664 79.5733L351.884 81.0744C352.749 81.1901 353.532 81.6446 354.062 82.338C354.592 83.0314 354.824 83.9068 354.709 84.7716L353.207 95.9916C353.089 96.8544 352.634 97.6352 351.941 98.1628C351.248 98.6904 350.375 98.9219 349.512 98.8064L338.291 97.3053C337.428 97.1898 336.646 96.7369 336.116 96.0457C335.587 95.3545 335.353 94.4815 335.465 93.618L336.967 82.398C337.082 81.5331 337.537 80.7496 338.23 80.2199C338.924 79.6902 339.799 79.4576 340.664 79.5733ZM349.854 96.2492C350.037 96.2711 350.222 96.2206 350.369 96.1084C350.516 95.9962 350.613 95.8311 350.64 95.6482L352.141 84.4282C352.166 84.2442 352.117 84.0579 352.004 83.9104C351.891 83.7628 351.724 83.6661 351.54 83.6415L340.32 82.1404C340.136 82.1158 339.95 82.1653 339.803 82.278C339.655 82.3907 339.558 82.5574 339.534 82.7414L338.033 93.9614C338.008 94.1455 338.057 94.3317 338.17 94.4792C338.283 94.6268 338.45 94.7235 338.634 94.7481L349.854 96.2492Z" fill="#E6F2FF"/>
<path d="M138.653 72.8358C139.221 72.9126 139.736 73.2098 140.086 73.6631L144.519 79.442C144.866 79.8986 145.018 80.4739 144.942 81.0422C144.866 81.6105 144.568 82.1256 144.113 82.475L138.313 86.9151C137.857 87.2618 137.282 87.4138 136.713 87.3378C136.145 87.2617 135.63 86.9639 135.28 86.5093L130.842 80.6994C130.67 80.4735 130.544 80.2159 130.472 79.9413C130.399 79.6668 130.382 79.3807 130.42 79.0993C130.499 78.5322 130.796 78.0182 131.247 77.6664L137.056 73.2375C137.283 73.0689 137.541 72.9466 137.815 72.8776C138.089 72.8087 138.374 72.7945 138.653 72.8358ZM136.944 85.612C136.996 85.62 137.049 85.6168 137.1 85.6027C137.15 85.5886 137.197 85.5638 137.238 85.5302L143.036 81.1C143.081 81.069 143.118 81.0287 143.145 80.9817C143.172 80.9348 143.189 80.8825 143.194 80.8285C143.202 80.7765 143.198 80.7235 143.184 80.6729C143.17 80.6223 143.145 80.5753 143.112 80.535L138.703 74.7291C138.637 74.6457 138.541 74.5912 138.436 74.5771C138.33 74.5629 138.223 74.5903 138.138 74.6535L132.339 79.0837C132.297 79.1156 132.261 79.1555 132.234 79.2013C132.207 79.2471 132.19 79.2978 132.183 79.3503C132.176 79.4029 132.179 79.4564 132.193 79.5076C132.207 79.5588 132.231 79.6067 132.264 79.6486L136.673 85.4546C136.703 85.4991 136.744 85.5363 136.791 85.5635C136.838 85.5907 136.89 85.6072 136.944 85.612Z" fill="#E6F2FF"/>
<path d="M359.279 33.1113C359.524 33.1434 359.76 33.2236 359.974 33.3475C360.187 33.4713 360.374 33.6363 360.524 33.8328L364.37 38.8674C364.671 39.2646 364.802 39.7644 364.736 40.2582C364.67 40.7519 364.412 41.1996 364.018 41.5039L358.983 45.3502C358.582 45.6408 358.085 45.7662 357.594 45.7006C357.104 45.6349 356.657 45.3832 356.347 44.9975L352.51 39.9643C352.359 39.7686 352.248 39.5448 352.184 39.3058C352.119 39.0669 352.103 38.8176 352.136 38.5724C352.169 38.3272 352.25 38.0909 352.375 37.8772C352.5 37.6636 352.665 37.4769 352.863 37.3278L357.888 33.4801C358.285 33.1795 358.785 33.0471 359.279 33.1113ZM357.795 44.2025C357.841 44.2099 357.887 44.2078 357.932 44.1965C357.977 44.1851 358.019 44.1647 358.056 44.1365L363.09 40.2902C363.127 40.2618 363.157 40.2264 363.18 40.1861C363.203 40.1459 363.217 40.1015 363.223 40.0557C363.23 40.0099 363.228 39.9632 363.217 39.9183C363.205 39.8734 363.185 39.8313 363.157 39.7946L359.31 34.7601C359.289 34.7156 359.256 34.6771 359.216 34.6481C359.176 34.6191 359.129 34.6005 359.08 34.5939C359.031 34.5874 358.981 34.5931 358.935 34.6105C358.889 34.6279 358.847 34.6565 358.815 34.6938L353.79 38.5415C353.751 38.5675 353.718 38.6018 353.693 38.6421C353.668 38.6825 353.653 38.7277 353.648 38.7747C353.641 38.8213 353.644 38.8688 353.658 38.9141C353.671 38.9593 353.693 39.0013 353.724 39.0371L357.56 44.0702C357.589 44.1067 357.624 44.1371 357.664 44.1598C357.705 44.1825 357.749 44.197 357.795 44.2025Z" fill="#E6F2FF"/>
<path d="M71.5581 51.2081C71.6282 50.6846 71.5414 50.1522 71.3088 49.6781C71.0762 49.204 70.7083 48.8095 70.2516 48.5445C69.7948 48.2795 69.2697 48.1559 68.7427 48.1893C68.2156 48.2228 67.7104 48.4117 67.2908 48.7323C66.8711 49.0529 66.556 49.4908 66.3852 49.9905C66.2144 50.4901 66.1956 51.0293 66.3312 51.5396C66.4668 52.05 66.7508 52.5087 67.1471 52.8577C67.5434 53.2067 68.0342 53.4304 68.5576 53.5004C68.9053 53.5483 69.2592 53.5268 69.5986 53.4373C69.938 53.3478 70.2562 53.192 70.5352 52.979C70.8141 52.7659 71.0481 52.4997 71.2237 52.1957C71.3992 51.8918 71.5129 51.5561 71.5581 51.2081Z" fill="#E6F2FF"/>
<path d="M254.304 86.9364C252.75 86.7284 251.321 87.8201 251.113 89.3747C250.905 90.9294 251.997 92.3583 253.551 92.5663C255.106 92.7743 256.535 91.6826 256.743 90.1279C256.951 88.5733 255.859 87.1444 254.304 86.9364Z" fill="#E6F2FF"/>
<path d="M198.504 70.1689C198.59 69.5259 198.484 68.8718 198.198 68.2894C197.912 67.707 197.46 67.2224 196.899 66.8968C196.338 66.5713 195.693 66.4195 195.046 66.4605C194.398 66.5016 193.777 66.7337 193.262 67.1276C192.746 67.5214 192.359 68.0593 192.15 68.6731C191.94 69.287 191.917 69.9493 192.083 70.5762C192.25 71.2032 192.599 71.7667 193.085 72.1954C193.572 72.6242 194.175 72.899 194.818 72.985C195.681 73.1003 196.553 72.8685 197.245 72.3403C197.936 71.8122 198.389 71.0311 198.504 70.1689Z" fill="#E5EEFF"/>
<path d="M541.774 305.658L535.827 304.863C534.864 304.734 533.979 305.41 533.85 306.374L533.054 312.321C532.925 313.284 533.602 314.17 534.565 314.299L540.512 315.094C541.476 315.223 542.361 314.547 542.49 313.583L543.286 307.636C543.414 306.673 542.738 305.787 541.774 305.658Z" fill="#E5EEFF"/>
<path d="M539.184 301.569L545.666 302.436C546.164 302.506 546.615 302.769 546.921 303.168C547.226 303.568 547.361 304.072 547.297 304.571L546.429 311.064C546.359 311.562 546.096 312.013 545.696 312.318C545.297 312.624 544.793 312.759 544.294 312.695L537.811 311.828C537.313 311.758 536.862 311.495 536.557 311.095C536.251 310.696 536.116 310.191 536.18 309.692L537.049 303.2C537.118 302.702 537.381 302.251 537.781 301.946C538.181 301.64 538.685 301.505 539.184 301.569ZM544.492 311.208C544.545 311.216 544.599 311.214 544.651 311.201C544.703 311.189 544.751 311.166 544.794 311.134C544.837 311.102 544.873 311.062 544.9 311.016C544.927 310.97 544.945 310.919 544.952 310.866L545.82 304.374C545.827 304.321 545.824 304.267 545.81 304.216C545.796 304.164 545.772 304.116 545.739 304.074C545.706 304.032 545.665 303.997 545.618 303.971C545.572 303.945 545.52 303.929 545.467 303.923L538.985 303.056C538.88 303.042 538.773 303.07 538.689 303.134C538.605 303.199 538.549 303.294 538.535 303.399L537.667 309.891C537.653 309.996 537.681 310.103 537.745 310.187C537.81 310.272 537.905 310.327 538.01 310.341L544.492 311.208Z" fill="#E6F2FF"/>
<path d="M450.774 11.6585L444.827 10.8629C443.864 10.734 442.979 11.4105 442.85 12.374L442.054 18.321C441.925 19.2844 442.602 20.1699 443.565 20.2988L449.512 21.0945C450.476 21.2234 451.361 20.5468 451.49 19.5834L452.286 13.6364C452.414 12.6729 451.738 11.7874 450.774 11.6585Z" fill="#E5EEFF"/>
<path d="M448.184 7.5691L454.666 8.43634C455.164 8.50566 455.615 8.76879 455.921 9.16857C456.226 9.56836 456.361 10.0725 456.297 10.5715L455.429 17.0637C455.359 17.562 455.096 18.0128 454.696 18.3183C454.297 18.6237 453.793 18.7591 453.294 18.6949L446.811 17.8277C446.313 17.7584 445.862 17.4953 445.557 17.0955C445.251 16.6957 445.116 16.1915 445.18 15.6925L446.049 9.20038C446.118 8.70207 446.381 8.25123 446.781 7.94579C447.181 7.64036 447.685 7.50499 448.184 7.5691ZM453.492 17.2082C453.545 17.2166 453.599 17.2144 453.651 17.2016C453.703 17.1889 453.751 17.1659 453.794 17.134C453.837 17.1021 453.873 17.062 453.9 17.016C453.927 16.97 453.945 16.919 453.952 16.8661L454.82 10.3739C454.827 10.321 454.824 10.2672 454.81 10.2157C454.796 10.1642 454.772 10.116 454.739 10.074C454.706 10.032 454.665 9.99702 454.618 9.9711C454.572 9.94518 454.52 9.92885 454.467 9.92309L447.985 9.05586C447.88 9.04179 447.773 9.07007 447.689 9.13447C447.605 9.19888 447.549 9.29414 447.535 9.39929L446.667 15.8914C446.653 15.9966 446.681 16.103 446.745 16.1873C446.81 16.2716 446.905 16.3269 447.01 16.341L453.492 17.2082Z" fill="#E6F2FF"/>
<path d="M751.516 109.049L761.794 110.424C763.464 110.647 764.998 109.475 765.222 107.805L766.597 97.5266C766.82 95.857 765.648 94.3225 763.978 94.0991L753.7 92.724C752.03 92.5006 750.496 93.673 750.272 95.3426L748.897 105.621C748.674 107.291 749.846 108.825 751.516 109.049Z" fill="#E5EEFF"/>
<path d="M748.664 85.5733L759.884 87.0744C760.749 87.1901 761.532 87.6446 762.062 88.338C762.592 89.0314 762.824 89.9068 762.709 90.7716L761.207 101.992C761.089 102.854 760.634 103.635 759.941 104.163C759.248 104.69 758.375 104.922 757.512 104.806L746.291 103.305C745.428 103.19 744.646 102.737 744.116 102.046C743.587 101.355 743.353 100.481 743.465 99.618L744.967 88.398C745.082 87.5331 745.537 86.7496 746.23 86.2199C746.924 85.6902 747.799 85.4576 748.664 85.5733ZM757.854 102.249C758.037 102.271 758.222 102.221 758.369 102.108C758.516 101.996 758.613 101.831 758.64 101.648L760.141 90.4282C760.166 90.2442 760.117 90.0579 760.004 89.9104C759.891 89.7628 759.724 89.6661 759.54 89.6415L748.32 88.1404C748.136 88.1158 747.95 88.1653 747.803 88.278C747.655 88.3907 747.558 88.5574 747.534 88.7414L746.033 99.9614C746.008 100.145 746.057 100.332 746.17 100.479C746.283 100.627 746.45 100.723 746.634 100.748L757.854 102.249Z" fill="#E6F2FF"/>
<path d="M546.653 78.8358C547.221 78.9126 547.736 79.2098 548.086 79.6631L552.519 85.442C552.866 85.8986 553.018 86.4739 552.942 87.0422C552.866 87.6105 552.568 88.1256 552.113 88.475L546.313 92.9151C545.857 93.2618 545.282 93.4138 544.713 93.3378C544.145 93.2617 543.63 92.9639 543.28 92.5093L538.842 86.6994C538.67 86.4735 538.544 86.2159 538.472 85.9413C538.399 85.6668 538.382 85.3807 538.42 85.0993C538.499 84.5322 538.796 84.0182 539.247 83.6664L545.056 79.2375C545.283 79.0689 545.541 78.9466 545.815 78.8776C546.089 78.8087 546.374 78.7945 546.653 78.8358ZM544.944 91.612C544.996 91.62 545.049 91.6168 545.1 91.6027C545.15 91.5886 545.197 91.5638 545.238 91.5302L551.036 87.1C551.081 87.069 551.118 87.0287 551.145 86.9817C551.172 86.9348 551.189 86.8825 551.194 86.8285C551.202 86.7765 551.198 86.7235 551.184 86.6729C551.17 86.6223 551.145 86.5753 551.112 86.535L546.703 80.7291C546.637 80.6457 546.541 80.5912 546.436 80.5771C546.33 80.5629 546.223 80.5903 546.138 80.6535L540.339 85.0837C540.297 85.1156 540.261 85.1555 540.234 85.2013C540.207 85.2471 540.19 85.2978 540.183 85.3503C540.176 85.4029 540.179 85.4564 540.193 85.5076C540.207 85.5588 540.231 85.6067 540.264 85.6486L544.673 91.4546C544.703 91.4991 544.744 91.5363 544.791 91.5635C544.838 91.5907 544.89 91.6072 544.944 91.612Z" fill="#E6F2FF"/>
<path d="M767.279 39.1112C767.524 39.1433 767.76 39.2235 767.974 39.3474C768.187 39.4712 768.374 39.6362 768.524 39.8327L772.37 44.8672C772.671 45.2645 772.802 45.7643 772.736 46.258C772.67 46.7518 772.412 47.1994 772.018 47.5037L766.983 51.3501C766.582 51.6407 766.085 51.7661 765.594 51.7005C765.104 51.6348 764.657 51.3831 764.347 50.9974L760.51 45.9642C760.359 45.7685 760.248 45.5447 760.184 45.3057C760.119 45.0668 760.103 44.8175 760.136 44.5723C760.169 44.3271 760.25 44.0908 760.375 43.8771C760.5 43.6635 760.665 43.4767 760.863 43.3277L765.888 39.48C766.285 39.1794 766.785 39.047 767.279 39.1112ZM765.795 50.2024C765.841 50.2097 765.887 50.2077 765.932 50.1964C765.977 50.185 766.019 50.1646 766.056 50.1364L771.09 46.2901C771.127 46.2616 771.157 46.2263 771.18 46.186C771.203 46.1458 771.217 46.1014 771.223 46.0555C771.23 46.0098 771.228 45.9631 771.217 45.9182C771.205 45.8733 771.185 45.8312 771.157 45.7945L767.31 40.76C767.289 40.7154 767.256 40.677 767.216 40.648C767.176 40.619 767.129 40.6004 767.08 40.5938C767.031 40.5873 766.981 40.593 766.935 40.6104C766.889 40.6278 766.847 40.6564 766.815 40.6937L761.79 44.5414C761.751 44.5673 761.718 44.6017 761.693 44.642C761.668 44.6823 761.653 44.7276 761.648 44.7746C761.641 44.8212 761.644 44.8687 761.658 44.914C761.671 44.9592 761.693 45.0012 761.724 45.0369L765.56 50.0701C765.589 50.1066 765.624 50.137 765.664 50.1597C765.705 50.1824 765.749 50.1969 765.795 50.2024Z" fill="#E6F2FF"/>
<path d="M479.558 57.2081C479.628 56.6846 479.541 56.1522 479.309 55.6781C479.076 55.204 478.708 54.8095 478.252 54.5445C477.795 54.2795 477.27 54.1559 476.743 54.1893C476.216 54.2228 475.71 54.4117 475.291 54.7323C474.871 55.0529 474.556 55.4908 474.385 55.9905C474.214 56.4901 474.196 57.0293 474.331 57.5396C474.467 58.05 474.751 58.5087 475.147 58.8577C475.543 59.2067 476.034 59.4304 476.558 59.5004C476.905 59.5483 477.259 59.5268 477.599 59.4373C477.938 59.3478 478.256 59.192 478.535 58.979C478.814 58.7659 479.048 58.4997 479.224 58.1957C479.399 57.8918 479.513 57.5561 479.558 57.2081Z" fill="#E6F2FF"/>
<path d="M662.304 92.9364C660.75 92.7284 659.321 93.8201 659.113 95.3747C658.905 96.9294 659.997 98.3583 661.551 98.5663C663.106 98.7743 664.535 97.6826 664.743 96.1279C664.951 94.5733 663.859 93.1444 662.304 92.9364Z" fill="#E6F2FF"/>
<path d="M606.504 76.1689C606.59 75.5259 606.484 74.8718 606.198 74.2894C605.912 73.707 605.46 73.2224 604.899 72.8968C604.338 72.5713 603.693 72.4195 603.046 72.4605C602.398 72.5016 601.777 72.7337 601.262 73.1276C600.746 73.5214 600.359 74.0593 600.15 74.6731C599.94 75.287 599.917 75.9493 600.083 76.5762C600.25 77.2032 600.599 77.7667 601.085 78.1954C601.572 78.6242 602.175 78.899 602.818 78.985C603.681 79.1003 604.553 78.8685 605.245 78.3403C605.936 77.8122 606.389 77.0311 606.504 76.1689Z" fill="#E5EEFF"/>
<path d="M1417.52 72.0486L1427.79 73.4237C1429.46 73.647 1431 72.4746 1431.22 70.8051L1432.6 60.5266C1432.82 58.857 1431.65 57.3225 1429.98 57.0991L1419.7 55.724C1418.03 55.5006 1416.5 56.673 1416.27 58.3426L1414.9 68.621C1414.67 70.2906 1415.85 71.8252 1417.52 72.0486Z" fill="#E5EEFF"/>
<path d="M1414.66 48.5733L1425.88 50.0744C1426.75 50.1901 1427.53 50.6446 1428.06 51.338C1428.59 52.0314 1428.82 52.9068 1428.71 53.7716L1427.21 64.9916C1427.09 65.8544 1426.63 66.6352 1425.94 67.1628C1425.25 67.6904 1424.37 67.9219 1423.51 67.8064L1412.29 66.3053C1411.43 66.1898 1410.65 65.7369 1410.12 65.0457C1409.59 64.3545 1409.35 63.4815 1409.47 62.618L1410.97 51.398C1411.08 50.5331 1411.54 49.7496 1412.23 49.2199C1412.92 48.6902 1413.8 48.4576 1414.66 48.5733ZM1423.85 65.2492C1424.04 65.2711 1424.22 65.2206 1424.37 65.1084C1424.52 64.9962 1424.61 64.8311 1424.64 64.6482L1426.14 53.4282C1426.17 53.2442 1426.12 53.0579 1426 52.9104C1425.89 52.7628 1425.72 52.6661 1425.54 52.6415L1414.32 51.1404C1414.14 51.1158 1413.95 51.1653 1413.8 51.278C1413.66 51.3907 1413.56 51.5574 1413.53 51.7414L1412.03 62.9614C1412.01 63.1455 1412.06 63.3317 1412.17 63.4792C1412.28 63.6268 1412.45 63.7235 1412.63 63.7481L1423.85 65.2492Z" fill="#E6F2FF"/>
<path d="M1212.65 41.8358C1213.22 41.9126 1213.74 42.2098 1214.09 42.6631L1218.52 48.442C1218.87 48.8986 1219.02 49.4739 1218.94 50.0422C1218.87 50.6105 1218.57 51.1256 1218.11 51.475L1212.31 55.9151C1211.86 56.2618 1211.28 56.4138 1210.71 56.3378C1210.15 56.2617 1209.63 55.9639 1209.28 55.5093L1204.84 49.6994C1204.67 49.4735 1204.54 49.2159 1204.47 48.9413C1204.4 48.6668 1204.38 48.3807 1204.42 48.0993C1204.5 47.5322 1204.8 47.0182 1205.25 46.6664L1211.06 42.2375C1211.28 42.0689 1211.54 41.9466 1211.81 41.8776C1212.09 41.8087 1212.37 41.7945 1212.65 41.8358ZM1210.94 54.612C1211 54.62 1211.05 54.6168 1211.1 54.6027C1211.15 54.5886 1211.2 54.5638 1211.24 54.5302L1217.04 50.1C1217.08 50.069 1217.12 50.0287 1217.15 49.9817C1217.17 49.9348 1217.19 49.8825 1217.19 49.8285C1217.2 49.7765 1217.2 49.7235 1217.18 49.6729C1217.17 49.6223 1217.15 49.5753 1217.11 49.535L1212.7 43.7291C1212.64 43.6457 1212.54 43.5912 1212.44 43.5771C1212.33 43.5629 1212.22 43.5903 1212.14 43.6535L1206.34 48.0837C1206.3 48.1156 1206.26 48.1555 1206.23 48.2013C1206.21 48.2471 1206.19 48.2978 1206.18 48.3503C1206.18 48.4029 1206.18 48.4564 1206.19 48.5076C1206.21 48.5588 1206.23 48.6067 1206.26 48.6486L1210.67 54.4546C1210.7 54.4991 1210.74 54.5363 1210.79 54.5635C1210.84 54.5907 1210.89 54.6072 1210.94 54.612Z" fill="#E6F2FF"/>
<path d="M1433.28 2.11133C1433.52 2.14338 1433.76 2.22364 1433.97 2.34748C1434.19 2.47132 1434.37 2.63628 1434.52 2.83283L1438.37 7.86735C1438.67 8.26462 1438.8 8.76445 1438.74 9.25817C1438.67 9.75188 1438.41 10.1996 1438.02 10.5039L1432.98 14.3502C1432.58 14.6408 1432.09 14.7662 1431.59 14.7006C1431.1 14.6349 1430.66 14.3832 1430.35 13.9975L1426.51 8.9643C1426.36 8.76858 1426.25 8.54478 1426.18 8.30585C1426.12 8.06692 1426.1 7.81763 1426.14 7.5724C1426.17 7.32717 1426.25 7.09089 1426.38 6.87725C1426.5 6.66361 1426.67 6.47685 1426.86 6.3278L1431.89 2.4801C1432.29 2.1795 1432.78 2.04707 1433.28 2.11133ZM1431.8 13.2025C1431.84 13.2099 1431.89 13.2078 1431.93 13.1965C1431.98 13.1851 1432.02 13.1647 1432.06 13.1365L1437.09 9.29019C1437.13 9.26176 1437.16 9.2264 1437.18 9.18614C1437.2 9.14589 1437.22 9.10154 1437.22 9.05566C1437.23 9.00994 1437.23 8.9632 1437.22 8.91831C1437.21 8.87342 1437.19 8.83133 1437.16 8.7946L1433.31 3.76008C1433.29 3.71556 1433.26 3.6771 1433.22 3.64812C1433.18 3.61913 1433.13 3.60051 1433.08 3.59394C1433.03 3.58738 1432.98 3.59307 1432.94 3.61049C1432.89 3.62791 1432.85 3.65652 1432.82 3.69378L1427.79 7.54148C1427.75 7.56745 1427.72 7.60183 1427.69 7.64215C1427.67 7.68247 1427.65 7.72773 1427.65 7.77469C1427.64 7.8213 1427.64 7.86882 1427.66 7.91408C1427.67 7.95934 1427.69 8.00128 1427.72 8.03707L1431.56 13.0702C1431.59 13.1067 1431.62 13.1371 1431.66 13.1598C1431.7 13.1825 1431.75 13.197 1431.8 13.2025Z" fill="#E6F2FF"/>
<path d="M1145.56 20.2082C1145.63 19.6848 1145.54 19.1523 1145.31 18.6782C1145.08 18.2041 1144.71 17.8096 1144.25 17.5446C1143.8 17.2796 1143.27 17.156 1142.74 17.1895C1142.22 17.2229 1141.71 17.4119 1141.29 17.7325C1140.87 18.0531 1140.56 18.4909 1140.39 18.9906C1140.21 19.4903 1140.2 20.0294 1140.33 20.5397C1140.47 21.0501 1140.75 21.5088 1141.15 21.8578C1141.54 22.2068 1142.03 22.4305 1142.56 22.5005C1142.91 22.5484 1143.26 22.527 1143.6 22.4375C1143.94 22.348 1144.26 22.1922 1144.54 21.9791C1144.81 21.766 1145.05 21.4998 1145.22 21.1959C1145.4 20.8919 1145.51 20.5562 1145.56 20.2082Z" fill="#E6F2FF"/>
<path d="M1328.3 55.9364C1326.75 55.7284 1325.32 56.8201 1325.11 58.3747C1324.91 59.9294 1326 61.3583 1327.55 61.5663C1329.11 61.7743 1330.54 60.6826 1330.74 59.1279C1330.95 57.5733 1329.86 56.1444 1328.3 55.9364Z" fill="#E6F2FF"/>
<path d="M1272.5 39.169C1272.59 38.526 1272.48 37.872 1272.2 37.2895C1271.91 36.7071 1271.46 36.2225 1270.9 35.897C1270.34 35.5714 1269.69 35.4196 1269.05 35.4607C1268.4 35.5017 1267.78 35.7338 1267.26 36.1277C1266.75 36.5215 1266.36 37.0594 1266.15 37.6732C1265.94 38.2871 1265.92 38.9494 1266.08 39.5763C1266.25 40.2033 1266.6 40.7668 1267.09 41.1956C1267.57 41.6243 1268.18 41.8991 1268.82 41.9851C1269.68 42.1005 1270.55 41.8686 1271.24 41.3405C1271.94 40.8123 1272.39 40.0312 1272.5 39.169Z" fill="#E5EEFF"/>
<path d="M193.774 146.658L187.827 145.863C186.864 145.734 185.979 146.41 185.85 147.374L185.054 153.321C184.925 154.284 185.602 155.17 186.565 155.299L192.512 156.094C193.476 156.223 194.361 155.547 194.49 154.583L195.286 148.636C195.414 147.673 194.738 146.787 193.774 146.658Z" fill="#E5EEFF"/>
<path d="M191.184 142.569L197.666 143.436C198.164 143.506 198.615 143.769 198.921 144.168C199.226 144.568 199.361 145.072 199.297 145.571L198.429 152.064C198.359 152.562 198.096 153.013 197.696 153.318C197.297 153.624 196.793 153.759 196.294 153.695L189.811 152.828C189.313 152.758 188.862 152.495 188.557 152.095C188.251 151.696 188.116 151.191 188.18 150.692L189.049 144.2C189.118 143.702 189.381 143.251 189.781 142.946C190.181 142.64 190.685 142.505 191.184 142.569ZM196.492 152.208C196.545 152.216 196.599 152.214 196.651 152.201C196.703 152.189 196.751 152.166 196.794 152.134C196.837 152.102 196.873 152.062 196.9 152.016C196.927 151.97 196.945 151.919 196.952 151.866L197.82 145.374C197.827 145.321 197.824 145.267 197.81 145.216C197.796 145.164 197.772 145.116 197.739 145.074C197.706 145.032 197.665 144.997 197.618 144.971C197.572 144.945 197.52 144.929 197.467 144.923L190.985 144.056C190.88 144.042 190.773 144.07 190.689 144.134C190.605 144.199 190.549 144.294 190.535 144.399L189.667 150.891C189.653 150.996 189.681 151.103 189.745 151.187C189.81 151.272 189.905 151.327 190.01 151.341L196.492 152.208Z" fill="#E6F2FF"/>
<path d="M494.516 244.049L504.794 245.424C506.464 245.647 507.998 244.475 508.222 242.805L509.597 232.527C509.82 230.857 508.648 229.322 506.978 229.099L496.7 227.724C495.03 227.501 493.496 228.673 493.272 230.343L491.897 240.621C491.674 242.291 492.846 243.825 494.516 244.049Z" fill="#E5EEFF"/>
<path d="M491.664 220.573L502.884 222.074C503.749 222.19 504.532 222.645 505.062 223.338C505.592 224.031 505.824 224.907 505.709 225.772L504.207 236.992C504.089 237.854 503.634 238.635 502.941 239.163C502.248 239.69 501.375 239.922 500.512 239.806L489.291 238.305C488.428 238.19 487.646 237.737 487.116 237.046C486.587 236.355 486.353 235.481 486.465 234.618L487.967 223.398C488.082 222.533 488.537 221.75 489.23 221.22C489.924 220.69 490.799 220.458 491.664 220.573ZM500.854 237.249C501.037 237.271 501.222 237.221 501.369 237.108C501.516 236.996 501.613 236.831 501.64 236.648L503.141 225.428C503.166 225.244 503.117 225.058 503.004 224.91C502.891 224.763 502.724 224.666 502.54 224.642L491.32 223.14C491.136 223.116 490.95 223.165 490.803 223.278C490.655 223.391 490.558 223.557 490.534 223.741L489.033 234.961C489.008 235.145 489.057 235.332 489.17 235.479C489.283 235.627 489.45 235.723 489.634 235.748L500.854 237.249Z" fill="#E6F2FF"/>
<path d="M289.653 213.836C290.221 213.913 290.736 214.21 291.086 214.663L295.519 220.442C295.866 220.899 296.018 221.474 295.942 222.042C295.866 222.61 295.568 223.126 295.113 223.475L289.313 227.915C288.857 228.262 288.282 228.414 287.713 228.338C287.145 228.262 286.63 227.964 286.28 227.509L281.842 221.699C281.67 221.473 281.544 221.216 281.472 220.941C281.399 220.667 281.382 220.381 281.42 220.099C281.499 219.532 281.796 219.018 282.247 218.666L288.056 214.238C288.283 214.069 288.541 213.947 288.815 213.878C289.089 213.809 289.374 213.794 289.653 213.836ZM287.944 226.612C287.996 226.62 288.049 226.617 288.1 226.603C288.15 226.589 288.197 226.564 288.238 226.53L294.036 222.1C294.081 222.069 294.118 222.029 294.145 221.982C294.172 221.935 294.189 221.882 294.194 221.828C294.202 221.777 294.198 221.724 294.184 221.673C294.17 221.622 294.145 221.575 294.112 221.535L289.703 215.729C289.637 215.646 289.541 215.591 289.436 215.577C289.33 215.563 289.223 215.59 289.138 215.653L283.339 220.084C283.297 220.116 283.261 220.156 283.234 220.201C283.207 220.247 283.19 220.298 283.183 220.35C283.176 220.403 283.179 220.456 283.193 220.508C283.207 220.559 283.231 220.607 283.264 220.649L287.673 226.455C287.703 226.499 287.744 226.536 287.791 226.563C287.838 226.591 287.89 226.607 287.944 226.612Z" fill="#E6F2FF"/>
<path d="M510.279 174.111C510.524 174.143 510.76 174.224 510.974 174.347C511.187 174.471 511.374 174.636 511.524 174.833L515.37 179.867C515.671 180.264 515.802 180.764 515.736 181.258C515.67 181.752 515.412 182.199 515.018 182.504L509.983 186.35C509.582 186.641 509.085 186.766 508.594 186.7C508.104 186.635 507.657 186.383 507.347 185.997L503.51 180.964C503.359 180.768 503.248 180.545 503.184 180.306C503.119 180.067 503.103 179.818 503.136 179.572C503.169 179.327 503.25 179.091 503.375 178.877C503.5 178.663 503.665 178.477 503.863 178.328L508.888 174.48C509.285 174.179 509.785 174.047 510.279 174.111ZM508.795 185.202C508.841 185.21 508.887 185.208 508.932 185.196C508.977 185.185 509.019 185.165 509.056 185.136L514.09 181.29C514.127 181.262 514.157 181.226 514.18 181.186C514.203 181.146 514.217 181.101 514.223 181.056C514.23 181.01 514.228 180.963 514.217 180.918C514.205 180.873 514.185 180.831 514.157 180.794L510.31 175.76C510.289 175.715 510.256 175.677 510.216 175.648C510.176 175.619 510.129 175.6 510.08 175.594C510.031 175.587 509.981 175.593 509.935 175.61C509.889 175.628 509.847 175.656 509.815 175.694L504.79 179.541C504.751 179.567 504.718 179.602 504.693 179.642C504.668 179.682 504.653 179.728 504.648 179.775C504.641 179.821 504.644 179.869 504.658 179.914C504.671 179.959 504.693 180.001 504.724 180.037L508.56 185.07C508.589 185.107 508.624 185.137 508.664 185.16C508.705 185.182 508.749 185.197 508.795 185.202Z" fill="#E6F2FF"/>
<path d="M222.558 192.208C222.628 191.685 222.541 191.152 222.309 190.678C222.076 190.204 221.708 189.809 221.252 189.545C220.795 189.28 220.27 189.156 219.743 189.189C219.216 189.223 218.71 189.412 218.291 189.732C217.871 190.053 217.556 190.491 217.385 190.99C217.214 191.49 217.196 192.029 217.331 192.54C217.467 193.05 217.751 193.509 218.147 193.858C218.543 194.207 219.034 194.43 219.558 194.5C219.905 194.548 220.259 194.527 220.599 194.437C220.938 194.348 221.256 194.192 221.535 193.979C221.814 193.766 222.048 193.5 222.224 193.196C222.399 192.892 222.513 192.556 222.558 192.208Z" fill="#E6F2FF"/>
<path d="M405.304 227.936C403.75 227.728 402.321 228.82 402.113 230.375C401.905 231.929 402.997 233.358 404.551 233.566C406.106 233.774 407.535 232.683 407.743 231.128C407.951 229.573 406.859 228.144 405.304 227.936Z" fill="#E6F2FF"/>
<path d="M349.504 211.169C349.59 210.526 349.484 209.872 349.198 209.289C348.912 208.707 348.46 208.222 347.899 207.897C347.338 207.571 346.693 207.419 346.046 207.461C345.398 207.502 344.777 207.734 344.262 208.128C343.746 208.521 343.359 209.059 343.15 209.673C342.94 210.287 342.917 210.949 343.083 211.576C343.25 212.203 343.599 212.767 344.085 213.195C344.572 213.624 345.175 213.899 345.818 213.985C346.681 214.1 347.553 213.868 348.245 213.34C348.936 212.812 349.389 212.031 349.504 211.169Z" fill="#E5EEFF"/>
<path d="M696.774 146.658L690.827 145.863C689.864 145.734 688.979 146.41 688.85 147.374L688.054 153.321C687.925 154.284 688.602 155.17 689.565 155.299L695.512 156.094C696.476 156.223 697.361 155.547 697.49 154.583L698.286 148.636C698.414 147.673 697.738 146.787 696.774 146.658Z" fill="#E5EEFF"/>
<path d="M694.184 142.569L700.666 143.436C701.164 143.506 701.615 143.769 701.921 144.168C702.226 144.568 702.361 145.072 702.297 145.571L701.429 152.064C701.359 152.562 701.096 153.013 700.696 153.318C700.297 153.624 699.793 153.759 699.294 153.695L692.811 152.828C692.313 152.758 691.862 152.495 691.557 152.095C691.251 151.696 691.116 151.191 691.18 150.692L692.049 144.2C692.118 143.702 692.381 143.251 692.781 142.946C693.181 142.64 693.685 142.505 694.184 142.569ZM699.492 152.208C699.545 152.216 699.599 152.214 699.651 152.201C699.703 152.189 699.751 152.166 699.794 152.134C699.837 152.102 699.873 152.062 699.9 152.016C699.927 151.97 699.945 151.919 699.952 151.866L700.82 145.374C700.827 145.321 700.824 145.267 700.81 145.216C700.796 145.164 700.772 145.116 700.739 145.074C700.706 145.032 700.665 144.997 700.618 144.971C700.572 144.945 700.52 144.929 700.467 144.923L693.985 144.056C693.88 144.042 693.773 144.07 693.689 144.134C693.605 144.199 693.549 144.294 693.535 144.399L692.667 150.891C692.653 150.996 692.681 151.103 692.745 151.187C692.81 151.272 692.905 151.327 693.01 151.341L699.492 152.208Z" fill="#E6F2FF"/>
<path d="M997.516 244.049L1007.79 245.424C1009.46 245.647 1011 244.475 1011.22 242.805L1012.6 232.527C1012.82 230.857 1011.65 229.322 1009.98 229.099L999.7 227.724C998.031 227.501 996.496 228.673 996.273 230.343L994.898 240.621C994.674 242.291 995.847 243.825 997.516 244.049Z" fill="#E5EEFF"/>
<path d="M994.664 220.573L1005.88 222.074C1006.75 222.19 1007.53 222.645 1008.06 223.338C1008.59 224.031 1008.82 224.907 1008.71 225.772L1007.21 236.992C1007.09 237.854 1006.63 238.635 1005.94 239.163C1005.25 239.69 1004.37 239.922 1003.51 239.806L992.292 238.305C991.429 238.19 990.646 237.737 990.117 237.046C989.587 236.355 989.353 235.481 989.466 234.618L990.967 223.398C991.083 222.533 991.537 221.75 992.23 221.22C992.924 220.69 993.799 220.458 994.664 220.573ZM1003.85 237.249C1004.04 237.271 1004.22 237.221 1004.37 237.108C1004.52 236.996 1004.61 236.831 1004.64 236.648L1006.14 225.428C1006.17 225.244 1006.12 225.058 1006 224.91C1005.89 224.763 1005.72 224.666 1005.54 224.642L994.321 223.14C994.137 223.116 993.95 223.165 993.803 223.278C993.655 223.391 993.559 223.557 993.534 223.741L992.033 234.961C992.008 235.145 992.058 235.332 992.17 235.479C992.283 235.627 992.45 235.723 992.634 235.748L1003.85 237.249Z" fill="#E6F2FF"/>
<path d="M792.653 213.836C793.221 213.913 793.736 214.21 794.086 214.663L798.519 220.442C798.866 220.899 799.018 221.474 798.942 222.042C798.866 222.61 798.568 223.126 798.113 223.475L792.313 227.915C791.857 228.262 791.282 228.414 790.713 228.338C790.145 228.262 789.63 227.964 789.28 227.509L784.842 221.699C784.67 221.473 784.544 221.216 784.472 220.941C784.399 220.667 784.382 220.381 784.42 220.099C784.499 219.532 784.796 219.018 785.247 218.666L791.056 214.238C791.283 214.069 791.541 213.947 791.815 213.878C792.089 213.809 792.374 213.794 792.653 213.836ZM790.944 226.612C790.996 226.62 791.049 226.617 791.1 226.603C791.15 226.589 791.197 226.564 791.238 226.53L797.036 222.1C797.081 222.069 797.118 222.029 797.145 221.982C797.172 221.935 797.189 221.882 797.194 221.828C797.202 221.777 797.198 221.724 797.184 221.673C797.17 221.622 797.145 221.575 797.112 221.535L792.703 215.729C792.637 215.646 792.541 215.591 792.436 215.577C792.33 215.563 792.223 215.59 792.138 215.653L786.339 220.084C786.297 220.116 786.261 220.156 786.234 220.201C786.207 220.247 786.19 220.298 786.183 220.35C786.176 220.403 786.179 220.456 786.193 220.508C786.207 220.559 786.231 220.607 786.264 220.649L790.673 226.455C790.703 226.499 790.744 226.536 790.791 226.563C790.838 226.591 790.89 226.607 790.944 226.612Z" fill="#E6F2FF"/>
<path d="M1013.28 174.111C1013.52 174.143 1013.76 174.224 1013.97 174.347C1014.19 174.471 1014.37 174.636 1014.52 174.833L1018.37 179.867C1018.67 180.264 1018.8 180.764 1018.74 181.258C1018.67 181.752 1018.41 182.199 1018.02 182.504L1012.98 186.35C1012.58 186.641 1012.09 186.766 1011.59 186.7C1011.1 186.635 1010.66 186.383 1010.35 185.997L1006.51 180.964C1006.36 180.768 1006.25 180.545 1006.18 180.306C1006.12 180.067 1006.1 179.818 1006.14 179.572C1006.17 179.327 1006.25 179.091 1006.38 178.877C1006.5 178.663 1006.67 178.477 1006.86 178.328L1011.89 174.48C1012.29 174.179 1012.78 174.047 1013.28 174.111ZM1011.8 185.202C1011.84 185.21 1011.89 185.208 1011.93 185.196C1011.98 185.185 1012.02 185.165 1012.06 185.136L1017.09 181.29C1017.13 181.262 1017.16 181.226 1017.18 181.186C1017.2 181.146 1017.22 181.101 1017.22 181.056C1017.23 181.01 1017.23 180.963 1017.22 180.918C1017.21 180.873 1017.19 180.831 1017.16 180.794L1013.31 175.76C1013.29 175.715 1013.26 175.677 1013.22 175.648C1013.18 175.619 1013.13 175.6 1013.08 175.594C1013.03 175.587 1012.98 175.593 1012.94 175.61C1012.89 175.628 1012.85 175.656 1012.82 175.694L1007.79 179.541C1007.75 179.567 1007.72 179.602 1007.69 179.642C1007.67 179.682 1007.65 179.728 1007.65 179.775C1007.64 179.821 1007.64 179.869 1007.66 179.914C1007.67 179.959 1007.69 180.001 1007.72 180.037L1011.56 185.07C1011.59 185.107 1011.62 185.137 1011.66 185.16C1011.7 185.182 1011.75 185.197 1011.8 185.202Z" fill="#E6F2FF"/>
<path d="M725.558 192.208C725.628 191.685 725.541 191.152 725.309 190.678C725.076 190.204 724.708 189.809 724.252 189.545C723.795 189.28 723.27 189.156 722.743 189.189C722.216 189.223 721.71 189.412 721.291 189.732C720.871 190.053 720.556 190.491 720.385 190.99C720.214 191.49 720.196 192.029 720.331 192.54C720.467 193.05 720.751 193.509 721.147 193.858C721.543 194.207 722.034 194.43 722.558 194.5C722.905 194.548 723.259 194.527 723.599 194.437C723.938 194.348 724.256 194.192 724.535 193.979C724.814 193.766 725.048 193.5 725.224 193.196C725.399 192.892 725.513 192.556 725.558 192.208Z" fill="#E6F2FF"/>
<path d="M908.304 227.936C906.75 227.728 905.321 228.82 905.113 230.375C904.905 231.929 905.997 233.358 907.551 233.566C909.106 233.774 910.535 232.683 910.743 231.128C910.951 229.573 909.859 228.144 908.304 227.936Z" fill="#E6F2FF"/>
<path d="M852.504 211.169C852.59 210.526 852.484 209.872 852.198 209.289C851.912 208.707 851.46 208.222 850.899 207.897C850.338 207.571 849.693 207.419 849.046 207.461C848.398 207.502 847.777 207.734 847.262 208.128C846.746 208.521 846.359 209.059 846.15 209.673C845.94 210.287 845.917 210.949 846.083 211.576C846.25 212.203 846.599 212.767 847.085 213.195C847.572 213.624 848.175 213.899 848.818 213.985C849.681 214.1 850.553 213.868 851.245 213.34C851.936 212.812 852.389 212.031 852.504 211.169Z" fill="#E5EEFF"/>
<path d="M967.184 317.569L973.666 318.436C974.165 318.506 974.615 318.769 974.921 319.168C975.226 319.568 975.362 320.072 975.298 320.571L974.429 327.064C974.36 327.562 974.096 328.013 973.697 328.318C973.297 328.624 972.793 328.759 972.294 328.695L965.812 327.828C965.313 327.758 964.862 327.495 964.557 327.095C964.251 326.696 964.116 326.191 964.18 325.692L965.049 319.2C965.118 318.702 965.381 318.251 965.781 317.946C966.181 317.64 966.685 317.505 967.184 317.569ZM972.493 327.208C972.545 327.216 972.599 327.214 972.651 327.201C972.703 327.189 972.752 327.166 972.794 327.134C972.837 327.102 972.873 327.062 972.9 327.016C972.927 326.97 972.945 326.919 972.952 326.866L973.821 320.374C973.828 320.321 973.824 320.267 973.81 320.216C973.796 320.164 973.772 320.116 973.739 320.074C973.706 320.032 973.665 319.997 973.618 319.971C973.572 319.945 973.52 319.929 973.467 319.923L966.985 319.056C966.88 319.042 966.774 319.07 966.689 319.134C966.605 319.199 966.55 319.294 966.536 319.399L965.667 325.891C965.653 325.996 965.681 326.103 965.746 326.187C965.81 326.272 965.905 326.327 966.01 326.341L972.493 327.208Z" fill="#E6F2FF"/>
<path d="M1085.77 278.658L1079.83 277.863C1078.86 277.734 1077.98 278.41 1077.85 279.374L1077.05 285.321C1076.93 286.284 1077.6 287.17 1078.57 287.299L1084.51 288.094C1085.48 288.223 1086.36 287.547 1086.49 286.583L1087.29 280.636C1087.41 279.673 1086.74 278.787 1085.77 278.658Z" fill="#E5EEFF"/>
<path d="M1083.18 274.569L1089.67 275.436C1090.16 275.506 1090.62 275.769 1090.92 276.168C1091.23 276.568 1091.36 277.072 1091.3 277.571L1090.43 284.064C1090.36 284.562 1090.1 285.013 1089.7 285.318C1089.3 285.624 1088.79 285.759 1088.29 285.695L1081.81 284.828C1081.31 284.758 1080.86 284.495 1080.56 284.095C1080.25 283.696 1080.12 283.191 1080.18 282.692L1081.05 276.2C1081.12 275.702 1081.38 275.251 1081.78 274.946C1082.18 274.64 1082.68 274.505 1083.18 274.569ZM1088.49 284.208C1088.55 284.216 1088.6 284.214 1088.65 284.201C1088.7 284.189 1088.75 284.166 1088.79 284.134C1088.84 284.102 1088.87 284.062 1088.9 284.016C1088.93 283.97 1088.94 283.919 1088.95 283.866L1089.82 277.374C1089.83 277.321 1089.82 277.267 1089.81 277.216C1089.8 277.164 1089.77 277.116 1089.74 277.074C1089.71 277.032 1089.67 276.997 1089.62 276.971C1089.57 276.945 1089.52 276.929 1089.47 276.923L1082.99 276.056C1082.88 276.042 1082.77 276.07 1082.69 276.134C1082.6 276.199 1082.55 276.294 1082.54 276.399L1081.67 282.891C1081.65 282.996 1081.68 283.103 1081.75 283.187C1081.81 283.272 1081.91 283.327 1082.01 283.341L1088.49 284.208Z" fill="#E6F2FF"/>
<path d="M1402.28 306.111C1402.52 306.143 1402.76 306.224 1402.97 306.347C1403.19 306.471 1403.37 306.636 1403.52 306.833L1407.37 311.867C1407.67 312.264 1407.8 312.764 1407.74 313.258C1407.67 313.752 1407.41 314.199 1407.02 314.504L1401.98 318.35C1401.58 318.641 1401.09 318.766 1400.59 318.7C1400.1 318.635 1399.66 318.383 1399.35 317.997L1395.51 312.964C1395.36 312.768 1395.25 312.545 1395.18 312.306C1395.12 312.067 1395.1 311.818 1395.14 311.572C1395.17 311.327 1395.25 311.091 1395.38 310.877C1395.5 310.663 1395.67 310.477 1395.86 310.328L1400.89 306.48C1401.29 306.179 1401.78 306.047 1402.28 306.111ZM1400.8 317.202C1400.84 317.21 1400.89 317.208 1400.93 317.196C1400.98 317.185 1401.02 317.165 1401.06 317.136L1406.09 313.29C1406.13 313.262 1406.16 313.226 1406.18 313.186C1406.2 313.146 1406.22 313.101 1406.22 313.056C1406.23 313.01 1406.23 312.963 1406.22 312.918C1406.21 312.873 1406.19 312.831 1406.16 312.794L1402.31 307.76C1402.29 307.715 1402.26 307.677 1402.22 307.648C1402.18 307.619 1402.13 307.6 1402.08 307.594C1402.03 307.587 1401.98 307.593 1401.94 307.61C1401.89 307.628 1401.85 307.656 1401.82 307.694L1396.79 311.541C1396.75 311.567 1396.72 311.602 1396.69 311.642C1396.67 311.682 1396.65 311.728 1396.65 311.775C1396.64 311.821 1396.64 311.869 1396.66 311.914C1396.67 311.959 1396.69 312.001 1396.72 312.037L1400.56 317.07C1400.59 317.107 1400.62 317.137 1400.66 317.16C1400.7 317.182 1400.75 317.197 1400.8 317.202Z" fill="#E6F2FF"/>
<path d="M454.925 109.326L448.887 118.901C448.422 119.639 447.682 120.162 446.831 120.355C445.98 120.547 445.088 120.394 444.35 119.929L434.774 113.891C434.039 113.424 433.519 112.685 433.328 111.835C433.137 110.986 433.29 110.095 433.755 109.358L439.793 99.7831C440.258 99.0465 440.995 98.5241 441.844 98.3305C442.693 98.1368 443.584 98.2876 444.322 98.7498L453.898 104.788C454.636 105.253 455.159 105.993 455.351 106.844C455.544 107.695 455.391 108.588 454.925 109.326ZM435.937 110.734C435.841 110.892 435.81 111.081 435.851 111.262C435.891 111.442 436.001 111.599 436.156 111.7L445.731 117.738C445.888 117.837 446.078 117.87 446.259 117.829C446.44 117.788 446.597 117.676 446.697 117.519L452.735 107.944C452.834 107.787 452.866 107.597 452.825 107.416C452.784 107.235 452.673 107.078 452.516 106.979L442.941 100.941C442.784 100.842 442.594 100.809 442.413 100.85C442.232 100.891 442.074 101.002 441.975 101.159L435.937 110.734Z" fill="#E6F2FF"/>
<path d="M480.35 165.119C481.066 163.723 480.514 162.011 479.119 161.296C477.723 160.58 476.011 161.132 475.296 162.527C474.58 163.923 475.131 165.635 476.527 166.35C477.923 167.066 479.635 166.515 480.35 165.119Z" fill="#E6F2FF"/>
<path d="M513.919 226.334C514.496 226.63 515.148 226.748 515.793 226.673C516.437 226.599 517.045 226.335 517.539 225.915C518.033 225.494 518.392 224.937 518.57 224.313C518.747 223.689 518.736 223.027 518.537 222.409C518.338 221.792 517.961 221.247 517.452 220.844C516.944 220.441 516.327 220.198 515.681 220.146C515.034 220.093 514.386 220.234 513.82 220.549C513.253 220.865 512.792 221.341 512.496 221.919C512.1 222.693 512.026 223.593 512.293 224.421C512.56 225.249 513.145 225.937 513.919 226.334Z" fill="#E5EEFF"/>
</svg>
