<svg xmlns="http://www.w3.org/2000/svg" width="678" height="375" fill="none" viewBox="0 0 678 375"><g clip-path="url(#clip0_14075_140451)"><path fill="#F2F7FC" d="M584.705 134.011C590.346 130.226 591.851 122.585 588.066 116.944C584.281 111.303 576.64 109.799 570.999 113.583C565.358 117.368 563.853 125.009 567.638 130.65C571.423 136.291 579.064 137.796 584.705 134.011Z"/><path fill="#F2F7FC" d="M541.342 136.89C548.577 136.89 554.442 131.025 554.442 123.79C554.442 116.555 548.577 110.69 541.342 110.69C534.107 110.69 528.242 116.555 528.242 123.79C528.242 131.025 534.107 136.89 541.342 136.89Z"/><path fill="#F2F7FC" d="M513.283 114.52C520.96 114.52 527.183 108.297 527.183 100.62C527.183 92.9435 520.96 86.7202 513.283 86.7202C505.606 86.7202 499.383 92.9435 499.383 100.62C499.383 108.297 505.606 114.52 513.283 114.52Z"/><path fill="#F2F7FC" d="M507.582 79.5102C515.602 79.5102 522.102 73.0094 522.102 64.9902C522.102 56.971 515.602 50.4702 507.582 50.4702C499.563 50.4702 493.062 56.971 493.062 64.9902C493.062 73.0094 499.563 79.5102 507.582 79.5102Z"/><path fill="#F2F7FC" d="M525.373 48.81C533.663 48.81 540.383 42.0898 540.383 33.8C540.383 25.5102 533.663 18.79 525.373 18.79C517.083 18.79 510.363 25.5102 510.363 33.8C510.363 42.0898 517.083 48.81 525.373 48.81Z"/><path fill="#F2F7FC" d="M559.544 37.8401C568.579 37.8401 575.904 30.5155 575.904 21.4801C575.904 12.4447 568.579 5.12012 559.544 5.12012C550.508 5.12012 543.184 12.4447 543.184 21.4801C543.184 30.5155 550.508 37.8401 559.544 37.8401Z"/><path fill="#F2F7FC" d="M616.502 103.031C618.002 96.643 614.039 90.2494 607.652 88.75C601.264 87.2507 594.87 91.2133 593.371 97.6009C591.872 103.988 595.834 110.382 602.222 111.881C608.609 113.381 615.003 109.418 616.502 103.031Z"/><path fill="#F2F7FC" d="M611.333 75.6098C617.419 75.6098 622.352 70.676 622.352 64.5898C622.352 58.5036 617.419 53.5698 611.333 53.5698C605.246 53.5698 600.312 58.5036 600.312 64.5898C600.312 70.676 605.246 75.6098 611.333 75.6098Z"/><path fill="#F2F7FC" d="M593.004 43.4598C598.565 43.4598 603.074 38.9513 603.074 33.3898C603.074 27.8283 598.565 23.3198 593.004 23.3198C587.442 23.3198 582.934 27.8283 582.934 33.3898C582.934 38.9513 587.442 43.4598 593.004 43.4598Z"/><path fill="#F2F7FC" d="M171 24.9998C172.117 24.761 173.265 24.7036 174.4 24.8298C177.542 25.1191 180.486 26.4905 182.73 28.7098C184.287 30.2341 185.463 32.105 186.16 34.1698C186.964 36.5499 187.112 39.1025 186.59 41.5598C186.005 44.2938 184.611 46.7886 182.59 48.7198C180.441 50.8126 177.677 52.1599 174.704 52.5631C171.732 52.9664 168.709 52.4044 166.08 50.9598C164.829 50.2935 163.694 49.429 162.72 48.3998C161.768 47.4332 160.969 46.3272 160.35 45.1198C159.193 42.8893 158.657 40.3885 158.8 37.8798C158.92 35.7026 159.554 33.5848 160.65 31.6998C162.213 28.9458 164.689 26.8238 167.65 25.6998C168.719 25.2807 169.852 25.0441 171 24.9998C171 25.0998 169.8 25.1998 167.8 25.9998C164.984 27.2059 162.65 29.3175 161.17 31.9998C160.082 33.9549 159.5 36.151 159.478 38.3883C159.455 40.6255 159.992 42.833 161.04 44.8098C161.629 45.9533 162.391 46.9989 163.3 47.9098C164.226 48.8779 165.303 49.6885 166.49 50.3098C168.974 51.6706 171.83 52.1999 174.637 51.8202C177.444 51.4405 180.056 50.1717 182.09 48.1998C183.071 47.2699 183.898 46.1897 184.54 44.9998C185.171 43.8794 185.627 42.6686 185.89 41.4098C186.372 39.2246 186.3 36.9535 185.68 34.8034C185.06 32.6533 183.912 30.6925 182.34 29.0998C180.198 26.9065 177.38 25.4976 174.34 25.0998C172.23 24.8198 171 25.0498 171 24.9998Z"/><path fill="#F2F7FC" d="M176.213 7.37C176.142 7.2269 176.079 7.08002 176.023 6.93L175.483 5.57C175.003 4.32 174.303 2.52 173.393 0.18L173.533 0.26L160.873 2.05L161.043 1.87C160.853 4.2 160.633 6.8 160.403 9.57V9.71H160.273C157.713 10.8152 155.311 12.258 153.133 14H153.003L152.853 13.94L145.853 10.76L146.193 10.67C143.763 13.88 141.193 17.28 138.483 20.86V20.47L143.483 26.38L143.613 26.53L143.533 26.72C142.487 29.2828 141.784 31.9728 141.443 34.72V34.92L141.243 35L134.013 37.71L134.243 37.33C134.783 41.33 135.373 45.6 135.973 50L135.643 49.68L143.333 50.35H143.563L143.653 50.56C144.715 53.104 146.11 55.495 147.803 57.67L147.943 57.85L147.843 58.06L144.643 65.06L144.533 64.59L154.703 72.33H154.213L160.133 67.33L160.313 67.18L160.533 67.27C163.079 68.3178 165.752 69.0239 168.483 69.37C168.623 69.48 168.163 69.11 168.803 69.62V69.68V69.79L168.893 70.02L169.063 70.47L169.403 71.38L170.073 73.2C170.533 74.4 170.973 75.61 171.423 76.8L171.003 76.55L183.673 75L183.333 75.35C183.563 72.76 183.793 70.19 184.013 67.66V67.42L184.233 67.33C186.779 66.2754 189.17 64.8829 191.343 63.19L191.523 63.05L191.733 63.15L198.733 66.36L198.283 66.47L206.033 56.31V56.76L201.033 50.83L200.893 50.67L200.983 50.47C202.037 47.9082 202.746 45.2181 203.093 42.47V42.26L203.283 42.19L210.523 39.5L210.313 39.85C209.713 35.39 209.153 31.19 208.623 27.18L208.893 27.44L201.203 26.75H201.033L200.963 26.59C199.958 24.052 198.626 21.6553 197.003 19.46L196.913 19.34L196.973 19.2L200.203 12.2L200.273 12.48L190.083 4.68H190.303C187.933 6.68 185.983 8.26 184.303 9.6L184.243 9.65H184.173C182.237 8.8426 180.228 8.22308 178.173 7.8L176.653 7.51L176.143 7.41C176.316 7.39398 176.49 7.39398 176.663 7.41C177.003 7.41 177.513 7.51 178.203 7.63C180.257 8.00972 182.267 8.59603 184.203 9.38H184.073L189.963 4.38L190.063 4.29L190.183 4.38L200.383 12.07L200.533 12.18L200.453 12.35C199.453 14.53 198.453 16.83 197.273 19.35V19.09C199.009 21.3048 200.439 23.7434 201.523 26.34L201.293 26.16L208.983 26.82H209.223V27.06C209.773 31.06 210.343 35.27 210.963 39.72V39.98L210.723 40.07L203.493 42.79L203.713 42.51C203.364 45.3094 202.644 48.05 201.573 50.66L201.513 50.3L206.513 56.22L206.703 56.44L206.523 56.67L198.793 66.84L198.613 67.08L198.343 66.96L191.343 63.76L191.733 63.71C189.505 65.4505 187.053 66.8834 184.443 67.97L184.683 67.64C184.463 70.18 184.233 72.75 184.013 75.34V75.65H183.703L171.043 77.37H170.733L170.623 77.08L169.273 73.47L168.593 71.66L168.253 70.75L168.083 70.29L167.993 70.07V69.95L168.313 70.2C165.513 69.8446 162.772 69.1182 160.163 68.04L160.573 67.98L154.643 72.98L154.403 73.18L154.163 72.99L144.003 65.27L143.753 65.08L143.883 64.8C144.993 62.38 146.093 59.98 147.093 57.8L147.143 58.2C145.413 55.969 143.987 53.5175 142.903 50.91L143.213 51.14L135.523 50.45H135.233V50.16C134.633 45.77 134.063 41.48 133.523 37.5V37.22L133.783 37.12L141.013 34.43L140.803 34.71C141.152 31.9114 141.878 29.1731 142.963 26.57V26.9L138.003 20.91L137.843 20.72L137.993 20.52L145.763 10.37L145.893 10.19L146.103 10.28L153.103 13.51H152.833C155.059 11.7899 157.504 10.3741 160.103 9.3L159.963 9.5C160.213 6.73 160.453 4.14 160.673 1.81V1.68H160.833L173.493 0H173.593V0.09L175.533 5.48L176.023 6.88C176.102 7.03702 176.166 7.20107 176.213 7.37Z"/><path fill="#F2F7FC" fill-rule="evenodd" d="M115.002 81.23C118.915 81.7185 122.746 82.7274 126.392 84.23L134.762 77.23L149.142 88.17L144.612 98.11C147.033 101.226 149.03 104.649 150.552 108.29L161.422 109.29L163.852 127.19L153.652 131C153.167 134.914 152.158 138.745 150.652 142.39L157.652 150.76L146.712 165.14L136.772 160.61C133.658 163.032 130.234 165.026 126.592 166.54L125.592 177.42L107.682 179.85L103.862 169.62C99.9487 169.13 96.1183 168.121 92.4717 166.62L84.1017 173.62L69.7217 162.62L74.2517 152.68C71.8303 149.57 69.836 146.149 68.3217 142.51L57.4417 141.51L55.0117 123.6L65.2417 119.78C65.7254 115.866 66.7345 112.035 68.2417 108.39L61.2417 100.01L72.2217 85.72L82.1617 90.25C85.2767 87.8274 88.7 85.8299 92.3417 84.31L93.3417 73.44L111.212 71L115.002 81.23ZM107.652 106.1C103.851 106.614 100.287 108.243 97.4123 110.783C94.5374 113.322 92.4804 116.657 91.5012 120.366C90.5221 124.074 90.665 127.99 91.9118 131.618C93.1585 135.245 95.4532 138.421 98.5054 140.745C101.558 143.068 105.23 144.433 109.059 144.669C112.887 144.904 116.7 143.999 120.014 142.067C123.327 140.135 125.994 137.264 127.676 133.817C129.358 130.369 129.979 126.501 129.462 122.7C128.771 117.612 126.089 113.007 122.006 109.894C117.922 106.782 112.771 105.417 107.682 106.1H107.652Z" clip-rule="evenodd"/><path fill="#1F1F1F" d="M678 374.17C678 374.31 526.21 374.43 339 374.43C151.79 374.43 0 374.31 0 374.17C0 374.03 151.76 373.91 339 373.91C526.24 373.91 678 374 678 374.17Z"/><path fill="#6C6C6C" d="M556.099 78.4199H147.929C139.883 78.4199 133.359 84.9431 133.359 92.9899V353.04C133.359 361.087 139.883 367.61 147.929 367.61H556.099C564.146 367.61 570.669 361.087 570.669 353.04V92.9899C570.669 84.9431 564.146 78.4199 556.099 78.4199Z"/><path fill="#6C6C6C" d="M116.27 348.94H590.06V356.45C590.06 361.171 588.184 365.698 584.846 369.036C581.508 372.375 576.98 374.25 572.26 374.25H134.07C129.349 374.25 124.821 372.375 121.483 369.036C118.145 365.698 116.27 361.171 116.27 356.45V348.94Z"/><path fill="#1F1F1F" d="M557.708 89.9102H145.098V334.13H557.708V89.9102Z"/><path fill="#1F1F1F" d="M308.91 346.23L314.79 355.58H397.52L402.98 346.23H308.91Z"/><path fill="#F2F7FC" d="M546.788 98.1797H156.868C155.062 98.1797 153.598 99.6437 153.598 101.45V330.08C153.598 331.886 155.062 333.35 156.868 333.35H546.788C548.594 333.35 550.058 331.886 550.058 330.08V101.45C550.058 99.6437 548.594 98.1797 546.788 98.1797Z"/><path fill="#FAFAFB" d="M549.46 333.93H153L153.42 116H549.46V333.93Z"/><path fill="url(#paint0_linear_14075_140451)" fill-rule="evenodd" d="M389.184 163.5C367.424 154.933 351.555 135.035 328.184 136C303.896 137.004 289.184 143.966 269.447 158.475C249.505 176.505 237.658 185.164 231.521 211.342C225.047 238.956 226.132 273.269 246.511 292.956C266.817 312.57 301.205 280.523 328.184 288.828C349.665 295.441 365.633 316.976 394.5 316.976C419.042 317.458 442.293 317.849 458.431 299.324C474.405 280.986 459.921 259.589 463.5 235.534C467.227 210.49 480.657 191.18 465.617 170.836C450.445 150.314 412.924 172.848 389.184 163.5Z" clip-rule="evenodd"/><path fill="#fff" d="M263.41 199.784C263.41 208.556 269.832 214.725 278.267 214.725C284.773 214.725 290.061 211.284 292.033 205.24H285.276C283.891 208.094 281.373 209.479 278.225 209.479C273.105 209.479 269.454 205.702 269.454 199.784C269.454 193.824 273.105 190.089 278.225 190.089C281.373 190.089 283.891 191.474 285.276 194.286H292.033C290.061 188.284 284.773 184.801 278.267 184.801C269.832 184.801 263.41 191.012 263.41 199.784Z"/><path fill="#fff" d="M326.683 199.742C326.683 190.97 320.051 184.759 311.699 184.759C303.431 184.759 296.674 190.97 296.674 199.742C296.674 208.556 303.431 214.767 311.699 214.767C320.009 214.767 326.683 208.556 326.683 199.742ZM302.718 199.742C302.718 193.782 306.369 190.047 311.699 190.047C316.988 190.047 320.639 193.782 320.639 199.742C320.639 205.702 316.988 209.521 311.699 209.521C306.369 209.521 302.718 205.702 302.718 199.742Z"/><path fill="#fff" d="M332.103 214.473H337.979V195.419L345.869 214.473H350.318L358.166 195.419V214.473H364.042V185.178H357.411L348.094 206.961L338.776 185.178H332.103V214.473Z"/><path fill="#fff" d="M370.9 214.473H376.776V185.178H370.9V214.473Z"/><path fill="#fff" d="M402.811 185.137V205.282L389.506 185.137H383.631V214.473H389.506V194.37L402.811 214.473H408.687V185.137H402.811Z"/><path fill="#fff" d="M429.057 184.801C420.579 184.801 414.115 191.012 414.115 199.784C414.115 208.556 420.579 214.725 429.099 214.725C436.905 214.725 442.235 209.269 443.41 203.309V198.189H427.546V202.68H437.618C436.737 206.835 433.841 209.437 429.308 209.437C423.852 209.437 420.159 205.744 420.159 199.784C420.159 193.95 423.81 190.215 429.057 190.215C432.162 190.215 434.597 191.516 435.94 193.992H442.697C440.808 188.116 435.604 184.801 429.057 184.801Z"/><path fill="#fff" d="M295.149 254.41C295.149 239.026 272.693 243.904 272.693 235.149C272.693 231.585 275.265 229.896 278.715 230.021C282.478 230.084 284.799 232.335 284.987 235.212H294.647C294.082 227.332 287.935 222.767 278.966 222.767C269.934 222.767 263.536 227.52 263.536 235.399C263.473 251.221 286.054 245.53 286.054 254.973C286.054 258.1 283.607 260.289 279.468 260.289C275.391 260.289 273.07 257.975 272.819 254.473H263.41C263.536 262.728 270.561 267.48 279.656 267.48C289.629 267.48 295.149 261.289 295.149 254.41Z"/><path fill="#fff" d="M347.046 245.093C347.046 232.022 337.135 222.767 324.653 222.767C312.296 222.767 302.197 232.022 302.197 245.093C302.197 258.225 312.296 267.48 324.653 267.48C337.072 267.48 347.046 258.225 347.046 245.093ZM311.23 245.093C311.23 236.212 316.687 230.647 324.653 230.647C332.556 230.647 338.013 236.212 338.013 245.093C338.013 253.973 332.556 259.663 324.653 259.663C316.687 259.663 311.23 253.973 311.23 245.093Z"/><path fill="#fff" d="M397.862 245.093C397.862 232.022 387.952 222.767 375.47 222.767C363.113 222.767 353.014 232.022 353.014 245.093C353.014 258.225 363.113 267.48 375.47 267.48C387.889 267.48 397.862 258.225 397.862 245.093ZM362.047 245.093C362.047 236.212 367.504 230.647 375.47 230.647C383.373 230.647 388.83 236.212 388.83 245.093C388.83 253.973 383.373 259.663 375.47 259.663C367.504 259.663 362.047 253.973 362.047 245.093Z"/><path fill="#fff" d="M434.629 223.33V253.347L414.745 223.33H405.964V267.043H414.745V237.088L434.629 267.043H443.41V223.33H434.629Z"/><path fill="#1F1F1F" d="M186.11 107.26C186.111 107.89 185.926 108.506 185.576 109.03C185.226 109.553 184.728 109.961 184.145 110.201C183.563 110.44 182.922 110.501 182.305 110.375C181.688 110.249 181.122 109.942 180.68 109.493C180.238 109.044 179.94 108.473 179.824 107.854C179.708 107.235 179.779 106.595 180.027 106.017C180.276 105.438 180.692 104.947 181.221 104.605C181.751 104.264 182.37 104.088 183 104.1C183.829 104.113 184.62 104.452 185.202 105.043C185.784 105.634 186.11 106.43 186.11 107.26Z"/><path fill="#1F1F1F" d="M166.918 107.26C166.92 107.888 166.736 108.502 166.388 109.025C166.04 109.548 165.545 109.956 164.966 110.197C164.386 110.438 163.748 110.502 163.132 110.38C162.516 110.258 161.951 109.956 161.507 109.512C161.063 109.068 160.761 108.502 160.639 107.886C160.517 107.27 160.58 106.632 160.821 106.052C161.063 105.473 161.47 104.978 161.993 104.63C162.516 104.283 163.13 104.098 163.758 104.1C164.596 104.1 165.4 104.433 165.993 105.026C166.585 105.618 166.918 106.422 166.918 107.26Z"/><path fill="#1F1F1F" d="M176.141 107.26C176.143 107.888 175.958 108.503 175.609 109.027C175.261 109.55 174.765 109.958 174.184 110.198C173.603 110.439 172.964 110.501 172.347 110.378C171.731 110.254 171.165 109.95 170.722 109.504C170.279 109.058 169.979 108.49 169.859 107.873C169.739 107.256 169.806 106.617 170.05 106.038C170.294 105.459 170.705 104.965 171.23 104.62C171.756 104.275 172.372 104.094 173.001 104.1C173.835 104.108 174.632 104.444 175.219 105.035C175.807 105.627 176.138 106.426 176.141 107.26Z"/><path fill="#1F1F1F" d="M566.909 346.22C566.909 346.38 469.849 346.51 350.149 346.51C230.449 346.51 133.359 346.38 133.359 346.22C133.359 346.06 230.359 345.94 350.149 345.94C469.939 345.94 566.909 346.07 566.909 346.22Z"/><path fill="#0063CC" d="M186.204 302.613L191.299 312.594L193.843 311.886L206.648 322.302C207.17 322.729 207.839 322.936 208.512 322.878C209.185 322.82 209.809 322.502 210.251 321.991L215.125 316.325C215.125 316.325 205.296 312.091 203.479 308.587C201.662 305.083 203.762 304.288 203.762 304.288L199.133 299.032L186.204 302.613Z"/><path fill="#0063CC" d="M192.816 282.223C192.816 282.223 200.272 280.573 210.765 270.484C221.258 260.394 226.188 246.993 227.471 247.058C228.754 247.124 234.364 244.52 245.032 267.722C255.699 290.924 251.496 296.301 249.381 296.267C247.265 296.233 232.845 292.207 223.843 293.232C214.841 294.257 203.272 298.948 203.272 298.948L192.816 282.223Z"/><path fill="#0063CC" d="M176.976 294.869L179.52 299.706L180.66 301.88C181.412 303.312 182.685 304.4 184.216 304.92C185.748 305.44 187.42 305.353 188.889 304.676L204.871 299.109L195.552 277.858L179.582 286.37C178.114 287.156 177.017 288.491 176.529 290.083C176.041 291.675 176.201 293.395 176.976 294.869Z"/><g opacity=".4"><path fill="#000" d="M176.972 294.869L179.516 299.706L180.656 301.88C181.408 303.312 182.681 304.4 184.213 304.92C185.744 305.44 187.416 305.353 188.885 304.676L204.867 299.109L195.548 277.858L179.578 286.37C178.11 287.156 177.013 288.491 176.525 290.083C176.037 291.675 176.197 293.395 176.972 294.869Z" opacity=".4"/></g><path fill="#0063CC" d="M244.164 268.144C249.842 280.713 252.203 291.911 249.445 293.16C246.686 294.409 239.843 285.23 234.168 272.658C228.492 260.086 226.128 248.888 228.887 247.642C231.645 246.396 238.482 255.576 244.164 268.144Z"/><g opacity=".5"><path fill="#000" d="M244.164 268.145C249.842 280.714 252.203 291.912 249.445 293.161C246.686 294.41 239.843 285.23 234.168 272.659C228.492 260.087 226.128 248.889 228.887 247.643C231.645 246.397 238.482 255.577 244.164 268.145Z" opacity=".5"/></g><path fill="#0063CC" d="M175.595 301.859L179.926 300.498L177.245 295.4L173.999 297.42L175.595 301.859Z"/><g opacity=".6"><path fill="#000" d="M177.249 295.4L179.93 300.498L179.041 300.777L176.861 295.642L177.249 295.4Z" opacity=".6"/></g><path fill="#0063CC" d="M180.231 296.575C180.296 296.718 182.458 295.876 185.058 294.711C187.658 293.546 189.718 292.468 189.659 292.328C189.6 292.188 187.435 293.027 184.832 294.192C182.228 295.357 180.169 296.435 180.231 296.575Z"/><path fill="#0063CC" d="M178.901 293.542C178.969 293.682 180.926 292.856 183.271 291.7C185.617 290.545 187.465 289.498 187.397 289.361C187.328 289.224 185.371 290.048 183.026 291.203C180.681 292.359 178.838 293.402 178.901 293.542Z"/><path fill="#0063CC" d="M181.911 299.755C181.933 299.83 182.448 299.712 183.268 299.445C183.679 299.32 184.166 299.159 184.704 298.972C185.241 298.786 185.791 298.497 186.387 298.23C188.757 297.13 190.565 296.055 190.506 295.925C190.447 295.795 188.503 296.633 186.157 297.724C185.567 297.991 185.02 298.286 184.508 298.5C183.995 298.715 183.526 298.904 183.138 299.075C182.361 299.445 181.889 299.687 181.911 299.755Z"/><path fill="#0063CC" d="M232.578 265.349C232.578 265.349 239.071 261.329 242.618 270.086C246.166 278.843 239.344 280.281 239.344 280.281C236.397 275.647 234.119 270.62 232.578 265.349Z"/><g opacity=".5"><path fill="#000" d="M225.701 254.915C225.663 254.915 225.754 255.514 225.955 256.586C226.157 257.658 226.449 259.211 226.866 261.118C227.139 262.05 227.437 263.081 227.76 264.181C227.922 264.731 228.09 265.302 228.264 265.886C228.351 266.181 228.438 266.48 228.528 266.781C228.618 267.082 228.751 267.371 228.863 267.676C229.329 268.878 229.82 270.142 230.326 271.453L230.718 272.444C230.842 272.776 231.028 273.093 231.171 273.423C231.482 274.075 231.811 274.737 232.134 275.408L233.097 277.389C233.265 277.7 233.408 278.048 233.585 278.355L234.135 279.272L236.2 282.76C236.368 283.037 236.511 283.316 236.697 283.577L237.235 284.338L238.269 285.792L240.133 288.392C241.376 289.893 242.41 291.079 243.125 291.899C243.474 292.346 243.862 292.762 244.283 293.142C244.314 293.117 243.957 292.629 243.292 291.769L240.438 288.15L238.648 285.528L237.648 284.071L237.126 283.313C236.955 283.052 236.815 282.77 236.642 282.493L234.619 279.014L234.085 278.104C233.905 277.793 233.774 277.464 233.603 277.144L232.647 275.171L231.69 273.199C231.538 272.873 231.361 272.562 231.233 272.23L230.845 271.248C230.332 269.953 229.835 268.701 229.36 267.52C229.245 267.21 229.118 266.93 229.018 266.635L228.742 265.753C228.562 265.173 228.387 264.61 228.217 264.063C227.872 262.976 227.555 261.963 227.26 261.034L226.182 256.564C226.069 256.001 225.908 255.45 225.701 254.915Z" opacity=".5"/></g><g opacity=".4"><path fill="#000" d="M213.574 315.619C212.984 316.694 212.378 317.794 211.505 318.642C210.632 319.49 209.427 320.108 208.209 319.984C206.992 319.86 205.836 318.85 205.821 317.623C205.237 318.064 204.339 317.825 203.854 317.278C203.37 316.731 203.214 315.967 203.155 315.237C202.36 315.706 201.254 315.334 200.726 314.579C200.481 314.186 200.327 313.744 200.273 313.284C200.219 312.824 200.268 312.358 200.415 311.92C200.718 311.047 201.148 310.224 201.692 309.478C201.071 309.528 200.431 309.568 199.884 309.292C199.338 309.015 198.968 308.291 199.288 307.766C199.507 307.477 199.822 307.275 200.176 307.198C201.136 306.887 201.81 306.657 202.807 306.772C203.04 306.772 202.407 309.407 208.672 313.004C212.375 315.129 213.574 315.619 213.574 315.619Z" opacity=".4"/></g><path fill="#0063CC" d="M628.519 294.67C632.709 292.5 637.649 292.22 642.299 292.99C644.809 293.4 647.409 294.15 649.119 295.99C650.829 297.83 651.119 301.18 649.189 302.79C647.927 303.643 646.406 304.029 644.889 303.88C641.249 303.88 637.199 303.2 634.289 305.39C632.629 306.64 631.519 308.72 629.539 309.33C628.546 309.562 627.504 309.465 626.571 309.052C625.638 308.638 624.865 307.932 624.369 307.04C623.42 305.212 623.212 303.087 623.789 301.11C624.029 299.745 624.58 298.453 625.401 297.336C626.221 296.219 627.288 295.307 628.519 294.67Z"/><path fill="#0063CC" d="M618.909 276.12C621.469 279.78 626.459 278.57 628.769 276.33C631.079 274.09 632.059 270.86 632.949 267.77C634.949 260.71 637.029 253.3 635.509 246.12C635.149 243.94 634.194 241.902 632.749 240.23C632.015 239.396 631.073 238.771 630.019 238.419C628.965 238.068 627.837 238.003 626.749 238.23C624.239 238.89 622.679 241.35 621.549 243.69C618.225 250.603 616.483 258.169 616.449 265.84C616.449 269.41 616.859 273.15 618.869 276.1"/><path fill="#0063CC" d="M611.869 281.37C614.649 278.07 615.179 273.25 613.939 269.11C612.533 264.999 610.021 261.356 606.679 258.58C602.888 255.196 598.471 252.587 593.679 250.9C591.824 250.148 589.828 249.807 587.829 249.9C586.828 249.962 585.857 250.267 585.001 250.79C584.145 251.313 583.43 252.037 582.919 252.9C581.559 255.51 582.919 258.67 584.289 261.26C586.793 265.809 589.648 270.155 592.829 274.26C595.389 277.56 598.319 280.81 602.229 282.31C606.139 283.81 610.179 283.62 612.229 280.92"/><path fill="#1F1F1F" d="M618.738 331.37C618.863 330.821 618.94 330.262 618.968 329.7C619.088 328.49 619.228 326.97 619.408 325.16C619.626 322.924 619.96 320.701 620.408 318.5C621.004 315.82 621.814 313.191 622.828 310.64C623.821 308.091 625.168 305.694 626.828 303.52C628.184 301.754 629.915 300.313 631.898 299.3C633.245 298.632 634.689 298.183 636.178 297.97C636.738 297.949 637.294 297.868 637.838 297.73C637.276 297.671 636.709 297.671 636.148 297.73C634.605 297.853 633.095 298.245 631.688 298.89C629.6 299.879 627.769 301.337 626.338 303.15C624.597 305.349 623.195 307.796 622.178 310.41C621.142 313.001 620.336 315.678 619.768 318.41C619.34 320.64 619.046 322.894 618.888 325.16C618.738 327.08 618.688 328.65 618.658 329.72C618.626 330.271 618.652 330.824 618.738 331.37Z"/><path fill="#1F1F1F" d="M619.049 327.87C619.079 327.614 619.079 327.356 619.049 327.1V324.89C619.049 322.97 619.049 320.2 619.149 316.78C619.319 309.93 619.909 302.56 621.049 292.16C622.119 282.39 623.569 271.02 625.049 263.63C625.379 261.95 625.709 260.43 626.049 259.11C626.389 257.79 626.599 256.63 626.839 255.71L627.359 253.56C627.433 253.313 627.476 253.057 627.489 252.8C627.374 253.03 627.284 253.271 627.219 253.52L626.579 255.64C626.299 256.56 626.009 257.69 625.669 259.02C625.329 260.35 624.959 261.85 624.599 263.53C622.729 272.272 621.327 281.108 620.399 290C619.259 300.41 618.749 309.89 618.699 316.76C618.699 320.19 618.699 322.97 618.819 324.89C618.879 325.78 618.919 326.51 618.959 327.09C618.956 327.353 618.986 327.615 619.049 327.87Z"/><path fill="#1F1F1F" d="M619.098 309.58C619.149 308.814 619.149 308.046 619.098 307.28C619.008 305.79 618.808 303.65 618.388 301.03C617.895 297.958 617.227 294.916 616.388 291.92C615.396 288.238 614.122 284.637 612.578 281.15C609.936 274.718 606.148 268.819 601.398 263.74C600.577 262.866 599.698 262.048 598.768 261.29C598.368 260.95 598.008 260.61 597.648 260.29L596.648 259.59C596.016 259.121 595.347 258.703 594.648 258.34C596.887 260.1 599.015 261.997 601.018 264.02C605.613 269.141 609.299 275.008 611.918 281.37C613.435 284.839 614.715 288.407 615.748 292.05C616.62 295.011 617.341 298.015 617.908 301.05C618.388 303.65 618.668 305.77 618.828 307.24C618.853 308.026 618.943 308.809 619.098 309.58Z"/><path fill="#1F1F1F" d="M601.418 341.84L603.248 366.95H635.498L637.338 341.84H601.418Z"/><path fill="#1F1F1F" d="M641.177 331.95H598.297V341.85H641.177V331.95Z"/><path fill="#6C6C6C" d="M598.297 365.99V368.73H600.317H640.477V365.99H598.297Z"/><path fill="#6C6C6C" d="M602.29 373.56L600.32 368.73H638.94L636.64 373.56H602.29Z"/><path fill="#F2F7FC" d="M636.737 350.05L636.587 350.28L636.107 350.92L634.227 353.32L634.137 353.43L634.057 353.32L629.447 346.93H629.707L625.167 353.37L625.017 353.57L624.867 353.38L619.477 347H619.787L619.487 347.38L614.667 353.38L614.507 353.58L614.357 353.37C612.727 351.05 611.197 348.89 609.807 346.94H610.077L604.477 353.32L604.377 353.43L604.297 353.3C603.567 352.06 602.977 351.08 602.547 350.36L602.097 349.57C602.04 349.482 601.994 349.388 601.957 349.29C602.032 349.364 602.096 349.448 602.147 349.54L602.647 350.3C603.097 351 603.717 351.97 604.487 353.19H604.307L609.817 346.73L609.957 346.57L610.087 346.74L614.677 353.15H614.367C615.887 351.23 617.507 349.15 619.177 347.1L619.467 346.72L619.627 346.53L619.777 346.72L625.157 353.14H624.857C626.507 350.82 628.057 348.67 629.447 346.73L629.577 346.55L629.707 346.73L634.227 353.19H634.067L636.017 350.85L636.537 350.24C636.657 350.11 636.727 350 636.737 350.05Z"/><path fill="#6C6C6C" d="M637.789 341.68C637.789 341.79 629.699 341.88 619.789 341.88C609.879 341.88 601.789 341.79 601.789 341.68C601.789 341.57 609.869 341.48 619.789 341.48C629.709 341.48 637.789 341.57 637.789 341.68Z"/><path fill="#1F1F1F" d="M639.41 369C639.41 369.11 630.63 369.2 619.8 369.2C608.97 369.2 600.18 369.11 600.18 369C600.18 368.89 608.96 368.8 619.8 368.8C630.64 368.8 639.41 368.89 639.41 369Z"/><path fill="#1F1F1F" d="M133.417 285.377C133.39 284.977 133.268 284.59 133.061 284.247C132.855 283.905 132.569 283.616 132.228 283.406C121.719 276.444 113.778 261.008 112.976 247.937C112.976 247.195 112.937 246.439 112.911 245.677C112.3 226.997 109.548 204.336 107.078 198.3C102.52 187.134 87.0708 186.096 87.0708 186.096C66.5578 184.624 62.8926 200.388 60.7973 214.74C59.4836 223.667 54.5508 255.556 54.5508 255.556L58.321 257.014C60.4858 263.531 64.0696 269.485 68.814 274.449C73.5584 279.413 79.3452 283.262 85.7571 285.718C89.5405 287.137 92.7459 287.689 94.2435 286.487C100.241 292.576 107.658 297.079 115.827 299.591C119.119 300.7 122.594 301.161 126.061 300.95C128.3 300.74 130.659 299.998 131.972 298.192C132.549 297.411 132.894 296.484 132.966 295.516C133.039 294.549 132.836 293.58 132.381 292.723C131.926 291.866 131.238 291.154 130.396 290.672C129.555 290.189 128.594 289.954 127.624 289.994C128.386 287.472 133.535 288.214 133.417 285.377Z"/><path fill="#FFBE9D" d="M89.7974 191.889L88.5166 190.667L74.6442 196.25C73.6763 196.304 72.7638 196.719 72.0875 197.414C71.4112 198.108 71.0203 199.032 70.9922 200.001L71.117 245.184C71.117 248.245 71.7081 250.899 73.5604 253.342L75.5309 255.917C79.9777 261.776 89.1078 261.297 92.6087 254.833C92.8246 254.468 92.9903 254.074 93.1013 253.664C93.1736 253.264 93.2852 253.007 93.3115 252.653C93.7188 249.02 93.745 245.868 93.745 245.868C93.9946 241.881 94.0735 240.239 94.0735 240.278C94.0735 240.317 102.566 239.299 104.865 228.396C106.008 222.977 105.791 215.515 105.47 208.178C105.01 198.017 97.9619 191.876 89.7974 191.889Z"/><path fill="#1F1F1F" d="M86.9546 214.261C86.9409 214.629 86.7831 214.977 86.5153 215.23C86.2475 215.483 85.891 215.621 85.5226 215.614C85.3442 215.624 85.1655 215.597 84.9977 215.536C84.8299 215.474 84.6764 215.379 84.5467 215.256C84.4169 215.133 84.3136 214.985 84.2432 214.82C84.1727 214.656 84.1364 214.479 84.1367 214.3C84.1401 214.114 84.1805 213.93 84.2555 213.76C84.3306 213.589 84.4388 213.435 84.5739 213.307C84.7089 213.179 84.8682 213.078 85.0424 213.012C85.2165 212.946 85.4021 212.915 85.5883 212.921C85.7675 212.914 85.9462 212.943 86.1134 213.008C86.2807 213.072 86.433 213.17 86.561 213.296C86.689 213.421 86.7899 213.572 86.8576 213.738C86.9253 213.904 86.9583 214.082 86.9546 214.261Z"/><path fill="#1F1F1F" d="M101.293 214.649C101.278 215.016 101.12 215.363 100.852 215.616C100.585 215.869 100.229 216.007 99.8612 216.002C99.6835 216.007 99.5065 215.977 99.3404 215.914C99.1742 215.851 99.0221 215.755 98.8928 215.633C98.7634 215.511 98.6594 215.365 98.5867 215.203C98.5139 215.041 98.4739 214.866 98.4688 214.688C98.4841 214.32 98.6421 213.972 98.9094 213.718C99.1766 213.464 99.5321 213.325 99.9007 213.328C100.26 213.321 100.607 213.456 100.868 213.703C101.128 213.95 101.281 214.29 101.293 214.649Z"/><path fill="#1F1F1F" d="M103.977 211.082C103.793 211.253 102.769 210.425 101.251 210.34C99.7341 210.254 98.5846 210.996 98.427 210.773C98.3481 210.688 98.5452 210.366 99.0444 210.037C99.7239 209.614 100.518 209.412 101.317 209.459C102.107 209.496 102.864 209.783 103.478 210.28C103.977 210.661 104.095 211.003 103.977 211.082Z"/><path fill="#1F1F1F" d="M88.6181 211.239C88.4145 211.39 87.4752 210.444 85.9907 210.221C84.5063 209.998 83.2714 210.576 83.1401 210.366C83.0744 210.267 83.2977 209.972 83.8298 209.709C84.5485 209.357 85.3588 209.238 86.1484 209.367C86.9308 209.485 87.6555 209.848 88.2174 210.405C88.605 210.812 88.7166 211.167 88.6181 211.239Z"/><path fill="#1F1F1F" d="M93.9132 222.274C94.7247 222.068 95.5586 221.962 96.396 221.959C96.7835 221.959 97.1579 221.88 97.2368 221.617C97.2893 221.218 97.2182 220.812 97.0331 220.455L96.0347 217.446C94.6554 213.17 93.6767 209.663 93.8475 209.604C94.0183 209.545 95.2794 212.973 96.6587 217.256C96.9915 218.307 97.309 219.314 97.6111 220.277C97.8296 220.757 97.8737 221.299 97.7359 221.808C97.6736 221.94 97.5821 222.057 97.4684 222.149C97.3547 222.241 97.2216 222.306 97.0791 222.34C96.8638 222.389 96.6429 222.409 96.4223 222.399C94.8656 222.406 93.9132 222.366 93.9132 222.274Z"/><path fill="#EB996E" d="M94.0578 240.278C88.8788 240.096 83.8515 238.482 79.5352 235.614C79.5352 235.614 82.8588 243.404 93.9068 242.931L94.0578 240.278Z"/><path fill="#EB996E" d="M93.0886 225.9C92.8189 225.522 92.4571 225.219 92.0375 225.02C91.6179 224.822 91.1545 224.733 90.6912 224.764C90.3549 224.777 90.0247 224.858 89.7201 225.001C89.4155 225.145 89.1427 225.348 88.9177 225.598C88.703 225.842 88.5678 226.145 88.5302 226.468C88.4927 226.791 88.5545 227.117 88.7075 227.404C88.9389 227.689 89.2501 227.898 89.6013 228.005C89.9524 228.111 90.3274 228.11 90.678 228.002C91.3989 227.785 92.069 227.425 92.6486 226.944C92.8266 226.834 92.9807 226.689 93.1018 226.517C93.1588 226.434 93.1894 226.336 93.1894 226.235C93.1894 226.134 93.1588 226.036 93.1018 225.953"/><path fill="#1F1F1F" d="M89.3973 223.102C89.6469 223.102 89.5681 224.744 90.9146 225.986C92.2611 227.227 94.028 227.135 94.028 227.365C94.028 227.47 93.6208 227.661 92.8786 227.647C91.9056 227.615 90.9753 227.24 90.2512 226.59C89.5669 225.966 89.1484 225.103 89.082 224.179C89.082 223.49 89.2856 223.102 89.3973 223.102Z"/><path fill="#1F1F1F" d="M90.0682 205.321C89.858 205.708 88.3866 205.288 86.5935 205.229C84.8003 205.17 83.3093 205.433 83.1254 205.032C83.0466 204.841 83.3553 204.493 83.9858 204.185C84.826 203.813 85.7414 203.642 86.6592 203.685C87.5797 203.716 88.48 203.963 89.2865 204.408C89.8842 204.769 90.1864 205.137 90.0682 205.321Z"/><path fill="#1F1F1F" d="M103.79 204.566C103.507 204.895 102.476 204.487 101.221 204.402C99.9669 204.317 98.8897 204.52 98.6663 204.146C98.5678 203.968 98.7517 203.634 99.2312 203.325C99.8758 202.966 100.612 202.806 101.348 202.866C102.083 202.925 102.784 203.202 103.363 203.66C103.79 204.054 103.914 204.402 103.79 204.566Z"/><path fill="#1F1F1F" d="M71.2704 219.285C71.2704 219.285 79.0408 221.703 83.435 202.53C84.9392 195.961 91.0149 190.667 91.0149 190.667L88.5518 189.925C88.5518 189.925 73.2343 194.24 72.9716 194.431C72.7088 194.621 69.1094 202.352 69.1094 202.352L71.2704 219.285Z"/><path fill="#FFBE9D" d="M73.184 218.57C73.184 217.749 72.3695 215.772 71.5681 215.608C69.4269 215.161 65.5252 215.141 65.2165 220.619C64.7896 228.114 72.4023 226.991 72.4417 226.78C72.4811 226.57 73.046 221.394 73.184 218.57Z"/><path fill="#EB996E" d="M70.3043 223.812C70.3043 223.812 70.1663 223.897 69.943 223.982C69.6247 224.098 69.2741 224.086 68.9643 223.949C68.1892 223.614 67.5915 222.321 67.6506 220.967C67.6692 220.325 67.8308 219.694 68.1236 219.122C68.2072 218.891 68.3461 218.684 68.5281 218.519C68.7102 218.354 68.9299 218.236 69.1679 218.176C69.32 218.143 69.4787 218.166 69.6158 218.239C69.7529 218.312 69.8595 218.432 69.9167 218.577C70.0087 218.787 69.9496 218.938 69.989 218.951C70.0284 218.964 70.1598 218.833 70.1138 218.524C70.085 218.336 69.9921 218.165 69.851 218.038C69.6521 217.869 69.3954 217.784 69.1351 217.801C68.8244 217.847 68.5304 217.971 68.281 218.162C68.0316 218.353 67.835 218.604 67.7098 218.892C67.3512 219.519 67.1548 220.226 67.1383 220.948C67.0989 222.465 67.7951 223.917 68.8592 224.291C69.0562 224.361 69.2664 224.386 69.4743 224.364C69.6823 224.343 69.8828 224.275 70.0612 224.166C70.278 223.989 70.3305 223.825 70.3043 223.812Z"/><path fill="#1F1F1F" d="M76.5352 215.614C76.9137 215.563 77.2888 215.488 77.6583 215.391C78.6573 215.088 79.5724 214.557 80.3317 213.841C80.8597 213.356 81.3273 212.809 81.7242 212.212C82.1748 211.524 82.5534 210.791 82.8539 210.025C83.5013 208.244 84.0408 206.425 84.4698 204.579C84.9952 202.609 85.5667 200.776 86.1907 199.134C86.7427 197.678 87.4013 196.264 88.1612 194.904C88.6753 193.991 89.2502 193.113 89.8821 192.277C90.0988 191.981 90.2959 191.765 90.4141 191.62C90.4759 191.542 90.544 191.47 90.6178 191.403C90.5672 191.489 90.5101 191.57 90.447 191.646C90.3353 191.804 90.1514 192.027 89.9412 192.303C89.3392 193.146 88.7866 194.024 88.286 194.931C87.5546 196.295 86.9182 197.708 86.3812 199.161C85.7703 200.796 85.2054 202.642 84.6799 204.586C84.2551 206.442 83.7087 208.267 83.0444 210.051C82.7329 210.826 82.3434 211.568 81.8818 212.264C81.4697 212.865 80.9892 213.417 80.4499 213.907C79.6687 214.624 78.7274 215.144 77.7043 215.424C77.3264 215.546 76.9323 215.61 76.5352 215.614Z"/><path fill="#6C6C6C" d="M66.3019 247.576C66.257 247.46 66.2282 247.338 66.2165 247.215C66.1705 246.952 66.1114 246.597 66.026 246.151C65.8684 245.192 65.6451 243.819 65.3692 242.085H65.5465C65.5859 242.354 65.6319 242.656 65.6713 242.971V242.939C65.7173 243.044 65.7699 243.162 65.829 243.28L65.6385 243.346C64.4968 239.401 63.6926 235.367 63.2345 231.286C62.9466 228.697 62.7953 226.095 62.7812 223.49C62.7812 220.751 62.7813 217.841 63.5235 214.951C63.8212 213.761 64.2785 212.616 64.8831 211.548C65.4734 210.52 66.1596 209.551 66.9325 208.652C68.4563 206.891 70.0984 205.368 71.596 203.877L79.6423 195.994L85.0809 190.687L86.5719 189.255L86.966 188.887C87.058 188.802 87.1039 188.763 87.1105 188.769C87.1171 188.776 87.1105 188.822 86.9923 188.914L86.6244 189.301L85.1728 190.779C83.8592 192.093 82.0594 193.906 79.8065 196.172L71.7931 204.054C70.302 205.565 68.6599 207.082 67.1952 208.822C65.5992 210.575 64.448 212.686 63.8388 214.977C63.1162 217.821 63.1294 220.711 63.0965 223.444C63.1169 230.137 64.0337 236.797 65.8224 243.247L65.6319 243.313L65.4809 242.978C65.4414 242.663 65.402 242.361 65.3692 242.091H65.5465C65.8027 243.832 65.9998 245.205 66.1377 246.17C66.1968 246.623 66.2428 246.978 66.2822 247.241C66.2948 247.352 66.3014 247.464 66.3019 247.576Z"/><path fill="#6C6C6C" d="M60.4062 212.947C60.4331 212.836 60.4774 212.73 60.5376 212.632C60.6558 212.396 60.8004 212.107 60.9711 211.752C61.3521 210.99 61.9498 209.906 62.738 208.599C63.5262 207.292 64.5181 205.775 65.7004 204.139C66.8827 202.504 68.2752 200.776 69.8319 199.036C71.3886 197.295 72.9715 195.751 74.4626 194.385C75.9536 193.019 77.3658 191.883 78.5875 190.97C79.8092 190.057 80.8142 189.334 81.5301 188.881L82.3578 188.349C82.4523 188.283 82.5536 188.228 82.6599 188.185C82.6599 188.185 82.5811 188.27 82.3972 188.408L81.609 188.986C80.9127 189.479 79.9275 190.214 78.7386 191.16C77.5497 192.106 76.1572 193.268 74.6793 194.622C73.2014 195.975 71.6382 197.545 70.0815 199.265C68.5248 200.986 67.1585 202.714 65.9565 204.323C64.7545 205.932 63.7496 207.436 62.9416 208.73C62.1337 210.024 61.5032 211.075 61.0894 211.818L60.5967 212.665C60.5431 212.765 60.4793 212.86 60.4062 212.947Z"/><path fill="#1F1F1F" d="M69.8205 273.856C69.6276 273.622 69.4562 273.371 69.3082 273.107C68.9929 272.614 68.5462 271.905 67.9945 271.038C66.5003 268.779 64.8888 266.599 63.1667 264.509C61.4632 262.408 59.5361 260.498 57.4194 258.814C56.5125 258.159 55.5719 257.552 54.6016 256.995C54.8919 257.082 55.1733 257.196 55.4423 257.336C55.7661 257.487 56.0798 257.658 56.3816 257.849C56.7889 258.083 57.1816 258.342 57.5573 258.624C59.7405 260.264 61.7128 262.168 63.4295 264.292C65.1636 266.389 66.7566 268.599 68.1981 270.906C68.7498 271.793 69.1702 272.529 69.4527 273.041C69.6064 273.298 69.7298 273.571 69.8205 273.856Z"/><path fill="#FFBE9D" d="M268.59 374.085L306.15 373.685L303.18 360.255L269.61 357.755L268.59 374.085Z"/><path fill="#0063CC" d="M287.552 357.355L304.952 358.495C304.952 358.495 311.952 341.195 315.192 341.095L314.192 374.905L287.012 374.245L287.552 357.355Z"/><path fill="#F2F7FC" d="M303.17 368.865C303.26 369.193 303.468 369.477 303.754 369.662C304.04 369.846 304.384 369.919 304.72 369.865C305.051 369.786 305.339 369.583 305.525 369.299C305.711 369.014 305.781 368.669 305.72 368.335C305.628 367.986 305.408 367.685 305.105 367.49C304.801 367.296 304.436 367.223 304.08 367.285C303.744 367.401 303.466 367.643 303.304 367.96C303.142 368.277 303.108 368.644 303.21 368.985"/><path fill="#F2F7FC" d="M314.181 374.855L311.441 374.685L313.441 342.335C313.441 342.335 314.141 340.845 315.201 341.045L314.181 374.855Z"/><path fill="#1F1F1F" d="M304.791 357.895C304.961 357.895 305.011 358.735 305.511 359.565C306.011 360.395 306.701 360.845 306.631 360.995C306.561 361.145 305.631 360.865 305.021 359.855C304.411 358.845 304.641 357.855 304.791 357.895Z"/><path fill="#1F1F1F" d="M306.359 354.355C306.519 354.355 306.779 355.045 307.459 355.625C308.139 356.205 308.879 356.395 308.869 356.555C308.859 356.715 307.919 356.795 307.089 356.055C306.259 355.315 306.209 354.355 306.359 354.355Z"/><path fill="#1F1F1F" d="M310.671 352.505C310.671 352.655 309.871 352.865 308.971 352.415C308.071 351.965 307.751 351.175 307.891 351.115C308.031 351.055 308.491 351.535 309.231 351.895C309.971 352.255 310.661 352.355 310.671 352.505Z"/><path fill="#1F1F1F" d="M300.801 358.075C300.941 358.145 300.691 358.895 300.731 359.835C300.771 360.775 301.041 361.505 300.891 361.585C300.741 361.665 300.181 360.955 300.161 359.855C300.141 358.755 300.671 357.995 300.801 358.075Z"/><path fill="#1F1F1F" d="M297.28 357.905C297.414 358.466 297.393 359.054 297.22 359.605C297.096 360.21 296.898 360.798 296.63 361.355C296.467 361.699 296.283 362.033 296.08 362.355C295.969 362.541 295.831 362.71 295.67 362.855C295.549 362.959 295.398 363.021 295.238 363.03C295.079 363.039 294.921 362.995 294.79 362.905C294.675 362.819 294.583 362.707 294.52 362.578C294.458 362.45 294.427 362.308 294.43 362.165C294.437 361.951 294.474 361.739 294.54 361.535C294.642 361.191 294.772 360.857 294.93 360.535C295.203 359.971 295.564 359.454 296 359.005C296.362 358.54 296.852 358.193 297.41 358.005C297.46 358.085 296.93 358.455 296.31 359.235C295.948 359.688 295.646 360.185 295.41 360.715C295.273 361.039 295.163 361.373 295.08 361.715C294.98 362.065 294.97 362.375 295.08 362.465C295.19 362.555 295.17 362.465 295.27 362.465C295.39 362.356 295.494 362.232 295.58 362.095C295.775 361.813 295.952 361.519 296.11 361.215C296.385 360.7 296.612 360.161 296.79 359.605C296.914 359.028 297.078 358.46 297.28 357.905Z"/><path fill="#1F1F1F" d="M297.548 358.135C297.056 358.443 296.476 358.58 295.898 358.525C295.273 358.54 294.651 358.445 294.058 358.245C293.713 358.12 293.378 357.966 293.058 357.785C292.837 357.687 292.646 357.533 292.502 357.338C292.358 357.144 292.267 356.915 292.238 356.675C292.248 356.526 292.3 356.383 292.386 356.261C292.472 356.139 292.591 356.044 292.728 355.985C292.93 355.903 293.142 355.849 293.358 355.825C293.736 355.765 294.121 355.765 294.498 355.825C295.128 355.94 295.722 356.204 296.228 356.595C297.078 357.285 297.228 357.975 297.228 357.985C297.228 357.995 296.848 357.455 296.018 356.925C295.54 356.619 295.001 356.421 294.438 356.345C294.107 356.297 293.77 356.297 293.438 356.345C293.068 356.345 292.778 356.515 292.808 356.645C292.838 356.775 293.068 357.115 293.348 357.255C293.636 357.435 293.941 357.586 294.258 357.705C294.797 357.911 295.363 358.039 295.938 358.085C296.868 358.195 297.488 358.045 297.548 358.135Z"/><path fill="#FFBE9D" d="M35.07 363.525L32.2 374.525L0 374.225C0 374.225 4.41 370.905 20.58 371.145L22.15 363.525H35.07Z"/><path fill="#0063CC" d="M110.169 257.095L134.809 280.145L173.809 253.525L185.989 267.525L148.529 297.525C144.772 300.877 139.97 302.824 134.939 303.035C131.542 303.189 128.155 302.545 125.05 301.156C121.946 299.767 119.209 297.671 117.059 295.035L103.859 283.895L110.169 257.095Z"/><path fill="#0063CC" d="M87.281 247.185L110.171 257.095L109.411 263.435L120.061 305.665L131.641 314.125L122.051 328.205C119.894 331.37 117.072 334.026 113.781 335.985L90.951 349.555C88.8084 350.337 86.449 350.276 84.3495 349.385C82.25 348.494 80.5671 346.839 79.6409 344.755L59.451 298.945L39.161 361.875C38.5291 363.851 37.2163 365.539 35.4564 366.638C33.6966 367.736 31.6039 368.175 29.551 367.875L21.551 366.705C20.9058 366.612 20.2876 366.384 19.7365 366.036C19.1854 365.688 18.7138 365.227 18.3525 364.685C17.9911 364.142 17.7481 363.53 17.6393 362.887C17.5305 362.245 17.5583 361.586 17.721 360.955L40.411 272.745C41.6048 268.163 43.5513 263.81 46.171 259.865C48.6095 256.226 51.8856 253.225 55.7242 251.114C59.5627 249.004 63.8517 247.845 68.231 247.735L87.281 247.185Z"/><path fill="#0063CC" d="M95.3014 247.845L94.4514 243.255L70.1914 241.615V247.725C70.3614 249.455 73.1914 248.945 75.8314 250.035L87.7114 252.405C90.6114 252.625 96.7914 251.535 95.3014 247.845Z"/><path fill="#1F1F1F" d="M120.3 305.875C120.048 305.356 119.838 304.817 119.67 304.265C119.3 303.215 118.79 301.695 118.18 299.805C116.97 296.025 115.41 290.805 113.91 284.895C112.41 278.985 111.23 273.665 110.47 269.765C110.09 267.765 109.81 266.235 109.63 265.145C109.506 264.583 109.433 264.01 109.41 263.435C109.589 263.981 109.73 264.539 109.83 265.105C110.09 266.275 110.43 267.815 110.83 269.695C111.68 273.565 112.91 278.905 114.41 284.765C115.91 290.625 117.41 295.895 118.54 299.695L119.87 304.205C120.056 304.75 120.199 305.308 120.3 305.875Z"/><path fill="#1F1F1F" d="M66.7819 278.075C66.5344 279.153 66.2 280.21 65.7819 281.235L63.1619 288.735C62.1619 291.585 61.2619 294.165 60.5419 296.225C60.2384 297.292 59.8642 298.337 59.4219 299.355C59.5878 298.265 59.8557 297.194 60.2219 296.155C60.8019 294.205 61.6719 291.525 62.7019 288.595C63.7319 285.665 64.7019 283.035 65.4619 281.145C65.8155 280.086 66.257 279.059 66.7819 278.075Z"/><g opacity=".2"><path fill="#1F1F1F" d="M59.3711 299.055C61.3244 303.475 63.2678 307.895 65.2011 312.315C65.4773 313.042 65.8727 313.718 66.3711 314.315C66.627 314.614 66.9556 314.841 67.3252 314.976C67.6948 315.111 68.0929 315.149 68.4811 315.085C69.9211 314.765 70.2811 312.915 70.3311 311.435C70.6711 301.765 70.3311 291.865 66.9611 282.795C66.7211 282.135 66.2711 281.355 65.5711 281.435C64.8711 281.515 64.6511 282.235 64.4811 282.845L59.7411 299.845" opacity=".2"/></g><g opacity=".2"><path fill="#1F1F1F" d="M122.322 299.965C122.716 299.727 123.039 299.386 123.256 298.98C123.472 298.573 123.575 298.115 123.552 297.655C123.481 296.75 123.236 295.867 122.832 295.055C120.183 288.874 116.62 283.126 112.262 278.005L117.052 295.005L122.322 299.965Z" opacity=".2"/></g><path fill="#F2F7FC" d="M46.6186 292.355C46.5586 292.355 46.7986 286.565 47.1586 279.445C47.5186 272.325 47.8386 266.545 47.8986 266.545C47.9586 266.545 47.7186 272.325 47.3686 279.455C47.0186 286.585 46.6786 292.355 46.6186 292.355Z"/><path fill="#F2F7FC" d="M51.1206 272.295C51.1651 272.451 51.1854 272.613 51.1806 272.775C51.2052 273.211 51.2052 273.649 51.1806 274.085C51.0153 276.973 50.0186 279.751 48.3106 282.085C48.0554 282.436 47.7782 282.77 47.4806 283.085C47.3807 283.211 47.2667 283.325 47.1406 283.425C47.1406 283.425 47.5706 282.895 48.1906 281.985C48.9978 280.807 49.6498 279.53 50.1306 278.185C50.6079 276.839 50.9137 275.438 51.0406 274.015C51.1206 272.975 51.0906 272.295 51.1206 272.295Z"/><path fill="#F2F7FC" d="M42.9398 273.105C42.9398 273.105 43.0298 273.695 43.2098 274.645C43.6965 277.119 44.7432 279.448 46.2698 281.455C46.8598 282.215 47.2698 282.655 47.2698 282.675C47.1526 282.594 47.0452 282.501 46.9498 282.395C46.6786 282.125 46.4216 281.842 46.1798 281.545C44.561 279.568 43.4948 277.198 43.0898 274.675C43.0238 274.295 42.9804 273.911 42.9598 273.525C42.9401 273.386 42.9334 273.245 42.9398 273.105Z"/><path fill="#F2F7FC" d="M50.0883 268.885C50.1032 269.008 50.1032 269.132 50.0883 269.255C50.1091 269.588 50.1091 269.922 50.0883 270.255C49.9961 271.38 49.7884 272.492 49.4683 273.575C49.1448 274.657 48.7091 275.703 48.1683 276.695C48.0126 276.998 47.8389 277.292 47.6483 277.575C47.5083 277.775 47.4283 277.875 47.4183 277.865C47.4083 277.855 47.6583 277.395 48.0383 276.625C48.5305 275.623 48.9418 274.583 49.2683 273.515C49.5802 272.444 49.8075 271.351 49.9483 270.245C49.9707 269.789 50.0174 269.335 50.0883 268.885Z"/><path fill="#F2F7FC" d="M44.8081 269.565C44.8081 269.565 44.8081 270.185 44.8081 271.165C44.8387 272.445 44.9995 273.718 45.2881 274.965C45.5865 276.211 46.0086 277.423 46.5481 278.585C46.9681 279.485 47.2781 280.005 47.2481 280.025C47.1515 279.918 47.0676 279.801 46.9981 279.675C46.8481 279.445 46.6481 279.095 46.4181 278.675C45.8378 277.517 45.3947 276.296 45.0981 275.035C44.8079 273.772 44.6636 272.48 44.6681 271.185C44.6698 270.794 44.6932 270.403 44.7381 270.015C44.7367 269.862 44.7603 269.71 44.8081 269.565Z"/><path fill="#F2F7FC" d="M46.4792 267.675C46.4792 267.675 46.3892 268.025 46.3192 268.605C46.2408 269.36 46.2813 270.122 46.4392 270.865C46.8492 272.595 47.4392 273.925 47.4392 273.955C47.2667 273.687 47.1226 273.402 47.0092 273.105C46.6969 272.396 46.4525 271.66 46.2792 270.905C46.1069 270.143 46.0865 269.355 46.2192 268.585C46.2435 268.267 46.332 267.957 46.4792 267.675Z"/><path fill="#F2F7FC" d="M43.3984 280.775C43.4584 280.775 44.0384 281.865 44.9984 283.075C45.9584 284.285 46.9184 285.075 46.8784 285.155C46.6309 285.023 46.405 284.855 46.2084 284.655C45.2101 283.764 44.3714 282.709 43.7284 281.535C43.5823 281.299 43.4711 281.043 43.3984 280.775Z"/><path fill="#F2F7FC" d="M51.2191 282.105C51.0855 282.39 50.9139 282.656 50.7091 282.895C50.2555 283.495 49.7646 284.066 49.2391 284.605C48.7125 285.154 48.1478 285.665 47.5491 286.135C47.3187 286.342 47.0634 286.52 46.7891 286.665C46.9906 286.427 47.215 286.209 47.4591 286.015C47.8791 285.635 48.4591 285.095 49.0691 284.465C49.6791 283.835 50.1991 283.235 50.5791 282.795C50.7727 282.547 50.9868 282.317 51.2191 282.105Z"/><path fill="#F2F7FC" d="M29.6381 356.985C29.5781 356.985 29.8181 351.205 30.1781 344.085C30.5381 336.965 30.8581 331.175 30.9181 331.185C30.9781 331.195 30.7381 336.965 30.3781 344.095C30.0181 351.225 29.6981 356.995 29.6381 356.985Z"/><path fill="#F2F7FC" d="M34.1416 336.945C34.1622 337.104 34.1622 337.265 34.1416 337.425C34.1722 337.858 34.1722 338.292 34.1416 338.725C33.9857 341.63 32.9886 344.427 31.2716 346.775C31.0182 347.127 30.7408 347.461 30.4416 347.775C30.3417 347.901 30.2276 348.015 30.1016 348.115C30.1016 348.115 30.5316 347.575 31.1016 346.675C32.7279 344.3 33.7099 341.543 33.9516 338.675C34.1416 337.625 34.1016 336.945 34.1416 336.945Z"/><path fill="#F2F7FC" d="M25.961 337.745C25.961 337.745 26.051 338.345 26.231 339.295C26.477 340.527 26.8594 341.728 27.371 342.875C27.8837 344.019 28.528 345.1 29.291 346.095C29.881 346.865 30.291 347.295 30.291 347.325C30.1714 347.248 30.0636 347.153 29.971 347.045C29.6975 346.774 29.4404 346.487 29.201 346.185C28.39 345.205 27.717 344.118 27.201 342.955C26.6734 341.809 26.3002 340.599 26.091 339.355C26.0245 338.978 25.9811 338.597 25.961 338.215C25.9453 338.059 25.9453 337.901 25.961 337.745Z"/><path fill="#F2F7FC" d="M33.0997 333.525C33.0997 333.525 33.0997 333.665 33.0997 333.905C33.0997 334.145 33.0997 334.495 33.0997 334.905C33.0075 336.03 32.7998 337.142 32.4797 338.225C32.1564 339.304 31.7207 340.347 31.1797 341.335C30.9697 341.715 30.7897 342.015 30.6597 342.215C30.5962 342.324 30.5189 342.425 30.4297 342.515C30.4297 342.515 30.6697 342.045 31.0497 341.275C31.5419 340.273 31.9533 339.233 32.2797 338.165C32.5939 337.092 32.818 335.995 32.9497 334.885C33.0497 334.055 33.0697 333.525 33.0997 333.525Z"/><path fill="#F2F7FC" d="M27.8284 334.215C27.8284 334.215 27.8284 334.825 27.8284 335.815C27.859 337.095 28.0199 338.368 28.3084 339.615C28.6003 340.86 29.0157 342.072 29.5484 343.235C29.9684 344.125 30.2784 344.655 30.2484 344.675C30.2184 344.695 30.1484 344.555 29.9984 344.325C29.7832 344.005 29.5894 343.671 29.4184 343.325C28.2496 341.002 27.6497 338.435 27.6684 335.835C27.6694 335.444 27.6928 335.053 27.7384 334.665C27.7434 334.511 27.7738 334.359 27.8284 334.215Z"/><path fill="#F2F7FC" d="M29.551 332.355C29.551 332.355 29.461 332.715 29.391 333.295C29.3078 334.047 29.3484 334.807 29.511 335.545C29.911 337.285 30.511 338.615 30.511 338.645C30.3353 338.376 30.191 338.087 30.081 337.785C29.7656 337.078 29.5211 336.341 29.351 335.585C29.1811 334.823 29.1574 334.036 29.281 333.265C29.3056 332.946 29.3976 332.636 29.551 332.355Z"/><path fill="#F2F7FC" d="M26.4219 345.425C26.4719 345.425 27.0619 346.515 28.0219 347.715C28.9819 348.915 29.9419 349.715 29.9019 349.795C29.6558 349.665 29.4301 349.5 29.2319 349.305C28.735 348.858 28.2767 348.369 27.8619 347.845C27.4427 347.326 27.0712 346.77 26.7519 346.185C26.6004 345.952 26.4888 345.695 26.4219 345.425Z"/><path fill="#F2F7FC" d="M34.2391 346.755C34.0989 347.033 33.9278 347.295 33.7291 347.535C33.273 348.136 32.7821 348.711 32.2591 349.255C31.7237 349.799 31.1524 350.307 30.5491 350.775C30.3168 350.983 30.0619 351.164 29.7891 351.315C29.9906 351.077 30.215 350.859 30.4591 350.665C30.8791 350.275 31.4591 349.735 32.0691 349.105C32.6791 348.475 33.1991 347.885 33.5691 347.445C33.7668 347.191 33.9914 346.96 34.2391 346.755Z"/><path fill="#F2F7FC" d="M66.6381 274.055C66.5781 274.055 66.8181 268.275 67.1681 261.145C67.5181 254.015 67.8581 248.245 67.9181 248.245C67.9781 248.245 67.7281 254.035 67.3781 261.155C67.0281 268.275 66.6981 274.065 66.6381 274.055Z"/><path fill="#F2F7FC" d="M71.1416 254.015C71.1575 254.171 71.1575 254.328 71.1416 254.485C71.1721 254.921 71.1721 255.359 71.1416 255.795C70.9857 258.7 69.9886 261.496 68.2716 263.845C68.0126 264.192 67.7356 264.526 67.4416 264.845C67.3402 264.966 67.2262 265.077 67.1016 265.175C67.1016 265.175 67.5316 264.645 68.1516 263.745C68.9567 262.565 69.6086 261.288 70.0916 259.945C70.572 258.596 70.8746 257.191 70.9916 255.765C71.1316 254.695 71.1016 254.015 71.1416 254.015Z"/><path fill="#F2F7FC" d="M62.9583 254.815C62.9583 254.815 63.0383 255.415 63.2283 256.355C63.697 258.834 64.7456 261.168 66.2883 263.165C66.8783 263.935 67.2883 264.365 67.2883 264.395C67.1733 264.315 67.0691 264.221 66.9783 264.115C66.7011 263.844 66.4406 263.557 66.1983 263.255C65.3965 262.268 64.7243 261.183 64.1983 260.025C63.6707 258.854 63.2943 257.621 63.0783 256.355C63.0192 255.977 62.9792 255.597 62.9583 255.215C62.9358 255.083 62.9358 254.947 62.9583 254.815Z"/><path fill="#F2F7FC" d="M70.0997 250.595C70.0997 250.595 70.0997 250.725 70.0997 250.975C70.0997 251.225 70.0997 251.565 70.0997 251.975C70.0042 253.097 69.7931 254.206 69.4697 255.285C69.1553 256.369 68.7227 257.415 68.1797 258.405C67.9697 258.785 67.7897 259.085 67.6497 259.285C67.5911 259.395 67.517 259.496 67.4297 259.585C67.4297 259.585 67.6697 259.105 68.0497 258.335C69.0418 256.332 69.6844 254.174 69.9497 251.955C70.0497 251.125 70.0697 250.595 70.0997 250.595Z"/><path fill="#F2F7FC" d="M64.8183 251.285C64.8183 251.285 64.8183 251.895 64.8183 252.885C64.8489 254.164 65.0098 255.438 65.2983 256.685C65.5857 257.948 66.0046 259.178 66.5483 260.355C66.9583 261.245 67.2783 261.775 67.2383 261.795C67.1448 261.686 67.0612 261.568 66.9883 261.445C66.7813 261.121 66.5911 260.788 66.4183 260.445C65.251 258.125 64.6512 255.561 64.6683 252.965C64.6683 252.465 64.6683 252.065 64.7283 251.795C64.7443 251.622 64.7744 251.452 64.8183 251.285Z"/><path fill="#F2F7FC" d="M66.551 249.355C66.551 249.355 66.461 249.715 66.391 250.295C66.3078 251.047 66.3483 251.807 66.511 252.545C66.911 254.275 67.511 255.615 67.511 255.645C67.3306 255.378 67.186 255.089 67.081 254.785C66.7609 254.079 66.5162 253.342 66.351 252.585C66.1811 251.823 66.1574 251.036 66.281 250.265C66.3056 249.946 66.3976 249.636 66.551 249.355Z"/><path fill="#F2F7FC" d="M63.4219 262.495C63.4219 262.495 64.0519 263.585 65.0219 264.785C65.9919 265.985 66.9419 266.785 66.9019 266.865C66.6558 266.735 66.4301 266.57 66.2319 266.375C65.7348 265.928 65.2765 265.44 64.8619 264.915C64.4427 264.396 64.0712 263.841 63.7519 263.255C63.6004 263.022 63.4888 262.765 63.4219 262.495Z"/><path fill="#F2F7FC" d="M71.2412 263.825C71.1011 264.103 70.93 264.365 70.7312 264.605C70.2735 265.214 69.7827 265.799 69.2612 266.355C68.7203 266.884 68.1493 267.381 67.5512 267.845C67.3189 268.057 67.0601 268.239 66.7812 268.385C66.9852 268.145 67.213 267.928 67.4613 267.735C67.8813 267.345 68.4612 266.805 69.0712 266.175C69.6812 265.545 70.2012 264.955 70.5712 264.515C70.7654 264.258 70.9904 264.026 71.2412 263.825Z"/><path fill="#F2F7FC" d="M88.3217 269.415C88.2617 269.415 88.5017 263.635 88.8517 256.505C89.2017 249.375 89.5417 243.605 89.5917 243.605C89.6417 243.605 89.4117 249.395 89.0617 256.515C88.7117 263.635 88.3717 269.425 88.3217 269.415Z"/><path fill="#F2F7FC" d="M92.8202 249.355C92.8361 249.511 92.8361 249.669 92.8202 249.825C92.8202 250.135 92.8202 250.585 92.8202 251.135C92.6498 254.037 91.654 256.83 89.9502 259.185C89.6912 259.533 89.4142 259.866 89.1202 260.185C88.9102 260.405 88.7902 260.525 88.7702 260.515C88.7502 260.505 89.2002 259.985 89.8302 259.085C90.6314 257.903 91.2831 256.627 91.7702 255.285C92.2459 253.935 92.5484 252.531 92.6702 251.105C92.8102 250.055 92.7802 249.355 92.8202 249.355Z"/><path fill="#F2F7FC" d="M84.6381 250.175C84.6381 250.175 84.7181 250.775 84.9081 251.715C85.3833 254.192 86.4312 256.524 87.9681 258.525C88.5481 259.295 88.9681 259.725 88.9681 259.755C88.8509 259.674 88.7435 259.58 88.6481 259.475C88.4581 259.285 88.1881 258.995 87.8781 258.615C87.0763 257.628 86.4041 256.542 85.8781 255.385C85.3586 254.224 84.9922 253 84.7881 251.745C84.7181 251.265 84.6681 250.875 84.6581 250.595C84.6278 250.457 84.621 250.315 84.6381 250.175Z"/><path fill="#F2F7FC" d="M91.7787 245.955C91.7915 246.081 91.7915 246.209 91.7787 246.335C91.7787 246.575 91.7787 246.925 91.7787 247.335C91.6833 248.457 91.4721 249.566 91.1487 250.645C90.8256 251.726 90.3934 252.772 89.8587 253.765C89.6487 254.145 89.4687 254.445 89.3287 254.645C89.1887 254.845 89.1187 254.955 89.0987 254.945C89.0787 254.935 89.3487 254.465 89.7287 253.695C90.2249 252.696 90.6331 251.655 90.9487 250.585C91.2654 249.516 91.4929 248.422 91.6287 247.315C91.7187 246.485 91.7487 245.955 91.7787 245.955Z"/><path fill="#F2F7FC" d="M86.5511 246.645C86.5511 246.645 86.5511 247.255 86.5511 248.245C86.5908 249.525 86.7549 250.797 87.0411 252.045C87.3318 253.292 87.7506 254.505 88.2911 255.665C88.7011 256.555 89.0111 257.085 88.9811 257.105C88.8876 256.996 88.804 256.879 88.7311 256.755C88.5811 256.515 88.3811 256.165 88.1511 255.755C87.5708 254.597 87.1278 253.376 86.8311 252.115C86.5382 250.856 86.3972 249.567 86.4111 248.275C86.4101 247.881 86.4302 247.487 86.4711 247.095C86.4797 246.942 86.5065 246.791 86.5511 246.645Z"/><path fill="#F2F7FC" d="M88.1784 244.745C88.1784 244.745 88.0884 245.105 88.0084 245.675C87.9288 246.43 87.9728 247.193 88.1384 247.935C88.5384 249.665 89.1384 251.005 89.1384 251.035C88.9678 250.762 88.8238 250.474 88.7084 250.175C88.3947 249.467 88.1502 248.73 87.9784 247.975C87.8061 247.213 87.7857 246.424 87.9184 245.655C87.9399 245.336 88.0285 245.026 88.1784 244.745Z"/><path fill="#F2F7FC" d="M85.0898 257.855C85.1498 257.855 85.7298 258.945 86.6998 260.145C87.6698 261.345 88.6098 262.145 88.5698 262.225C88.3284 262.093 88.1063 261.928 87.9098 261.735C86.91 260.845 86.071 259.79 85.4298 258.615C85.2804 258.379 85.1659 258.123 85.0898 257.855Z"/><path fill="#F2F7FC" d="M92.91 259.185C92.7795 259.469 92.6076 259.732 92.4 259.965C91.9482 260.567 91.4607 261.141 90.94 261.685C90.4128 262.223 89.8552 262.731 89.27 263.205C89.0376 263.417 88.7788 263.599 88.5 263.745C88.7017 263.507 88.9261 263.289 89.17 263.095C89.6 262.705 90.17 262.165 90.79 261.535C91.41 260.905 91.92 260.315 92.29 259.875C92.4738 259.626 92.6815 259.394 92.91 259.185Z"/><path fill="#F2F7FC" d="M97.2319 289.655C97.1719 289.655 97.4119 283.875 97.7619 276.745C98.1119 269.615 98.4519 263.845 98.5119 263.845C98.5719 263.845 98.3319 269.635 97.9719 276.755C97.6119 283.875 97.2919 289.665 97.2319 289.655Z"/><path fill="#F2F7FC" d="M101.731 269.615C101.754 269.771 101.754 269.929 101.731 270.085C101.762 270.521 101.762 270.959 101.731 271.395C101.566 274.282 100.569 277.061 98.8614 279.395C98.6025 279.742 98.3254 280.076 98.0314 280.395C97.9301 280.516 97.8161 280.627 97.6914 280.725C97.6914 280.725 98.1214 280.195 98.6914 279.295C99.4966 278.115 100.148 276.839 100.631 275.495C101.112 274.146 101.414 272.741 101.531 271.315C101.731 270.295 101.691 269.615 101.731 269.615Z"/><path fill="#F2F7FC" d="M93.5484 270.415C93.5484 270.415 93.6284 271.015 93.8184 271.955C94.305 274.429 95.3518 276.758 96.8784 278.765C97.4684 279.535 97.8784 279.965 97.8784 279.995C97.7588 279.918 97.651 279.823 97.5584 279.715C97.2839 279.442 97.0236 279.155 96.7784 278.855C95.9731 277.871 95.3007 276.785 94.7784 275.625C94.2563 274.464 93.8866 273.241 93.6784 271.985C93.6187 271.604 93.5787 271.22 93.5584 270.835C93.542 270.696 93.5387 270.555 93.5484 270.415Z"/><path fill="#F2F7FC" d="M100.69 266.195C100.69 266.195 100.69 266.325 100.69 266.575C100.69 266.825 100.69 267.165 100.69 267.575C100.593 268.696 100.385 269.805 100.07 270.885C99.7476 271.968 99.3118 273.014 98.7695 274.005C98.5595 274.385 98.3795 274.685 98.2495 274.885C98.186 274.994 98.1087 275.095 98.0195 275.185C98.0195 275.185 98.2595 274.705 98.6395 273.935C99.6434 271.937 100.287 269.777 100.54 267.555C100.64 266.725 100.66 266.195 100.69 266.195Z"/><path fill="#F2F7FC" d="M95.4084 266.885C95.4084 266.885 95.4084 267.495 95.4084 268.485C95.439 269.764 95.5998 271.038 95.8884 272.285C96.1836 273.53 96.6023 274.743 97.1384 275.905C97.5584 276.795 97.8684 277.325 97.8384 277.345C97.7373 277.242 97.6529 277.124 97.5884 276.995C97.3759 276.673 97.1823 276.339 97.0084 275.995C96.4306 274.838 95.9942 273.616 95.7084 272.355C95.4079 271.097 95.2635 269.808 95.2784 268.515C95.2798 268.127 95.3032 267.74 95.3484 267.355C95.3538 267.197 95.3738 267.039 95.4084 266.885Z"/><path fill="#F2F7FC" d="M97.0901 264.985C97.0901 264.985 97.0001 265.345 96.9301 265.915C96.8472 266.67 96.8878 267.433 97.0501 268.175C97.4501 269.905 98.0501 271.245 98.0501 271.275C97.8744 271.006 97.7301 270.717 97.6201 270.415C97.3047 269.707 97.0602 268.97 96.8901 268.215C96.7202 267.453 96.6964 266.666 96.8201 265.895C96.8446 265.576 96.9367 265.266 97.0901 264.985Z"/><path fill="#F2F7FC" d="M94.0117 278.095C94.0617 278.095 94.6417 279.185 95.6117 280.385C96.5817 281.585 97.5317 282.385 97.4917 282.465C97.2457 282.335 97.0199 282.17 96.8217 281.975C96.3273 281.525 95.8692 281.037 95.4517 280.515C95.0326 279.996 94.661 279.44 94.3417 278.855C94.1921 278.621 94.0807 278.364 94.0117 278.095Z"/><path fill="#F2F7FC" d="M101.83 279.425C101.69 279.703 101.519 279.965 101.32 280.205C100.862 280.804 100.371 281.378 99.8502 281.925C99.3229 282.463 98.7654 282.97 98.1802 283.445C97.9478 283.657 97.689 283.839 97.4102 283.985C97.6174 283.749 97.8449 283.531 98.0902 283.335C98.5102 282.945 99.0902 282.405 99.7002 281.775C100.31 281.145 100.83 280.555 101.2 280.115C101.385 279.863 101.596 279.632 101.83 279.425Z"/><path fill="#F2F7FC" d="M128.161 297.675C128.101 297.675 126.271 292.205 124.071 285.425C121.871 278.645 120.131 273.115 120.181 273.095C120.231 273.075 122.061 278.565 124.271 285.355C126.481 292.145 128.211 297.665 128.161 297.675Z"/><path fill="#F2F7FC" d="M125.241 277.355C125.326 277.492 125.399 277.636 125.461 277.785C125.638 278.186 125.791 278.596 125.921 279.015C126.361 280.393 126.601 281.828 126.631 283.275C126.658 284.72 126.479 286.161 126.101 287.555C125.988 287.976 125.851 288.39 125.691 288.795C125.639 288.948 125.572 289.095 125.491 289.235C125.491 289.235 125.701 288.585 125.961 287.515C126.291 286.127 126.446 284.702 126.421 283.275C126.388 281.847 126.173 280.429 125.781 279.055C125.481 277.985 125.211 277.355 125.241 277.355Z"/><path fill="#F2F7FC" d="M117.879 281.005C117.879 281.005 118.169 281.525 118.679 282.345C120.016 284.482 121.822 286.288 123.959 287.625C124.779 288.135 125.319 288.385 125.309 288.425C125.17 288.392 125.035 288.342 124.909 288.275C124.659 288.165 124.309 287.985 123.909 287.745C121.694 286.47 119.853 284.635 118.569 282.425C118.329 281.995 118.159 281.645 118.049 281.425C117.977 281.292 117.919 281.151 117.879 281.005Z"/><path fill="#F2F7FC" d="M123.058 274.515C123.124 274.622 123.177 274.736 123.218 274.855C123.308 275.085 123.418 275.415 123.538 275.855C123.854 276.937 124.055 278.05 124.138 279.175C124.218 280.302 124.184 281.434 124.038 282.555C123.978 282.985 123.908 283.325 123.858 283.555C123.834 283.678 123.797 283.799 123.748 283.915C123.748 283.915 123.808 283.385 123.888 282.525C123.977 281.413 123.977 280.296 123.888 279.185C123.803 278.072 123.626 276.968 123.358 275.885C123.188 275.035 123.028 274.525 123.058 274.515Z"/><path fill="#F2F7FC" d="M118.371 277.035C118.371 277.035 118.581 277.615 118.951 278.525C119.917 280.904 121.368 283.056 123.211 284.845C123.911 285.535 124.391 285.915 124.371 285.945C124.243 285.878 124.122 285.797 124.011 285.705C123.694 285.471 123.391 285.221 123.101 284.955C121.186 283.197 119.716 281.011 118.811 278.575C118.641 278.115 118.521 277.725 118.451 277.455C118.405 277.319 118.378 277.178 118.371 277.035Z"/><path fill="#F2F7FC" d="M119.259 274.665C119.259 274.665 119.259 275.035 119.439 275.595C119.63 276.331 119.94 277.03 120.359 277.665C121.359 279.135 122.419 280.155 122.359 280.215C122.102 280.026 121.867 279.807 121.659 279.565C121.113 279.017 120.621 278.417 120.189 277.775C119.761 277.121 119.463 276.391 119.309 275.625C119.225 275.312 119.208 274.985 119.259 274.665Z"/><path fill="#F2F7FC" d="M121.039 288.015C121.039 287.965 122.039 288.805 123.349 289.585C124.659 290.365 125.859 290.805 125.839 290.865C125.566 290.826 125.3 290.748 125.049 290.635C124.422 290.396 123.817 290.105 123.239 289.765C122.667 289.425 122.125 289.037 121.619 288.605C121.396 288.44 121.2 288.241 121.039 288.015Z"/><path fill="#F2F7FC" d="M128.818 286.475C128.788 286.788 128.721 287.097 128.618 287.395C128.408 288.116 128.155 288.824 127.858 289.515C127.567 290.202 127.233 290.87 126.858 291.515C126.725 291.799 126.546 292.059 126.328 292.285C126.44 291.995 126.573 291.714 126.728 291.445C126.988 290.935 127.338 290.215 127.728 289.445C128.118 288.675 128.348 287.895 128.538 287.355C128.601 287.052 128.695 286.758 128.818 286.475Z"/><path fill="#F2F7FC" d="M161.191 269.425C161.191 269.425 157.611 273.975 153.111 279.505C148.611 285.035 144.911 289.505 144.871 289.505C144.831 289.505 148.441 284.955 152.951 279.425C157.461 273.895 161.141 269.355 161.191 269.425Z"/><path fill="#F2F7FC" d="M145.68 282.905C145.746 282.758 145.827 282.617 145.92 282.485C146.162 282.122 146.422 281.772 146.7 281.435C147.622 280.32 148.699 279.343 149.9 278.535C151.095 277.723 152.402 277.09 153.78 276.655C154.195 276.516 154.619 276.406 155.05 276.325C155.207 276.286 155.368 276.262 155.53 276.255C155.53 276.255 154.87 276.435 153.83 276.795C152.479 277.263 151.195 277.905 150.01 278.705C148.831 279.51 147.757 280.457 146.81 281.525C146.09 282.355 145.72 282.925 145.68 282.905Z"/><path fill="#F2F7FC" d="M152.75 287.105C152.75 287.105 153.04 286.575 153.45 285.695C153.98 284.559 154.382 283.369 154.65 282.145C154.914 280.916 155.038 279.662 155.02 278.405C155.02 277.405 154.92 276.845 154.96 276.835C155.001 276.972 155.031 277.113 155.05 277.255C155.107 277.633 155.144 278.013 155.16 278.395C155.227 279.666 155.126 280.94 154.86 282.185C154.589 283.428 154.159 284.632 153.58 285.765C153.408 286.11 153.215 286.444 153 286.765C152.929 286.887 152.845 287.001 152.75 287.105Z"/><path fill="#F2F7FC" d="M144.551 286.265C144.551 286.265 144.611 286.145 144.751 285.955C144.947 285.675 145.161 285.408 145.391 285.155C146.126 284.302 146.95 283.531 147.851 282.855C148.751 282.173 149.719 281.587 150.741 281.105C151.065 280.954 151.399 280.824 151.741 280.715C151.854 280.658 151.975 280.621 152.101 280.605C152.101 280.605 151.621 280.845 150.861 281.235C149.872 281.754 148.926 282.349 148.031 283.015C147.141 283.692 146.308 284.441 145.541 285.255C144.861 285.875 144.551 286.295 144.551 286.265Z"/><path fill="#F2F7FC" d="M149.16 288.845C149.16 288.845 149.53 288.355 150.09 287.545C150.823 286.496 151.45 285.378 151.96 284.205C152.461 283.026 152.839 281.8 153.09 280.545C153.29 279.545 153.35 278.965 153.39 278.975C153.406 279.118 153.406 279.262 153.39 279.405C153.366 279.794 153.319 280.181 153.25 280.565C153.031 281.842 152.665 283.091 152.16 284.285C151.647 285.474 150.996 286.598 150.22 287.635C149.92 288.035 149.66 288.335 149.47 288.545C149.38 288.658 149.276 288.759 149.16 288.845Z"/><path fill="#F2F7FC" d="M146.68 289.355C146.68 289.355 146.97 289.125 147.37 288.705C147.881 288.147 148.297 287.508 148.6 286.815C149.31 285.175 149.6 283.725 149.67 283.755C149.648 284.073 149.595 284.388 149.51 284.695C149.342 285.45 149.101 286.187 148.79 286.895C148.478 287.611 148.03 288.26 147.47 288.805C147.248 289.042 146.979 289.23 146.68 289.355Z"/><path fill="#F2F7FC" d="M156.929 280.645C156.869 280.645 157.059 279.395 156.999 277.845C156.939 276.295 156.659 275.075 156.719 275.065C156.842 275.313 156.923 275.58 156.959 275.855C157.244 277.169 157.295 278.523 157.109 279.855C157.093 280.126 157.033 280.393 156.929 280.645Z"/><path fill="#F2F7FC" d="M151.422 274.945C151.695 274.795 151.988 274.684 152.292 274.615C153.013 274.396 153.748 274.226 154.492 274.105C155.236 273.976 155.987 273.895 156.742 273.865C157.054 273.819 157.37 273.819 157.682 273.865C157.376 273.932 157.065 273.972 156.752 273.985C156.182 274.045 155.392 274.145 154.532 274.285C153.672 274.425 152.892 274.605 152.332 274.735C152.036 274.832 151.731 274.903 151.422 274.945Z"/><path fill="#F2F7FC" d="M94.0104 340.155C93.9504 340.155 93.7604 334.375 93.5704 327.245C93.3804 320.115 93.2905 314.355 93.3505 314.355C93.4105 314.355 93.6005 320.135 93.7805 327.265C93.9605 334.395 94.0704 340.155 94.0104 340.155Z"/><path fill="#F2F7FC" d="M96.9916 319.825C97.046 319.976 97.0764 320.134 97.0816 320.295C97.1398 320.729 97.1731 321.166 97.1816 321.605C97.2299 324.511 96.4457 327.37 94.9216 329.845C94.6216 330.315 94.3616 330.675 94.1716 330.915C94.0785 331.049 93.9712 331.173 93.8516 331.285C93.8516 331.285 94.2416 330.715 94.7916 329.765C95.5115 328.533 96.0663 327.211 96.4416 325.835C96.8139 324.455 97.0121 323.034 97.0316 321.605C97.0416 320.505 96.9516 319.825 96.9916 319.825Z"/><path fill="#F2F7FC" d="M88.8906 321.245C88.8906 321.245 89.0206 321.835 89.2806 322.765C89.6131 323.975 90.0828 325.142 90.6806 326.245C91.2841 327.358 92.0085 328.401 92.8406 329.355C93.4906 330.075 93.9306 330.485 93.9106 330.505C93.7876 330.436 93.6734 330.352 93.5706 330.255C93.2803 330.003 93.0033 329.736 92.7406 329.455C91.8759 328.524 91.1394 327.481 90.5506 326.355C89.9442 325.236 89.487 324.043 89.1906 322.805C89.0996 322.433 89.0295 322.055 88.9806 321.675C88.9339 321.536 88.9037 321.391 88.8906 321.245Z"/><path fill="#F2F7FC" d="M95.7019 316.495C95.7399 316.615 95.7601 316.74 95.7619 316.865C95.7619 317.105 95.7619 317.455 95.7619 317.865C95.7491 320.128 95.262 322.362 94.3319 324.425C94.1519 324.815 94.0019 325.125 93.8819 325.335C93.8244 325.45 93.754 325.557 93.6719 325.655C93.6719 325.655 93.8819 325.155 94.2019 324.365C94.6203 323.33 94.9548 322.264 95.2019 321.175C95.4322 320.081 95.576 318.971 95.6319 317.855C95.6819 317.035 95.6719 316.495 95.7019 316.495Z"/><path fill="#F2F7FC" d="M90.4894 317.585C90.4894 317.585 90.4894 318.195 90.6194 319.175C90.8758 321.73 91.6553 324.204 92.9094 326.445C93.3894 327.305 93.7394 327.805 93.7094 327.825C93.603 327.727 93.509 327.616 93.4294 327.495C93.1948 327.174 92.9778 326.84 92.7794 326.495C92.1106 325.386 91.5768 324.201 91.1894 322.965C90.8 321.732 90.5616 320.456 90.4794 319.165C90.4794 318.665 90.4794 318.265 90.4794 317.985C90.4678 317.852 90.4712 317.718 90.4894 317.585Z"/><path fill="#F2F7FC" d="M92.0189 315.565C92.0189 315.565 91.9489 315.925 91.9289 316.505C91.8981 317.263 91.9961 318.02 92.2189 318.745C92.7489 320.445 93.4889 321.745 93.4089 321.745C93.2032 321.497 93.0348 321.221 92.9089 320.925C92.5456 320.245 92.2477 319.531 92.0189 318.795C91.7892 318.048 91.7077 317.263 91.7789 316.485C91.7948 316.165 91.8765 315.852 92.0189 315.565Z"/><path fill="#F2F7FC" d="M89.9297 328.865C89.9797 328.865 90.6497 329.865 91.6997 331.035C92.7497 332.205 93.7597 332.915 93.6997 332.965C93.445 332.851 93.2089 332.699 92.9997 332.515C91.9339 331.706 91.0169 330.718 90.2897 329.595C90.1287 329.374 90.0069 329.127 89.9297 328.865Z"/><path fill="#F2F7FC" d="M97.8295 329.595C97.7167 329.89 97.5654 330.169 97.3795 330.425C96.9702 331.058 96.5227 331.666 96.0395 332.245C95.5619 332.827 95.044 333.375 94.4895 333.885C94.2796 334.115 94.037 334.314 93.7695 334.475C93.9581 334.229 94.1654 333.998 94.3895 333.785C94.7795 333.365 95.3195 332.785 95.8795 332.105C96.4395 331.425 96.8795 330.805 97.2495 330.335C97.4198 330.071 97.614 329.823 97.8295 329.595Z"/><path fill="#F2F7FC" d="M116.021 319.695C115.961 319.695 114.131 314.225 111.931 307.435C109.731 300.645 107.981 295.135 108.041 295.115C108.101 295.095 109.921 300.585 112.131 307.375C114.341 314.165 116.071 319.675 116.021 319.695Z"/><path fill="#F2F7FC" d="M113.101 299.355C113.192 299.489 113.266 299.633 113.321 299.785C113.499 300.182 113.653 300.59 113.781 301.005C114.222 302.383 114.461 303.818 114.491 305.265C114.519 306.713 114.34 308.157 113.961 309.555C113.845 309.976 113.705 310.39 113.541 310.795C113.495 310.95 113.427 311.098 113.341 311.235C113.341 311.235 113.551 310.575 113.811 309.515C114.151 308.125 114.309 306.696 114.281 305.265C114.248 303.837 114.033 302.419 113.641 301.045C113.341 299.995 113.061 299.355 113.101 299.355Z"/><path fill="#F2F7FC" d="M105.742 303.015C105.742 303.015 106.032 303.545 106.542 304.365C107.206 305.429 107.987 306.415 108.872 307.305C109.782 308.19 110.789 308.972 111.872 309.635C112.692 310.145 113.232 310.405 113.222 310.435C113.083 310.402 112.948 310.351 112.822 310.285C112.479 310.13 112.145 309.957 111.822 309.765C110.727 309.127 109.718 308.351 108.822 307.455C107.92 306.561 107.14 305.552 106.502 304.455C106.308 304.133 106.134 303.799 105.982 303.455C105.782 303.165 105.722 303.025 105.742 303.015Z"/><path fill="#F2F7FC" d="M110.922 296.525C110.982 296.637 111.032 296.754 111.072 296.875C111.2 297.202 111.31 297.536 111.402 297.875C112.024 300.047 112.19 302.325 111.892 304.565C111.832 304.995 111.772 305.335 111.712 305.565C111.693 305.688 111.659 305.809 111.612 305.925C111.63 305.462 111.677 305.002 111.752 304.545C111.84 303.43 111.84 302.31 111.752 301.195C111.661 300.083 111.484 298.979 111.222 297.895C111.094 297.445 110.994 296.987 110.922 296.525Z"/><path fill="#F2F7FC" d="M106.23 299.055C106.23 299.055 106.43 299.625 106.81 300.535C107.293 301.72 107.896 302.853 108.61 303.915C109.328 304.976 110.149 305.964 111.06 306.865C111.77 307.545 112.25 307.925 112.22 307.955C112.091 307.89 111.97 307.809 111.86 307.715C111.64 307.555 111.33 307.295 110.96 306.965C110.005 306.091 109.156 305.107 108.43 304.035C107.713 302.96 107.123 301.805 106.67 300.595C106.5 300.125 106.38 299.745 106.31 299.475C106.259 299.34 106.232 299.198 106.23 299.055Z"/><path fill="#F2F7FC" d="M107.12 296.675C107.12 296.675 107.12 297.045 107.3 297.615C107.489 298.348 107.8 299.045 108.22 299.675C109.22 301.155 110.28 302.175 110.22 302.225C109.959 302.04 109.721 301.825 109.51 301.585C108.965 301.035 108.476 300.432 108.05 299.785C107.619 299.135 107.317 298.409 107.16 297.645C107.083 297.327 107.069 296.998 107.12 296.675Z"/><path fill="#F2F7FC" d="M108.891 310.025C108.891 309.975 109.891 310.815 111.211 311.605C112.531 312.395 113.721 312.815 113.701 312.875C113.424 312.844 113.154 312.769 112.901 312.655C112.277 312.416 111.675 312.125 111.101 311.785C110.525 311.443 109.979 311.051 109.471 310.615C109.251 310.446 109.056 310.248 108.891 310.025Z"/><path fill="#F2F7FC" d="M116.68 308.485C116.649 308.798 116.582 309.107 116.48 309.405C116.266 310.126 116.009 310.834 115.71 311.525C115.42 312.213 115.086 312.881 114.71 313.525C114.562 313.804 114.385 314.065 114.18 314.305C114.287 314.01 114.421 313.726 114.58 313.455C114.84 312.945 115.19 312.235 115.58 311.455C115.97 310.675 116.2 309.915 116.4 309.365C116.465 309.063 116.559 308.769 116.68 308.485Z"/><path fill="#F2F7FC" d="M47.7113 327.725C47.6514 327.725 45.8214 322.255 43.6213 315.465C41.4213 308.675 39.6214 303.165 39.7314 303.145C39.8414 303.125 41.6114 308.615 43.8214 315.405C46.0314 322.195 47.7613 327.705 47.7113 327.725Z"/><path fill="#F2F7FC" d="M44.789 307.355C44.8768 307.49 44.9505 307.634 45.009 307.785C45.1847 308.183 45.3383 308.59 45.469 309.005C45.9092 310.383 46.1483 311.818 46.179 313.265C46.2061 314.713 46.0276 316.157 45.649 317.555C45.5325 317.976 45.3923 318.39 45.229 318.795C45.1848 318.951 45.1174 319.099 45.029 319.235C45.029 319.235 45.249 318.585 45.509 317.515C46.183 314.724 46.121 311.805 45.329 309.045C45.029 308.025 44.749 307.355 44.789 307.355Z"/><path fill="#F2F7FC" d="M37.4297 311.045C37.4297 311.045 37.7197 311.575 38.2297 312.395C39.5674 314.543 41.3893 316.348 43.5497 317.665C44.3697 318.175 44.9097 318.435 44.8997 318.465C44.7606 318.432 44.6262 318.382 44.4997 318.315C44.1568 318.161 43.8229 317.987 43.4997 317.795C42.4044 317.157 41.396 316.381 40.4997 315.485C39.5981 314.591 38.8181 313.582 38.1797 312.485C37.9856 312.163 37.812 311.829 37.6597 311.485C37.5619 311.35 37.4844 311.202 37.4297 311.045Z"/><path fill="#F2F7FC" d="M42.6094 304.565C42.679 304.669 42.7298 304.784 42.7594 304.905C42.8877 305.232 42.9979 305.566 43.0894 305.905C43.711 308.078 43.8778 310.355 43.5794 312.595C43.5367 312.931 43.4766 313.265 43.3994 313.595C43.3824 313.719 43.3488 313.84 43.2994 313.955C43.2994 313.955 43.3594 313.425 43.4394 312.575C43.6581 310.35 43.4924 308.104 42.9494 305.935C42.8108 305.485 42.6973 305.028 42.6094 304.565Z"/><path fill="#F2F7FC" d="M37.9219 307.085C37.9219 307.085 38.1319 307.655 38.5019 308.565C38.9863 309.753 39.5893 310.888 40.3019 311.955C41.0217 313.012 41.8422 313.996 42.7519 314.895C43.4619 315.575 43.9419 315.955 43.9119 315.985C43.7865 315.918 43.6691 315.838 43.5619 315.745C43.2427 315.515 42.9387 315.264 42.6519 314.995C41.6962 314.121 40.847 313.138 40.1219 312.065C39.4046 310.99 38.814 309.836 38.3619 308.625C38.1919 308.155 38.0719 307.775 38.0019 307.505C37.9509 307.371 37.9238 307.229 37.9219 307.085Z"/><path fill="#F2F7FC" d="M38.8082 304.715C38.8082 304.715 38.8082 305.075 38.9882 305.645C39.1767 306.378 39.4878 307.075 39.9082 307.705C40.9082 309.185 41.9682 310.205 41.9082 310.255C41.6472 310.07 41.4089 309.855 41.1982 309.615C40.653 309.065 40.1639 308.462 39.7382 307.815C39.3109 307.163 39.009 306.437 38.8482 305.675C38.77 305.361 38.7564 305.034 38.8082 304.715Z"/><path fill="#F2F7FC" d="M40.5508 318.055C40.5508 318.005 41.5508 318.845 42.8708 319.635C44.1908 320.425 45.3808 320.845 45.3608 320.905C45.0832 320.88 44.8123 320.805 44.5608 320.685C43.9374 320.446 43.3353 320.155 42.7608 319.815C42.1861 319.475 41.6438 319.084 41.1408 318.645C40.9169 318.477 40.7182 318.279 40.5508 318.055Z"/><path fill="#F2F7FC" d="M48.3689 316.515C48.3387 316.828 48.2716 317.137 48.1689 317.435C47.9549 318.158 47.7011 318.869 47.4089 319.565C47.1165 320.251 46.7826 320.919 46.4089 321.565C46.2703 321.849 46.0918 322.111 45.8789 322.345C45.9866 322.05 46.1205 321.765 46.2789 321.495C46.5389 320.985 46.8889 320.275 47.2289 319.495C47.5689 318.715 47.8589 317.955 48.0489 317.405C48.1266 317.098 48.2337 316.8 48.3689 316.515Z"/><path fill="#F2F7FC" d="M76.7787 307.955C76.7187 307.955 76.9587 302.175 77.3087 295.045C77.6587 287.915 77.9987 282.145 78.0587 282.145C78.1187 282.145 77.8687 287.925 77.5187 295.055C77.1687 302.185 76.8387 307.955 76.7787 307.955Z"/><path fill="#F2F7FC" d="M81.2783 287.905C81.2925 288.064 81.2925 288.225 81.2783 288.385C81.3088 288.821 81.3088 289.259 81.2783 289.695C81.1224 292.6 80.1253 295.397 78.4083 297.745C78.1494 298.092 77.8723 298.426 77.5783 298.745C77.4769 298.867 77.363 298.977 77.2383 299.075C77.2383 299.075 77.6683 298.545 78.2883 297.645C79.9136 295.27 80.8924 292.513 81.1283 289.645C81.2683 288.595 81.2383 287.915 81.2783 287.905Z"/><path fill="#F2F7FC" d="M73.1012 288.715C73.1012 288.715 73.1812 289.315 73.3712 290.255C73.8464 292.732 74.8943 295.064 76.4312 297.065C77.0112 297.835 77.4312 298.265 77.4312 298.295C77.3162 298.215 77.212 298.121 77.1212 298.015C76.844 297.744 76.5835 297.457 76.3412 297.155C75.5394 296.168 74.8672 295.083 74.3412 293.925C73.8217 292.764 73.4553 291.54 73.2512 290.285C73.1915 289.904 73.1515 289.52 73.1312 289.135C73.0952 288.998 73.085 288.855 73.1012 288.715Z"/><path fill="#F2F7FC" d="M80.2386 284.495C80.2386 284.495 80.2386 284.625 80.2386 284.865C80.2386 285.105 80.2386 285.465 80.2386 285.865C80.0491 288.138 79.392 290.348 78.3086 292.355C78.0986 292.735 77.9186 293.035 77.7786 293.235C77.72 293.345 77.6459 293.446 77.5586 293.535C77.5586 293.535 77.7986 293.055 78.1786 292.285C79.1673 290.281 79.8097 288.124 80.0786 285.905C80.1786 285.025 80.2086 284.495 80.2386 284.495Z"/><path fill="#F2F7FC" d="M74.9597 285.185C74.9597 285.185 74.9597 285.795 74.9597 286.775C74.9896 288.058 75.1504 289.335 75.4397 290.585C75.7303 291.832 76.1492 293.045 76.6897 294.205C77.0997 295.095 77.4097 295.625 77.3797 295.645C77.2849 295.533 77.2012 295.413 77.1297 295.285C76.922 294.962 76.7318 294.628 76.5597 294.285C75.3802 291.97 74.7797 289.403 74.8097 286.805C74.8097 286.305 74.8097 285.905 74.8697 285.625C74.8892 285.476 74.9193 285.329 74.9597 285.185Z"/><path fill="#F2F7FC" d="M76.6408 283.285C76.6408 283.285 76.5509 283.645 76.4809 284.215C76.398 284.97 76.4385 285.733 76.6009 286.475C77.0009 288.205 77.6009 289.535 77.6009 289.575C77.4204 289.308 77.2759 289.019 77.1709 288.715C76.8526 288.008 76.6079 287.271 76.4409 286.515C76.271 285.753 76.2472 284.965 76.3709 284.195C76.3954 283.876 76.4874 283.565 76.6408 283.285Z"/><path fill="#F2F7FC" d="M73.5508 296.355C73.5508 296.355 74.1808 297.445 75.1508 298.645C76.1208 299.845 77.0708 300.645 77.0208 300.725C76.7795 300.588 76.5575 300.42 76.3608 300.225C75.3658 299.335 74.5274 298.283 73.8808 297.115C73.7312 296.881 73.6198 296.624 73.5508 296.355Z"/><path fill="#F2F7FC" d="M81.3809 297.725C81.2408 298.003 81.0697 298.265 80.8709 298.505C80.4123 299.104 79.9216 299.678 79.4009 300.225C78.8737 300.763 78.3161 301.27 77.7309 301.745C77.4986 301.957 77.2398 302.138 76.9609 302.285C77.1648 302.045 77.3927 301.828 77.6409 301.635C78.0609 301.245 78.6409 300.705 79.2509 300.075C79.8609 299.445 80.3809 298.855 80.7509 298.415C80.9327 298.16 81.1442 297.929 81.3809 297.725Z"/><g opacity=".3"><path fill="#1F1F1F" d="M70.9492 248.245C74.8626 251.354 79.3225 253.704 84.0992 255.175C86.1188 255.913 88.2853 256.16 90.4192 255.895C91.4812 255.747 92.483 255.313 93.3179 254.641C94.1527 253.968 94.7891 253.081 95.1592 252.075C95.3092 251.565 95.2892 250.885 94.8092 250.655C94.3292 250.425 93.8092 250.885 93.3192 251.215C91.8892 252.295 87.6292 252.545 85.8492 252.345C80.0192 251.655 76.2292 250.235 70.9492 248.275" opacity=".3"/></g><path fill="#1F1F1F" d="M108.549 288.825C108.619 288.982 108.672 289.146 108.709 289.315C108.799 289.635 108.949 290.115 109.069 290.745C109.458 292.517 109.682 294.321 109.739 296.135C109.999 302.171 108.593 308.163 105.676 313.454C102.758 318.745 98.4421 323.132 93.1989 326.135C91.6308 327.047 89.9842 327.816 88.2789 328.435C87.8203 328.612 87.3531 328.765 86.8789 328.895C86.7198 328.961 86.551 329.002 86.3789 329.015C86.3789 329.015 87.0289 328.735 88.2089 328.245C89.8683 327.558 91.4729 326.745 93.0089 325.815C98.1216 322.774 102.332 318.426 105.207 313.219C108.083 308.011 109.519 302.131 109.369 296.185C109.347 294.387 109.179 292.595 108.869 290.825C108.725 290.164 108.619 289.497 108.549 288.825Z"/><g opacity=".2"><path fill="#1F1F1F" d="M109.369 295.405C109.439 297.571 109.018 299.725 108.138 301.706C107.259 303.687 105.943 305.444 104.289 306.845C102.139 308.645 99.4893 309.775 97.3393 311.575C95.3688 313.243 93.898 315.423 93.0893 317.875C92.6793 319.135 92.4993 320.685 93.4193 321.655C94.3393 322.625 96.2493 322.465 97.6293 321.885C102.139 319.975 105.349 315.745 107.079 311.155C108.809 306.565 109.229 301.615 109.529 296.715" opacity=".2"/></g><path fill="#1F1F1F" d="M134.67 291.705C133.115 287.767 133.165 283.376 134.81 279.475C134.422 281.492 134.172 283.533 134.06 285.585C134.124 287.636 134.328 289.681 134.67 291.705Z"/><path fill="#1F1F1F" d="M137.69 290.485C136.504 288.899 135.666 287.081 135.228 285.15C134.791 283.219 134.764 281.217 135.15 279.275C135.197 281.207 135.394 283.133 135.74 285.035C136.255 286.897 136.907 288.719 137.69 290.485Z"/><path fill="#FFBE9D" d="M193.85 257.875C194.78 255.595 204.1 251.575 202.85 250.145C201.26 248.285 193.3 254.775 192.59 255.275C191.88 255.775 191.16 254.745 191.83 254.335C192.78 253.735 202.69 247.205 201.15 245.335C200.29 244.335 198.63 246.075 198.63 246.075C198.63 246.075 189.79 252.875 189.09 251.985C188.39 251.095 193.43 246.905 195.23 245.615C197.03 244.325 197.16 242.965 195.96 242.615C195.14 242.385 189.54 246.185 187.78 247.495C186.02 248.805 181.28 252.495 182.2 248.745C183.12 244.995 182.43 241.745 181.66 241.025C180.89 240.305 179.59 241.135 179.8 242.305C179.912 243.605 179.844 244.913 179.6 246.195C179.383 247.23 179.047 248.236 178.6 249.195C177.663 251.373 176.153 253.257 174.23 254.645L184.08 266.245L185.34 265.385C190.21 262.075 194.78 260.805 197.42 259.285C202.33 256.455 202.09 256.005 201.68 255.475C200.63 254.095 192.92 260.155 193.85 257.875Z"/><path fill="#6C6C6C" d="M180.551 239.535L183.741 260.235L196.221 260.035L196.801 256.165C196.801 256.165 203.871 256.165 204.421 250.165C204.971 244.165 198.901 244.095 198.901 244.095L199.821 238.695L180.551 239.535ZM197.051 254.055L198.551 246.355C198.551 246.355 202.821 246.285 202.491 249.745C202.161 253.205 197.051 254.055 197.051 254.055Z"/><path fill="#1F1F1F" d="M189.831 211.665C189.831 211.665 189.921 211.715 190.061 211.855C190.255 212.06 190.417 212.292 190.541 212.545C190.964 213.507 191.069 214.579 190.841 215.605C190.495 217.085 189.943 218.508 189.201 219.835C188.82 220.614 188.535 221.437 188.351 222.285C188.17 223.178 188.247 224.104 188.571 224.955C189.352 226.588 190.423 228.065 191.731 229.315C192.829 230.401 193.622 231.756 194.031 233.245C194.265 234.278 194.12 235.361 193.621 236.295C193.481 236.539 193.302 236.758 193.091 236.945C192.941 237.075 192.851 237.125 192.841 237.115C193.061 236.822 193.262 236.514 193.441 236.195C193.845 235.293 193.926 234.28 193.671 233.325C193.23 231.92 192.439 230.65 191.371 229.635C189.999 228.357 188.883 226.83 188.081 225.135C187.729 224.193 187.649 223.17 187.851 222.185C188.05 221.3 188.359 220.443 188.771 219.635C189.508 218.344 190.083 216.967 190.481 215.535C190.731 214.575 190.689 213.562 190.361 212.625C190.081 211.985 189.791 211.695 189.831 211.665Z"/><path fill="#1F1F1F" d="M186.552 211.715C186.552 211.715 186.642 211.775 186.782 211.905C186.974 212.113 187.139 212.345 187.272 212.595C187.691 213.558 187.796 214.629 187.572 215.655C187.221 217.133 186.669 218.556 185.932 219.885C185.549 220.664 185.264 221.486 185.082 222.335C184.902 223.227 184.975 224.152 185.292 225.005C186.071 226.638 187.142 228.116 188.452 229.365C189.551 230.453 190.345 231.812 190.752 233.305C190.987 234.321 190.841 235.389 190.342 236.305C190.201 236.552 190.022 236.774 189.812 236.965C189.662 237.085 189.582 237.145 189.572 237.125C189.562 237.105 189.862 236.845 190.162 236.215C190.564 235.313 190.645 234.3 190.392 233.345C189.951 231.939 189.163 230.666 188.102 229.645C186.723 228.37 185.603 226.843 184.802 225.145C184.452 224.205 184.376 223.186 184.582 222.205C184.771 221.315 185.077 220.454 185.492 219.645C186.239 218.359 186.813 216.98 187.202 215.545C187.455 214.588 187.414 213.577 187.082 212.645C186.772 212.035 186.472 211.755 186.552 211.715Z"/><path fill="#FAFAFB" d="M181.719 248.035C181.719 248.035 181.719 247.735 182.149 247.415C182.436 247.214 182.765 247.08 183.111 247.021C183.456 246.962 183.811 246.981 184.149 247.075C185.109 247.434 185.969 248.016 186.659 248.775C187.023 249.218 187.481 249.574 188 249.818C188.519 250.062 189.085 250.187 189.659 250.185C190.839 250.025 191.829 249.185 192.879 248.745C193.38 248.502 193.923 248.359 194.479 248.325C194.971 248.317 195.459 248.416 195.909 248.615C196.549 248.896 197.085 249.372 197.439 249.975C197.669 250.405 197.699 250.685 197.669 250.685C197.639 250.685 197.539 250.455 197.269 250.085C196.882 249.578 196.363 249.187 195.769 248.955C195.365 248.795 194.932 248.727 194.499 248.755C194.002 248.804 193.52 248.95 193.079 249.185C192.048 249.869 190.913 250.382 189.719 250.705C189.02 250.786 188.315 250.627 187.719 250.255C187.209 249.934 186.74 249.555 186.319 249.125C185.693 248.4 184.914 247.823 184.039 247.435C183.743 247.333 183.43 247.293 183.118 247.319C182.806 247.345 182.503 247.435 182.229 247.585C181.879 247.815 181.759 248.065 181.719 248.035Z"/><path fill="#FAFAFB" d="M181.27 245.355C181.27 245.355 181.27 245.035 181.72 244.695C182.029 244.479 182.382 244.335 182.755 244.274C183.127 244.214 183.508 244.238 183.87 244.345C184.89 244.723 185.803 245.344 186.53 246.155C187.36 246.925 188.42 247.825 189.7 247.655C190.98 247.485 192.01 246.655 193.12 246.125C193.651 245.863 194.228 245.707 194.82 245.665C195.45 245.657 196.072 245.814 196.623 246.121C197.174 246.428 197.635 246.874 197.96 247.415C198.21 247.875 198.24 248.165 198.21 248.175C198.058 247.965 197.918 247.748 197.79 247.525C197.378 246.981 196.824 246.563 196.19 246.315C195.759 246.151 195.299 246.079 194.84 246.105C194.309 246.156 193.793 246.309 193.32 246.555C192.32 247.025 191.25 247.955 189.75 248.165C189.03 248.243 188.304 248.078 187.69 247.695C187.145 247.363 186.644 246.963 186.2 246.505C185.534 245.728 184.704 245.11 183.77 244.695C183.454 244.587 183.119 244.546 182.787 244.575C182.454 244.605 182.132 244.703 181.84 244.865C181.43 245.135 181.31 245.355 181.27 245.355Z"/><path fill="#1F1F1F" d="M87.8008 350.105L105.031 374.435L294.181 374.335L294.071 352.875L198.421 343.765L118.951 331.955L87.8008 350.105Z"/><path fill="#1F1F1F" d="M118.211 332.665L131.641 314.125L169.481 267.405C172.086 264.591 175.312 262.424 178.902 261.077C182.493 259.73 186.348 259.239 190.161 259.645C194.8 260.137 199.204 261.935 202.862 264.829C206.521 267.722 209.284 271.594 210.831 275.995L235.831 352.235L202.731 347.045L185.911 299.875L159.391 336.875L118.211 332.665Z"/><path fill="#6C6C6C" d="M235.8 347.355H235.55L234.69 347.305L231.38 347.075L219.22 346.075L179.1 342.705L157.01 340.785C153.62 340.475 150.39 340.235 147.37 339.905C144.571 339.598 141.793 339.128 139.05 338.495C136.761 338.023 134.548 337.242 132.47 336.175C130.914 335.336 129.511 334.241 128.32 332.935C127.564 332.116 126.933 331.189 126.45 330.185C126.275 329.838 126.131 329.477 126.02 329.105C126.63 330.46 127.457 331.707 128.47 332.795C129.667 334.058 131.066 335.112 132.61 335.915C134.673 336.945 136.866 337.691 139.13 338.135C141.865 338.738 144.633 339.185 147.42 339.475C150.42 339.785 153.66 340.015 157.06 340.305L179.14 342.185L219.25 345.715L231.4 346.845L234.7 347.175L235.56 347.275C235.643 347.291 235.723 347.318 235.8 347.355Z"/><path fill="#6C6C6C" d="M188.552 282.825C188.345 283.653 188.088 284.468 187.782 285.265C186.509 289.167 185.884 293.251 185.932 297.355C185.991 298.207 185.991 299.062 185.932 299.915C185.688 299.083 185.56 298.221 185.552 297.355C185.414 295.281 185.501 293.199 185.812 291.145C186.123 289.094 186.653 287.083 187.392 285.145C187.663 284.319 188.054 283.537 188.552 282.825Z"/><path fill="#6C6C6C" d="M181.25 289.185C181.757 291.119 182.365 293.025 183.07 294.895C183.935 296.7 184.893 298.459 185.94 300.165C183.084 297.195 181.416 293.282 181.25 289.165V289.185Z"/><path fill="#6C6C6C" d="M289.258 359.295C287.575 364.169 287.132 369.386 287.968 374.475C287.654 373.778 287.452 373.035 287.368 372.275C287.068 370.454 286.994 368.604 287.148 366.765C287.303 364.927 287.69 363.116 288.298 361.375C288.502 360.634 288.826 359.931 289.258 359.295Z"/><path fill="#1F1F1F" d="M95.3609 250.035C95.3609 250.035 95.3609 250.115 95.2009 250.255C95.0312 250.452 94.8438 250.632 94.6409 250.795C93.88 251.396 93.006 251.838 92.0709 252.095C89.7109 252.815 86.3009 252.645 82.6809 252.095C79.5905 251.589 76.57 250.723 73.6809 249.515C72.5709 249.045 71.6809 248.605 71.1009 248.295C70.7822 248.15 70.4831 247.965 70.2109 247.745C70.2109 247.665 71.5809 248.335 73.8209 249.165C76.7324 250.27 79.7475 251.081 82.8209 251.585C86.4109 252.145 89.7509 252.365 92.0409 251.755C93.2558 251.42 94.3869 250.834 95.3609 250.035Z"/></g><defs><linearGradient id="paint0_linear_14075_140451" x1="467.5" x2="228.684" y1="163.532" y2="258.978" gradientUnits="userSpaceOnUse"><stop stop-color="#0063CC"/><stop offset="1" stop-color="#007CFF"/></linearGradient><clipPath id="clip0_14075_140451"><rect width="678" height="374.5" fill="#fff"/></clipPath></defs></svg>