<svg width="1440" height="240" viewBox="0 0 1440 240" fill="none" xmlns="http://www.w3.org/2000/svg">
<path d="M424.002 55.0022L400.998 31.9978C400.447 31.4467 399.553 31.4467 399.002 31.9978L375.998 55.0022C375.447 55.5533 375.447 56.4467 375.998 56.9978L399.002 80.0022C399.553 80.5533 400.447 80.5533 400.998 80.0022L424.002 56.9978C424.553 56.4467 424.553 55.5533 424.002 55.0022Z" stroke="#ACB5E8" stroke-opacity="0.5" stroke-miterlimit="10"/>
<path d="M410.2 55.5727L400.425 45.7977C400.19 45.5632 399.81 45.5632 399.575 45.7977L389.8 55.5727C389.566 55.8073 389.566 56.1876 389.8 56.4221L399.575 66.1971C399.81 66.4317 400.19 66.4317 400.425 66.1971L410.2 56.4221C410.434 56.1876 410.434 55.8073 410.2 55.5727Z" fill="#D2D7F6"/>
<path d="M1382 69.0022L1359 45.9978C1358.45 45.4467 1357.55 45.4467 1357 45.9978L1334 69.0022C1333.45 69.5533 1333.45 70.4467 1334 70.9978L1357 94.0022C1357.55 94.5533 1358.45 94.5533 1359 94.0022L1382 70.9978C1382.55 70.4467 1382.55 69.5533 1382 69.0022Z" stroke="#ACB5E8" stroke-opacity="0.5" stroke-miterlimit="10"/>
<path d="M1368.2 69.5727L1358.42 59.7977C1358.19 59.5632 1357.81 59.5632 1357.58 59.7977L1347.8 69.5727C1347.57 69.8073 1347.57 70.1876 1347.8 70.4221L1357.58 80.1971C1357.81 80.4317 1358.19 80.4317 1358.42 80.1971L1368.2 70.4221C1368.43 70.1876 1368.43 69.8073 1368.2 69.5727Z" fill="#D2D7F6"/>
<path d="M1062.78 176.658L1056.83 175.862C1055.87 175.733 1054.98 176.41 1054.85 177.373L1054.05 183.32C1053.93 184.284 1054.6 185.169 1055.57 185.298L1061.51 186.094C1062.48 186.223 1063.36 185.546 1063.49 184.583L1064.29 178.636C1064.42 177.672 1063.74 176.787 1062.78 176.658Z" fill="#D2D7F6"/>
<path d="M1060.18 172.568L1066.67 173.436C1067.17 173.505 1067.62 173.768 1067.92 174.168C1068.23 174.568 1068.36 175.072 1068.3 175.571L1067.43 182.063C1067.36 182.561 1067.1 183.012 1066.7 183.318C1066.3 183.623 1065.79 183.758 1065.29 183.694L1058.81 182.827C1058.31 182.758 1057.86 182.495 1057.56 182.095C1057.25 181.695 1057.12 181.191 1057.18 180.692L1058.05 174.2C1058.12 173.701 1058.38 173.251 1058.78 172.945C1059.18 172.64 1059.69 172.504 1060.18 172.568ZM1065.49 182.208C1065.55 182.216 1065.6 182.214 1065.65 182.201C1065.7 182.188 1065.75 182.165 1065.8 182.133C1065.84 182.102 1065.87 182.061 1065.9 182.015C1065.93 181.969 1065.95 181.918 1065.95 181.865L1066.82 175.373C1066.83 175.32 1066.82 175.267 1066.81 175.215C1066.8 175.164 1066.77 175.115 1066.74 175.073C1066.71 175.031 1066.67 174.996 1066.62 174.97C1066.57 174.945 1066.52 174.928 1066.47 174.922L1059.99 174.055C1059.88 174.041 1059.77 174.069 1059.69 174.134C1059.61 174.198 1059.55 174.294 1059.54 174.399L1058.67 180.891C1058.65 180.996 1058.68 181.102 1058.75 181.187C1058.81 181.271 1058.91 181.326 1059.01 181.34L1065.49 182.208Z" fill="#C8D6F9"/>
<path d="M1379.28 204.111C1379.52 204.143 1379.76 204.223 1379.97 204.347C1380.19 204.471 1380.38 204.636 1380.53 204.832L1384.37 209.867C1384.67 210.264 1384.8 210.764 1384.74 211.258C1384.67 211.751 1384.41 212.199 1384.02 212.503L1378.98 216.35C1378.58 216.64 1378.09 216.766 1377.6 216.7C1377.1 216.634 1376.66 216.383 1376.35 215.997L1372.51 210.964C1372.36 210.768 1372.25 210.544 1372.18 210.305C1372.12 210.066 1372.1 209.817 1372.14 209.572C1372.17 209.327 1372.25 209.09 1372.38 208.877C1372.5 208.663 1372.67 208.476 1372.86 208.327L1377.89 204.479C1378.29 204.179 1378.79 204.046 1379.28 204.111ZM1377.8 215.202C1377.84 215.209 1377.89 215.207 1377.93 215.196C1377.98 215.185 1378.02 215.164 1378.06 215.136L1383.09 211.29C1383.13 211.261 1383.16 211.226 1383.18 211.186C1383.2 211.145 1383.22 211.101 1383.22 211.055C1383.23 211.009 1383.23 210.963 1383.22 210.918C1383.21 210.873 1383.19 210.831 1383.16 210.794L1379.31 205.759C1379.29 205.715 1379.26 205.676 1379.22 205.648C1379.18 205.619 1379.13 205.6 1379.08 205.593C1379.03 205.587 1378.98 205.592 1378.94 205.61C1378.89 205.627 1378.85 205.656 1378.82 205.693L1373.79 209.541C1373.75 209.567 1373.72 209.601 1373.69 209.642C1373.67 209.682 1373.65 209.727 1373.65 209.774C1373.64 209.821 1373.65 209.868 1373.66 209.913C1373.67 209.959 1373.69 210.001 1373.72 210.036L1377.56 215.07C1377.59 215.106 1377.63 215.137 1377.67 215.159C1377.71 215.182 1377.75 215.196 1377.8 215.202Z" fill="#C8D6F9"/>
<path d="M1091.56 222.207C1091.63 221.684 1091.54 221.151 1091.31 220.677C1091.08 220.203 1090.71 219.809 1090.25 219.544C1089.8 219.279 1089.27 219.155 1088.74 219.188C1088.22 219.222 1087.71 219.411 1087.29 219.731C1086.87 220.052 1086.56 220.49 1086.39 220.989C1086.22 221.489 1086.2 222.028 1086.33 222.539C1086.47 223.049 1086.75 223.508 1087.15 223.857C1087.54 224.206 1088.04 224.429 1088.56 224.499C1088.91 224.547 1089.26 224.526 1089.6 224.436C1089.94 224.347 1090.26 224.191 1090.54 223.978C1090.82 223.765 1091.05 223.499 1091.22 223.195C1091.4 222.891 1091.51 222.555 1091.56 222.207Z" fill="#C8D6F9"/>
<path d="M1218.51 241.169C1218.59 240.526 1218.48 239.872 1218.2 239.289C1217.91 238.707 1217.46 238.222 1216.9 237.897C1216.34 237.571 1215.69 237.419 1215.05 237.461C1214.4 237.502 1213.78 237.734 1213.26 238.128C1212.75 238.521 1212.36 239.059 1212.15 239.673C1211.94 240.287 1211.92 240.949 1212.08 241.576C1212.25 242.203 1212.6 242.767 1213.09 243.195C1213.57 243.624 1214.18 243.899 1214.82 243.985C1215.68 244.1 1216.55 243.868 1217.25 243.34C1217.94 242.812 1218.39 242.031 1218.51 241.169Z" fill="#D2D7F6"/>
<path d="M147.517 233.049L157.795 234.424C159.465 234.647 160.999 233.475 161.223 231.805L162.598 221.527C162.821 219.857 161.649 218.322 159.979 218.099L149.701 216.724C148.031 216.501 146.497 217.673 146.273 219.343L144.898 229.621C144.675 231.291 145.847 232.825 147.517 233.049Z" fill="#D2D7F6"/>
<path d="M144.665 209.573L155.885 211.074C156.75 211.19 157.533 211.644 158.063 212.338C158.593 213.031 158.825 213.906 158.709 214.771L157.208 225.991C157.09 226.854 156.635 227.635 155.942 228.162C155.249 228.69 154.376 228.921 153.513 228.806L142.292 227.305C141.429 227.189 140.647 226.736 140.117 226.045C139.588 225.354 139.354 224.481 139.466 223.618L140.968 212.397C141.083 211.533 141.538 210.749 142.231 210.219C142.925 209.69 143.8 209.457 144.665 209.573ZM153.855 226.249C154.038 226.271 154.223 226.22 154.37 226.108C154.517 225.996 154.614 225.831 154.641 225.648L156.142 214.428C156.167 214.244 156.117 214.057 156.005 213.91C155.892 213.762 155.725 213.666 155.541 213.641L144.321 212.14C144.137 212.115 143.951 212.165 143.804 212.278C143.656 212.39 143.559 212.557 143.535 212.741L142.034 223.961C142.009 224.145 142.058 224.331 142.171 224.479C142.284 224.626 142.451 224.723 142.635 224.748L153.855 226.249Z" fill="#C8D6F9"/>
<path d="M163.28 163.111C163.525 163.143 163.761 163.223 163.975 163.347C164.188 163.471 164.375 163.636 164.525 163.832L168.371 168.867C168.672 169.264 168.803 169.764 168.737 170.258C168.671 170.751 168.413 171.199 168.019 171.503L162.984 175.35C162.583 175.64 162.086 175.766 161.595 175.7C161.105 175.634 160.658 175.383 160.348 174.997L156.511 169.964C156.36 169.768 156.249 169.544 156.185 169.305C156.12 169.066 156.104 168.817 156.137 168.572C156.17 168.327 156.251 168.09 156.376 167.877C156.501 167.663 156.666 167.476 156.864 167.327L161.889 163.479C162.286 163.179 162.786 163.046 163.28 163.111ZM161.796 174.202C161.842 174.209 161.888 174.207 161.933 174.196C161.978 174.185 162.02 174.164 162.057 174.136L167.091 170.29C167.128 170.261 167.158 170.226 167.181 170.186C167.204 170.145 167.218 170.101 167.224 170.055C167.231 170.009 167.229 169.963 167.218 169.918C167.206 169.873 167.186 169.831 167.158 169.794L163.311 164.759C163.29 164.715 163.257 164.676 163.217 164.648C163.177 164.619 163.13 164.6 163.081 164.593C163.032 164.587 162.982 164.592 162.936 164.61C162.89 164.627 162.848 164.656 162.816 164.693L157.791 168.541C157.752 168.567 157.719 168.601 157.694 168.642C157.669 168.682 157.654 168.727 157.649 168.774C157.642 168.821 157.645 168.868 157.659 168.913C157.672 168.959 157.694 169.001 157.725 169.036L161.561 174.07C161.59 174.106 161.625 174.137 161.665 174.159C161.706 174.182 161.75 174.196 161.796 174.202Z" fill="#C8D6F9"/>
<path d="M58.3055 216.936C56.7508 216.728 55.3219 217.82 55.1139 219.374C54.9059 220.929 55.9976 222.358 57.5523 222.566C59.1069 222.774 60.5358 221.682 60.7438 220.127C60.9518 218.573 59.8601 217.144 58.3055 216.936Z" fill="#C8D6F9"/>
<path d="M2.50526 200.169C2.59128 199.526 2.48469 198.872 2.19899 198.289C1.91329 197.707 1.46129 197.222 0.900166 196.897C0.339037 196.571 -0.306038 196.419 -0.953459 196.461C-1.60088 196.502 -2.22158 196.734 -2.73708 197.128C-3.25257 197.521 -3.63968 198.059 -3.84949 198.673C-4.05931 199.287 -4.08238 199.949 -3.91579 200.576C-3.74921 201.203 -3.40046 201.767 -2.91362 202.195C-2.42679 202.624 -1.82371 202.899 -1.18072 202.985C-0.318493 203.1 0.554239 202.868 1.24549 202.34C1.93675 201.812 2.3899 201.031 2.50526 200.169Z" fill="#D2D7F6"/>
<path d="M842.775 43.6579L836.828 42.8623C835.865 42.7334 834.979 43.4099 834.851 44.3734L834.055 50.3204C833.926 51.2838 834.603 52.1693 835.566 52.2982L841.513 53.0939C842.476 53.2228 843.362 52.5462 843.491 51.5828L844.287 45.6358C844.415 44.6723 843.739 43.7868 842.775 43.6579Z" fill="#D2D7F6"/>
<path d="M840.185 39.5685L846.667 40.4357C847.165 40.505 847.616 40.7682 847.922 41.168C848.227 41.5677 848.362 42.0719 848.298 42.5709L847.43 49.0631C847.36 49.5614 847.097 50.0122 846.697 50.3176C846.298 50.6231 845.793 50.7584 845.294 50.6943L838.812 49.8271C838.314 49.7578 837.863 49.4946 837.558 49.0949C837.252 48.6951 837.117 48.1909 837.181 47.6919L838.05 41.1998C838.119 40.7015 838.382 40.2506 838.782 39.9452C839.182 39.6397 839.686 39.5044 840.185 39.5685ZM845.493 49.2076C845.546 49.216 845.6 49.2137 845.652 49.201C845.704 49.1883 845.752 49.1653 845.795 49.1334C845.838 49.1015 845.874 49.0614 845.901 49.0154C845.928 48.9694 845.946 48.9184 845.953 48.8655L846.821 42.3733C846.828 42.3204 846.825 42.2666 846.811 42.2151C846.797 42.1636 846.773 42.1154 846.74 42.0734C846.707 42.0314 846.666 41.9964 846.619 41.9705C846.572 41.9446 846.521 41.9282 846.468 41.9225L839.986 41.0552C839.881 41.0412 839.774 41.0695 839.69 41.1339C839.606 41.1983 839.55 41.2935 839.536 41.3987L838.668 47.8908C838.654 47.996 838.682 48.1024 838.746 48.1867C838.811 48.271 838.906 48.3263 839.011 48.3403L845.493 49.2076Z" fill="#C8D6F9"/>
<path d="M1143.52 141.049L1153.8 142.424C1155.46 142.647 1157 141.475 1157.22 139.805L1158.6 129.527C1158.82 127.857 1157.65 126.322 1155.98 126.099L1145.7 124.724C1144.03 124.501 1142.5 125.673 1142.27 127.343L1140.9 137.621C1140.67 139.291 1141.85 140.825 1143.52 141.049Z" fill="#D2D7F6"/>
<path d="M1140.66 117.573L1151.88 119.074C1152.75 119.19 1153.53 119.644 1154.06 120.338C1154.59 121.031 1154.83 121.906 1154.71 122.771L1153.21 133.991C1153.09 134.854 1152.63 135.635 1151.94 136.162C1151.25 136.69 1150.38 136.921 1149.51 136.806L1138.29 135.305C1137.43 135.189 1136.65 134.736 1136.12 134.045C1135.59 133.354 1135.35 132.481 1135.47 131.618L1136.97 120.397C1137.08 119.533 1137.54 118.749 1138.23 118.219C1138.92 117.69 1139.8 117.457 1140.66 117.573ZM1149.85 134.249C1150.04 134.271 1150.22 134.22 1150.37 134.108C1150.52 133.996 1150.61 133.831 1150.64 133.648L1152.14 122.428C1152.17 122.244 1152.12 122.057 1152 121.91C1151.89 121.762 1151.73 121.666 1151.54 121.641L1140.32 120.14C1140.14 120.115 1139.95 120.165 1139.8 120.278C1139.66 120.39 1139.56 120.557 1139.53 120.741L1138.03 131.961C1138.01 132.145 1138.06 132.331 1138.17 132.479C1138.28 132.626 1138.45 132.723 1138.63 132.748L1149.85 134.249Z" fill="#C8D6F9"/>
<path d="M938.654 110.836C939.222 110.913 939.737 111.21 940.087 111.663L944.52 117.442C944.867 117.899 945.019 118.474 944.943 119.042C944.867 119.61 944.569 120.126 944.114 120.475L938.314 124.915C937.858 125.262 937.282 125.414 936.714 125.338C936.146 125.262 935.631 124.964 935.281 124.509L930.843 118.699C930.671 118.473 930.545 118.216 930.473 117.941C930.4 117.667 930.383 117.381 930.421 117.099C930.5 116.532 930.797 116.018 931.248 115.666L937.057 111.238C937.284 111.069 937.542 110.947 937.816 110.878C938.09 110.809 938.375 110.794 938.654 110.836ZM936.945 123.612C936.997 123.62 937.05 123.617 937.101 123.603C937.151 123.589 937.198 123.564 937.238 123.53L943.037 119.1C943.082 119.069 943.119 119.029 943.146 118.982C943.173 118.935 943.19 118.882 943.195 118.828C943.203 118.777 943.199 118.724 943.185 118.673C943.171 118.622 943.146 118.575 943.113 118.535L938.704 112.729C938.638 112.646 938.542 112.591 938.437 112.577C938.331 112.563 938.224 112.59 938.139 112.653L932.34 117.084C932.298 117.116 932.262 117.156 932.235 117.201C932.208 117.247 932.191 117.298 932.184 117.35C932.177 117.403 932.18 117.456 932.194 117.508C932.208 117.559 932.232 117.607 932.265 117.649L936.674 123.455C936.704 123.499 936.745 123.536 936.792 123.563C936.839 123.591 936.891 123.607 936.945 123.612Z" fill="#C8D6F9"/>
<path d="M1159.28 71.1107C1159.52 71.1428 1159.76 71.223 1159.97 71.3469C1160.19 71.4707 1160.38 71.6357 1160.53 71.8322L1164.37 76.8667C1164.67 77.264 1164.8 77.7638 1164.74 78.2576C1164.67 78.7513 1164.41 79.1989 1164.02 79.5032L1158.98 83.3496C1158.58 83.6402 1158.09 83.7656 1157.6 83.7C1157.1 83.6343 1156.66 83.3826 1156.35 82.9969L1152.51 77.9637C1152.36 77.768 1152.25 77.5442 1152.18 77.3052C1152.12 77.0663 1152.1 76.817 1152.14 76.5718C1152.17 76.3266 1152.25 76.0903 1152.38 75.8766C1152.5 75.663 1152.67 75.4762 1152.86 75.3272L1157.89 71.4795C1158.29 71.1789 1158.79 71.0465 1159.28 71.1107ZM1157.8 82.2019C1157.84 82.2092 1157.89 82.2072 1157.93 82.1959C1157.98 82.1845 1158.02 82.1641 1158.06 82.1359L1163.09 78.2896C1163.13 78.2612 1163.16 78.2258 1163.18 78.1855C1163.2 78.1453 1163.22 78.1009 1163.22 78.055C1163.23 78.0093 1163.23 77.9626 1163.22 77.9177C1163.21 77.8728 1163.19 77.8307 1163.16 77.794L1159.31 72.7595C1159.29 72.715 1159.26 72.6765 1159.22 72.6475C1159.18 72.6185 1159.13 72.5999 1159.08 72.5933C1159.03 72.5868 1158.98 72.5925 1158.94 72.6099C1158.89 72.6273 1158.85 72.6559 1158.82 72.6932L1153.79 76.5409C1153.75 76.5668 1153.72 76.6012 1153.69 76.6415C1153.67 76.6819 1153.65 76.7271 1153.65 76.7741C1153.64 76.8207 1153.65 76.8682 1153.66 76.9135C1153.67 76.9587 1153.69 77.0007 1153.72 77.0365L1157.56 82.0696C1157.59 82.1061 1157.63 82.1365 1157.67 82.1592C1157.71 82.1819 1157.75 82.1964 1157.8 82.2019Z" fill="#C8D6F9"/>
<path d="M871.559 89.2071C871.629 88.6837 871.542 88.1512 871.31 87.6771C871.077 87.203 870.709 86.8085 870.253 86.5435C869.796 86.2785 869.271 86.1549 868.744 86.1884C868.217 86.2218 867.711 86.4108 867.292 86.7314C866.872 87.052 866.557 87.4898 866.386 87.9895C866.215 88.4892 866.197 89.0283 866.332 89.5386C866.468 90.049 866.752 90.5077 867.148 90.8567C867.544 91.2057 868.035 91.4294 868.559 91.4994C868.906 91.5473 869.26 91.5259 869.6 91.4364C869.939 91.3469 870.257 91.1911 870.536 90.978C870.815 90.7649 871.049 90.4987 871.225 90.1948C871.4 89.8908 871.514 89.5552 871.559 89.2071Z" fill="#C8D6F9"/>
<path d="M1054.31 124.936C1052.75 124.728 1051.32 125.82 1051.11 127.374C1050.91 128.929 1052 130.358 1053.55 130.566C1055.11 130.774 1056.54 129.682 1056.74 128.127C1056.95 126.573 1055.86 125.144 1054.31 124.936Z" fill="#C8D6F9"/>
<path d="M998.505 108.169C998.591 107.526 998.485 106.872 998.199 106.289C997.913 105.707 997.461 105.222 996.9 104.897C996.339 104.571 995.694 104.419 995.047 104.461C994.399 104.502 993.778 104.734 993.263 105.128C992.747 105.521 992.36 106.059 992.151 106.673C991.941 107.287 991.918 107.949 992.084 108.576C992.251 109.203 992.6 109.767 993.086 110.195C993.573 110.624 994.176 110.899 994.819 110.985C995.682 111.1 996.554 110.868 997.245 110.34C997.937 109.812 998.39 109.031 998.505 108.169Z" fill="#D2D7F6"/>
<path d="M42.7755 26.6579L36.8285 25.8623C35.865 25.7334 34.9795 26.4099 34.8506 27.3734L34.055 33.3204C33.9261 34.2838 34.6026 35.1693 35.566 35.2982L41.5131 36.0939C42.4765 36.2228 43.362 35.5462 43.4909 34.5828L44.2865 28.6358C44.4154 27.6723 43.7389 26.7868 42.7755 26.6579Z" fill="#D2D7F6"/>
<path d="M40.1847 22.5685L46.667 23.4357C47.1653 23.505 47.6161 23.7682 47.9215 24.168C48.2269 24.5677 48.3624 25.0719 48.2983 25.5709L47.4297 32.0631C47.3604 32.5614 47.0972 33.0122 46.6974 33.3176C46.2976 33.6231 45.7935 33.7584 45.2945 33.6943L38.8123 32.8271C38.314 32.7578 37.8631 32.4946 37.5576 32.0949C37.2522 31.6951 37.1169 31.1909 37.181 30.6919L38.0495 24.1998C38.1189 23.7015 38.382 23.2506 38.7818 22.9452C39.1815 22.6397 39.6857 22.5044 40.1847 22.5685ZM45.4934 32.2076C45.5461 32.216 45.6 32.2137 45.6518 32.201C45.7036 32.1883 45.7524 32.1653 45.7952 32.1334C45.838 32.1015 45.874 32.0614 45.9011 32.0154C45.9282 31.9694 45.9457 31.9184 45.9528 31.8655L46.8214 25.3733C46.8285 25.3204 46.8249 25.2666 46.8109 25.2151C46.7969 25.1636 46.7727 25.1154 46.7397 25.0734C46.7068 25.0314 46.6658 24.9964 46.6191 24.9705C46.5725 24.9446 46.5211 24.9282 46.468 24.9225L39.9858 24.0552C39.8807 24.0412 39.7743 24.0695 39.69 24.1339C39.6057 24.1983 39.5504 24.2935 39.5363 24.3987L38.6677 30.8908C38.6537 30.996 38.682 31.1024 38.7464 31.1867C38.8108 31.271 38.906 31.3263 39.0112 31.3403L45.4934 32.2076Z" fill="#C8D6F9"/>
<path d="M343.517 124.049L353.795 125.424C355.465 125.647 356.999 124.475 357.223 122.805L358.598 112.527C358.821 110.857 357.649 109.322 355.979 109.099L345.701 107.724C344.031 107.501 342.497 108.673 342.273 110.343L340.898 120.621C340.675 122.291 341.847 123.825 343.517 124.049Z" fill="#D2D7F6"/>
<path d="M340.665 100.573L351.885 102.074C352.75 102.19 353.533 102.644 354.063 103.338C354.593 104.031 354.825 104.906 354.709 105.771L353.208 116.991C353.09 117.854 352.635 118.635 351.942 119.162C351.249 119.69 350.376 119.921 349.513 119.806L338.292 118.305C337.429 118.189 336.647 117.736 336.117 117.045C335.588 116.354 335.354 115.481 335.466 114.618L336.968 103.397C337.083 102.533 337.538 101.749 338.231 101.219C338.925 100.69 339.8 100.457 340.665 100.573ZM349.855 117.249C350.038 117.271 350.223 117.22 350.37 117.108C350.517 116.996 350.614 116.831 350.641 116.648L352.142 105.428C352.167 105.244 352.117 105.057 352.005 104.91C351.892 104.762 351.725 104.666 351.541 104.641L340.321 103.14C340.137 103.115 339.951 103.165 339.804 103.278C339.656 103.39 339.559 103.557 339.535 103.741L338.034 114.961C338.009 115.145 338.058 115.331 338.171 115.479C338.284 115.626 338.451 115.723 338.635 115.748L349.855 117.249Z" fill="#C8D6F9"/>
<path d="M138.654 93.8358C139.222 93.9126 139.737 94.2098 140.087 94.6631L144.52 100.442C144.867 100.899 145.019 101.474 144.943 102.042C144.867 102.61 144.569 103.126 144.114 103.475L138.314 107.915C137.858 108.262 137.282 108.414 136.714 108.338C136.146 108.262 135.631 107.964 135.281 107.509L130.843 101.699C130.671 101.473 130.545 101.216 130.473 100.941C130.4 100.667 130.383 100.381 130.421 100.099C130.5 99.5322 130.797 99.0182 131.248 98.6664L137.057 94.2375C137.284 94.0689 137.542 93.9466 137.816 93.8776C138.09 93.8087 138.375 93.7945 138.654 93.8358ZM136.945 106.612C136.997 106.62 137.05 106.617 137.101 106.603C137.151 106.589 137.198 106.564 137.238 106.53L143.037 102.1C143.082 102.069 143.119 102.029 143.146 101.982C143.173 101.935 143.19 101.882 143.195 101.828C143.203 101.777 143.199 101.724 143.185 101.673C143.171 101.622 143.146 101.575 143.113 101.535L138.704 95.7291C138.638 95.6457 138.542 95.5912 138.437 95.5771C138.331 95.5629 138.224 95.5903 138.139 95.6535L132.34 100.084C132.298 100.116 132.262 100.156 132.235 100.201C132.208 100.247 132.191 100.298 132.184 100.35C132.177 100.403 132.18 100.456 132.194 100.508C132.208 100.559 132.232 100.607 132.265 100.649L136.674 106.455C136.704 106.499 136.745 106.536 136.792 106.563C136.839 106.591 136.891 106.607 136.945 106.612Z" fill="#C8D6F9"/>
<path d="M359.28 54.1107C359.525 54.1428 359.761 54.223 359.975 54.3469C360.188 54.4707 360.375 54.6357 360.525 54.8322L364.371 59.8667C364.672 60.264 364.803 60.7638 364.737 61.2576C364.671 61.7513 364.413 62.1989 364.019 62.5032L358.984 66.3496C358.583 66.6402 358.086 66.7656 357.595 66.7C357.105 66.6343 356.658 66.3826 356.348 65.9969L352.511 60.9637C352.36 60.768 352.249 60.5442 352.185 60.3052C352.12 60.0663 352.104 59.817 352.137 59.5718C352.17 59.3266 352.251 59.0903 352.376 58.8766C352.501 58.663 352.666 58.4762 352.864 58.3272L357.889 54.4795C358.286 54.1789 358.786 54.0465 359.28 54.1107ZM357.796 65.2019C357.842 65.2092 357.888 65.2072 357.933 65.1959C357.978 65.1845 358.02 65.1641 358.057 65.1359L363.091 61.2896C363.128 61.2612 363.158 61.2258 363.181 61.1855C363.204 61.1453 363.218 61.1009 363.224 61.055C363.231 61.0093 363.229 60.9626 363.218 60.9177C363.206 60.8728 363.186 60.8307 363.158 60.794L359.311 55.7595C359.29 55.715 359.257 55.6765 359.217 55.6475C359.177 55.6185 359.13 55.5999 359.081 55.5933C359.032 55.5868 358.982 55.5925 358.936 55.6099C358.89 55.6273 358.848 55.6559 358.816 55.6932L353.791 59.5409C353.752 59.5668 353.719 59.6012 353.694 59.6415C353.669 59.6819 353.654 59.7271 353.649 59.7741C353.642 59.8207 353.645 59.8682 353.659 59.9135C353.672 59.9587 353.694 60.0007 353.725 60.0365L357.561 65.0696C357.59 65.1061 357.625 65.1365 357.665 65.1592C357.706 65.1819 357.75 65.1964 357.796 65.2019Z" fill="#C8D6F9"/>
<path d="M71.5591 72.2071C71.6291 71.6837 71.5424 71.1512 71.3098 70.6771C71.0772 70.203 70.7093 69.8085 70.2525 69.5435C69.7958 69.2785 69.2707 69.1549 68.7436 69.1884C68.2166 69.2218 67.7114 69.4108 67.2917 69.7314C66.8721 70.052 66.557 70.4898 66.3862 70.9895C66.2154 71.4892 66.1966 72.0283 66.3322 72.5386C66.4678 73.049 66.7517 73.5077 67.148 73.8567C67.5443 74.2057 68.0352 74.4294 68.5586 74.4994C68.9063 74.5473 69.2601 74.5259 69.5995 74.4364C69.9389 74.3469 70.2572 74.1911 70.5361 73.978C70.8151 73.7649 71.0491 73.4987 71.2246 73.1948C71.4002 72.8908 71.5139 72.5552 71.5591 72.2071Z" fill="#C8D6F9"/>
<path d="M254.305 107.936C252.751 107.728 251.322 108.82 251.114 110.374C250.906 111.929 251.998 113.358 253.552 113.566C255.107 113.774 256.536 112.682 256.744 111.127C256.952 109.573 255.86 108.144 254.305 107.936Z" fill="#C8D6F9"/>
<path d="M198.505 91.1689C198.591 90.5259 198.485 89.8718 198.199 89.2894C197.913 88.707 197.461 88.2224 196.9 87.8968C196.339 87.5713 195.694 87.4195 195.047 87.4605C194.399 87.5016 193.778 87.7337 193.263 88.1276C192.747 88.5214 192.36 89.0593 192.151 89.6731C191.941 90.287 191.918 90.9493 192.084 91.5762C192.251 92.2032 192.6 92.7667 193.086 93.1954C193.573 93.6242 194.176 93.899 194.819 93.985C195.682 94.1003 196.554 93.8685 197.245 93.3403C197.937 92.8122 198.39 92.0311 198.505 91.1689Z" fill="#D2D7F6"/>
<path d="M450.775 52.6589L444.828 51.8633C443.865 51.7344 442.979 52.4109 442.851 53.3743L442.055 59.3213C441.926 60.2848 442.603 61.1703 443.566 61.2992L449.513 62.0948C450.476 62.2237 451.362 61.5472 451.491 60.5838L452.287 54.6367C452.415 53.6733 451.739 52.7878 450.775 52.6589Z" fill="#D2D7F6"/>
<path d="M448.185 48.5695L454.667 49.4367C455.165 49.506 455.616 49.7692 455.922 50.1689C456.227 50.5687 456.362 51.0729 456.298 51.5719L455.43 58.0641C455.36 58.5624 455.097 59.0132 454.697 59.3186C454.298 59.6241 453.793 59.7594 453.294 59.6953L446.812 58.8281C446.314 58.7588 445.863 58.4956 445.558 58.0958C445.252 57.6961 445.117 57.1919 445.181 56.6929L446.05 50.2007C446.119 49.7024 446.382 49.2516 446.782 48.9462C447.182 48.6407 447.686 48.5054 448.185 48.5695ZM453.493 58.2086C453.546 58.217 453.6 58.2147 453.652 58.202C453.704 58.1892 453.752 58.1663 453.795 58.1344C453.838 58.1025 453.874 58.0624 453.901 58.0163C453.928 57.9703 453.946 57.9194 453.953 57.8665L454.821 51.3743C454.828 51.3214 454.825 51.2676 454.811 51.2161C454.797 51.1646 454.773 51.1164 454.74 51.0744C454.707 51.0324 454.666 50.9974 454.619 50.9715C454.572 50.9455 454.521 50.9292 454.468 50.9235L447.986 50.0562C447.881 50.0422 447.774 50.0704 447.69 50.1348C447.606 50.1992 447.55 50.2945 447.536 50.3997L446.668 56.8918C446.654 56.997 446.682 57.1034 446.746 57.1877C446.811 57.272 446.906 57.3273 447.011 57.3413L453.493 58.2086Z" fill="#C8D6F9"/>
<path d="M751.517 150.05L761.795 151.425C763.465 151.648 764.999 150.476 765.223 148.806L766.598 138.528C766.821 136.858 765.649 135.323 763.979 135.1L753.701 133.725C752.031 133.502 750.497 134.674 750.273 136.344L748.898 146.622C748.675 148.292 749.847 149.826 751.517 150.05Z" fill="#D2D7F6"/>
<path d="M748.665 126.574L759.885 128.075C760.75 128.191 761.533 128.645 762.063 129.338C762.593 130.032 762.825 130.907 762.709 131.772L761.208 142.992C761.09 143.855 760.635 144.636 759.942 145.163C759.249 145.691 758.376 145.922 757.513 145.807L746.292 144.306C745.429 144.19 744.647 143.737 744.117 143.046C743.588 142.355 743.354 141.482 743.466 140.618L744.968 129.398C745.083 128.534 745.538 127.75 746.231 127.22C746.925 126.691 747.8 126.458 748.665 126.574ZM757.855 143.25C758.038 143.272 758.223 143.221 758.37 143.109C758.517 142.997 758.614 142.832 758.641 142.649L760.142 131.429C760.167 131.245 760.117 131.058 760.005 130.911C759.892 130.763 759.725 130.667 759.541 130.642L748.321 129.141C748.137 129.116 747.951 129.166 747.804 129.278C747.656 129.391 747.559 129.558 747.535 129.742L746.034 140.962C746.009 141.146 746.058 141.332 746.171 141.48C746.284 141.627 746.451 141.724 746.635 141.749L757.855 143.25Z" fill="#C8D6F9"/>
<path d="M546.654 119.837C547.222 119.914 547.737 120.211 548.087 120.664L552.52 126.443C552.867 126.9 553.019 127.475 552.943 128.043C552.867 128.611 552.569 129.127 552.114 129.476L546.314 133.916C545.858 134.263 545.282 134.415 544.714 134.339C544.146 134.263 543.631 133.965 543.281 133.51L538.843 127.7C538.671 127.474 538.545 127.217 538.473 126.942C538.4 126.668 538.383 126.382 538.421 126.1C538.5 125.533 538.797 125.019 539.248 124.667L545.057 120.239C545.284 120.07 545.542 119.948 545.816 119.879C546.09 119.81 546.375 119.795 546.654 119.837ZM544.945 132.613C544.997 132.621 545.05 132.618 545.101 132.604C545.151 132.59 545.198 132.565 545.238 132.531L551.037 128.101C551.082 128.07 551.119 128.03 551.146 127.983C551.173 127.936 551.19 127.883 551.195 127.829C551.203 127.778 551.199 127.724 551.185 127.674C551.171 127.623 551.146 127.576 551.113 127.536L546.704 121.73C546.638 121.647 546.542 121.592 546.437 121.578C546.331 121.564 546.224 121.591 546.139 121.654L540.34 126.085C540.298 126.117 540.262 126.157 540.235 126.202C540.208 126.248 540.191 126.299 540.184 126.351C540.177 126.404 540.18 126.457 540.194 126.509C540.208 126.56 540.232 126.608 540.265 126.65L544.674 132.456C544.704 132.5 544.745 132.537 544.792 132.564C544.839 132.592 544.891 132.608 544.945 132.613Z" fill="#C8D6F9"/>
<path d="M767.28 80.1117C767.525 80.1437 767.761 80.224 767.975 80.3478C768.188 80.4717 768.375 80.6366 768.525 80.8332L772.371 85.8677C772.672 86.265 772.803 86.7648 772.737 87.2585C772.671 87.7522 772.413 88.1999 772.019 88.5042L766.984 92.3506C766.583 92.6412 766.086 92.7666 765.595 92.7009C765.105 92.6353 764.658 92.3836 764.348 91.9979L760.511 86.9647C760.36 86.7689 760.249 86.5451 760.185 86.3062C760.12 86.0673 760.104 85.818 760.137 85.5728C760.17 85.3275 760.251 85.0913 760.376 84.8776C760.501 84.664 760.666 84.4772 760.864 84.3282L765.889 80.4805C766.286 80.1799 766.786 80.0474 767.28 80.1117ZM765.796 91.2029C765.842 91.2102 765.888 91.2082 765.933 91.1968C765.978 91.1855 766.02 91.1651 766.057 91.1369L771.091 87.2906C771.128 87.2621 771.158 87.2268 771.181 87.1865C771.204 87.1463 771.218 87.1019 771.224 87.056C771.231 87.0103 771.229 86.9636 771.218 86.9187C771.206 86.8738 771.186 86.8317 771.158 86.795L767.311 81.7604C767.29 81.7159 767.257 81.6775 767.217 81.6485C767.177 81.6195 767.13 81.6009 767.081 81.5943C767.032 81.5877 766.982 81.5934 766.936 81.6109C766.89 81.6283 766.848 81.6569 766.816 81.6941L761.791 85.5418C761.752 85.5678 761.719 85.6022 761.694 85.6425C761.669 85.6828 761.654 85.7281 761.649 85.7751C761.642 85.8217 761.645 85.8692 761.659 85.9144C761.672 85.9597 761.694 86.0016 761.725 86.0374L765.561 91.0706C765.59 91.107 765.625 91.1375 765.665 91.1602C765.706 91.1829 765.75 91.1974 765.796 91.2029Z" fill="#C8D6F9"/>
<path d="M479.559 98.2081C479.629 97.6846 479.542 97.1522 479.31 96.6781C479.077 96.204 478.709 95.8095 478.253 95.5445C477.796 95.2795 477.271 95.1559 476.744 95.1893C476.217 95.2228 475.711 95.4117 475.292 95.7323C474.872 96.0529 474.557 96.4908 474.386 96.9905C474.215 97.4901 474.197 98.0293 474.332 98.5396C474.468 99.05 474.752 99.5087 475.148 99.8577C475.544 100.207 476.035 100.43 476.559 100.5C476.906 100.548 477.26 100.527 477.6 100.437C477.939 100.348 478.257 100.192 478.536 99.979C478.815 99.7659 479.049 99.4997 479.225 99.1957C479.4 98.8918 479.514 98.5561 479.559 98.2081Z" fill="#C8D6F9"/>
<path d="M662.305 133.937C660.751 133.729 659.322 134.821 659.114 136.375C658.906 137.93 659.998 139.359 661.552 139.567C663.107 139.775 664.536 138.683 664.744 137.128C664.952 135.574 663.86 134.145 662.305 133.937Z" fill="#C8D6F9"/>
<path d="M606.505 117.17C606.591 116.527 606.485 115.873 606.199 115.29C605.913 114.708 605.461 114.223 604.9 113.898C604.339 113.572 603.694 113.42 603.047 113.462C602.399 113.503 601.778 113.735 601.263 114.129C600.747 114.522 600.36 115.06 600.151 115.674C599.941 116.288 599.918 116.95 600.084 117.577C600.251 118.204 600.6 118.768 601.086 119.196C601.573 119.625 602.176 119.9 602.819 119.986C603.682 120.101 604.554 119.869 605.245 119.341C605.937 118.813 606.39 118.032 606.505 117.17Z" fill="#D2D7F6"/>
<path d="M1116.78 15.6579L1110.83 14.8623C1109.87 14.7334 1108.98 15.4099 1108.85 16.3734L1108.05 22.3204C1107.93 23.2838 1108.6 24.1693 1109.57 24.2982L1115.51 25.0939C1116.48 25.2228 1117.36 24.5462 1117.49 23.5828L1118.29 17.6358C1118.42 16.6723 1117.74 15.7868 1116.78 15.6579Z" fill="#D2D7F6"/>
<path d="M1114.18 11.5685L1120.67 12.4357C1121.17 12.505 1121.62 12.7682 1121.92 13.168C1122.23 13.5677 1122.36 14.0719 1122.3 14.5709L1121.43 21.0631C1121.36 21.5614 1121.1 22.0122 1120.7 22.3176C1120.3 22.6231 1119.79 22.7584 1119.29 22.6943L1112.81 21.8271C1112.31 21.7578 1111.86 21.4946 1111.56 21.0949C1111.25 20.6951 1111.12 20.1909 1111.18 19.6919L1112.05 13.1998C1112.12 12.7015 1112.38 12.2506 1112.78 11.9452C1113.18 11.6397 1113.69 11.5044 1114.18 11.5685ZM1119.49 21.2076C1119.55 21.216 1119.6 21.2137 1119.65 21.201C1119.7 21.1883 1119.75 21.1653 1119.8 21.1334C1119.84 21.1015 1119.87 21.0614 1119.9 21.0154C1119.93 20.9694 1119.95 20.9184 1119.95 20.8655L1120.82 14.3733C1120.83 14.3204 1120.82 14.2666 1120.81 14.2151C1120.8 14.1636 1120.77 14.1154 1120.74 14.0734C1120.71 14.0314 1120.67 13.9964 1120.62 13.9705C1120.57 13.9446 1120.52 13.9282 1120.47 13.9225L1113.99 13.0552C1113.88 13.0412 1113.77 13.0695 1113.69 13.1339C1113.61 13.1983 1113.55 13.2935 1113.54 13.3987L1112.67 19.8908C1112.65 19.996 1112.68 20.1024 1112.75 20.1867C1112.81 20.271 1112.91 20.3263 1113.01 20.3403L1119.49 21.2076Z" fill="#C8D6F9"/>
<path d="M1417.52 113.049L1427.8 114.424C1429.46 114.647 1431 113.475 1431.22 111.805L1432.6 101.527C1432.82 99.857 1431.65 98.3225 1429.98 98.0991L1419.7 96.724C1418.03 96.5006 1416.5 97.673 1416.27 99.3426L1414.9 109.621C1414.67 111.291 1415.85 112.825 1417.52 113.049Z" fill="#D2D7F6"/>
<path d="M1414.66 89.5728L1425.88 91.0739C1426.75 91.1896 1427.53 91.6441 1428.06 92.3375C1428.59 93.0309 1428.83 93.9063 1428.71 94.7711L1427.21 105.991C1427.09 106.854 1426.63 107.635 1425.94 108.162C1425.25 108.69 1424.38 108.921 1423.51 108.806L1412.29 107.305C1411.43 107.189 1410.65 106.736 1410.12 106.045C1409.59 105.354 1409.35 104.481 1409.47 103.618L1410.97 92.3975C1411.08 91.5326 1411.54 90.7492 1412.23 90.2194C1412.92 89.6897 1413.8 89.4571 1414.66 89.5728ZM1423.85 106.249C1424.04 106.271 1424.22 106.22 1424.37 106.108C1424.52 105.996 1424.61 105.831 1424.64 105.648L1426.14 94.4277C1426.17 94.2437 1426.12 94.0574 1426 93.9099C1425.89 93.7624 1425.73 93.6657 1425.54 93.641L1414.32 92.1399C1414.14 92.1153 1413.95 92.1648 1413.8 92.2775C1413.66 92.3902 1413.56 92.5569 1413.53 92.7409L1412.03 103.961C1412.01 104.145 1412.06 104.331 1412.17 104.479C1412.28 104.626 1412.45 104.723 1412.63 104.748L1423.85 106.249Z" fill="#C8D6F9"/>
<path d="M1212.65 82.8358C1213.22 82.9126 1213.74 83.2098 1214.09 83.6631L1218.52 89.442C1218.87 89.8986 1219.02 90.4739 1218.94 91.0422C1218.87 91.6105 1218.57 92.1256 1218.11 92.475L1212.31 96.9151C1211.86 97.2618 1211.28 97.4138 1210.71 97.3378C1210.15 97.2617 1209.63 96.9639 1209.28 96.5093L1204.84 90.6994C1204.67 90.4735 1204.54 90.2159 1204.47 89.9413C1204.4 89.6668 1204.38 89.3807 1204.42 89.0993C1204.5 88.5322 1204.8 88.0182 1205.25 87.6664L1211.06 83.2375C1211.28 83.0689 1211.54 82.9466 1211.82 82.8776C1212.09 82.8087 1212.37 82.7945 1212.65 82.8358ZM1210.95 95.612C1211 95.62 1211.05 95.6168 1211.1 95.6027C1211.15 95.5886 1211.2 95.5638 1211.24 95.5302L1217.04 91.1C1217.08 91.069 1217.12 91.0287 1217.15 90.9817C1217.17 90.9348 1217.19 90.8825 1217.19 90.8285C1217.2 90.7765 1217.2 90.7235 1217.19 90.6729C1217.17 90.6223 1217.15 90.5753 1217.11 90.535L1212.7 84.7291C1212.64 84.6457 1212.54 84.5912 1212.44 84.5771C1212.33 84.5629 1212.22 84.5903 1212.14 84.6535L1206.34 89.0837C1206.3 89.1156 1206.26 89.1555 1206.24 89.2013C1206.21 89.2471 1206.19 89.2978 1206.18 89.3503C1206.18 89.4029 1206.18 89.4564 1206.19 89.5076C1206.21 89.5588 1206.23 89.6067 1206.26 89.6486L1210.67 95.4546C1210.7 95.4991 1210.74 95.5363 1210.79 95.5635C1210.84 95.5907 1210.89 95.6072 1210.95 95.612Z" fill="#C8D6F9"/>
<path d="M1433.28 43.1107C1433.52 43.1428 1433.76 43.223 1433.97 43.3469C1434.19 43.4707 1434.38 43.6357 1434.53 43.8322L1438.37 48.8667C1438.67 49.264 1438.8 49.7638 1438.74 50.2576C1438.67 50.7513 1438.41 51.1989 1438.02 51.5032L1432.98 55.3496C1432.58 55.6402 1432.09 55.7656 1431.6 55.7C1431.1 55.6343 1430.66 55.3826 1430.35 54.9969L1426.51 49.9637C1426.36 49.768 1426.25 49.5442 1426.18 49.3052C1426.12 49.0663 1426.1 48.817 1426.14 48.5718C1426.17 48.3266 1426.25 48.0903 1426.38 47.8766C1426.5 47.663 1426.67 47.4762 1426.86 47.3272L1431.89 43.4795C1432.29 43.1789 1432.79 43.0465 1433.28 43.1107ZM1431.8 54.2019C1431.84 54.2092 1431.89 54.2072 1431.93 54.1959C1431.98 54.1845 1432.02 54.1641 1432.06 54.1359L1437.09 50.2896C1437.13 50.2612 1437.16 50.2258 1437.18 50.1855C1437.2 50.1453 1437.22 50.1009 1437.22 50.055C1437.23 50.0093 1437.23 49.9626 1437.22 49.9177C1437.21 49.8728 1437.19 49.8307 1437.16 49.794L1433.31 44.7595C1433.29 44.715 1433.26 44.6765 1433.22 44.6475C1433.18 44.6185 1433.13 44.5999 1433.08 44.5933C1433.03 44.5868 1432.98 44.5925 1432.94 44.6099C1432.89 44.6273 1432.85 44.6559 1432.82 44.6932L1427.79 48.5409C1427.75 48.5668 1427.72 48.6012 1427.69 48.6415C1427.67 48.6819 1427.65 48.7271 1427.65 48.7741C1427.64 48.8207 1427.65 48.8682 1427.66 48.9135C1427.67 48.9587 1427.69 49.0007 1427.72 49.0365L1431.56 54.0696C1431.59 54.1061 1431.63 54.1365 1431.67 54.1592C1431.71 54.1819 1431.75 54.1964 1431.8 54.2019Z" fill="#C8D6F9"/>
<path d="M1145.56 61.2071C1145.63 60.6837 1145.54 60.1512 1145.31 59.6771C1145.08 59.203 1144.71 58.8085 1144.25 58.5435C1143.8 58.2785 1143.27 58.1549 1142.74 58.1884C1142.22 58.2218 1141.71 58.4108 1141.29 58.7314C1140.87 59.052 1140.56 59.4898 1140.39 59.9895C1140.22 60.4892 1140.2 61.0283 1140.33 61.5386C1140.47 62.049 1140.75 62.5077 1141.15 62.8567C1141.54 63.2057 1142.04 63.4294 1142.56 63.4994C1142.91 63.5473 1143.26 63.5259 1143.6 63.4364C1143.94 63.3469 1144.26 63.1911 1144.54 62.978C1144.82 62.7649 1145.05 62.4987 1145.22 62.1948C1145.4 61.8908 1145.51 61.5552 1145.56 61.2071Z" fill="#C8D6F9"/>
<path d="M1328.31 96.9359C1326.75 96.728 1325.32 97.8196 1325.11 99.3743C1324.91 100.929 1326 102.358 1327.55 102.566C1329.11 102.774 1330.54 101.682 1330.74 100.127C1330.95 98.5728 1329.86 97.1439 1328.31 96.9359Z" fill="#C8D6F9"/>
<path d="M1272.51 80.1689C1272.59 79.5259 1272.48 78.8718 1272.2 78.2894C1271.91 77.707 1271.46 77.2224 1270.9 76.8968C1270.34 76.5713 1269.69 76.4195 1269.05 76.4605C1268.4 76.5016 1267.78 76.7337 1267.26 77.1276C1266.75 77.5214 1266.36 78.0593 1266.15 78.6731C1265.94 79.287 1265.92 79.9493 1266.08 80.5762C1266.25 81.2032 1266.6 81.7667 1267.09 82.1954C1267.57 82.6242 1268.18 82.899 1268.82 82.985C1269.68 83.1003 1270.55 82.8685 1271.25 82.3403C1271.94 81.8122 1272.39 81.0311 1272.51 80.1689Z" fill="#D2D7F6"/>
<path d="M173.775 167.658L167.828 166.862C166.865 166.733 165.979 167.41 165.851 168.373L165.055 174.32C164.926 175.284 165.603 176.169 166.566 176.298L172.513 177.094C173.476 177.223 174.362 176.546 174.491 175.583L175.287 169.636C175.415 168.672 174.739 167.787 173.775 167.658Z" fill="#D2D7F6"/>
<path d="M171.185 163.568L177.667 164.436C178.165 164.505 178.616 164.768 178.922 165.168C179.227 165.568 179.362 166.072 179.298 166.571L178.43 173.063C178.36 173.561 178.097 174.012 177.697 174.318C177.298 174.623 176.793 174.758 176.294 174.694L169.812 173.827C169.314 173.758 168.863 173.495 168.558 173.095C168.252 172.695 168.117 172.191 168.181 171.692L169.05 165.2C169.119 164.701 169.382 164.251 169.782 163.945C170.182 163.64 170.686 163.504 171.185 163.568ZM176.493 173.208C176.546 173.216 176.6 173.214 176.652 173.201C176.704 173.188 176.752 173.165 176.795 173.133C176.838 173.102 176.874 173.061 176.901 173.015C176.928 172.969 176.946 172.918 176.953 172.865L177.821 166.373C177.828 166.32 177.825 166.267 177.811 166.215C177.797 166.164 177.773 166.115 177.74 166.073C177.707 166.031 177.666 165.996 177.619 165.97C177.572 165.945 177.521 165.928 177.468 165.922L170.986 165.055C170.881 165.041 170.774 165.069 170.69 165.134C170.606 165.198 170.55 165.294 170.536 165.399L169.668 171.891C169.654 171.996 169.682 172.102 169.746 172.187C169.811 172.271 169.906 172.326 170.011 172.34L176.493 173.208Z" fill="#C8D6F9"/>
<path d="M269.654 234.836C270.222 234.913 270.737 235.21 271.087 235.663L275.52 241.442C275.867 241.899 276.019 242.474 275.943 243.042C275.867 243.61 275.569 244.126 275.114 244.475L269.314 248.915C268.858 249.262 268.282 249.414 267.714 249.338C267.146 249.262 266.631 248.964 266.281 248.509L261.843 242.699C261.671 242.473 261.545 242.216 261.473 241.941C261.4 241.667 261.383 241.381 261.421 241.099C261.5 240.532 261.797 240.018 262.248 239.666L268.057 235.238C268.284 235.069 268.542 234.947 268.816 234.878C269.09 234.809 269.375 234.794 269.654 234.836ZM267.945 247.612C267.997 247.62 268.05 247.617 268.101 247.603C268.151 247.589 268.198 247.564 268.238 247.53L274.037 243.1C274.082 243.069 274.119 243.029 274.146 242.982C274.173 242.935 274.19 242.882 274.195 242.828C274.203 242.777 274.199 242.724 274.185 242.673C274.171 242.622 274.146 242.575 274.113 242.535L269.704 236.729C269.638 236.646 269.542 236.591 269.437 236.577C269.331 236.563 269.224 236.59 269.139 236.653L263.34 241.084C263.298 241.116 263.262 241.156 263.235 241.201C263.208 241.247 263.191 241.298 263.184 241.35C263.177 241.403 263.18 241.456 263.194 241.508C263.208 241.559 263.232 241.607 263.265 241.649L267.674 247.455C267.704 247.499 267.745 247.536 267.792 247.563C267.839 247.591 267.891 247.607 267.945 247.612Z" fill="#C8D6F9"/>
<path d="M490.28 195.111C490.525 195.143 490.761 195.223 490.975 195.347C491.188 195.471 491.375 195.636 491.525 195.832L495.371 200.867C495.672 201.264 495.803 201.764 495.737 202.258C495.671 202.751 495.413 203.199 495.019 203.503L489.984 207.35C489.583 207.64 489.086 207.766 488.595 207.7C488.105 207.634 487.658 207.383 487.348 206.997L483.511 201.964C483.36 201.768 483.249 201.544 483.185 201.305C483.12 201.066 483.104 200.817 483.137 200.572C483.17 200.327 483.251 200.09 483.376 199.877C483.501 199.663 483.666 199.476 483.864 199.327L488.889 195.479C489.286 195.179 489.786 195.046 490.28 195.111ZM488.796 206.202C488.842 206.209 488.888 206.207 488.933 206.196C488.978 206.185 489.02 206.164 489.057 206.136L494.091 202.29C494.128 202.261 494.158 202.226 494.181 202.186C494.204 202.145 494.218 202.101 494.224 202.055C494.231 202.009 494.229 201.963 494.218 201.918C494.206 201.873 494.186 201.831 494.158 201.794L490.311 196.759C490.29 196.715 490.257 196.676 490.217 196.648C490.177 196.619 490.13 196.6 490.081 196.593C490.032 196.587 489.982 196.592 489.936 196.61C489.89 196.627 489.848 196.656 489.816 196.693L484.791 200.541C484.752 200.567 484.719 200.601 484.694 200.642C484.669 200.682 484.654 200.727 484.649 200.774C484.642 200.821 484.645 200.868 484.659 200.913C484.672 200.959 484.694 201.001 484.725 201.036L488.561 206.07C488.59 206.106 488.625 206.137 488.665 206.159C488.706 206.182 488.75 206.196 488.796 206.202Z" fill="#C8D6F9"/>
<path d="M202.559 213.207C202.629 212.684 202.542 212.151 202.31 211.677C202.077 211.203 201.709 210.809 201.253 210.544C200.796 210.279 200.271 210.155 199.744 210.188C199.217 210.222 198.711 210.411 198.292 210.731C197.872 211.052 197.557 211.49 197.386 211.989C197.215 212.489 197.197 213.028 197.332 213.539C197.468 214.049 197.752 214.508 198.148 214.857C198.544 215.206 199.035 215.429 199.559 215.499C199.906 215.547 200.26 215.526 200.6 215.436C200.939 215.347 201.257 215.191 201.536 214.978C201.815 214.765 202.049 214.499 202.225 214.195C202.4 213.891 202.514 213.555 202.559 213.207Z" fill="#C8D6F9"/>
<path d="M329.505 232.169C329.591 231.526 329.485 230.872 329.199 230.289C328.913 229.707 328.461 229.222 327.9 228.897C327.339 228.571 326.694 228.419 326.047 228.461C325.399 228.502 324.778 228.734 324.263 229.128C323.747 229.521 323.36 230.059 323.151 230.673C322.941 231.287 322.918 231.949 323.084 232.576C323.251 233.203 323.6 233.767 324.086 234.195C324.573 234.624 325.176 234.899 325.819 234.985C326.682 235.1 327.554 234.868 328.245 234.34C328.937 233.812 329.39 233.031 329.505 232.169Z" fill="#D2D7F6"/>
<path d="M696.775 187.658L690.828 186.862C689.865 186.733 688.979 187.41 688.851 188.373L688.055 194.32C687.926 195.284 688.603 196.169 689.566 196.298L695.513 197.094C696.476 197.223 697.362 196.546 697.491 195.583L698.287 189.636C698.415 188.672 697.739 187.787 696.775 187.658Z" fill="#D2D7F6"/>
<path d="M694.185 183.568L700.667 184.436C701.165 184.505 701.616 184.768 701.922 185.168C702.227 185.568 702.362 186.072 702.298 186.571L701.43 193.063C701.36 193.561 701.097 194.012 700.697 194.318C700.298 194.623 699.793 194.758 699.294 194.694L692.812 193.827C692.314 193.758 691.863 193.495 691.558 193.095C691.252 192.695 691.117 192.191 691.181 191.692L692.05 185.2C692.119 184.701 692.382 184.251 692.782 183.945C693.182 183.64 693.686 183.504 694.185 183.568ZM699.493 193.208C699.546 193.216 699.6 193.214 699.652 193.201C699.704 193.188 699.752 193.165 699.795 193.133C699.838 193.102 699.874 193.061 699.901 193.015C699.928 192.969 699.946 192.918 699.953 192.865L700.821 186.373C700.828 186.32 700.825 186.267 700.811 186.215C700.797 186.164 700.773 186.115 700.74 186.073C700.707 186.031 700.666 185.996 700.619 185.97C700.572 185.945 700.521 185.928 700.468 185.922L693.986 185.055C693.881 185.041 693.774 185.069 693.69 185.134C693.606 185.198 693.55 185.294 693.536 185.399L692.668 191.891C692.654 191.996 692.682 192.102 692.746 192.187C692.811 192.271 692.906 192.326 693.011 192.34L699.493 193.208Z" fill="#C8D6F9"/>
<path d="M1013.28 215.111C1013.52 215.143 1013.76 215.223 1013.97 215.347C1014.19 215.471 1014.38 215.636 1014.53 215.832L1018.37 220.867C1018.67 221.264 1018.8 221.764 1018.74 222.258C1018.67 222.751 1018.41 223.199 1018.02 223.503L1012.98 227.35C1012.58 227.64 1012.09 227.766 1011.6 227.7C1011.1 227.634 1010.66 227.383 1010.35 226.997L1006.51 221.964C1006.36 221.768 1006.25 221.544 1006.18 221.305C1006.12 221.066 1006.1 220.817 1006.14 220.572C1006.17 220.327 1006.25 220.09 1006.38 219.877C1006.5 219.663 1006.67 219.476 1006.86 219.327L1011.89 215.479C1012.29 215.179 1012.79 215.046 1013.28 215.111ZM1011.8 226.202C1011.84 226.209 1011.89 226.207 1011.93 226.196C1011.98 226.185 1012.02 226.164 1012.06 226.136L1017.09 222.29C1017.13 222.261 1017.16 222.226 1017.18 222.186C1017.2 222.145 1017.22 222.101 1017.22 222.055C1017.23 222.009 1017.23 221.963 1017.22 221.918C1017.21 221.873 1017.19 221.831 1017.16 221.794L1013.31 216.759C1013.29 216.715 1013.26 216.676 1013.22 216.648C1013.18 216.619 1013.13 216.6 1013.08 216.593C1013.03 216.587 1012.98 216.592 1012.94 216.61C1012.89 216.627 1012.85 216.656 1012.82 216.693L1007.79 220.541C1007.75 220.567 1007.72 220.601 1007.69 220.642C1007.67 220.682 1007.65 220.727 1007.65 220.774C1007.64 220.821 1007.65 220.868 1007.66 220.913C1007.67 220.959 1007.69 221.001 1007.72 221.036L1011.56 226.07C1011.59 226.106 1011.63 226.137 1011.67 226.159C1011.71 226.182 1011.75 226.196 1011.8 226.202Z" fill="#C8D6F9"/>
<path d="M725.559 233.207C725.629 232.684 725.542 232.151 725.31 231.677C725.077 231.203 724.709 230.809 724.253 230.544C723.796 230.279 723.271 230.155 722.744 230.188C722.217 230.222 721.711 230.411 721.292 230.731C720.872 231.052 720.557 231.49 720.386 231.989C720.215 232.489 720.197 233.028 720.332 233.539C720.468 234.049 720.752 234.508 721.148 234.857C721.544 235.206 722.035 235.429 722.559 235.499C722.906 235.547 723.26 235.526 723.6 235.436C723.939 235.347 724.257 235.191 724.536 234.978C724.815 234.765 725.049 234.499 725.225 234.195C725.4 233.891 725.514 233.555 725.559 233.207Z" fill="#C8D6F9"/>
<path d="M454.925 150.325L448.887 159.9C448.422 160.639 447.682 161.161 446.831 161.354C445.98 161.547 445.088 161.394 444.35 160.928L434.774 154.89C434.039 154.423 433.519 153.684 433.328 152.835C433.137 151.985 433.29 151.094 433.755 150.358L439.793 140.783C440.258 140.046 440.995 139.524 441.844 139.33C442.693 139.136 443.584 139.287 444.322 139.749L453.898 145.788C454.636 146.253 455.159 146.993 455.351 147.844C455.544 148.695 455.391 149.587 454.925 150.325ZM435.937 151.734C435.841 151.892 435.81 152.081 435.851 152.261C435.891 152.441 436.001 152.599 436.156 152.699L445.731 158.738C445.888 158.837 446.078 158.869 446.259 158.828C446.44 158.787 446.597 158.676 446.697 158.519L452.735 148.944C452.834 148.787 452.866 148.597 452.825 148.416C452.784 148.235 452.673 148.077 452.516 147.978L442.941 141.94C442.784 141.841 442.594 141.808 442.413 141.85C442.232 141.891 442.074 142.002 441.975 142.159L435.937 151.734Z" fill="#C8D6F9"/>
<path d="M480.35 206.119C481.066 204.723 480.514 203.011 479.119 202.296C477.723 201.58 476.011 202.132 475.296 203.527C474.58 204.923 475.131 206.635 476.527 207.35C477.923 208.066 479.635 207.515 480.35 206.119Z" fill="#C8D6F9"/>
</svg>
