<svg width="1095" height="197" viewBox="0 0 1095 197" fill="none" xmlns="http://www.w3.org/2000/svg">
<g clip-path="url(#clip0)">
<rect width="1095" height="197" rx="12" fill="white"/>
<g clip-path="url(#clip1)">
<g opacity="0.504511">
<path opacity="0.504511" fill-rule="evenodd" clip-rule="evenodd" d="M290.212 272.919C294.198 302.74 197.523 322.192 114.312 308.617C31.1014 295.042 -7.07174 242.032 32.635 213.786C72.3417 185.541 286.225 243.098 290.212 272.919Z" fill="#F2F2F2"/>
</g>
<path fill-rule="evenodd" clip-rule="evenodd" d="M172.674 135.113C170.542 134.056 167.699 135.282 168.885 138.078C170.155 141.071 174.851 141.108 177.504 141.049C177.238 141.035 176.383 138.29 176.091 137.875C175.228 136.651 173.985 135.765 172.674 135.113ZM197.243 188.784C197.78 189.245 197.286 188.828 197.243 188.784V188.784ZM170.62 148.653C169.372 149.607 169.312 151.291 170.332 152.431C171.545 153.789 173.762 153.739 175.416 153.607C176.165 153.547 180.161 153.227 179.213 152.573C179.286 152.601 179.438 152.668 179.601 152.758C179.689 153.079 179.781 153.398 179.877 153.715C179.853 153.729 179.833 153.744 179.808 153.757C179.835 153.746 179.854 153.733 179.878 153.721C180.839 156.896 182.207 159.919 183.998 162.748C183.328 162.484 182.634 162.284 181.93 162.195C179.845 161.931 175.46 163.551 177.792 166.327C180.028 168.989 183.509 166.134 186.046 165.74C188.508 169.175 191.221 172.468 194.065 175.65C193.891 175.705 193.738 175.818 193.651 175.996C192.51 175.417 191.321 174.589 190.265 174.364C188.741 174.041 185.617 173.845 184.465 175.209C183.049 176.887 184.567 178.249 186.24 178.571C188.667 179.037 191.843 177.851 194.178 177.05C194.445 177.097 194.737 177.019 194.911 176.806C194.963 176.789 195.014 176.772 195.065 176.756C197.945 179.923 200.935 182.985 203.907 185.98C203.875 185.979 203.844 185.977 203.811 185.975C203.035 185.467 202.204 185.049 201.302 184.831C199.217 184.322 196.764 184.32 195.072 185.829C193.386 187.331 192.789 189.959 194.533 191.646C198.023 195.023 203.166 187.323 204.926 187.002C207.947 190.014 211.14 192.828 214.384 195.585C214.016 195.473 213.638 195.39 213.247 195.353C210.067 195.049 202.601 198.949 206.504 202.786C209.906 206.129 213.843 199.694 216.585 197.443C219.642 200.013 222.715 202.565 225.702 205.217C224.073 204.784 222.498 204.72 220.752 205.248C218.945 205.795 216.029 207.16 217.171 209.6C218.333 212.081 221.835 210.952 223.659 210.164C224.653 209.735 226.648 208.285 228.399 207.674C233.165 212.174 237.294 217.131 240.42 222.971C242.371 226.617 243.852 230.512 244.894 234.516C245.559 237.071 246.87 241.363 246.608 244.689C247.859 238.031 245.597 230.036 243.16 224.085C240.92 218.613 237.568 213.809 233.641 209.485C234.626 206.521 242.921 202.246 237.962 199.492C235.329 198.036 232.632 200.452 232.056 203.011C231.661 204.769 232.263 206.979 232.903 208.686C231.667 207.368 230.383 206.092 229.06 204.858C227.231 203.154 225.358 201.499 223.468 199.865C226.583 196.938 229.531 188.57 225.354 187.201C219.186 185.186 222.156 196.6 222.586 198.739C222.709 198.747 222.804 198.71 222.874 198.63C222.839 198.826 222.799 199.036 222.75 199.247C219.132 196.135 215.46 193.085 211.909 189.899C212.229 189.663 212.737 188.759 213.137 188.278C214.039 187.194 214.902 186.061 215.533 184.793C216.529 182.788 217.491 179.591 214.849 178.412C211.976 177.127 210.611 180.743 210.591 182.901C210.578 184.393 210.984 185.81 211.196 187.272C211.262 187.728 211.007 189.784 211.628 188.9C211.599 189.226 211.595 189.462 211.609 189.63C210.972 189.055 210.339 188.474 209.71 187.888C209.74 187.814 209.761 187.734 209.766 187.64C209.8 186.997 209.153 186.75 208.699 186.938C207.869 186.15 207.048 185.351 206.241 184.537C204.531 182.813 202.797 181.039 201.074 179.227C201.448 178.906 201.299 178.461 201.649 178.12C201.998 177.78 202.685 177.592 203.095 177.276C204.128 176.481 204.983 175.323 205.602 174.183C206.624 172.299 207.945 168.348 204.96 167.45C201.883 166.523 200.321 170.327 200.123 172.705C200.085 173.165 200.429 177.317 200.694 178.824C197.506 175.457 194.371 171.963 191.531 168.409C192.392 168.401 194.834 166.637 195.327 166.155C196.532 164.981 198.446 162.386 196.335 161.013C194.457 159.795 192.143 161.559 191.34 163.273C191.208 163.556 190.743 166.183 190.707 167.362C189.531 165.855 188.41 164.339 187.367 162.818C186.671 161.807 186.021 160.769 185.412 159.709C185.559 159.626 185.697 159.481 185.827 159.301C188.958 158.77 192.95 153.884 189.272 152.184C187.521 151.376 185.622 153.044 184.764 154.41C184.588 154.69 184.304 156.095 184.072 157.203C182.322 153.691 180.985 149.974 179.967 146.162C180.239 146.095 180.47 145.886 180.501 145.528C182.021 144.661 183.221 143.94 184.282 142.273C184.942 141.238 186.129 138.873 184.192 138.298C181.671 137.551 180.087 141.401 179.881 143.298C179.857 143.518 179.858 144.158 179.866 144.745C179.779 144.733 179.69 144.735 179.604 144.75C179.025 142.39 178.562 139.999 178.195 137.604C179.571 137.162 179.809 129.935 178.893 128.906C176.845 126.602 175.4 129.93 175.51 131.689C175.639 133.763 176.578 135.65 177.698 137.325C177.818 137.502 177.783 137.493 177.814 137.246C177.832 137.368 177.873 137.458 177.933 137.524C177.875 138.616 177.763 139.733 177.817 140.699C177.972 143.466 178.294 146.249 178.762 148.98C178.876 149.644 179.006 150.303 179.152 150.956C178.046 150.014 176.555 149.177 175.972 148.915C174.457 148.236 172.124 147.503 170.62 148.653ZM246.785 244.698C246.715 245.663 246.541 246.546 246.216 247.275C246.46 246.445 246.647 245.583 246.785 244.698Z" fill="#E1E9D9"/>
<path opacity="0.2" fill-rule="evenodd" clip-rule="evenodd" d="M93.7316 77.1135C95.2547 76.3582 97.2852 77.2342 96.4381 79.231C95.5308 81.3693 92.1763 81.3957 90.2817 81.3533C90.4714 81.3434 91.082 79.3825 91.291 79.0862C91.9075 78.2122 92.7952 77.5787 93.7316 77.1135ZM76.1942 116.074C75.6562 116.534 76.1504 116.117 76.1942 116.074V116.074ZM95.5018 87.0412C96.4126 87.7305 96.4554 88.9484 95.7107 89.7732C94.824 90.755 93.2058 90.7201 91.9979 90.6251C91.4515 90.5821 88.534 90.3521 89.2258 89.8789C89.1726 89.8988 89.0615 89.9472 88.9425 90.0129C88.8784 90.2445 88.8111 90.4753 88.741 90.705C88.7581 90.7149 88.7728 90.7256 88.7911 90.7355C88.7712 90.7269 88.7573 90.7175 88.7398 90.7088C88.037 93.0052 87.0372 95.1918 85.7284 97.2377C86.2178 97.0467 86.7246 96.902 87.2386 96.8374C88.7608 96.646 91.9622 97.8159 90.2586 99.824C88.6251 101.749 86.0846 99.6859 84.232 99.4022C82.4336 101.887 80.4509 104.269 78.3732 106.571C78.5004 106.611 78.6121 106.693 78.676 106.821C79.5093 106.402 80.3776 105.803 81.1487 105.64C82.2613 105.406 84.5427 105.263 85.383 106.249C86.4166 107.461 85.3075 108.447 84.0855 108.68C82.3136 109.018 79.9948 108.162 78.2903 107.584C78.0952 107.618 77.8824 107.562 77.7553 107.407C77.7176 107.395 77.68 107.383 77.6433 107.371C75.5393 109.662 73.3549 111.878 71.1838 114.045C71.2069 114.043 71.2299 114.042 71.254 114.041C71.8203 113.673 72.4276 113.371 73.0858 113.212C74.6084 112.844 76.3997 112.841 77.6346 113.932C78.8648 115.018 79.2997 116.917 78.0259 118.138C75.4762 120.581 71.7243 115.015 70.4389 114.784C68.2326 116.963 65.8998 118.999 63.5304 120.994C63.7994 120.912 64.0752 120.853 64.3603 120.826C66.6829 120.604 72.1327 123.422 69.2811 126.198C66.7961 128.617 63.9237 123.964 61.9228 122.338C59.6901 124.197 57.4451 126.044 55.2632 127.963C56.4529 127.649 57.6025 127.602 58.8774 127.983C60.1967 128.378 62.3253 129.364 61.4903 131.129C60.641 132.924 58.0847 132.108 56.7534 131.539C56.0272 131.229 54.5716 130.181 53.2932 129.74C49.8113 132.996 46.795 136.582 44.5107 140.806C43.0846 143.443 42.002 146.26 41.2395 149.155C40.7528 151.003 39.7941 154.107 39.9844 156.512C39.0736 151.699 40.7279 145.916 42.5091 141.612C44.1468 137.655 46.5965 134.18 49.4653 131.052C48.7469 128.909 42.6922 125.821 46.3137 123.827C48.2369 122.773 50.2051 124.52 50.6244 126.37C50.9125 127.641 50.4718 129.239 50.0045 130.473C50.9069 129.52 51.8451 128.597 52.8117 127.705C54.1477 126.471 55.5156 125.274 56.8965 124.091C54.623 121.976 52.4733 115.927 55.5237 114.936C60.028 113.476 57.8553 121.731 57.5404 123.278C57.4511 123.283 57.3816 123.256 57.3305 123.199C57.3558 123.341 57.3851 123.492 57.4206 123.645C60.0637 121.393 62.746 119.186 65.3399 116.881C65.1064 116.71 64.7354 116.057 64.4437 115.709C63.7854 114.926 63.1556 114.107 62.6955 113.19C61.9687 111.741 61.2682 109.429 63.1972 108.576C65.2952 107.646 66.2906 110.26 66.3044 111.82C66.3138 112.899 66.0166 113.924 65.8616 114.982C65.8131 115.311 65.9983 116.798 65.545 116.159C65.5663 116.394 65.5693 116.565 65.5586 116.686C66.0243 116.27 66.4864 115.85 66.9456 115.426C66.9244 115.373 66.9087 115.315 66.9051 115.247C66.8808 114.782 67.3533 114.603 67.6846 114.739C68.2905 114.169 68.8906 113.591 69.4799 113.002C70.7289 111.754 71.996 110.471 73.2544 109.16C72.9817 108.928 73.0904 108.607 72.8353 108.36C72.5806 108.114 72.0789 107.979 71.7794 107.75C71.0262 107.176 70.4017 106.338 69.9502 105.514C69.2048 104.153 68.2421 101.296 70.422 100.646C72.6689 99.9744 73.8078 102.724 73.9514 104.444C73.9794 104.777 73.726 107.779 73.5326 108.869C75.8611 106.433 78.1514 103.906 80.2265 101.334C79.5977 101.329 77.8157 100.054 77.4555 99.706C76.5766 98.8572 75.1797 96.9815 76.7218 95.9877C78.093 95.1063 79.7819 96.3811 80.3675 97.6205C80.4637 97.8246 80.8025 99.7245 80.8285 100.577C81.6874 99.4867 82.5067 98.39 83.269 97.2898C83.7774 96.5584 84.2525 95.8076 84.6971 95.041C84.5902 94.981 84.4896 94.8764 84.3947 94.7462C82.1088 94.3631 79.1959 90.8317 81.8818 89.6012C83.1606 89.016 84.5465 90.2218 85.1723 91.2093C85.3005 91.4113 85.5078 92.4272 85.6765 93.2285C86.9557 90.6887 87.9335 88 88.6781 85.2435C88.4792 85.1946 88.3107 85.0441 88.2886 84.7852C87.179 84.159 86.3028 83.6376 85.5286 82.4328C85.0476 81.6845 84.1816 79.9747 85.5962 79.5585C87.437 79.017 88.5918 81.8008 88.7417 83.1722C88.7591 83.3314 88.7583 83.7944 88.752 84.2187C88.8159 84.2101 88.8805 84.211 88.9438 84.2221C89.3674 82.5152 89.7057 80.7864 89.975 79.0547C88.9705 78.735 88.7995 73.5095 89.4687 72.7651C90.9647 71.0983 92.0183 73.5044 91.9378 74.7764C91.8428 76.2763 91.1559 77.6409 90.3382 78.8521C90.2505 78.9804 90.2755 78.9742 90.2529 78.7955C90.2403 78.8838 90.2104 78.949 90.1662 78.9962C90.2079 79.7857 90.2897 80.5939 90.2499 81.2925C90.1357 83.2931 89.8994 85.3055 89.5567 87.2805C89.4734 87.7608 89.378 88.2372 89.2711 88.7096C90.0789 88.0278 91.1679 87.4219 91.594 87.2324C92.6998 86.741 94.404 86.2102 95.5018 87.0412ZM39.8035 156.322C39.8569 156.965 40.0154 157.552 40.3275 158.033C40.0984 157.483 39.9266 156.911 39.8035 156.322Z" fill="#C1DEE2"/>
<g opacity="0.7">
<path opacity="0.7" fill-rule="evenodd" clip-rule="evenodd" d="M214.153 200.462C220.075 200.154 227.399 203.611 228.031 210.049C228.49 214.727 228.348 219.391 229.058 224.062C229.626 227.795 230.827 231.379 232.466 234.779C234.041 238.049 237.309 240.832 238.159 244.325C238.7 246.551 238.397 249.682 237.65 251.859C236.742 254.506 237.224 254.297 239.035 256.518C242.582 260.871 245.776 265.334 248.035 270.533C251.288 278.02 253.421 286.773 252.214 294.969C252.06 296.01 251.878 299.745 250.445 300.006C248.844 300.298 249.593 298.162 249.678 297.472C250.223 293.069 250.707 289.22 250.05 284.749C247.515 267.495 235.139 256.128 227.08 241.484C226.637 240.729 225.702 238.931 225.052 237.745C224.025 235.872 222.993 232.308 221.603 230.919C218.986 228.303 221.392 233.563 221.902 234.567C222.547 235.837 223.256 237.187 223.917 238.3C226.941 243.458 230.315 249.09 233.438 254.408C219.933 257.485 210.422 241.248 206.798 230.572C203.812 221.777 200.239 201.214 214.153 200.462Z" fill="#69A1AC"/>
<path opacity="0.7" fill-rule="evenodd" clip-rule="evenodd" d="M293.528 184.131C283.628 184.916 277.272 191.45 274.314 200.588C272.719 205.512 272.537 210.571 271.65 215.632C270.317 223.246 267.449 229.016 261.844 234.44C260.108 236.12 258.829 237.845 257.919 239.69C256.114 241.533 254.542 243.618 253.387 246.167C251.912 249.423 251.495 253.328 253.198 256.574C253.656 257.447 254.798 259.198 255.982 259.994C251.55 269.434 249.113 279.773 249.388 290.098C249.554 296.331 249.858 302.567 250.213 308.792C250.308 310.464 250.853 313.224 251.67 310.421C252.418 307.857 251.48 303.831 251.393 301.153C250.971 288.103 250.61 276.237 255.981 264.045C256.544 262.767 257.142 261.5 257.764 260.242C257.8 260.221 257.834 260.196 257.868 260.171C257.892 260.189 257.914 260.209 257.937 260.227C257.977 260.156 258.031 260.071 258.095 259.977C258.273 259.793 258.429 259.56 258.577 259.301C259.054 258.64 259.593 257.865 259.596 257.44C259.596 257.437 259.594 257.432 259.594 257.428C262.919 252 266.728 246.87 270.618 241.841C270.589 241.878 274.838 236.092 274.181 239.292C273.864 240.834 270.739 243.77 269.477 245.403C266.684 249.037 263.405 253.641 260.681 258.093C260.314 258.303 259.796 259.338 259.421 260.109C259.214 260.499 259.021 260.893 258.832 261.236C268.486 264.426 275.997 258 281.118 250.526C281.124 250.517 281.13 250.508 281.135 250.499C282.694 248.434 284.29 246.383 286.285 244.751C289.612 242.027 293.175 241.546 297.099 240.205C307.797 236.55 312.346 222.683 313.791 212.394C315.421 200.786 307.448 182.986 293.528 184.131Z" fill="#E1E9D9"/>
<path opacity="0.7" fill-rule="evenodd" clip-rule="evenodd" d="M273.972 151.625C263.811 162.201 258.902 176.87 255.015 190.66C250.674 206.063 247.806 221.703 247.696 237.718C247.624 248.239 247.338 258.826 247.952 269.335C248.17 273.067 248.542 276.806 249.133 280.498C249.182 280.802 250.506 289.046 251.772 287.125C252.492 286.032 250.415 278.573 250.258 277.33C249.376 270.332 249.171 263.283 249.214 256.235C249.284 244.63 248.942 233.084 250.118 221.522C250.294 219.795 250.432 217.982 250.842 216.293C251.278 214.498 250.723 215.282 252.141 214.571C253.519 213.88 255.222 213.979 256.651 213.112C262.322 209.673 265.223 200.84 267.481 195.044C270.063 188.416 271.632 181.348 272.886 174.373C273.806 169.249 274.464 164.155 274.837 158.965C274.954 157.329 274.961 155.618 275.283 154.01C275.369 153.576 275.804 152.808 275.788 152.424C275.755 151.611 275.264 151.132 275.224 150.449C274.798 150.832 274.381 151.224 273.972 151.625Z" fill="#E1E9D9"/>
</g>
<g opacity="0.5">
<path opacity="0.5" fill-rule="evenodd" clip-rule="evenodd" d="M79.8537 142.62C81.6766 140.021 85.0594 133.419 87.6251 132.49C89.2777 131.892 88.7958 138.08 88.8162 139.26C88.8957 143.826 88.4513 148.362 87.9025 152.889C86.9137 161.054 83.6805 168.325 79.246 175.274C76.9641 178.85 74.2876 182.469 70.5805 184.7C68.8741 185.727 66.8209 185.899 65.1358 186.785C63.1732 187.815 64.242 186.982 63.3575 189.027C62.1292 191.867 61.7364 195.53 61.168 198.561C58.5586 212.47 52.2413 285.999 53.3365 300.147C53.4338 301.401 51.6853 301.701 51.598 300.17C51.1341 292.053 55.1486 235.839 57.174 217.455C59.1994 199.072 61.249 182.831 63.3041 176.471C65.7973 168.755 70.3002 159.476 74.0485 152.28C75.7895 148.937 77.6873 145.709 79.8537 142.62Z" fill="#69A1AC"/>
<path opacity="0.5" fill-rule="evenodd" clip-rule="evenodd" d="M13.8486 100.224C23.8473 117.566 32.0638 136.615 37.3693 155.909C40.5837 167.6 42.8317 179.596 45.0653 191.505C48.5235 209.945 51.7946 228.383 52.7251 247.151C53.6612 266.027 55.5123 287.798 49.3319 305.979C52.419 287.521 49.4799 267.873 48.9595 249.3C48.7108 240.434 47.9901 231.654 47.0448 222.839C46.1274 214.289 44.6286 205.779 43.2329 197.295C42.5531 193.164 41.8391 189.038 41.1121 184.915C40.8951 183.685 40.8034 180.035 40.0232 179.194C39.2379 178.348 35.2311 178.004 33.9732 177.383C31.4401 176.133 29.0574 174.357 26.9487 172.481C22.9062 168.884 19.3895 164.185 16.6138 159.552C10.1915 148.833 7.62391 135.751 7.75369 123.337C7.77863 120.927 11.6546 94.9719 10.0979 94.6145C10.1916 94.5047 10.2803 94.3913 10.3639 94.2734C11.5424 96.2468 12.6988 98.2336 13.8486 100.224Z" fill="#89C5CC"/>
<path opacity="0.5" fill-rule="evenodd" clip-rule="evenodd" d="M121.767 162.768C121.922 162.546 122.926 160.998 122.42 161.097C123.45 160.896 121.004 162.804 123.569 161.633C122.351 162.783 123.054 164.278 123.07 165.826C123.097 168.34 122.676 170.833 122.203 173.293C121.455 177.181 120.341 180.961 118.723 184.578C115.198 192.459 109.212 200.046 102.105 204.973C98.5965 207.405 95.1581 208.234 91.1567 209.354C88.6293 210.061 88.4289 211.369 87.0873 213.821C84.2943 218.93 81.551 224.02 79.0878 229.301C76.1466 235.608 73.2914 241.921 70.5981 248.338C61.5249 269.953 54.1401 292.347 50.2619 315.523C50.1669 301.866 53.326 287.8 57.311 274.782C60.2137 265.298 63.9926 256.155 68.0232 247.105C68.9999 244.912 70.4799 242.092 70.8947 239.671C71.1851 237.975 70.2972 236.344 69.8907 234.558C68.3058 227.6 68.4193 219.806 69.811 212.811C71.3455 205.098 75.7833 201.518 83.2903 200.426C86.0358 200.026 89.5253 200.173 92.0428 199.002C94.7855 197.727 95.9169 193.536 97.4765 190.846C101.666 183.621 106.643 176.691 112.358 170.602C113.941 168.916 115.642 167.361 117.448 165.919C118.586 165.01 120.991 163.889 121.767 162.768Z" fill="#89C5CC"/>
</g>
<g opacity="0.5">
<path fill-rule="evenodd" clip-rule="evenodd" d="M300.828 113.718C299.534 109.401 296.495 106.022 293.341 102.926C287.201 96.8994 283.899 93.1729 281.71 84.3565C280.423 79.1713 279.113 73.6766 275.031 69.9147C272.059 67.1752 266.944 64.8736 262.969 66.8353C256.854 70.4854 255.212 77.9762 255.828 84.6838C256.593 92.9973 260.476 98.1235 267.935 101.186C272.139 102.91 274.933 105.186 277.214 109.151C279.039 112.321 280.104 116.292 282.397 119.166C285.826 123.463 290.117 125.373 295.406 124.659C290.452 115.544 284.664 106.343 277.683 98.6681C277.029 97.8965 273.175 94.9433 273.952 93.6284C274.809 92.1805 278.766 97.6193 278.738 97.5864C280.766 99.9154 282.644 102.39 284.487 104.889C284.482 104.891 284.477 104.893 284.472 104.895C286.37 107.459 288.253 110.061 290.1 112.695C290.847 113.81 291.574 114.938 292.27 116.095C293.291 117.793 294.912 122.611 296.583 123.654C296.941 123.878 297.272 124.002 297.581 124.054C298.721 125.921 299.831 127.803 300.886 129.708C303.642 134.682 306.007 139.934 307.093 145.55C307.41 147.189 307.186 153.321 308.304 154.504C310.35 156.668 309.751 152.5 309.628 151.242C308.612 140.825 304.873 131.95 299.443 123.191C301.111 121.013 301.352 115.468 300.828 113.718Z" fill="#89C5CC"/>
<path fill-rule="evenodd" clip-rule="evenodd" d="M230.77 118.753C232.927 116.212 238.11 115.781 241.281 115.951C245.204 116.162 249.233 117.117 252.966 118.272C259.114 120.174 265.088 123.645 270.503 127.005C271.155 127.41 279.195 132.245 278.483 133.094C277.778 133.934 269.886 128.191 268.127 127.201C264.374 125.088 260.932 122.589 256.794 121.194C252.511 119.749 247.98 119.177 243.475 119.216C242.897 119.221 241.011 118.818 240.971 119.673C240.931 120.51 244.051 120.074 244.602 120.079C246.874 120.099 249.161 120.313 251.401 120.707C255.599 121.445 259.545 122.932 263.14 125.212C262.137 127.544 259.732 128.62 257.21 128.036C255.029 127.531 252.904 126.287 250.769 125.927C249.299 125.679 247.827 125.827 246.401 126.241C242.64 127.334 240.471 129.573 236.336 128.016C233.094 126.795 227.673 122.408 230.77 118.753Z" fill="#89C5CC"/>
<path fill-rule="evenodd" clip-rule="evenodd" d="M233.209 94.7082H234.229C234.158 93.4134 234.065 92.1207 233.846 90.8404C233.026 86.0414 230.462 78.9929 224.838 78.214C224.631 78.1849 223.867 78.18 222.943 78.2337C222.505 77.9915 222.014 77.845 221.497 77.8113C216.709 77.4621 211.362 81.2838 209.052 85.2609C207.19 88.4675 207.504 92.6782 208.654 96.0849C209.424 98.3656 211.105 101.617 213.907 101.649C217.414 101.689 217.583 97.4007 217.651 94.894C217.741 91.5613 218.167 88.6581 220.821 86.3864C221.44 85.8572 222.116 85.3917 222.741 84.8698C223.719 84.053 224.801 83.2166 224.927 81.8653C225.101 80.001 224.037 79.6654 222.413 80.0118C222.136 80.0708 219.347 81.3088 219.76 80.3303C219.886 80.0313 220.347 79.7944 220.928 79.6169C222.432 79.4551 224.225 79.2674 224.741 79.3796C230.305 80.5873 232.472 88.2129 233.047 93.0578C233.112 93.6064 233.164 94.1569 233.209 94.7082H233.209Z" fill="#89C5CC"/>
</g>
</g>
</g>
<defs>
<clipPath id="clip0">
<rect width="1095" height="197" rx="12" fill="white"/>
</clipPath>
<clipPath id="clip1">
<rect width="321" height="295" fill="white" transform="translate(-7 60)"/>
</clipPath>
</defs>
</svg>
