<svg width="526" height="350" viewBox="0 0 526 350" fill="none" xmlns="http://www.w3.org/2000/svg">
<path d="M244.345 49.5674H182.948V151.2H244.345V49.5674Z" fill="#D7E1EA"/>
<path d="M242.301 49.5674H180.904V151.2H242.301V49.5674Z" fill="#F2F7FC"/>
<path d="M239.69 51.6323H183.522V149.142H239.69V51.6323Z" fill="white"/>
<path d="M228.756 64.3022H194.218V136.472H228.756V64.3022Z" fill="#F2F7FC"/>
<path d="M194.218 110.929C194.134 104.188 200.196 97.6291 206.874 96.6701C210.059 96.2221 213.44 96.8521 216.415 95.6341C221.721 93.4571 223.415 86.4011 228.756 84.3081L229.001 136.472H194.218V110.929Z" fill="#D7E1EA"/>
<path d="M401.971 39.4312V81.9982H340.833L338.628 39.7321L401.971 39.4312Z" fill="#D7E1EA"/>
<path d="M338.628 39.732V81.9141H399.766V39.732L338.628 39.732Z" fill="white"/>
<path d="M400.053 82.201H338.334V39.438H400.053V82.201ZM338.915 81.62H399.5V40.019H338.915V81.62Z" fill="#D7E1EA"/>
<path d="M393.144 44.9751H345.25V76.6711H393.144V44.9751Z" fill="white"/>
<path d="M393.144 44.9753H392.227H389.595L379.725 45.0173L345.25 45.0803L345.39 44.9473C345.39 54.6283 345.39 65.3593 345.39 76.6363L345.243 76.4823H393.137L393.018 76.6013C393.018 66.9553 393.067 59.0453 393.081 53.5363C393.081 50.7853 393.081 48.6363 393.081 47.1593C393.081 46.4593 393.081 45.8713 393.081 45.4863C393.081 45.1013 393.081 44.9053 393.081 44.9053C393.081 44.9053 393.081 45.0873 393.081 45.4583C393.081 45.8293 393.081 46.3963 393.081 47.1103C393.081 48.5803 393.081 50.7223 393.081 53.4593C393.081 58.9893 393.081 66.9203 393.144 76.6013V76.7203H393.025H345.131H344.977V76.5663C344.977 65.2893 344.977 54.5583 344.977 44.8773V44.7373H345.117L379.683 44.8073H389.525H392.122H392.822L393.144 44.9753Z" fill="#D7E1EA"/>
<path d="M338.6 39.6133C338.977 39.8035 339.329 40.0385 339.65 40.3133C340.273 40.7683 341.127 41.4053 342.044 42.1403C342.961 42.8753 343.773 43.5403 344.347 44.1003C344.677 44.3587 344.971 44.6601 345.222 44.9963C345.166 45.0593 343.696 43.8483 341.855 42.3783C340.711 41.5284 339.623 40.6047 338.6 39.6133Z" fill="#D7E1EA"/>
<path d="M399.766 39.7319C398.756 40.7162 397.68 41.6306 396.546 42.4689C395.472 43.3823 394.335 44.2197 393.144 44.9749C394.149 43.9827 395.225 43.0656 396.364 42.2309C397.438 41.3192 398.575 40.4841 399.766 39.7319Z" fill="#D7E1EA"/>
<path d="M399.717 81.9001L392.899 76.3701L399.717 81.9001Z" fill="white"/>
<path d="M392.899 76.3911C394.125 77.1915 395.295 78.0756 396.399 79.0371C397.569 79.9196 398.675 80.8833 399.71 81.9211C398.484 81.1207 397.314 80.2366 396.21 79.2751C395.044 78.388 393.938 77.4246 392.899 76.3911Z" fill="#D7E1EA"/>
<path d="M338.6 81.9004C339.592 80.9165 340.656 80.0086 341.785 79.1844C342.848 78.2828 343.973 77.4571 345.152 76.7134C344.158 77.6938 343.094 78.5993 341.967 79.4224C340.905 80.3275 339.779 81.1556 338.6 81.9004Z" fill="#D7E1EA"/>
<path d="M354.973 54.8524V65.4644H385.108V54.8524H354.973Z" fill="#D7E1EA"/>
<path d="M69.6526 158.711C69.6526 158.711 63.5556 158.27 64.1226 171.948C64.6896 185.626 66.0756 192.906 66.0756 192.906C66.0756 192.906 65.9006 195.937 63.5486 195.342C61.1966 194.747 56.7796 191.8 54.6026 194.005C52.4256 196.21 53.1396 199.801 56.1426 203.931C59.1456 208.061 65.3896 217.364 65.9426 218.204C66.4956 219.044 66.7196 220.584 65.0536 220.437C63.3876 220.29 52.1596 216.475 50.6686 221.9C49.1776 227.325 59.4326 237.482 60.5316 238.616C61.6306 239.75 61.6936 240.457 61.2316 241.143C60.7696 241.829 57.1296 240.191 53.8886 239.239C50.6476 238.287 46.7276 237.748 46.1326 240.961C45.5376 244.174 50.0526 253.561 66.9646 263.438L75.0986 267.505L82.7986 262.605C98.6396 251.09 102.189 241.29 101.279 238.154C100.369 235.018 96.5116 235.942 93.3826 237.216C90.2536 238.49 86.7816 240.478 86.2706 239.841C85.7596 239.204 85.7456 238.49 86.7256 237.258C87.7056 236.026 96.8966 224.91 94.8736 219.646C92.8506 214.382 82.0496 219.296 80.4046 219.646C78.7596 219.996 78.8296 218.393 79.2916 217.511C79.7536 216.629 85.0526 206.745 87.6216 202.335C90.1906 197.925 90.6456 194.348 88.1676 192.297C85.6896 190.246 81.6716 193.697 79.3966 194.523C77.1216 195.349 76.6386 192.353 76.6386 192.353C76.6386 192.353 77.2966 184.968 76.4846 171.304C75.6726 157.64 69.4846 158.746 69.4846 158.746" fill="#F2F7FC"/>
<path d="M70.1357 170.954C70.1416 171.05 70.1416 171.146 70.1357 171.241C70.1357 171.446 70.1567 171.726 70.1987 172.081C70.2477 172.837 70.3247 173.922 70.4157 175.308C70.6047 178.108 70.8427 182.175 71.1157 187.208C71.6757 197.246 72.3267 211.12 72.9917 226.408C73.6567 241.696 74.2797 255.612 74.7837 265.65C75.0357 270.655 75.2457 274.75 75.3857 277.55C75.4557 278.95 75.5117 280.028 75.5467 280.784C75.5467 281.141 75.5467 281.421 75.5467 281.624C75.5467 281.827 75.5467 281.911 75.5467 281.911C75.5467 281.911 75.5467 281.813 75.5467 281.624C75.5467 281.435 75.5467 281.148 75.4837 280.784C75.4347 280.035 75.3577 278.95 75.2667 277.557C75.0777 274.757 74.8397 270.69 74.5667 265.657C74.0137 255.626 73.3627 241.752 72.6907 226.457C72.0187 211.162 71.4027 197.267 70.9057 187.257C70.6467 182.245 70.4437 178.157 70.2967 175.357C70.2267 173.957 70.1777 172.879 70.1357 172.13C70.1357 171.766 70.1357 171.486 70.1357 171.283C70.1357 171.08 70.1357 170.954 70.1357 170.954Z" fill="#D7E1EA"/>
<path d="M60.6157 198.38C60.8009 198.498 60.9703 198.64 61.1197 198.8C61.4347 199.087 61.8757 199.5 62.4147 200.039C63.4857 201.103 64.9277 202.615 66.4887 204.309L70.4717 208.663L71.6827 209.972C71.8421 210.125 71.9852 210.294 72.1097 210.476C71.9224 210.361 71.7506 210.222 71.5987 210.063C71.2837 209.776 70.8427 209.363 70.3107 208.81C69.2467 207.739 67.8257 206.213 66.2647 204.519L62.2537 200.2L61.0357 198.891C60.8744 198.74 60.7332 198.568 60.6157 198.38Z" fill="#D7E1EA"/>
<path d="M72.915 210.21C72.852 210.147 75.827 207.032 79.558 203.252C83.289 199.472 86.369 196.448 86.425 196.511C86.481 196.574 83.513 199.682 79.782 203.469C76.051 207.256 72.978 210.273 72.915 210.21Z" fill="#D7E1EA"/>
<path d="M72.8799 233.8C73.0562 233.662 73.2462 233.543 73.4469 233.443L75.0359 232.547C76.3799 231.791 78.2349 230.748 80.2369 229.516C82.2389 228.284 84.0169 227.115 85.2979 226.261L86.8099 225.246C86.9901 225.111 87.185 224.996 87.3909 224.903C87.2433 225.072 87.0738 225.22 86.8869 225.344C86.5439 225.617 86.0469 225.988 85.4239 226.443C84.1709 227.346 82.4069 228.543 80.3979 229.782C78.3889 231.021 76.5129 232.036 75.1409 232.743C74.4409 233.093 73.8949 233.373 73.5029 233.548C73.3068 233.658 73.0974 233.743 72.8799 233.8Z" fill="#D7E1EA"/>
<path d="M59.3979 225.54C59.5995 225.596 59.7909 225.683 59.9649 225.799L61.4419 226.618C62.6809 227.318 64.3749 228.312 66.2439 229.418C68.1129 230.524 69.7999 231.553 71.0039 232.302C71.6129 232.68 72.0959 233.002 72.4039 233.205C72.5854 233.306 72.7525 233.431 72.9009 233.576C72.7032 233.513 72.5149 233.423 72.3409 233.31C71.9909 233.128 71.4869 232.848 70.8639 232.491C69.6249 231.791 67.924 230.797 66.062 229.691C64.2 228.585 62.5059 227.591 61.2949 226.807C60.6929 226.436 60.2099 226.107 59.8949 225.904C59.7162 225.802 59.5495 225.68 59.3979 225.54Z" fill="#D7E1EA"/>
<path d="M56.7241 246.351C56.9689 246.44 57.2035 246.555 57.4241 246.694L59.3141 247.737C60.9101 248.633 63.0941 249.886 65.5021 251.286C67.9101 252.686 70.0871 253.974 71.6481 254.912L73.4891 256.046C73.7205 256.177 73.9406 256.327 74.1471 256.494C73.9019 256.406 73.6672 256.291 73.4471 256.151L71.5501 255.108C69.9611 254.212 67.7701 252.959 65.3621 251.559C62.9541 250.159 60.7841 248.871 59.2161 247.933L57.3751 246.799C57.1461 246.668 56.9284 246.518 56.7241 246.351Z" fill="#D7E1EA"/>
<path d="M73.8179 256.137C74.036 255.957 74.2703 255.798 74.5179 255.661L76.4989 254.457C78.1649 253.442 80.4679 252.028 82.9669 250.397C85.4659 248.766 87.6919 247.247 89.2669 246.127L91.1639 244.804C91.3843 244.633 91.6184 244.481 91.8639 244.349C91.6702 244.557 91.4542 244.742 91.2199 244.902C90.7859 245.245 90.1559 245.728 89.3719 246.302C87.7969 247.464 85.5919 249.025 83.0719 250.656C80.5519 252.287 78.2419 253.673 76.5479 254.639C75.6939 255.122 75.0009 255.507 74.5179 255.759C74.2981 255.909 74.0635 256.035 73.8179 256.137Z" fill="#D7E1EA"/>
<path d="M86.0472 270.179H63.5352L70.8852 325.794H78.7042L86.0472 270.179Z" fill="#D7E1EA"/>
<path d="M64.7041 277.018C64.7308 277.09 64.7712 277.157 64.8231 277.214C64.9714 277.385 65.1587 277.517 65.3691 277.599C65.7614 277.736 66.1799 277.781 66.5924 277.732C67.0049 277.682 67.4006 277.538 67.7491 277.312C68.6521 276.808 69.4501 275.821 70.6681 275.387C72.018 274.954 73.4739 274.983 74.8051 275.471C76.1615 275.936 77.4565 276.564 78.6621 277.34C79.6667 277.969 80.712 278.53 81.7911 279.02C82.5283 279.357 83.3077 279.592 84.1081 279.72C84.324 279.748 84.5414 279.762 84.7591 279.762C84.9038 279.762 84.9808 279.762 84.9901 279.762C83.9204 279.597 82.879 279.284 81.8961 278.831C80.8421 278.311 79.8185 277.731 78.8301 277.095C77.6114 276.288 76.2939 275.641 74.9101 275.17C73.502 274.658 71.9614 274.641 70.5421 275.121C69.9416 275.367 69.3858 275.71 68.8971 276.136C68.4923 276.5 68.0619 276.835 67.6091 277.137C67.2936 277.356 66.934 277.503 66.5555 277.569C66.177 277.634 65.7888 277.616 65.4181 277.515C65.1502 277.397 64.9077 277.228 64.7041 277.018Z" fill="#FAFAFB"/>
<path d="M65.5299 287.259C65.5299 287.259 65.7049 287.028 66.0549 286.664C66.5652 286.158 67.1789 285.769 67.8539 285.523C68.8557 285.161 69.9188 284.999 70.9829 285.047C72.2994 285.147 73.6085 285.327 74.9029 285.586C76.2244 285.839 77.5763 285.893 78.9139 285.747C80.005 285.608 81.0691 285.306 82.0709 284.851C82.7405 284.542 83.3762 284.164 83.9679 283.724C84.1932 283.571 84.3958 283.388 84.5699 283.178C83.7385 283.71 82.868 284.178 81.9659 284.578C80.9759 284.984 79.9349 285.253 78.8719 285.376C77.5653 285.501 76.2474 285.438 74.9589 285.187C73.651 284.929 72.3274 284.759 70.9969 284.676C69.889 284.64 68.7856 284.833 67.7559 285.243C67.0611 285.525 66.4424 285.966 65.9499 286.531C65.8219 286.687 65.7071 286.853 65.6069 287.028C65.5439 287.189 65.5159 287.252 65.5299 287.259Z" fill="#FAFAFB"/>
<path d="M83.4987 292.74C83.3101 292.599 83.0997 292.491 82.8757 292.418C82.277 292.198 81.6501 292.064 81.0137 292.019C80.0773 291.962 79.1374 292.016 78.2137 292.18C77.1637 292.355 76.0367 292.642 74.8537 292.88C73.7546 293.136 72.6293 293.263 71.5007 293.258C70.5859 293.236 69.6835 293.041 68.8407 292.684C68.0657 292.337 67.3718 291.831 66.8037 291.2C66.8878 291.42 67.0165 291.62 67.1817 291.788C67.6088 292.269 68.1276 292.659 68.7077 292.936C69.5706 293.353 70.5087 293.591 71.4657 293.636C72.6242 293.664 73.7816 293.544 74.9097 293.279C76.1067 293.027 77.2197 292.726 78.2487 292.544C79.1547 292.367 80.0769 292.288 80.9997 292.306C81.8469 292.352 82.6857 292.498 83.4987 292.74Z" fill="#FAFAFB"/>
<path d="M67.5178 300.454C68.2069 300.162 68.9686 300.086 69.7018 300.237C70.4963 300.429 71.2648 300.716 71.9908 301.091C72.9243 301.535 73.9292 301.81 74.9588 301.903C76.8401 302.072 78.7261 301.635 80.3418 300.657C80.8331 300.357 81.2887 300.003 81.6998 299.6C81.9728 299.306 82.1198 299.138 82.0988 299.124C81.4992 299.584 80.8753 300.012 80.2298 300.405C78.6357 301.279 76.8193 301.664 75.0078 301.511C72.9078 301.392 71.2418 300.111 69.7648 299.95C69.1944 299.856 68.6095 299.906 68.0638 300.097C67.6998 300.3 67.5038 300.44 67.5178 300.454Z" fill="#FAFAFB"/>
<path d="M68.771 311.129C69.4166 311.151 70.0586 311.024 70.647 310.758C71.781 310.38 73.181 309.512 74.847 308.861C75.6088 308.553 76.4197 308.385 77.241 308.364C77.9073 308.361 78.5656 308.509 79.166 308.798C79.7177 309.088 80.1964 309.5 80.566 310.002C80.566 310.002 80.566 309.806 80.356 309.526C80.0832 309.13 79.7211 308.804 79.299 308.574C78.6742 308.229 77.9756 308.039 77.262 308.021C76.3957 308.023 75.5378 308.192 74.735 308.518C73.034 309.218 71.683 310.086 70.598 310.513C69.513 310.94 68.764 311.073 68.771 311.129Z" fill="#FAFAFB"/>
<path d="M69.8696 316.099C70.3143 316.313 70.7849 316.469 71.2696 316.561C72.4417 316.845 73.6323 317.047 74.8326 317.163C76.0329 317.28 77.2396 317.315 78.4446 317.268C78.9477 317.278 79.4497 317.217 79.9356 317.086C79.9356 316.981 77.6536 317.086 74.8676 316.792C72.0816 316.498 69.8976 315.987 69.8696 316.099Z" fill="#FAFAFB"/>
<path d="M112.99 90.874L110.645 94.248C110.645 94.248 115.916 95.711 115.916 100.401C115.916 105.091 112.696 105.966 109.175 105.966C105.654 105.966 102.294 104.944 102.441 100.254C102.588 95.564 106.977 93.807 106.977 93.807L104.8 90.874H112.99Z" fill="#FAFAFB"/>
<path d="M49.8501 85.9111H44.5581V105.812H49.8501V85.9111Z" fill="#FAFAFB"/>
<path d="M44.691 80.8013H35.479V105.819H44.691V80.8013Z" fill="#F2F7FC"/>
<path d="M130.889 105.735H23.8799V109.48H130.889V105.735Z" fill="#D7E1EA"/>
<path d="M46.8607 107.604H43.9487V117.327H46.8607V107.604Z" fill="#D7E1EA"/>
<path d="M104.513 107.604H101.601V117.327H104.513V107.604Z" fill="#D7E1EA"/>
<path d="M86.4037 96.6001H61.3857V105.812H86.4037V96.6001Z" fill="#F2F7FC"/>
<path d="M61.3858 74.6553H52.1738V105.812H61.3858V74.6553Z" fill="#FAFAFB"/>
<path d="M52.174 80.8013H49.395V105.819H52.174V80.8013Z" fill="#F2F7FC"/>
<path d="M88.5317 93.8213H63.5137V96.6003H88.5317V93.8213Z" fill="#F2F7FC"/>
<path d="M462.276 176.526H423.853V300.881H462.276V176.526Z" fill="#F2F7FC"/>
<path d="M494.889 176.547H462.276V300.86H494.889V176.547Z" fill="#D7E1EA"/>
<path d="M457.684 181.566H426.856V208.355H457.684V181.566Z" fill="#D7E1EA"/>
<path d="M457.684 211.386H426.856V238.175H457.684V211.386Z" fill="#D7E1EA"/>
<path d="M457.684 241.213H426.856V268.002H457.684V241.213Z" fill="#D7E1EA"/>
<path d="M457.684 271.033H426.856V297.822H457.684V271.033Z" fill="#D7E1EA"/>
<path d="M442.27 186.508C442.27 186.72 442.207 186.927 442.089 187.103C441.972 187.279 441.805 187.416 441.609 187.497C441.413 187.579 441.198 187.6 440.99 187.558C440.782 187.517 440.591 187.415 440.442 187.265C440.292 187.116 440.19 186.925 440.149 186.717C440.107 186.509 440.128 186.294 440.209 186.098C440.291 185.902 440.428 185.735 440.604 185.617C440.78 185.5 440.987 185.437 441.199 185.437C441.483 185.437 441.755 185.55 441.956 185.751C442.157 185.952 442.27 186.224 442.27 186.508Z" fill="white"/>
<path d="M442.27 216.678C442.27 216.89 442.207 217.097 442.089 217.273C441.972 217.449 441.805 217.586 441.609 217.667C441.413 217.748 441.198 217.77 440.99 217.728C440.782 217.687 440.591 217.585 440.442 217.435C440.292 217.285 440.19 217.095 440.149 216.887C440.107 216.679 440.128 216.464 440.209 216.268C440.291 216.072 440.428 215.905 440.604 215.787C440.78 215.67 440.987 215.607 441.199 215.607C441.483 215.607 441.755 215.72 441.956 215.921C442.157 216.121 442.27 216.394 442.27 216.678Z" fill="white"/>
<path d="M442.27 246.855C442.27 247.067 442.207 247.274 442.089 247.45C441.972 247.626 441.805 247.764 441.609 247.845C441.413 247.926 441.198 247.947 440.99 247.906C440.782 247.864 440.591 247.762 440.442 247.613C440.292 247.463 440.19 247.272 440.149 247.064C440.107 246.856 440.128 246.641 440.209 246.445C440.291 246.25 440.428 246.082 440.604 245.965C440.78 245.847 440.987 245.784 441.199 245.784C441.483 245.784 441.755 245.897 441.956 246.098C442.157 246.299 442.27 246.571 442.27 246.855Z" fill="white"/>
<path d="M442.27 277.025C442.27 277.237 442.207 277.444 442.089 277.62C441.972 277.796 441.805 277.934 441.609 278.015C441.413 278.096 441.198 278.117 440.99 278.076C440.782 278.034 440.591 277.932 440.442 277.782C440.292 277.633 440.19 277.442 440.149 277.234C440.107 277.026 440.128 276.811 440.209 276.615C440.291 276.42 440.428 276.252 440.604 276.135C440.78 276.017 440.987 275.954 441.199 275.954C441.482 275.956 441.754 276.069 441.954 276.27C442.155 276.47 442.268 276.742 442.27 277.025Z" fill="white"/>
<path d="M428.291 300.881H423.853V325.822H428.291V300.881Z" fill="#D7E1EA"/>
<path d="M462.115 300.881H457.677V325.822H462.115V300.881Z" fill="#D7E1EA"/>
<path d="M494.413 300.881H489.975V325.822H494.413V300.881Z" fill="#D7E1EA"/>
<path d="M459.581 149.149C460.783 146.018 462.352 143.041 464.257 140.28C464.815 139.298 465.657 138.507 466.672 138.012C468.429 137.312 470.333 138.418 471.901 139.454L475.548 141.848C475.662 141.906 475.764 141.986 475.847 142.083C475.93 142.18 475.992 142.293 476.031 142.415C476.094 142.863 475.534 143.115 475.079 143.178C473.526 143.354 471.961 142.967 470.669 142.086C469.689 141.386 468.737 140.413 467.554 140.539C466.084 140.693 465.454 142.401 464.859 143.759C463.622 146.711 461.444 149.172 458.664 150.759" fill="#FAFAFB"/>
<path d="M459.574 149.751C459.854 142.471 460.141 135.128 461.884 128.051C463.627 120.974 466.959 114.093 472.44 109.284C471.74 115.423 469.486 121.268 467.274 127.043L458.349 150.36" fill="#FAFAFB"/>
<path d="M458.3 152.404C457.263 145.768 455.403 139.288 452.763 133.112C452.46 132.169 451.874 131.343 451.083 130.746C449.837 129.997 448.241 130.494 446.883 131.082C443.72 132.498 440.791 134.386 438.196 136.682C437.971 136.842 437.808 137.074 437.734 137.34C437.724 137.547 437.789 137.75 437.918 137.913C438.047 138.075 438.23 138.185 438.434 138.222C438.837 138.301 439.255 138.275 439.645 138.145L446.925 136.465C447.313 136.287 447.735 136.198 448.162 136.205C448.589 136.211 449.008 136.314 449.39 136.505C449.772 136.696 450.106 136.97 450.367 137.307C450.629 137.644 450.811 138.036 450.901 138.453C453.281 143.26 455.666 148.066 458.055 152.873" fill="#FAFAFB"/>
<path d="M469.374 97.4819C463.29 104.702 459.726 113.709 459.224 123.137C458.538 138.642 457.6 149.8 457.6 149.8H459.308C459.308 149.8 462.731 118.559 465.013 113.085C467.295 107.611 470.851 99.8759 469.374 97.4819Z" fill="#F2F7FC"/>
<path d="M469.374 97.4819C469.311 97.6514 469.238 97.8173 469.157 97.9789C468.996 98.3219 468.772 98.7839 468.499 99.3789C467.932 100.597 467.155 102.375 466.28 104.608C465.405 106.841 464.453 109.508 463.543 112.567C462.541 115.85 461.746 119.194 461.163 122.577C460.855 124.383 460.715 126.154 460.582 127.876C460.449 129.598 460.351 131.264 460.26 132.846C460.078 136.01 459.882 138.866 459.616 141.246C459.35 143.626 459.049 145.558 458.783 146.846C458.657 147.504 458.531 148.015 458.447 148.358C458.411 148.533 458.365 148.706 458.307 148.876C458.316 148.697 458.341 148.518 458.384 148.344C458.447 147.994 458.552 147.49 458.657 146.825C458.888 145.502 459.168 143.584 459.357 141.225C459.546 138.866 459.763 135.989 459.931 132.825C460.015 131.243 460.113 129.577 460.232 127.855C460.351 126.133 460.505 124.355 460.813 122.528C461.395 119.13 462.202 115.774 463.228 112.483C464.159 109.445 465.132 106.75 466.028 104.524C466.924 102.298 467.743 100.527 468.345 99.3299C468.639 98.7209 468.891 98.2659 469.045 97.9299C469.138 97.7692 469.249 97.619 469.374 97.4819Z" fill="#D7E1EA"/>
<path d="M475.73 112C475.73 112 464.18 123.025 462.878 133.427C461.576 143.829 460.904 149.401 460.904 149.401H462.045C462.045 149.401 464.782 134.575 468.345 129.899C471.908 125.223 476.5 113.253 475.73 112Z" fill="#F2F7FC"/>
<path d="M475.59 112.7C475.544 112.821 475.488 112.939 475.422 113.05C475.282 113.302 475.1 113.624 474.883 114.023C474.386 114.898 473.7 116.123 472.867 117.579C471.173 120.589 468.835 124.754 466.714 129.57C464.87 133.668 463.485 137.957 462.584 142.359C462.255 144.046 462.066 145.432 461.961 146.391C461.898 146.874 461.877 147.245 461.842 147.497C461.833 147.627 461.814 147.756 461.786 147.882C461.769 147.752 461.769 147.62 461.786 147.49C461.786 147.238 461.786 146.86 461.842 146.377C461.949 145.016 462.124 143.661 462.367 142.317C463.211 137.901 464.572 133.599 466.42 129.5C468.27 125.39 470.357 121.391 472.671 117.523C473.546 116.032 474.267 114.835 474.771 114.023L475.359 113.078C475.423 112.945 475.5 112.818 475.59 112.7Z" fill="#D7E1EA"/>
<path d="M453.4 113.939C453.4 113.939 451.692 135.716 455.682 148.715H457.082C457.082 148.715 457.971 120.554 453.4 113.939Z" fill="#F2F7FC"/>
<path d="M454.352 118.055C454.385 118.155 454.404 118.258 454.408 118.363C454.408 118.601 454.464 118.895 454.499 119.245C454.569 120.064 454.667 121.156 454.786 122.493C455.01 125.237 455.297 129.031 455.598 133.224C455.899 137.417 456.151 141.211 456.298 143.962C456.375 145.299 456.438 146.405 456.48 147.217C456.48 147.574 456.48 147.868 456.515 148.106C456.526 148.211 456.526 148.317 456.515 148.421C456.477 148.323 456.458 148.218 456.459 148.113C456.459 147.875 456.403 147.581 456.368 147.231C456.291 146.412 456.2 145.313 456.081 143.983C455.857 141.232 455.57 137.438 455.269 133.245C454.968 129.052 454.716 125.258 454.569 122.507C454.492 121.17 454.429 120.071 454.387 119.252C454.387 118.895 454.387 118.608 454.387 118.363C454.363 118.262 454.351 118.159 454.352 118.055Z" fill="#D7E1EA"/>
<path d="M450.691 147.455C450.691 147.455 454.891 150.458 454.667 151.858C454.443 153.258 444.356 160.769 445 166.677C445.644 172.585 450.474 176.666 458.748 176.344C467.022 176.022 472.601 170.87 471.852 165.606C471.103 160.342 462.892 151.977 462.801 151.571C462.528 150.416 466.483 147.455 466.483 147.455H450.691Z" fill="#D7E1EA"/>
<path d="M465.748 155.085C465.748 155.176 462.696 155.246 458.937 155.246C455.178 155.246 452.126 155.176 452.126 155.085C452.126 154.994 455.171 154.924 458.937 154.924C462.703 154.924 465.748 155.001 465.748 155.085Z" fill="white"/>
<path d="M466.7 156.513C466.7 156.604 463.102 156.674 458.671 156.674C454.24 156.674 450.642 156.604 450.642 156.513C450.642 156.422 454.233 156.359 458.671 156.359C463.109 156.359 466.7 156.429 466.7 156.513Z" fill="white"/>
<path d="M468.156 158.095C468.156 158.186 463.914 158.256 458.671 158.256C453.428 158.256 449.2 158.2 449.2 158.095C449.2 157.99 453.442 157.934 458.678 157.934C463.914 157.934 468.156 158.011 468.156 158.095Z" fill="white"/>
<path d="M469.437 160.202C469.437 160.293 464.537 160.363 458.503 160.363C452.469 160.363 447.569 160.293 447.569 160.202C447.569 160.111 452.469 160.041 458.503 160.041C464.537 160.041 469.437 160.118 469.437 160.202Z" fill="white"/>
<path d="M481.568 325.976C481.568 326.081 383.701 326.158 263.007 326.158C142.313 326.158 44.4321 326.081 44.4321 325.976C44.4321 325.871 142.278 325.794 263.007 325.794C383.736 325.794 481.568 325.878 481.568 325.976Z" fill="#1F1F1F"/>
<path d="M362.575 146.083L358.249 153.916L355.596 132.622C355.48 131.077 355.785 129.529 356.478 128.142C356.773 127.528 357.135 126.949 357.556 126.413C358.093 125.751 358.717 125.165 359.411 124.67C360.111 124.285 359.971 123.27 359.278 123.2C358.585 123.13 356.688 124.145 355.197 126.182C353.706 128.219 353.545 124.299 353.461 122.871C353.377 121.443 352.915 117.04 352.46 116.732C351.76 116.277 351.158 116.928 351.277 118.349C351.396 119.77 351.438 124.075 350.689 124.103C349.94 124.131 349.618 116.851 349.618 116.851C349.618 116.851 349.8 115.276 348.918 115.276C347.343 115.276 348.253 122.976 348.358 123.676C348.435 124.18 347.616 124.236 347.567 123.676C347.518 123.116 347.413 116.403 345.81 116.396C344.585 116.396 346.51 122.731 345.754 124.152C344.998 125.573 344.788 119.182 343.612 119.217C343.178 119.217 342.849 119.308 343.507 122.948C343.857 124.908 345.145 127.722 345.544 131.544L345.649 132.538C345.719 137.298 346.769 151.641 351.102 162.561C351.706 164.053 352.705 165.352 353.992 166.318C355.28 167.284 356.806 167.88 358.408 168.042C360.009 168.204 361.624 167.926 363.079 167.238C364.534 166.549 365.773 165.477 366.663 164.136C369.33 160.125 373.537 149.632 373.537 149.632L362.575 146.083Z" fill="#FFBE9D"/>
<path d="M347.896 129.605C347.896 129.605 348.141 129.605 348.519 129.773C349.031 129.949 349.461 130.304 349.73 130.774L349.877 131.04L349.961 130.739C350.087 130.322 350.284 129.929 350.542 129.577C351.049 128.896 351.749 128.381 352.551 128.1C353.167 127.876 353.594 127.89 353.587 127.841C353.223 127.763 352.844 127.79 352.495 127.918C351.622 128.155 350.856 128.684 350.325 129.416C350.043 129.793 349.836 130.221 349.716 130.676L349.954 130.641C349.639 130.13 349.137 129.763 348.554 129.619C348.341 129.547 348.111 129.542 347.896 129.605Z" fill="#EB996E"/>
<path d="M376.897 93.2334C374.874 93.6954 372.998 94.7664 372.809 96.8384C372.62 98.9104 372.879 101.094 372.011 102.984C371.031 105.084 368.693 106.68 368.616 109.018C368.567 110.418 369.414 111.783 369.372 113.218C369.309 115.556 366.915 117.327 366.789 119.672C366.705 121.352 367.825 122.969 367.552 124.635C367.342 125.937 366.334 126.952 365.907 128.198C365.06 130.676 366.761 133.399 368.973 134.792C370.213 135.572 371.607 136.071 373.06 136.255C374.512 136.44 375.988 136.304 377.382 135.859C378.777 135.414 380.058 134.669 381.135 133.677C382.212 132.685 383.059 131.47 383.617 130.116C384.842 127.141 384.576 123.816 384.317 120.582C383.486 110.582 382.868 100.569 382.462 90.5454" fill="#1F1F1F"/>
<path d="M419.324 315C419.324 315 399.353 252.266 398.947 250.306C398.583 248.528 405.849 205.079 406.759 193.83L381.076 194.789V194.978L370.156 195.58L380.299 322.511L391.499 322.315L390.561 278.103C397.848 297.703 409.048 319.242 409.048 319.242L419.324 315Z" fill="#FFBE9D"/>
<path d="M391.1 292.796C391.1 292.418 390.953 279.069 390.953 279.069C390.806 279.867 386.424 267.477 386.529 266.721C386.55 266.329 391.1 292.796 391.1 292.796Z" fill="#EB996E"/>
<path d="M385.997 260.855C385.935 261.1 385.909 261.352 385.92 261.604C385.882 262.285 385.882 262.968 385.92 263.648C385.92 264.082 385.983 264.558 386.039 265.048C386.095 265.538 386.172 266.098 386.291 266.658C386.53 267.878 386.853 269.081 387.257 270.256C388.111 272.748 389.063 274.939 389.735 276.521L390.554 278.39C390.645 278.625 390.762 278.848 390.904 279.055C390.868 278.813 390.798 278.577 390.694 278.355C390.54 277.9 390.295 277.242 389.994 276.437C389.392 274.827 388.482 272.622 387.635 270.137C387.236 268.978 386.906 267.795 386.648 266.595C386.529 266.042 386.445 265.51 386.368 265.013C386.291 264.516 386.235 264.047 386.207 263.613C386.123 262.766 386.088 262.066 386.067 261.59C386.07 261.344 386.047 261.097 385.997 260.855Z" fill="#EB996E"/>
<path d="M379.711 323.001V321.895L391.821 321.363L391.856 325.948L391.107 325.997C387.782 326.193 374.195 326.753 371.969 326.081C369.484 325.339 379.711 323.001 379.711 323.001Z" fill="#6C6C6C"/>
<path d="M392.017 325.668H391.807L391.212 325.71L389.028 325.808C387.173 325.885 384.618 325.948 381.797 325.962C378.976 325.976 376.414 325.962 374.566 325.871L372.375 325.794L371.78 325.759H371.57H372.375L374.566 325.801C376.414 325.801 378.976 325.857 381.797 325.843C384.618 325.829 387.173 325.78 389.021 325.738L391.212 325.682H391.807L392.017 325.668Z" fill="#1F1F1F"/>
<path d="M375.784 326.06C375.691 325.698 375.554 325.348 375.378 325.017C375.157 324.711 374.903 324.43 374.622 324.177C375 324.312 375.312 324.585 375.497 324.94C375.733 325.263 375.835 325.664 375.784 326.06Z" fill="#1F1F1F"/>
<path d="M379.333 324.24C379.333 324.24 379.13 324.058 378.955 323.778C378.78 323.498 378.661 323.26 378.696 323.239C378.731 323.218 378.899 323.428 379.074 323.701C379.249 323.974 379.368 324.219 379.333 324.24Z" fill="#1F1F1F"/>
<path d="M380.306 323.722C380.306 323.722 380.089 323.624 379.886 323.442C379.683 323.26 379.529 323.078 379.557 323.05C379.585 323.022 379.774 323.148 379.984 323.33C380.194 323.512 380.334 323.694 380.306 323.722Z" fill="#1F1F1F"/>
<path d="M380.922 322.581C380.721 322.657 380.506 322.686 380.292 322.665C380.08 322.693 379.865 322.671 379.662 322.602C379.863 322.526 380.078 322.498 380.292 322.518C380.504 322.498 380.718 322.519 380.922 322.581Z" fill="#1F1F1F"/>
<path d="M381.132 321.783C380.925 321.921 380.681 321.992 380.432 321.986C380.195 322.024 379.952 321.992 379.732 321.895C379.964 321.856 380.198 321.837 380.432 321.839C380.663 321.798 380.898 321.779 381.132 321.783Z" fill="#1F1F1F"/>
<path d="M378.92 323.19C378.666 323.24 378.404 323.24 378.15 323.19C377.87 323.156 377.594 323.097 377.324 323.015C377.161 322.967 377.004 322.901 376.855 322.819C376.808 322.795 376.767 322.761 376.733 322.72C376.7 322.679 376.674 322.632 376.659 322.581C376.646 322.523 376.651 322.462 376.672 322.406C376.693 322.35 376.73 322.302 376.778 322.266C377.073 322.117 377.41 322.076 377.732 322.152C378.054 322.227 378.338 322.414 378.535 322.679C378.652 322.834 378.737 323.01 378.787 323.197C378.801 323.264 378.801 323.333 378.787 323.4C378.704 323.163 378.583 322.941 378.43 322.742C378.256 322.54 378.028 322.392 377.772 322.315C377.467 322.215 377.135 322.24 376.848 322.385C376.722 322.476 376.771 322.616 376.911 322.7C377.048 322.778 377.194 322.839 377.345 322.882C377.604 322.975 377.871 323.043 378.143 323.085C378.626 323.169 378.92 323.169 378.92 323.19Z" fill="#1F1F1F"/>
<path d="M378.724 323.232C378.627 323.071 378.594 322.878 378.633 322.693C378.654 322.49 378.726 322.294 378.843 322.126C378.908 322.011 379.001 321.915 379.114 321.846C379.227 321.778 379.355 321.739 379.487 321.734C379.565 321.751 379.634 321.798 379.678 321.865C379.723 321.931 379.74 322.013 379.725 322.091C379.707 322.214 379.661 322.331 379.592 322.434C379.492 322.606 379.37 322.764 379.228 322.903C379.109 323.043 378.958 323.152 378.787 323.218C378.787 323.218 378.941 323.078 379.151 322.833C379.276 322.692 379.384 322.537 379.473 322.371C379.585 322.203 379.655 321.909 379.473 321.874C379.291 321.839 379.081 322.049 378.962 322.203C378.857 322.355 378.783 322.527 378.745 322.707C378.719 322.881 378.712 323.057 378.724 323.232Z" fill="#1F1F1F"/>
<path d="M391.758 322.371C391.758 322.371 391.415 322.371 390.869 322.406C390.16 322.49 389.489 322.771 388.932 323.218C388.375 323.665 387.954 324.259 387.719 324.933C387.537 325.451 387.523 325.801 387.495 325.794C387.481 325.713 387.481 325.63 387.495 325.549C387.517 325.329 387.56 325.111 387.621 324.898C387.837 324.191 388.261 323.564 388.838 323.101C389.415 322.638 390.118 322.359 390.855 322.301C391.088 322.275 391.323 322.275 391.555 322.301C391.625 322.316 391.694 322.34 391.758 322.371Z" fill="#1F1F1F"/>
<path d="M385.962 324.709C385.383 324.837 384.791 324.894 384.198 324.877C383.609 324.903 383.018 324.854 382.441 324.73C382.441 324.688 383.232 324.73 384.198 324.73C385.164 324.73 385.955 324.667 385.962 324.709Z" fill="#1F1F1F"/>
<path d="M388.3 324.681C388.3 324.681 388.237 324.849 388.153 325.031C388.069 325.213 388.034 325.374 387.992 325.367C387.95 325.36 387.929 325.178 387.992 324.968C388.055 324.758 388.3 324.653 388.3 324.681Z" fill="#1F1F1F"/>
<path d="M389.203 323.575C389.203 323.575 389.154 323.729 389.035 323.855C388.916 323.981 388.783 324.058 388.755 324.03C388.727 324.002 388.804 323.876 388.93 323.75C389.056 323.624 389.175 323.547 389.203 323.575Z" fill="#1F1F1F"/>
<path d="M390.477 323.064C390.477 323.099 390.309 323.099 390.134 323.162C389.959 323.225 389.826 323.323 389.798 323.295C389.77 323.267 389.861 323.099 390.085 323.029C390.309 322.959 390.491 323.022 390.477 323.064Z" fill="#1F1F1F"/>
<path d="M391.38 322.819C391.38 322.854 391.331 322.917 391.226 322.959C391.121 323.001 391.037 323.001 391.023 322.959C391.009 322.917 391.072 322.861 391.177 322.819C391.282 322.777 391.366 322.784 391.38 322.819Z" fill="#1F1F1F"/>
<path d="M408.831 320.468L408.369 319.46L419.198 314.021L421.102 318.179L420.444 318.536C417.49 320.069 405.324 326.152 403.021 326.453C400.452 326.789 408.831 320.468 408.831 320.468Z" fill="#6C6C6C"/>
<path d="M421.144 317.856C421.144 317.856 421.088 317.898 420.969 317.961L420.437 318.241L418.484 319.235C416.825 320.054 414.522 321.167 411.953 322.336C409.384 323.505 407.053 324.506 405.317 325.213L403.287 326.033L402.734 326.25C402.67 326.281 402.602 326.302 402.531 326.312L402.72 326.221L403.266 325.983L405.282 325.116C406.976 324.415 409.321 323.365 411.89 322.203C414.459 321.041 416.79 319.942 418.442 319.137L420.416 318.192L420.955 317.94L421.144 317.856Z" fill="#1F1F1F"/>
<path d="M406.5 324.863C406.265 324.57 405.994 324.307 405.695 324.079C405.375 323.886 405.031 323.733 404.673 323.624C405.068 323.621 405.453 323.738 405.78 323.959C406.106 324.181 406.357 324.496 406.5 324.863Z" fill="#1F1F1F"/>
<path d="M408.992 321.755C408.798 321.704 408.617 321.614 408.46 321.489C408.18 321.307 407.977 321.132 407.998 321.104C408.019 321.076 408.264 321.188 408.537 321.363C408.81 321.538 409.013 321.72 408.992 321.755Z" fill="#1F1F1F"/>
<path d="M409.671 320.88C409.671 320.915 409.433 320.88 409.167 320.796C408.901 320.712 408.691 320.614 408.705 320.572C408.719 320.53 408.943 320.572 409.209 320.656C409.475 320.74 409.678 320.838 409.671 320.88Z" fill="#1F1F1F"/>
<path d="M409.762 319.592C409.426 319.852 409.036 320.034 408.621 320.124C408.621 320.082 408.845 319.935 409.16 319.788C409.475 319.641 409.741 319.55 409.762 319.592Z" fill="#1F1F1F"/>
<path d="M409.622 318.774C409.622 318.774 409.426 319.054 409.069 319.25C408.862 319.388 408.618 319.461 408.369 319.46C408.567 319.324 408.778 319.209 408.999 319.117C409.342 318.935 409.594 318.739 409.622 318.774Z" fill="#1F1F1F"/>
<path d="M408.187 320.964C407.973 321.108 407.737 321.215 407.487 321.279C407.218 321.363 406.941 321.421 406.661 321.454C406.492 321.476 406.32 321.476 406.15 321.454C406.098 321.45 406.047 321.435 406 321.411C405.953 321.387 405.911 321.354 405.877 321.314C405.846 321.265 405.83 321.208 405.83 321.15C405.83 321.091 405.846 321.034 405.877 320.985C406.085 320.728 406.376 320.553 406.7 320.49C407.024 320.428 407.36 320.481 407.648 320.642C407.819 320.732 407.969 320.856 408.089 321.006C408.173 321.111 408.201 321.181 408.194 321.188C408.025 321.004 407.827 320.85 407.606 320.733C407.362 320.619 407.09 320.577 406.822 320.614C406.504 320.648 406.212 320.807 406.01 321.055C405.933 321.188 406.01 321.3 406.199 321.314C406.355 321.328 406.512 321.328 406.668 321.314C406.942 321.288 407.214 321.241 407.48 321.174C407.9 321.062 408.18 320.943 408.187 320.964Z" fill="#1F1F1F"/>
<path d="M408.019 321.083C407.87 320.97 407.764 320.81 407.718 320.628C407.653 320.435 407.639 320.227 407.676 320.026C407.689 319.895 407.734 319.769 407.809 319.66C407.884 319.551 407.985 319.462 408.103 319.403C408.271 319.347 408.677 319.697 408.705 319.823C408.733 319.949 408.502 319.886 408.488 319.998C408.467 320.195 408.419 320.388 408.348 320.572C408.229 320.894 408.089 321.055 408.075 321.041C408.061 321.027 408.159 320.852 408.25 320.544C408.307 320.362 408.342 320.175 408.355 319.984C408.355 319.788 408.355 319.494 408.138 319.543C407.921 319.592 407.851 319.865 407.809 320.054C407.77 320.234 407.77 320.421 407.809 320.6C407.866 320.767 407.936 320.929 408.019 321.083Z" fill="#1F1F1F"/>
<path d="M419.562 314.958C419.562 314.958 419.233 315.07 418.764 315.357C418.147 315.718 417.646 316.248 417.321 316.884C416.996 317.52 416.86 318.237 416.93 318.948C416.962 319.242 417.011 319.534 417.077 319.823C417.077 319.823 417.028 319.753 416.972 319.606C416.902 319.394 416.853 319.176 416.825 318.955C416.73 318.221 416.86 317.476 417.198 316.817C417.535 316.159 418.064 315.618 418.715 315.266C418.908 315.157 419.112 315.071 419.324 315.007C419.4 314.979 419.481 314.962 419.562 314.958Z" fill="#1F1F1F"/>
<path d="M415.229 319.466C414.755 319.821 414.238 320.113 413.689 320.334C413.162 320.604 412.602 320.802 412.023 320.922C412.023 320.88 412.723 320.607 413.633 320.222C414.543 319.837 415.208 319.424 415.229 319.466Z" fill="#1F1F1F"/>
<path d="M417.371 318.501C417.406 318.501 417.371 318.683 417.371 318.879C417.371 319.074 417.371 319.242 417.371 319.256C417.371 319.27 417.238 319.109 417.238 318.879C417.238 318.648 417.336 318.459 417.371 318.501Z" fill="#1F1F1F"/>
<path d="M417.7 317.1C417.742 317.1 417.7 317.261 417.658 317.422C417.616 317.583 417.518 317.716 417.483 317.702C417.448 317.688 417.483 317.541 417.525 317.373C417.567 317.205 417.7 317.1 417.7 317.1Z" fill="#1F1F1F"/>
<path d="M418.673 316.113C418.673 316.155 418.533 316.218 418.4 316.344C418.267 316.47 418.19 316.617 418.148 316.603C418.106 316.589 418.148 316.4 418.302 316.239C418.456 316.078 418.666 316.071 418.673 316.113Z" fill="#1F1F1F"/>
<path d="M419.401 315.518C419.401 315.518 419.401 315.63 419.317 315.707C419.233 315.784 419.156 315.826 419.128 315.798C419.1 315.77 419.128 315.686 419.212 315.609C419.296 315.532 419.373 315.49 419.401 315.518Z" fill="#1F1F1F"/>
<path d="M402.839 172.431L402.727 151.095L415.831 148.68C415.831 148.68 414.431 142.38 412.618 136.318C411.218 131.551 408.208 129.528 404.561 127.75V127.687L404.246 127.603C401.244 126.256 398.038 125.419 394.761 125.125L382.049 125.272C382.049 125.272 372.333 124.061 366.957 130.984C364.857 133.651 358.48 151.907 358.48 151.907L373.74 159.257L372.291 149.135C372.291 149.135 372.578 156.471 373.516 158.795C374.034 160.09 375.546 164.115 375.546 164.115L375.35 176.253L402.839 172.431Z" fill="#0063CC"/>
<path d="M375.546 164.115C375.417 163.896 375.316 163.66 375.245 163.415C375.07 162.967 374.839 162.309 374.545 161.49C373.853 159.355 373.285 157.181 372.844 154.98C372.403 152.778 372.122 150.546 372.004 148.302C371.962 147.441 371.948 146.741 371.962 146.258C371.949 146.008 371.965 145.756 372.011 145.509C372.074 145.509 372.109 146.573 372.256 148.309C372.452 150.534 372.767 152.747 373.201 154.938C373.712 157.5 374.328 159.789 374.797 161.441L375.35 163.394C375.445 163.626 375.51 163.868 375.546 164.115Z" fill="#1F1F1F"/>
<path d="M380.04 172.544C379.734 172.128 379.524 171.65 379.424 171.144C379.217 170.665 379.126 170.145 379.158 169.625C379.256 169.625 379.529 170.234 379.774 171.025C379.981 171.503 380.072 172.023 380.04 172.544Z" fill="#1F1F1F"/>
<path d="M381.581 172.431C381.265 171.763 381.125 171.026 381.174 170.289C381.105 169.553 381.223 168.812 381.517 168.133C381.574 168.849 381.574 169.567 381.517 170.282C381.596 170.996 381.617 171.714 381.581 172.431Z" fill="#1F1F1F"/>
<path d="M374.048 159.601C374.006 159.685 370.457 158.005 366.117 155.835C361.777 153.665 358.305 151.845 358.347 151.754C358.389 151.663 361.945 153.343 366.278 155.513C370.611 157.683 374.097 159.503 374.048 159.601Z" fill="#1F1F1F"/>
<path d="M412.296 134.911C412.128 135.121 411.463 134.799 410.301 134.561C408.672 134.245 406.99 134.329 405.401 134.806C403.399 135.359 401.201 136.675 398.632 138.306C397.241 139.23 395.791 140.062 394.292 140.798C392.541 141.658 390.638 142.167 388.692 142.296C386.761 142.368 384.832 142.088 383.001 141.47C381.425 140.943 379.881 140.329 378.374 139.629C376.974 138.999 375.693 138.404 374.503 137.97C373.399 137.564 372.264 137.25 371.108 137.032C369.472 136.69 367.781 136.707 366.152 137.081C364.99 137.368 364.318 137.683 364.143 137.473C363.968 137.263 364.374 136.577 365.543 135.786C367.295 134.765 369.317 134.303 371.339 134.463C372.697 134.527 374.044 134.736 375.357 135.086C376.801 135.478 378.224 135.945 379.62 136.486C382.469 137.557 385.493 138.789 388.468 138.621C391.443 138.453 394.229 136.857 396.868 135.387C399.507 133.917 402.265 132.545 404.848 132.216C406.874 131.873 408.956 132.21 410.77 133.175C412.1 133.994 412.45 134.743 412.296 134.911Z" fill="white"/>
<path d="M402.902 154.819C402.734 155.015 402.272 154.931 401.502 154.819C400.492 154.639 399.469 154.545 398.443 154.539C397.818 154.531 397.195 154.616 396.595 154.791L396.406 154.861L396.147 154.966L395.608 155.204C395.244 155.372 394.908 155.561 394.474 155.764C393.69 156.177 392.836 156.66 391.856 157.164C390.814 157.667 389.73 158.074 388.615 158.382C386.459 158.948 384.218 159.124 382 158.9C380.206 158.731 378.451 158.277 376.799 157.556C373.999 156.289 372.753 154.798 373.019 154.413C373.285 154.028 374.958 154.595 377.583 155.113C380.925 155.779 384.374 155.688 387.677 154.847C388.6 154.595 389.506 154.279 390.386 153.902C391.268 153.524 392.171 153.097 393.088 152.726C393.55 152.544 394.019 152.369 394.488 152.222C394.726 152.145 394.964 152.082 395.188 152.019L395.545 151.928L395.965 151.851C396.899 151.726 397.848 151.774 398.765 151.991C400 152.246 401.16 152.782 402.153 153.559C402.853 154.119 403.056 154.637 402.902 154.819Z" fill="white"/>
<path d="M402.902 161.889C402.797 161.889 402.692 157.934 402.664 153.048C402.636 148.162 402.664 144.2 402.79 144.2C402.916 144.2 403 148.155 403.028 153.041C403.056 157.927 403 161.889 402.902 161.889Z" fill="#1F1F1F"/>
<path d="M402.839 172.431L402.727 151.095L415.831 148.68C415.831 148.68 414.431 142.38 412.618 136.318C411.218 131.551 408.208 129.528 404.561 127.75V127.687L404.246 127.603C401.244 126.256 398.038 125.419 394.761 125.125L382.049 125.272C382.049 125.272 372.333 124.061 366.957 130.984C364.857 133.651 358.48 151.907 358.48 151.907L373.74 159.257L372.291 149.135C372.291 149.135 372.578 156.471 373.516 158.795C374.034 160.09 375.546 164.115 375.546 164.115L375.35 176.253L402.839 172.431Z" fill="#0063CC"/>
<path d="M375.546 164.115C375.417 163.896 375.316 163.66 375.245 163.415C375.07 162.967 374.839 162.309 374.545 161.49C373.853 159.355 373.285 157.181 372.844 154.98C372.403 152.778 372.122 150.546 372.004 148.302C371.962 147.441 371.948 146.741 371.962 146.258C371.949 146.008 371.965 145.756 372.011 145.509C372.074 145.509 372.109 146.573 372.256 148.309C372.452 150.534 372.767 152.747 373.201 154.938C373.712 157.5 374.328 159.789 374.797 161.441L375.35 163.394C375.445 163.626 375.51 163.868 375.546 164.115Z" fill="#1F1F1F"/>
<path d="M380.04 172.544C379.734 172.128 379.524 171.65 379.424 171.144C379.217 170.665 379.126 170.145 379.158 169.625C379.256 169.625 379.529 170.234 379.774 171.025C379.981 171.503 380.072 172.023 380.04 172.544Z" fill="#1F1F1F"/>
<path d="M381.581 172.431C381.265 171.763 381.125 171.026 381.174 170.289C381.105 169.553 381.223 168.812 381.517 168.133C381.574 168.849 381.574 169.567 381.517 170.282C381.596 170.996 381.617 171.714 381.581 172.431Z" fill="#1F1F1F"/>
<path d="M374.048 159.601C374.006 159.685 370.457 158.005 366.117 155.835C361.777 153.665 358.305 151.845 358.347 151.754C358.389 151.663 361.945 153.343 366.278 155.513C370.611 157.683 374.097 159.503 374.048 159.601Z" fill="#1F1F1F"/>
<path d="M412.296 134.911C412.128 135.121 411.463 134.799 410.301 134.561C408.672 134.245 406.99 134.329 405.401 134.806C403.399 135.359 401.201 136.675 398.632 138.306C397.241 139.23 395.791 140.062 394.292 140.798C392.541 141.658 390.638 142.167 388.692 142.296C386.761 142.368 384.832 142.088 383.001 141.47C381.425 140.943 379.881 140.329 378.374 139.629C376.974 138.999 375.693 138.404 374.503 137.97C373.399 137.564 372.264 137.25 371.108 137.032C369.472 136.69 367.781 136.707 366.152 137.081C364.99 137.368 364.318 137.683 364.143 137.473C363.968 137.263 364.374 136.577 365.543 135.786C367.295 134.765 369.317 134.303 371.339 134.463C372.697 134.527 374.044 134.736 375.357 135.086C376.801 135.478 378.224 135.945 379.62 136.486C382.469 137.557 385.493 138.789 388.468 138.621C391.443 138.453 394.229 136.857 396.868 135.387C399.507 133.917 402.265 132.545 404.848 132.216C406.874 131.873 408.956 132.21 410.77 133.175C412.1 133.994 412.45 134.743 412.296 134.911Z" fill="white"/>
<path d="M402.902 154.819C402.734 155.015 402.272 154.931 401.502 154.819C400.492 154.639 399.469 154.545 398.443 154.539C397.818 154.531 397.195 154.616 396.595 154.791L396.406 154.861L396.147 154.966L395.608 155.204C395.244 155.372 394.908 155.561 394.474 155.764C393.69 156.177 392.836 156.66 391.856 157.164C390.814 157.667 389.73 158.074 388.615 158.382C386.459 158.948 384.218 159.124 382 158.9C380.206 158.731 378.451 158.277 376.799 157.556C373.999 156.289 372.753 154.798 373.019 154.413C373.285 154.028 374.958 154.595 377.583 155.113C380.925 155.779 384.374 155.688 387.677 154.847C388.6 154.595 389.506 154.279 390.386 153.902C391.268 153.524 392.171 153.097 393.088 152.726C393.55 152.544 394.019 152.369 394.488 152.222C394.726 152.145 394.964 152.082 395.188 152.019L395.545 151.928L395.965 151.851C396.899 151.726 397.848 151.774 398.765 151.991C400 152.246 401.16 152.782 402.153 153.559C402.853 154.119 403.056 154.637 402.902 154.819Z" fill="white"/>
<path d="M411.071 194.985C410.966 188.055 405.093 171.563 405.093 171.563L375.406 172.816C375.406 172.816 367.832 188.86 368.098 205.1C368.364 221.34 372.998 265.356 372.998 265.356H408.915L407.9 232.4C407.494 221.746 411.274 208.453 411.071 194.985Z" fill="#1F1F1F"/>
<path d="M406.346 175.238C406.32 175.317 406.29 175.394 406.255 175.469L405.968 176.169L404.82 178.696C403.812 180.908 402.363 184.065 400.571 187.964C396.994 195.797 392.045 206.626 387.166 218.827C384.751 224.931 382.616 230.818 380.803 236.215C379.942 238.924 379.081 241.493 378.395 243.915C378.045 245.126 377.695 246.302 377.373 247.415C377.051 248.528 376.778 249.641 376.505 250.677C375.924 252.777 375.511 254.653 375.105 256.319C374.909 257.152 374.727 257.922 374.566 258.636C374.405 259.35 374.286 260.036 374.16 260.603C373.922 261.765 373.733 262.703 373.6 263.312C373.53 263.613 373.481 263.844 373.439 264.012C373.427 264.094 373.406 264.174 373.376 264.25C373.376 264.25 374.139 258.965 376.246 250.607C376.519 249.564 376.799 248.472 377.093 247.331C377.387 246.19 377.751 245.028 378.101 243.831C378.801 241.388 379.627 238.819 380.481 236.131C382.273 230.72 384.401 224.826 386.823 218.708C391.723 206.5 396.693 195.685 400.333 187.908L404.687 178.682C405.205 177.611 405.611 176.778 405.891 176.183C406.031 175.917 406.136 175.7 406.213 175.539C406.243 175.433 406.288 175.332 406.346 175.238Z" fill="#6C6C6C"/>
<path d="M400.088 265.3C399.999 265.156 399.924 265.004 399.864 264.845L399.276 263.522C398.772 262.367 398.086 260.68 397.281 258.58C393.113 247.608 390.254 236.182 388.762 224.539C388.482 222.306 388.293 220.493 388.195 219.24C388.153 218.645 388.118 218.162 388.09 217.798C388.073 217.628 388.073 217.457 388.09 217.287C388.135 217.452 388.163 217.621 388.174 217.791C388.223 218.155 388.279 218.631 388.356 219.191C388.489 220.437 388.72 222.243 389.056 224.469C390.685 236.065 393.534 247.456 397.554 258.454C398.324 260.554 398.954 262.262 399.444 263.431L399.962 264.782C400.026 264.949 400.068 265.123 400.088 265.3Z" fill="#6C6C6C"/>
<path d="M402.902 161.889C402.797 161.889 402.692 157.934 402.664 153.048C402.636 148.162 402.664 144.2 402.79 144.2C402.916 144.2 403 148.155 403.028 153.041C403.056 157.927 403 161.889 402.902 161.889Z" fill="#1F1F1F"/>
<path d="M380.306 127.652C380.39 124.152 380.404 120.491 380.404 120.491C380.404 120.491 375.938 119.63 375.154 113.75C374.594 109.494 375.287 102.151 375.658 98.8401C375.783 97.7368 376.212 96.6898 376.897 95.8161C383.435 93.3521 389.812 94.7381 394.285 100.016L393.2 128.338C393.067 131.628 390.141 134.134 386.62 133.938C383.05 133.798 380.229 130.977 380.306 127.652Z" fill="#FFBE9D"/>
<path d="M376.904 105.287C376.896 105.482 376.965 105.673 377.096 105.818C377.227 105.963 377.409 106.051 377.604 106.064C377.7 106.078 377.798 106.071 377.892 106.045C377.986 106.019 378.073 105.973 378.148 105.911C378.223 105.849 378.285 105.772 378.328 105.685C378.372 105.598 378.397 105.503 378.402 105.406C378.41 105.211 378.341 105.02 378.21 104.875C378.079 104.73 377.897 104.642 377.702 104.629C377.606 104.615 377.507 104.622 377.414 104.648C377.32 104.674 377.233 104.72 377.158 104.782C377.083 104.844 377.021 104.921 376.978 105.008C376.934 105.095 376.909 105.19 376.904 105.287Z" fill="#1F1F1F"/>
<path d="M375.875 104.503C375.966 104.608 376.575 104.202 377.352 104.223C378.129 104.244 378.752 104.664 378.836 104.566C378.92 104.468 378.787 104.349 378.535 104.153C378.19 103.903 377.778 103.764 377.352 103.754C376.931 103.742 376.516 103.865 376.169 104.104C375.917 104.3 375.826 104.461 375.875 104.503Z" fill="#1F1F1F"/>
<path d="M385.248 105.756C385.238 105.952 385.307 106.144 385.438 106.289C385.569 106.435 385.752 106.522 385.948 106.533C386.044 106.547 386.142 106.541 386.236 106.514C386.33 106.488 386.417 106.442 386.492 106.38C386.567 106.319 386.629 106.242 386.672 106.155C386.716 106.068 386.741 105.973 386.746 105.875C386.752 105.681 386.682 105.491 386.552 105.346C386.422 105.201 386.24 105.113 386.046 105.098C385.95 105.085 385.851 105.091 385.758 105.117C385.664 105.144 385.577 105.189 385.502 105.251C385.427 105.313 385.365 105.39 385.322 105.477C385.278 105.564 385.253 105.659 385.248 105.756Z" fill="#1F1F1F"/>
<path d="M384.303 105.001C384.394 105.099 385.003 104.693 385.78 104.714C386.557 104.735 387.18 105.155 387.264 105.064C387.348 104.973 387.215 104.84 386.963 104.644C386.619 104.394 386.206 104.255 385.78 104.245C385.359 104.236 384.946 104.358 384.597 104.595C384.345 104.798 384.261 105.001 384.303 105.001Z" fill="#1F1F1F"/>
<path d="M381.216 110.936C380.791 110.799 380.352 110.71 379.907 110.67C379.697 110.67 379.508 110.593 379.473 110.453C379.463 110.24 379.517 110.028 379.627 109.844L380.278 108.29C380.882 106.973 381.376 105.608 381.755 104.209C381.051 105.475 380.449 106.795 379.956 108.157C379.739 108.71 379.529 109.228 379.326 109.725C379.19 109.973 379.145 110.26 379.2 110.537C379.228 110.61 379.273 110.675 379.33 110.729C379.387 110.782 379.455 110.822 379.529 110.845C379.643 110.879 379.76 110.897 379.879 110.901C380.321 110.975 380.771 110.987 381.216 110.936Z" fill="#1F1F1F"/>
<path d="M380.404 120.492C383.163 120.606 385.899 119.951 388.307 118.602C388.307 118.602 386.298 122.578 380.453 121.878L380.404 120.492Z" fill="#EB996E"/>
<path d="M391.576 107.506C390.876 109.123 389.182 110.369 389.413 112.112C389.567 113.232 390.288 114.282 390.113 115.409C389.938 116.809 388.468 117.81 388.258 119.217C388.006 120.953 389.658 122.297 390.358 123.914C391.338 126.266 390.085 128.912 390.057 131.46C390.107 133.416 390.864 135.287 392.187 136.728C393.509 138.169 395.309 139.083 397.253 139.3C398.828 139.426 400.599 138.95 401.453 137.599C402.153 136.486 401.992 135.072 402.398 133.833C402.993 131.985 404.75 130.634 405.121 128.73C405.821 125.23 401.621 122.388 401.88 118.86C401.999 117.355 402.93 116.06 403.322 114.583C403.578 113.619 403.599 112.608 403.385 111.634C403.171 110.66 402.727 109.751 402.09 108.983C401.061 107.751 399.556 106.939 398.674 105.595C397.673 104.069 397.638 102.095 397.274 100.352C396.814 98.163 395.806 96.1262 394.345 94.433C392.883 92.7398 391.015 91.4457 388.916 90.6719C386.817 89.8981 384.556 89.67 382.345 90.009C380.133 90.3481 378.045 91.2432 376.274 92.6103C376.274 92.6103 375.273 97.1533 379.935 97.9093C384.597 98.6653 386.76 97.7903 387.285 99.6593C387.165 100.431 387.229 101.22 387.472 101.962C387.716 102.704 388.131 103.379 388.685 103.929C390.575 106.071 392.388 105.637 391.576 107.506Z" fill="#1F1F1F"/>
<path d="M382.112 113.05C382.086 112.807 382.142 112.562 382.27 112.354C382.399 112.146 382.592 111.986 382.821 111.899C383.05 111.813 383.301 111.805 383.535 111.876C383.769 111.948 383.973 112.095 384.114 112.294C384.188 112.393 384.237 112.508 384.257 112.63C384.278 112.752 384.27 112.876 384.233 112.994C384.148 113.167 384.011 113.31 383.841 113.4C383.681 113.512 383.5 113.59 383.308 113.63C383.117 113.67 382.92 113.67 382.728 113.631C382.539 113.586 382.372 113.477 382.255 113.323C382.137 113.168 382.077 112.978 382.084 112.784" fill="#EB996E"/>
<path d="M383.939 111.3C383.988 111.3 384.016 111.496 383.939 111.79C383.808 112.173 383.564 112.508 383.239 112.749C382.913 112.992 382.519 113.127 382.112 113.134C381.804 113.134 381.629 113.05 381.636 113.001C382.128 112.894 382.601 112.71 383.036 112.455C383.673 112 383.841 111.3 383.939 111.3Z" fill="#1F1F1F"/>
<path d="M385.5 108.927C385.43 108.997 385.276 108.927 385.157 108.843C385.038 108.759 385.003 108.57 385.073 108.5C385.143 108.43 385.297 108.465 385.416 108.584C385.535 108.703 385.549 108.857 385.5 108.927Z" fill="#EB996E"/>
<path d="M386.613 108.206C386.697 108.262 386.704 108.409 386.613 108.542C386.522 108.675 386.403 108.745 386.312 108.689C386.221 108.633 386.221 108.493 386.312 108.36C386.403 108.227 386.522 108.157 386.613 108.206Z" fill="#EB996E"/>
<path d="M387.859 108.801C387.775 108.857 387.635 108.801 387.551 108.675C387.467 108.549 387.46 108.402 387.551 108.346C387.642 108.29 387.768 108.346 387.859 108.472C387.95 108.598 387.936 108.745 387.859 108.801Z" fill="#EB996E"/>
<path d="M386.627 109.774C386.587 109.808 386.535 109.827 386.482 109.826C386.429 109.826 386.378 109.807 386.338 109.773C386.297 109.738 386.271 109.691 386.262 109.638C386.254 109.586 386.264 109.532 386.291 109.487C386.332 109.453 386.383 109.434 386.436 109.435C386.489 109.435 386.541 109.454 386.581 109.488C386.621 109.523 386.648 109.57 386.656 109.623C386.665 109.675 386.655 109.729 386.627 109.774Z" fill="#EB996E"/>
<path d="M376.4 109.032C376.344 109.116 376.141 109.074 376.029 108.878C375.917 108.682 375.987 108.493 376.085 108.486C376.183 108.479 376.274 108.584 376.344 108.696C376.382 108.742 376.407 108.798 376.417 108.857C376.427 108.916 376.421 108.976 376.4 109.032Z" fill="#EB996E"/>
<path d="M377.296 108.738C377.205 108.738 377.17 108.556 377.219 108.395C377.268 108.234 377.394 108.136 377.492 108.171C377.59 108.206 377.618 108.36 377.569 108.514C377.52 108.668 377.394 108.773 377.296 108.738Z" fill="#EB996E"/>
<path d="M378.108 109.088C378.024 109.039 378.031 108.85 378.108 108.661C378.185 108.472 378.367 108.36 378.451 108.409C378.535 108.458 378.528 108.647 378.451 108.836C378.374 109.025 378.199 109.137 378.108 109.088Z" fill="#EB996E"/>
<path d="M376.883 110.362C376.806 110.432 376.631 110.362 376.547 110.152C376.463 109.942 376.547 109.774 376.624 109.767C376.701 109.76 376.82 109.872 376.883 110.012C376.946 110.152 376.96 110.299 376.883 110.362Z" fill="#EB996E"/>
<path d="M386.34 102.592C386.256 102.781 385.577 102.669 384.772 102.676C383.967 102.683 383.288 102.795 383.204 102.606C383.12 102.417 383.792 101.948 384.772 101.948C385.752 101.948 386.424 102.417 386.34 102.592Z" fill="#1F1F1F"/>
<path d="M377.695 102.901C377.66 103.097 377.149 103.167 376.554 103.139C375.959 103.111 375.462 102.971 375.448 102.768C375.434 102.565 375.952 102.369 376.596 102.411C377.24 102.453 377.73 102.719 377.695 102.901Z" fill="#1F1F1F"/>
<path d="M369.995 186.004C369.869 184.457 376.295 183.603 376.82 183.491C377.345 183.379 377.212 182.595 376.729 182.721C376.029 182.91 368.749 184.66 368.609 183.141C368.525 182.301 370.051 182.294 370.051 182.294C370.051 182.294 376.995 181.16 376.897 180.446C376.799 179.732 372.697 180.257 371.339 180.53C369.981 180.803 369.309 180.271 369.687 179.571C369.939 179.095 374.118 178.171 375.476 177.905C376.834 177.639 380.6 177.1 378.5 175.861C376.4 174.622 375.273 172.942 375.28 172.263C375.298 172.106 375.365 171.959 375.472 171.842C375.578 171.725 375.718 171.644 375.872 171.611C376.027 171.578 376.188 171.594 376.333 171.657C376.478 171.72 376.599 171.827 376.68 171.962C377.215 172.577 377.832 173.114 378.514 173.558C379.066 173.945 379.679 174.236 380.327 174.419C381.027 174.615 381.65 174.755 382.175 174.86C385.801 173.719 403 165.9 403 165.9L403.035 151.074L414.795 148.904L415.033 163.338C415.082 166.325 414.186 169.25 412.474 171.697C410.762 174.144 408.321 175.989 405.499 176.967L383.652 184.555V184.52C381.319 185.635 378.926 186.621 376.484 187.474C373.054 188.517 372.984 188.209 372.9 187.789C372.76 186.662 378.864 185.731 377.436 185.171C376.008 184.611 370.1 187.194 369.995 186.004Z" fill="#FFBE9D"/>
<path d="M117.575 318.948L116.273 324.429C116.273 324.429 107.306 336.07 104.541 335.503C102.728 335.132 104.954 332.094 108.363 323.246L109.063 319.599L117.575 318.948Z" fill="#0063CC"/>
<path d="M104.177 333.781C104.284 333.981 104.45 334.142 104.653 334.243C104.934 334.363 105.242 334.405 105.544 334.363C105.846 334.321 106.131 334.197 106.368 334.005C107.94 332.696 109.432 331.293 110.834 329.805C112.493 328.062 113.886 326.389 114.866 325.15L116.014 323.68C116.119 323.533 116.224 323.4 116.322 323.274C116.355 323.224 116.395 323.179 116.441 323.141C116.441 323.141 116.441 323.197 116.35 323.295C116.259 323.393 116.161 323.561 116.063 323.715C115.811 324.079 115.433 324.597 114.957 325.22C113.706 326.856 112.367 328.424 110.946 329.917C109.542 331.421 108.033 332.824 106.431 334.117C106.134 334.328 105.786 334.458 105.423 334.495C105.146 334.511 104.87 334.451 104.625 334.32C104.472 334.237 104.342 334.116 104.247 333.97C104.21 333.912 104.187 333.848 104.177 333.781Z" fill="#1F1F1F"/>
<path d="M105.444 330.043C105.68 329.95 105.935 329.921 106.186 329.959C106.787 330.019 107.365 330.221 107.873 330.547C108.4 330.848 108.826 331.298 109.098 331.842C109.216 332.057 109.283 332.296 109.294 332.542C109.294 332.542 109.21 332.269 109 331.877C108.711 331.372 108.293 330.954 107.789 330.666C107.297 330.353 106.747 330.144 106.172 330.05C105.731 330.008 105.451 330.071 105.444 330.043Z" fill="#1F1F1F"/>
<path d="M113.935 327.306C113.935 327.306 113.879 327.222 113.823 327.047C113.745 326.802 113.686 326.552 113.648 326.298C113.52 325.444 113.667 324.571 114.068 323.806C114.454 323.029 115.094 322.407 115.881 322.042C116.104 321.937 116.339 321.859 116.581 321.811C116.676 321.794 116.773 321.794 116.868 321.811C116.534 321.898 116.208 322.015 115.895 322.161C115.153 322.541 114.55 323.147 114.173 323.89C113.792 324.632 113.636 325.469 113.725 326.298C113.837 326.9 113.963 327.299 113.935 327.306Z" fill="#1F1F1F"/>
<path d="M117.001 319.9C117.043 319.9 116.84 320.677 116.672 321.65C116.606 322.244 116.45 322.825 116.21 323.372C116.175 323.372 116.35 322.588 116.518 321.615C116.593 321.022 116.756 320.445 117.001 319.9Z" fill="#1F1F1F"/>
<path d="M108.209 324.023C108.584 323.914 108.982 323.914 109.357 324.023C109.743 324.081 110.103 324.251 110.393 324.513C110.393 324.555 109.924 324.317 109.322 324.177C108.72 324.037 108.209 324.1 108.209 324.023Z" fill="#1F1F1F"/>
<path d="M108.02 324.961C108.33 324.833 108.675 324.821 108.993 324.926C109.322 324.976 109.622 325.143 109.84 325.395C109.84 325.395 109.455 325.199 108.951 325.08C108.447 324.961 108.027 325.01 108.02 324.961Z" fill="#1F1F1F"/>
<path d="M107.306 326.137C107.454 326.045 107.62 325.986 107.793 325.965C107.966 325.943 108.141 325.959 108.307 326.011C108.48 326.036 108.645 326.098 108.793 326.192C108.94 326.287 109.065 326.411 109.161 326.557C108.885 326.413 108.597 326.293 108.3 326.2C107.972 326.144 107.639 326.123 107.306 326.137Z" fill="#1F1F1F"/>
<path d="M108.825 323.631C108.825 323.631 109.238 323.519 109.875 323.267C110.249 323.121 110.612 322.948 110.96 322.749C111.156 322.637 111.352 322.511 111.555 322.371C111.758 322.231 111.933 322.035 111.926 321.825C111.919 321.615 111.66 321.496 111.45 321.545C111.236 321.617 111.045 321.745 110.897 321.916C110.568 322.224 110.288 322.525 110.057 322.777C109.602 323.295 109.357 323.638 109.357 323.617C109.401 323.526 109.452 323.439 109.511 323.358C109.623 323.197 109.784 322.973 110.008 322.707C110.261 322.39 110.534 322.091 110.827 321.811C110.993 321.617 111.208 321.471 111.45 321.391C111.524 321.365 111.602 321.356 111.679 321.364C111.757 321.372 111.832 321.397 111.898 321.437C111.965 321.477 112.022 321.531 112.066 321.596C112.109 321.661 112.138 321.734 112.15 321.811C112.136 321.954 112.088 322.093 112.01 322.214C111.932 322.336 111.827 322.438 111.702 322.511C111.504 322.65 111.298 322.779 111.086 322.896C110.73 323.092 110.357 323.258 109.973 323.393C109.714 323.48 109.45 323.552 109.182 323.61C109.065 323.634 108.945 323.641 108.825 323.631Z" fill="#1F1F1F"/>
<path d="M109.294 323.519C109.224 323.188 109.17 322.854 109.133 322.518C109.074 322.159 108.971 321.808 108.825 321.475C108.738 321.285 108.625 321.108 108.489 320.95C108.356 320.796 108.146 320.663 107.978 320.761C107.81 320.859 107.789 321.104 107.81 321.307C107.845 321.514 107.904 321.716 107.985 321.909C108.133 322.238 108.332 322.543 108.573 322.812C108.986 323.274 109.315 323.512 109.273 323.512C109.188 323.476 109.108 323.429 109.035 323.372C108.835 323.222 108.645 323.059 108.468 322.882C108.205 322.612 107.99 322.3 107.831 321.958C107.735 321.756 107.669 321.542 107.635 321.321C107.606 321.193 107.614 321.059 107.657 320.936C107.701 320.812 107.778 320.703 107.88 320.621C108.005 320.573 108.142 320.569 108.27 320.61C108.397 320.651 108.506 320.734 108.58 320.845C108.727 321.016 108.845 321.21 108.93 321.419C109.079 321.762 109.176 322.125 109.217 322.497C109.252 322.812 109.266 323.064 109.273 323.239C109.296 323.33 109.303 323.425 109.294 323.519Z" fill="#1F1F1F"/>
<g opacity="0.4">
<path opacity="0.4" d="M116.273 324.429L116.903 321.797C116.903 321.797 114.705 322.203 114.138 323.848C113.801 324.741 113.653 325.695 113.704 326.648L108.93 331.8C108.93 331.8 107.733 329.462 105.563 330.022C105.563 330.022 103.855 333.781 103.911 334.719C103.967 335.657 105.059 335.545 105.444 335.37C107.023 334.455 108.463 333.318 109.721 331.996C112.248 329.371 115.048 326.046 116.273 324.429Z" fill="#1F1F1F"/>
</g>
<path d="M160.506 322.469L160.548 315.161L146.856 315L146.681 325.689L147.528 325.752C151.308 326.011 166.743 326.788 169.284 326.053C172.105 325.234 160.506 322.469 160.506 322.469Z" fill="#0063CC"/>
<g opacity="0.4">
<path opacity="0.4" d="M151.651 325.64C151.46 324.482 150.85 323.436 149.936 322.7C149.041 321.969 147.904 321.602 146.751 321.671L146.702 325.493L151.651 325.64Z" fill="#1F1F1F"/>
</g>
<g opacity="0.4">
<path opacity="0.4" d="M166.176 324.023C166.176 324.023 170.236 325.248 169.718 325.913C169.2 326.578 153.569 326.382 146.681 325.689V325.388L164.881 325.773C164.881 325.773 165.378 324.051 166.176 324.023Z" fill="#1F1F1F"/>
</g>
<path d="M146.492 325.374H146.73L147.43 325.423L149.922 325.563C152.022 325.661 154.927 325.766 158.133 325.808C161.339 325.85 164.251 325.808 166.351 325.808L168.843 325.73H169.543C169.62 325.735 169.697 325.735 169.774 325.73C169.695 325.719 169.615 325.719 169.536 325.73H168.836H166.344C164.244 325.73 161.339 325.73 158.126 325.73C154.913 325.73 152.015 325.598 149.915 325.528L147.43 325.444H146.73L146.492 325.374Z" fill="#1F1F1F"/>
<path d="M164.937 325.983C165.047 325.571 165.207 325.173 165.413 324.8C165.662 324.454 165.951 324.139 166.274 323.862C165.866 324.036 165.52 324.33 165.281 324.705C165.042 325.08 164.923 325.518 164.937 325.962V325.983Z" fill="#1F1F1F"/>
<path d="M160.919 323.883C160.961 323.883 161.157 323.673 161.36 323.365C161.504 323.186 161.606 322.978 161.661 322.756C161.619 322.756 161.423 322.959 161.22 323.274C161.075 323.452 160.972 323.66 160.919 323.883Z" fill="#1F1F1F"/>
<path d="M159.82 323.281C159.82 323.316 160.065 323.176 160.303 322.966C160.541 322.756 160.716 322.56 160.681 322.525C160.646 322.49 160.436 322.637 160.198 322.84C159.96 323.043 159.792 323.246 159.82 323.281Z" fill="#1F1F1F"/>
<path d="M159.134 322C159.357 322.086 159.596 322.122 159.834 322.105C160.07 322.136 160.309 322.112 160.534 322.035C160.311 321.951 160.072 321.917 159.834 321.937C159.599 321.911 159.361 321.932 159.134 322Z" fill="#1F1F1F"/>
<path d="M158.903 321.069C159.139 321.227 159.417 321.31 159.701 321.307C159.98 321.359 160.268 321.324 160.527 321.209C160.259 321.164 159.987 321.143 159.715 321.146C159.448 321.09 159.176 321.064 158.903 321.069Z" fill="#1F1F1F"/>
<path d="M161.402 322.7C161.691 322.752 161.987 322.752 162.277 322.7C162.597 322.664 162.914 322.598 163.222 322.504C163.409 322.455 163.59 322.384 163.761 322.294C163.865 322.233 163.942 322.136 163.978 322.021C163.995 321.957 163.992 321.889 163.969 321.826C163.947 321.764 163.906 321.71 163.852 321.671C163.519 321.502 163.137 321.453 162.772 321.533C162.407 321.614 162.081 321.818 161.85 322.112C161.711 322.285 161.611 322.485 161.556 322.7C161.536 322.778 161.536 322.86 161.556 322.938C161.649 322.666 161.789 322.413 161.969 322.189C162.169 321.959 162.432 321.794 162.725 321.713C162.896 321.655 163.078 321.633 163.258 321.647C163.439 321.661 163.615 321.712 163.775 321.797C163.908 321.902 163.852 322.063 163.698 322.154C163.54 322.239 163.373 322.307 163.201 322.357C162.903 322.455 162.599 322.532 162.291 322.588C161.738 322.7 161.402 322.7 161.402 322.7Z" fill="#1F1F1F"/>
<path d="M161.626 322.742C161.737 322.56 161.777 322.343 161.738 322.133C161.712 321.903 161.633 321.683 161.507 321.489C161.437 321.36 161.337 321.251 161.215 321.17C161.093 321.09 160.953 321.04 160.807 321.027C160.718 321.047 160.64 321.1 160.588 321.175C160.536 321.25 160.514 321.342 160.527 321.433C160.546 321.573 160.596 321.707 160.674 321.825C160.786 322.021 160.923 322.202 161.08 322.364C161.216 322.525 161.389 322.65 161.584 322.728C161.584 322.728 161.409 322.567 161.171 322.287C161.031 322.123 160.909 321.945 160.807 321.755C160.688 321.566 160.611 321.23 160.807 321.195C161.003 321.16 161.248 321.398 161.381 321.573C161.502 321.744 161.584 321.94 161.619 322.147C161.641 322.344 161.643 322.544 161.626 322.742Z" fill="#1F1F1F"/>
<path d="M146.8 321.629C146.8 321.629 147.192 321.629 147.808 321.678C148.615 321.775 149.377 322.1 150.005 322.614C150.634 323.129 151.103 323.811 151.357 324.583C151.56 325.171 151.574 325.57 151.609 325.563C151.623 325.472 151.623 325.38 151.609 325.29C151.592 325.038 151.545 324.788 151.469 324.548C151.233 323.741 150.76 323.024 150.111 322.49C149.46 321.957 148.661 321.634 147.822 321.566C147.571 321.54 147.318 321.54 147.066 321.566C146.975 321.572 146.885 321.593 146.8 321.629Z" fill="#1F1F1F"/>
<path d="M148.312 315.952C148.206 316.881 148.154 317.816 148.158 318.752C148.1 319.684 148.1 320.619 148.158 321.552C148.26 320.622 148.311 319.687 148.312 318.752C148.367 317.819 148.367 316.884 148.312 315.952Z" fill="#1F1F1F"/>
<path d="M153.387 324.331C154.04 324.492 154.71 324.567 155.382 324.555C156.055 324.597 156.73 324.552 157.391 324.422C157.391 324.373 156.488 324.422 155.389 324.422C154.29 324.422 153.394 324.282 153.387 324.331Z" fill="#1F1F1F"/>
<path d="M150.706 324.289C150.671 324.324 150.776 324.485 150.867 324.688C150.958 324.891 151 325.08 151.049 325.073C151.098 325.066 151.119 324.863 151.049 324.625C150.979 324.387 150.734 324.261 150.706 324.289Z" fill="#1F1F1F"/>
<path d="M149.712 323.022C149.712 323.022 149.761 323.197 149.901 323.344C150.041 323.491 150.181 323.582 150.216 323.547C150.251 323.512 150.16 323.372 150.02 323.225C149.88 323.078 149.74 322.987 149.712 323.022Z" fill="#1F1F1F"/>
<path d="M148.27 322.427C148.27 322.476 148.459 322.476 148.662 322.546C148.865 322.616 149.005 322.728 149.04 322.7C149.075 322.672 148.963 322.476 148.718 322.392C148.473 322.308 148.256 322.385 148.27 322.427Z" fill="#1F1F1F"/>
<path d="M147.241 322.14C147.241 322.182 147.304 322.259 147.416 322.301C147.528 322.343 147.633 322.35 147.654 322.301C147.675 322.252 147.591 322.189 147.479 322.14C147.367 322.091 147.262 322.098 147.241 322.14Z" fill="#1F1F1F"/>
<path d="M169.767 181.503L164.51 318.724L143.188 319.172L146.73 200.27L122.748 320.082H102.476L128.593 181.776L169.767 181.503Z" fill="#1F1F1F"/>
<path d="M151.644 186.494C151.622 187.253 151.54 188.009 151.399 188.755C151.196 190.155 150.902 192.059 150.545 194.173C150.41 195.177 150.207 196.171 149.936 197.148C149.696 197.975 149.207 198.708 148.536 199.248C148.091 199.612 147.557 199.854 146.989 199.948C146.785 200 146.571 200 146.366 199.948C147.133 199.849 147.852 199.521 148.429 199.006C149.007 198.491 149.415 197.814 149.6 197.064C149.844 196.097 150.033 195.118 150.167 194.131C150.524 192.031 150.867 190.106 151.126 188.734C151.236 187.974 151.409 187.224 151.644 186.494Z" fill="#6C6C6C"/>
<path d="M147.206 187.152C147.255 187.187 147.08 187.404 147.206 187.768C147.23 187.865 147.274 187.955 147.335 188.034C147.397 188.112 147.474 188.177 147.563 188.223C147.669 188.269 147.787 188.281 147.901 188.259C148.015 188.236 148.119 188.18 148.2 188.097C148.29 188.026 148.357 187.931 148.394 187.823C148.432 187.715 148.437 187.599 148.41 187.488C148.375 187.393 148.32 187.307 148.249 187.236C148.177 187.165 148.091 187.11 147.997 187.075C147.654 186.928 147.409 187.075 147.381 187.019C147.353 186.963 147.577 186.711 148.081 186.823C148.225 186.856 148.359 186.923 148.472 187.018C148.585 187.113 148.674 187.233 148.732 187.369C148.787 187.547 148.79 187.738 148.739 187.918C148.688 188.098 148.586 188.259 148.445 188.382C148.304 188.505 148.131 188.585 147.945 188.611C147.76 188.638 147.571 188.61 147.402 188.531C147.278 188.456 147.172 188.355 147.094 188.233C147.015 188.112 146.965 187.974 146.947 187.831C146.87 187.306 147.192 187.103 147.206 187.152Z" fill="#6C6C6C"/>
<path d="M135.754 189.105C135.5 188.487 135.403 187.814 135.474 187.149C135.545 186.484 135.781 185.848 136.16 185.297C136.265 185.346 135.957 186.151 135.852 187.194C135.747 188.237 135.866 189.084 135.754 189.105Z" fill="#6C6C6C"/>
<path d="M138.323 188.944C138.01 188.321 137.902 187.615 138.015 186.928C138 186.232 138.203 185.549 138.596 184.975C138.564 185.638 138.494 186.3 138.386 186.956C138.402 187.619 138.381 188.283 138.323 188.944Z" fill="#6C6C6C"/>
<path d="M160.359 189.504C160.34 188.816 160.38 188.127 160.478 187.446C160.454 186.756 160.484 186.066 160.569 185.381C160.858 186.04 160.958 186.768 160.856 187.481C160.872 188.187 160.7 188.885 160.359 189.504Z" fill="#6C6C6C"/>
<path d="M163.145 189.35C163.04 189.308 163.369 188.412 163.446 187.25C163.523 186.088 163.327 185.15 163.446 185.15C163.81 185.801 163.948 186.554 163.838 187.292C163.838 188.035 163.595 188.758 163.145 189.35Z" fill="#6C6C6C"/>
<path d="M140.059 124.411L153.219 123.361C153.303 121.821 153.219 115.878 153.219 115.878C153.219 115.878 158.7 115.024 158.763 109.578C158.826 104.132 157.881 91.5246 157.881 91.5246C154.768 90.1865 151.354 89.7042 147.992 90.1276C144.63 90.5509 141.442 91.8645 138.757 93.9326L137.945 94.5556L140.059 124.411Z" fill="#FFBE9D"/>
<path d="M153.205 115.794C150.677 115.845 148.19 115.141 146.065 113.771C146.065 113.771 147.752 117.712 153.212 117.215L153.205 115.794Z" fill="#EB996E"/>
<path d="M138.596 100.198C138.505 100.156 134.83 99.0851 134.949 102.83C135.068 106.575 138.806 105.679 138.806 105.574C138.806 105.469 138.596 100.198 138.596 100.198Z" fill="#FFBE9D"/>
<path d="M137.623 104.195C137.623 104.195 137.553 104.237 137.448 104.293C137.291 104.356 137.116 104.356 136.958 104.293C136.716 104.148 136.516 103.943 136.377 103.698C136.239 103.452 136.166 103.175 136.167 102.893C136.148 102.573 136.201 102.252 136.321 101.955C136.352 101.836 136.411 101.726 136.494 101.636C136.577 101.545 136.681 101.477 136.797 101.437C136.871 101.415 136.95 101.421 137.02 101.451C137.09 101.482 137.148 101.536 137.182 101.605C137.238 101.71 137.217 101.787 137.238 101.787C137.259 101.787 137.315 101.724 137.28 101.57C137.258 101.477 137.203 101.395 137.126 101.339C137.02 101.266 136.89 101.236 136.762 101.255C136.61 101.292 136.47 101.367 136.354 101.472C136.238 101.577 136.15 101.709 136.097 101.857C135.95 102.186 135.885 102.547 135.908 102.907C135.9 103.241 135.99 103.57 136.168 103.853C136.347 104.135 136.604 104.359 136.909 104.496C137.011 104.522 137.117 104.525 137.22 104.504C137.323 104.483 137.42 104.44 137.504 104.377C137.616 104.3 137.63 104.195 137.623 104.195Z" fill="#EB996E"/>
<path d="M156.061 99.9249C156.063 100.129 155.985 100.326 155.844 100.474C155.703 100.622 155.509 100.709 155.305 100.716C155.206 100.723 155.107 100.711 155.012 100.68C154.918 100.649 154.831 100.599 154.756 100.534C154.681 100.469 154.62 100.39 154.576 100.301C154.532 100.212 154.506 100.115 154.5 100.016C154.498 99.8115 154.576 99.6144 154.717 99.4667C154.858 99.3189 155.052 99.2322 155.256 99.2249C155.355 99.2172 155.454 99.2294 155.549 99.2606C155.643 99.2917 155.73 99.3413 155.805 99.4065C155.88 99.4716 155.941 99.551 155.985 99.64C156.029 99.7289 156.055 99.8258 156.061 99.9249Z" fill="#1F1F1F"/>
<path d="M156.817 99.204C156.719 99.302 156.117 98.868 155.291 98.868C154.465 98.868 153.828 99.288 153.737 99.19C153.646 99.092 153.793 98.959 154.059 98.763C154.425 98.5103 154.86 98.3759 155.305 98.378C155.742 98.3787 156.168 98.5158 156.523 98.77C156.782 98.973 156.866 99.155 156.817 99.204Z" fill="#1F1F1F"/>
<path d="M147.626 99.9879C147.631 100.091 147.615 100.194 147.579 100.291C147.543 100.388 147.489 100.477 147.418 100.553C147.348 100.628 147.263 100.689 147.169 100.731C147.075 100.774 146.973 100.797 146.87 100.8C146.771 100.807 146.671 100.795 146.577 100.764C146.483 100.733 146.396 100.683 146.321 100.618C146.246 100.553 146.185 100.474 146.141 100.385C146.097 100.296 146.071 100.199 146.065 100.1C146.065 99.8967 146.144 99.7014 146.285 99.5552C146.426 99.4089 146.618 99.3231 146.821 99.3159C147.016 99.3002 147.21 99.3618 147.361 99.4875C147.511 99.6131 147.606 99.7928 147.626 99.9879Z" fill="#1F1F1F"/>
<path d="M148.55 99.3579C148.452 99.4629 147.85 99.0219 147.017 99.0219C146.184 99.0219 145.561 99.4489 145.47 99.3439C145.379 99.2389 145.519 99.1129 145.792 98.9169C146.155 98.6635 146.589 98.5312 147.031 98.5389C147.469 98.5358 147.895 98.6732 148.249 98.9309C148.508 99.1269 148.592 99.3159 148.55 99.3579Z" fill="#1F1F1F"/>
<path d="M151.602 105.602C152.045 105.46 152.503 105.376 152.967 105.35C153.184 105.35 153.387 105.287 153.422 105.14C153.438 104.919 153.389 104.697 153.282 104.503L152.645 102.865C152.063 101.48 151.594 100.049 151.245 98.5879C151.942 99.9262 152.534 101.316 153.016 102.746L153.625 104.391C153.757 104.65 153.794 104.947 153.73 105.231C153.701 105.307 153.654 105.376 153.593 105.43C153.532 105.485 153.459 105.525 153.38 105.546C153.261 105.577 153.139 105.594 153.016 105.595C152.547 105.655 152.072 105.657 151.602 105.602Z" fill="#1F1F1F"/>
<path d="M149.124 106.183C149.264 106.183 149.264 107.086 150.048 107.737C150.832 108.388 151.798 108.283 151.805 108.437C151.812 108.591 151.588 108.619 151.182 108.626C150.645 108.635 150.122 108.454 149.705 108.115C149.312 107.788 149.06 107.321 149.005 106.813C148.963 106.4 149.061 106.176 149.124 106.183Z" fill="#1F1F1F"/>
<path d="M148.767 96.0609C148.683 96.2919 147.843 96.1799 146.856 96.2989C145.869 96.4179 145.071 96.6909 144.938 96.4809C144.882 96.3829 145.015 96.1729 145.337 95.9489C145.758 95.6745 146.238 95.5041 146.737 95.4519C147.243 95.3908 147.757 95.4508 148.235 95.6269C148.62 95.7739 148.802 95.9489 148.767 96.0609Z" fill="#1F1F1F"/>
<path d="M156.509 96.7677C156.362 96.9567 155.809 96.7677 155.109 96.7677C154.409 96.7677 153.821 96.9007 153.709 96.6977C153.597 96.4947 153.709 96.4107 154.003 96.2287C154.349 96.0108 154.753 95.9011 155.162 95.9136C155.571 95.926 155.967 96.0601 156.299 96.2987C156.495 96.4737 156.6 96.6697 156.509 96.7677Z" fill="#1F1F1F"/>
<path d="M160.52 88.0388C160.56 87.6995 160.513 87.3556 160.383 87.0396C160.253 86.7236 160.045 86.4459 159.778 86.2328C159.501 86.0315 159.162 85.9351 158.821 85.9607C158.48 85.9863 158.159 86.1324 157.916 86.3728C157.968 86.1467 157.972 85.9124 157.928 85.6847C157.884 85.457 157.794 85.2408 157.662 85.05C157.531 84.8591 157.361 84.6976 157.163 84.5759C156.966 84.4542 156.746 84.3748 156.516 84.3428C155.62 84.2868 154.864 84.9658 153.996 85.1968C153.135 85.3793 152.238 85.2761 151.441 84.9028C150.629 84.5808 149.873 84.1258 149.054 83.8248C147.32 83.1901 145.405 83.2665 143.726 84.0375C142.048 84.8085 140.742 86.2114 140.094 87.9408C139.483 87.7892 138.84 87.8273 138.251 88.0498C137.662 88.2724 137.155 88.669 136.797 89.1868C136.102 90.2461 135.825 91.5258 136.02 92.7778C136.136 93.6174 136.345 94.4415 136.643 95.2348C136.643 95.3048 136.643 95.3748 136.643 95.4448C136.706 98.4618 137.042 101.997 138.33 102.018C140.57 102.018 140.031 97.8178 140.031 97.8178C142.782 96.7538 141.76 92.6378 142.446 92.0148C143.132 91.3918 144.546 89.9148 150.321 92.8758C152.462 93.8314 154.849 94.091 157.146 93.6178H157.293H157.342C157.865 93.4873 158.363 93.2746 158.819 92.9878C159.359 92.6787 159.785 92.2053 160.037 91.6368C160.154 91.3507 160.186 91.0371 160.13 90.7332C160.075 90.4292 159.933 90.1477 159.722 89.9218C160.172 89.3889 160.45 88.7325 160.52 88.0388Z" fill="#1F1F1F"/>
<path d="M150.3 99.9525C150.265 99.9525 150.3 99.6515 150.125 99.1405C149.92 98.4232 149.482 97.795 148.879 97.3555C148.397 96.9957 147.825 96.7771 147.226 96.7241C146.627 96.6711 146.025 96.7857 145.488 97.0552C144.95 97.3247 144.498 97.7384 144.182 98.2501C143.866 98.7617 143.699 99.3512 143.699 99.9525C143.699 100.554 143.866 101.143 144.182 101.655C144.498 102.167 144.95 102.58 145.488 102.85C146.025 103.119 146.627 103.234 147.226 103.181C147.825 103.128 148.397 102.909 148.879 102.549C149.479 102.107 149.917 101.48 150.125 100.764C150.272 100.253 150.265 99.9525 150.3 99.9525C150.335 99.9525 150.3 100.022 150.3 100.169C150.305 100.381 150.284 100.593 150.237 100.799C150.07 101.574 149.637 102.265 149.012 102.752C148.546 103.121 147.993 103.364 147.406 103.46C146.82 103.555 146.218 103.5 145.659 103.298C145.175 103.128 144.733 102.854 144.364 102.495C143.996 102.137 143.71 101.703 143.526 101.223C143.342 100.743 143.264 100.229 143.298 99.7164C143.332 99.2037 143.477 98.7044 143.723 98.2531C143.969 97.8019 144.31 97.4094 144.722 97.1029C145.135 96.7963 145.609 96.583 146.112 96.4777C146.615 96.3724 147.134 96.3775 147.635 96.4928C148.136 96.6081 148.606 96.8308 149.012 97.1455C149.637 97.6354 150.071 98.329 150.237 99.1055C150.284 99.3121 150.305 99.5237 150.3 99.7355C150.3 99.8755 150.3 99.9525 150.3 99.9525Z" fill="#1F1F1F"/>
<path d="M159.4 99.953C159.4 99.953 159.4 99.652 159.225 99.141C159.02 98.4254 158.585 97.7977 157.986 97.356C157.504 96.9962 156.932 96.7776 156.333 96.7246C155.734 96.6716 155.132 96.7862 154.594 97.0557C154.057 97.3252 153.605 97.7389 153.289 98.2506C152.973 98.7622 152.806 99.3517 152.806 99.953C152.806 100.554 152.973 101.144 153.289 101.655C153.605 102.167 154.057 102.581 154.594 102.85C155.132 103.12 155.734 103.234 156.333 103.181C156.932 103.128 157.504 102.91 157.986 102.55C158.582 102.106 159.017 101.479 159.225 100.765C159.372 100.254 159.365 99.953 159.4 99.953C159.435 99.953 159.4 100.023 159.4 100.17C159.404 100.382 159.383 100.593 159.337 100.8C159.17 101.574 158.736 102.266 158.112 102.753C157.646 103.12 157.095 103.363 156.509 103.458C155.924 103.554 155.324 103.499 154.766 103.299C154.074 103.054 153.475 102.601 153.051 102.002C152.627 101.403 152.4 100.687 152.4 99.953C152.4 99.2191 152.627 98.5032 153.051 97.904C153.475 97.3047 154.074 96.8516 154.766 96.607C155.324 96.4061 155.923 96.3502 156.508 96.4445C157.094 96.5387 157.645 96.7801 158.112 97.146C158.737 97.6359 159.17 98.3295 159.337 99.106C159.384 99.3126 159.405 99.5242 159.4 99.736C159.4 99.876 159.4 99.953 159.4 99.953Z" fill="#1F1F1F"/>
<path d="M152.855 99.7429C152.813 99.8409 152.246 99.6729 151.539 99.7079C150.832 99.7429 150.279 99.9389 150.23 99.8479C150.181 99.7569 150.727 99.3719 151.525 99.3439C152.323 99.3159 152.904 99.6589 152.855 99.7429Z" fill="#1F1F1F"/>
<path d="M143.454 99.7075C142.678 99.9296 141.874 100.036 141.067 100.023C140.266 100.124 139.455 100.107 138.659 99.9735C139.434 99.7466 140.239 99.6403 141.046 99.6585C141.847 99.558 142.658 99.5745 143.454 99.7075Z" fill="#1F1F1F"/>
<path d="M176.753 143.367L181.1 151.2L183.753 129.899C183.87 128.355 183.565 126.809 182.871 125.426C182.58 124.807 182.218 124.225 181.793 123.69C181.256 123.027 180.632 122.441 179.938 121.947C179.791 121.88 179.668 121.768 179.587 121.628C179.506 121.488 179.47 121.326 179.486 121.165C179.501 121.004 179.567 120.852 179.673 120.73C179.779 120.607 179.921 120.521 180.078 120.484C180.778 120.407 182.668 121.422 184.159 123.466C185.65 125.51 185.804 121.576 185.888 120.148C185.972 118.72 186.434 114.324 186.889 114.009C187.589 113.554 188.191 114.205 188.079 115.633C187.967 117.061 187.911 121.352 188.667 121.38C189.423 121.408 189.731 114.128 189.731 114.128C189.731 114.128 189.549 112.553 190.431 112.56C191.999 112.56 191.089 120.26 190.984 120.96C190.914 121.464 191.733 121.527 191.782 120.96C191.831 120.393 191.936 113.694 193.532 113.68C194.764 113.68 192.832 120.022 193.588 121.443C194.344 122.864 194.554 116.466 195.73 116.508C196.164 116.508 196.493 116.592 195.842 120.232C195.492 122.192 194.197 125.013 193.805 128.835L193.7 129.822C193.623 134.582 192.573 148.925 188.247 159.845C187.642 161.336 186.642 162.635 185.354 163.6C184.066 164.566 182.539 165.162 180.938 165.324C179.336 165.486 177.721 165.208 176.266 164.52C174.81 163.832 173.57 162.76 172.679 161.42C170.019 157.409 165.812 146.923 165.812 146.923L176.753 143.367Z" fill="#FFBE9D"/>
<path d="M191.432 126.896C191.432 126.931 191.187 126.896 190.809 127.057C190.299 127.235 189.869 127.59 189.598 128.058L189.451 128.324L189.367 128.03C189.244 127.611 189.047 127.218 188.786 126.868C188.28 126.183 187.58 125.666 186.777 125.384C186.161 125.167 185.741 125.181 185.741 125.125C186.105 125.051 186.483 125.078 186.833 125.202C187.708 125.439 188.476 125.968 189.01 126.7C189.29 127.075 189.494 127.5 189.612 127.953H189.381C189.533 127.696 189.736 127.474 189.976 127.298C190.217 127.122 190.491 126.997 190.781 126.931C190.989 126.851 191.217 126.839 191.432 126.896Z" fill="#EB996E"/>
<path d="M168.745 127.82L181.1 151.2L183.2 130.529H194.267L190.2 159.992C190.006 161.616 189.355 163.151 188.323 164.42C187.29 165.689 185.919 166.639 184.369 167.16C180.351 168.511 175.01 166.936 173.029 163.191L165.791 150.871L168.745 127.82Z" fill="#0063CC"/>
<path d="M181.87 160.874C181.518 160.488 181.239 160.042 181.044 159.558C179.96 157.26 179.712 154.655 180.344 152.194C180.452 151.681 180.646 151.191 180.918 150.745C179.912 154.115 180.248 157.745 181.856 160.874H181.87Z" fill="#1F1F1F"/>
<g opacity="0.3">
<path opacity="0.3" d="M180.75 150.416C179.618 151.203 178.843 152.406 178.594 153.762C178.344 155.106 178.318 156.483 178.517 157.836C178.526 158.228 178.632 158.613 178.825 158.956C178.925 159.124 179.079 159.253 179.263 159.321C179.446 159.39 179.647 159.394 179.833 159.334C179.977 159.251 180.095 159.13 180.174 158.984C180.253 158.838 180.29 158.673 180.281 158.508C180.257 158.179 180.184 157.855 180.064 157.549C179.715 156.397 179.625 155.182 179.8 153.991C179.976 152.8 180.412 151.663 181.079 150.661" fill="#1F1F1F"/>
</g>
<path d="M133.724 122.346C135.572 121.996 137.364 121.324 139.534 121.233C144.09 122.671 148.978 122.671 153.534 121.233C154.108 121.31 154.934 121.38 155.893 121.499C161.99 122.199 164.328 123.508 168.71 127.799L168.227 152.474C168.227 152.474 169.697 180.558 169.627 185.094H127.963L127.9 166.068V160.888L114.222 165.9L115.468 158.704C115.468 158.704 121.6 134.82 122.566 131.6C123.7 127.694 127.9 123.459 133.724 122.346Z" fill="#0063CC"/>
<path d="M120.501 159.082L140.5 153.881L146.219 163.184L125.849 171.759C124.783 172.231 123.627 172.469 122.461 172.459C120.827 172.457 119.231 171.971 117.874 171.061C116.517 170.151 115.46 168.859 114.838 167.349L114.222 165.837L120.501 159.082Z" fill="#0063CC"/>
<path d="M130.924 157.052C130.826 157.052 130.742 153.377 130.742 148.848C130.742 144.319 130.826 140.651 130.924 140.651C131.022 140.651 131.113 144.319 131.113 148.848C131.113 153.377 131.029 157.052 130.924 157.052Z" fill="#1F1F1F"/>
<g opacity="0.3">
<path opacity="0.3" d="M127.753 171.024C128.405 172.075 129.326 172.932 130.42 173.509C132.919 174.86 136.02 174.825 138.701 173.943C141.369 172.955 143.838 171.494 145.988 169.631C148.927 167.259 151.641 164.621 154.094 161.749C154.188 161.666 154.264 161.564 154.315 161.449C154.365 161.334 154.39 161.209 154.388 161.084C154.318 160.65 153.688 160.594 153.282 160.657C149.138 161.315 145.358 163.324 141.578 165.151C137.084 167.325 132.487 169.281 127.788 171.017" fill="#1F1F1F"/>
</g>
<path d="M167.1 143.087C167.081 143.152 167.055 143.216 167.023 143.276L166.764 143.815C166.645 144.046 166.47 144.319 166.274 144.648C166.026 145.015 165.757 145.368 165.469 145.705C164.681 146.633 163.755 147.436 162.725 148.085C161.361 148.952 159.842 149.546 158.252 149.835C156.314 150.18 154.321 150.043 152.449 149.436C150.299 148.738 148.354 147.522 146.786 145.894C145.021 144.108 143.806 141.854 143.286 139.398C143.019 138.099 143.007 136.76 143.251 135.457C143.517 134.111 144.097 132.847 144.945 131.768C145.794 130.675 146.941 129.853 148.249 129.402C148.896 129.179 149.586 129.107 150.265 129.192C150.947 129.284 151.581 129.591 152.078 130.067C152.324 130.302 152.522 130.584 152.659 130.897C152.796 131.209 152.87 131.546 152.876 131.887C152.873 132.547 152.676 133.192 152.309 133.742C151.563 134.756 150.459 135.449 149.222 135.681C147.016 136.179 144.721 136.133 142.537 135.548C140.221 134.936 138.103 133.735 136.389 132.062C134.676 130.389 133.425 128.3 132.758 126C132.442 125.015 132.272 123.989 132.254 122.955C132.272 123.019 132.284 123.084 132.289 123.151L132.373 123.739C132.491 124.49 132.667 125.232 132.898 125.958C133.745 128.627 135.362 130.987 137.546 132.741C139.06 133.929 140.805 134.789 142.67 135.268C144.805 135.826 147.042 135.862 149.194 135.373C150.345 135.152 151.372 134.507 152.071 133.567C152.4 133.076 152.575 132.498 152.575 131.908C152.571 131.612 152.506 131.321 152.386 131.052C152.266 130.782 152.092 130.54 151.875 130.34C151.432 129.915 150.866 129.643 150.258 129.563C149.633 129.485 148.998 129.552 148.403 129.759C147.167 130.193 146.081 130.973 145.274 132.006C144.463 133.041 143.907 134.251 143.65 135.541C143.405 136.796 143.405 138.086 143.65 139.342C144.144 141.73 145.31 143.928 147.01 145.677C148.537 147.274 150.43 148.475 152.526 149.177C154.352 149.781 156.299 149.93 158.196 149.611C159.759 149.339 161.256 148.771 162.606 147.938C163.627 147.31 164.552 146.536 165.35 145.642C166.027 144.858 166.614 144.001 167.1 143.087Z" fill="#D7E1EA"/>
<path d="M168.85 170.359C168.564 169.475 168.181 168.625 167.709 167.825C167.053 166.747 166.17 165.824 165.122 165.121C164.074 164.417 162.886 163.95 161.64 163.751C159.923 163.453 158.163 163.535 156.481 163.989C155.544 164.232 154.634 164.57 153.765 164.997C152.839 165.432 151.985 166.006 151.231 166.698C150.448 167.414 149.934 168.378 149.775 169.428C149.683 169.96 149.747 170.508 149.96 171.005C150.172 171.501 150.524 171.926 150.972 172.228C151.42 172.557 151.981 172.694 152.531 172.61C153.081 172.526 153.575 172.227 153.905 171.78C154.613 170.821 155.092 169.712 155.305 168.539C155.799 166.219 155.639 163.808 154.843 161.574C154.12 159.485 152.877 157.616 151.231 156.142C149.739 154.806 147.994 153.785 146.1 153.139C144.078 152.432 141.93 152.162 139.796 152.348C137.663 152.534 135.593 153.171 133.724 154.217C132.933 154.644 132.359 155.036 131.96 155.295L131.519 155.596L131.358 155.694C132.066 155.082 132.836 154.545 133.654 154.091C135.875 152.789 138.395 152.082 140.969 152.04C142.746 152.008 144.515 152.282 146.198 152.852C148.138 153.497 149.927 154.531 151.455 155.89C153.148 157.4 154.432 159.314 155.186 161.455C156.005 163.754 156.17 166.235 155.662 168.623C155.442 169.851 154.944 171.012 154.206 172.018C153.815 172.527 153.243 172.864 152.608 172.96C151.974 173.055 151.327 172.9 150.804 172.529C150.282 172.196 149.88 171.706 149.656 171.129C149.441 170.574 149.371 169.974 149.453 169.386C149.614 168.26 150.16 167.226 151 166.46C151.78 165.748 152.662 165.158 153.618 164.71C154.514 164.277 155.453 163.937 156.418 163.695C158.144 163.248 159.947 163.178 161.703 163.492C162.976 163.709 164.186 164.203 165.247 164.939C166.309 165.674 167.197 166.633 167.849 167.748C168.2 168.349 168.481 168.987 168.689 169.652C168.745 169.824 168.791 169.999 168.829 170.177C168.844 170.236 168.851 170.297 168.85 170.359Z" fill="#D7E1EA"/>
<path d="M130.742 146.902C130.742 146.902 130.637 147.077 130.392 147.343C130.06 147.727 129.695 148.081 129.3 148.4C128.71 148.872 128.069 149.279 127.389 149.611C126.552 150.017 125.668 150.317 124.757 150.507C123.1 150.809 121.402 150.809 119.745 150.507C119.245 150.42 118.75 150.308 118.261 150.171C117.918 150.066 117.729 150.003 117.736 149.975C117.743 149.947 118.52 150.094 119.78 150.248C121.41 150.465 123.063 150.424 124.68 150.129C125.56 149.944 126.417 149.662 127.235 149.289C127.904 148.978 128.542 148.603 129.139 148.169C130.147 147.434 130.7 146.86 130.742 146.902Z" fill="#D7E1EA"/>
<path d="M127.011 171.185C126.822 170.437 126.564 169.708 126.241 169.008C125.839 168.179 125.274 167.44 124.58 166.835C123.885 166.23 123.076 165.771 122.2 165.486C121.324 165.202 120.4 165.096 119.483 165.177C118.565 165.257 117.674 165.522 116.861 165.956C116.189 166.332 115.551 166.767 114.957 167.258C115.058 167.071 115.194 166.905 115.356 166.768C115.771 166.355 116.242 166.004 116.756 165.725C117.593 165.241 118.522 164.939 119.483 164.838C120.444 164.737 121.416 164.839 122.335 165.138C123.254 165.437 124.1 165.926 124.817 166.574C125.535 167.221 126.108 168.012 126.5 168.896C126.743 169.42 126.913 169.976 127.004 170.548C127.044 170.758 127.047 170.974 127.011 171.185Z" fill="#D7E1EA"/>
<path d="M171.132 159.6C171.035 159.377 170.971 159.141 170.943 158.9C170.807 158.271 170.721 157.632 170.684 156.989C170.619 156.032 170.643 155.071 170.754 154.119C170.901 152.95 171.17 151.801 171.559 150.689C171.962 149.584 172.483 148.525 173.113 147.532C173.628 146.721 174.218 145.962 174.877 145.264C175.312 144.792 175.779 144.352 176.277 143.948C176.45 143.788 176.643 143.651 176.851 143.542C176.9 143.598 176.109 144.242 175.052 145.439C174.434 146.148 173.875 146.907 173.379 147.707C172.168 149.673 171.384 151.872 171.076 154.161C170.95 155.089 170.901 156.025 170.929 156.961C170.992 158.627 171.202 159.6 171.132 159.6Z" fill="#D7E1EA"/>
<path d="M192.062 145.901C192.062 145.901 191.95 146.076 191.677 146.314C191.275 146.645 190.821 146.908 190.333 147.091C189.523 147.387 188.659 147.506 187.799 147.44C186.939 147.373 186.104 147.123 185.349 146.706C184.511 146.239 183.822 145.545 183.361 144.704C182.992 144.028 182.732 143.298 182.591 142.541C182.486 142.04 182.423 141.532 182.402 141.022C182.363 140.835 182.363 140.642 182.402 140.455C182.465 140.455 182.514 141.253 182.815 142.485C182.992 143.202 183.265 143.892 183.627 144.536C184.074 145.312 184.722 145.953 185.503 146.391C186.219 146.783 187.006 147.026 187.819 147.104C188.631 147.182 189.451 147.094 190.228 146.846C190.875 146.606 191.491 146.289 192.062 145.901Z" fill="#D7E1EA"/>
<path d="M169.634 129.584C169.488 129.722 169.317 129.831 169.13 129.906C168.642 130.148 168.121 130.316 167.583 130.403C166.783 130.532 165.965 130.506 165.175 130.326C164.207 130.099 163.293 129.683 162.487 129.101C161.015 128.027 160.012 126.428 159.687 124.635C159.589 124.102 159.561 123.558 159.603 123.018C159.608 122.817 159.645 122.618 159.715 122.43C159.738 123.15 159.813 123.869 159.939 124.579C160.329 126.261 161.304 127.75 162.69 128.779C163.459 129.333 164.326 129.736 165.245 129.969C165.996 130.155 166.773 130.204 167.541 130.116C168.254 130.002 168.954 129.824 169.634 129.584Z" fill="#D7E1EA"/>
<path d="M147.668 184.8C147.112 183.785 146.505 182.799 145.848 181.846C144.203 179.59 142.059 177.745 139.583 176.456C138.222 175.752 136.781 175.213 135.292 174.853C134.073 174.568 132.826 174.425 131.575 174.426C130.42 174.47 129.268 174.575 128.124 174.741C128.413 174.618 128.717 174.531 129.027 174.482C129.865 174.3 130.718 174.194 131.575 174.167C132.85 174.13 134.124 174.249 135.369 174.524C136.892 174.873 138.364 175.414 139.751 176.134C142.277 177.442 144.441 179.353 146.051 181.699C146.535 182.403 146.961 183.145 147.325 183.918C147.476 184.196 147.591 184.493 147.668 184.8Z" fill="#D7E1EA"/>
<path d="M167.695 138.544C167.793 138.544 168.395 148.862 169.032 161.602C169.669 174.342 170.11 184.667 170.005 184.702C169.9 184.737 169.305 174.384 168.668 161.644C168.031 148.904 167.59 138.551 167.695 138.544Z" fill="#1F1F1F"/>
<path d="M140.5 153.881C141.901 153.19 143.087 152.13 143.93 150.815C144.315 150.244 144.635 149.631 144.882 148.988C145.176 148.183 145.362 147.343 145.435 146.489C145.435 145.698 146.352 145.285 146.779 145.852C147.206 146.419 147.29 148.582 146.289 150.92C145.288 153.258 148.774 151.382 150.055 150.717C151.336 150.052 155.389 148.19 155.893 148.428C156.635 148.778 156.39 149.66 155.095 150.29C153.8 150.92 150.055 153.09 150.419 153.79C150.783 154.49 157.251 150.99 157.251 150.99C157.251 150.99 158.525 150.024 158.966 150.78C159.771 152.18 152.666 155.309 151.966 155.596C151.49 155.792 151.861 156.534 152.365 156.296C152.869 156.058 158.742 152.684 159.575 154.07C160.219 155.127 153.73 156.73 152.876 158.109C152.022 159.488 157.685 156.387 158.259 157.409C158.469 157.801 158.574 158.109 155.081 159.425C153.205 160.125 150.097 160.461 146.583 162.085L145.666 162.498" fill="#FFBE9D"/>
<path d="M126.633 171.43C126.752 171.351 126.878 171.286 127.011 171.234L128.11 170.737L132.226 168.945L146.149 163.016L146.065 163.282L144.203 160.3L140.241 154L140.444 154.07L128.6 157.822L125.17 158.886L124.246 159.152L123.924 159.229C124.019 159.169 124.123 159.125 124.232 159.096L125.135 158.774L128.53 157.619L140.318 153.72L140.451 153.678L140.521 153.79L144.497 160.09L146.359 163.072L146.471 163.247L146.275 163.331L132.275 169.148L128.117 170.835L126.99 171.276C126.875 171.337 126.756 171.389 126.633 171.43Z" fill="#1F1F1F"/>
<path d="M126.164 155.498C126.988 155.227 127.874 155.202 128.712 155.427C129.55 155.653 130.304 156.117 130.882 156.765C130.153 156.377 129.395 156.047 128.614 155.778C127.806 155.623 126.987 155.53 126.164 155.498Z" fill="#1F1F1F"/>
<path d="M367.3 294.63L308.164 191.506C321.432 182.126 330.936 168.337 334.981 152.6C344.2 116.9 323.284 79.9259 287.955 69.4399C279.223 66.843 270.062 66.0056 261.004 66.9763C251.947 67.947 243.171 70.7064 235.188 75.0946C227.205 79.4828 220.172 85.4124 214.498 92.5394C208.824 99.6665 204.622 107.849 202.135 116.613C191.803 153.013 213.174 191.324 249.588 201.628C264.344 205.829 280.083 204.954 294.283 199.143L352.502 303.051C353.049 304.029 353.785 304.889 354.667 305.582C355.548 306.275 356.558 306.787 357.638 307.088C358.718 307.389 359.846 307.474 360.959 307.337C362.072 307.201 363.147 306.845 364.122 306.292C365.1 305.738 365.958 304.996 366.648 304.109C367.337 303.222 367.845 302.207 368.14 301.123C368.436 300.039 368.513 298.907 368.369 297.792C368.225 296.678 367.861 295.603 367.3 294.63ZM251.289 196.294C239.209 192.962 228.389 186.122 220.196 176.64C212.004 167.158 206.807 155.46 205.263 143.025C203.719 130.589 205.898 117.975 211.523 106.778C217.148 95.5803 225.967 86.3024 236.865 80.1172C247.763 73.932 260.25 71.1174 272.748 72.0292C285.245 72.941 297.192 77.5384 307.077 85.2399C316.962 92.9414 324.341 103.401 328.281 115.296C332.221 127.192 332.545 139.988 329.213 152.068C324.744 168.266 314.024 182.025 299.41 190.319C284.797 198.613 267.487 200.762 251.289 196.294Z" fill="#6C6C6C"/>
<path d="M230.044 178.115C230.044 178.115 229.974 178.066 229.855 177.954L229.337 177.45C228.896 176.995 228.182 176.372 227.384 175.469C225.054 172.962 222.957 170.249 221.119 167.363C219.836 165.376 218.667 163.317 217.619 161.196C216.438 158.756 215.413 156.242 214.553 153.671C210.528 141.79 210.435 128.929 214.287 116.991C215.807 112.14 217.941 107.504 220.636 103.194C222.437 100.286 224.493 97.5455 226.782 95.004C227.573 94.087 228.273 93.45 228.707 92.988L229.218 92.477C229.337 92.365 229.4 92.309 229.407 92.316C229.357 92.3824 229.304 92.4455 229.246 92.505L228.756 93.044C228.343 93.52 227.657 94.164 226.887 95.102C224.648 97.6714 222.629 100.425 220.853 103.334C219.625 105.34 218.511 107.413 217.514 109.543C216.388 111.996 215.416 114.516 214.602 117.089C210.815 128.965 210.908 141.739 214.868 153.559C215.718 156.121 216.728 158.628 217.892 161.063C218.92 163.178 220.065 165.235 221.322 167.223C223.14 170.108 225.198 172.833 227.475 175.371C228.259 176.288 228.952 176.925 229.372 177.401C229.582 177.625 229.743 177.8 229.869 177.926C229.932 177.984 229.991 178.048 230.044 178.115Z" fill="#D7E1EA"/>
<path d="M250.4 81.1997C249.801 81.494 249.181 81.742 248.545 81.9417C247.39 82.3757 245.815 83.0057 244.128 83.8177C242.441 84.6297 240.964 85.4697 239.9 86.0997C239.349 86.4751 238.768 86.8052 238.164 87.0867C238.653 86.6285 239.19 86.2248 239.767 85.8827C241.112 84.9986 242.515 84.2058 243.967 83.5097C245.421 82.8091 246.923 82.2103 248.461 81.7177C249.085 81.4727 249.736 81.2989 250.4 81.1997Z" fill="#D7E1EA"/>
<path d="M201.19 300.118C199.986 301.84 197.634 301.266 196.549 300.216C195.464 299.166 194.995 297.64 194.582 296.184C193.623 292.859 192.657 289.366 193.371 285.985C193.537 284.949 193.988 283.979 194.673 283.185C195.018 282.799 195.458 282.509 195.949 282.346C196.44 282.183 196.966 282.151 197.473 282.254C198.656 282.569 199.391 283.724 199.923 284.83C201.487 288.086 202.307 291.648 202.324 295.26C202.44 296.951 202.043 298.637 201.183 300.097" fill="#0063CC"/>
<g opacity="0.2">
<path opacity="0.2" d="M201.19 300.118C199.986 301.84 197.634 301.266 196.549 300.216C195.464 299.166 194.995 297.64 194.582 296.184C193.623 292.859 192.657 289.366 193.371 285.985C193.537 284.949 193.988 283.979 194.673 283.185C195.018 282.799 195.458 282.509 195.949 282.346C196.44 282.183 196.966 282.151 197.473 282.254C198.656 282.569 199.391 283.724 199.923 284.83C201.487 288.086 202.307 291.648 202.324 295.26C202.44 296.951 202.043 298.637 201.183 300.097" fill="#1F1F1F"/>
</g>
<path d="M196.668 308.854C194.643 307.902 192.366 307.625 190.172 308.063C188.973 308.169 187.844 308.674 186.966 309.498C186.161 310.38 186.007 311.934 186.931 312.697C187.523 313.103 188.24 313.284 188.954 313.208C190.669 313.208 192.573 312.886 193.945 313.908C194.729 314.496 195.247 315.476 196.185 315.77C196.654 315.876 197.144 315.828 197.584 315.633C198.023 315.437 198.387 315.105 198.621 314.685C199.066 313.821 199.164 312.819 198.894 311.885C198.781 311.243 198.521 310.635 198.135 310.11C197.749 309.584 197.247 309.155 196.668 308.854Z" fill="#0063CC"/>
<path d="M204.508 302.589C203.882 301.779 203.463 300.828 203.288 299.819C203.112 298.811 203.185 297.774 203.5 296.8C204.163 294.863 205.348 293.145 206.923 291.837C208.713 290.246 210.796 289.019 213.055 288.225C213.927 287.869 214.866 287.709 215.806 287.756C216.276 287.781 216.733 287.922 217.136 288.166C217.539 288.411 217.876 288.751 218.116 289.156C218.767 290.381 218.116 291.872 217.479 293.09C216.296 295.234 214.95 297.284 213.454 299.222C212.25 300.776 210.864 302.309 209.03 303.009C207.196 303.709 205.278 303.632 204.305 302.358" fill="#0063CC"/>
<path d="M201.274 326.137C201.207 325.881 201.17 325.618 201.162 325.353L200.952 323.218C200.854 322.315 200.721 321.244 200.476 320.075C200.192 318.814 199.81 317.576 199.335 316.372C198.864 315.174 198.228 314.048 197.445 313.026C196.807 312.193 195.988 311.513 195.051 311.038C194.418 310.721 193.737 310.508 193.035 310.408C192.773 310.399 192.513 310.361 192.258 310.296C192.521 310.268 192.786 310.268 193.049 310.296C193.776 310.351 194.488 310.536 195.149 310.842C196.136 311.308 197.001 311.995 197.676 312.851C198.496 313.887 199.156 315.038 199.636 316.267C200.121 317.487 200.498 318.748 200.763 320.033C200.968 321.083 201.109 322.145 201.183 323.211C201.253 324.121 201.274 324.856 201.288 325.36C201.311 325.619 201.307 325.88 201.274 326.137Z" fill="#1F1F1F"/>
<path d="M201.127 324.492C201.109 324.372 201.109 324.249 201.127 324.128V323.092C201.127 322.189 201.127 320.88 201.085 319.27C201.001 316.043 200.721 311.57 200.189 306.67C199.657 301.77 198.929 297.367 198.278 294.21C198.124 293.419 197.97 292.705 197.823 292.11C197.676 291.515 197.564 290.941 197.445 290.507L197.207 289.499C197.167 289.382 197.146 289.259 197.144 289.135C197.193 289.247 197.235 289.361 197.27 289.478C197.347 289.737 197.445 290.073 197.571 290.472C197.697 290.871 197.844 291.445 197.998 292.068C198.152 292.691 198.334 293.398 198.502 294.168C199.393 298.288 200.063 302.452 200.511 306.642C201.05 311.542 201.288 316.015 201.309 319.242C201.309 320.859 201.309 322.168 201.253 323.071C201.253 323.491 201.204 323.841 201.19 324.114C201.185 324.242 201.163 324.369 201.127 324.492Z" fill="#1F1F1F"/>
<path d="M201.106 315.882C201.077 315.519 201.077 315.154 201.106 314.79C201.148 314.09 201.239 313.082 201.435 311.85C201.675 310.403 201.996 308.971 202.394 307.559C202.873 305.828 203.471 304.132 204.186 302.484C205.435 299.454 207.221 296.675 209.457 294.28C209.846 293.872 210.26 293.489 210.696 293.132C210.885 292.971 211.053 292.81 211.221 292.684L211.704 292.348C211.993 292.13 212.3 291.935 212.621 291.767C211.565 292.594 210.562 293.487 209.618 294.441C207.456 296.853 205.721 299.615 204.487 302.61C203.775 304.246 203.171 305.927 202.681 307.643C202.27 309.039 201.932 310.455 201.666 311.885C201.435 313.11 201.309 314.111 201.232 314.804C201.218 315.166 201.176 315.527 201.106 315.882Z" fill="#1F1F1F"/>
<rect x="249.7" y="149.959" width="44.7726" height="6.3" rx="3.15" transform="rotate(-45 249.7 149.959)" fill="#0063CC"/>
<rect width="44.7726" height="6.3" rx="3.15" transform="matrix(-0.707107 -0.707107 -0.707107 0.707107 286.1 149.959)" fill="#0063CC"/>
</svg>
