<svg width="420" height="329" viewBox="0 0 420 329" fill="none" xmlns="http://www.w3.org/2000/svg">
<path d="M392.536 310.003H11.09C6.03281 299.742 3.63528 287.951 5.30933 275.769C6.53616 266.84 9.85614 258.028 11.7432 249.117C18.313 218.098 7.81219 185.5 24.0515 156.883C37.4649 133.251 45.3738 133.438 50.3608 107.792C52.0747 98.9709 44.2734 72.045 43.9386 63.3671C43.283 46.1073 47.3756 26.74 79.6155 11.2672C97.2526 2.81368 126.961 0.333014 145.999 0.0444288C157.63 -0.130471 169.367 0.0735823 180.074 3.23636C202.74 9.94087 218.003 28.8418 237.343 41.4025C250.658 50.0513 266.115 55.7327 282.53 58.018C291.841 59.3123 301.663 59.5834 309.839 63.5332C323.838 70.296 330.073 86.3052 333.772 101.796C337.471 117.286 339.829 133.931 349.351 145.996C358.508 157.609 373.155 163.454 384.129 173.327C401.12 188.613 419.637 205.074 419.974 239.766C420.22 265.196 401.663 278.736 392.536 310.003Z" fill="#DDE8FE"/>
<path d="M202.418 328.332C308.488 328.332 394.476 322.032 394.476 314.261C394.476 306.489 308.488 300.189 202.418 300.189C96.3468 300.189 10.3594 306.489 10.3594 314.261C10.3594 322.032 96.3468 328.332 202.418 328.332Z" fill="#BDD2FB"/>
<path d="M340.8 270.409C340.944 269.447 344.311 246.209 337.568 238.191C336.897 237.346 336.047 236.66 335.08 236.183C334.112 235.706 333.05 235.449 331.971 235.432C318.352 235.114 316.496 246.007 316.477 246.152L318.083 246.402C318.14 246.007 319.756 236.787 331.932 237.056C332.781 237.068 333.616 237.27 334.376 237.646C335.137 238.022 335.803 238.563 336.328 239.229C342.599 246.7 339.213 269.928 339.213 270.168L340.8 270.409Z" fill="#314D82"/>
<path d="M341.617 269.351L343.242 269.293C343.242 269.082 342.704 247.901 353.139 243.527C363.372 239.248 367.979 248.055 368.162 248.43L369.614 247.699C369.566 247.594 364.161 237.124 352.514 242.037C341.049 246.834 341.588 268.428 341.617 269.351Z" fill="#314D82"/>
<path d="M341.569 271.014C341.569 270.678 341.675 237.181 348.205 227.384C354.476 217.972 364.556 222.404 365.027 222.577L365.69 221.096C365.575 221.048 353.899 215.895 346.849 226.461C340.049 236.662 339.953 269.591 339.953 270.995L341.569 271.014Z" fill="#314D82"/>
<path d="M330.017 236.239C330.017 236.239 335.96 238.431 334.191 243.594C332.421 248.757 313.637 257.275 313.637 257.275C313.637 257.275 305.76 250.064 312.993 238.335C320.226 226.605 329.853 232.537 330.017 236.239Z" fill="#314D82"/>
<path d="M348.491 225.615C348.491 225.615 344.278 225.163 344.644 222.596C345.009 220.029 361.052 213.414 370.525 224.106C370.525 224.106 364.456 234.528 355.685 234.681C346.913 234.835 348.491 225.615 348.491 225.615Z" fill="#314D82"/>
<path d="M352.868 242.796C352.868 242.796 349.983 240.45 353.099 239.306C356.215 238.162 371.661 238.479 371.815 253.728C371.815 253.728 353.859 256.718 351.618 250.901C349.377 245.084 352.868 242.796 352.868 242.796Z" fill="#314D82"/>
<path opacity="0.2" d="M330.017 236.239C330.017 236.239 335.96 238.431 334.191 243.594C332.421 248.757 313.637 257.275 313.637 257.275C313.637 257.275 305.76 250.064 312.993 238.335C320.226 226.605 329.853 232.537 330.017 236.239Z" fill="black"/>
<path opacity="0.2" d="M348.491 225.615C348.491 225.615 344.278 225.163 344.644 222.596C345.009 220.029 361.052 213.414 370.525 224.106C370.525 224.106 364.456 234.528 355.685 234.681C346.913 234.835 348.491 225.615 348.491 225.615Z" fill="black"/>
<path opacity="0.2" d="M352.868 242.796C352.868 242.796 349.983 240.45 353.099 239.306C356.215 238.162 371.661 238.479 371.815 253.728C371.815 253.728 353.859 256.718 351.618 250.901C349.377 245.084 352.868 242.796 352.868 242.796Z" fill="black"/>
<path d="M326.823 301.511H354.695L357.696 271.014H323.812L326.823 301.511Z" fill="#314D82"/>
<path opacity="0.5" d="M326.823 301.511H354.695L357.696 271.014H323.812L326.823 301.511Z" fill="white"/>
<path d="M322.332 274.37H359.188V267.64H322.332V274.37Z" fill="#314D82"/>
<path opacity="0.2" d="M322.332 274.37H359.188V267.64H322.332V274.37Z" fill="white"/>
<path d="M295.275 279.648L267.566 276.927V237.989H256.582V276.908L228.796 279.648C227.464 279.779 226.228 280.401 225.328 281.392C224.429 282.384 223.93 283.674 223.93 285.013V289.176H300.18V285.013C300.18 283.668 299.677 282.371 298.769 281.378C297.862 280.385 296.615 279.768 295.275 279.648Z" fill="#2370C8"/>
<path opacity="0.2" d="M295.275 279.648L267.566 276.927V237.989H256.582V276.908L228.796 279.648C227.464 279.779 226.228 280.401 225.328 281.392C224.429 282.384 223.93 283.674 223.93 285.013V289.176H300.18V285.013C300.18 283.668 299.677 282.371 298.769 281.378C297.862 280.385 296.615 279.768 295.275 279.648Z" fill="white"/>
<path d="M226.825 301.521C230.793 301.521 234.01 298.305 234.01 294.339C234.01 290.372 230.793 287.157 226.825 287.157C222.857 287.157 219.641 290.372 219.641 294.339C219.641 298.305 222.857 301.521 226.825 301.521Z" fill="#2370C8"/>
<path d="M297.208 301.521C301.176 301.521 304.392 298.305 304.392 294.339C304.392 290.372 301.176 287.157 297.208 287.157C293.24 287.157 290.023 290.372 290.023 294.339C290.023 298.305 293.24 301.521 297.208 301.521Z" fill="#2370C8"/>
<path d="M254.689 211.655H269.452V242.421C269.449 242.943 269.342 243.458 269.139 243.939C268.936 244.419 268.64 244.855 268.269 245.221C267.897 245.587 267.457 245.876 266.974 246.072C266.49 246.268 265.973 246.367 265.451 246.363H258.632C257.579 246.363 256.569 245.945 255.824 245.2C255.079 244.456 254.66 243.446 254.66 242.392V211.655H254.689Z" fill="#2370C8"/>
<path opacity="0.3" d="M254.689 211.655H269.452V242.421C269.449 242.943 269.342 243.458 269.139 243.939C268.936 244.419 268.64 244.855 268.269 245.221C267.897 245.587 267.457 245.876 266.974 246.072C266.49 246.268 265.973 246.367 265.451 246.363H258.632C257.579 246.363 256.569 245.945 255.824 245.2C255.079 244.456 254.66 243.446 254.66 242.392V211.655H254.689Z" fill="white"/>
<path d="M288.329 150.834C288.329 150.834 290.426 202.752 275.961 211.684H292.475C292.475 211.684 305.266 194.003 301.65 150.834H288.329Z" fill="#2370C8"/>
<path opacity="0.3" d="M288.329 150.834C288.329 150.834 290.426 202.752 275.961 211.684H292.475C292.475 211.684 305.266 194.003 301.65 150.834H288.329Z" fill="white"/>
<path d="M298.094 215.665H224.114V209.233C224.114 207.958 224.62 206.735 225.522 205.833C226.424 204.932 227.647 204.425 228.922 204.425H293.285C294.56 204.425 295.783 204.932 296.685 205.833C297.587 206.735 298.094 207.958 298.094 209.233V215.665Z" fill="#2370C8"/>
<path d="M222.96 215.665H299.239C300.306 215.665 301.172 214.799 301.172 213.732V211.982C301.172 210.915 300.306 210.05 299.239 210.05H222.96C221.892 210.05 221.027 210.915 221.027 211.982V213.732C221.027 214.799 221.892 215.665 222.96 215.665Z" fill="#2370C8"/>
<path opacity="0.6" d="M222.96 215.665H299.239C300.306 215.665 301.172 214.799 301.172 213.732V211.982C301.172 210.915 300.306 210.05 299.239 210.05H222.96C221.892 210.05 221.027 210.915 221.027 211.982V213.732C221.027 214.799 221.892 215.665 222.96 215.665Z" fill="white"/>
<path d="M305.69 123.001H279.242C271.497 123.001 265.219 129.277 265.219 137.019V147.364C265.219 155.106 271.497 161.382 279.242 161.382H305.69C313.435 161.382 319.713 155.106 319.713 147.364V137.019C319.713 129.277 313.435 123.001 305.69 123.001Z" fill="#2370C8"/>
<path d="M199.033 80.5822L193.753 66.6702C193.753 66.6702 196.023 64.5742 194.464 62.4494C192.906 60.3247 183.173 54.3541 181.404 55.4021C179.634 56.4501 175.681 60.4112 177.816 62.6129C179.951 64.8146 189.357 68.4777 189.357 68.4777L194.032 86.745L199.033 80.5822Z" fill="#EDD28C"/>
<path d="M235.897 107.031C235.897 107.031 211.852 102.099 209.284 100.917C206.716 99.7341 197.06 71.439 197.06 71.439L189.645 74.9001C189.645 74.9001 195.608 103.301 201.705 110.05C207.803 116.8 233.829 122.549 233.829 122.549L235.897 107.031Z" fill="#B24B44"/>
<path d="M175.285 45.8104C179.214 39.4755 190.686 46.1113 195.283 40.0865C186.306 44.671 178.049 37.7396 174.232 46.531C175.178 46.7326 176.26 46.3108 177.183 46.0227C182.812 44.3998 186.007 47.4719 189.789 49.0151C192.501 50.12 196.133 50.5726 197.195 48.9315C195.885 49.1427 194.551 49.1471 193.24 48.9446C186.692 47.7032 182.67 41.9483 175.285 45.8104Z" fill="#2168A3"/>
<path d="M180.384 51.3415C175.657 45.412 167.449 29.1609 166.914 28.1672C166.378 27.1735 165.265 26.9322 160.85 28.6802L183.974 63.9302C188.071 61.7508 189.3 63.415 189.3 63.415C189.3 63.415 185.122 57.2845 180.384 51.3415Z" fill="white"/>
<path d="M197.129 70.8809L198.658 73.8325L189.137 77.111L189.502 73.5056L197.129 70.8809Z" fill="#DB908B"/>
<path opacity="0.2" d="M233.954 122.126C232.627 121.934 228.463 121.289 223.48 120.203C226.318 115.3 234.628 112.781 234.628 112.781L233.954 122.126Z" fill="black"/>
<path d="M269.753 87.437C269.753 87.437 271.166 100.734 266.242 104.003C261.318 107.271 237.071 103.445 234.321 98.0897C231.57 92.7345 241.919 78.2168 241.919 78.2168L269.753 87.437Z" fill="#263238"/>
<path d="M171.66 262.409L177.989 263.928L181.191 255.198L184.096 247.267L176.892 244.19L174.122 253.824L171.66 262.409Z" fill="#E4897B"/>
<path opacity="0.2" d="M174.121 253.824L181.19 255.198L184.095 247.267L176.891 244.19L174.121 253.824Z" fill="black"/>
<path d="M174.758 249.218L183.529 252.477C183.529 252.477 206.929 193.993 211.738 193.83C216.547 193.666 265.511 216.125 277.784 203.646C290.056 191.166 272.311 161.073 272.311 161.073C272.311 161.073 242.794 156.862 240.572 163.525C240.026 165.489 239.608 167.487 239.322 169.505C238.986 171.543 238.755 173.255 238.755 173.255C237.841 173.024 208.209 165.381 196.533 173.255C184.655 181.264 174.758 249.218 174.758 249.218Z" fill="#407BFF"/>
<path opacity="0.6" d="M174.758 249.218L183.529 252.477C183.529 252.477 206.929 193.993 211.738 193.83C216.547 193.666 265.511 216.125 277.784 203.646C290.056 191.166 272.311 161.073 272.311 161.073C272.311 161.073 242.794 156.862 240.572 163.525C240.026 165.489 239.608 167.487 239.322 169.505C238.986 171.543 238.755 173.255 238.755 173.255C237.841 173.024 208.209 165.381 196.533 173.255C184.655 181.264 174.758 249.218 174.758 249.218Z" fill="white"/>
<path d="M225.213 287.358L231.512 285.743L230.3 276.706L229.175 268.418L221.375 269.11L223.404 278.773L225.213 287.358Z" fill="#E4897B"/>
<path opacity="0.2" d="M223.453 278.965L230.339 276.879L229.195 268.505L221.395 269.159L223.453 278.965Z" fill="black"/>
<path d="M187.155 249.237L174.372 244.892L173.824 250.122L183.519 253.545L187.155 249.237Z" fill="#407BFF"/>
<path d="M256.586 206.607C256.586 206.607 254.585 206.655 223.625 205.213C223.625 205.213 228.252 243.901 230.781 272.869L221.519 274.446C221.519 274.446 199.398 212.424 199.639 202.569C199.879 192.714 211.18 189.83 211.18 189.83C211.18 189.83 233.234 202.569 256.586 206.607Z" fill="#407BFF"/>
<path opacity="0.6" d="M256.586 206.607C256.586 206.607 254.585 206.655 223.625 205.213C223.625 205.213 228.252 243.901 230.781 272.869L221.519 274.446C221.519 274.446 199.398 212.424 199.639 202.569C199.879 192.714 211.18 189.83 211.18 189.83C211.18 189.83 233.234 202.569 256.586 206.607Z" fill="white"/>
<path opacity="0.1" d="M256.586 206.607C256.586 206.607 254.585 206.655 223.625 205.213C223.625 205.213 228.252 243.901 230.781 272.869L221.519 274.446C221.519 274.446 199.398 212.424 199.639 202.569C199.879 192.714 211.18 189.83 211.18 189.83C211.18 189.83 233.234 202.569 256.586 206.607Z" fill="black"/>
<path d="M232.127 270.062L219.402 271.514L221.865 276.494L232.156 275.177L232.127 270.062Z" fill="#407BFF"/>
<path opacity="0.1" d="M238.754 173.255L256.018 176.851C256.018 176.851 246.477 171.582 239.321 169.505C238.985 171.544 238.754 173.255 238.754 173.255Z" fill="black"/>
<path d="M271.6 156.487L272.312 161.073L240.573 163.525L239.727 158.093L271.6 156.487Z" fill="#263238"/>
<path opacity="0.2" d="M271.6 156.487L272.312 161.073L240.573 163.525L239.727 158.093L271.6 156.487Z" fill="black"/>
<path d="M261.587 164.171L263.156 164.01L262.335 156.024L260.766 156.185L261.587 164.171Z" fill="#407BFF"/>
<path d="M247.489 163.383L254.438 162.937L254.099 157.669L247.15 158.116L247.489 163.383Z" fill="white"/>
<path d="M242.115 165.01L243.684 164.849L242.862 156.863L241.293 157.025L242.115 165.01Z" fill="#407BFF"/>
<path opacity="0.6" d="M261.587 164.171L263.156 164.01L262.335 156.024L260.766 156.185L261.587 164.171Z" fill="white"/>
<path opacity="0.6" d="M242.115 165.01L243.684 164.849L242.862 156.863L241.293 157.025L242.115 165.01Z" fill="white"/>
<path d="M235.319 106.599C241.263 108.24 247.433 108.919 253.593 108.608C263.787 108.089 275.925 113.002 275.925 113.002L271.559 156.459L239.685 158.064C239.685 158.064 229.019 121.809 235.319 106.599Z" fill="#F9766C"/>
<path d="M240.445 82.0528C240.445 82.0528 242.234 60.9588 259.873 68.5926C281.994 78.207 264.413 103.916 253.593 98.6472C242.773 93.3785 240.445 82.0528 240.445 82.0528Z" fill="#263238"/>
<path opacity="0.2" d="M245.391 109.79L245.9 121.712L249.853 116.107C249.853 116.107 248.439 129.288 249.267 136.47C249.267 136.47 250.026 123.597 251.815 116.107L256.018 121.712L262.049 109.867C262.049 109.867 252.287 106.358 245.391 109.79Z" fill="black"/>
<path d="M250.853 112.04L259.98 109.464C254.354 105.618 257.191 96.9648 257.191 96.9648L248.15 100.138C248.566 101.394 248.888 102.679 249.112 103.983C250.074 109.617 247.516 110.069 247.516 110.069L250.853 112.04Z" fill="#EDD28C"/>
<path opacity="0.2" d="M248.152 100.089C248.568 101.346 248.89 102.631 249.114 103.935C253.442 102.195 257.183 96.8975 257.183 96.8975L248.152 100.089Z" fill="black"/>
<path d="M254.056 73.0539C246.045 71.2848 242.515 74.9767 240.11 83.1105C237.1 93.2537 237.764 101.08 248.257 101.099C262.51 101.118 267.348 75.9959 254.056 73.0539Z" fill="#EDD28C"/>
<path d="M245.383 83.8125C244.481 84.866 243.454 85.8056 242.324 86.6103C242.486 86.9953 242.751 87.3278 243.091 87.5706C243.431 87.8134 243.831 87.9569 244.248 87.9851L245.383 83.8125Z" fill="#DE5753"/>
<path d="M250.429 84.2353C250.265 84.889 250.487 85.514 250.929 85.6197C251.371 85.7255 251.843 85.2832 252.006 84.6583C252.17 84.0334 251.948 83.3892 251.506 83.2738C251.064 83.1584 250.592 83.5815 250.429 84.2353Z" fill="#263238"/>
<path d="M251.682 83.3222L250.402 82.4185C250.402 82.4185 250.816 83.7933 251.682 83.3222Z" fill="#263238"/>
<path d="M242.331 82.101C242.168 82.7548 242.389 83.3797 242.831 83.4855C243.274 83.5912 243.793 83.149 243.908 82.524C244.024 81.8991 243.851 81.2549 243.408 81.1395C242.966 81.0242 242.495 81.4472 242.331 82.101Z" fill="#263238"/>
<path d="M243.583 81.1874L242.266 80.3125C242.266 80.3125 242.718 81.6489 243.583 81.1874Z" fill="#263238"/>
<path d="M251.727 78.7363C252.373 78.7925 252.998 78.9949 253.554 79.328C254.111 79.6611 254.584 80.1163 254.939 80.6592" stroke="#263238" stroke-width="0.72" stroke-linecap="round" stroke-linejoin="round"/>
<path d="M245.986 77.1111C245.465 76.8605 244.895 76.7305 244.317 76.7305C243.739 76.7305 243.169 76.8605 242.648 77.1111" stroke="#263238" stroke-width="0.72" stroke-linecap="round" stroke-linejoin="round"/>
<path d="M259.816 88.4751C259.816 88.4751 257.527 81.0721 259.219 76.1207C259.219 76.1207 244.793 66.1313 240.445 82.0527C240.445 82.0527 242.052 67.4196 255.892 70.1501C269.732 72.8806 265.202 92.9843 256.767 97.4069C256.767 97.4069 261.22 93.0996 259.816 88.4751Z" fill="#263238"/>
<path d="M258.134 89.927C258.415 89.0173 259.046 88.2565 259.888 87.8113C260.73 87.3661 261.714 87.2729 262.625 87.5522C265.049 88.3695 265.097 93.7247 258.663 93.5805C257.73 93.5132 257.422 92.5421 258.134 89.927Z" fill="#E4897B"/>
<path d="M242.793 91.0235C243.007 92.0052 243.148 93.0014 243.216 94.0039H243.736C246.13 94.2058 247.304 93.504 247.881 92.6771C248.157 92.2662 248.328 91.7943 248.381 91.3023C248.422 91.0249 248.422 90.7432 248.381 90.4658C246.837 90.9973 245.197 91.1908 243.572 91.0331C243.11 91.0619 242.793 91.0235 242.793 91.0235Z" fill="#263238"/>
<path d="M243.609 91.0809L243.754 91.9558C246.004 92.1385 247.601 91.9558 248.38 91.3501C248.42 91.0728 248.42 90.791 248.38 90.5137C246.848 91.0397 245.222 91.2331 243.609 91.0809Z" fill="white"/>
<path d="M243.734 94.0517C246.129 94.2536 247.303 93.5518 247.88 92.725C246.971 92.6657 246.06 92.7666 245.187 93.023C244.606 93.2044 244.098 93.5644 243.734 94.0517Z" fill="#DE5753"/>
<path d="M254.086 73.6983C254.086 73.6983 254.394 87.5719 262.742 89.2448C271.09 90.9177 261.972 71.4005 261.972 71.4005C261.972 71.4005 249.566 63.3052 241.294 69.0161C233.023 74.7271 240.467 82.0532 240.467 82.0532C240.467 82.0532 242.189 71.7466 254.086 73.6983Z" fill="#263238"/>
<path d="M254.375 72.7754C254.375 72.7754 251.403 81.5533 257.26 86.1586" stroke="#263238" stroke-width="0.5" stroke-linecap="round" stroke-linejoin="round"/>
<path d="M265.155 92.0903C264.097 94.917 261.375 96.5033 259.077 95.6477C256.778 94.792 255.778 91.8019 256.836 88.9753C257.894 86.1487 260.616 84.5623 262.914 85.4276C265.213 86.2929 266.213 89.2733 265.155 92.0903Z" fill="#9F9DFE"/>
<path d="M262.461 87.4657C262.461 87.4657 265.914 72.0154 258.172 67.9678C259.054 68.0831 259.927 68.2533 260.788 68.4773C261.75 68.7658 267.972 75.0343 264.847 88.9175L262.461 87.4657Z" fill="#9F9DFE"/>
<path d="M248.034 96.311L247.457 96.2245L247.611 95.263C251.859 95.916 256.199 94.9963 259.816 92.6768L260.383 93.4459C256.746 95.8554 252.361 96.8727 248.034 96.311Z" fill="#9F9DFE"/>
<path d="M264.829 91.7061C264.136 93.5713 262.328 94.5904 260.818 94.052C259.308 93.5136 258.635 91.5138 259.337 89.6486C260.039 87.7834 261.838 86.7643 263.348 87.3027C264.858 87.8411 265.531 89.8409 264.829 91.7061Z" fill="#407BFF"/>
<path d="M247.133 96.6571L246.354 96.5513C246.218 96.5336 246.086 96.4891 245.968 96.4204C245.849 96.3518 245.745 96.2602 245.662 96.1512C245.579 96.0421 245.518 95.9177 245.483 95.7851C245.448 95.6524 245.44 95.5142 245.459 95.3784C245.476 95.2415 245.519 95.1094 245.588 94.9896C245.656 94.8698 245.747 94.7648 245.856 94.6807C245.966 94.5966 246.09 94.535 246.224 94.4996C246.357 94.4643 246.496 94.4558 246.633 94.4746L247.402 94.5804C247.676 94.6187 247.925 94.763 248.094 94.9823C248.263 95.2016 248.339 95.4784 248.306 95.7533C248.268 96.0275 248.123 96.2758 247.904 96.4447C247.685 96.6137 247.408 96.69 247.133 96.6571Z" fill="#407BFF"/>
<path opacity="0.4" d="M247.133 96.6571L246.354 96.5513C246.218 96.5336 246.086 96.4891 245.968 96.4204C245.849 96.3518 245.745 96.2602 245.662 96.1512C245.579 96.0421 245.518 95.9177 245.483 95.7851C245.448 95.6524 245.44 95.5142 245.459 95.3784C245.476 95.2415 245.519 95.1094 245.588 94.9896C245.656 94.8698 245.747 94.7648 245.856 94.6807C245.966 94.5966 246.09 94.535 246.224 94.4996C246.357 94.4643 246.496 94.4558 246.633 94.4746L247.402 94.5804C247.676 94.6187 247.925 94.763 248.094 94.9823C248.263 95.2016 248.339 95.4784 248.306 95.7533C248.268 96.0275 248.123 96.2758 247.904 96.4447C247.685 96.6137 247.408 96.69 247.133 96.6571Z" fill="black"/>
<path d="M257.529 106.127L251.816 111.742L254.105 118.617L262.05 109.867L257.529 106.127Z" fill="#DB908B"/>
<path d="M249.267 107.3L250.19 111.617L247.237 117.722L245.391 109.79L249.267 107.3Z" fill="#DB908B"/>
<path d="M256.305 110.992L259.623 98.8495C259.623 98.8495 258.017 95.8306 258.363 95.1961C258.709 94.5615 260.44 86.4085 261.671 85.524C262.902 84.6395 267.971 86.1489 268.481 86.9758C268.991 87.8026 263.624 98.8495 263.624 98.8495L261.7 112.012L256.305 110.992Z" fill="#EDD28C"/>
<path d="M275.925 113.002C285.062 122.347 266.76 143.518 256.267 142.614C245.774 141.71 256.536 103.33 256.536 103.33L263.268 104.435C263.268 104.435 260.912 121.049 261.653 122.347C262.393 123.645 272.896 109.896 275.925 113.002Z" fill="#B24B44"/>
<path d="M256.02 102.128L255.02 105.301L264.387 106.128V103.359L256.02 102.128Z" fill="#DB908B"/>
<path opacity="0.6" d="M241.83 127.231H238.041C237.621 127.231 237.281 127.571 237.281 127.99V135.144C237.281 135.563 237.621 135.903 238.041 135.903H241.83C242.25 135.903 242.59 135.563 242.59 135.144V127.99C242.59 127.571 242.25 127.231 241.83 127.231Z" fill="white"/>
<path opacity="0.2" d="M241.91 127.808H237.602V133.701H241.91V127.808Z" fill="black"/>
<path d="M240.331 125.145H239.379V128.615H240.331V125.145Z" fill="#263238"/>
<path d="M161.196 274.687C162.155 274.241 163.189 273.977 164.245 273.908C164.245 273.908 167.9 271.764 171.516 263.409H175.584C176.274 263.414 176.946 263.632 177.507 264.033C178.068 264.434 178.492 264.998 178.72 265.649C178.787 265.828 178.826 266.016 178.835 266.207C178.787 267.19 178.681 268.169 178.518 269.139C177.922 272.39 177.129 275.6 176.142 278.754L175.45 278.581L176.7 272.504C177.123 270.447 174.949 272.437 173.949 274.514C172.949 276.59 171.4 278.696 166.899 277.667C161.658 276.379 159.551 275.629 161.196 274.687Z" fill="#407BFF"/>
<path d="M172.258 261.227C172.258 261.227 167.17 271.86 164.246 273.908C164.246 273.908 168.17 276.245 172.258 271.024C177.538 264.294 178.836 266.169 178.836 266.169C178.726 265.008 178.51 263.859 178.192 262.736C177.403 260.583 172.258 261.227 172.258 261.227Z" fill="#E4897B"/>
<path d="M217.19 300.021C218.021 299.366 218.962 298.864 219.969 298.54C219.969 298.54 223.008 295.589 224.538 286.618L228.49 285.657C229.161 285.502 229.864 285.558 230.502 285.816C231.14 286.074 231.684 286.522 232.059 287.099C232.167 287.259 232.251 287.434 232.309 287.618C232.501 288.57 232.633 289.534 232.703 290.503C232.888 293.789 232.872 297.083 232.655 300.367H231.943L231.722 294.175C231.636 292.07 230.01 294.521 229.52 296.781C229.029 299.04 228.038 301.434 223.422 301.501C218.046 301.559 215.814 301.328 217.19 300.021Z" fill="#407BFF"/>
<path d="M224.743 284.32C224.743 284.32 222.328 295.858 219.934 298.54C219.934 298.54 224.3 299.886 227.032 293.858C230.571 286.07 232.273 287.589 232.273 287.589C231.893 286.487 231.413 285.422 230.84 284.407C229.59 282.484 224.743 284.32 224.743 284.32Z" fill="#E4897B"/>
<path d="M314.167 51.6143H280.591C277.898 51.6143 275.715 53.7966 275.715 56.4887V70.843C275.715 73.5351 277.898 75.7175 280.591 75.7175H314.167C316.86 75.7175 319.043 73.5351 319.043 70.843V56.4887C319.043 53.7966 316.86 51.6143 314.167 51.6143Z" fill="#83A0D8"/>
<path d="M287.325 72.9678L277.207 86.7163L293.528 73.8908L287.325 72.9678Z" fill="#83A0D8"/>
<path d="M287.698 63.6609C287.7 63.9431 287.618 64.2196 287.463 64.455C287.307 64.6905 287.085 64.8744 286.824 64.9832C286.564 65.0921 286.277 65.1211 286 65.0665C285.723 65.0119 285.468 64.8762 285.268 64.6766C285.069 64.4771 284.933 64.2226 284.878 63.9457C284.824 63.6688 284.853 63.3819 284.962 63.1215C285.071 62.8611 285.255 62.639 285.49 62.4834C285.726 62.3278 286.002 62.2457 286.285 62.2476C286.66 62.2476 287.019 62.3965 287.284 62.6615C287.549 62.9266 287.698 63.2861 287.698 63.6609Z" fill="white"/>
<path d="M295.093 63.6614C295.095 63.9436 295.013 64.22 294.857 64.4555C294.701 64.691 294.479 64.8748 294.219 64.9837C293.958 65.0926 293.671 65.1216 293.394 65.067C293.117 65.0124 292.863 64.8767 292.663 64.6771C292.463 64.4775 292.328 64.2231 292.273 63.9462C292.218 63.6693 292.247 63.3824 292.356 63.122C292.465 62.8616 292.649 62.6395 292.885 62.4839C293.12 62.3283 293.397 62.2462 293.679 62.2481C294.054 62.2481 294.414 62.397 294.679 62.662C294.944 62.9271 295.093 63.2865 295.093 63.6614Z" fill="white"/>
<path d="M302.491 63.6609C302.493 63.9431 302.411 64.2196 302.256 64.455C302.1 64.6905 301.878 64.8744 301.617 64.9832C301.357 65.0921 301.07 65.1211 300.793 65.0665C300.516 65.0119 300.261 64.8762 300.061 64.6766C299.862 64.4771 299.726 64.2226 299.671 63.9457C299.617 63.6688 299.646 63.3819 299.755 63.1215C299.864 62.8611 300.048 62.639 300.283 62.4834C300.519 62.3278 300.795 62.2457 301.078 62.2476C301.453 62.2476 301.812 62.3965 302.077 62.6615C302.342 62.9266 302.491 63.2861 302.491 63.6609Z" fill="white"/>
<path d="M309.886 63.6614C309.888 63.9436 309.806 64.22 309.65 64.4555C309.494 64.691 309.272 64.8748 309.012 64.9837C308.751 65.0926 308.464 65.1216 308.187 65.067C307.91 65.0124 307.656 64.8767 307.456 64.6771C307.256 64.4775 307.121 64.2231 307.066 63.9462C307.011 63.6693 307.04 63.3824 307.149 63.122C307.258 62.8616 307.442 62.6395 307.678 62.4839C307.913 62.3283 308.19 62.2462 308.472 62.2481C308.847 62.2481 309.207 62.397 309.472 62.662C309.737 62.9271 309.886 63.2865 309.886 63.6614Z" fill="white"/>
<path d="M143.526 26.4724C143.786 21.1268 147.748 10.3491 152.567 7.05133C157.385 3.7536 154.211 8.32043 154.211 8.32043C154.211 8.32043 158.78 3.87858 161.184 4.01318C163.589 4.14778 161.184 6.8975 161.184 6.8975C161.184 6.8975 166.137 3.84974 168.417 4.01318C170.696 4.17663 168.417 6.81097 168.417 6.81097C168.417 6.81097 172.475 3.92665 174.12 5.28228C175.765 6.63791 153.067 21.6267 150.537 27.7222C148.008 33.8178 143.266 31.866 143.526 26.4724Z" fill="#9B9AD3"/>
<path opacity="0.4" d="M143.526 26.4724C143.786 21.1268 147.748 10.3491 152.567 7.05133C157.385 3.7536 154.211 8.32043 154.211 8.32043C154.211 8.32043 158.78 3.87858 161.184 4.01318C163.589 4.14778 161.184 6.8975 161.184 6.8975C161.184 6.8975 166.137 3.84974 168.417 4.01318C170.696 4.17663 168.417 6.81097 168.417 6.81097C168.417 6.81097 172.475 3.92665 174.12 5.28228C175.765 6.63791 153.067 21.6267 150.537 27.7222C148.008 33.8178 143.266 31.866 143.526 26.4724Z" fill="white"/>
<path d="M163.03 25.6646L166.06 27.5874C166.108 27.6171 166.144 27.662 166.163 27.7149C166.183 27.7678 166.183 27.8256 166.166 27.879C166.148 27.9324 166.112 27.9782 166.065 28.009C166.018 28.0398 165.962 28.0539 165.906 28.0489L162.723 27.7989L162.992 30.241C163 30.2986 162.989 30.3571 162.96 30.4079C162.932 30.4587 162.888 30.4991 162.835 30.5229C162.782 30.5467 162.723 30.5527 162.666 30.54C162.61 30.5273 162.558 30.4966 162.521 30.4525L160.684 28.395L163.03 25.6646Z" fill="#9B9AD3"/>
<path opacity="0.3" d="M163.03 25.6646L166.06 27.5874C166.108 27.6171 166.144 27.662 166.163 27.7149C166.183 27.7678 166.183 27.8256 166.166 27.879C166.148 27.9324 166.112 27.9782 166.065 28.009C166.018 28.0398 165.962 28.0539 165.906 28.0489L162.723 27.7989L162.992 30.241C163 30.2986 162.989 30.3571 162.96 30.4079C162.932 30.4587 162.888 30.4991 162.835 30.5229C162.782 30.5467 162.723 30.5527 162.666 30.54C162.61 30.5273 162.558 30.4966 162.521 30.4525L160.684 28.395L163.03 25.6646Z" fill="white"/>
<path d="M120.473 13.6275C120.473 13.6275 124.666 10.7432 131.004 12.6084C131.004 12.6084 132.822 20.9825 137.814 23.7707C140.555 25.2994 147.258 25.1648 152.567 23.4534C158.867 21.4151 161.945 21.4152 163.089 23.7707C164.234 26.1262 162.964 28.5779 158.146 29.722C153.327 30.8661 149.49 39.2306 140.766 39.3363C132.043 39.4421 127.407 30.6834 129.61 22.9919C127.524 19.0599 124.353 15.8095 120.473 13.6275Z" fill="#9B9AD3"/>
<path opacity="0.5" d="M120.473 13.6275C120.473 13.6275 124.666 10.7432 131.004 12.6084C131.004 12.6084 132.822 20.9825 137.814 23.7707C140.555 25.2994 147.258 25.1648 152.567 23.4534C158.867 21.4151 161.945 21.4152 163.089 23.7707C164.234 26.1262 162.964 28.5779 158.146 29.722C153.327 30.8661 149.49 39.2306 140.766 39.3363C132.043 39.4421 127.407 30.6834 129.61 22.9919C127.524 19.0599 124.353 15.8095 120.473 13.6275Z" fill="white"/>
<path d="M160.686 25.3574C160.686 25.443 160.661 25.5267 160.613 25.5978C160.565 25.669 160.498 25.7244 160.419 25.7572C160.34 25.7899 160.253 25.7985 160.169 25.7818C160.085 25.7651 160.008 25.7239 159.947 25.6634C159.887 25.6029 159.845 25.5258 159.829 25.4419C159.812 25.3579 159.82 25.2709 159.853 25.1919C159.886 25.1128 159.941 25.0453 160.013 24.9977C160.084 24.9502 160.168 24.9248 160.253 24.9248C160.368 24.9248 160.478 24.9704 160.559 25.0515C160.64 25.1327 160.686 25.2427 160.686 25.3574Z" fill="#263238"/>
<path d="M138.738 32.3951C133.574 33.7988 122.09 33.3566 117.473 29.7993C112.857 26.2419 118.166 27.8764 118.166 27.8764C118.166 27.8764 112.539 24.9055 111.914 22.5789C111.289 20.2522 114.684 21.6751 114.684 21.6751C114.684 21.6751 110.26 17.9159 109.683 15.7046C109.106 13.4933 112.337 14.8393 112.337 14.8393C112.337 14.8393 108.308 11.8781 109.125 9.88789C109.943 7.89771 131.188 24.8575 137.757 25.3863C144.326 25.915 143.97 30.9722 138.738 32.3951Z" fill="#9B9AD3"/>
<path opacity="0.4" d="M138.738 32.3951C133.574 33.7988 122.09 33.3566 117.473 29.7993C112.857 26.2419 118.166 27.8764 118.166 27.8764C118.166 27.8764 112.539 24.9055 111.914 22.5789C111.289 20.2522 114.684 21.6751 114.684 21.6751C114.684 21.6751 110.26 17.9159 109.683 15.7046C109.106 13.4933 112.337 14.8393 112.337 14.8393C112.337 14.8393 108.308 11.8781 109.125 9.88789C109.943 7.89771 131.188 24.8575 137.757 25.3863C144.326 25.915 143.97 30.9722 138.738 32.3951Z" fill="white"/>
<path d="M104.882 8.64741C103.978 8.32052 103.064 8.02247 102.141 7.74365" stroke="#314D82" stroke-width="0.75" stroke-linecap="round" stroke-linejoin="round"/>
<path d="M96.5228 6.28241C93.1566 5.58664 89.7474 5.11768 86.3183 4.87872C76.9698 4.23455 62.2738 3.30195 56.5801 12.6183C51.3576 21.1078 60.3406 35.5966 63.5241 43.4708C67.429 53.0852 72.0744 65.0647 67.4578 75.2752C57.9843 96.273 17.4452 85.3703 3.71094 66.0358" stroke="#314D82" stroke-width="0.75" stroke-linecap="round" stroke-linejoin="round" stroke-dasharray="6.03 6.03"/>
<path d="M2.16349 63.6222C1.68113 62.8008 1.24446 61.9534 0.855469 61.084" stroke="#314D82" stroke-width="0.75" stroke-linecap="round" stroke-linejoin="round"/>
<path d="M118.974 139.96H82.4648V147.44H118.974V139.96Z" fill="white"/>
<path opacity="0.1" d="M118.974 139.96H82.4648V147.44H118.974V139.96Z" fill="#87BDF2"/>
<path opacity="0.1" d="M97.8437 139.96H82.4648V147.44H97.8437V139.96Z" fill="#87BDF2"/>
<path opacity="0.1" d="M82.4648 141.047H114.963L82.4648 141.96V141.047Z" fill="#87BDF2"/>
<path opacity="0.1" d="M118.971 142.345L90.8008 143.037H118.971V142.345Z" fill="#87BDF2"/>
<path opacity="0.1" d="M83.9531 144.432L97.8413 143.864L118.26 144.432L97.8413 144.749L83.9531 144.432Z" fill="#87BDF2"/>
<path opacity="0.1" d="M82.4648 146.018H106.529L82.4648 146.585V146.018Z" fill="#87BDF2"/>
<path opacity="0.1" d="M118.915 146.585L102.844 146.883H118.973L118.915 146.585Z" fill="#87BDF2"/>
<path d="M113.894 132.48H77.3848V139.96H113.894V132.48Z" fill="white"/>
<path opacity="0.1" d="M113.894 132.48H77.3848V139.96H113.894V132.48Z" fill="#87BDF2"/>
<path opacity="0.1" d="M92.7636 132.48H77.3848V139.96H92.7636V132.48Z" fill="#87BDF2"/>
<path opacity="0.1" d="M77.3848 133.558H109.883L77.3848 134.481V133.558Z" fill="#87BDF2"/>
<path opacity="0.1" d="M113.895 134.855L85.7148 135.557H113.895V134.855Z" fill="#87BDF2"/>
<path opacity="0.1" d="M78.8672 136.951L92.7553 136.375L113.174 136.951L92.7553 137.269L78.8672 136.951Z" fill="#87BDF2"/>
<path opacity="0.1" d="M77.3848 138.528H101.449L77.3848 139.105V138.528Z" fill="#87BDF2"/>
<path opacity="0.1" d="M113.837 139.105L97.7656 139.403H113.895L113.837 139.105Z" fill="#87BDF2"/>
<path d="M118.06 124.991H81.5508V132.471H118.06V124.991Z" fill="white"/>
<path opacity="0.1" d="M118.06 124.991H81.5508V132.471H118.06V124.991Z" fill="#87BDF2"/>
<path opacity="0.1" d="M96.9297 124.991H81.5508V132.471H96.9297V124.991Z" fill="#87BDF2"/>
<path opacity="0.1" d="M81.5508 126.068H114.049L81.5508 126.991V126.068Z" fill="#87BDF2"/>
<path opacity="0.1" d="M118.061 127.375L89.8906 128.068H118.061V127.375Z" fill="#87BDF2"/>
<path opacity="0.1" d="M83.0391 129.462L96.9272 128.895L117.346 129.462L96.9272 129.779L83.0391 129.462Z" fill="#87BDF2"/>
<path opacity="0.1" d="M81.5508 131.048H105.615L81.5508 131.615V131.048Z" fill="#87BDF2"/>
<path opacity="0.1" d="M118.003 131.615L101.941 131.913H118.061L118.003 131.615Z" fill="#87BDF2"/>
<path d="M142.375 147.296L143.327 143.71H182.327L200.293 145.498L200.976 147.296H142.375Z" fill="#2D69A4"/>
<path opacity="0.4" d="M182.327 143.71V147.296H142.375L143.327 143.71H182.327Z" fill="#87BDF2"/>
<path d="M174.498 126.539C174.55 126.974 174.509 127.415 174.376 127.832C174.244 128.249 174.023 128.634 173.73 128.959C173.437 129.284 173.077 129.543 172.675 129.717C172.274 129.892 171.839 129.979 171.401 129.971H111.655C110.721 129.951 109.826 129.591 109.138 128.96C108.449 128.328 108.014 127.468 107.914 126.539L104.365 88.3025C104.326 87.9291 104.352 87.5519 104.442 87.1873C104.608 86.5158 104.997 85.9207 105.546 85.4997C106.094 85.0786 106.77 84.8566 107.462 84.8702H167.246C168.18 84.8905 169.075 85.25 169.764 85.8817C170.452 86.5133 170.887 87.3738 170.987 88.3025L174.498 126.539Z" fill="#2D69A4"/>
<path opacity="0.4" d="M171.189 129.971H111.655C110.721 129.951 109.826 129.592 109.138 128.96C108.449 128.328 108.014 127.468 107.914 126.539L104.365 88.3028C104.326 87.9294 104.352 87.5521 104.442 87.1875H163.976C164.91 87.2078 165.805 87.5673 166.494 88.1989C167.182 88.8306 167.617 89.6911 167.717 90.6198L171.266 128.856C171.305 129.23 171.279 129.607 171.189 129.971Z" fill="#87BDF2"/>
<path d="M130.141 106.521H142.5L139.211 141.893L158.754 144.825V147.296H117.59V144.825L126.025 141.893L130.141 106.521Z" fill="#2D69A4"/>
<path opacity="0.1" d="M142.499 106.522L133.343 146.729L126.023 146.508L130.14 106.522H142.499Z" fill="white"/>
<path d="M142.44 301.511H136.554L125.965 154.18H133.784L142.44 301.511Z" fill="#2D69A4"/>
<path opacity="0.4" d="M142.45 301.511H136.554L126.484 161.497L125.965 154.411H133.784L134.207 161.497L142.45 301.511Z" fill="white"/>
<path opacity="0.2" d="M134.207 161.141H126.484L125.965 154.411H133.784L134.207 161.141Z" fill="#87BDF2"/>
<path d="M185.684 301.511H179.798L178.836 154.18H186.646L185.684 301.511Z" fill="#2D69A4"/>
<path opacity="0.5" d="M186.655 154.411L186.501 178.187L185.693 301.511H179.798L178.99 178.187L178.836 154.411H186.655Z" fill="white"/>
<path opacity="0.2" d="M186.655 154.411L186.501 178.447H178.99L178.836 154.411H186.655Z" fill="#87BDF2"/>
<path d="M248.237 301.511H242.351L231.762 154.18H239.581L248.237 301.511Z" fill="#2D69A4"/>
<path opacity="0.5" d="M248.247 301.511H242.351L232.281 161.497L231.762 154.411H239.581L240.004 161.497L248.247 301.511Z" fill="white"/>
<path opacity="0.2" d="M240.004 161.141H232.281L231.762 154.411H239.581L240.004 161.141Z" fill="#87BDF2"/>
<path d="M75.0402 301.511H69.1445L77.8102 154.18H85.6295L75.0402 301.511Z" fill="#2D69A4"/>
<path opacity="0.5" d="M85.6277 154.411L85.1083 161.497L75.0384 301.511H69.1523L77.3852 161.497L77.8084 154.411H85.6277Z" fill="white"/>
<path opacity="0.2" d="M77.808 154.411H85.6272L85.1079 161.141H77.3848L77.808 154.411Z" fill="#87BDF2"/>
<path d="M71.6133 150.488H245.773V155.786C245.773 156.337 245.554 156.865 245.164 157.254C244.775 157.644 244.246 157.863 243.695 157.863H73.6907C73.1398 157.863 72.6114 157.644 72.2218 157.254C71.8322 156.865 71.6133 156.337 71.6133 155.786V150.488Z" fill="#1947AF"/>
<path opacity="0.6" d="M71.6133 150.488H245.773V155.786C245.773 156.337 245.554 156.865 245.164 157.254C244.775 157.644 244.246 157.863 243.695 157.863H73.6907C73.1398 157.863 72.6114 157.644 72.2218 157.254C71.8322 156.865 71.6133 156.337 71.6133 155.786V150.488Z" fill="white"/>
<path opacity="0.2" d="M245.773 150.488H71.6133V154.18H245.773V150.488Z" fill="#87BDF2"/>
<path d="M249.429 151.459H67.9603C67.4093 151.459 66.8809 151.241 66.4913 150.851C66.1017 150.462 65.8828 149.933 65.8828 149.383C65.8828 148.831 66.1014 148.302 66.4907 147.911C66.88 147.52 67.4084 147.299 67.9603 147.296H249.429C249.981 147.299 250.509 147.52 250.899 147.911C251.288 148.302 251.507 148.831 251.507 149.383C251.507 149.933 251.288 150.462 250.898 150.851C250.509 151.241 249.98 151.459 249.429 151.459Z" fill="#1947AF"/>
<path opacity="0.6" d="M249.429 151.459H67.9603C67.4093 151.459 66.8809 151.241 66.4913 150.851C66.1017 150.462 65.8828 149.933 65.8828 149.383C65.8828 148.831 66.1014 148.302 66.4907 147.911C66.88 147.52 67.4084 147.299 67.9603 147.296H249.429C249.981 147.299 250.509 147.52 250.899 147.911C251.288 148.302 251.507 148.831 251.507 149.383C251.507 149.933 251.288 150.462 250.898 150.851C250.509 151.241 249.98 151.459 249.429 151.459Z" fill="white"/>
<path d="M206.496 140.884L208.727 137.538C208.947 137.209 209.245 136.94 209.594 136.754C209.943 136.568 210.332 136.47 210.728 136.471H213.556C213.79 136.471 214.024 136.507 214.248 136.576L224.337 139.634C224.911 139.805 225.398 140.186 225.703 140.701L227.155 143.133L206.496 140.884Z" fill="#1947AF"/>
<path opacity="0.2" d="M227.155 143.133L212.449 141.537L206.477 140.884L208.708 137.538C208.928 137.209 209.225 136.94 209.574 136.754C209.923 136.568 210.313 136.47 210.708 136.471H213.536C213.774 136.472 214.01 136.508 214.238 136.576L214.459 136.644L224.318 139.634C224.894 139.804 225.385 140.185 225.693 140.701L227.155 143.133Z" fill="#87BDF2"/>
<path opacity="0.2" d="M227.155 143.133L212.449 141.537L214.459 136.644L224.318 139.634C224.894 139.803 225.385 140.185 225.693 140.701L227.155 143.133Z" fill="#87BDF2"/>
<path d="M234.138 146.97V147.287H202.957L204.111 142.778C204.325 141.95 204.809 141.216 205.487 140.694C206.164 140.172 206.997 139.89 207.852 139.894H221.683C222.143 139.891 222.599 139.973 223.029 140.134L224.761 140.778L231.628 143.336C232.369 143.61 233.008 144.106 233.457 144.757C233.906 145.407 234.144 146.18 234.138 146.97Z" fill="#1947AF"/>
<path opacity="0.2" d="M234.137 146.97V147.287H221.336L222.019 142.412C222.063 142.11 222.174 141.822 222.344 141.568C222.514 141.314 222.738 141.101 223.001 140.946C223.264 140.79 223.558 140.695 223.863 140.667C224.167 140.64 224.473 140.681 224.76 140.788L231.627 143.345C232.367 143.619 233.004 144.114 233.453 144.762C233.902 145.41 234.141 146.181 234.137 146.97Z" fill="#87BDF2"/>
<path d="M223.328 143.979L227.406 131.759C227.446 131.635 227.512 131.52 227.601 131.424C227.69 131.328 227.799 131.253 227.92 131.203C228.041 131.154 228.171 131.131 228.302 131.138C228.432 131.144 228.56 131.179 228.676 131.24C228.853 131.342 228.993 131.497 229.076 131.684C229.159 131.87 229.181 132.079 229.137 132.278L225.704 145.315C225.704 145.315 223.424 146.238 223.328 143.979Z" fill="#2D69A4"/>
<path opacity="0.2" d="M206.486 146.277H204.688L205.034 144.499H206.842L206.486 146.277Z" fill="#87BDF2"/>
<path opacity="0.2" d="M209.187 146.21H207.379L207.725 144.431H209.533L209.187 146.21Z" fill="#87BDF2"/>
</svg>
