<svg width="147" height="403" viewBox="0 0 147 403" fill="none" xmlns="http://www.w3.org/2000/svg">
<path fill-rule="evenodd" clip-rule="evenodd" d="M185.214 174.822C183.287 199.496 59.1215 272.139 58.3971 274.177C58.0751 275.083 70.9577 303.718 97.045 360.082L86.1911 364.038C46.1777 304.344 27.1986 271.317 29.2538 264.956C32.1963 255.85 64.309 225.892 125.592 175.084L185.214 174.822Z" fill="#B28B67"/>
<path fill-rule="evenodd" clip-rule="evenodd" d="M94.1887 347.353L76.468 353.403C39.1013 313.858 24.4546 281.229 27.1252 264.605C28.9056 253.521 60.9075 223.614 123.131 174.882L186.485 174.882C184.323 232.023 69.2376 274.394 67.6982 276.829C66.1589 279.264 81.3077 303.113 94.1887 347.353Z" fill="#12B1AA"/>
<path fill-rule="evenodd" clip-rule="evenodd" d="M100.854 358.315C103.109 360.829 104.519 362.803 105.083 364.238C105.77 365.983 106.472 368.631 107.189 372.182C105.099 372.885 86.3162 379.21 50.8408 391.155C47.5315 386.958 47.3807 384.142 50.3884 382.706C53.3962 381.27 55.8841 380.05 57.8523 379.046L79.5923 358.916C80.0106 358.529 80.6876 358.549 81.1043 358.962C81.1115 358.969 81.1185 358.976 81.1254 358.983L84.3653 362.373C87.8052 362.709 90.4381 362.57 92.2641 361.955C93.7476 361.456 95.568 360.186 97.7253 358.145L97.7253 358.145C98.5532 357.361 99.9071 357.389 100.749 358.206C100.786 358.241 100.821 358.277 100.854 358.315Z" fill="#E4E4E4"/>
<path fill-rule="evenodd" clip-rule="evenodd" d="M170.938 174.822L226.25 299.373L280.613 404.67H267.787L127.461 174.822H170.938Z" fill="#997659"/>
<path fill-rule="evenodd" clip-rule="evenodd" d="M275.704 382.796L247.204 387.809C225.168 357.422 132.947 232.824 122.836 174.822H186.283C220.049 216.752 254.699 351.906 275.704 382.796Z" fill="#1BC5BD"/>
<path fill-rule="evenodd" clip-rule="evenodd" d="M150.798 53.8129C153.996 47.4801 155.356 40.2931 152.817 33.1516C145.501 12.5748 116.632 23.9391 113.694 35.812C110.756 47.6849 118.873 74.3085 126.974 74.4952C130.205 74.5697 136.132 71.282 141.628 65.9969L145.303 95.0266L169.589 89.5783L150.798 53.8129Z" fill="#CFAF92"/>
<path fill-rule="evenodd" clip-rule="evenodd" d="M112.813 41.1774C112.682 39.7471 112.863 38.0845 112.99 36.6742C113.154 34.8561 113.682 33.1303 114.329 31.4699C115.547 28.3439 117.225 25.3894 119.259 22.7913C122.975 18.0456 128.403 14.5607 134.497 13.9044C137.575 13.573 140.766 13.9994 143.724 15.245C146.396 16.3704 149.194 18.2856 152.124 17.8022C155.312 17.276 157.465 13.9805 159.536 11.7768C161.87 9.29241 164.521 7.26575 167.694 5.99048C173.009 3.85439 178.715 4.45712 183.73 7.9328C189.066 11.6315 193.88 17.741 192.879 24.4784C192.694 25.7308 192.316 26.8368 191.616 27.8417C190.973 28.7633 189.9 29.8325 189.877 31.0765C189.853 32.3989 191.373 33.7518 192.099 34.775C193.138 36.2408 194.092 37.8108 194.392 39.5929C194.885 42.5195 193.747 45.6796 192.27 48.0129C190.768 50.3873 188.575 52.0518 186.051 53.1635C184.365 53.9057 182.6 54.5055 180.758 54.7898C179.844 54.931 178.988 54.8734 178.067 54.8821C177.172 54.8906 176.758 55.2122 176.162 55.8174C173.393 58.6294 170.029 60.2391 166.1 60.8088C162.783 61.2894 158.837 61.3904 155.61 59.8714C152.026 58.1844 151.197 54.922 150.941 51.2932C150.302 51.8066 148.333 52.4828 149.167 50.8255C149.498 50.1691 150.344 49.7401 150.872 49.278C151.487 48.7401 152.083 48.0902 152.473 47.3522C154.048 44.3725 150.405 39.867 147.352 39.6826C142.816 39.4087 143.424 45.2886 140.826 47.4364C139.333 48.6714 137.215 47.9299 135.602 47.0477C133.442 45.8659 131.693 44.047 130.095 42.1547C128.778 40.5964 127.513 39.0002 126.183 37.4542C125.562 36.7323 123.553 34.7491 123.996 33.6722C120.831 33.7845 117.807 35.7394 115.643 37.8927C114.749 38.7829 114.128 39.6814 113.868 40.9526C113.813 41.225 113.745 42.0126 113.419 42.1185C112.811 42.3157 112.846 41.5368 112.813 41.1774Z" fill="#191847"/>
<path fill-rule="evenodd" clip-rule="evenodd" d="M83.2339 165.955L49.6193 189.994C40.4231 192.481 32.7588 195.516 26.6264 199.1C25.1863 200.377 23.4659 202.944 29.5319 202.411C35.598 201.877 42.0047 201.573 42.8811 203.507C43.7575 205.441 40.1271 207.826 41.8731 210.426C43.037 212.16 48.2873 207.686 57.624 197.005L91.1102 183.334L83.2339 165.955ZM214.085 164.735L191.762 165.164C206.367 206.76 214.244 228.828 215.393 231.369C217.978 237.086 212.919 245.934 210.775 250.679C218.121 253.629 217.122 242.297 226.391 246.172C234.852 249.709 241.364 256.254 250.946 250.485C252.124 249.776 253.378 247.154 250.184 245.171C242.224 240.229 230.723 231.542 229.135 228.648C226.97 224.702 221.953 203.398 214.085 164.735Z" fill="#CFAF92"/>
<path fill-rule="evenodd" clip-rule="evenodd" d="M148.956 78.003L139.694 76.6598C105.984 104.966 92.9632 158.543 51.5302 187.46L61.8675 199.061C134.544 189.467 151.319 124.102 148.956 78.003Z" fill="#308AE7"/>
<path fill-rule="evenodd" clip-rule="evenodd" d="M191.375 186.238C154.375 186.812 127.159 187.234 109.727 187.504C105.996 187.562 106.599 182.492 107.088 179.931C112.734 150.373 136.408 118.237 135.585 76.2992L159.068 72.4659C179.126 101.584 186.574 137.701 191.375 186.238Z" fill="#DDE3E9"/>
<path fill-rule="evenodd" clip-rule="evenodd" d="M189.066 100.891C192.467 99.9146 195.132 97.7195 197.062 94.3054C205.381 79.5882 202.116 71.607 192.868 69.1103C183.619 66.6137 175.525 72.1774 160.873 72.4048C160.076 72.4171 159.347 72.4754 158.686 72.5795L151.323 73.0889C131.498 140.729 126.548 185.73 136.473 208.09L200.716 207.093C204.686 215.37 208.466 222.328 212.056 227.965L229.562 227.693C230.227 177.637 216.728 135.369 189.066 100.891Z" fill="#3699FF"/>
</svg>
