<svg width="117" height="339" viewBox="0 0 117 339" fill="none" xmlns="http://www.w3.org/2000/svg">
<path fill-rule="evenodd" clip-rule="evenodd" d="M111.337 32.354C115.207 27.8061 117.826 22.2327 117.388 15.9874C116.127 -2.00682 91.1091 1.95169 86.2426 11.0336C81.3761 20.1156 81.9544 43.1527 88.2439 44.7759C90.7521 45.4233 96.0955 43.8376 101.534 40.5557L98.1203 64.7344H118.276L111.337 32.354Z" fill="#CFAF92"/>
<path fill-rule="evenodd" clip-rule="evenodd" d="M95.1317 12.3507C97.8668 13.8825 99.8133 16.7529 102.156 20.518C102.727 20.2935 103.349 20.1701 103.999 20.1701C106.782 20.1701 109.038 22.4288 109.038 25.2151C109.038 26.6296 108.456 27.9081 107.52 28.8242C108.686 30.4719 109.992 32.1931 111.49 33.9692C117.077 30.6128 121.233 20.8305 115.898 11.387C111.308 -7.52913 85.2978 4.21189 80.2937 1.02161C79.1999 7.88594 82.728 13.4208 95.1317 12.3507Z" fill="#191847"/>
<path fill-rule="evenodd" clip-rule="evenodd" d="M119.087 137.731L77.8681 242.186L50.2224 330.493H39.3057L81.57 137.731L119.087 137.731Z" fill="#CFAF92"/>
<path fill-rule="evenodd" clip-rule="evenodd" d="M127.387 137.731C127.826 174.437 134.227 223.856 135.25 226.144C135.932 227.669 159.468 247.067 205.859 284.337L198.34 292.393C143.603 260.439 114.968 242.331 112.435 238.069C108.636 231.676 96.266 172.847 86.3348 137.731H127.387Z" fill="#B28B67"/>
<path fill-rule="evenodd" clip-rule="evenodd" d="M54.6925 326.416C55.632 328.927 56.1018 330.806 56.1018 332.053C56.1018 333.569 55.8495 335.782 55.3449 338.691C53.5881 338.691 37.7993 338.691 7.97841 338.691C6.74752 334.617 7.45806 332.417 10.11 332.092C12.762 331.767 14.965 331.474 16.7191 331.212L38.7346 321.385C39.1583 321.196 39.6548 321.387 39.8436 321.811C39.8469 321.818 39.85 321.826 39.853 321.833L41.2682 325.27C43.7232 326.417 45.7181 326.99 47.253 326.99C48.5001 326.99 50.2223 326.486 52.4197 325.477L52.4197 325.477C53.2629 325.09 54.2599 325.461 54.6465 326.305C54.6631 326.342 54.6785 326.379 54.6925 326.416Z" fill="#E4E4E4"/>
<path fill-rule="evenodd" clip-rule="evenodd" d="M91.3736 321.397L39.4699 315.757L77.9367 137.731H124.425L91.3736 321.397Z" fill="#69A1AC"/>
<path fill-rule="evenodd" clip-rule="evenodd" d="M195.123 271.34L161.077 311.688C125.218 272.475 104.312 246.888 98.3586 234.928C92.4057 222.968 87.0544 190.569 82.3046 137.731H134.642C137.236 184.216 138.985 208.54 139.889 210.703C140.792 212.866 159.203 233.079 195.123 271.34Z" fill="#89C5CC"/>
<path fill-rule="evenodd" clip-rule="evenodd" d="M43.3162 127.567L18.6353 151.519C11.4541 154.566 5.57006 157.931 0.983299 161.613C-0.0481949 162.851 -1.17115 165.222 3.68198 164.161C8.53512 163.1 13.6879 162.2 14.6 163.771C15.5121 165.341 12.8245 167.746 14.5102 169.801C15.634 171.171 19.4136 166.814 25.8488 156.73L51.5137 141.677L43.3162 127.567ZM164.006 105.89L144.928 105.962C159.458 152.793 167.172 177.313 168.068 179.522C170.084 184.492 165.817 192.062 163.993 196.13C169.935 198.775 169.302 188.979 176.798 192.448C183.639 195.615 188.844 201.352 196.748 196.5C197.72 195.903 198.785 193.657 196.212 191.902C189.802 187.53 180.564 179.877 179.316 177.358C177.613 173.923 172.51 150.1 164.006 105.89Z" fill="#CFAF92"/>
<path fill-rule="evenodd" clip-rule="evenodd" d="M105.871 52.0527L98.3371 50.7672C86.469 92.5008 25.4908 120.948 21.7474 136.549C20.3746 142.27 24.5139 145.163 22.3757 146.905L32.1683 154.036C33.8266 152.112 37.3654 155.632 44.7555 153.17C52.1455 150.707 105.871 101.469 105.871 52.0527Z" fill="#DB2721"/>
<path fill-rule="evenodd" clip-rule="evenodd" d="M93.1975 57.5691C94.0789 112.848 61.9575 126.943 69.1107 149.112C75.0165 167.415 131.545 187.091 141.327 169.15C145.287 161.887 147.083 153.104 147.287 143.554C149.787 150.891 151.764 157.206 153.219 162.502C155.728 171.637 165.455 173.089 165.455 176.608L178.271 173.089C177.402 168.308 183.444 165.98 181.824 155.299C174.565 107.441 155.063 72.751 123.318 51.2279L122.98 46.453C122.85 44.6013 121.246 43.2052 119.396 43.3339L119.396 43.3309L95.6782 44.9777C93.8274 45.1064 92.4313 46.713 92.5598 48.5661C92.5599 48.5671 92.56 48.5681 92.5601 48.5691L93.1975 57.5691Z" fill="#FF4133"/>
</svg>
