<svg width="329" height="246" viewBox="0 0 329 246" fill="none" xmlns="http://www.w3.org/2000/svg">
<g clip-path="url(#clip0)">
<g clip-path="url(#clip1)">
<g opacity="0.504511">
<path opacity="0.504511" fill-rule="evenodd" clip-rule="evenodd" d="M281.881 212.919C285.867 242.74 189.192 262.191 105.981 248.616C22.7705 235.042 -15.4026 182.032 24.3041 153.786C64.0109 125.54 277.894 183.098 281.881 212.919Z" fill="#F2F2F2"/>
</g>
<path fill-rule="evenodd" clip-rule="evenodd" d="M164.343 75.1131C162.211 74.0557 159.368 75.2821 160.554 78.0776C161.824 81.0711 166.52 81.1081 169.173 81.0488C168.907 81.0349 168.052 78.2897 167.76 77.8749C166.897 76.6512 165.654 75.7644 164.343 75.1131ZM188.912 128.784C189.45 129.244 188.955 128.828 188.912 128.784V128.784ZM162.289 88.653C161.041 89.607 160.981 91.2913 162.001 92.4314C163.215 93.7886 165.431 93.7392 167.085 93.6069C167.834 93.547 171.83 93.227 170.882 92.5731C170.955 92.6006 171.107 92.6674 171.27 92.7582C171.358 93.0784 171.45 93.3975 171.546 93.7152C171.522 93.7289 171.502 93.7437 171.477 93.7573C171.504 93.7454 171.524 93.7325 171.547 93.7204C172.508 96.8957 173.876 99.919 175.667 102.747C174.997 102.484 174.303 102.284 173.599 102.195C171.515 101.931 167.129 103.551 169.461 106.327C171.697 108.988 175.178 106.133 177.715 105.74C180.177 109.175 182.89 112.468 185.734 115.65C185.56 115.705 185.407 115.818 185.32 115.995C184.179 115.417 182.99 114.588 181.934 114.364C180.41 114.041 177.286 113.845 176.134 115.209C174.718 116.886 176.236 118.249 177.909 118.57C180.336 119.037 183.513 117.851 185.847 117.05C186.114 117.097 186.406 117.019 186.58 116.806C186.632 116.789 186.683 116.772 186.734 116.756C189.614 119.923 192.604 122.985 195.576 125.98C195.544 125.979 195.513 125.977 195.48 125.975C194.704 125.466 193.873 125.049 192.971 124.831C190.886 124.322 188.433 124.32 186.741 125.829C185.055 127.331 184.458 129.959 186.202 131.646C189.692 135.023 194.835 127.323 196.596 127.002C199.616 130.013 202.809 132.827 206.053 135.585C205.685 135.473 205.307 135.39 204.917 135.353C201.736 135.049 194.27 138.949 198.173 142.786C201.575 146.129 205.512 139.694 208.254 137.443C211.311 140.013 214.384 142.565 217.371 145.217C215.742 144.784 214.167 144.72 212.421 145.248C210.614 145.795 207.698 147.16 208.84 149.6C210.002 152.081 213.504 150.952 215.328 150.164C216.322 149.735 218.317 148.284 220.068 147.674C224.834 152.174 228.963 157.131 232.089 162.971C234.04 166.617 235.521 170.512 236.563 174.515C237.228 177.071 238.539 181.363 238.277 184.689C239.528 178.031 237.266 170.035 234.83 164.085C232.589 158.613 229.237 153.809 225.31 149.485C226.295 146.521 234.59 142.246 229.631 139.492C226.998 138.036 224.301 140.452 223.725 143.011C223.33 144.769 223.932 146.979 224.572 148.685C223.336 147.367 222.052 146.092 220.729 144.858C218.9 143.154 217.027 141.499 215.137 139.864C218.252 136.937 221.2 128.57 217.023 127.201C210.855 125.186 213.825 136.6 214.256 138.739C214.378 138.746 214.473 138.709 214.543 138.63C214.508 138.826 214.468 139.036 214.419 139.247C210.801 136.135 207.129 133.085 203.578 129.899C203.898 129.662 204.406 128.759 204.806 128.278C205.708 127.194 206.571 126.061 207.202 124.792C208.199 122.788 209.16 119.591 206.518 118.412C203.645 117.127 202.28 120.743 202.26 122.9C202.247 124.392 202.653 125.81 202.865 127.272C202.931 127.728 202.676 129.784 203.297 128.9C203.268 129.226 203.264 129.462 203.278 129.629C202.641 129.055 202.008 128.474 201.38 127.888C201.409 127.814 201.43 127.734 201.435 127.64C201.469 126.997 200.822 126.749 200.368 126.938C199.538 126.15 198.717 125.351 197.91 124.537C196.201 122.812 194.466 121.038 192.743 119.227C193.117 118.906 192.968 118.461 193.318 118.12C193.667 117.78 194.354 117.592 194.765 117.276C195.797 116.481 196.652 115.322 197.271 114.182C198.293 112.299 199.614 108.347 196.629 107.45C193.552 106.523 191.99 110.327 191.792 112.705C191.754 113.165 192.099 117.316 192.363 118.824C189.175 115.457 186.04 111.963 183.2 108.409C184.061 108.401 186.503 106.637 186.996 106.155C188.201 104.981 190.115 102.386 188.004 101.012C186.126 99.7944 183.812 101.559 183.009 103.273C182.877 103.555 182.412 106.183 182.376 107.362C181.2 105.855 180.079 104.339 179.036 102.818C178.34 101.807 177.69 100.769 177.081 99.7087C177.228 99.6257 177.366 99.4809 177.496 99.3009C180.627 98.7695 184.619 93.8837 180.941 92.1838C179.19 91.3755 177.291 93.044 176.433 94.4101C176.257 94.6895 175.973 96.0946 175.741 97.2029C173.991 93.6914 172.654 89.9738 171.636 86.1621C171.908 86.0944 172.139 85.8862 172.17 85.528C173.69 84.6613 174.89 83.9396 175.951 82.273C176.611 81.2378 177.798 78.8726 175.861 78.298C173.34 77.5504 171.756 81.4011 171.55 83.2978C171.526 83.5179 171.527 84.1583 171.535 84.745C171.448 84.7331 171.359 84.7345 171.273 84.7498C170.694 82.3896 170.232 79.999 169.864 77.6043C171.24 77.1614 171.478 69.9348 170.562 68.9058C168.514 66.6018 167.069 69.93 167.179 71.6891C167.308 73.7632 168.248 75.65 169.367 77.3244C169.487 77.5018 169.452 77.4932 169.484 77.2461C169.501 77.3682 169.542 77.4583 169.602 77.5236C169.544 78.6154 169.432 79.7332 169.486 80.6993C169.641 83.466 169.963 86.2488 170.431 88.9798C170.545 89.644 170.675 90.3028 170.821 90.956C169.715 90.0137 168.224 89.1765 167.641 88.9147C166.127 88.2359 163.793 87.503 162.289 88.653ZM238.454 184.698C238.384 185.663 238.21 186.546 237.885 187.275C238.129 186.445 238.316 185.583 238.454 184.698Z" fill="#E1E9D9"/>
<path opacity="0.2" fill-rule="evenodd" clip-rule="evenodd" d="M85.401 17.1124C86.9241 16.3571 88.9546 17.2331 88.1076 19.2299C87.2002 21.3682 83.8457 21.3946 81.9512 21.3522C82.1408 21.3423 82.7514 19.3814 82.9604 19.0852C83.5769 18.2111 84.4646 17.5776 85.401 17.1124ZM67.8636 56.0729C67.3256 56.5329 67.8198 56.116 67.8636 56.0729V56.0729ZM87.1712 27.0401C88.082 27.7294 88.1248 28.9473 87.3801 29.7721C86.4934 30.7539 84.8752 30.719 83.6673 30.624C83.1209 30.581 80.2034 30.351 80.8952 29.8778C80.842 29.8977 80.7309 29.9461 80.612 30.0118C80.5479 30.2434 80.4806 30.4742 80.4104 30.7039C80.4276 30.7138 80.4422 30.7245 80.4605 30.7344C80.4407 30.7258 80.4267 30.7164 80.4092 30.7077C79.7064 33.0041 78.7066 35.1907 77.3978 37.2366C77.8872 37.0456 78.3941 36.9009 78.9081 36.8363C80.4303 36.6449 83.6317 37.8148 81.928 39.8229C80.2945 41.748 77.754 39.6848 75.9014 39.4011C74.103 41.8862 72.1204 44.268 70.0427 46.5702C70.1699 46.6096 70.2815 46.6918 70.3454 46.8198C71.1787 46.4008 72.0471 45.8015 72.8181 45.639C73.9308 45.4048 76.2121 45.262 77.0524 46.2479C78.086 47.4601 76.9769 48.4458 75.7549 48.679C73.983 49.0172 71.6642 48.161 69.9597 47.5826C69.7647 47.6168 69.5518 47.5605 69.4247 47.406C69.387 47.3938 69.3494 47.3818 69.3127 47.3701C67.2087 49.6612 65.0243 51.8766 62.8532 54.0436C62.8763 54.0424 62.8994 54.041 62.9235 54.0397C63.4897 53.6717 64.097 53.3697 64.7552 53.2113C66.2779 52.843 68.0691 52.8403 69.3041 53.9307C70.5342 55.0165 70.9692 56.9163 69.6954 58.1368C67.1457 60.58 63.3937 55.0142 62.1084 54.7825C59.902 56.9615 57.5692 58.9975 55.1998 60.9924C55.4688 60.9112 55.7447 60.8514 56.0298 60.8245C58.3523 60.6031 63.8022 63.4204 60.9505 66.1964C58.4655 68.6155 55.5931 63.9633 53.5923 62.3368C51.3595 64.1962 49.1146 66.0429 46.9326 67.9615C48.1223 67.648 49.2719 67.6014 50.5469 67.9823C51.8661 68.3772 53.9947 69.3628 53.1597 71.1277C52.3104 72.9225 49.7541 72.1073 48.4228 71.5383C47.6966 71.228 46.241 70.18 44.9627 69.739C41.4808 72.995 38.4644 76.581 36.1801 80.8046C34.754 83.4418 33.6714 86.259 32.9089 89.1543C32.4222 91.0024 31.4635 94.1063 31.6539 96.5112C30.743 91.6977 32.3974 85.9152 34.1785 81.6114C35.8162 77.6538 38.2659 74.1791 41.1347 71.051C40.4163 68.9079 34.3616 65.8195 37.9832 63.8262C39.9063 62.7723 41.8746 64.5185 42.2939 66.3687C42.5819 67.6401 42.1413 69.238 41.6739 70.4724C42.5764 69.5188 43.5145 68.5959 44.4812 67.7036C45.8171 66.4703 47.185 65.2728 48.5659 64.0904C46.2924 61.975 44.1428 55.9256 47.1931 54.9345C51.6975 53.4751 49.5248 61.7294 49.2098 63.2764C49.1206 63.2817 49.0511 63.255 48.9999 63.1978C49.0252 63.3395 49.0545 63.4909 49.09 63.6437C51.7331 61.3923 54.4154 59.1852 57.0094 56.8801C56.7759 56.7092 56.4048 56.056 56.1131 55.7083C55.4549 54.9246 54.8251 54.1059 54.3649 53.189C53.6381 51.7399 52.9376 49.4283 54.8667 48.5747C56.9646 47.6448 57.96 50.2591 57.9738 51.819C57.9832 52.8979 57.6861 53.9229 57.531 54.9804C57.4825 55.3103 57.6677 56.7968 57.2145 56.1575C57.2357 56.3933 57.2387 56.5641 57.2281 56.6851C57.6938 56.2692 58.1559 55.8488 58.6151 55.4254C58.5938 55.372 58.5781 55.3137 58.5746 55.2461C58.5502 54.7811 59.0228 54.6017 59.354 54.7378C59.96 54.1674 60.56 53.5899 61.1493 53.001C62.3983 51.7532 63.6655 50.4697 64.9239 49.159C64.6511 48.927 64.7598 48.6054 64.5047 48.359C64.2501 48.1132 63.7483 47.9775 63.4488 47.7492C62.6956 47.1746 62.0711 46.3374 61.6197 45.5133C60.8743 44.1516 59.9115 41.2949 62.0914 40.6446C64.3383 39.9733 65.4773 42.7231 65.6208 44.4426C65.6488 44.7757 65.3954 47.7775 65.202 48.8676C67.5305 46.4317 69.8208 43.9044 71.8959 41.3333C71.2671 41.3279 69.4851 40.0529 69.1249 39.7049C68.246 38.8561 66.8491 36.9804 68.3913 35.9866C69.7624 35.1052 71.4514 36.38 72.0369 37.6194C72.1331 37.8235 72.4719 39.7234 72.498 40.5759C73.3568 39.4856 74.1762 38.3889 74.9385 37.2887C75.4469 36.5573 75.9219 35.8065 76.3665 35.0399C76.2596 34.9799 76.1591 34.8753 76.0641 34.7452C73.7782 34.362 70.8653 30.8306 73.5512 29.6001C74.83 29.0149 76.2159 30.2207 76.8417 31.2082C76.9699 31.4102 77.1772 32.4261 77.3459 33.2274C78.6251 30.6876 79.6029 27.9989 80.3476 25.2424C80.1486 25.1935 79.9801 25.043 79.958 24.7841C78.8484 24.1579 77.9722 23.6365 77.198 22.4317C76.717 21.6834 75.851 19.9736 77.2656 19.5574C79.1065 19.0159 80.2612 21.7997 80.4111 23.1711C80.4286 23.3303 80.4277 23.7933 80.4214 24.2176C80.4853 24.209 80.5499 24.2099 80.6132 24.221C81.0369 22.5141 81.3752 20.7853 81.6444 19.0536C80.64 18.7339 80.4689 13.5084 81.1382 12.764C82.6341 11.0972 83.6877 13.5033 83.6073 14.7753C83.5122 16.2752 82.8253 17.6398 82.0076 18.851C81.9199 18.9793 81.9449 18.9731 81.9223 18.7944C81.9097 18.8827 81.8798 18.9479 81.8356 18.9951C81.8773 19.7846 81.9591 20.5928 81.9193 21.2914C81.8051 23.292 81.5688 25.3044 81.2262 27.2794C81.1428 27.7597 81.0474 28.2361 80.9405 28.7085C81.7483 28.0267 82.8373 27.4208 83.2634 27.2313C84.3693 26.7399 86.0735 26.2091 87.1712 27.0401ZM31.473 96.3213C31.5263 96.9642 31.6849 97.5509 31.997 98.0315C31.7679 97.4821 31.596 96.9099 31.473 96.3213Z" fill="#C1DEE2"/>
<g opacity="0.7">
<path opacity="0.7" fill-rule="evenodd" clip-rule="evenodd" d="M205.822 140.459C211.744 140.152 219.068 143.609 219.7 150.047C220.159 154.725 220.017 159.389 220.727 164.06C221.295 167.793 222.496 171.376 224.135 174.776C225.71 178.046 228.978 180.829 229.828 184.323C230.369 186.548 230.066 189.679 229.319 191.856C228.411 194.503 228.894 194.294 230.704 196.515C234.251 200.868 237.445 205.331 239.704 210.53C242.957 218.018 245.09 226.77 243.883 234.967C243.729 236.007 243.547 239.743 242.114 240.004C240.513 240.296 241.262 238.159 241.347 237.469C241.892 233.066 242.376 229.218 241.719 224.746C239.184 207.493 226.808 196.125 218.749 181.482C218.306 180.727 217.371 178.928 216.721 177.742C215.694 175.869 214.662 172.305 213.272 170.917C210.655 168.3 213.061 173.56 213.571 174.564C214.216 175.834 214.925 177.184 215.586 178.297C218.61 183.456 221.985 189.087 225.107 194.405C211.602 197.483 202.091 181.245 198.467 170.57C195.481 161.775 191.908 141.211 205.822 140.459Z" fill="#69A1AC"/>
<path opacity="0.7" fill-rule="evenodd" clip-rule="evenodd" d="M285.197 124.126C275.297 124.912 268.941 131.445 265.983 140.583C264.388 145.507 264.205 150.566 263.319 155.627C261.986 163.241 259.118 169.011 253.513 174.435C251.777 176.115 250.497 177.84 249.588 179.686C247.783 181.528 246.211 183.613 245.056 186.162C243.581 189.418 243.164 193.324 244.867 196.569C245.325 197.442 246.467 199.194 247.651 199.989C243.219 209.429 240.782 219.768 241.057 230.094C241.223 236.327 241.527 242.562 241.882 248.788C241.977 250.459 242.522 253.22 243.339 250.416C244.087 247.852 243.149 243.827 243.062 241.148C242.64 228.098 242.279 216.233 247.65 204.041C248.213 202.763 248.811 201.495 249.433 200.238C249.469 200.216 249.503 200.191 249.537 200.166C249.561 200.184 249.583 200.204 249.606 200.222C249.646 200.151 249.7 200.067 249.764 199.973C249.942 199.788 250.098 199.556 250.246 199.296C250.723 198.636 251.262 197.86 251.265 197.435C251.265 197.432 251.263 197.427 251.263 197.424C254.588 191.995 258.397 186.866 262.287 181.837C262.258 181.873 266.507 176.088 265.85 179.287C265.533 180.829 262.408 183.766 261.145 185.399C258.353 189.032 255.074 193.636 252.35 198.088C251.983 198.299 251.465 199.333 251.09 200.104C250.883 200.494 250.69 200.888 250.501 201.231C260.155 204.421 267.666 197.995 272.787 190.521C272.793 190.512 272.798 190.503 272.804 190.495C274.363 188.429 275.959 186.379 277.954 184.746C281.281 182.022 284.844 181.541 288.768 180.201C299.466 176.545 304.015 162.678 305.46 152.389C307.09 140.781 299.117 122.981 285.197 124.126Z" fill="#89C5CC"/>
<path opacity="0.7" fill-rule="evenodd" clip-rule="evenodd" d="M265.641 91.6194C255.48 102.196 250.571 116.865 246.684 130.655C242.343 146.058 239.475 161.698 239.365 177.712C239.293 188.234 239.007 198.821 239.621 209.33C239.839 213.062 240.211 216.801 240.802 220.493C240.851 220.797 242.175 229.041 243.441 227.12C244.161 226.027 242.084 218.568 241.927 217.325C241.045 210.327 240.839 203.278 240.883 196.229C240.953 184.624 240.611 173.079 241.787 161.517C241.963 159.79 242.101 157.977 242.511 156.288C242.947 154.493 242.392 155.277 243.81 154.566C245.188 153.875 246.891 153.974 248.32 153.107C253.991 149.668 256.892 140.834 259.15 135.039C261.732 128.411 263.301 121.343 264.555 114.368C265.475 109.244 266.133 104.15 266.506 98.9595C266.623 97.3236 266.63 95.6129 266.952 94.0044C267.038 93.5705 267.473 92.8029 267.457 92.4187C267.424 91.6055 266.933 91.1272 266.893 90.4438C266.467 90.8266 266.05 91.2188 265.641 91.6194Z" fill="#89C5CC"/>
<path opacity="0.7" fill-rule="evenodd" clip-rule="evenodd" d="M210.237 232.529C210.237 250.02 224.414 264.199 241.903 264.199C259.392 264.199 273.569 250.02 273.569 232.529" fill="#89C5CC"/>
<path opacity="0.7" fill-rule="evenodd" clip-rule="evenodd" d="M244.444 232.63H242.771C242.887 230.531 243.04 228.435 243.391 226.359C244.733 218.419 248.93 206.756 258.136 205.468C258.475 205.42 259.724 205.412 261.237 205.5C261.955 205.1 262.758 204.857 263.604 204.801C271.442 204.224 280.194 210.547 283.974 217.127C287.022 222.433 286.508 229.399 284.626 235.036C283.366 238.809 280.614 244.19 276.027 244.242C270.287 244.308 270.01 237.213 269.899 233.066C269.752 227.551 269.055 222.748 264.71 218.989C263.698 218.114 262.591 217.343 261.568 216.48C259.967 215.129 258.197 213.745 257.991 211.509C257.706 208.424 259.447 207.869 262.105 208.442C262.558 208.54 267.123 210.588 266.447 208.969C266.241 208.475 265.487 208.083 264.536 207.789C262.074 207.521 259.139 207.211 258.295 207.396C249.187 209.394 245.641 222.011 244.7 230.027C244.598 230.893 244.516 231.761 244.444 232.63Z" fill="#69A1AC"/>
</g>
<g opacity="0.5">
<path opacity="0.5" fill-rule="evenodd" clip-rule="evenodd" d="M71.5229 82.6194C73.3458 80.0199 76.7286 73.4181 79.2943 72.4892C80.9468 71.891 80.465 78.0797 80.4854 79.2597C80.5649 83.8252 80.1205 88.3617 79.5717 92.8888C78.5829 101.053 75.3497 108.325 70.9152 115.274C68.6333 118.849 65.9568 122.468 62.2497 124.699C60.5433 125.727 58.4901 125.899 56.805 126.784C54.8423 127.815 55.9112 126.981 55.0267 129.027C53.7984 131.866 53.4055 135.53 52.8372 138.56C50.2278 152.469 43.9105 225.998 45.0057 240.147C45.103 241.401 43.3545 241.701 43.2672 240.17C42.8033 232.052 46.8178 175.838 48.8432 157.455C50.8686 139.071 52.9182 122.83 54.9733 116.47C57.4665 108.754 61.9693 99.4749 65.7176 92.2792C67.4587 88.9363 69.3565 85.7085 71.5229 82.6194Z" fill="#69A1AC"/>
<path opacity="0.5" fill-rule="evenodd" clip-rule="evenodd" d="M85.0531 172.782C89.7966 169.3 94.931 175.873 90.6387 179.356C88.2658 181.281 85.785 180.596 84.3885 178.992C83.4819 180.097 82.6333 181.253 81.818 182.229C79.3338 185.203 76.9859 188.248 74.742 191.365C70.0806 197.839 66.0859 204.678 61.9091 211.393C57.7872 218.02 53.6982 224.681 49.9622 231.476C46.7972 237.232 42.5787 244.005 41.4951 250.316C43.1392 236.931 49.3778 224.066 56.8068 212.266C64.1754 200.563 72.6317 187.782 84.0411 178.546C82.8799 176.838 82.8477 174.401 85.0531 172.782Z" fill="#C1DEE2"/>
<path opacity="0.5" fill-rule="evenodd" clip-rule="evenodd" d="M-4.95741 140.138C-2.30298 140.658 2.03433 146.663 4.22237 148.951C6.82271 151.67 9.18186 154.568 11.4056 157.605C16.193 164.14 20.4744 171.089 24.1151 178.336C30.0503 190.15 34.8053 202.277 38.2561 215.141C40.3685 223.015 41.7362 231.177 42.5467 239.282C42.6998 240.81 44.3022 252.595 41.9933 252.913C39.9166 253.199 40.558 243.964 40.4578 242.708C39.3253 228.537 35.9328 214.749 31.2138 201.392C30.1859 198.483 29.231 194.919 27.5872 192.3C26.4034 190.414 27.5787 191.072 25.4984 190.358C23.7121 189.745 21.6769 189.895 19.8477 189.144C15.8739 187.514 12.6921 184.351 9.90302 181.168C4.48284 174.983 0.187615 168.292 -2.0513 160.367C-3.2933 155.973 -4.43463 151.554 -5.068 147.024C-5.23184 145.853 -6.66711 139.804 -4.95741 140.138Z" fill="#69A1AC"/>
<path opacity="0.5" fill-rule="evenodd" clip-rule="evenodd" d="M5.51767 40.2224C15.5164 57.5643 23.7329 76.6138 29.0383 95.9081C32.2528 107.598 34.5008 119.594 36.7343 131.503C40.1926 149.943 43.4637 168.382 44.3941 187.149C45.3303 206.026 47.1814 227.797 41.001 245.978C44.0881 227.52 41.1489 207.872 40.6285 189.299C40.3798 180.432 39.6592 171.653 38.7138 162.838C37.7964 154.287 36.2977 145.777 34.902 137.294C34.2221 133.162 33.5081 129.037 32.7812 124.914C32.5641 123.684 32.4725 120.033 31.6922 119.193C30.9069 118.347 26.9001 118.002 25.6422 117.382C23.1091 116.131 20.7265 114.356 18.6177 112.479C14.5753 108.883 11.0585 104.183 8.28282 99.5506C1.86058 88.8314 -0.707035 75.75 -0.577258 63.3357C-0.552322 60.9254 3.3236 34.9705 1.76697 34.6131C1.86069 34.5033 1.94935 34.39 2.03294 34.2721C3.21145 36.2455 4.3679 38.2322 5.51767 40.2224Z" fill="#89C5CC"/>
<path opacity="0.5" fill-rule="evenodd" clip-rule="evenodd" d="M113.436 102.767C113.591 102.545 114.595 100.997 114.089 101.096C115.119 100.895 112.673 102.803 115.238 101.632C114.02 102.782 114.723 104.277 114.74 105.825C114.766 108.339 114.346 110.832 113.872 113.292C113.124 117.18 112.01 120.96 110.392 124.576C106.867 132.457 100.881 140.044 93.774 144.972C90.2656 147.404 86.8272 148.233 82.8259 149.353C80.2985 150.06 80.098 151.368 78.7565 153.82C75.9634 158.929 73.2202 164.019 70.757 169.3C67.8157 175.606 64.9605 181.919 62.2672 188.337C53.194 209.952 45.8092 232.346 41.931 255.522C41.836 241.865 44.9951 227.799 48.9801 214.781C51.8829 205.297 55.6617 196.154 59.6923 187.104C60.669 184.911 62.149 182.091 62.5638 179.67C62.8542 177.974 61.9663 176.343 61.5598 174.556C59.9749 167.599 60.0884 159.804 61.4801 152.81C63.0146 145.097 67.4524 141.517 74.9594 140.425C77.7049 140.025 81.1944 140.171 83.7119 139.001C86.4546 137.726 87.586 133.535 89.1457 130.845C93.3347 123.62 98.312 116.69 104.027 110.601C105.61 108.915 107.312 107.36 109.117 105.918C110.256 105.008 112.661 103.888 113.436 102.767Z" fill="#89C5CC"/>
<path opacity="0.5" fill-rule="evenodd" clip-rule="evenodd" d="M29.2587 240.772H55.9004C57.0983 240.772 58.0694 241.743 58.0694 242.941C58.0694 243.047 58.0616 243.153 58.0462 243.258L55.987 257.222C55.3593 261.479 51.7067 264.632 47.4041 264.632H37.755C33.4524 264.632 29.7999 261.479 29.1722 257.222L27.113 243.258C26.9382 242.073 27.7572 240.97 28.9423 240.795C29.047 240.78 29.1528 240.772 29.2587 240.772Z" fill="#C1DEE2"/>
</g>
<path fill-rule="evenodd" clip-rule="evenodd" d="M18.6579 242.149C18.2994 242.769 17.9797 243.401 17.6973 244.043C17.6874 242.721 17.7604 241.39 17.96 240.04C18.3012 237.728 18.8222 235.428 19.3118 233.132C19.6637 231.481 19.6415 228.517 20.9769 227.202C21.3431 226.918 21.4313 227.476 21.4313 227.718C21.4359 227.769 21.4302 226.73 21.0748 226.911C18.962 228.002 18.2774 231.434 17.601 233.152C16.6141 235.659 15.7744 238.223 15.4286 240.832C15.3412 241.491 15.2937 242.15 15.2827 242.808C15.2109 242.632 15.1435 242.454 15.0688 242.279C13.8494 239.419 12.2037 236.628 10.1512 234.054C9.64604 233.421 3.29359 227.171 2.79631 228.128C2.84538 228.267 2.9481 228.382 3.10475 228.474C3.11395 228.484 3.1142 228.478 3.10884 228.463C3.48193 229.066 4.54267 229.996 4.87308 230.525C5.70461 231.854 6.35086 233.264 7.0076 234.647C8.39518 237.571 9.68233 240.524 10.9301 243.483C11.2207 244.173 11.5235 244.858 11.8324 245.542C8.64765 240.947 4.39906 236.777 -1.44947 234.389C0.54808 235.406 1.85772 237.318 3.20671 238.782C4.83373 240.548 6.54737 242.266 8.17746 244.03C10.1001 246.111 12.3624 248.302 14.2118 250.605C16.0031 254.366 17.7438 258.131 18.8184 262.085C18.3781 260.719 18.7839 258.831 18.7085 257.398C18.6487 256.257 18.5153 255.125 18.3326 253.995C18.5585 254.505 18.7532 255.015 18.8414 255.489C18.7609 254.693 18.6681 253.903 18.5685 253.117C18.8242 252.38 19.0754 251.693 19.2451 251.127C20.1147 248.225 21.1502 245.372 22.5602 242.591C23.865 240.019 25.3617 237.479 26.9926 235.017C27.7533 233.869 28.5245 232.726 29.2909 231.58C29.7925 230.83 30.2701 229.63 30.9685 228.911C26.4541 233.039 21.522 237.196 18.6579 242.149Z" fill="#F2F2F2"/>
<path fill-rule="evenodd" clip-rule="evenodd" d="M292.497 53.7192C291.203 49.4022 288.164 46.0233 285.01 42.9273C278.87 36.9003 275.568 33.1738 273.379 24.3573C272.092 19.1722 270.782 13.6775 266.7 9.91557C263.728 7.17607 258.613 4.87441 254.638 6.83611C248.523 10.4863 246.881 17.9771 247.498 24.6846C248.262 32.9982 252.145 38.1243 259.605 41.1864C263.808 42.911 266.602 45.1865 268.883 49.1516C270.709 52.3222 271.773 56.2925 274.066 59.1668C277.495 63.4635 281.786 65.3735 287.075 64.6598C282.121 55.5445 276.333 46.3436 269.352 38.669C268.699 37.8974 264.844 34.9442 265.622 33.6292C266.478 32.1814 270.435 37.6202 270.407 37.5873C272.435 39.9163 274.313 42.3912 276.156 44.8899C276.152 44.8923 276.146 44.8936 276.141 44.8962C278.039 47.4602 279.922 50.0619 281.769 52.6962C282.516 53.8106 283.243 54.9391 283.939 56.096C284.96 57.7935 286.581 62.6115 288.253 63.6553C288.61 63.8785 288.941 64.0032 289.25 64.0547C290.39 65.922 291.5 67.8043 292.555 69.7089C295.311 74.6831 297.676 79.9352 298.762 85.5511C299.079 87.1902 298.855 93.3216 299.973 94.5049C302.019 96.6692 301.42 92.5013 301.297 91.2433C300.281 80.8257 296.542 71.9504 291.112 63.1923C292.78 61.0136 293.021 55.4684 292.497 53.7192Z" fill="#E1E9D9"/>
<path fill-rule="evenodd" clip-rule="evenodd" d="M222.44 58.7526C224.596 56.2116 229.78 55.7805 232.95 55.9506C236.873 56.161 240.903 57.1161 244.635 58.271C250.783 60.1732 256.758 63.6445 262.172 67.0043C262.825 67.4092 270.864 72.2443 270.153 73.0928C269.448 73.9335 261.556 68.1901 259.797 67.2002C256.043 65.0873 252.601 62.5884 248.464 61.1931C244.18 59.748 239.65 59.1758 235.145 59.2153C234.567 59.2204 232.681 58.8173 232.64 59.6727C232.6 60.5093 235.721 60.0728 236.271 60.0778C238.544 60.0987 240.83 60.3126 243.071 60.7065C247.268 61.4444 251.214 62.9309 254.809 65.211C253.806 67.5436 251.402 68.6191 248.879 68.0354C246.699 67.5306 244.574 66.2862 242.439 65.9264C240.968 65.6786 239.496 65.826 238.07 66.2403C234.309 67.3334 232.14 69.5727 228.005 68.015C224.764 66.7939 219.343 62.4069 222.44 58.7526Z" fill="#D9DFD1"/>
<path fill-rule="evenodd" clip-rule="evenodd" d="M224.879 34.7059H225.899C225.827 33.4111 225.734 32.1184 225.515 30.8381C224.695 26.0391 222.131 18.9906 216.507 18.2116C216.3 18.1826 215.537 18.1777 214.612 18.2314C214.174 17.9891 213.683 17.8427 213.166 17.809C208.378 17.4597 203.031 21.2815 200.721 25.2586C198.859 28.4652 199.173 32.6758 200.323 36.0825C201.093 38.3633 202.774 41.6151 205.577 41.6468C209.083 41.6864 209.253 37.3984 209.32 34.8916C209.41 31.559 209.836 28.6558 212.49 26.3841C213.109 25.8549 213.785 25.3893 214.41 24.8675C215.389 24.0506 216.47 23.2143 216.596 21.863C216.77 19.9986 215.706 19.6631 214.082 20.0095C213.805 20.0684 211.016 21.3065 211.429 20.3279C211.555 20.029 212.016 19.7921 212.597 19.6146C214.101 19.4528 215.894 19.2651 216.41 19.3773C221.974 20.585 224.141 28.2106 224.716 33.0555C224.781 33.6041 224.833 34.1545 224.879 34.7059H224.879Z" fill="#F2F2F2"/>
</g>
<path fill-rule="evenodd" clip-rule="evenodd" d="M153.506 104.128C156.186 100.977 158 97.1163 157.697 92.7898C156.824 80.324 139.498 83.0663 136.128 89.358C132.758 95.6496 133.159 111.609 137.514 112.733C139.251 113.182 142.951 112.083 146.718 109.81L144.354 126.56H158.312L153.506 104.128Z" fill="#CFAF92"/>
<path fill-rule="evenodd" clip-rule="evenodd" d="M144.084 82.1066C145.923 81.8045 150.877 81.5967 151.79 81.5969C152.374 81.5969 153.006 81.7304 153.352 81.1936C153.635 80.754 153.532 80.0105 153.616 79.5003C153.714 78.9077 153.854 78.3227 153.995 77.7391C154.396 76.0787 155.002 74.499 155.851 73.0159C157.444 70.2333 159.777 68.0537 162.722 66.7854C165.974 65.385 169.655 65.0644 173.153 65.3484C176.897 65.6523 180.286 66.8902 183.821 68.0551C187.189 69.1651 190.717 69.602 194.24 69.06C197.79 68.5139 200.472 66.5869 203.466 64.7581C206.531 62.8857 210.034 61.6612 213.657 61.9427C217.04 62.2055 220.157 63.6043 222.954 65.4729C225.571 67.2212 227.73 69.3246 228.949 72.285C230.26 75.4694 230.259 78.9649 228.103 81.7793C224.977 85.8587 219.174 86.9136 214.346 86.8087C211.554 86.7482 208.811 86.2377 206.175 85.309C202.659 84.0703 199.62 81.9709 196.331 80.2676C194.787 79.4682 193.192 78.8118 191.519 78.3389C189.896 77.8798 188.298 77.6693 186.828 78.6512C185.274 79.6901 183.881 80.7105 182.103 81.3608C180.397 81.9847 178.59 82.3337 176.772 82.3196C173.236 82.2922 169.75 81.1886 166.315 80.4494C163.514 79.8467 160.517 79.246 157.662 79.8254C156.47 80.0672 154.73 80.5664 154.299 81.8066C161.543 83.1215 164.387 92.0935 162.345 98.6799C161.243 102.235 154.619 106.39 152.043 104.522C150.411 103.338 151.402 101.783 152.043 100.757C153.271 98.7921 153.691 96.268 151.419 94.9C149.459 93.72 147.398 96.522 147.36 96.5189C146.821 96.4764 142.167 93.8401 138.96 89.993C135.797 90.1808 135.317 88.0917 136.072 86.3831C136.827 84.6746 141.542 82.5244 144.084 82.1066Z" fill="#191847"/>
<path d="M164.127 276.263C139.395 276.263 119.346 257.094 119.346 233.449C119.346 209.803 139.395 190.635 164.127 190.635C188.86 190.635 208.909 209.803 208.909 233.449C208.909 257.094 188.86 276.263 164.127 276.263Z" fill="#C5CFD6"/>
<path fill-rule="evenodd" clip-rule="evenodd" d="M79.5022 269.657C86.9538 253.138 92.3427 238.754 94.5059 231.165C98.2096 218.171 101.027 206.737 101.739 202.467C103.438 192.285 88.676 191.692 86.7248 196.752C83.7716 204.412 78.616 229.577 72.4212 267.588L79.5022 269.657ZM165.937 217.817C159.1 215.11 135.158 206.639 123.61 204.243C120.292 203.554 117.076 202.915 114.052 202.336C105.064 200.618 100.408 216.858 109.064 218.105C130.622 221.213 161.183 224.422 163.798 224.782C167.464 225.287 170.234 219.518 165.937 217.817Z" fill="#CFAF92"/>
<path fill-rule="evenodd" clip-rule="evenodd" d="M108.536 197.867L145.517 179.012V174.907H141.119C105.341 184.039 87.0592 189.89 86.2722 192.463C86.2637 192.49 86.2559 192.518 86.2489 192.546C86.2309 192.57 86.2132 192.593 86.1958 192.617C79.1054 202.384 74.8591 250.066 73.4653 253.636L87.052 255.666C92.2493 236.363 108.877 222.916 108.436 199.797C108.555 199.119 108.585 198.476 108.536 197.867Z" fill="#1F28CF"/>
<path fill-rule="evenodd" clip-rule="evenodd" d="M142.444 209.066C145.828 208.387 148.944 207.782 151.61 207.313C168.833 204.288 173.855 195.054 170.886 174.907L139.153 174.907C133.97 176.399 107.031 187.714 93.0546 193.732C83.804 197.715 86.72 212.074 91.9587 215.81C91.9871 216.04 92.0814 216.195 92.2493 216.265C120.429 227.963 142.722 221.825 150.169 223.786L153.614 212.903L142.444 209.066Z" fill="#2B44FF"/>
<path fill-rule="evenodd" clip-rule="evenodd" d="M163.595 216.088C165.442 216.265 166.754 216.544 167.529 216.922C168.472 217.383 169.772 218.213 171.428 219.412C170.895 220.507 166.104 230.348 157.055 248.936C154.147 248.465 152.994 247.354 153.597 245.602C154.2 243.85 154.686 242.388 155.055 241.215L155.624 224.506C155.635 224.184 155.904 223.932 156.225 223.944C156.23 223.944 156.236 223.944 156.241 223.944L158.809 224.107C160.267 222.925 161.229 221.856 161.695 220.899C162.073 220.122 162.282 218.895 162.322 217.219L162.322 217.219C162.337 216.576 162.87 216.067 163.512 216.083C163.54 216.083 163.568 216.085 163.595 216.088Z" fill="#E4E4E4"/>
<path fill-rule="evenodd" clip-rule="evenodd" d="M109.459 158.957L88.3857 149.688C84.6941 146.003 81.1294 143.203 77.6915 141.287C76.6635 140.959 74.9072 140.86 76.7811 143.601C78.6549 146.342 80.5027 149.31 79.754 150.271C79.0053 151.231 76.8364 150.171 75.9795 151.733C75.4083 152.775 79.0643 154.021 86.9474 155.471L102.73 167.591L109.459 158.957ZM194.655 161.51L182.738 163.878C194.723 186.249 201.15 198.106 202.02 199.448C203.977 202.468 202.151 208.003 201.477 210.918C205.708 211.905 204.039 205.527 209.393 206.858C214.28 208.074 218.424 211.193 222.981 206.986C223.541 206.469 223.951 204.852 222.041 204.023C217.282 201.957 210.251 198.089 209.111 196.587C207.556 194.539 202.738 182.847 194.655 161.51Z" fill="#CFAF92"/>
<path fill-rule="evenodd" clip-rule="evenodd" d="M150.347 116.851L145.318 115.987C134.364 126.629 129.894 152.197 122.595 155.582C115.693 158.781 105.909 155.685 94.2799 151.504L90.7184 159.474C101.285 170.923 123.795 180.597 132.92 175.074C147.508 166.246 150.876 134.711 150.347 116.851Z" fill="#DB2721"/>
<path fill-rule="evenodd" clip-rule="evenodd" d="M172.269 180.15C152.105 180.15 137.273 180.15 127.772 180.15C125.739 180.15 126.122 177.209 126.416 175.725C129.808 158.6 143.05 140.139 143.05 115.761L155.885 113.745C166.502 130.846 170.173 151.901 172.269 180.15Z" fill="#DDE3E9"/>
<path fill-rule="evenodd" clip-rule="evenodd" d="M176.708 162.811C185.779 179.199 193.403 190.998 199.582 198.207L208.909 196.378C202.901 159.058 185.502 131.514 156.713 113.745L156.567 113.745L151.631 113.745C140.109 153.085 136.932 179.298 142.102 192.382H182.156C181.523 182.808 179.491 172.683 176.708 162.811H176.708Z" fill="#FF4133"/>
</g>
<defs>
<clipPath id="clip0">
<rect width="327.629" height="246" fill="white" transform="translate(0.881348)"/>
</clipPath>
<clipPath id="clip1">
<rect width="321" height="295" fill="white" transform="translate(-15.3306)"/>
</clipPath>
</defs>
</svg>
