<svg width="600" height="447" viewBox="0 0 600 447" fill="none" xmlns="http://www.w3.org/2000/svg">
<path d="M599.78 392.736H0V393.036H599.78V392.736Z" fill="#EBEBEB"/>
<path d="M539.683 412.037H499.953V412.337H539.683V412.037Z" fill="#EBEBEB"/>
<path d="M397.319 415.299H386.895V415.599H397.319V415.299Z" fill="#EBEBEB"/>
<path d="M498.753 400.905H475.733V401.205H498.753V400.905Z" fill="#EBEBEB"/>
<path d="M114.738 402.92H62.9287V403.22H114.738V402.92Z" fill="#EBEBEB"/>
<path d="M133.018 402.92H125.425V403.22H133.018V402.92Z" fill="#EBEBEB"/>
<path d="M270.081 407.982H157.706V408.282H270.081V407.982Z" fill="#EBEBEB"/>
<path d="M284.296 339.236H52.6725C50.8579 339.232 49.1188 338.509 47.8369 337.225C46.555 335.941 45.835 334.201 45.835 332.386V6.78951C45.8508 4.9854 46.5777 3.26038 47.858 1.98913C49.1382 0.717887 50.8683 0.00309053 52.6725 0H284.296C286.112 0 287.854 0.721641 289.139 2.00617C290.423 3.2907 291.145 5.03289 291.145 6.84949V332.386C291.145 334.203 290.423 335.945 289.139 337.229C287.854 338.514 286.112 339.236 284.296 339.236ZM52.6725 0.239913C50.9375 0.243091 49.2746 0.934535 48.0489 2.16248C46.8232 3.39042 46.1348 5.05452 46.1349 6.78951V332.386C46.1348 334.121 46.8232 335.785 48.0489 337.013C49.2746 338.241 50.9375 338.932 52.6725 338.936H284.296C286.032 338.932 287.696 338.241 288.923 337.014C290.151 335.786 290.842 334.122 290.845 332.386V6.78951C290.842 5.05342 290.151 3.38935 288.923 2.16175C287.696 0.934146 286.032 0.243084 284.296 0.239913H52.6725Z" fill="#EBEBEB"/>
<path d="M543.773 339.236H312.138C310.322 339.232 308.582 338.51 307.298 337.226C306.014 335.942 305.291 334.202 305.288 332.386V6.78951C305.307 4.98431 306.037 3.2593 307.319 1.98838C308.601 0.717467 310.332 0.00305683 312.138 0H543.773C545.575 0.00624311 547.302 0.722434 548.579 1.99334C549.857 3.26425 550.582 4.98747 550.598 6.78951V332.386C550.598 334.199 549.88 335.937 548.6 337.221C547.321 338.505 545.585 339.229 543.773 339.236ZM312.138 0.239913C310.401 0.243084 308.737 0.934146 307.51 2.16175C306.282 3.38935 305.591 5.05342 305.588 6.78951V332.386C305.591 334.122 306.282 335.786 307.51 337.014C308.737 338.241 310.401 338.932 312.138 338.936H543.773C545.509 338.932 547.173 338.241 548.4 337.014C549.628 335.786 550.319 334.122 550.322 332.386V6.78951C550.319 5.05342 549.628 3.38935 548.4 2.16175C547.173 0.934146 545.509 0.243084 543.773 0.239913H312.138Z" fill="#EBEBEB"/>
<path d="M379.709 272.84H523.836C523.835 275.387 522.852 277.834 521.091 279.674C519.33 281.513 516.927 282.601 514.384 282.713C498.897 283.42 475.062 285.868 467.517 294.432C453.422 310.411 454.789 366.526 471.667 379.517C476.945 383.596 492.372 391.681 492.372 391.681H411.173C411.173 391.681 425.568 383.428 430.594 379.517C447.388 366.418 447.856 310.339 433.701 294.432C426.444 286.275 404.108 283.636 389.126 282.809C386.579 282.667 384.183 281.555 382.431 279.701C380.679 277.847 379.705 275.391 379.709 272.84Z" fill="#F5F5F5"/>
<path d="M505.975 283.24C491.34 284.44 473.803 287.307 467.517 294.432C465.464 296.894 463.842 299.684 462.719 302.685H438.547C437.409 299.691 435.788 296.903 433.749 294.432C427.44 287.343 409.758 284.428 395.363 283.24H505.975Z" fill="#E6E6E6"/>
<path d="M441.103 272.911L443.07 250.516H414.653L412.697 272.911H441.103Z" fill="#EBEBEB"/>
<path d="M441.103 272.911L443.07 250.516H444.593L442.638 272.911H441.103Z" fill="#E0E0E0"/>
<path d="M438.403 270.633L439.962 252.796H417.35L415.791 270.633H438.403Z" fill="#F0F0F0"/>
<path d="M436.676 269.157L437.972 254.259H419.091L417.783 269.157H436.676Z" fill="#FAFAFA"/>
<path d="M450.314 272.84H478.852L475.685 236.649H447.147L450.314 272.84Z" fill="#E6E6E6"/>
<path d="M450.314 272.84H448.959L445.792 236.649H447.148L450.314 272.84Z" fill="#E0E0E0"/>
<path d="M452.906 269.157H475.625L473.106 240.344H450.387L452.906 269.157Z" fill="#F0F0F0"/>
<path d="M454.561 266.782H473.55L471.439 242.707H452.462L454.561 266.782Z" fill="#FAFAFA"/>
<path d="M464.158 253.539C463.851 253.848 463.487 254.092 463.085 254.259C462.684 254.426 462.253 254.512 461.818 254.512C461.384 254.512 460.953 254.426 460.552 254.259C460.15 254.092 459.786 253.848 459.479 253.539C458.863 252.919 458.518 252.08 458.518 251.206C458.518 250.332 458.863 249.493 459.479 248.873C460.102 248.256 460.942 247.91 461.818 247.91C462.695 247.91 463.535 248.256 464.158 248.873C464.774 249.493 465.119 250.332 465.119 251.206C465.119 252.08 464.774 252.919 464.158 253.539Z" fill="#EBEBEB"/>
<path d="M462.753 257.594C462.977 257.367 463.243 257.187 463.536 257.064C463.83 256.941 464.145 256.878 464.463 256.878C464.781 256.878 465.096 256.941 465.389 257.064C465.683 257.187 465.949 257.367 466.172 257.594C466.519 257.928 466.757 258.359 466.856 258.83C466.954 259.301 466.909 259.792 466.725 260.237C466.541 260.682 466.228 261.061 465.825 261.326C465.423 261.591 464.95 261.728 464.469 261.72C463.986 261.73 463.512 261.595 463.107 261.331C462.703 261.068 462.388 260.688 462.202 260.242C462.017 259.797 461.971 259.306 462.069 258.833C462.167 258.36 462.406 257.928 462.753 257.594Z" fill="#F0F0F0"/>
<path d="M98.0288 231.575L232.607 231.575L232.607 82.7333L98.0288 82.7333L98.0288 231.575Z" fill="#E0E0E0"/>
<path d="M93.7337 231.575L233.314 231.575L233.314 82.7333L93.7337 82.7333L93.7337 231.575Z" fill="#F0F0F0"/>
<path d="M99.6476 224.738L227.641 224.738L227.641 87.4841L99.6476 87.4841L99.6476 224.738Z" fill="white"/>
<path d="M99.6361 224.738H103.343L103.343 87.4841H99.6361L99.6361 224.738Z" fill="#E0E0E0"/>
<path d="M102.946 186.184V189.89H227.964V186.184H102.946Z" fill="#E0E0E0"/>
<path d="M99.6348 186.184L229.619 186.184V179.97L99.6348 179.97V186.184Z" fill="#F0F0F0"/>
<path d="M453.9 108.224C453.9 108.224 455.1 100.307 449.33 95.233C443.56 90.1588 444.064 87.136 445.731 86.7401C447.398 86.3442 448.898 91.4304 451.441 92.8219C451.441 92.8219 451.525 85.6245 448.946 82.9255C446.367 80.2265 445.011 73.401 447.47 73.329C449.93 73.257 450.169 77.4075 450.685 80.3824C451.201 83.3573 453.924 87.5798 453.924 87.5798C453.924 87.5798 454.452 81.1022 456.119 78.4391C457.787 75.7761 453.348 69.6824 455.064 67.0193C456.779 64.3563 459.862 69.4185 459.562 75.1404C459.262 80.8623 455.508 86.944 456.395 92.9058C456.395 92.9058 458.075 88.7194 459.574 88.3355C461.073 87.9517 462.609 85.1927 463.617 84.161C464.624 83.1294 465.908 86.6921 463.617 89.9909C461.325 93.2897 455.508 102.118 456.419 109.244L453.9 108.224Z" fill="#E6E6E6"/>
<path d="M450.447 104.626L448.552 116.49C448.408 117.356 448.456 118.242 448.692 119.088C448.928 119.933 449.347 120.716 449.919 121.382C450.491 122.048 451.202 122.58 452.002 122.941C452.803 123.302 453.672 123.483 454.55 123.471H456.565C457.443 123.483 458.312 123.302 459.113 122.941C459.913 122.58 460.624 122.048 461.196 121.382C461.768 120.716 462.187 119.933 462.423 119.088C462.659 118.242 462.707 117.356 462.563 116.49L460.632 104.626H450.447Z" fill="#F5F5F5"/>
<path d="M479.032 119.092H345.401V125.954H479.032V119.092Z" fill="#E6E6E6"/>
<path d="M357.445 93.7817H351.555V119.092H357.445V93.7817Z" fill="#F0F0F0"/>
<path d="M385.91 93.7817H380.021V119.092H385.91V93.7817Z" fill="#F0F0F0"/>
<path d="M418.233 93.1387L412.429 94.1392L416.728 119.082L422.532 118.082L418.233 93.1387Z" fill="#F0F0F0"/>
<path d="M364.738 97.1162H358.849V119.092H364.738V97.1162Z" fill="#F0F0F0"/>
<path d="M378.269 97.1162H372.379V119.092H378.269V97.1162Z" fill="#F0F0F0"/>
<path d="M412.433 97.1162H406.543V119.092H412.433V97.1162Z" fill="#F0F0F0"/>
<path d="M393.641 96.3394L387.892 97.6172L392.659 119.07L398.409 117.792L393.641 96.3394Z" fill="#F0F0F0"/>
<path d="M369.824 92.522H366.885V119.092H369.824V92.522Z" fill="#F0F0F0"/>
<path d="M404.839 92.522H401.9V119.092H404.839V92.522Z" fill="#F0F0F0"/>
<path d="M345.413 177.211L479.044 177.211V170.349L345.413 170.349V177.211Z" fill="#E6E6E6"/>
<path d="M467.001 170.349H472.891V145.038H467.001V170.349Z" fill="#F0F0F0"/>
<path d="M438.536 170.349H444.426V145.038H438.536V170.349Z" fill="#F0F0F0"/>
<path d="M401.927 169.326L407.731 170.326L412.031 145.383L406.227 144.383L401.927 169.326Z" fill="#F0F0F0"/>
<path d="M459.707 170.349H465.597V148.373H459.707V170.349Z" fill="#F0F0F0"/>
<path d="M446.177 170.349H452.066V148.373H446.177V170.349Z" fill="#F0F0F0"/>
<path d="M412.012 170.349H417.902V148.373H412.012V170.349Z" fill="#F0F0F0"/>
<path d="M426.049 169.045L431.799 170.323L436.567 148.87L430.817 147.592L426.049 169.045Z" fill="#F0F0F0"/>
<path d="M454.622 170.349H457.561V143.779H454.622V170.349Z" fill="#F0F0F0"/>
<path d="M419.606 170.349H422.545V143.779H419.606V170.349Z" fill="#F0F0F0"/>
<path d="M358.236 170.121H386.918V150.316H358.236V170.121Z" fill="#F5F5F5"/>
<path d="M299.889 446.908C428.341 446.908 532.472 440.829 532.472 433.329C532.472 425.83 428.341 419.75 299.889 419.75C171.437 419.75 67.3066 425.83 67.3066 433.329C67.3066 440.829 171.437 446.908 299.889 446.908Z" fill="#F5F5F5"/>
<path d="M398.818 403.328C398.818 403.328 392.82 390.373 399.658 377.586C406.495 364.798 408.415 361.799 404.096 359.184C399.778 356.569 397.774 369.465 397.774 369.465C395.626 363.664 395.403 357.325 397.139 351.387C400.15 342.139 402.045 327.084 397.93 325.465C393.816 323.845 397.151 344.25 393.576 351.207C391.757 346.327 390.583 341.23 390.085 336.045C389.593 328.62 390.361 316.756 387.11 313.721C383.86 310.686 381.784 312.773 384.975 329.171C386.893 338.961 387.953 348.899 388.142 358.873C388.142 358.873 381.101 337.376 376.362 336.753C371.624 336.129 371.636 343.086 375.691 349.12C379.745 355.154 387.554 365.974 388.826 371.54C388.826 371.54 381.089 355.37 374.131 360.324C367.174 365.278 380.189 375.055 385.995 378.581C391.801 382.108 395.831 404.24 395.831 404.24L398.818 403.328Z" fill="#187DE4"/>
<path opacity="0.2" d="M398.818 403.328C398.818 403.328 392.82 390.373 399.658 377.586C406.495 364.798 408.415 361.799 404.096 359.184C399.778 356.569 397.774 369.465 397.774 369.465C395.626 363.664 395.403 357.325 397.139 351.387C400.15 342.139 402.045 327.084 397.93 325.465C393.816 323.845 397.151 344.25 393.576 351.207C391.757 346.327 390.583 341.23 390.085 336.045C389.593 328.62 390.361 316.756 387.11 313.721C383.86 310.686 381.784 312.773 384.975 329.171C386.893 338.961 387.953 348.899 388.142 358.873C388.142 358.873 381.101 337.376 376.362 336.753C371.624 336.129 371.636 343.086 375.691 349.12C379.745 355.154 387.554 365.974 388.826 371.54C388.826 371.54 381.089 355.37 374.131 360.324C367.174 365.278 380.189 375.055 385.995 378.581C391.801 382.108 395.831 404.24 395.831 404.24L398.818 403.328Z" fill="black"/>
<path d="M394.127 408.642C394.127 408.642 399.908 395.59 392.927 382.923C385.946 370.256 383.978 367.257 388.273 364.582C392.567 361.907 394.702 374.706 394.702 374.706C396.783 368.878 396.93 362.535 395.122 356.617C392.003 347.428 389.928 332.398 394.031 330.718C398.133 329.039 395.038 349.491 398.685 356.389C400.45 351.482 401.563 346.364 401.996 341.166C402.404 333.741 401.492 321.889 404.707 318.807C407.922 315.724 410.021 317.787 407.022 334.221C405.219 344.036 404.28 353.991 404.215 363.97C404.215 363.97 411.004 342.378 415.731 341.682C420.457 340.986 420.529 347.944 416.546 354.038C412.564 360.131 404.899 371.071 403.675 376.649C403.675 376.649 411.22 360.359 418.238 365.218C425.255 370.076 412.36 380.032 406.602 383.655C400.844 387.277 397.077 409.457 397.077 409.457L394.127 408.642Z" fill="#187DE4"/>
<path d="M420.805 399.345H373.015L376.889 433.545H416.943L420.805 399.345Z" fill="#263238"/>
<path opacity="0.2" d="M514.671 59.2578H262.092C260.449 59.2578 259.117 60.5897 259.117 62.2327V286.574C259.117 288.217 260.449 289.549 262.092 289.549H514.671C516.314 289.549 517.646 288.217 517.646 286.574V62.2327C517.646 60.5897 516.314 59.2578 514.671 59.2578Z" fill="black"/>
<path d="M504.897 54.9995H252.318C250.675 54.9995 249.343 56.3314 249.343 57.9744V282.316C249.343 283.959 250.675 285.291 252.318 285.291H504.897C506.54 285.291 507.872 283.959 507.872 282.316V57.9744C507.872 56.3314 506.54 54.9995 504.897 54.9995Z" fill="#187DE4"/>
<path opacity="0.6" d="M249.341 75.5723V282.328C249.28 283.038 249.495 283.744 249.942 284.299C250.39 284.853 251.034 285.213 251.74 285.303H505.399C506.119 285.23 506.781 284.878 507.243 284.321C507.706 283.765 507.931 283.049 507.871 282.328V75.5723H249.341Z" fill="white"/>
<path d="M504.799 87.6997H252.399V270.357H504.799V87.6997Z" fill="white"/>
<path opacity="0.6" d="M499.425 69.2144C501.519 69.2144 503.216 67.1682 503.216 64.6441C503.216 62.1199 501.519 60.0737 499.425 60.0737C497.332 60.0737 495.635 62.1199 495.635 64.6441C495.635 67.1682 497.332 69.2144 499.425 69.2144Z" fill="white"/>
<path opacity="0.6" d="M487.01 69.2144C489.104 69.2144 490.801 67.1682 490.801 64.6441C490.801 62.1199 489.104 60.0737 487.01 60.0737C484.917 60.0737 483.22 62.1199 483.22 64.6441C483.22 67.1682 484.917 69.2144 487.01 69.2144Z" fill="white"/>
<path opacity="0.6" d="M478.374 64.6563C478.374 67.1753 476.683 69.2146 474.583 69.2146C472.484 69.2146 470.805 67.1753 470.805 64.6563C470.805 62.1372 472.496 60.0859 474.583 60.0859C476.671 60.0859 478.374 62.1252 478.374 64.6563Z" fill="white"/>
<path d="M306.177 109.016V156.134L294.062 170.745H267.228V109.016H306.177Z" fill="#187DE4"/>
<path opacity="0.7" d="M306.177 109.016V156.134L294.062 170.745H267.228V109.016H306.177Z" fill="white"/>
<path opacity="0.3" d="M306.177 156.135L294.062 170.745V156.135H306.177Z" fill="#187DE4"/>
<path opacity="0.3" d="M300.144 117.917H273.273V119.68H300.144V117.917Z" fill="#187DE4"/>
<path opacity="0.3" d="M300.144 124.622H273.273V126.385H300.144V124.622Z" fill="#187DE4"/>
<path opacity="0.3" d="M300.144 131.327H273.273V133.103H300.144V131.327Z" fill="#187DE4"/>
<path opacity="0.3" d="M300.144 138.034H273.273V139.797H300.144V138.034Z" fill="#187DE4"/>
<path opacity="0.3" d="M293.198 144.739H273.273V146.514H293.198V144.739Z" fill="#187DE4"/>
<path d="M367.955 109.016V156.134L355.839 170.745H329.005V109.016H367.955Z" fill="#187DE4"/>
<path opacity="0.7" d="M367.955 109.016V156.134L355.839 170.745H329.005V109.016H367.955Z" fill="white"/>
<path opacity="0.3" d="M367.954 156.135L355.839 170.745V156.135H367.954Z" fill="#187DE4"/>
<path opacity="0.3" d="M361.908 117.917H335.038V119.68H361.908V117.917Z" fill="#187DE4"/>
<path opacity="0.3" d="M361.908 124.622H335.038V126.385H361.908V124.622Z" fill="#187DE4"/>
<path opacity="0.3" d="M361.908 131.327H335.038V133.103H361.908V131.327Z" fill="#187DE4"/>
<path opacity="0.3" d="M361.908 138.034H335.038V139.797H361.908V138.034Z" fill="#187DE4"/>
<path opacity="0.3" d="M354.963 144.739H335.038V146.514H354.963V144.739Z" fill="#187DE4"/>
<path d="M429.732 109.016V156.134L417.616 170.745H390.782V109.016H429.732Z" fill="#187DE4"/>
<path opacity="0.7" d="M429.732 109.016V156.134L417.616 170.745H390.782V109.016H429.732Z" fill="white"/>
<path opacity="0.3" d="M429.732 156.135L417.616 170.745V156.135H429.732Z" fill="#187DE4"/>
<path opacity="0.3" d="M423.686 117.917H396.815V119.68H423.686V117.917Z" fill="#187DE4"/>
<path opacity="0.3" d="M423.686 124.622H396.815V126.385H423.686V124.622Z" fill="#187DE4"/>
<path opacity="0.3" d="M423.686 131.327H396.815V133.103H423.686V131.327Z" fill="#187DE4"/>
<path opacity="0.3" d="M423.686 138.034H396.815V139.797H423.686V138.034Z" fill="#187DE4"/>
<path opacity="0.3" d="M416.74 144.739H396.815V146.514H416.74V144.739Z" fill="#187DE4"/>
<path d="M491.508 109.016V156.134L479.381 170.745H452.559V109.016H491.508Z" fill="#187DE4"/>
<path opacity="0.7" d="M491.508 109.016V156.134L479.381 170.745H452.559V109.016H491.508Z" fill="white"/>
<path opacity="0.3" d="M491.508 156.135L479.381 170.745V156.135H491.508Z" fill="#187DE4"/>
<path opacity="0.3" d="M485.462 117.917H458.592V119.68H485.462V117.917Z" fill="#187DE4"/>
<path opacity="0.3" d="M485.462 124.622H458.592V126.385H485.462V124.622Z" fill="#187DE4"/>
<path opacity="0.3" d="M485.462 131.327H458.592V133.103H485.462V131.327Z" fill="#187DE4"/>
<path opacity="0.3" d="M485.462 138.034H458.592V139.797H485.462V138.034Z" fill="#187DE4"/>
<path opacity="0.3" d="M478.517 144.739H458.592V146.514H478.517V144.739Z" fill="#187DE4"/>
<path d="M306.177 190.585V237.704L294.062 252.315H267.228V190.585H306.177Z" fill="#187DE4"/>
<path opacity="0.7" d="M306.177 190.585V237.704L294.062 252.315H267.228V190.585H306.177Z" fill="white"/>
<path opacity="0.3" d="M306.177 237.705L294.062 252.315V237.705H306.177Z" fill="#187DE4"/>
<path opacity="0.3" d="M300.144 199.487H273.273V201.25H300.144V199.487Z" fill="#187DE4"/>
<path opacity="0.3" d="M300.144 206.192H273.273V207.956H300.144V206.192Z" fill="#187DE4"/>
<path opacity="0.3" d="M300.144 212.897H273.273V214.673H300.144V212.897Z" fill="#187DE4"/>
<path opacity="0.3" d="M300.144 219.604H273.273V221.379H300.144V219.604Z" fill="#187DE4"/>
<path opacity="0.3" d="M293.198 226.309H273.273V228.072H293.198V226.309Z" fill="#187DE4"/>
<path d="M367.955 190.585V237.704L355.839 252.315H329.005V190.585H367.955Z" fill="#187DE4"/>
<path opacity="0.7" d="M367.955 190.585V237.704L355.839 252.315H329.005V190.585H367.955Z" fill="white"/>
<path opacity="0.3" d="M367.954 237.705L355.839 252.315V237.705H367.954Z" fill="#187DE4"/>
<path opacity="0.3" d="M361.908 199.487H335.038V201.25H361.908V199.487Z" fill="#187DE4"/>
<path opacity="0.3" d="M361.908 206.192H335.038V207.956H361.908V206.192Z" fill="#187DE4"/>
<path opacity="0.3" d="M361.908 212.897H335.038V214.673H361.908V212.897Z" fill="#187DE4"/>
<path opacity="0.3" d="M361.908 219.604H335.038V221.379H361.908V219.604Z" fill="#187DE4"/>
<path opacity="0.3" d="M354.963 226.309H335.038V228.072H354.963V226.309Z" fill="#187DE4"/>
<path d="M429.732 190.585V237.704L417.616 252.315H390.782V190.585H429.732Z" fill="#187DE4"/>
<path opacity="0.7" d="M429.732 190.585V237.704L417.616 252.315H390.782V190.585H429.732Z" fill="white"/>
<path opacity="0.3" d="M429.732 237.705L417.616 252.315V237.705H429.732Z" fill="#187DE4"/>
<path opacity="0.3" d="M423.686 199.487H396.815V201.25H423.686V199.487Z" fill="#187DE4"/>
<path opacity="0.3" d="M423.686 206.192H396.815V207.956H423.686V206.192Z" fill="#187DE4"/>
<path opacity="0.3" d="M423.686 212.897H396.815V214.673H423.686V212.897Z" fill="#187DE4"/>
<path opacity="0.3" d="M423.686 219.604H396.815V221.379H423.686V219.604Z" fill="#187DE4"/>
<path opacity="0.3" d="M416.74 226.309H396.815V228.072H416.74V226.309Z" fill="#187DE4"/>
<path d="M491.508 190.585V237.704L479.381 252.315H452.559V190.585H491.508Z" fill="#187DE4"/>
<path opacity="0.7" d="M491.508 190.585V237.704L479.381 252.315H452.559V190.585H491.508Z" fill="white"/>
<path opacity="0.3" d="M491.508 237.705L479.381 252.315V237.705H491.508Z" fill="#187DE4"/>
<path opacity="0.3" d="M485.462 199.487H458.592V201.25H485.462V199.487Z" fill="#187DE4"/>
<path opacity="0.3" d="M485.462 206.192H458.592V207.956H485.462V206.192Z" fill="#187DE4"/>
<path opacity="0.3" d="M485.462 212.897H458.592V214.673H485.462V212.897Z" fill="#187DE4"/>
<path opacity="0.3" d="M485.462 219.604H458.592V221.379H485.462V219.604Z" fill="#187DE4"/>
<path opacity="0.3" d="M478.517 226.309H458.592V228.072H478.517V226.309Z" fill="#187DE4"/>
<path opacity="0.1" d="M395.806 151.564H333.633C330.751 151.564 328.415 153.9 328.415 156.782V203.373C328.415 206.255 330.751 208.591 333.633 208.591H395.806C398.688 208.591 401.024 206.255 401.024 203.373V156.782C401.024 153.9 398.688 151.564 395.806 151.564Z" fill="black"/>
<g opacity="0.1">
<path opacity="0.1" d="M391.355 148.912H384.158V141.127C384.158 136.209 382.204 131.492 378.726 128.014C375.248 124.536 370.531 122.582 365.613 122.582C360.694 122.582 355.977 124.536 352.499 128.014C349.021 131.492 347.067 136.209 347.067 141.127V148.912H339.87V141.127C339.87 134.3 342.582 127.752 347.41 122.925C352.238 118.097 358.785 115.385 365.613 115.385C372.44 115.385 378.988 118.097 383.815 122.925C388.643 127.752 391.355 134.3 391.355 141.127V148.912Z" fill="black"/>
</g>
<path d="M365.817 149.165H303.644C300.762 149.165 298.426 151.501 298.426 154.383V200.974C298.426 203.855 300.762 206.192 303.644 206.192H365.817C368.699 206.192 371.035 203.855 371.035 200.974V154.383C371.035 151.501 368.699 149.165 365.817 149.165Z" fill="#263238"/>
<path opacity="0.2" d="M352.682 149.165H303.644C300.762 149.165 298.426 151.501 298.426 154.383V200.974C298.426 203.855 300.762 206.192 303.644 206.192H352.682C355.564 206.192 357.9 203.855 357.9 200.974V154.383C357.9 151.501 355.564 149.165 352.682 149.165Z" fill="white"/>
<path d="M331.81 170.565C331.81 166.63 329.41 163.439 326.459 163.439C323.509 163.439 321.121 166.63 321.121 170.565C321.05 171.862 321.322 173.154 321.91 174.313C322.497 175.471 323.38 176.454 324.468 177.162L323.473 192.037H329.47L328.487 177.162C329.569 176.449 330.445 175.465 331.028 174.307C331.611 173.149 331.881 171.859 331.81 170.565Z" fill="#263238"/>
<path d="M361.367 146.514H354.17V138.728C354.17 133.81 352.216 129.093 348.738 125.615C345.26 122.137 340.543 120.183 335.624 120.183C330.706 120.183 325.989 122.137 322.511 125.615C319.033 129.093 317.079 133.81 317.079 138.728V146.514H309.882V138.728C309.882 131.901 312.594 125.353 317.422 120.526C322.249 115.698 328.797 112.986 335.624 112.986C342.452 112.986 348.999 115.698 353.827 120.526C358.655 125.353 361.367 131.901 361.367 138.728V146.514Z" fill="#263238"/>
<g opacity="0.4">
<path opacity="0.4" d="M361.367 146.514H354.17V138.728C354.17 133.81 352.216 129.093 348.738 125.615C345.26 122.137 340.543 120.183 335.624 120.183C330.706 120.183 325.989 122.137 322.511 125.615C319.033 129.093 317.079 133.81 317.079 138.728V146.514H309.882V138.728C309.882 131.901 312.594 125.353 317.422 120.526C322.249 115.698 328.797 112.986 335.624 112.986C342.452 112.986 348.999 115.698 353.827 120.526C358.655 125.353 361.367 131.901 361.367 138.728V146.514Z" fill="white"/>
</g>
<path opacity="0.2" d="M361.366 138.729V146.514H356.484V137.841C356.484 134.753 355.876 131.694 354.693 128.841C353.511 125.988 351.778 123.395 349.594 121.212C347.409 119.028 344.816 117.297 341.962 116.116C339.108 114.935 336.049 114.328 332.961 114.33C328.241 114.315 323.632 115.76 319.766 118.468C323.563 115.491 328.121 113.641 332.919 113.132C337.717 112.622 342.562 113.472 346.899 115.586C351.237 117.699 354.893 120.99 357.449 125.082C360.005 129.175 361.359 133.904 361.354 138.729H361.366Z" fill="white"/>
<path d="M259.658 276.655H230.581V275.539H237.143C237.584 275.535 238.01 275.377 238.347 275.092C238.684 274.807 238.912 274.414 238.99 273.98L241.929 256.49L242.505 253.047H252.461L261.374 274.064C261.495 274.347 261.544 274.656 261.516 274.963C261.489 275.27 261.385 275.565 261.215 275.822C261.045 276.079 260.813 276.289 260.542 276.435C260.27 276.58 259.967 276.656 259.658 276.655Z" fill="#187DE4"/>
<path opacity="0.4" d="M259.658 276.655H230.581V275.539H237.143C237.584 275.535 238.01 275.377 238.347 275.092C238.684 274.807 238.912 274.414 238.99 273.98L241.929 256.49L242.505 253.047H252.461L261.374 274.064C261.495 274.347 261.544 274.656 261.516 274.963C261.489 275.27 261.385 275.565 261.215 275.822C261.045 276.079 260.813 276.289 260.542 276.435C260.27 276.58 259.967 276.656 259.658 276.655Z" fill="white"/>
<path opacity="0.2" d="M259.694 275.539H237.143C237.584 275.535 238.01 275.377 238.347 275.092C238.684 274.807 238.912 274.414 238.99 273.979L241.929 256.49H252.365L260.306 274.615C260.35 274.716 260.368 274.826 260.359 274.936C260.349 275.046 260.312 275.152 260.251 275.243C260.191 275.335 260.108 275.41 260.01 275.462C259.913 275.514 259.804 275.54 259.694 275.539Z" fill="black"/>
<path d="M275.288 259.489H217.121C216.989 259.494 216.857 259.469 216.736 259.415C216.615 259.361 216.509 259.28 216.425 259.177C216.341 259.075 216.282 258.954 216.253 258.825C216.224 258.696 216.226 258.562 216.257 258.433L224.534 214.721C224.595 214.44 224.744 214.186 224.96 213.996C225.176 213.806 225.447 213.69 225.734 213.666H283.889C284.021 213.659 284.152 213.684 284.273 213.738C284.393 213.792 284.5 213.874 284.583 213.977C284.666 214.08 284.723 214.201 284.751 214.33C284.778 214.459 284.774 214.593 284.74 214.721L276.487 258.421C276.429 258.705 276.281 258.961 276.065 259.154C275.848 259.346 275.576 259.464 275.288 259.489Z" fill="#187DE4"/>
<path opacity="0.4" d="M275.288 259.489H217.121C216.989 259.494 216.857 259.469 216.736 259.415C216.615 259.361 216.509 259.28 216.425 259.177C216.341 259.075 216.282 258.954 216.253 258.825C216.224 258.696 216.226 258.562 216.257 258.433L224.534 214.721C224.595 214.44 224.744 214.186 224.96 213.996C225.176 213.806 225.447 213.69 225.734 213.666H283.889C284.021 213.659 284.152 213.684 284.273 213.738C284.393 213.792 284.5 213.874 284.583 213.977C284.666 214.08 284.723 214.201 284.751 214.33C284.778 214.459 284.774 214.593 284.74 214.721L276.487 258.421C276.429 258.705 276.281 258.961 276.065 259.154C275.848 259.346 275.576 259.464 275.288 259.489Z" fill="white"/>
<path d="M274.089 259.489H215.922C215.79 259.494 215.658 259.469 215.537 259.415C215.416 259.361 215.31 259.28 215.226 259.177C215.142 259.075 215.083 258.954 215.054 258.825C215.025 258.696 215.026 258.562 215.058 258.433L223.335 214.721C223.396 214.44 223.545 214.186 223.761 213.996C223.977 213.806 224.248 213.69 224.535 213.666H282.689C282.821 213.659 282.953 213.684 283.074 213.738C283.194 213.792 283.3 213.874 283.383 213.977C283.466 214.08 283.524 214.201 283.551 214.33C283.579 214.459 283.575 214.593 283.541 214.721L275.288 258.421C275.23 258.705 275.082 258.961 274.865 259.154C274.649 259.346 274.377 259.464 274.089 259.489Z" fill="#263238"/>
<path d="M273.322 256.801H217.71L225.363 216.352H280.963L273.322 256.801Z" fill="#187DE4"/>
<path d="M176.397 276.654V275.287L198.781 270.765H242.577C243.357 270.765 244.104 271.074 244.655 271.625C245.206 272.177 245.516 272.924 245.516 273.704C245.516 274.484 245.207 275.233 244.656 275.786C244.105 276.339 243.358 276.651 242.577 276.654H176.397Z" fill="#187DE4"/>
<path opacity="0.4" d="M245.516 273.716C245.518 274.493 245.212 275.239 244.664 275.791C244.109 276.342 243.359 276.652 242.577 276.654H176.397V275.299L198.793 270.765H242.577C242.964 270.765 243.347 270.841 243.705 270.989C244.062 271.138 244.387 271.356 244.66 271.63C244.933 271.904 245.149 272.229 245.296 272.587C245.443 272.945 245.518 273.329 245.516 273.716Z" fill="white"/>
<path opacity="0.4" d="M245.516 273.716C245.517 274.493 245.211 275.239 244.664 275.791C244.109 276.342 243.359 276.652 242.577 276.654H215.982V275.299L238.378 270.765H242.577C242.964 270.765 243.347 270.841 243.704 270.989C244.061 271.138 244.386 271.356 244.659 271.63C244.932 271.904 245.148 272.229 245.295 272.587C245.442 272.945 245.517 273.329 245.516 273.716Z" fill="white"/>
<path d="M261.518 433.545H267.515L278.275 283.66H270.322L261.518 433.545Z" fill="#263238"/>
<path opacity="0.1" d="M261.518 433.545H267.515L277.748 291.109L278.275 283.899H270.322L269.903 291.109L261.518 433.545Z" fill="white"/>
<path opacity="0.2" d="M269.903 290.749H277.748L278.276 283.899H270.323L269.903 290.749Z" fill="black"/>
<path d="M217.554 433.545H223.54L224.523 283.66H216.57L217.554 433.545Z" fill="#263238"/>
<path opacity="0.1" d="M216.57 283.899L216.726 308.083L217.542 433.545H223.54L224.355 308.083L224.511 283.899H216.57Z" fill="white"/>
<path opacity="0.2" d="M216.57 283.899L216.726 308.358H224.355L224.511 283.899H216.57Z" fill="black"/>
<path d="M153.94 433.545H159.926L170.698 283.66H162.745L153.94 433.545Z" fill="#263238"/>
<path opacity="0.1" d="M153.929 433.545H159.927L170.171 291.109L170.699 283.899H162.745L162.314 291.109L153.929 433.545Z" fill="white"/>
<path opacity="0.2" d="M162.314 290.749H170.172L170.699 283.899H162.746L162.314 290.749Z" fill="black"/>
<path d="M330.061 433.545H336.047L327.242 283.66H319.301L330.061 433.545Z" fill="#263238"/>
<path opacity="0.1" d="M319.301 283.899L319.829 291.109L330.061 433.545H336.047L327.674 291.109L327.242 283.899H319.301Z" fill="white"/>
<path opacity="0.2" d="M327.242 283.899H319.301L319.829 290.749H327.674L327.242 283.899Z" fill="black"/>
<path d="M330.948 287.415H159.039C158.699 287.415 158.362 287.348 158.048 287.217C157.733 287.087 157.448 286.896 157.207 286.656C156.966 286.415 156.775 286.129 156.645 285.815C156.515 285.501 156.448 285.164 156.448 284.823V279.905H333.539V284.823C333.539 285.164 333.472 285.501 333.342 285.815C333.212 286.129 333.021 286.415 332.78 286.656C332.54 286.896 332.254 287.087 331.94 287.217C331.625 287.348 331.288 287.415 330.948 287.415Z" fill="#187DE4"/>
<path opacity="0.4" d="M330.948 287.415H159.039C158.699 287.415 158.362 287.348 158.048 287.217C157.733 287.087 157.448 286.896 157.207 286.656C156.966 286.415 156.775 286.129 156.645 285.815C156.515 285.501 156.448 285.164 156.448 284.823V279.905H333.539V284.823C333.539 285.164 333.472 285.501 333.342 285.815C333.212 286.129 333.021 286.415 332.78 286.656C332.54 286.896 332.254 287.087 331.94 287.217C331.625 287.348 331.288 287.415 330.948 287.415Z" fill="white"/>
<path opacity="0.2" d="M156.436 283.66H333.539V279.905H156.436V283.66Z" fill="black"/>
<path d="M152.729 280.889H337.258C337.818 280.889 338.355 280.666 338.751 280.271C339.146 279.875 339.369 279.338 339.369 278.778C339.369 278.218 339.146 277.681 338.751 277.285C338.355 276.889 337.818 276.667 337.258 276.667H152.729C152.169 276.667 151.632 276.889 151.237 277.285C150.841 277.681 150.618 278.218 150.618 278.778C150.618 279.338 150.841 279.875 151.237 280.271C151.632 280.666 152.169 280.889 152.729 280.889Z" fill="#187DE4"/>
<path opacity="0.4" d="M152.729 280.889H337.258C337.818 280.889 338.355 280.666 338.751 280.271C339.146 279.875 339.369 279.338 339.369 278.778C339.369 278.218 339.146 277.681 338.751 277.285C338.355 276.889 337.818 276.667 337.258 276.667H152.729C152.169 276.667 151.632 276.889 151.237 277.285C150.841 277.681 150.618 278.218 150.618 278.778C150.618 279.338 150.841 279.875 151.237 280.271C151.632 280.666 152.169 280.889 152.729 280.889Z" fill="white"/>
<path opacity="0.3" d="M228.445 239.024C228.182 239.022 227.922 238.962 227.685 238.848C227.447 238.734 227.237 238.57 227.07 238.366C226.903 238.162 226.783 237.925 226.718 237.669C226.653 237.414 226.645 237.148 226.694 236.889L227.437 233.062C227.542 232.54 227.824 232.071 228.235 231.732C228.645 231.393 229.16 231.207 229.693 231.203H260.881C261.146 231.203 261.407 231.261 261.646 231.376C261.885 231.49 262.095 231.656 262.261 231.863C262.431 232.064 262.553 232.302 262.618 232.557C262.682 232.813 262.687 233.08 262.633 233.338L261.889 237.165C261.789 237.687 261.51 238.158 261.101 238.497C260.692 238.836 260.177 239.023 259.646 239.024H228.445Z" fill="white"/>
<path d="M259.647 238.424H228.458C228.281 238.427 228.105 238.391 227.943 238.318C227.782 238.244 227.638 238.136 227.524 238.001C227.409 237.865 227.326 237.706 227.28 237.535C227.234 237.363 227.227 237.184 227.259 237.009L228.015 233.17C228.087 232.785 228.293 232.437 228.595 232.188C228.898 231.938 229.278 231.802 229.67 231.803H260.859C261.036 231.8 261.212 231.836 261.374 231.91C261.535 231.983 261.679 232.091 261.793 232.227C261.908 232.362 261.991 232.521 262.037 232.693C262.083 232.864 262.09 233.044 262.058 233.218L261.314 237.057C261.239 237.443 261.031 237.791 260.727 238.041C260.423 238.291 260.041 238.426 259.647 238.424Z" fill="white"/>
<path d="M233.732 236.006C234.343 235.132 234.275 234.029 233.58 233.543C232.886 233.057 231.827 233.371 231.215 234.246C230.604 235.12 230.672 236.222 231.367 236.708C232.062 237.194 233.12 236.88 233.732 236.006Z" fill="#263238"/>
<path d="M238.989 235.114C238.904 235.593 238.662 236.03 238.302 236.358C237.942 236.686 237.483 236.885 236.998 236.925C236.783 236.918 236.572 236.862 236.383 236.76C236.193 236.658 236.03 236.514 235.906 236.339C235.781 236.163 235.699 235.961 235.666 235.749C235.633 235.536 235.649 235.319 235.714 235.114C235.802 234.635 236.044 234.199 236.404 233.872C236.764 233.544 237.221 233.344 237.706 233.302C237.922 233.306 238.134 233.361 238.325 233.462C238.515 233.563 238.68 233.708 238.805 233.884C238.93 234.06 239.011 234.263 239.043 234.477C239.075 234.69 239.057 234.908 238.989 235.114Z" fill="#263238"/>
<path d="M243.872 235.114C243.785 235.592 243.542 236.028 243.183 236.356C242.823 236.683 242.366 236.883 241.881 236.925C241.665 236.92 241.453 236.865 241.262 236.764C241.071 236.663 240.906 236.519 240.78 236.343C240.654 236.167 240.571 235.965 240.538 235.751C240.504 235.538 240.52 235.32 240.585 235.114C240.675 234.634 240.92 234.198 241.282 233.87C241.644 233.543 242.103 233.344 242.589 233.302C242.804 233.309 243.014 233.365 243.204 233.467C243.393 233.569 243.557 233.713 243.681 233.889C243.806 234.064 243.888 234.266 243.921 234.479C243.954 234.691 243.937 234.909 243.872 235.114Z" fill="#263238"/>
<path d="M248.369 235.997C248.981 235.123 248.913 234.02 248.218 233.534C247.523 233.048 246.464 233.363 245.853 234.237C245.242 235.111 245.309 236.213 246.004 236.699C246.699 237.185 247.758 236.871 248.369 235.997Z" fill="#263238"/>
<path d="M253.625 235.114C253.535 235.593 253.291 236.03 252.929 236.357C252.567 236.684 252.108 236.883 251.622 236.925C251.407 236.918 251.196 236.862 251.007 236.76C250.817 236.658 250.654 236.514 250.53 236.339C250.405 236.163 250.323 235.961 250.29 235.749C250.257 235.536 250.273 235.319 250.338 235.114C250.428 234.636 250.671 234.201 251.03 233.874C251.39 233.547 251.846 233.346 252.33 233.302C252.546 233.307 252.758 233.362 252.949 233.463C253.14 233.564 253.305 233.708 253.431 233.884C253.556 234.06 253.639 234.262 253.673 234.476C253.707 234.689 253.691 234.908 253.625 235.114Z" fill="#263238"/>
<path d="M258.115 236.005C258.726 235.131 258.658 234.028 257.963 233.542C257.268 233.056 256.209 233.37 255.598 234.245C254.987 235.119 255.055 236.221 255.749 236.707C256.444 237.193 257.503 236.879 258.115 236.005Z" fill="#263238"/>
<path opacity="0.3" d="M264 239.024C263.798 239.027 263.599 238.984 263.416 238.899C263.233 238.814 263.072 238.688 262.944 238.533C262.808 238.368 262.712 238.174 262.664 237.966C262.616 237.757 262.617 237.541 262.668 237.333L263.616 232.535C263.699 232.142 263.913 231.788 264.222 231.531C264.531 231.275 264.918 231.129 265.319 231.119H270.118C270.319 231.117 270.519 231.16 270.701 231.245C270.884 231.33 271.045 231.455 271.173 231.611C271.31 231.776 271.406 231.97 271.454 232.178C271.502 232.386 271.5 232.603 271.449 232.811L270.501 237.609C270.418 238.002 270.205 238.355 269.895 238.612C269.586 238.869 269.2 239.014 268.798 239.024H264Z" fill="white"/>
<path d="M264.001 238.425H268.799C269.056 238.412 269.303 238.316 269.502 238.152C269.7 237.987 269.841 237.764 269.903 237.513L270.85 232.715C270.88 232.603 270.884 232.485 270.86 232.371C270.836 232.257 270.786 232.151 270.714 232.06C270.642 231.969 270.549 231.896 270.444 231.847C270.338 231.799 270.223 231.775 270.106 231.779H265.308C265.045 231.791 264.794 231.889 264.592 232.058C264.391 232.228 264.25 232.458 264.193 232.715L263.245 237.513C263.219 237.625 263.219 237.741 263.245 237.853C263.272 237.964 263.324 238.068 263.397 238.156C263.47 238.245 263.562 238.315 263.667 238.361C263.772 238.408 263.886 238.43 264.001 238.425Z" fill="#263238"/>
<path d="M266.436 237.213C266.4 237.214 266.363 237.207 266.33 237.193C266.297 237.178 266.267 237.156 266.244 237.129C266.201 237.059 266.186 236.977 266.201 236.896C266.217 236.816 266.262 236.745 266.328 236.697L268.235 235.114L266.964 233.53C266.918 233.462 266.901 233.378 266.916 233.297C266.932 233.216 266.979 233.145 267.048 233.098C267.105 233.046 267.18 233.017 267.257 233.017C267.335 233.017 267.41 233.046 267.467 233.098L268.907 234.898C268.953 234.966 268.97 235.05 268.954 235.131C268.938 235.212 268.891 235.283 268.823 235.329L266.676 237.129C266.608 237.184 266.523 237.214 266.436 237.213Z" fill="#187DE4"/>
<path d="M268.595 235.414H265.356C265.319 235.415 265.282 235.408 265.248 235.392C265.214 235.376 265.184 235.353 265.161 235.324C265.138 235.295 265.122 235.261 265.114 235.224C265.106 235.188 265.107 235.15 265.116 235.114C265.135 235.031 265.18 234.957 265.245 234.903C265.31 234.849 265.391 234.817 265.476 234.814H268.703C268.74 234.813 268.777 234.82 268.811 234.836C268.845 234.852 268.874 234.875 268.898 234.904C268.921 234.933 268.937 234.967 268.945 235.004C268.953 235.04 268.952 235.078 268.943 235.114C268.925 235.195 268.881 235.268 268.819 235.322C268.756 235.376 268.677 235.408 268.595 235.414Z" fill="#187DE4"/>
<path d="M163.466 162.168H189.328C192.058 162.168 194.271 159.955 194.271 157.226V131.363C194.271 128.634 192.058 126.421 189.328 126.421H163.466C160.736 126.421 158.524 128.634 158.524 131.363V157.226C158.524 159.955 160.736 162.168 163.466 162.168Z" fill="#187DE4"/>
<path d="M173.603 160.837L176.398 172.856L179.192 160.837H173.603Z" fill="#187DE4"/>
<path opacity="0.3" d="M176.084 155.019C173.042 153.206 170.502 150.66 168.696 147.614C166.89 144.567 165.875 141.117 165.744 137.578V137.194L176.384 132.66L187.012 137.194V137.578C186.889 141.117 185.879 144.569 184.074 147.617C182.269 150.664 179.728 153.21 176.684 155.019L176.372 155.211L176.084 155.019Z" fill="white"/>
<path opacity="0.6" d="M176.397 133.319L186.438 137.589C186.328 141.028 185.35 144.384 183.594 147.343C181.839 150.303 179.363 152.77 176.397 154.515V133.319Z" fill="white"/>
<path opacity="0.4" d="M176.397 133.319L166.345 137.589C166.456 141.03 167.436 144.386 169.193 147.345C170.951 150.305 173.429 152.771 176.397 154.515V133.319Z" fill="white"/>
<path d="M166.739 268.834L175.136 270.093C177.043 269.487 179.003 269.065 180.99 268.834C183.146 268.656 185.312 268.656 187.468 268.834C187.468 268.834 191.27 270.261 191.27 273.896C191.27 273.896 182.406 276.295 179.011 274.843L166.739 273.896V268.834Z" fill="#E4897B"/>
<path opacity="0.2" d="M166.739 268.834L175.136 270.093C177.043 269.487 179.003 269.065 180.99 268.834C183.146 268.656 185.312 268.656 187.468 268.834C187.468 268.834 191.27 270.261 191.27 273.896C191.27 273.896 182.406 276.295 179.011 274.843L166.739 273.896V268.834Z" fill="black"/>
<path d="M187.539 212.13C187.67 213.856 188.008 215.559 188.547 217.204C188.107 217.475 187.6 217.618 187.084 217.618C186.567 217.618 186.06 217.475 185.62 217.204L187.539 212.13Z" fill="#AA473D"/>
<path d="M190.814 209.731C190.49 210.511 189.914 211.014 189.518 210.847C189.122 210.679 189.086 209.935 189.398 209.155C189.71 208.375 190.298 207.884 190.694 208.04C191.089 208.196 191.125 208.963 190.814 209.731Z" fill="#263238"/>
<path d="M192.781 206.612C192.082 206.196 191.297 205.945 190.486 205.878C189.675 205.812 188.86 205.931 188.103 206.228" stroke="#263238" stroke-width="0.72" stroke-linecap="round" stroke-linejoin="round"/>
<path d="M185.2 218.656C184.924 218.992 184.648 219.316 184.348 219.616C182.668 221.361 180.497 222.554 178.122 223.034C177.521 223.156 176.912 223.237 176.299 223.274C174.686 223.375 173.07 223.115 171.57 222.513C170.07 221.912 168.723 220.983 167.626 219.796C166.637 218.721 165.878 217.456 165.395 216.077C163.248 210.319 165.395 205.785 168.502 197.808C169.193 195.938 170.35 194.275 171.863 192.977C173.376 191.68 175.196 190.79 177.149 190.392C179.102 189.994 181.125 190.102 183.025 190.705C184.925 191.308 186.64 192.386 188.007 193.837C194.221 200.387 190.046 212.418 185.2 218.656Z" fill="#E4897B"/>
<path opacity="0.2" d="M178.123 223.035C177.522 223.156 176.912 223.237 176.3 223.274C174.687 223.375 173.071 223.115 171.571 222.514C170.071 221.912 168.723 220.983 167.627 219.796C168.398 219.021 169.264 218.347 170.206 217.792C173.294 218.742 176.043 220.562 178.123 223.035Z" fill="black"/>
<path d="M152.26 223.334C153.051 228.948 165.335 231.047 165.335 231.047C165.335 231.047 171.333 233.806 171.645 231.407C169.138 228.504 168.862 225.973 169.725 223.754C170.298 222.4 171.139 221.176 172.196 220.155C172.76 219.57 173.357 219.017 173.984 218.5L170.229 203.122C167.53 208.999 158.342 222.494 152.26 223.334Z" fill="#E4897B"/>
<path d="M187.311 189.53C187.311 189.53 189.938 189.206 191.953 194.101C193.644 198.215 189.65 199.115 189.83 203.493C190.01 207.872 185.991 210.307 185.991 210.307C185.991 210.307 182.632 213.21 179.765 211.638C179.765 211.638 176.023 213.474 175.039 216.676C174.055 219.879 168.262 214.097 163.044 214.973C163.044 214.973 159.517 211.674 159.781 203.661C159.98 200.182 160.835 196.771 162.3 193.609C162.992 191.935 164.01 190.415 165.295 189.138C166.58 187.861 168.106 186.853 169.785 186.172C175.747 183.461 186.195 185.476 187.311 189.53Z" fill="#263238"/>
<path d="M179.045 209.227C178.864 210.025 178.863 210.854 179.041 211.653C179.219 212.451 179.573 213.2 180.077 213.846C181.348 215.237 183.4 213.474 184.227 211.039C184.947 208.867 185.199 205.473 183.328 205.041C181.456 204.609 179.441 206.888 179.045 209.227Z" fill="#E4897B"/>
<path d="M180.366 227.976C178.646 232.775 177.111 237.373 175.759 241.771C174.896 244.506 174.104 247.181 173.36 249.76C172.752 251.928 172.185 254.031 171.657 256.07C171.405 257.054 171.153 258.025 170.913 258.985C169.594 264.275 168.514 269.097 167.686 273.38C166.288 280.065 165.251 286.82 164.579 293.616L117.557 287.691C119.188 279.606 120.46 272.54 122.235 264.899C123.219 260.724 124.334 256.382 125.834 251.62C126.841 248.201 128.017 244.566 129.432 240.62C134.159 227.065 138.513 223.31 138.513 223.31C156.494 220.431 180.366 227.976 180.366 227.976Z" fill="#263238"/>
<path d="M196.02 269.709L204.416 270.969C206.323 270.363 208.283 269.941 210.27 269.709C212.43 269.532 214.6 269.532 216.76 269.709C216.76 269.709 220.551 271.137 220.551 274.771C220.551 274.771 211.698 277.17 208.291 275.719L196.032 274.771L196.02 269.709Z" fill="#E4897B"/>
<path d="M144.043 424.776L152.812 424.932L157.178 404.707L148.421 404.563L144.043 424.776Z" fill="#EBB376"/>
<path opacity="0.2" d="M148.421 404.563L157.178 404.719L154.683 416.283L146.01 415.695L148.421 404.563Z" fill="black"/>
<path d="M172.221 375.282C168.88 388.146 164.61 400.751 159.446 412.997L143.455 411.797C143.455 411.797 150.017 386.162 152.392 362.675C153.868 348.184 153.736 336.189 149.489 335.265C146.826 334.677 140.577 334.689 132.563 334.881V305.012C155.031 309.631 177.391 318.327 179.094 325.309C181.47 335.133 177.319 355.934 172.221 375.282Z" fill="#187DE4"/>
<path d="M141.752 412.516L160.801 413.788L163.608 405.547L142.616 404.563L141.752 412.516Z" fill="#187DE4"/>
<path opacity="0.2" d="M141.752 412.516L160.801 413.788L163.608 405.547L142.616 404.563L141.752 412.516Z" fill="white"/>
<path d="M154.131 424.5H154.311C154.311 424.5 154.515 424.56 154.539 424.584C154.563 424.608 154.539 424.584 154.539 424.584H154.611C155.352 424.818 156.116 424.971 156.89 425.04C157.467 425.147 158.063 425.031 158.558 424.716C158.714 424.579 158.829 424.4 158.886 424.2C158.943 424 158.942 423.787 158.881 423.588C158.862 423.458 158.812 423.334 158.735 423.228C158.657 423.121 158.555 423.035 158.438 422.976C157.609 422.844 156.761 423.005 156.038 423.432C156.555 422.888 156.861 422.178 156.902 421.429C156.867 421.252 156.775 421.091 156.641 420.97C156.507 420.849 156.338 420.774 156.158 420.757C155.817 420.707 155.47 420.788 155.187 420.985C154.263 421.777 154.119 424.26 154.119 424.404L154.131 424.5ZM155.079 423.996L154.899 424.092C154.842 423.144 155.099 422.204 155.631 421.417C155.688 421.359 155.758 421.314 155.834 421.285C155.911 421.256 155.993 421.244 156.074 421.249H156.182C156.47 421.249 156.53 421.441 156.542 421.561C156.357 422.52 155.839 423.382 155.079 423.996ZM155.199 424.428C156.254 423.84 157.754 423.228 158.318 423.456C158.374 423.486 158.422 423.528 158.457 423.581C158.493 423.633 158.515 423.693 158.522 423.756C158.557 423.882 158.558 424.016 158.524 424.142C158.49 424.269 158.423 424.384 158.33 424.476C157.898 424.86 156.746 424.836 155.199 424.428Z" fill="#187DE4"/>
<path d="M153.927 423.445L144.103 422.833C143.939 422.817 143.775 422.865 143.647 422.968C143.519 423.072 143.437 423.222 143.419 423.385L142.459 431.122C142.433 431.529 142.568 431.93 142.835 432.237C143.103 432.545 143.48 432.735 143.887 432.766C147.318 432.922 148.961 432.826 153.279 433.066C157.112 433.46 160.969 433.58 164.819 433.425C168.418 433.078 168.022 429.467 166.451 429.299C162.696 428.867 157.742 426.12 155.391 424.033C154.983 423.678 154.467 423.471 153.927 423.445Z" fill="#263238"/>
<path opacity="0.2" d="M172.221 375.282C166.223 371.504 159.254 367.053 152.392 362.651C153.868 348.16 153.736 336.165 149.489 335.241C146.826 334.653 140.577 334.665 132.563 334.857V305.012C155.031 309.631 177.391 318.327 179.094 325.309C181.47 335.133 177.319 355.934 172.221 375.282Z" fill="black"/>
<path d="M195.3 424.776L204.069 424.932L208.435 404.707L199.678 404.563L195.3 424.776Z" fill="#EBB376"/>
<path opacity="0.2" d="M199.679 404.563L208.435 404.719L205.94 416.283L197.268 415.695L199.679 404.563Z" fill="black"/>
<path d="M163.464 302.085L164.879 290.762L119.092 283.216C119.092 283.216 104.11 312.893 111.439 327.48C118.169 340.819 189.734 332.866 200.746 335.277C211.758 337.688 194.748 411.821 194.748 411.821L210.751 413.021C210.751 413.021 235.462 346.325 230.387 325.345C228.132 316.168 190.406 304.041 163.464 302.085Z" fill="#187DE4"/>
<path d="M193.01 412.516L212.059 413.788L214.866 405.547L193.873 404.563L193.01 412.516Z" fill="#187DE4"/>
<path opacity="0.2" d="M193.01 412.516L212.059 413.788L214.866 405.547L193.873 404.563L193.01 412.516Z" fill="white"/>
<path d="M205.389 424.5H205.569C205.569 424.5 205.773 424.56 205.797 424.584C205.821 424.608 205.797 424.584 205.797 424.584H205.869C206.61 424.818 207.374 424.971 208.148 425.04C208.725 425.147 209.321 425.031 209.815 424.716C209.972 424.579 210.086 424.4 210.144 424.2C210.201 424 210.2 423.787 210.139 423.588C210.12 423.458 210.07 423.334 209.992 423.228C209.915 423.121 209.813 423.035 209.695 422.976C208.867 422.844 208.018 423.005 207.296 423.432C207.812 422.888 208.118 422.178 208.16 421.429C208.125 421.252 208.033 421.091 207.899 420.97C207.765 420.849 207.596 420.774 207.416 420.757C207.075 420.707 206.728 420.788 206.445 420.985C205.521 421.777 205.377 424.26 205.377 424.404L205.389 424.5ZM206.337 423.996L206.157 424.092C206.1 423.144 206.357 422.204 206.888 421.417C206.946 421.359 207.016 421.314 207.092 421.285C207.169 421.256 207.251 421.244 207.332 421.249H207.44C207.728 421.249 207.788 421.441 207.8 421.561C207.617 422.523 207.093 423.388 206.325 423.996H206.337ZM206.457 424.428C207.512 423.84 209.012 423.228 209.575 423.456C209.631 423.486 209.679 423.528 209.715 423.581C209.751 423.633 209.773 423.693 209.779 423.756C209.815 423.882 209.816 424.016 209.782 424.142C209.748 424.269 209.681 424.384 209.587 424.476C209.156 424.86 208.004 424.836 206.457 424.428Z" fill="#187DE4"/>
<path d="M205.185 423.445L195.361 422.833C195.197 422.817 195.033 422.865 194.905 422.968C194.777 423.072 194.695 423.222 194.677 423.385L193.717 431.122C193.691 431.529 193.826 431.93 194.093 432.237C194.36 432.545 194.738 432.735 195.145 432.766C198.575 432.922 200.219 432.826 204.537 433.066C208.37 433.46 212.227 433.58 216.077 433.425C219.736 433.078 219.292 429.467 217.708 429.299C213.954 428.867 209 426.12 206.648 424.033C206.241 423.678 205.725 423.471 205.185 423.445Z" fill="#263238"/>
<path d="M117.413 288.374L138.621 291.157L139.317 288.026L118.061 284.931L117.413 288.374Z" fill="black"/>
<path d="M141.079 288.038L140.815 291.156L160.428 293.843V290.773L141.079 288.038Z" fill="black"/>
<path d="M161.641 290.941V293.844L164.496 294.228V291.421L161.641 290.941Z" fill="black"/>
<path opacity="0.2" d="M175.758 241.771C174.895 244.506 174.103 247.181 173.359 249.76C172.751 251.928 172.184 254.031 171.656 256.07C170.18 248.033 172.855 238.437 172.855 238.437L175.758 241.771Z" fill="black"/>
<path d="M180.366 227.917C184.193 228.696 185.452 258.433 185.62 261.6C185.788 264.767 204.405 270.921 204.405 270.921V275.251C204.405 275.251 184.445 273.86 179.778 271.952C175.112 270.045 173.937 242.503 173.937 242.503L180.366 227.917Z" fill="#E4897B"/>
<path d="M180.366 227.917C183.881 229.008 185.62 248.621 185.62 248.621L174.752 253.107L172.053 242.203C172.053 242.203 171.286 239.984 172.797 235.306C174.992 228.48 180.366 227.917 180.366 227.917Z" fill="#263238"/>
<path d="M99.2991 325.705H185.931C188.448 325.705 190.861 326.704 192.641 328.484C194.42 330.263 195.42 332.677 195.42 335.193V340.267H89.8105V335.193C89.8105 332.677 90.8102 330.263 92.5897 328.484C94.3691 326.704 96.7825 325.705 99.2991 325.705Z" fill="#187DE4"/>
<path d="M127.477 289.634H185.643C186.344 289.634 187.036 289.792 187.668 290.096C188.299 290.401 188.853 290.845 189.289 291.394C189.725 291.943 190.032 292.583 190.185 293.267C190.339 293.951 190.337 294.661 190.178 295.344L179.777 340.267H177.378L186.231 300.898C186.386 300.217 186.386 299.51 186.23 298.83C186.074 298.15 185.767 297.513 185.331 296.968C184.896 296.423 184.342 295.983 183.713 295.681C183.084 295.379 182.395 295.222 181.697 295.224H128.664L127.477 289.634Z" fill="#263238"/>
<path d="M149.5 341.875V379.841C149.5 380.426 149.268 380.987 148.854 381.401C148.44 381.815 147.878 382.048 147.293 382.048H137.948C137.363 382.048 136.802 381.815 136.388 381.401C135.974 380.987 135.741 380.426 135.741 379.841V341.875H149.5Z" fill="#263238"/>
<path d="M98.1109 429.514C98.1109 428.717 97.8745 427.938 97.4316 427.275C96.9887 426.612 96.3592 426.095 95.6227 425.79C94.8863 425.485 94.0759 425.405 93.294 425.561C92.5122 425.716 91.794 426.1 91.2303 426.664C90.6666 427.228 90.2828 427.946 90.1273 428.728C89.9717 429.509 90.0516 430.32 90.3566 431.056C90.6617 431.793 91.1783 432.422 91.8411 432.865C92.5039 433.308 93.2832 433.544 94.0803 433.544C95.1493 433.544 96.1745 433.12 96.9303 432.364C97.6862 431.608 98.1109 430.583 98.1109 429.514Z" fill="#263238"/>
<path opacity="0.2" d="M96.096 429.515C96.096 429.116 95.9778 428.727 95.7563 428.395C95.5349 428.064 95.2201 427.805 94.8519 427.653C94.4837 427.5 94.0785 427.46 93.6875 427.538C93.2966 427.616 92.9375 427.808 92.6557 428.09C92.3738 428.372 92.1819 428.731 92.1042 429.122C92.0264 429.513 92.0663 429.918 92.2188 430.286C92.3714 430.654 92.6297 430.969 92.9611 431.19C93.2925 431.412 93.6821 431.53 94.0807 431.53C94.6142 431.527 95.125 431.314 95.5022 430.936C95.8795 430.559 96.0928 430.048 96.096 429.515Z" fill="white"/>
<path d="M195.216 429.514C195.218 428.714 194.983 427.931 194.54 427.264C194.096 426.597 193.465 426.077 192.726 425.77C191.987 425.463 191.173 425.381 190.388 425.537C189.602 425.693 188.881 426.078 188.315 426.644C187.749 427.21 187.364 427.931 187.208 428.717C187.052 429.502 187.133 430.316 187.441 431.055C187.748 431.794 188.268 432.425 188.935 432.869C189.602 433.312 190.385 433.547 191.185 433.545C192.253 433.542 193.277 433.116 194.032 432.361C194.787 431.606 195.213 430.582 195.216 429.514Z" fill="#263238"/>
<path opacity="0.2" d="M193.199 429.515C193.199 429.116 193.081 428.727 192.86 428.395C192.638 428.064 192.324 427.805 191.955 427.653C191.587 427.5 191.182 427.46 190.791 427.538C190.4 427.616 190.041 427.808 189.759 428.09C189.477 428.372 189.285 428.731 189.208 429.122C189.13 429.513 189.17 429.918 189.322 430.286C189.475 430.654 189.733 430.969 190.065 431.19C190.396 431.412 190.786 431.53 191.184 431.53C191.718 431.527 192.228 431.314 192.606 430.936C192.983 430.559 193.196 430.048 193.199 429.515Z" fill="white"/>
<path d="M145.961 411.809V368.409H139.292V411.809C113.309 412.481 97.5111 421.561 94.3563 423.552C94.1701 423.663 94.0171 423.821 93.9136 424.011C93.8101 424.201 93.76 424.416 93.7685 424.632V428.231C93.7669 428.399 93.7986 428.565 93.8618 428.721C93.925 428.877 94.0184 429.018 94.1367 429.138C94.2549 429.257 94.3956 429.352 94.5507 429.416C94.7057 429.481 94.8721 429.514 95.04 429.514C95.2646 429.512 95.4847 429.451 95.6783 429.338C95.872 429.224 96.0324 429.062 96.1436 428.867L97.6911 426.156C111.153 421.863 125.165 419.544 139.292 419.27V426.467C139.292 426.684 139.335 426.899 139.418 427.099C139.501 427.299 139.624 427.481 139.777 427.634C139.931 427.786 140.114 427.907 140.315 427.989C140.515 428.071 140.73 428.112 140.947 428.111H144.318C144.754 428.111 145.172 427.938 145.48 427.629C145.788 427.321 145.961 426.903 145.961 426.467V419.27C160.092 419.543 174.109 421.862 187.574 426.156L189.11 428.867C189.222 429.063 189.384 429.227 189.58 429.341C189.776 429.454 189.999 429.514 190.225 429.514C190.563 429.511 190.887 429.375 191.125 429.134C191.363 428.894 191.497 428.569 191.497 428.231V424.632C191.505 424.416 191.455 424.201 191.352 424.011C191.248 423.821 191.095 423.663 190.909 423.552C187.742 421.561 171.956 412.481 145.961 411.809Z" fill="#263238"/>
<path d="M144.823 425.472H140.444V433.545H144.823V425.472Z" fill="#263238"/>
<path opacity="0.2" d="M149.5 341.838H135.777V357.613H149.5V341.838Z" fill="black"/>
<path d="M198.347 337.928V342.462C198.347 342.767 198.286 343.069 198.169 343.351C198.052 343.633 197.88 343.888 197.664 344.104C197.448 344.319 197.191 344.489 196.909 344.605C196.627 344.72 196.324 344.779 196.019 344.777H89.2585C88.9541 344.779 88.6523 344.72 88.3707 344.604C88.0891 344.489 87.8332 344.318 87.6179 344.103C87.4026 343.888 87.2322 343.632 87.1164 343.35C87.0006 343.069 86.9418 342.767 86.9434 342.462V337.928C86.9434 337.314 87.1873 336.725 87.6215 336.291C88.0556 335.857 88.6445 335.613 89.2585 335.613H196.019C196.635 335.613 197.225 335.856 197.661 336.29C198.097 336.724 198.343 337.313 198.347 337.928Z" fill="#263238"/>
<path d="M149.225 340.267H86.9316C86.9316 340.267 67.1748 307.351 67.1748 252.963V232.99C67.178 229.048 68.7465 225.267 71.5357 222.48C74.3249 219.693 78.1065 218.128 82.0494 218.128H108.44C112.302 218.126 116.013 219.628 118.787 222.314C121.561 225.001 123.181 228.663 123.302 232.523C124.058 260.592 128.184 321.278 149.225 340.267Z" fill="#263238"/>
<path opacity="0.2" d="M135.55 340.267H89.7385C88.8724 340.271 88.022 340.036 87.2811 339.587C86.5403 339.138 85.9378 338.494 85.5401 337.724C81.0297 329.039 67.1748 298.534 67.1748 252.963V232.99C67.1748 229.049 68.7407 225.268 71.5279 222.481C74.3152 219.694 78.0956 218.128 82.0374 218.128H104.829C108.691 218.126 112.402 219.628 115.176 222.314C117.951 225.001 119.57 228.663 119.692 232.523C120.375 257.557 123.734 308.671 139.448 332.818C139.923 333.534 140.197 334.364 140.241 335.222C140.286 336.08 140.099 336.934 139.701 337.695C139.303 338.456 138.707 339.096 137.977 339.549C137.247 340.001 136.409 340.249 135.55 340.267Z" fill="white"/>
<path opacity="0.2" d="M198.347 337.928V342.462C198.347 343.076 198.103 343.665 197.669 344.099C197.235 344.534 196.646 344.777 196.032 344.777H148.182C147.771 344.779 147.364 344.7 146.984 344.543C146.605 344.387 146.259 344.158 145.969 343.868C145.678 343.578 145.447 343.234 145.289 342.855C145.132 342.476 145.051 342.069 145.051 341.659V338.744C145.051 337.913 145.381 337.117 145.968 336.53C146.555 335.943 147.351 335.613 148.182 335.613H196.02C196.635 335.613 197.225 335.856 197.661 336.29C198.097 336.724 198.344 337.313 198.347 337.928Z" fill="black"/>
<path d="M86.9072 216.364L90.8658 211.182C90.8658 211.182 107.768 211.95 108.175 218.128C108.583 224.305 86.9072 216.364 86.9072 216.364Z" fill="#187DE4"/>
<path d="M75.7988 231.875C75.7988 231.875 76.8305 259.345 75.7988 330.239C75.7988 332.638 66.8501 332.542 66.2024 330.239C64.0552 322.166 66.2024 257.702 66.2024 257.702" fill="#187DE4"/>
<path d="M66.4062 330.598L75.5109 330.91V335.456L66.4062 334.989V330.598Z" fill="#187DE4"/>
<path opacity="0.2" d="M75.7988 231.875C75.7988 231.875 76.8305 259.345 75.7988 330.239C75.7988 332.638 66.8501 332.542 66.2024 330.239C64.0552 322.166 66.2024 257.702 66.2024 257.702" fill="white"/>
<path d="M61.9087 315.748C61.4168 302.672 59.6295 242.574 67.1387 222.662C67.1387 222.662 74.2041 213.689 98.1114 213.689C122.019 213.689 129.216 230.663 129.216 230.663C129.216 230.663 130.248 258.121 129.216 329.027C129.216 331.426 120.267 331.342 119.619 329.027C117.472 320.966 119.619 256.489 119.619 256.489L114.821 315.148C114.804 315.344 114.746 315.535 114.652 315.709C114.558 315.883 114.43 316.036 114.275 316.158C114.12 316.28 113.942 316.37 113.751 316.421C113.56 316.472 113.361 316.484 113.166 316.455C105.621 315.256 72.3808 310.589 63.588 316.587C63.4287 316.69 63.2455 316.749 63.0564 316.759C62.8672 316.769 62.6787 316.73 62.5093 316.646C62.3398 316.561 62.1954 316.433 62.0901 316.276C61.9848 316.119 61.9223 315.936 61.9087 315.748Z" fill="#187DE4"/>
<path d="M119.823 329.387L128.928 329.699V334.245L119.823 333.778V329.387Z" fill="#187DE4"/>
<path d="M113.658 316.515L112.938 321.314C112.938 321.314 75.836 313.229 63.8164 321.841L63.0967 316.527C63.0967 316.527 72.3813 307.963 113.658 316.515Z" fill="#187DE4"/>
<path opacity="0.4" d="M61.9087 315.748C61.4168 302.672 59.6295 242.574 67.1387 222.662C67.1387 222.662 74.2041 213.689 98.1114 213.689C122.019 213.689 129.216 230.663 129.216 230.663C129.216 230.663 130.248 258.121 129.216 329.027C129.216 331.426 120.267 331.342 119.619 329.027C117.472 320.966 119.619 256.489 119.619 256.489L114.821 315.148C114.804 315.344 114.746 315.535 114.652 315.709C114.558 315.883 114.43 316.036 114.275 316.158C114.12 316.28 113.942 316.37 113.751 316.421C113.56 316.472 113.361 316.484 113.166 316.455C105.621 315.256 72.3808 310.589 63.588 316.587C63.4287 316.69 63.2455 316.749 63.0564 316.759C62.8672 316.769 62.6787 316.73 62.5093 316.646C62.3398 316.561 62.1954 316.433 62.0901 316.276C61.9848 316.119 61.9223 315.936 61.9087 315.748Z" fill="white"/>
<path opacity="0.2" d="M119.655 256.49C119.655 256.49 120.182 237.873 129.251 230.664C129.215 230.664 117.915 235.522 119.655 256.49Z" fill="black"/>
<path opacity="0.2" d="M92.4488 215.836C92.4488 215.836 81.5328 221.834 79.7934 303.56C79.7934 303.56 75.0432 221.114 92.4488 215.836Z" fill="black"/>
</svg>
