<svg width="314" height="137" viewBox="0 0 314 137" fill="none" xmlns="http://www.w3.org/2000/svg">
<g clip-path="url(#clip0)">
<g opacity="0.504511">
<path opacity="0.504511" fill-rule="evenodd" clip-rule="evenodd" d="M290.211 212.919C294.197 242.74 197.522 262.192 114.311 248.617C31.1004 235.042 -7.07272 182.032 32.634 153.786C72.3407 125.541 286.224 183.098 290.211 212.919Z" fill="#F2F2F2"/>
</g>
<path fill-rule="evenodd" clip-rule="evenodd" d="M172.673 75.1132C170.541 74.0558 167.698 75.2822 168.884 78.0777C170.154 81.0712 174.851 81.1082 177.503 81.0489C177.238 81.035 176.383 78.2898 176.09 77.875C175.227 76.6514 173.984 75.7645 172.673 75.1132ZM197.242 128.784C197.78 129.245 197.286 128.828 197.242 128.784V128.784ZM170.619 88.6531C169.371 89.6071 169.312 91.2914 170.331 92.4315C171.545 93.7887 173.761 93.7393 175.416 93.6071C176.164 93.5471 180.16 93.2272 179.213 92.5732C179.286 92.6007 179.438 92.6675 179.601 92.7583C179.688 93.0785 179.78 93.3976 179.876 93.7153C179.853 93.729 179.833 93.7438 179.808 93.7575C179.835 93.7455 179.854 93.7326 179.878 93.7206C180.839 96.8958 182.207 99.9191 183.998 102.748C183.328 102.484 182.634 102.284 181.93 102.195C179.845 101.931 175.459 103.551 177.791 106.327C180.027 108.989 183.508 106.134 186.046 105.74C188.507 109.175 191.221 112.468 194.065 115.65C193.891 115.705 193.738 115.818 193.65 115.996C192.509 115.417 191.32 114.589 190.264 114.364C188.741 114.041 185.616 113.845 184.464 115.209C183.048 116.887 184.566 118.249 186.24 118.571C188.666 119.037 191.843 117.851 194.178 117.05C194.445 117.097 194.736 117.019 194.911 116.806C194.962 116.789 195.014 116.772 195.064 116.756C197.944 119.923 200.934 122.985 203.906 125.98C203.875 125.979 203.843 125.977 203.81 125.975C203.035 125.467 202.203 125.049 201.302 124.831C199.217 124.322 196.763 124.32 195.071 125.829C193.386 127.331 192.789 129.959 194.532 131.646C198.023 135.023 203.165 127.323 204.926 127.002C207.946 130.014 211.14 132.828 214.384 135.585C214.015 135.473 213.637 135.39 213.247 135.353C210.066 135.049 202.6 138.949 206.504 142.786C209.906 146.129 213.843 139.694 216.584 137.443C219.641 140.013 222.714 142.565 225.701 145.217C224.072 144.784 222.498 144.72 220.751 145.248C218.944 145.795 216.028 147.16 217.171 149.6C218.333 152.081 221.834 150.952 223.658 150.164C224.653 149.735 226.647 148.285 228.398 147.674C233.165 152.174 237.293 157.131 240.419 162.971C242.37 166.617 243.851 170.512 244.894 174.516C245.559 177.071 246.87 181.363 246.607 184.689C247.858 178.031 245.596 170.036 243.16 164.085C240.92 158.613 237.567 153.809 233.64 149.485C234.626 146.521 242.92 142.246 237.962 139.492C235.328 138.036 232.631 140.452 232.056 143.011C231.66 144.769 232.263 146.979 232.902 148.686C231.667 147.368 230.382 146.092 229.059 144.858C227.23 143.154 225.358 141.499 223.467 139.865C226.583 136.938 229.531 128.57 225.354 127.201C219.186 125.186 222.156 136.6 222.586 138.739C222.708 138.747 222.803 138.71 222.873 138.63C222.839 138.826 222.798 139.036 222.75 139.247C219.131 136.135 215.459 133.085 211.908 129.899C212.228 129.663 212.737 128.759 213.136 128.278C214.039 127.194 214.902 126.061 215.533 124.793C216.529 122.788 217.49 119.591 214.849 118.412C211.976 117.127 210.611 120.743 210.591 122.901C210.577 124.393 210.983 125.81 211.195 127.272C211.261 127.728 211.006 129.784 211.628 128.9C211.598 129.226 211.594 129.462 211.609 129.63C210.971 129.055 210.339 128.474 209.71 127.888C209.739 127.814 209.761 127.734 209.766 127.64C209.799 126.997 209.152 126.75 208.698 126.938C207.869 126.15 207.047 125.351 206.241 124.537C204.531 122.813 202.796 121.039 201.074 119.227C201.448 118.906 201.299 118.461 201.648 118.12C201.997 117.78 202.685 117.592 203.095 117.276C204.127 116.481 204.983 115.323 205.602 114.183C206.624 112.299 207.944 108.348 204.959 107.45C201.882 106.523 200.32 110.327 200.123 112.705C200.084 113.165 200.429 117.317 200.693 118.824C197.506 115.457 194.371 111.963 191.53 108.409C192.392 108.401 194.833 106.637 195.327 106.155C196.531 104.981 198.445 102.386 196.334 101.013C194.457 99.7945 192.143 101.559 191.34 103.273C191.208 103.556 190.743 106.183 190.706 107.362C189.531 105.855 188.409 104.339 187.366 102.818C186.67 101.807 186.02 100.769 185.412 99.7088C185.558 99.6258 185.696 99.4811 185.826 99.3011C188.957 98.7696 192.949 93.8838 189.271 92.1839C187.52 91.3756 185.621 93.0442 184.764 94.4102C184.588 94.6897 184.303 96.0947 184.072 97.203C182.322 93.6915 180.984 89.9739 179.966 86.1622C180.239 86.0946 180.47 85.8863 180.5 85.5282C182.02 84.6615 183.221 83.9398 184.282 82.2731C184.941 81.2379 186.128 78.8727 184.191 78.2981C181.67 77.5505 180.087 81.4012 179.881 83.2979C179.857 83.5181 179.857 84.1584 179.866 84.7452C179.778 84.7332 179.69 84.7346 179.603 84.7499C179.024 82.3897 178.562 79.9991 178.194 77.6045C179.57 77.1616 179.808 69.9349 178.892 68.9059C176.844 66.6019 175.4 69.9302 175.509 71.6892C175.638 73.7634 176.578 75.6501 177.697 77.3246C177.817 77.5019 177.783 77.4933 177.814 77.2463C177.831 77.3684 177.872 77.4585 177.933 77.5237C177.875 78.6155 177.762 79.7333 177.816 80.6994C177.971 83.4661 178.294 86.2489 178.761 88.9799C178.875 89.6442 179.006 90.303 179.152 90.9561C178.046 90.0138 176.555 89.1767 175.971 88.9149C174.457 88.2361 172.123 87.5032 170.619 88.6531ZM246.785 184.698C246.715 185.663 246.541 186.546 246.215 187.275C246.459 186.445 246.646 185.583 246.785 184.698Z" fill="#E1E9D9"/>
<path opacity="0.2" fill-rule="evenodd" clip-rule="evenodd" d="M93.7306 17.1135C95.2537 16.3582 97.2842 17.2342 96.4372 19.231C95.5298 21.3693 92.1753 21.3957 90.2808 21.3533C90.4704 21.3434 91.081 19.3825 91.29 19.0862C91.9065 18.2122 92.7942 17.5787 93.7306 17.1135ZM76.1932 56.074C75.6552 56.534 76.1494 56.1171 76.1932 56.074V56.074ZM95.5008 27.0412C96.4116 27.7305 96.4544 28.9484 95.7097 29.7732C94.823 30.755 93.2048 30.7201 91.9969 30.6251C91.4505 30.5821 88.533 30.3521 89.2248 29.8789C89.1716 29.8988 89.0605 29.9472 88.9416 30.0129C88.8775 30.2445 88.8102 30.4753 88.74 30.705C88.7572 30.7149 88.7718 30.7256 88.7901 30.7355C88.7703 30.7269 88.7563 30.7175 88.7388 30.7088C88.036 33.0052 87.0362 35.1918 85.7274 37.2377C86.2168 37.0467 86.7236 36.902 87.2377 36.8374C88.7599 36.646 91.9613 37.8159 90.2576 39.824C88.6241 41.7491 86.0836 39.6859 84.231 39.4022C82.4326 41.8873 80.45 44.2691 78.3723 46.5713C78.4995 46.6107 78.6111 46.6929 78.675 46.8209C79.5083 46.4019 80.3767 45.8026 81.1477 45.6401C82.2604 45.4059 84.5417 45.2631 85.382 46.249C86.4156 47.4612 85.3065 48.4469 84.0845 48.6801C82.3126 49.0183 79.9938 48.1621 78.2893 47.5837C78.0942 47.6179 77.8814 47.5616 77.7543 47.4071C77.7166 47.3949 77.679 47.3829 77.6423 47.3712C75.5383 49.6623 73.3539 51.8777 71.1828 54.0447C71.2059 54.0435 71.229 54.0421 71.2531 54.0408C71.8193 53.6728 72.4266 53.3708 73.0848 53.2124C74.6075 52.8441 76.3987 52.8414 77.6337 53.9318C78.8638 55.0176 79.2988 56.9174 78.025 58.1379C75.4753 60.5811 71.7233 55.0153 70.438 54.7836C68.2316 56.9626 65.8988 58.9986 63.5294 60.9935C63.7984 60.9123 64.0742 60.8525 64.3594 60.8256C66.6819 60.6042 72.1318 63.4215 69.2801 66.1975C66.7951 68.6166 63.9227 63.9644 61.9219 62.3379C59.6891 64.1973 57.4442 66.044 55.2622 67.9626C56.4519 67.6491 57.6015 67.6025 58.8764 67.9834C60.1957 68.3783 62.3243 69.3639 61.4893 71.1288C60.64 72.9236 58.0837 72.1084 56.7524 71.5394C56.0262 71.2291 54.5706 70.1811 53.2923 69.7401C49.8104 72.9961 46.794 76.5821 44.5097 80.8057C43.0836 83.4429 42.001 86.2601 41.2385 89.1554C40.7518 91.0035 39.7931 94.1074 39.9835 96.5123C39.0726 91.6988 40.727 85.9163 42.5081 81.6125C44.1458 77.6549 46.5955 74.1802 49.4643 71.0521C48.7459 68.909 42.6912 65.8206 46.3128 63.8273C48.2359 62.7734 50.2042 64.5196 50.6235 66.3698C50.9115 67.6412 50.4709 69.2391 50.0035 70.4735C50.906 69.5199 51.8441 68.597 52.8108 67.7047C54.1467 66.4714 55.5146 65.2739 56.8955 64.0915C54.622 61.9761 52.4724 55.9266 55.5227 54.9356C60.027 53.4762 57.8543 61.7305 57.5394 63.2775C57.4502 63.2828 57.3806 63.2561 57.3295 63.1989C57.3548 63.3406 57.3841 63.492 57.4196 63.6448C60.0627 61.3934 62.745 59.1863 65.339 56.8812C65.1055 56.7103 64.7344 56.0571 64.4427 55.7094C63.7845 54.9257 63.1546 54.107 62.6945 53.1901C61.9677 51.741 61.2672 49.4294 63.1963 48.5758C65.2942 47.6459 66.2896 50.2602 66.3034 51.8201C66.3128 52.899 66.0156 53.924 65.8606 54.9815C65.8121 55.3114 65.9973 56.7979 65.5441 56.1586C65.5653 56.3944 65.5683 56.5652 65.5576 56.6862C66.0234 56.2703 66.4855 55.8499 66.9447 55.4265C66.9234 55.3731 66.9077 55.3148 66.9042 55.2472C66.8798 54.7822 67.3524 54.6028 67.6836 54.7389C68.2896 54.1685 68.8896 53.591 69.4789 53.002C70.7279 51.7543 71.9951 50.4708 73.2535 49.1601C72.9807 48.9281 73.0894 48.6065 72.8343 48.3601C72.5797 48.1143 72.0779 47.9786 71.7784 47.7503C71.0252 47.1757 70.4007 46.3385 69.9493 45.5144C69.2039 44.1527 68.2411 41.296 70.421 40.6457C72.6679 39.9744 73.8069 42.7242 73.9504 44.4437C73.9784 44.7768 73.725 47.7786 73.5316 48.8687C75.8601 46.4328 78.1504 43.9055 80.2255 41.3344C79.5967 41.329 77.8147 40.054 77.4545 39.706C76.5756 38.8572 75.1787 36.9815 76.7208 35.9877C78.092 35.1063 79.781 36.3811 80.3665 37.6205C80.4627 37.8246 80.8015 39.7245 80.8275 40.577C81.6864 39.4867 82.5057 38.39 83.2681 37.2898C83.7765 36.5584 84.2515 35.8076 84.6961 35.041C84.5892 34.981 84.4887 34.8764 84.3937 34.7462C82.1078 34.3631 79.1949 30.8317 81.8808 29.6012C83.1596 29.016 84.5455 30.2218 85.1713 31.2093C85.2995 31.4113 85.5068 32.4272 85.6755 33.2285C86.9547 30.6887 87.9325 28 88.6772 25.2435C88.4782 25.1946 88.3097 25.0441 88.2876 24.7852C87.178 24.159 86.3018 23.6376 85.5276 22.4328C85.0466 21.6845 84.1806 19.9747 85.5952 19.5585C87.4361 19.017 88.5908 21.8008 88.7407 23.1722C88.7582 23.3314 88.7573 23.7944 88.751 24.2187C88.8149 24.2101 88.8795 24.211 88.9428 24.2221C89.3664 22.5152 89.7048 20.7864 89.974 19.0547C88.9696 18.735 88.7985 13.5095 89.4678 12.7651C90.9637 11.0983 92.0173 13.5044 91.9368 14.7764C91.8418 16.2763 91.1549 17.6409 90.3372 18.8521C90.2495 18.9804 90.2745 18.9742 90.2519 18.7955C90.2393 18.8838 90.2094 18.949 90.1652 18.9962C90.2069 19.7857 90.2887 20.5939 90.2489 21.2925C90.1347 23.2931 89.8984 25.3055 89.5558 27.2805C89.4724 27.7608 89.377 28.2372 89.2701 28.7096C90.0779 28.0278 91.1669 27.4219 91.593 27.2324C92.6989 26.741 94.4031 26.2102 95.5008 27.0412ZM39.8026 96.3224C39.8559 96.9653 40.0145 97.552 40.3266 98.0326C40.0975 97.4832 39.9256 96.911 39.8026 96.3224Z" fill="#C1DEE2"/>
<g opacity="0.7">
<path opacity="0.7" fill-rule="evenodd" clip-rule="evenodd" d="M214.152 140.458C220.075 140.15 227.399 143.607 228.03 150.045C228.489 154.723 228.347 159.388 229.058 164.058C229.626 167.791 230.827 171.375 232.465 174.775C234.04 178.045 237.308 180.828 238.158 184.321C238.7 186.547 238.397 189.678 237.65 191.855C236.741 194.502 237.224 194.293 239.034 196.514C242.581 200.867 245.775 205.33 248.034 210.529C251.288 218.016 253.421 226.769 252.213 234.965C252.06 236.006 251.878 239.741 250.444 240.002C248.844 240.294 249.592 238.158 249.678 237.468C250.222 233.065 250.706 229.216 250.049 224.745C247.514 207.491 235.138 196.124 227.08 181.48C226.637 180.725 225.701 178.927 225.051 177.741C224.025 175.868 222.992 172.304 221.603 170.915C218.985 168.299 221.392 173.559 221.902 174.563C222.546 175.833 223.256 177.183 223.917 178.296C226.94 183.455 230.315 189.086 233.438 194.404C219.932 197.481 210.421 181.244 206.797 170.569C203.811 161.773 200.238 141.21 214.152 140.458Z" fill="#69A1AC"/>
<path opacity="0.7" fill-rule="evenodd" clip-rule="evenodd" d="M293.528 124.127C283.628 124.912 277.272 131.446 274.313 140.584C272.719 145.508 272.536 150.567 271.65 155.628C270.317 163.242 267.449 169.012 261.844 174.436C260.107 176.116 258.828 177.841 257.919 179.686C256.113 181.529 254.542 183.614 253.387 186.163C251.912 189.419 251.495 193.325 253.198 196.57C253.655 197.443 254.798 199.194 255.981 199.99C251.549 209.43 249.112 219.769 249.387 230.094C249.553 236.328 249.857 242.563 250.212 248.789C250.308 250.46 250.852 253.22 251.67 250.417C252.418 247.853 251.48 243.828 251.393 241.149C250.97 228.099 250.609 216.234 255.981 204.041C256.544 202.763 257.141 201.496 257.763 200.238C257.8 200.217 257.834 200.192 257.868 200.167C257.892 200.185 257.913 200.205 257.937 200.223C257.977 200.152 258.031 200.067 258.094 199.973C258.273 199.789 258.429 199.557 258.577 199.297C259.053 198.637 259.592 197.861 259.595 197.436C259.595 197.433 259.593 197.428 259.593 197.424C262.919 191.996 266.727 186.867 270.617 181.838C270.588 181.874 274.837 176.088 274.18 179.288C273.864 180.83 270.738 183.766 269.476 185.399C266.684 189.033 263.405 193.637 260.68 198.089C260.314 198.299 259.795 199.334 259.421 200.105C259.214 200.495 259.021 200.889 258.831 201.232C268.486 204.422 275.996 197.996 281.117 190.522C281.124 190.513 281.129 190.504 281.135 190.495C282.693 188.43 284.29 186.379 286.284 184.747C289.612 182.023 293.175 181.542 297.098 180.201C307.797 176.546 312.346 162.679 313.79 152.39C315.42 140.782 307.447 122.982 293.528 124.127Z" fill="#E1E9D9"/>
<path opacity="0.7" fill-rule="evenodd" clip-rule="evenodd" d="M273.972 91.6206C263.811 102.197 258.902 116.866 255.015 130.657C250.673 146.059 247.806 161.7 247.696 177.714C247.624 188.235 247.338 198.822 247.952 209.331C248.169 213.063 248.541 216.802 249.133 220.494C249.182 220.798 250.505 229.042 251.771 227.121C252.492 226.028 250.415 218.569 250.258 217.326C249.375 210.329 249.17 203.279 249.213 196.231C249.284 184.626 248.942 173.08 250.118 161.518C250.293 159.792 250.432 157.978 250.842 156.29C251.277 154.494 250.723 155.278 252.141 154.567C253.519 153.876 255.221 153.975 256.651 153.108C262.322 149.669 265.222 140.836 267.48 135.04C270.063 128.412 271.632 121.344 272.886 114.369C273.806 109.245 274.464 104.151 274.836 98.9608C274.954 97.3249 274.961 95.6141 275.282 94.0056C275.369 93.5717 275.803 92.8042 275.788 92.4199C275.754 91.6067 275.263 91.1284 275.223 90.4451C274.798 90.8279 274.38 91.22 273.972 91.6206Z" fill="#E1E9D9"/>
</g>
<g opacity="0.5">
<path opacity="0.5" fill-rule="evenodd" clip-rule="evenodd" d="M79.8532 82.6207C81.6761 80.0213 85.0589 73.4194 87.6246 72.4906C89.2772 71.8923 88.7953 78.081 88.8157 79.2611C88.8952 83.8265 88.4508 88.363 87.902 92.8901C86.9132 101.055 83.68 108.326 79.2455 115.275C76.9636 118.851 74.2871 122.47 70.58 124.701C68.8736 125.728 66.8204 125.9 65.1353 126.785C63.1727 127.816 64.2415 126.983 63.357 129.028C62.1287 131.868 61.7359 135.531 61.1676 138.561C58.5582 152.471 52.2409 225.999 53.336 240.148C53.4333 241.402 51.6848 241.702 51.5975 240.171C51.1336 232.053 55.1481 175.84 57.1735 157.456C59.1989 139.073 61.2485 122.832 63.3036 116.472C65.7968 108.756 70.2997 99.4762 74.048 92.2806C75.789 88.9376 77.6868 85.7099 79.8532 82.6207Z" fill="#69A1AC"/>
<path opacity="0.5" fill-rule="evenodd" clip-rule="evenodd" d="M13.8476 40.2238C23.8463 57.5656 32.0628 76.6151 37.3683 95.9095C40.5828 107.6 42.8307 119.596 45.0643 131.505C48.5225 149.945 51.7936 168.383 52.7241 187.151C53.6602 206.027 55.5113 227.798 49.3309 245.979C52.4181 227.521 49.4789 207.873 48.9585 189.3C48.7098 180.434 47.9891 171.654 47.0438 162.839C46.1264 154.289 44.6276 145.779 43.232 137.295C42.5521 133.164 41.8381 129.038 41.1111 124.915C40.8941 123.685 40.8024 120.035 40.0222 119.194C39.2369 118.348 35.2301 118.004 33.9722 117.383C31.4391 116.133 29.0564 114.357 26.9477 112.481C22.9052 108.884 19.3885 104.185 16.6128 99.5519C10.1905 88.8327 7.62294 75.7513 7.75271 63.3371C7.77765 60.9268 11.6536 34.9719 10.0969 34.6145C10.1907 34.5047 10.2793 34.3913 10.3629 34.2734C11.5414 36.2468 12.6979 38.2336 13.8476 40.2238Z" fill="#89C5CC"/>
<path opacity="0.5" fill-rule="evenodd" clip-rule="evenodd" d="M121.766 102.769C121.921 102.546 122.925 100.998 122.419 101.097C123.449 100.896 121.003 102.804 123.568 101.633C122.35 102.784 123.053 104.278 123.069 105.826C123.096 108.34 122.675 110.833 122.202 113.293C121.454 117.181 120.34 120.961 118.722 124.578C115.197 132.459 109.211 140.046 102.104 144.973C98.5955 147.406 95.1571 148.234 91.1558 149.354C88.6284 150.061 88.4279 151.369 87.0864 153.822C84.2933 158.93 81.5501 164.021 79.0869 169.302C76.1457 175.608 73.2904 181.921 70.5971 188.338C61.5239 209.954 54.1391 232.348 50.2609 255.523C50.1659 241.866 53.325 227.8 57.31 214.782C60.2128 205.298 63.9917 196.155 68.0222 187.105C68.9989 184.912 70.479 182.092 70.8937 179.671C71.1841 177.975 70.2962 176.344 69.8897 174.558C68.3048 167.6 68.4183 159.806 69.81 152.811C71.3445 145.098 75.7823 141.518 83.2893 140.426C86.0348 140.026 89.5243 140.173 92.0418 139.002C94.7845 137.727 95.916 133.537 97.4756 130.847C101.665 123.621 106.642 116.691 112.357 110.602C113.94 108.917 115.641 107.361 117.447 105.919C118.585 105.01 120.99 103.889 121.766 102.769Z" fill="#89C5CC"/>
</g>
<g opacity="0.5">
<path fill-rule="evenodd" clip-rule="evenodd" d="M300.827 53.7184C299.533 49.4013 296.494 46.0224 293.34 42.9265C287.2 36.8994 283.898 33.1729 281.709 24.3565C280.422 19.1713 279.112 13.6766 275.03 9.91471C272.058 7.17522 266.943 4.87355 262.968 6.83525C256.853 10.4854 255.211 17.9762 255.827 24.6838C256.592 32.9973 260.475 38.1235 267.934 41.1855C272.138 42.9101 274.932 45.1856 277.213 49.1508C279.038 52.3214 280.103 56.2917 282.396 59.166C285.825 63.4626 290.116 65.3727 295.405 64.6589C290.451 55.5437 284.663 46.3428 277.682 38.6681C277.028 37.8965 273.174 34.9433 273.951 33.6284C274.808 32.1805 278.765 37.6193 278.737 37.5864C280.765 39.9154 282.643 42.3903 284.486 44.889C284.481 44.8914 284.476 44.8928 284.471 44.8953C286.369 47.4593 288.252 50.061 290.099 52.6954C290.846 53.8097 291.573 54.9383 292.269 56.0951C293.29 57.7927 294.911 62.6106 296.582 63.6545C296.94 63.8776 297.271 64.0024 297.58 64.0538C298.72 65.9212 299.83 67.8035 300.885 69.708C303.641 74.6822 306.006 79.9343 307.092 85.5502C307.409 87.1893 307.185 93.3207 308.303 94.504C310.349 96.6684 309.75 92.5005 309.627 91.2425C308.611 80.8248 304.872 71.9495 299.442 63.1915C301.11 61.0128 301.351 55.4676 300.827 53.7184Z" fill="#89C5CC"/>
<path fill-rule="evenodd" clip-rule="evenodd" d="M230.77 58.7534C232.926 56.2124 238.11 55.7812 241.28 55.9513C245.203 56.1618 249.233 57.1168 252.965 58.2717C259.113 60.1739 265.088 63.6452 270.502 67.0051C271.155 67.4099 279.194 72.245 278.483 73.0936C277.778 73.9343 269.886 68.1909 268.127 67.201C264.373 65.088 260.931 62.5891 256.794 61.1938C252.51 59.7487 247.98 59.1766 243.475 59.216C242.897 59.2212 241.011 58.8181 240.97 59.6735C240.93 60.5101 244.051 60.0736 244.601 60.0786C246.874 60.0995 249.16 60.3134 251.401 60.7073C255.598 61.4451 259.544 62.9317 263.14 65.2117C262.136 67.5443 259.732 68.6199 257.209 68.0362C255.029 67.5314 252.904 66.287 250.769 65.9271C249.298 65.6793 247.826 65.8267 246.4 66.241C242.64 67.3341 240.47 69.5734 236.335 68.0157C233.094 66.7947 227.673 62.4076 230.77 58.7534Z" fill="#89C5CC"/>
<path fill-rule="evenodd" clip-rule="evenodd" d="M233.208 34.7082H234.229C234.157 33.4134 234.064 32.1207 233.845 30.8404C233.025 26.0414 230.461 18.9929 224.837 18.214C224.63 18.1849 223.866 18.18 222.942 18.2337C222.504 17.9915 222.013 17.845 221.496 17.8113C216.708 17.4621 211.361 21.2838 209.051 25.2609C207.189 28.4675 207.503 32.6782 208.653 36.0849C209.423 38.3656 211.104 41.6174 213.906 41.6491C217.413 41.6887 217.582 37.4007 217.65 34.894C217.74 31.5613 218.166 28.6581 220.82 26.3864C221.439 25.8572 222.115 25.3917 222.74 24.8698C223.718 24.053 224.8 23.2166 224.926 21.8653C225.1 20.001 224.036 19.6654 222.412 20.0118C222.135 20.0708 219.346 21.3088 219.759 20.3303C219.885 20.0313 220.346 19.7944 220.927 19.6169C222.431 19.4551 224.224 19.2674 224.74 19.3796C230.304 20.5873 232.471 28.2129 233.046 33.0578C233.111 33.6064 233.163 34.1569 233.208 34.7082H233.208Z" fill="#89C5CC"/>
</g>
</g>
<defs>
<clipPath id="clip0">
<rect width="321" height="295" fill="white" transform="translate(-7)"/>
</clipPath>
</defs>
</svg>
