<svg width="312" height="137" viewBox="0 0 312 137" fill="none" xmlns="http://www.w3.org/2000/svg">
<g opacity="0.504511">
<path opacity="0.504511" fill-rule="evenodd" clip-rule="evenodd" d="M288.211 212.919C292.198 242.74 195.522 262.191 112.312 248.616C29.101 235.042 -9.07205 182.032 30.6347 153.786C70.3414 125.54 284.225 183.098 288.211 212.919Z" fill="#F2F2F2"/>
</g>
<path fill-rule="evenodd" clip-rule="evenodd" d="M170.674 75.113C168.541 74.0555 165.698 75.282 166.884 78.0775C168.155 81.071 172.851 81.108 175.503 81.0486C175.238 81.0347 174.383 78.2896 174.09 77.8748C173.227 76.6511 171.984 75.7643 170.674 75.113ZM195.242 128.784C195.78 129.244 195.286 128.827 195.242 128.784V128.784ZM168.619 88.6529C167.371 89.6069 167.312 91.2912 168.331 92.4312C169.545 93.7885 171.761 93.7391 173.416 93.6068C174.164 93.5469 178.16 93.2269 177.213 92.5729C177.286 92.6005 177.438 92.6673 177.601 92.758C177.688 93.0783 177.781 93.3974 177.876 93.7151C177.853 93.7288 177.833 93.7435 177.808 93.7572C177.835 93.7453 177.854 93.7324 177.878 93.7203C178.839 96.8955 180.207 99.9189 181.998 102.747C181.328 102.483 180.634 102.284 179.93 102.195C177.845 101.931 173.46 103.551 175.791 106.327C178.027 108.988 181.508 106.133 184.046 105.74C186.507 109.175 189.221 112.468 192.065 115.65C191.891 115.705 191.738 115.818 191.65 115.995C190.509 115.416 189.32 114.588 188.264 114.364C186.741 114.041 183.616 113.845 182.465 115.209C181.048 116.886 182.566 118.249 184.24 118.57C186.667 119.037 189.843 117.851 192.178 117.05C192.445 117.097 192.737 117.019 192.911 116.805C192.962 116.788 193.014 116.772 193.064 116.756C195.944 119.923 198.934 122.985 201.907 125.98C201.875 125.978 201.843 125.977 201.81 125.975C201.035 125.466 200.203 125.049 199.302 124.831C197.217 124.322 194.764 124.32 193.071 125.829C191.386 127.331 190.789 129.959 192.533 131.646C196.023 135.023 201.165 127.323 202.926 127.001C205.946 130.013 209.14 132.827 212.384 135.585C212.015 135.472 211.638 135.39 211.247 135.353C208.066 135.048 200.6 138.948 204.504 142.785C207.906 146.129 211.843 139.693 214.584 137.443C217.641 140.013 220.715 142.565 223.702 145.217C222.072 144.784 220.498 144.72 218.752 145.248C216.944 145.795 214.028 147.16 215.171 149.6C216.333 152.081 219.834 150.952 221.658 150.164C222.653 149.735 224.647 148.284 226.398 147.673C231.165 152.174 235.294 157.131 238.419 162.97C240.371 166.616 241.851 170.512 242.894 174.515C243.559 177.071 244.87 181.363 244.607 184.689C245.858 178.031 243.597 170.035 241.16 164.085C238.92 158.613 235.567 153.809 231.64 149.485C232.626 146.521 240.92 142.246 235.962 139.492C233.329 138.035 230.632 140.452 230.056 143.011C229.661 144.769 230.263 146.979 230.902 148.685C229.667 147.367 228.383 146.092 227.059 144.858C225.23 143.154 223.358 141.499 221.467 139.864C224.583 136.937 227.531 128.57 223.354 127.201C217.186 125.186 220.156 136.6 220.586 138.739C220.708 138.746 220.803 138.709 220.874 138.63C220.839 138.826 220.799 139.036 220.75 139.247C217.131 136.135 213.459 133.085 209.908 129.899C210.228 129.662 210.737 128.759 211.137 128.278C212.039 127.193 212.902 126.061 213.533 124.792C214.529 122.788 215.49 119.59 212.849 118.411C209.976 117.127 208.611 120.743 208.591 122.9C208.577 124.392 208.984 125.81 209.195 127.272C209.261 127.728 209.007 129.784 209.628 128.9C209.599 129.226 209.594 129.462 209.609 129.629C208.971 129.054 208.339 128.473 207.71 127.888C207.739 127.814 207.761 127.734 207.766 127.64C207.799 126.997 207.152 126.749 206.698 126.938C205.869 126.149 205.048 125.351 204.241 124.537C202.531 122.812 200.797 121.038 199.074 119.227C199.448 118.905 199.299 118.461 199.649 118.12C199.997 117.78 200.685 117.592 201.095 117.276C202.127 116.481 202.983 115.322 203.602 114.182C204.624 112.299 205.944 108.347 202.959 107.45C199.882 106.523 198.321 110.326 198.123 112.704C198.084 113.165 198.429 117.316 198.693 118.824C195.506 115.457 192.371 111.963 189.531 108.409C190.392 108.401 192.833 106.636 193.327 106.155C194.531 104.981 196.446 102.386 194.334 101.012C192.457 99.7943 190.143 101.558 189.34 103.273C189.208 103.555 188.743 106.183 188.706 107.362C187.531 105.855 186.41 104.339 185.366 102.818C184.67 101.806 184.02 100.769 183.412 99.7086C183.558 99.6256 183.696 99.4808 183.826 99.3008C186.957 98.7694 190.949 93.8836 187.272 92.1837C185.521 91.3754 183.622 93.0439 182.764 94.41C182.588 94.6894 182.303 96.0945 182.072 97.2028C180.322 93.6913 178.984 89.9737 177.966 86.162C178.239 86.0943 178.47 85.8861 178.5 85.5279C180.02 84.6612 181.221 83.9395 182.282 82.2728C182.941 81.2376 184.128 78.8725 182.191 78.2979C179.67 77.5503 178.087 81.401 177.881 83.2977C177.857 83.5178 177.858 84.1581 177.866 84.7449C177.778 84.733 177.69 84.7343 177.603 84.7497C177.024 82.3894 176.562 79.9988 176.195 77.6042C177.57 77.1613 177.808 69.9347 176.892 68.9057C174.845 66.6016 173.4 69.9299 173.509 71.689C173.638 73.7631 174.578 75.6499 175.697 77.3243C175.817 77.5016 175.783 77.493 175.814 77.246C175.831 77.3681 175.872 77.4582 175.933 77.5235C175.875 78.6153 175.762 79.7331 175.816 80.6992C175.971 83.4658 176.294 86.2486 176.762 88.9797C176.875 89.6439 177.006 90.3027 177.152 90.9558C176.046 90.0136 174.555 89.1764 173.971 88.9146C172.457 88.2358 170.123 87.5029 168.619 88.6529ZM244.785 184.698C244.715 185.663 244.541 186.546 244.216 187.275C244.459 186.445 244.646 185.583 244.785 184.698Z" fill="#E1E9D9"/>
<path opacity="0.2" fill-rule="evenodd" clip-rule="evenodd" d="M91.7315 17.1124C93.2546 16.3571 95.2851 17.2331 94.4381 19.2299C93.5308 21.3682 90.1762 21.3946 88.2817 21.3522C88.4713 21.3423 89.0819 19.3814 89.2909 19.0852C89.9074 18.2111 90.7951 17.5776 91.7315 17.1124ZM74.1941 56.0729C73.6561 56.5329 74.1503 56.116 74.1941 56.0729V56.0729ZM93.5018 27.0401C94.4125 27.7294 94.4553 28.9473 93.7107 29.7721C92.8239 30.7539 91.2057 30.719 89.9978 30.624C89.4514 30.581 86.5339 30.351 87.2257 29.8778C87.1725 29.8977 87.0614 29.9461 86.9425 30.0118C86.8784 30.2434 86.8111 30.4742 86.7409 30.7039C86.7581 30.7138 86.7727 30.7245 86.791 30.7344C86.7712 30.7258 86.7572 30.7164 86.7397 30.7077C86.0369 33.0041 85.0371 35.1907 83.7283 37.2366C84.2177 37.0456 84.7246 36.9009 85.2386 36.8363C86.7608 36.6449 89.9622 37.8148 88.2586 39.8229C86.625 41.748 84.0845 39.6848 82.2319 39.4011C80.4335 41.8862 78.4509 44.268 76.3732 46.5702C76.5004 46.6096 76.612 46.6918 76.6759 46.8198C77.5092 46.4008 78.3776 45.8015 79.1486 45.639C80.2613 45.4048 82.5426 45.262 83.383 46.2479C84.4165 47.4601 83.3075 48.4458 82.0855 48.679C80.3135 49.0172 77.9947 48.161 76.2902 47.5826C76.0952 47.6168 75.8823 47.5605 75.7552 47.406C75.7175 47.3938 75.6799 47.3818 75.6432 47.3701C73.5392 49.6612 71.3548 51.8766 69.1837 54.0436C69.2068 54.0424 69.2299 54.041 69.254 54.0397C69.8202 53.6717 70.4275 53.3697 71.0858 53.2113C72.6084 52.843 74.3997 52.8403 75.6346 53.9307C76.8647 55.0165 77.2997 56.9163 76.0259 58.1368C73.4762 60.58 69.7242 55.0142 68.4389 54.7825C66.2325 56.9615 63.8997 58.9975 61.5303 60.9924C61.7993 60.9112 62.0752 60.8514 62.3603 60.8245C64.6828 60.6031 70.1327 63.4204 67.281 66.1964C64.796 68.6155 61.9236 63.9633 59.9228 62.3368C57.69 64.1962 55.4451 66.0429 53.2631 67.9615C54.4528 67.648 55.6024 67.6014 56.8774 67.9823C58.1966 68.3772 60.3252 69.3628 59.4902 71.1277C58.6409 72.9225 56.0847 72.1073 54.7533 71.5383C54.0272 71.228 52.5715 70.18 51.2932 69.739C47.8113 72.995 44.7949 76.581 42.5106 80.8046C41.0845 83.4418 40.0019 86.259 39.2394 89.1543C38.7527 91.0024 37.794 94.1063 37.9844 96.5112C37.0736 91.6977 38.7279 85.9152 40.509 81.6114C42.1467 77.6538 44.5964 74.1791 47.4653 71.051C46.7468 68.9079 40.6921 65.8195 44.3137 63.8262C46.2368 62.7723 48.2051 64.5185 48.6244 66.3687C48.9124 67.6401 48.4718 69.238 48.0044 70.4724C48.9069 69.5188 49.845 68.5959 50.8117 67.7036C52.1476 66.4703 53.5155 65.2728 54.8964 64.0904C52.6229 61.975 50.4733 55.9256 53.5236 54.9345C58.028 53.4751 55.8553 61.7294 55.5403 63.2764C55.4511 63.2817 55.3816 63.255 55.3305 63.1978C55.3557 63.3395 55.385 63.4909 55.4205 63.6437C58.0637 61.3923 60.7459 59.1852 63.3399 56.8801C63.1064 56.7092 62.7353 56.056 62.4437 55.7083C61.7854 54.9246 61.1556 54.1059 60.6954 53.189C59.9686 51.7399 59.2681 49.4283 61.1972 48.5747C63.2951 47.6448 64.2905 50.2591 64.3043 51.819C64.3137 52.8979 64.0166 53.9229 63.8615 54.9804C63.813 55.3103 63.9983 56.7968 63.545 56.1575C63.5662 56.3933 63.5692 56.5641 63.5586 56.6851C64.0243 56.2692 64.4864 55.8488 64.9456 55.4254C64.9244 55.372 64.9086 55.3137 64.9051 55.2461C64.8807 54.7811 65.3533 54.6017 65.6846 54.7378C66.2905 54.1674 66.8905 53.5899 67.4798 53.001C68.7288 51.7532 69.996 50.4697 71.2544 49.159C70.9816 48.927 71.0903 48.6054 70.8352 48.359C70.5806 48.1132 70.0788 47.9775 69.7794 47.7492C69.0261 47.1746 68.4017 46.3374 67.9502 45.5133C67.2048 44.1516 66.242 41.2949 68.4219 40.6446C70.6689 39.9733 71.8078 42.7231 71.9513 44.4426C71.9793 44.7757 71.7259 47.7775 71.5326 48.8676C73.8611 46.4317 76.1513 43.9044 78.2264 41.3333C77.5976 41.3279 75.8156 40.0529 75.4554 39.7049C74.5765 38.8561 73.1796 36.9804 74.7218 35.9866C76.093 35.1052 77.7819 36.38 78.3674 37.6194C78.4636 37.8235 78.8024 39.7234 78.8285 40.5759C79.6873 39.4856 80.5067 38.3889 81.269 37.2887C81.7774 36.5573 82.2525 35.8065 82.697 35.0399C82.5901 34.9799 82.4896 34.8753 82.3947 34.7452C80.1087 34.362 77.1958 30.8306 79.8817 29.6001C81.1605 29.0149 82.5465 30.2207 83.1722 31.2082C83.3004 31.4102 83.5077 32.4261 83.6765 33.2274C84.9556 30.6876 85.9335 27.9989 86.6781 25.2424C86.4791 25.1935 86.3106 25.043 86.2885 24.7841C85.1789 24.1579 84.3027 23.6365 83.5285 22.4317C83.0476 21.6834 82.1816 19.9736 83.5961 19.5574C85.437 19.0159 86.5917 21.7997 86.7416 23.1711C86.7591 23.3303 86.7582 23.7933 86.7519 24.2176C86.8158 24.209 86.8804 24.2099 86.9438 24.221C87.3674 22.5141 87.7057 20.7853 87.9749 19.0536C86.9705 18.7339 86.7994 13.5084 87.4687 12.764C88.9646 11.0972 90.0182 13.5033 89.9378 14.7753C89.8427 16.2752 89.1558 17.6398 88.3381 18.851C88.2504 18.9793 88.2754 18.9731 88.2528 18.7944C88.2402 18.8827 88.2104 18.9479 88.1661 18.9951C88.2079 19.7846 88.2896 20.5928 88.2498 21.2914C88.1356 23.292 87.8993 25.3044 87.5567 27.2794C87.4733 27.7597 87.3779 28.2361 87.271 28.7085C88.0788 28.0267 89.1678 27.4208 89.5939 27.2313C90.6998 26.7399 92.404 26.2091 93.5018 27.0401ZM37.8035 96.3213C37.8569 96.9642 38.0154 97.5509 38.3275 98.0315C38.0984 97.4821 37.9265 96.9099 37.8035 96.3213Z" fill="#C1DEE2"/>
<g opacity="0.7">
<path opacity="0.7" fill-rule="evenodd" clip-rule="evenodd" d="M212.152 140.459C218.075 140.152 225.399 143.609 226.031 150.047C226.49 154.725 226.347 159.389 227.058 164.06C227.626 167.793 228.827 171.376 230.465 174.776C232.041 178.046 235.308 180.829 236.158 184.323C236.7 186.548 236.397 189.679 235.65 191.856C234.741 194.503 235.224 194.294 237.034 196.515C240.582 200.868 243.776 205.331 246.034 210.53C249.288 218.018 251.421 226.77 250.214 234.967C250.06 236.007 249.878 239.743 248.445 240.004C246.844 240.296 247.592 238.159 247.678 237.469C248.222 233.066 248.706 229.218 248.049 224.746C245.515 207.493 233.138 196.125 225.08 181.482C224.637 180.727 223.702 178.928 223.051 177.742C222.025 175.869 220.993 172.305 219.603 170.917C216.985 168.3 219.392 173.56 219.902 174.564C220.547 175.834 221.256 177.184 221.917 178.297C224.94 183.456 228.315 189.087 231.438 194.405C217.933 197.483 208.421 181.245 204.797 170.57C201.811 161.775 198.239 141.211 212.152 140.459Z" fill="#69A1AC"/>
<path opacity="0.7" fill-rule="evenodd" clip-rule="evenodd" d="M291.528 124.126C281.628 124.912 275.272 131.445 272.313 140.583C270.719 145.507 270.536 150.566 269.65 155.627C268.317 163.241 265.449 169.011 259.844 174.435C258.107 176.115 256.828 177.84 255.919 179.686C254.113 181.528 252.542 183.613 251.387 186.162C249.912 189.418 249.495 193.324 251.198 196.569C251.655 197.442 252.798 199.194 253.981 199.989C249.549 209.429 247.112 219.768 247.387 230.094C247.553 236.327 247.857 242.562 248.212 248.788C248.308 250.459 248.852 253.22 249.67 250.416C250.418 247.852 249.48 243.827 249.393 241.148C248.97 228.098 248.609 216.233 253.981 204.041C254.544 202.763 255.141 201.495 255.763 200.238C255.8 200.216 255.834 200.191 255.868 200.166C255.892 200.184 255.913 200.204 255.937 200.222C255.977 200.151 256.031 200.067 256.094 199.973C256.273 199.788 256.429 199.556 256.577 199.296C257.053 198.636 257.592 197.86 257.595 197.435C257.595 197.432 257.593 197.427 257.593 197.424C260.919 191.995 264.727 186.866 268.617 181.837C268.588 181.873 272.837 176.088 272.18 179.287C271.864 180.829 268.738 183.766 267.476 185.399C264.684 189.032 261.405 193.636 258.68 198.088C258.314 198.299 257.795 199.333 257.421 200.104C257.214 200.494 257.021 200.888 256.831 201.231C266.486 204.421 273.996 197.995 279.117 190.521C279.124 190.512 279.129 190.503 279.135 190.495C280.693 188.429 282.29 186.379 284.284 184.746C287.612 182.022 291.175 181.541 295.098 180.201C305.797 176.545 310.346 162.678 311.79 152.389C313.42 140.781 305.447 122.981 291.528 124.126Z" fill="#89C5CC"/>
<path opacity="0.7" fill-rule="evenodd" clip-rule="evenodd" d="M271.972 91.6194C261.811 102.196 256.902 116.865 253.015 130.655C248.673 146.058 245.806 161.698 245.696 177.712C245.624 188.234 245.338 198.821 245.952 209.33C246.169 213.062 246.541 216.801 247.133 220.493C247.182 220.797 248.505 229.041 249.771 227.12C250.492 226.027 248.415 218.568 248.258 217.325C247.375 210.327 247.17 203.278 247.213 196.229C247.284 184.624 246.942 173.079 248.118 161.517C248.293 159.79 248.432 157.977 248.842 156.288C249.277 154.493 248.723 155.277 250.141 154.566C251.519 153.875 253.221 153.974 254.651 153.107C260.322 149.668 263.222 140.834 265.48 135.039C268.063 128.411 269.632 121.343 270.886 114.368C271.806 109.244 272.464 104.15 272.836 98.9595C272.954 97.3236 272.961 95.6129 273.282 94.0044C273.369 93.5705 273.803 92.8029 273.788 92.4187C273.754 91.6055 273.263 91.1272 273.223 90.4438C272.798 90.8266 272.38 91.2188 271.972 91.6194Z" fill="#89C5CC"/>
</g>
<g opacity="0.5">
<path opacity="0.5" fill-rule="evenodd" clip-rule="evenodd" d="M77.8535 82.6193C79.6764 80.0198 83.0592 73.418 85.6249 72.4891C87.2774 71.8908 86.7956 78.0796 86.816 79.2596C86.8955 83.8251 86.451 88.3616 85.9022 92.8887C84.9135 101.053 81.6803 108.325 77.2458 115.273C74.9638 118.849 72.2873 122.468 68.5803 124.699C66.8739 125.727 64.8207 125.899 63.1355 126.784C61.1729 127.814 62.2417 126.981 61.3573 129.027C60.129 131.866 59.7361 135.53 59.1678 138.56C56.5584 152.469 50.2411 225.998 51.3363 240.146C51.4335 241.401 49.6851 241.7 49.5978 240.169C49.1339 232.052 53.1484 175.838 55.1738 157.455C57.1992 139.071 59.2488 122.83 61.3039 116.47C63.7971 108.754 68.2999 99.4748 72.0482 92.2791C73.7893 88.9362 75.687 85.7084 77.8535 82.6193Z" fill="#69A1AC"/>
<path opacity="0.5" fill-rule="evenodd" clip-rule="evenodd" d="M11.8482 40.2223C21.8469 57.5641 30.0634 76.6137 35.3688 95.908C38.5833 107.598 40.8313 119.594 43.0648 131.503C46.5231 149.943 49.7942 168.382 50.7247 187.149C51.6608 206.025 53.5119 227.797 47.3315 245.978C50.4186 227.519 47.4795 207.872 46.959 189.299C46.7104 180.432 45.9897 171.652 45.0443 162.838C44.1269 154.287 42.6282 145.777 41.2325 137.294C40.5527 133.162 39.8386 129.037 39.1117 124.914C38.8947 123.683 38.803 120.033 38.0227 119.193C37.2374 118.347 33.2307 118.002 31.9727 117.381C29.4397 116.131 27.057 114.356 24.9483 112.479C20.9058 108.883 17.389 104.183 14.6133 99.5505C8.1911 88.8312 5.62349 75.7499 5.75326 63.3356C5.7782 60.9253 9.65412 34.9704 8.09749 34.613C8.19121 34.5032 8.27987 34.3899 8.36346 34.272C9.54197 36.2453 10.6984 38.2321 11.8482 40.2223Z" fill="#89C5CC"/>
<path opacity="0.5" fill-rule="evenodd" clip-rule="evenodd" d="M119.767 102.767C119.921 102.545 120.925 100.997 120.42 101.096C121.449 100.894 119.004 102.803 121.569 101.632C120.351 102.782 121.054 104.277 121.07 105.825C121.097 108.339 120.676 110.832 120.203 113.291C119.455 117.18 118.34 120.96 116.723 124.576C113.197 132.457 107.211 140.044 100.105 144.971C96.5961 147.404 93.1577 148.232 89.1564 149.352C86.629 150.06 86.4285 151.367 85.087 153.82C82.294 158.929 79.5507 164.019 77.0875 169.3C74.1463 175.606 71.291 181.919 68.5977 188.336C59.5245 209.952 52.1397 232.346 48.2615 255.522C48.1665 241.865 51.3257 227.799 55.3106 214.781C58.2134 205.296 61.9923 196.154 66.0228 187.103C66.9995 184.911 68.4796 182.091 68.8943 179.67C69.1848 177.974 68.2969 176.343 67.8903 174.556C66.3055 167.599 66.4189 159.804 67.8106 152.81C69.3452 145.097 73.7829 141.517 81.2899 140.425C84.0354 140.025 87.5249 140.171 90.0424 139.001C92.7851 137.726 93.9166 133.535 95.4762 130.845C99.6653 123.619 104.642 116.689 110.358 110.601C111.94 108.915 113.642 107.36 115.448 105.918C116.586 105.008 118.991 103.888 119.767 102.767Z" fill="#89C5CC"/>
</g>
<path fill-rule="evenodd" clip-rule="evenodd" d="M298.827 53.7191C297.533 49.402 294.495 46.0231 291.341 42.9272C285.201 36.9002 281.898 33.1737 279.71 24.3572C278.423 19.1721 277.113 13.6773 273.031 9.91545C270.059 7.17595 264.943 4.87428 260.969 6.83598C254.854 10.4862 253.211 17.977 253.828 24.6845C254.592 32.9981 258.475 38.1242 265.935 41.1863C270.138 42.9108 272.932 45.1864 275.214 49.1515C277.039 52.3221 278.103 56.2924 280.397 59.1667C283.826 63.4633 288.116 65.3734 293.405 64.6597C288.452 55.5444 282.664 46.3435 275.683 38.6689C275.029 37.8973 271.175 34.9441 271.952 33.6291C272.809 32.1812 276.765 37.62 276.737 37.5872C278.766 39.9162 280.643 42.3911 282.487 44.8897C282.482 44.8922 282.477 44.8935 282.472 44.8961C284.37 47.46 286.252 50.0617 288.099 52.6961C288.846 53.8104 289.573 54.939 290.269 56.0959C291.291 57.7934 292.912 62.6114 294.583 63.6552C294.941 63.8784 295.271 64.0031 295.58 64.0546C296.721 65.9219 297.83 67.8042 298.886 69.7088C301.642 74.683 304.007 79.935 305.093 85.551C305.409 87.19 305.185 93.3215 306.304 94.5047C308.349 96.6691 307.75 92.5012 307.628 91.2432C306.612 80.8256 302.872 71.9503 297.443 63.1922C299.111 61.0135 299.351 55.4683 298.827 53.7191Z" fill="#E1E9D9"/>
<path fill-rule="evenodd" clip-rule="evenodd" d="M228.77 58.7526C230.927 56.2116 236.11 55.7805 239.281 55.9506C243.204 56.161 247.233 57.1161 250.966 58.271C257.114 60.1732 263.088 63.6445 268.503 67.0043C269.155 67.4092 277.195 72.2443 276.483 73.0928C275.778 73.9335 267.886 68.1901 266.127 67.2002C262.374 65.0873 258.932 62.5884 254.794 61.1931C250.511 59.748 245.98 59.1758 241.475 59.2153C240.897 59.2204 239.011 58.8173 238.971 59.6727C238.931 60.5093 242.051 60.0728 242.602 60.0778C244.874 60.0987 247.161 60.3126 249.401 60.7065C253.599 61.4444 257.545 62.9309 261.14 65.211C260.137 67.5436 257.732 68.6191 255.21 68.0354C253.029 67.5306 250.904 66.2862 248.769 65.9264C247.299 65.6786 245.827 65.826 244.401 66.2403C240.64 67.3334 238.471 69.5727 234.336 68.015C231.094 66.7939 225.673 62.4069 228.77 58.7526Z" fill="#D9DFD1"/>
<path fill-rule="evenodd" clip-rule="evenodd" d="M231.209 34.7059H232.229C232.158 33.4111 232.065 32.1184 231.846 30.8381C231.026 26.0391 228.462 18.9906 222.838 18.2116C222.63 18.1826 221.867 18.1777 220.943 18.2314C220.505 17.9891 220.014 17.8427 219.497 17.809C214.709 17.4597 209.361 21.2815 207.052 25.2586C205.19 28.4652 205.503 32.6758 206.654 36.0825C207.424 38.3633 209.104 41.6151 211.907 41.6468C215.414 41.6864 215.583 37.3984 215.651 34.8916C215.741 31.559 216.167 28.6558 218.821 26.3841C219.44 25.8549 220.116 25.3893 220.741 24.8675C221.719 24.0506 222.8 23.2143 222.926 21.863C223.1 19.9986 222.037 19.6631 220.413 20.0095C220.136 20.0684 217.347 21.3065 217.76 20.3279C217.886 20.029 218.346 19.7921 218.928 19.6146C220.431 19.4528 222.225 19.2651 222.741 19.3773C228.305 20.585 230.471 28.2106 231.047 33.0555C231.112 33.6041 231.164 34.1545 231.209 34.7059H231.209Z" fill="#F2F2F2"/>
</svg>
