<svg width="49" height="27" viewBox="0 0 49 27" fill="none" xmlns="http://www.w3.org/2000/svg">
<rect width="49" height="27" rx="4" fill="#04AA41"/>
<path d="M17 13.788C17 11.28 15.104 9.504 12.716 9.504C10.352 9.504 8.42 11.28 8.42 13.788C8.42 16.308 10.352 18.084 12.716 18.084C15.092 18.084 17 16.308 17 13.788ZM10.148 13.788C10.148 12.084 11.192 11.016 12.716 11.016C14.228 11.016 15.272 12.084 15.272 13.788C15.272 15.492 14.228 16.584 12.716 16.584C11.192 16.584 10.148 15.492 10.148 13.788ZM20.1699 13.428V10.992H21.5019C22.4499 10.992 22.8699 11.448 22.8699 12.216C22.8699 12.96 22.4499 13.428 21.5019 13.428H20.1699ZM24.5979 12.216C24.5979 10.764 23.5899 9.624 21.5739 9.624H18.4899V18H20.1699V14.784H21.5739C23.7339 14.784 24.5979 13.488 24.5979 12.216ZM30.8907 9.612H26.0307V18H30.8907V16.632H27.7107V14.412H30.5307V13.08H27.7107V10.98H30.8907V9.612ZM38.1414 9.612V15.372L34.3374 9.612H32.6574V18H34.3374V12.252L38.1414 18H39.8214V9.612H38.1414Z" fill="white"/>
</svg>
