<svg width="130" height="27" viewBox="0 0 130 27" fill="none" xmlns="http://www.w3.org/2000/svg">
<rect x="0.5" width="129" height="27" rx="4" fill="#4299E1"/>
<path d="M15.436 12.216C15.436 12.664 15.328 13.084 15.112 13.476C14.904 13.868 14.572 14.184 14.116 14.424C13.668 14.664 13.1 14.784 12.412 14.784H11.008V18H9.328V9.624H12.412C13.06 9.624 13.612 9.736 14.068 9.96C14.524 10.184 14.864 10.492 15.088 10.884C15.32 11.276 15.436 11.72 15.436 12.216ZM12.34 13.428C12.804 13.428 13.148 13.324 13.372 13.116C13.596 12.9 13.708 12.6 13.708 12.216C13.708 11.4 13.252 10.992 12.34 10.992H11.008V13.428H12.34ZM18.5488 10.98V13.08H21.3688V14.412H18.5488V16.632H21.7288V18H16.8688V9.612H21.7288V10.98H18.5488ZM25.1755 16.668H27.9355V18H23.4955V9.624H25.1755V16.668ZM34.3793 16.404H31.0433L30.4913 18H28.7273L31.7393 9.612H33.6953L36.7073 18H34.9313L34.3793 16.404ZM33.9233 15.06L32.7113 11.556L31.4993 15.06H33.9233ZM43.7732 9.624V10.98H41.5412V18H39.8612V10.98H37.6292V9.624H43.7732ZM46.9189 9.624V18H45.2389V9.624H46.9189ZM55.7668 9.624V18H54.0868V14.436H50.4988V18H48.8188V9.624H50.4988V13.068H54.0868V9.624H55.7668ZM62.7963 16.404H59.4603L58.9083 18H57.1443L60.1563 9.612H62.1123L65.1243 18H63.3483L62.7963 16.404ZM62.3403 15.06L61.1283 11.556L59.9163 15.06H62.3403ZM73.6542 18H71.9742L68.1702 12.252V18H66.4902V9.612H68.1702L71.9742 15.372V9.612H73.6542V18ZM82.5418 18.084C81.7578 18.084 81.0378 17.9 80.3818 17.532C79.7258 17.164 79.2058 16.656 78.8218 16.008C78.4378 15.352 78.2458 14.612 78.2458 13.788C78.2458 12.972 78.4378 12.24 78.8218 11.592C79.2058 10.936 79.7258 10.424 80.3818 10.056C81.0378 9.688 81.7578 9.504 82.5418 9.504C83.3338 9.504 84.0538 9.688 84.7018 10.056C85.3578 10.424 85.8738 10.936 86.2498 11.592C86.6338 12.24 86.8258 12.972 86.8258 13.788C86.8258 14.612 86.6338 15.352 86.2498 16.008C85.8738 16.656 85.3578 17.164 84.7018 17.532C84.0458 17.9 83.3258 18.084 82.5418 18.084ZM82.5418 16.584C83.0458 16.584 83.4898 16.472 83.8738 16.248C84.2578 16.016 84.5578 15.688 84.7738 15.264C84.9898 14.84 85.0978 14.348 85.0978 13.788C85.0978 13.228 84.9898 12.74 84.7738 12.324C84.5578 11.9 84.2578 11.576 83.8738 11.352C83.4898 11.128 83.0458 11.016 82.5418 11.016C82.0378 11.016 81.5898 11.128 81.1978 11.352C80.8138 11.576 80.5138 11.9 80.2978 12.324C80.0818 12.74 79.9738 13.228 79.9738 13.788C79.9738 14.348 80.0818 14.84 80.2978 15.264C80.5138 15.688 80.8138 16.016 81.1978 16.248C81.5898 16.472 82.0378 16.584 82.5418 16.584ZM95.4797 18H93.7997L89.9957 12.252V18H88.3157V9.612H89.9957L93.7997 15.372V9.612H95.4797V18ZM99.0599 16.668H101.82V18H97.3799V9.624H99.0599V16.668ZM104.808 9.624V18H103.128V9.624H104.808ZM113.872 18H112.192L108.388 12.252V18H106.708V9.612H108.388L112.192 15.372V9.612H113.872V18ZM117.452 10.98V13.08H120.272V14.412H117.452V16.632H120.632V18H115.772V9.612H120.632V10.98H117.452Z" fill="white"/>
</svg>
