<svg width="126" height="26" viewBox="0 0 126 26" fill="none" xmlns="http://www.w3.org/2000/svg">
<rect width="126" height="26" rx="5" fill="#4299E1"/>
<path d="M10.508 12.428V9.992H11.84C12.788 9.992 13.208 10.448 13.208 11.216C13.208 11.96 12.788 12.428 11.84 12.428H10.508ZM14.936 11.216C14.936 9.764 13.928 8.624 11.912 8.624H8.828V17H10.508V13.784H11.912C14.072 13.784 14.936 12.488 14.936 11.216ZM20.9888 8.612H16.1288V17H20.9888V15.632H17.8088V13.412H20.6288V12.08H17.8088V9.98H20.9888V8.612ZM22.5155 8.624V17H26.9555V15.668H24.1955V8.624H22.5155ZM33.7113 17H35.4873L32.4753 8.612H30.5193L27.5073 17H29.2713L29.8233 15.404H33.1593L33.7113 17ZM32.7033 14.06H30.2793L31.4913 10.556L32.7033 14.06ZM36.1692 9.98H38.4012V17H40.0812V9.98H42.3132V8.624H36.1692V9.98ZM43.5389 17H45.2189V8.624H43.5389V17ZM52.1468 17H53.8268V8.624H52.1468V12.068H48.5588V8.624H46.8788V17H48.5588V13.436H52.1468V17ZM61.1683 17H62.9443L59.9323 8.612H57.9763L54.9643 17H56.7283L57.2803 15.404H60.6163L61.1683 17ZM60.1603 14.06H57.7363L58.9483 10.556L60.1603 14.06ZM69.5542 8.612V14.372L65.7502 8.612H64.0702V17H65.7502V11.252L69.5542 17H71.2342V8.612H69.5542ZM83.9258 12.788C83.9258 10.28 82.0298 8.504 79.6418 8.504C77.2778 8.504 75.3458 10.28 75.3458 12.788C75.3458 15.308 77.2778 17.084 79.6418 17.084C82.0178 17.084 83.9258 15.308 83.9258 12.788ZM77.0738 12.788C77.0738 11.084 78.1178 10.016 79.6418 10.016C81.1538 10.016 82.1978 11.084 82.1978 12.788C82.1978 14.492 81.1538 15.584 79.6418 15.584C78.1178 15.584 77.0738 14.492 77.0738 12.788ZM90.6597 8.612V14.372L86.8557 8.612H85.1757V17H86.8557V11.252L90.6597 17H92.3397V8.612H90.6597ZM93.9999 8.624V17H98.4399V15.668H95.6799V8.624H93.9999ZM99.5077 17H101.188V8.624H99.5077V17ZM108.332 8.612V14.372L104.528 8.612H102.848V17H104.528V11.252L108.332 17H110.012V8.612H108.332ZM116.532 8.612H111.672V17H116.532V15.632H113.352V13.412H116.172V12.08H113.352V9.98H116.532V8.612Z" fill="white"/>
</svg>
