<svg width="665" height="401" viewBox="0 0 665 401" fill="none" xmlns="http://www.w3.org/2000/svg">
<g opacity="0.8">
<path d="M663.567 401H-0.528544C-0.918076 401 -1.25195 400.611 -1.25195 400.158V399.769C-1.25195 399.315 -0.918076 398.926 -0.528544 398.926H663.567C663.957 398.926 664.291 399.315 664.291 399.769V400.158C664.291 400.644 663.957 401 663.567 401Z" fill="#010117"/>
<path d="M241.889 345.917C241.889 345.917 233.53 336.197 241.371 330.008C241.371 330.008 247.106 326.541 251.74 326.833C251.74 326.833 245.13 337.914 247.268 339.016C249.407 340.118 253.748 326.152 253.748 326.152C253.748 326.152 266.774 324.889 270.954 326.898C270.954 326.898 259.84 336.003 262.173 336.553C264.506 337.104 276.527 328.161 276.527 328.161C276.527 328.161 288.645 330.235 287.997 337.623C287.349 345.01 283.169 347.311 281.354 347.084C279.508 346.889 268.783 342.774 268.556 344.297C268.329 345.82 274.777 350.713 279.313 350.94C279.313 350.94 270.759 360.368 265.089 357.647C259.419 354.925 258.933 350.616 255.401 348.996C251.869 347.375 248.856 347.376 250.314 349.028C251.772 350.68 258.187 352.268 260.196 355.865C262.205 359.429 264.02 361.859 258.155 360.984C252.29 360.109 242.732 355.8 242.311 350.875C241.889 345.917 241.889 345.917 241.889 345.917Z" fill="#6D89CF"/>
<path d="M282.067 337.785C282.067 337.785 249.179 336.521 241.889 345.918C241.889 345.918 240.269 350.745 235.344 355.12L234.566 357.226C234.566 357.226 240.269 351.199 242.31 350.843C242.31 350.843 239.135 339.178 282.067 337.785Z" fill="#6D89CF"/>
<path d="M235.344 355.12C235.344 355.12 228.281 360.336 227.795 369.668L229.091 369.798C229.091 369.798 231.359 360.142 235.409 356.383C239.492 352.592 235.344 355.12 235.344 355.12Z" fill="#6D89CF"/>
<path d="M212.728 333.67C212.728 333.67 226.012 326.25 219.824 316.14C219.824 316.14 214.866 309.952 209.552 308.364C209.552 308.364 212.371 323.398 209.552 323.755C206.733 324.111 207.608 306.776 207.608 306.776C207.608 306.776 193.611 300.037 188.135 300.588C188.135 300.588 196.819 315.266 193.967 314.909C191.148 314.553 181.396 299.68 181.396 299.68C181.396 299.68 167.074 297.023 164.774 305.513C162.473 314.002 166.199 318.246 168.305 318.797C170.444 319.316 184.052 319.154 183.696 320.936C183.34 322.718 174.138 325.537 169.018 323.949C169.018 323.949 174.688 337.947 182.108 337.234C189.528 336.521 191.829 331.92 196.43 331.563C201.031 331.207 204.401 332.438 202.1 333.702C199.8 334.933 192.023 334.123 188.297 337.266C184.571 340.441 181.558 342.386 188.459 343.779C195.361 345.204 207.738 344.297 210.233 339.016C212.728 333.67 212.728 333.67 212.728 333.67Z" fill="#93B3F4"/>
<path d="M171.318 308.202C171.318 308.202 208.483 320.223 212.727 333.702C212.727 333.702 212.565 339.729 216.259 346.63V349.287C216.259 349.287 212.371 340.247 210.233 339.016C210.233 338.984 218.56 327.319 171.318 308.202Z" fill="#6D89CF"/>
<path d="M216.26 346.598C216.26 346.598 221.995 355.314 218.723 365.909L217.232 365.521C217.232 365.521 218.658 353.856 215.677 347.991C212.696 342.094 216.26 346.598 216.26 346.598Z" fill="#6D89CF"/>
<path d="M233.854 323.431C233.854 323.431 216.357 313.645 224.523 300.328C224.523 300.328 231.068 292.163 238.066 290.057C238.066 290.057 234.34 309.887 238.066 310.341C241.793 310.794 240.626 287.951 240.626 287.951C240.626 287.951 259.063 279.073 266.288 279.786C266.288 279.786 254.85 299.162 258.577 298.676C262.303 298.222 275.134 278.619 275.134 278.619C275.134 278.619 294.024 275.12 297.069 286.331C300.115 297.542 295.19 303.115 292.404 303.828C289.617 304.541 271.634 304.281 272.12 306.614C272.574 308.947 284.725 312.673 291.496 310.567C291.496 310.567 284.044 329.004 274.226 328.064C264.441 327.124 261.395 321.065 255.336 320.612C249.277 320.158 244.838 321.778 247.884 323.398C250.93 325.018 261.169 323.949 266.094 328.097C270.986 332.276 274.972 334.836 265.867 336.683C256.762 338.53 240.432 337.396 237.159 330.397C233.854 323.431 233.854 323.431 233.854 323.431Z" fill="#93B3F4"/>
<path d="M288.45 289.831C288.45 289.831 239.459 305.707 233.853 323.431C233.853 323.431 234.08 331.369 229.188 340.474V343.973C229.188 343.973 234.307 332.082 237.126 330.43C237.126 330.43 226.142 315.039 288.45 289.831Z" fill="#6D89CF"/>
<path d="M229.188 340.474C229.188 340.474 221.639 351.944 225.948 365.909L227.892 365.391C227.892 365.391 226.013 350 229.966 342.256C233.919 334.512 229.188 340.474 229.188 340.474Z" fill="#6D89CF"/>
<path d="M233.271 396.205C252.194 396.205 267.552 380.846 267.552 361.924H198.99C198.99 380.846 214.316 396.205 233.271 396.205Z" fill="#ED6966"/>
<path d="M241.695 395.945C240.302 396.107 238.876 396.205 237.451 396.205C218.528 396.205 203.17 380.846 203.17 361.924H211.691C211.659 379.388 224.782 393.839 241.695 395.945Z" fill="#EA8888"/>
<path d="M268.005 397.922H198.504C198.504 395.589 200.383 393.677 202.748 393.677H263.793C266.126 393.71 268.005 395.589 268.005 397.922Z" fill="#ED6966"/>
<path d="M268.329 361.924H197.855V362.961H268.329V361.924Z" fill="#E75755"/>
<path d="M530.893 381.591C530.893 381.591 529.889 397.663 526.778 397.922C526.357 397.954 510.999 397.954 510.999 397.954L491.363 397.825C491.363 397.825 491.493 393.094 497.228 392.09C502.963 391.085 512.554 387.067 516.021 379.485C519.715 371.515 530.893 381.591 530.893 381.591Z" fill="#0B0754"/>
<path d="M541.36 191.362C541.36 191.362 532.093 196.644 529.501 196.644C526.909 196.644 516.735 194.667 513.884 196.125C511.032 197.583 505.913 203.416 504.941 205.327C503.223 208.762 511.907 207.239 516.022 204.323C516.605 203.902 517.35 203.74 518.063 203.902C520.202 204.355 524.608 205.165 526.747 204.388C529.631 203.318 544.762 202.152 544.762 202.152L541.36 191.362Z" fill="#EA8888"/>
<path d="M611.833 119.626C611.833 119.626 602.242 187.863 586.333 193.987C578.492 197 543.823 203.837 533.551 204.517C533.551 204.517 531.024 202.476 531.64 194.181C531.64 194.181 567.962 180.832 573.114 173.606C580.793 162.817 568.35 129.508 577.974 119.366C587.662 109.225 603.863 104.85 611.833 119.626Z" fill="#E75755"/>
<path d="M608.592 263.391C605.805 268.154 602.565 272.593 599.227 276.805C588.891 289.831 577.68 300.588 575.704 310.729C575.315 312.738 574.7 314.942 573.889 317.242C573.079 319.575 572.075 322.005 570.909 324.533C566.534 334.059 559.989 344.719 553.444 354.407C542.136 371.158 532.902 382.402 532.902 382.402C532.902 382.402 529.953 384.702 521.464 384.702C519.099 384.702 511.16 383.406 511.16 383.406C511.938 381.462 521.302 359.202 532.675 330.948C537.308 319.478 542.201 307.263 546.931 295.501C547.547 293.946 548.195 292.358 548.811 290.803C550.269 287.206 551.694 283.642 553.088 280.207C563.78 253.67 572.269 232.545 572.269 232.545C572.269 232.545 614.942 216.376 619.381 226.842C623.043 235.493 620.062 243.95 608.592 263.391Z" fill="#3662C1"/>
<path d="M576.03 335.614C576.03 335.614 589.573 344.33 588.277 347.149C588.115 347.538 580.598 360.952 580.598 360.952L570.943 378.027C570.943 378.027 566.892 375.597 568.804 370.121C570.716 364.646 571.882 354.277 566.957 347.537C561.773 340.474 576.03 335.614 576.03 335.614Z" fill="#0B0754"/>
<path d="M568.317 352.333C568.317 352.333 577.875 343.455 579.365 337.979C579.365 337.979 544.437 296.149 536.887 286.785C536.531 286.364 536.628 285.878 537.081 285.359C542.784 278.911 606.323 265.821 614.618 252.893C617.47 248.454 619.09 244.209 619.997 240.515C621.876 232.642 620.386 227.198 620.386 227.198L556.944 225.352C556.944 225.352 504.129 258.239 498.135 280.661C492.141 303.083 568.317 352.333 568.317 352.333Z" fill="#6D89CF"/>
<path d="M537.082 285.359C542.785 278.911 606.324 265.821 614.619 252.893C617.47 248.454 619.09 244.209 619.997 240.516V232.48L593.039 228.235C593.039 228.235 585.393 251.759 562.744 260.604C541.521 268.867 537.503 283.512 537.082 285.359Z" fill="#3662C1"/>
<path d="M574.279 115.316C587.11 118.621 608.398 106.73 608.398 106.73C608.398 106.73 600.136 101.189 597.09 88.9737C596.928 88.3581 596.798 87.7425 596.669 87.0945C595.34 86.8028 592.781 86.2844 590.091 85.7012L580.274 94.482C580.274 94.482 580.5 98.1433 581.732 104.397C581.958 105.498 582.185 106.665 582.477 107.929C577.195 111.169 574.279 115.316 574.279 115.316Z" fill="#FDB3B1"/>
<path d="M622.006 168.519C620.159 193.242 622.589 230.86 620.515 237.372C618.701 242.978 598.223 239.64 590.026 237.761C586.98 237.081 583.318 236.076 579.527 234.91C568.965 231.637 557.43 226.971 556.198 223.505C556.166 223.375 556.101 223.245 556.069 223.116C555.939 222.597 555.972 222.144 556.101 221.658C556.522 219.876 558.11 217.964 558.272 213.59C558.467 208.697 558.434 202.93 558.629 196.741C558.629 196.028 558.661 195.283 558.726 194.602V194.343C558.726 194.214 558.726 194.084 558.726 193.954C558.888 187.053 559.277 179.795 559.698 172.602C559.957 168.066 560.281 163.594 560.637 159.317C561.545 148.236 562.808 138.386 564.461 132.165C567.15 122.023 573.08 115.381 578.458 110.553L582.346 107.216C586.688 108.155 591.84 107.54 596.506 105.336C601.561 102.939 603.278 101.221 604.153 101.869C615.785 110.78 624.177 138.289 622.006 168.519Z" fill="#ED6966"/>
<path d="M579.496 234.91C568.933 231.638 557.398 226.972 556.167 223.505C556.134 223.375 556.07 223.246 556.037 223.116C556.037 222.63 556.037 222.144 556.07 221.658C556.491 219.876 558.078 217.964 558.24 213.59C558.435 208.697 558.402 202.93 558.597 196.741C558.597 196.028 558.629 195.283 558.694 194.603V194.344C558.694 194.214 558.694 194.084 558.694 193.955L601.432 139.488C601.464 139.488 630.204 199.301 579.496 234.91Z" fill="#E75755"/>
<path d="M580.273 94.482C580.273 94.482 580.5 98.1433 581.732 104.397C591.29 101.319 595.632 92.6675 597.09 88.9737C596.928 88.3581 596.798 87.7425 596.669 87.0945C595.34 86.8028 592.78 86.2844 590.091 85.7012L580.273 94.482Z" fill="#EA8888"/>
<path d="M578.977 100.022C578.977 100.022 599.844 96.5231 597.479 83.5625C595.113 70.6019 596.215 61.3999 582.768 63.0847C569.354 64.7696 567.669 70.1807 567.41 74.7169C567.151 79.2207 573.469 100.573 578.977 100.022Z" fill="#FDB3B1"/>
<path d="M548.066 207.239L495.965 208.373L481.125 162.752L479.311 163.368L494.96 211.581L548.131 210.447L548.066 207.239Z" fill="#E75755"/>
<path d="M547.061 212.974C547.061 212.974 529.985 217.478 523.57 216.992C517.154 216.506 511.841 213.46 511.03 211.873C510.22 210.285 508.536 207.466 512.877 207.984C517.252 208.503 523.181 209.442 523.375 208.6C523.57 207.758 519.811 207.855 519.811 207.855C519.811 207.855 518.677 206.202 520.103 206.137C521.529 206.073 525.676 204.939 527.231 205.716C528.786 206.494 530.212 209.345 531.314 209.216C532.448 209.086 545.603 203.286 545.603 203.286L547.061 212.974Z" fill="#FDB3B1"/>
<path d="M607.588 122.412C607.588 122.412 605.579 191.297 590.448 199.139C582.995 202.994 549.265 213.622 539.156 215.437C539.156 215.437 536.434 213.687 536.143 205.36C536.143 205.36 570.78 188.09 575.122 180.313C581.569 168.746 565.531 137.025 573.988 125.879C582.412 114.765 598.062 108.641 607.588 122.412Z" fill="#ED6966"/>
<path d="M597.089 89.006C597.089 89.006 597.316 84.567 594.594 82.0073C594.594 82.0073 595.566 77.5359 593.784 76.8231C592.035 76.0779 591.646 79.8364 590.836 79.2532C590.026 78.67 586.429 75.8834 584.874 71.7684C583.319 67.6534 569.192 72.6433 567.539 73.3885C565.887 74.1337 560.605 71.412 559.568 69.2087C559.568 69.2087 562.517 66.8434 563.845 65.0937C565.174 63.3441 574.441 51.4203 587.369 54.7901C600.297 58.1598 602.079 64.3485 601.334 69.6299C600.589 74.879 602.371 87.224 597.089 89.006Z" fill="#232065"/>
<path d="M660.241 396.075C652.076 387.748 637.722 382.013 621.132 381.332V353.791H646.762C647.41 353.791 647.961 353.24 648.317 352.398C648.576 351.814 648.706 351.069 648.706 350.259V349.028C648.706 347.084 647.831 345.464 646.729 345.464H621.1V279.883C621.1 278.069 619.609 276.578 617.795 276.578C615.98 276.578 614.49 278.069 614.49 279.883V345.464H588.86C587.791 345.464 586.884 347.051 586.884 349.028V350.259C586.884 351.102 587.046 351.847 587.305 352.462C587.661 353.272 588.212 353.823 588.828 353.823H614.458V381.365C597.868 382.045 583.514 387.78 575.349 396.107C574.766 396.723 574.215 397.339 573.664 397.954H661.828C661.375 397.306 660.824 396.69 660.241 396.075Z" fill="#FC9290"/>
<path d="M621.132 381.462C609.564 382.531 599.617 388.137 593.85 396.075C593.396 396.691 593.007 397.306 592.618 397.922H584.453C584.842 397.306 585.263 396.691 585.684 396.075C592.1 387.197 603.764 381.268 617.049 381.268C618.41 381.268 619.771 381.332 621.132 381.462Z" fill="#FDACAB"/>
<path d="M660.338 254.513H573.049C570.878 254.513 569.096 256.295 569.096 258.466V275.023C569.096 277.194 570.878 278.976 573.049 278.976H660.338C662.509 278.976 664.291 277.194 664.291 275.023V258.466C664.291 256.295 662.509 254.513 660.338 254.513Z" fill="#E75755"/>
<path d="M197.134 128.633C195.676 132.553 193.149 137.122 190.459 138.288C187.446 139.584 186.182 141.399 186.182 141.399L183.752 139.973L180.836 138.288C180.836 138.288 180.901 137.964 181.063 137.446C181.192 136.927 181.419 136.182 181.711 135.372C181.711 135.372 182.618 134.238 182.067 132.78C181.516 131.354 181.614 129.119 182.553 127.758C183.493 126.397 184.4 123.06 184.951 123.157C186.312 123.384 184.271 127.985 184.854 128.827C185.372 129.605 186.053 129.345 186.15 129.281C186.15 129.281 186.15 129.281 186.182 129.281C190.006 127.596 194.639 118.556 196.68 119.755C197.458 120.208 197.75 126.948 197.134 128.633Z" fill="#FDB3B1"/>
<path d="M183.915 134.109L188.71 137.478C189.034 137.705 189.52 137.64 189.747 137.284L201.995 119.852C202.221 119.528 202.157 119.042 201.8 118.815L197.005 115.445C196.681 115.218 196.195 115.283 195.968 115.64L183.72 133.072C183.493 133.428 183.558 133.882 183.915 134.109Z" fill="#232065"/>
<path d="M188.289 137.186L191.108 139.163C191.368 139.357 191.724 139.293 191.918 139.033L204.393 121.31C204.587 121.051 204.523 120.694 204.263 120.5L201.445 118.523C201.185 118.329 200.829 118.394 200.634 118.653L188.16 136.376C187.966 136.668 188.03 137.024 188.289 137.186Z" fill="#120E59"/>
<path d="M115.255 109.095C115.255 109.095 139.588 151.573 148.434 159.382L180.836 135.243C180.836 135.243 185.534 136.668 187.607 141.399C187.607 141.399 167.94 181.48 148.564 183.165C129.188 184.849 102.035 135.146 102.035 135.146L115.255 109.095Z" fill="#120E59"/>
<path d="M60.174 397.922H46.1117C44.3297 396.95 42.7744 394.746 42.256 391.474C41.5755 386.938 36.4885 384.475 35.3869 380.749C34.2852 377.055 39.9231 371.838 39.9231 371.838L40.8627 370.64L41.8347 369.376L51.1664 371.579C51.1664 371.579 51.3932 373.815 51.5228 376.634C51.62 378.675 51.6848 381.041 51.5552 383.114C51.296 388.072 52.9485 393.385 57.3227 394.358C60.6276 395.038 60.4656 396.982 60.174 397.922Z" fill="#120E59"/>
<path d="M141.826 397.922H109.652C108.096 396.043 108.68 389.076 108.906 386.776C108.939 386.322 109.004 386.063 109.004 386.063C109.004 386.063 119.988 377.282 121.511 383.989C121.543 384.216 121.608 384.41 121.673 384.605C123.584 390.891 132.106 393.742 137.031 394.552C140.174 395.103 141.373 396.755 141.826 397.922Z" fill="#120E59"/>
<path d="M135.669 218.353C135.669 218.353 134.016 239.154 132.04 264.168C129.383 298.158 126.175 339.891 125.851 347.797C125.3 361.535 123.097 383.503 123.097 383.503C123.097 383.503 117.88 388.72 107.447 386.516C107.447 386.516 98.1478 355.152 95.4909 321.973C95.4585 321.422 95.3937 320.871 95.3613 320.32C92.8987 286.558 89.043 215.437 89.043 215.437L135.669 218.353Z" fill="#ED6966"/>
<path d="M135.669 218.353C135.669 218.353 134.016 239.154 132.04 264.168L95.4909 321.973C95.4585 321.422 95.3937 320.871 95.3613 320.32C92.8987 286.558 89.043 215.437 89.043 215.437L135.669 218.353Z" fill="#E75755"/>
<path d="M128.056 220.815C128.056 220.815 97.9873 296.181 78.2224 331.596C58.4575 367.011 52.2688 376.893 52.2688 376.893C52.2688 376.893 40.9283 372.357 39.9238 369.279C39.9238 369.279 47.4734 300.912 60.7256 284.225C68.2103 274.796 76.9911 246.542 77.4123 236.66C77.8336 226.777 80.1017 207.207 80.1017 207.207L128.056 220.815Z" fill="#ED6966"/>
<path d="M120.57 110.942C108.808 114.635 88.4922 104.656 88.4922 104.656C88.4922 104.656 99.3143 96.523 98.7635 79.6094L107.836 86.9321L113.992 91.8895C113.992 91.8895 113.96 94.8057 113.279 99.9575C113.117 101.318 112.891 102.809 112.599 104.461C117.686 107.248 120.57 110.942 120.57 110.942Z" fill="#FDB3B1"/>
<path d="M114.024 91.8893C114.024 91.8893 113.992 94.8054 113.311 99.9572C106.474 98.7908 98.7305 87.7419 98.7305 87.7419C102.197 86.7374 105.276 86.543 107.868 86.9319L114.024 91.8893Z" fill="#EA8888"/>
<path d="M117.621 91.6304C117.621 91.6304 98.2128 94.8705 96.3983 82.7524C94.5838 70.6342 90.8576 62.8902 103.17 60.3305C115.483 57.7708 118.593 62.0154 120.181 65.9036C121.736 69.7918 122.611 90.4639 117.621 91.6304Z" fill="#FDB3B1"/>
<path d="M136.965 220.07C136.609 220.361 136.188 220.556 135.734 220.556C131.327 220.491 118.464 222.953 107.577 221.819C98.4074 220.945 90.2746 218.223 81.5586 214.302C80.3921 213.784 77.7352 212.358 77.8 211.062C77.8324 209.636 77.9944 207.595 78.1564 205.003C78.7721 195.995 79.8413 180.507 78.8045 162.654C78.6101 159.317 78.5128 156.012 78.5128 152.772C78.4156 128.568 83.211 107.248 92.8667 100.055C93.6767 99.4714 98.7638 101.934 103.397 104.234C107.707 106.34 111.984 106.6 116.034 105.757L120.084 109.354C125.041 113.955 130.452 120.176 132.785 129.637C134.794 137.705 135.961 152.221 136.609 167.288C136.9 174.124 137.127 180.994 137.192 187.539V187.765C137.257 188.413 137.257 189.126 137.257 189.774C137.516 206.558 137.257 219.843 136.965 220.07Z" fill="#232065"/>
<path d="M78.1562 205.003C78.7719 195.996 79.8411 180.508 78.8043 162.654C78.6099 159.317 78.5127 156.012 78.5127 152.772C82.5304 143.019 85.803 135.956 85.803 135.956H95.9446C95.9122 135.956 103.365 186.696 78.1562 205.003Z" fill="#120E59"/>
<path d="M75.046 229.499L31.8225 223.343C26.1846 222.533 20.9355 226.486 20.1255 232.123L17.4686 250.851C16.6585 256.489 20.6115 261.738 26.2494 262.548L69.473 268.705C75.1108 269.515 80.3599 265.562 81.1699 259.924L83.8269 241.196C84.6045 235.558 80.6515 230.309 75.046 229.499Z" fill="#120E59"/>
<path d="M77.4756 235.072C76.2768 232.026 73.6523 229.628 70.3149 228.818C69.9909 228.754 69.6669 228.689 69.3105 228.624L60.6917 227.393L61.2749 223.343C61.4045 222.435 61.1777 221.528 60.6269 220.815C60.076 220.07 59.266 219.616 58.3588 219.487L56.1231 219.163L47.0831 217.867L45.463 217.64C43.5837 217.381 41.8664 218.677 41.6072 220.556L41.024 224.606L26.1841 222.5C20.5462 221.69 15.2648 225.643 14.4547 231.313L11.7654 250.268C10.9554 255.906 14.9084 261.187 20.5786 261.998L63.705 268.154C64.4502 268.251 65.2279 268.283 65.9407 268.219C67.1072 268.121 68.2412 267.83 69.3105 267.376C72.4858 265.983 74.8836 263.034 75.402 259.341L78.0913 240.386C78.3829 238.506 78.1237 236.692 77.4756 235.072ZM43.7133 220.848C43.8105 220.297 44.2317 219.843 44.7826 219.778C44.9122 219.746 45.0418 219.746 45.1714 219.778L47.0831 220.038L54.179 221.042L58.0672 221.593C58.78 221.69 59.266 222.338 59.1364 223.051L58.5532 227.101L43.1301 224.898L43.7133 220.848Z" fill="#232065"/>
<path d="M56.7056 211.71C56.7056 211.483 56.738 211.257 56.738 210.997C56.8352 209.798 59.1033 206.753 59.1033 206.753L53.4007 203.804L51.1326 207.53C47.7304 210.252 47.6656 210.284 48.2812 215.469C48.832 219.973 45.8835 220.005 45.9483 223.213C46.0131 226.42 50.1605 224.833 50.1605 224.833C56.576 221.819 57.0944 220.297 56.9 217.251C57.5156 218.126 58.1961 218.612 58.7793 218.255C59.2977 217.931 58.2609 216.603 57.8397 213.557C57.7748 213.136 57.2564 212.358 56.7056 211.71Z" fill="#FDB3B1"/>
<path d="M53.3367 209.086C56.9981 209.799 60.951 209.507 60.951 209.507C60.951 209.507 71.7732 176.036 73.1664 172.99C74.5597 169.945 105.341 133.752 105.341 133.752L92.5101 101.675C92.5101 101.675 59.2338 157.276 55.8316 165.085C50.2586 177.98 48.3145 206.947 48.3145 206.947C48.3145 206.947 50.453 208.503 53.3367 209.086Z" fill="#232065"/>
<path d="M96.3657 81.5534C96.3657 81.5534 98.3422 81.2294 98.0506 78.4753C97.759 75.7211 97.7266 72.157 99.9623 72.805C102.198 73.4854 102.295 75.2675 103.235 74.2307C104.142 73.1938 104.174 68.7872 110.817 68.4956C117.459 68.204 120.148 70.5045 123.227 69.1436C126.305 67.7828 126.467 63.117 126.467 63.117C126.467 63.117 125.592 64.7694 124.263 65.3203C124.263 65.3203 129.415 58.2891 123.453 53.4613C117.491 48.6335 111.4 51.8088 107.965 52.0032C100.351 52.4568 95.4585 52.9105 92.9636 57.9003C90.4687 62.8901 91.5055 76.758 96.3657 81.5534Z" fill="#232065"/>
<path d="M437.599 216.333C398.849 251.974 350.62 251.914 301.583 232.15C272.879 220.579 242.501 200.516 225.996 174.682C203.661 140.177 211.464 110.516 228.687 73.4102C251.531 24.1348 288.517 -5.10756 342.935 0.932263C412.782 8.6764 456.855 59.4468 468.935 126.931C474.974 160.868 462.177 193.728 437.599 216.333Z" fill="#BED2FA"/>
<path d="M366.169 148.31C366.169 148.31 348.05 144.662 345.03 144.961C342.01 145.26 331.515 149.954 331.395 150.821C331.276 151.688 331.784 152.376 333.638 152.436C335.462 152.526 341.472 151.569 341.113 152.316C340.754 153.064 323.472 156.921 323.352 160.419C323.262 163.917 332.95 170.167 340.993 170.406C349.036 170.645 364.614 160.868 365.96 160.718C377.442 159.403 366.169 148.31 366.169 148.31Z" fill="#EA8888"/>
<path d="M465.139 108.034C458.053 116.855 452.163 123.672 449.053 126.183C446.571 128.157 443.462 130.19 439.874 132.193C414.04 146.785 364.346 161.555 364.346 161.555C364.346 161.555 364.316 161.525 364.256 161.496C363.628 161.047 360.22 158.416 358.037 154.05C356.153 150.223 356.542 147.861 357.11 146.605C357.439 145.858 357.857 145.499 357.857 145.499C357.857 145.499 417.419 107.436 422.173 103.489C424.864 101.247 434.641 78.4628 442.624 59.1772C443.731 60.7919 444.807 62.4364 445.854 64.1108C454.196 77.3266 460.654 92.1571 465.139 108.034Z" fill="#E75755"/>
<path d="M465.558 175.429C465.169 176.505 464.78 177.552 464.362 178.598C462.418 183.532 460.086 188.286 457.395 192.861C455.81 195.582 454.076 198.213 452.222 200.784C448.066 206.555 443.312 211.907 438.02 216.751C438.049 216.362 438.079 215.944 438.109 215.555C438.139 214.927 438.199 214.329 438.229 213.731C438.319 212.385 438.408 211.07 438.498 209.784C438.528 209.276 438.558 208.797 438.618 208.289C438.857 205.09 439.066 202.07 439.275 199.229C439.335 198.422 439.395 197.615 439.455 196.807C439.485 196.568 439.485 196.329 439.515 196.12C439.544 195.671 439.574 195.193 439.604 194.744C439.634 194.326 439.664 193.937 439.694 193.518C439.694 193.489 439.694 193.429 439.694 193.399C439.724 192.98 439.754 192.592 439.784 192.203C439.843 191.515 439.873 190.887 439.933 190.229C439.963 189.841 439.993 189.422 440.023 189.033C440.053 188.435 440.112 187.837 440.142 187.269C440.142 187.12 440.172 187 440.172 186.851C440.202 186.582 440.202 186.312 440.232 186.043C440.232 185.894 440.262 185.774 440.262 185.655C440.262 185.625 440.262 185.625 440.262 185.595C440.292 185.087 440.322 184.578 440.382 184.1C440.382 184.07 440.382 184.04 440.382 184.01C440.412 183.651 440.441 183.293 440.471 182.964C440.471 182.844 440.501 182.724 440.501 182.635C440.501 182.425 440.531 182.246 440.531 182.067C440.531 181.917 440.561 181.768 440.561 181.618C440.651 180.542 440.711 179.585 440.77 178.718C440.77 178.598 440.8 178.479 440.8 178.359C440.8 178.239 440.83 178.12 440.83 178C440.86 177.761 440.86 177.552 440.89 177.342C441.01 175.788 441.069 174.681 441.129 174.024C441.129 173.964 441.129 173.904 441.129 173.844C441.129 173.814 441.129 173.814 441.129 173.784C441.129 173.725 441.129 173.665 441.129 173.635C441.129 173.455 441.159 173.366 441.159 173.366L465.558 175.429Z" fill="#FB867E"/>
<path d="M465.558 175.429C465.169 176.505 464.78 177.552 464.362 178.598C462.418 183.532 460.086 188.286 457.395 192.861C455.81 195.582 454.076 198.213 452.222 200.784C448.066 206.555 443.312 211.907 438.02 216.751C438.049 216.362 438.079 215.944 438.109 215.555C438.139 214.927 438.199 214.329 438.229 213.731C438.319 212.385 438.408 211.07 438.498 209.784C438.528 209.276 438.558 208.797 438.618 208.289C438.857 205.09 439.066 202.07 439.275 199.229C439.335 198.422 439.395 197.615 439.455 196.807C439.485 196.568 439.485 196.329 439.515 196.12C439.544 195.671 439.574 195.193 439.604 194.744C439.634 194.326 439.664 193.937 439.694 193.518C439.694 193.489 439.694 193.429 439.694 193.399C439.724 192.98 439.754 192.592 439.784 192.203C439.843 191.515 439.873 190.887 439.933 190.229C439.963 189.841 439.993 189.422 440.023 189.033C440.053 188.435 440.112 187.837 440.142 187.269C440.142 187.12 440.172 187 440.172 186.851C440.202 186.582 440.202 186.312 440.232 186.043C440.232 185.894 440.262 185.774 440.262 185.655C440.262 185.625 440.262 185.625 440.262 185.595C440.292 185.087 440.322 184.578 440.382 184.1C440.382 184.07 440.382 184.04 440.382 184.01C440.412 183.651 440.441 183.293 440.471 182.964C440.471 182.844 440.501 182.724 440.501 182.635C440.501 182.425 440.531 182.246 440.531 182.067C440.531 181.917 440.561 181.768 440.561 181.618C440.651 180.542 440.711 179.585 440.77 178.718C440.77 178.598 440.8 178.479 440.8 178.359C440.8 178.239 440.83 178.12 440.83 178C440.86 177.761 440.86 177.552 440.89 177.342C441.01 175.788 441.069 174.681 441.129 174.024C441.129 173.964 441.129 173.904 441.129 173.844C441.129 173.814 441.129 173.814 441.129 173.784C441.129 173.725 441.129 173.665 441.129 173.635C441.129 173.455 441.159 173.366 441.159 173.366L465.558 175.429Z" fill="#EA8888"/>
<path d="M469.475 126.931C472.495 143.824 470.85 160.359 465.558 175.429C465.169 176.505 464.78 177.552 464.362 178.598C462.418 183.532 460.086 188.286 457.395 192.861C455.81 195.582 454.076 198.213 452.222 200.784C446.9 200.007 442.595 199.379 439.933 199.319C439.694 199.319 439.485 199.289 439.276 199.229C438.678 199.08 438.169 198.781 437.691 198.362C437.153 197.914 437.661 173.366 439.276 142.479C439.335 141.283 439.365 139.967 439.515 138.801V138.353C439.605 136.32 439.724 134.256 439.844 132.163C439.904 130.967 439.993 129.771 440.053 128.545C440.561 120.293 441.159 111.891 441.847 103.459C441.907 102.652 441.967 101.845 442.026 101.037C443.103 88.0906 444.329 75.383 445.794 64.021C454.166 77.2967 460.594 92.0972 465.109 108.004C466.873 114.164 468.339 120.472 469.475 126.931Z" fill="#ED6966"/>
<path d="M247.136 172.559C246.837 163.917 246.389 153.602 245.821 142.479C245.761 141.283 245.731 139.967 245.581 138.801L245.552 138.353C245.492 137.366 245.462 136.379 245.402 135.393C245.372 134.825 245.342 134.257 245.312 133.688C245.223 131.984 245.133 130.28 245.013 128.576C244.505 120.323 243.907 111.921 243.219 103.489C243.16 102.682 243.1 101.875 243.01 101.067C242.023 89.0774 240.887 77.2968 239.542 66.5626C239.542 66.5028 239.512 66.443 239.512 66.3832C239.332 65.0377 239.183 63.6922 239.003 62.4065C238.645 59.7753 238.286 57.2039 237.927 54.7222C237.419 55.5594 236.91 56.4265 236.402 57.2637C233.442 62.3168 230.691 67.6091 228.15 73.1406C222.917 84.3831 218.492 96.5824 214.814 109.38C214.784 109.469 214.754 109.529 214.754 109.619C213.558 113.805 212.721 117.931 212.213 122.027C212.153 122.595 212.063 123.193 212.034 123.762C210.269 142.21 215.502 159.462 225.489 174.861C225.818 175.399 226.176 175.937 226.535 176.446C227.253 177.492 227.97 178.539 228.718 179.555C229.256 180.273 229.794 181.02 230.332 181.738C230.452 181.887 230.572 182.037 230.691 182.186C234.489 187.12 238.794 191.844 243.488 196.299C244.236 197.017 245.013 197.735 245.791 198.452C245.97 198.632 246.179 198.811 246.389 198.99C246.777 198.841 247.106 198.602 247.435 198.303C247.734 198.063 247.645 187.927 247.136 172.559Z" fill="#2B276A"/>
<path d="M247.136 172.559C233.233 157.998 221.661 140.147 212.213 122.058C212.691 117.991 213.528 113.835 214.754 109.649C214.784 109.559 214.814 109.5 214.814 109.41C218.522 96.5827 222.947 84.4133 228.15 73.1709C236.671 85.3702 242.651 96.5827 243.01 101.098C243.07 101.905 243.13 102.712 243.219 103.52C243.877 111.921 244.505 120.353 245.013 128.606C245.133 130.31 245.223 132.044 245.312 133.719C245.342 134.287 245.372 134.855 245.402 135.423C245.462 136.41 245.492 137.396 245.552 138.383L245.581 138.832C245.731 140.028 245.791 141.313 245.821 142.509C246.389 153.602 246.837 163.918 247.136 172.559Z" fill="#15115B"/>
<path d="M310.225 149.386C310.225 149.386 328.703 149.416 331.634 150.283C334.564 151.15 343.893 157.878 343.833 158.745C343.773 159.612 343.145 160.18 341.321 159.881C339.497 159.582 333.786 157.489 333.996 158.296C334.205 159.104 350.381 166.31 349.783 169.778C349.185 173.217 338.451 177.433 330.527 176.057C322.574 174.682 309.268 162.034 307.982 161.615C296.949 158.057 310.225 149.386 310.225 149.386Z" fill="#FDB3B1"/>
<path d="M313.575 155.695C311.9 158.595 309.658 160.628 308.222 161.735C307.355 162.422 306.757 162.751 306.757 162.751C306.757 162.751 271.176 149.446 245.402 135.363C236.881 130.698 229.436 125.974 224.681 121.609C222.529 119.635 219.06 115.24 214.814 109.38C218.522 96.5524 222.947 84.3831 228.15 73.1406C230.721 67.6091 233.472 62.3168 236.402 57.2637C237.419 60.3135 238.495 63.453 239.542 66.5626C245.193 83.0376 250.994 98.8249 253.057 100.798C257.542 105.074 314.322 147.143 314.322 147.143C314.322 147.143 315.07 147.861 315.249 149.386C315.458 150.821 315.219 152.884 313.575 155.695Z" fill="#2B276A"/>
<path d="M383.51 25.002H286.514V112.968H383.51V25.002Z" fill="#DDE8FD"/>
<path d="M383.51 19.7095H286.514V24.9719H383.51V19.7095Z" fill="#9E332E"/>
<path d="M289.773 21.2939C289.175 21.2939 288.727 21.7723 288.727 22.3404C288.727 22.9385 289.205 23.387 289.773 23.387C290.371 23.387 290.82 22.9086 290.82 22.3404C290.849 21.7723 290.371 21.2939 289.773 21.2939Z" fill="#DDE8FD"/>
<path d="M293.9 21.2939C293.302 21.2939 292.854 21.7723 292.854 22.3404C292.854 22.9385 293.332 23.387 293.9 23.387C294.498 23.387 294.947 22.9086 294.947 22.3404C294.976 21.7723 294.498 21.2939 293.9 21.2939Z" fill="#DDE8FD"/>
<path d="M298.086 21.2939C297.488 21.2939 297.039 21.7723 297.039 22.3404C297.039 22.9385 297.517 23.387 298.086 23.387C298.684 23.387 299.132 22.9086 299.132 22.3404C299.132 21.7723 298.654 21.2939 298.086 21.2939Z" fill="#DDE8FD"/>
<path d="M315.666 36.4535H352.713C353.67 36.4535 354.477 35.6761 354.477 34.6894C354.477 33.7326 353.699 32.9253 352.713 32.9253H315.666C314.71 32.9253 313.902 33.7027 313.902 34.6894C313.902 35.6761 314.68 36.4535 315.666 36.4535Z" fill="#3662C1"/>
<path d="M307.206 42.4935H361.145C362.102 42.4935 362.909 41.7162 362.909 40.7294C362.909 39.7726 362.132 38.9653 361.145 38.9653H307.206C306.249 38.9653 305.441 39.7427 305.441 40.7294C305.441 41.7162 306.249 42.4935 307.206 42.4935Z" fill="#3662C1"/>
<path d="M302.661 58.4H367.664C368.381 58.4 368.949 57.8319 368.949 57.1143C368.949 56.3967 368.381 55.8286 367.664 55.8286H302.661C301.943 55.8286 301.375 56.3967 301.375 57.1143C301.375 57.802 301.943 58.4 302.661 58.4Z" fill="#3662C1"/>
<path d="M367.664 61.749H302.661C301.943 61.749 301.375 62.3171 301.375 63.0347C301.375 63.7523 301.943 64.3204 302.661 64.3204H367.664C368.381 64.3204 368.949 63.7523 368.949 63.0347C368.949 62.347 368.381 61.749 367.664 61.749Z" fill="#3662C1"/>
<path d="M367.664 67.6992H302.661C301.943 67.6992 301.375 68.2673 301.375 68.9849C301.375 69.7025 301.943 70.2706 302.661 70.2706H367.664C368.381 70.2706 368.949 69.7025 368.949 68.9849C368.949 68.2972 368.381 67.6992 367.664 67.6992Z" fill="#3662C1"/>
<path d="M309.179 89.3467H302.661C301.943 89.3467 301.375 89.9148 301.375 90.6324C301.375 91.35 301.943 91.9181 302.661 91.9181H309.179C309.897 91.9181 310.465 91.35 310.465 90.6324C310.465 89.9148 309.897 89.3467 309.179 89.3467Z" fill="#3662C1"/>
<path d="M320.093 89.3467H313.575C312.857 89.3467 312.289 89.9148 312.289 90.6324C312.289 91.35 312.857 91.9181 313.575 91.9181H320.093C320.811 91.9181 321.379 91.35 321.379 90.6324C321.379 89.9148 320.781 89.3467 320.093 89.3467Z" fill="#3662C1"/>
<path d="M356.751 89.3467H350.233C349.515 89.3467 348.947 89.9148 348.947 90.6324C348.947 91.35 349.515 91.9181 350.233 91.9181H356.751C357.469 91.9181 358.037 91.35 358.037 90.6324C358.037 89.9148 357.469 89.3467 356.751 89.3467Z" fill="#3662C1"/>
<path d="M367.665 89.3467H361.147C360.429 89.3467 359.861 89.9148 359.861 90.6324C359.861 91.35 360.429 91.9181 361.147 91.9181H367.665C368.383 91.9181 368.951 91.35 368.951 90.6324C368.951 89.9148 368.383 89.3467 367.665 89.3467Z" fill="#3662C1"/>
<path d="M310.973 93.5029C307.175 93.5029 304.096 96.5826 304.096 100.38C304.096 104.177 307.175 107.257 310.973 107.257C314.77 107.257 317.85 104.177 317.85 100.38C317.85 96.5826 314.77 93.5029 310.973 93.5029ZM310.973 106.898C307.385 106.898 304.455 103.968 304.455 100.38C304.455 96.7919 307.385 93.8617 310.973 93.8617C314.561 93.8617 317.491 96.7919 317.491 100.38C317.521 103.968 314.591 106.898 310.973 106.898Z" fill="#3662C1"/>
<path d="M310.973 94.8184C307.923 94.8184 305.441 97.3001 305.441 100.35C305.441 103.4 307.923 105.881 310.973 105.881C314.023 105.881 316.504 103.4 316.504 100.35C316.534 97.3001 314.053 94.8184 310.973 94.8184ZM310.973 105.553C308.103 105.553 305.77 103.22 305.77 100.35C305.77 97.4795 308.103 95.1473 310.973 95.1473C313.843 95.1473 316.176 97.4795 316.176 100.35C316.176 103.22 313.843 105.553 310.973 105.553Z" fill="#3662C1"/>
<path d="M309.09 102.623C308.342 102.563 307.983 102.204 307.953 101.576C307.953 101.098 308.103 100.679 308.462 100.32C308.611 101.038 308.97 101.636 309.389 101.785C309.628 101.845 309.867 101.785 310.046 101.546C310.226 101.337 310.405 101.038 310.555 100.739C310.644 100.829 310.734 100.858 310.824 100.858C311.093 100.858 311.332 100.679 311.571 100.26C311.631 100.141 311.691 100.051 311.751 99.9315C311.781 99.9614 311.781 99.9614 311.81 99.9614C311.84 99.9913 311.96 100.021 312.05 99.9315C312.169 99.8418 312.319 99.5727 312.468 99.3036C312.498 99.3634 312.528 99.4232 312.588 99.4232C312.648 99.4531 312.767 99.483 312.917 99.3634C313.006 99.3036 312.977 99.2139 312.947 99.1541C312.917 99.0943 312.797 99.0345 312.618 99.0046C312.797 98.5561 312.947 98.1076 312.857 97.9282C312.827 97.8684 312.767 97.8086 312.678 97.8086C312.558 97.8086 312.468 97.9581 312.409 98.1973C312.379 98.4066 312.349 98.7056 312.379 98.9448C312.259 98.9448 312.109 98.9448 311.96 98.9448C311.96 98.8252 311.93 98.7355 311.9 98.6757C311.84 98.586 311.751 98.586 311.721 98.586C311.631 98.6159 311.601 98.7355 311.571 98.8252C311.571 98.8551 311.571 98.9149 311.571 98.9448C311.123 98.9747 310.614 99.0644 310.166 99.184C309.568 99.3634 309.06 99.5727 308.671 99.8418C308.671 99.6325 308.671 99.3634 308.82 99.2737C309 99.1541 309.329 99.3036 309.448 99.3634L309.568 99.184C309.538 99.184 309.06 98.885 308.731 99.0943C308.521 99.2139 308.432 99.483 308.462 99.9016C308.462 99.9315 308.462 99.9913 308.462 100.021C307.983 100.44 307.744 100.948 307.774 101.516C307.804 102.234 308.252 102.682 309.119 102.772C309.658 102.832 310.375 102.682 311.093 102.473C312.678 101.965 314.173 100.858 314.472 99.8418C314.023 101.157 310.914 102.772 309.09 102.623ZM312.678 98.1674C312.678 98.2272 312.648 98.3169 312.618 98.4066C312.648 98.3169 312.648 98.2272 312.678 98.1674ZM311.96 99.2438C312.08 99.2438 312.199 99.2438 312.319 99.2438C312.199 99.5129 312.05 99.7222 311.93 99.8418C311.93 99.8418 311.9 99.8119 311.87 99.7222C311.9 99.5428 311.93 99.3634 311.96 99.2438ZM310.794 99.3634C311.063 99.3036 311.332 99.2737 311.571 99.2737C311.571 99.4232 311.601 99.5727 311.631 99.7222C311.571 99.9016 311.511 100.051 311.422 100.231C311.242 100.53 311.033 100.709 310.884 100.709C310.794 100.709 310.734 100.649 310.704 100.589C310.854 100.081 310.913 99.6325 310.794 99.3634ZM310.585 99.4232C310.674 99.5727 310.674 99.8717 310.555 100.231C310.465 99.9016 310.525 99.5428 310.585 99.4232ZM309.329 99.8119C309.658 99.6624 309.987 99.5428 310.345 99.4531C310.286 99.6923 310.286 100.021 310.345 100.29C310.375 100.41 310.405 100.5 310.435 100.559C310.315 100.858 310.136 101.187 309.927 101.456C309.807 101.606 309.658 101.666 309.508 101.606C309.179 101.516 308.82 100.948 308.701 100.201C308.85 100.051 309.06 99.9315 309.329 99.8119Z" fill="#3662C1"/>
<path d="M314.441 99.9011C314.441 99.8714 314.471 99.8119 314.471 99.7822C314.471 99.8119 314.441 99.8714 314.441 99.9011Z" fill="#3662C1"/>
<path d="M358.754 93.6821C354.867 93.6821 351.697 96.8515 351.697 100.739C351.697 104.626 354.867 107.795 358.754 107.795C362.641 107.795 365.81 104.626 365.81 100.739C365.81 96.8216 362.641 93.6821 358.754 93.6821ZM358.754 107.406C355.076 107.406 352.056 104.416 352.056 100.709C352.056 97.0309 355.046 94.011 358.754 94.011C362.431 94.011 365.451 97.001 365.451 100.709C365.451 104.416 362.431 107.406 358.754 107.406Z" fill="#3662C1"/>
<path d="M358.753 95.0278C355.614 95.0278 353.072 97.5693 353.072 100.709C353.072 103.848 355.614 106.39 358.753 106.39C361.893 106.39 364.434 103.848 364.434 100.709C364.434 97.5693 361.893 95.0278 358.753 95.0278ZM358.753 106.031C355.823 106.031 353.431 103.639 353.431 100.709C353.431 97.7786 355.823 95.3866 358.753 95.3866C361.684 95.3866 364.076 97.7786 364.076 100.709C364.076 103.639 361.684 106.031 358.753 106.031Z" fill="#3662C1"/>
<path d="M362.281 100.259C362.311 100.23 362.311 100.17 362.311 100.141C362.311 100.17 362.311 100.2 362.281 100.259Z" fill="#3662C1"/>
<path d="M356.84 103.041C356.093 102.981 355.704 102.622 355.674 101.994C355.674 101.516 355.854 101.067 356.212 100.709C356.362 101.456 356.751 102.054 357.169 102.204C357.408 102.293 357.648 102.204 357.827 101.964C358.006 101.755 358.186 101.456 358.335 101.127C358.425 101.217 358.515 101.247 358.604 101.247C358.873 101.247 359.113 101.037 359.352 100.649C359.412 100.529 359.471 100.409 359.531 100.29C359.561 100.32 359.561 100.32 359.591 100.35C359.621 100.38 359.741 100.41 359.86 100.32C359.98 100.2 360.159 99.961 360.309 99.662C360.339 99.7218 360.368 99.7816 360.428 99.8115C360.488 99.8414 360.608 99.8713 360.757 99.7517C360.847 99.6919 360.817 99.6022 360.787 99.5424C360.757 99.4826 360.638 99.4228 360.428 99.3929C360.638 98.9444 360.757 98.466 360.697 98.2866C360.667 98.2268 360.608 98.167 360.518 98.167C360.398 98.167 360.309 98.3165 360.249 98.5557C360.219 98.765 360.189 99.064 360.219 99.3331C360.099 99.3331 359.95 99.3331 359.77 99.3331C359.77 99.2135 359.741 99.1238 359.711 99.064C359.651 98.9743 359.561 98.9743 359.531 98.9743C359.442 99.0042 359.382 99.1238 359.382 99.2135C359.382 99.2434 359.382 99.3032 359.382 99.363C358.903 99.3929 358.395 99.4826 357.947 99.6022C357.319 99.7816 356.81 99.9909 356.422 100.29C356.422 100.081 356.422 99.7816 356.571 99.6919C356.751 99.5723 357.079 99.7218 357.199 99.7816L357.319 99.6022C357.289 99.6022 356.81 99.3032 356.452 99.5125C356.242 99.6321 356.153 99.9311 356.182 100.35C356.182 100.38 356.182 100.439 356.182 100.469C355.704 100.888 355.465 101.396 355.465 101.994C355.495 102.742 355.973 103.19 356.84 103.28C357.408 103.34 358.126 103.19 358.873 102.951C360.518 102.413 362.043 101.277 362.342 100.26C361.863 101.546 358.664 103.19 356.84 103.041ZM360.488 98.466C360.488 98.5258 360.458 98.6155 360.428 98.7052C360.458 98.6155 360.458 98.5258 360.488 98.466ZM359.741 99.5424C359.86 99.5424 359.98 99.5424 360.099 99.5424C359.98 99.8115 359.83 100.021 359.711 100.14C359.711 100.14 359.681 100.111 359.651 100.021C359.681 99.8713 359.711 99.6919 359.741 99.5424ZM358.545 99.6919C358.814 99.6321 359.083 99.6022 359.322 99.6022C359.322 99.7517 359.352 99.9012 359.382 100.051C359.322 100.23 359.262 100.41 359.143 100.559C358.963 100.888 358.754 101.067 358.604 101.037C358.515 101.037 358.455 100.978 358.395 100.918C358.604 100.439 358.694 99.961 358.545 99.6919ZM358.335 99.7517C358.455 99.9012 358.425 100.2 358.305 100.589C358.246 100.23 358.275 99.8713 358.335 99.7517ZM357.05 100.14C357.378 99.9909 357.737 99.8713 358.096 99.7816C358.036 100.021 358.036 100.38 358.096 100.619C358.126 100.738 358.156 100.828 358.186 100.918C358.066 101.247 357.857 101.576 357.648 101.815C357.528 101.964 357.378 102.024 357.229 101.964C356.9 101.875 356.511 101.277 356.392 100.499C356.571 100.38 356.81 100.26 357.05 100.14Z" fill="#3662C1"/>
<path d="M392.033 181.678L383.601 193.07L382.764 194.176L382.345 194.715L381.298 196.12L380.73 196.867L379.684 198.273L378.578 199.738L377.561 201.113L377.531 201.143L376.574 202.429V202.459L376.425 202.638L376.395 202.668L376.215 202.907L375.169 204.193V204.313L374.212 205.628L372.956 207.333L372 208.618L370.953 210.024L369.219 212.356L369.039 212.595L368.441 213.402L367.066 215.256L365.242 217.588V217.708L364.315 218.964L364.225 219.083L362.91 220.847L361.684 222.492V222.522L358.664 226.588L354.179 232.628L346.674 242.764L345.747 244.02L345.209 244.768C345.508 244.797 345.777 244.857 346.076 244.887C347.063 245.007 348.079 245.156 349.066 245.246C349.335 245.276 349.634 245.306 349.903 245.336C350.083 245.365 350.262 245.366 350.442 245.395C350.86 245.425 351.279 245.485 351.697 245.515C351.877 245.545 352.056 245.545 352.236 245.575C352.325 245.575 352.385 245.575 352.475 245.605C352.744 245.635 353.043 245.635 353.312 245.665C353.372 245.665 353.432 245.665 353.461 245.665C354.089 245.724 354.687 245.754 355.315 245.784C355.584 245.814 355.883 245.814 356.152 245.814C356.362 245.814 356.601 245.844 356.81 245.844C356.84 245.844 356.9 245.844 356.93 245.844C357.289 245.874 357.647 245.874 358.006 245.874C358.275 245.874 358.574 245.904 358.843 245.904C359.172 245.904 359.471 245.934 359.8 245.934C360.069 245.934 360.368 245.934 360.637 245.934C360.936 245.934 361.235 245.934 361.534 245.934C361.804 245.934 362.103 245.934 362.372 245.934C362.521 245.934 362.671 245.934 362.82 245.934C363 245.934 363.149 245.934 363.328 245.934C363.448 245.934 363.538 245.934 363.657 245.934C363.777 245.934 363.867 245.934 363.986 245.934C364.136 245.934 364.285 245.934 364.465 245.934C364.495 245.934 364.554 245.934 364.584 245.934C364.674 245.934 364.734 245.934 364.824 245.934C364.943 245.934 365.033 245.934 365.152 245.934C367.335 245.874 369.488 245.754 371.611 245.575C374.063 245.365 376.514 245.096 378.936 244.738C381.538 244.349 384.109 243.87 386.68 243.302C386.71 243.302 386.77 243.272 386.8 243.272V243.302L389.192 242.704C389.521 242.615 389.85 242.555 390.179 242.465C393.318 241.658 396.398 240.731 399.418 239.684C399.926 239.505 400.435 239.326 400.943 239.146C401.062 239.116 401.182 239.057 401.332 238.997C402.258 238.668 403.215 238.309 404.142 237.92C404.381 237.831 404.65 237.711 404.89 237.621C404.949 237.591 404.979 237.591 405.039 237.562C405.338 237.442 405.637 237.322 405.906 237.203C406.116 237.113 406.355 237.023 406.564 236.934C406.833 236.814 407.072 236.724 407.341 236.605C407.491 236.545 407.67 236.455 407.82 236.395C408.119 236.276 408.388 236.156 408.687 236.007C411.498 234.751 414.219 233.376 416.91 231.881C417.179 231.731 417.478 231.582 417.747 231.402L432.428 211.578L392.033 181.678Z" fill="#93B3F4"/>
<path d="M369.818 222.521V223.688L370.685 222.521V222.492H369.818V222.521ZM368.233 224.076C367.904 224.196 367.635 224.345 367.366 224.495L365.482 227.036L364.047 228.98V231.521L365.752 229.219L369.848 223.688C369.31 223.717 368.771 223.867 368.233 224.076ZM361.296 232.658L361.087 232.957L360.28 234.063L356.572 239.056V241.598L359.173 238.07L361.266 235.259L362.373 233.794L363.18 232.688H361.296V232.658ZM392.512 190.528L383.722 202.399L383.632 202.518L383.094 203.236L382.406 204.163L382.047 204.641L380.433 206.854L379.745 207.661V207.781L379.296 208.379L378.698 209.186L376.276 212.445L376.217 212.505L376.097 212.654L375.32 213.701V213.821L373.017 216.811L372.12 218.007L371.971 218.216L369.489 221.565L368.742 222.551V222.581L367.276 224.555L365.393 227.096L363.958 229.04L362.911 230.445L361.207 232.747L360.997 233.046L360.19 234.153L356.482 239.146L355.436 240.551L353.672 242.913L351.639 245.664C351.818 245.694 351.997 245.694 352.177 245.724C352.267 245.724 352.326 245.724 352.416 245.754C352.685 245.784 352.984 245.784 353.253 245.814C353.313 245.814 353.373 245.814 353.403 245.814L355.526 242.943L356.423 241.717L359.024 238.189L361.117 235.379L362.223 233.913L363.031 232.807L363.898 231.641L365.602 229.339L369.698 223.807L370.565 222.641V222.611L371.881 220.937V220.817L372.928 219.412L373.765 218.306L375.23 216.302L376.276 214.897L377.442 213.312L377.891 212.714L378.07 212.475L378.609 211.757L379.655 210.352L380.761 208.857L381.868 207.362L381.987 207.213L383.034 205.807L383.841 204.731L384.2 204.223L385.157 202.937L385.246 202.817L385.456 202.548L389.462 197.136C391.286 194.684 394.755 194.176 397.207 196L417.658 211.159C420.349 213.163 420.917 216.96 418.914 219.681L406.565 236.335L405.848 237.322C406.057 237.232 406.296 237.143 406.505 237.053C406.775 236.933 407.014 236.844 407.283 236.724C407.432 236.664 407.612 236.575 407.761 236.515C408.06 236.395 408.329 236.276 408.628 236.126L424.655 214.478L392.512 190.528ZM361.296 232.658L361.087 232.957L360.28 234.063L356.572 239.056V241.598L359.173 238.07L361.266 235.259L362.373 233.794L363.18 232.688H361.296V232.658ZM368.233 224.076C367.904 224.196 367.635 224.345 367.366 224.495L365.482 227.036L364.047 228.98V231.521L365.752 229.219L369.848 223.688C369.31 223.717 368.771 223.867 368.233 224.076ZM369.818 222.521V223.688L370.685 222.521V222.492H369.818V222.521Z" fill="#6D89CF"/>
<path d="M386.83 243.362V243.332C386.8 243.332 386.74 243.362 386.711 243.362C384.169 243.93 381.598 244.409 378.966 244.797C376.544 245.156 374.123 245.425 371.641 245.635C369.518 245.814 367.335 245.934 365.182 245.993C365.063 245.993 364.973 245.993 364.853 245.993C364.764 245.993 364.704 245.993 364.614 245.993C364.584 245.993 364.525 245.993 364.495 245.993C364.465 245.694 364.465 245.365 364.465 245.037C364.465 244.289 364.554 243.542 364.704 242.824C365.033 241.06 365.78 239.326 366.946 237.771L366.976 237.741C367.545 236.993 368.143 236.336 368.83 235.767C369.159 235.468 369.518 235.199 369.877 234.96C370.863 234.272 371.94 233.734 373.046 233.375C373.375 233.256 373.734 233.166 374.093 233.076C374.9 232.867 375.737 232.777 376.574 232.748C376.933 232.748 377.262 232.748 377.621 232.748C378.398 232.777 379.176 232.897 379.923 233.076C380.282 233.166 380.611 233.256 380.97 233.375C381.358 233.495 381.747 233.645 382.136 233.824C382.495 233.973 382.823 234.153 383.182 234.362C383.541 234.571 383.93 234.811 384.289 235.05C384.348 235.08 384.408 235.14 384.498 235.199C384.767 235.409 385.036 235.618 385.305 235.827C385.335 235.827 385.335 235.857 385.365 235.857C385.574 236.037 385.754 236.216 385.933 236.395C386.322 236.784 386.651 237.143 386.98 237.561C387.129 237.741 387.249 237.92 387.368 238.1V238.13C387.757 238.698 388.116 239.296 388.415 239.924C388.564 240.223 388.684 240.522 388.774 240.821C389.013 241.448 389.192 242.106 389.342 242.764L386.83 243.362Z" fill="#6D89CF"/>
<path opacity="0.5" d="M376.277 202.967L375.23 204.283V204.372L374.243 205.688L372.988 207.392L372.031 208.678L370.984 210.083L369.25 212.415L369.071 212.655L368.473 213.462L367.097 215.316L365.273 217.678V217.768L364.346 219.023L364.257 219.143L362.941 220.907L361.715 222.552V222.581L358.695 226.648L354.21 232.688L346.705 242.824L345.778 244.08L345.24 244.827C345.539 244.857 345.808 244.917 346.107 244.947C347.094 245.066 348.111 245.216 349.097 245.306C349.366 245.335 349.665 245.365 349.935 245.395C350.114 245.425 350.293 245.425 350.473 245.455C350.891 245.485 351.31 245.545 351.729 245.575C351.908 245.605 352.087 245.605 352.267 245.634C352.356 245.634 352.416 245.634 352.506 245.664C352.775 245.694 353.074 245.694 353.343 245.724C353.403 245.724 353.463 245.724 353.493 245.724C354.121 245.784 354.719 245.814 355.346 245.844C355.616 245.874 355.915 245.874 356.184 245.874C356.393 245.874 356.632 245.904 356.841 245.904C356.871 245.904 356.931 245.904 356.961 245.904C357.17 244.887 357.439 243.87 357.709 242.824C358.127 241.239 358.606 239.654 359.174 238.07C359.592 236.844 360.041 235.618 360.519 234.392C360.699 233.914 360.908 233.435 361.087 232.957C361.117 232.867 361.177 232.777 361.207 232.658C361.775 231.223 362.373 229.817 363.001 228.442V228.352C363.33 227.605 363.689 226.917 364.047 226.169C364.615 224.944 365.214 223.718 365.812 222.522C365.812 222.522 365.812 222.522 365.812 222.492C366.619 220.877 367.426 219.322 368.204 217.827C368.323 217.618 368.413 217.498 368.532 217.319V217.229C368.891 216.572 369.22 215.914 369.579 215.286C370.087 214.359 370.596 213.432 371.074 212.595C371.104 212.505 371.164 212.445 371.194 212.356C371.493 211.817 371.792 211.369 372.091 210.861V210.771C372.778 209.515 373.436 208.379 374.004 207.392C374.363 206.794 374.662 206.226 374.961 205.688C375.081 205.479 375.17 205.299 375.29 205.12C375.738 204.283 376.097 203.595 376.336 203.116C376.426 202.967 376.486 202.817 376.516 202.668L376.277 202.967Z" fill="#6D89CF"/>
<path d="M388.683 234.902V240.643C388.683 240.702 388.683 240.762 388.683 240.822C388.654 241.211 388.534 241.57 388.325 241.869C388.085 242.227 387.727 242.526 387.278 242.706C387.188 242.736 387.069 242.766 386.979 242.795C386.949 242.795 386.919 242.795 386.889 242.825C386.83 242.825 386.77 242.855 386.68 242.855C386.62 242.855 386.56 242.855 386.471 242.855H385.813H383.122H380.909H379.863H377.561H376.514H374.032H372.986H369.816H368.77H364.674H363.358H362.311H357.677H355.494H353.73H346.704H345.029H343.803H343.325H340.454H336.268H334.235C333.069 242.616 331.903 242.347 330.707 242.048C330.438 241.988 330.139 241.928 329.87 241.839C329.092 241.659 328.315 241.45 327.538 241.241C327.179 241.151 326.85 241.061 326.491 240.972C325.893 240.822 325.295 240.673 324.727 240.493C324.099 240.314 323.441 240.134 322.813 239.955C322.544 239.865 322.245 239.805 321.976 239.716C320.391 239.267 318.807 238.789 317.192 238.281C317.132 238.251 317.073 238.251 317.013 238.221C316.534 238.071 316.056 237.922 315.578 237.772C315.308 237.683 315.009 237.593 314.74 237.503C310.255 236.038 305.8 234.423 301.375 232.629H302.661L326.521 232.659H327.568H333.996H335.431H338.511H342.428H345.777H346.106H351.308H352.534H353.581H354.268H359.471H361.205H363.179H364.046H368.83H369.846H370.893H373.076H377.351H380.521H380.64H381.567H384.049H385.095H386.531H386.62C386.71 232.659 386.83 232.689 386.919 232.689C387.069 232.719 387.188 232.749 387.308 232.809C387.727 232.958 388.085 233.257 388.354 233.646C388.534 234.035 388.683 234.453 388.683 234.902Z" fill="#F18A88"/>
<path d="M343.864 242.794H343.386H340.516H336.33H335.283H334.267C333.1 242.555 331.934 242.286 330.738 241.987C330.469 241.927 330.17 241.867 329.901 241.778C329.124 241.598 328.346 241.389 327.569 241.18C327.21 241.09 326.881 241 326.522 240.911C325.924 240.761 325.326 240.612 324.758 240.432C324.13 240.253 323.473 240.073 322.845 239.894C322.576 239.804 322.277 239.744 322.007 239.655C320.423 239.206 318.838 238.728 317.223 238.219C317.164 238.19 317.104 238.19 317.044 238.16C316.566 238.01 316.087 237.861 315.609 237.711C315.34 237.621 315.041 237.532 314.772 237.442C310.287 235.977 305.831 234.362 301.406 232.568H302.692L326.552 232.598H327.599H334.027H335.433H335.463H337.884C338.213 234.033 338.752 235.738 339.649 237.472C340.486 239.116 341.652 240.761 343.237 242.196C343.326 242.286 343.446 242.376 343.536 242.465C343.565 242.495 343.565 242.495 343.595 242.525C343.655 242.645 343.745 242.734 343.864 242.794Z" fill="#ED6966"/>
<path d="M377.591 232.688H376.545V242.824H377.591V232.688Z" fill="#ED6966"/>
<path d="M374.062 232.688H373.016V242.824H374.062V232.688Z" fill="#ED6966"/>
<path d="M369.847 232.688H368.801V242.824H369.847V232.688Z" fill="#ED6966"/>
<path d="M363.418 232.688H362.371V242.824H363.418V232.688Z" fill="#ED6966"/>
<path d="M356.572 232.658H355.525V242.794H356.572V232.658Z" fill="#ED6966"/>
<path d="M346.107 232.658H345.061V242.794H346.107V232.658Z" fill="#ED6966"/>
<path d="M336.328 232.658H335.281V242.794H336.328V232.658Z" fill="#ED6966"/>
<path d="M327.568 232.658V241.21C327.209 241.12 326.88 241.03 326.521 240.941V232.658H327.568Z" fill="#ED6966"/>
<path d="M380.939 232.688H379.893V242.824H380.939V232.688Z" fill="#ED6966"/>
<path d="M383.123 232.688H382.076V242.824H383.123V232.688Z" fill="#ED6966"/>
<path d="M385.275 232.688H384.229V242.824H385.275V232.688Z" fill="#ED6966"/>
<path d="M386.859 232.718V242.794C386.739 242.824 386.59 242.824 386.47 242.824H385.812V232.688H386.47C386.62 232.688 386.739 232.688 386.859 232.718Z" fill="#ED6966"/>
<path d="M388.295 233.675V241.868C388.055 242.226 387.667 242.525 387.248 242.705V232.868C387.697 233.017 388.055 233.286 388.295 233.675Z" fill="#ED6966"/>
<path d="M396.158 224.766V230.507C396.158 230.955 396.009 231.374 395.77 231.733C395.53 232.092 395.172 232.391 394.723 232.57C394.603 232.63 394.454 232.66 394.304 232.69C394.185 232.719 394.035 232.719 393.916 232.719L302.631 232.66C301.464 232.66 300.478 231.733 300.418 230.567C300.418 230.537 300.418 230.477 300.418 230.447V224.706C300.418 224.676 300.418 224.617 300.418 224.587C300.478 223.51 301.315 222.643 302.361 222.524C302.451 222.524 302.541 222.494 302.631 222.494L393.916 222.553C394.035 222.553 394.185 222.553 394.304 222.583C394.454 222.613 394.573 222.643 394.723 222.703C395.142 222.852 395.5 223.151 395.77 223.54C396.009 223.869 396.158 224.288 396.158 224.766Z" fill="#F18A88"/>
<path d="M351.309 232.658L302.423 232.628C301.376 232.628 300.509 231.701 300.449 230.535C300.449 230.505 300.449 230.445 300.449 230.415V224.675C300.449 224.645 300.449 224.585 300.449 224.555C300.509 223.479 301.257 222.612 302.183 222.462C302.273 222.462 302.333 222.432 302.423 222.432L345.329 222.462C345.329 222.462 345.329 222.462 345.329 222.492C346.017 225.512 347.602 229.638 351.309 232.658Z" fill="#ED6966"/>
<path d="M385.035 222.551H383.988V232.687H385.035V222.551Z" fill="#ED6966"/>
<path d="M381.537 222.551H380.49V232.687H381.537V222.551Z" fill="#ED6966"/>
<path d="M377.322 222.521H376.275V232.658H377.322V222.521Z" fill="#ED6966"/>
<path d="M370.863 222.521H369.816V232.658H370.863V222.521Z" fill="#ED6966"/>
<path d="M364.047 222.521H363V232.658H364.047V222.521Z" fill="#ED6966"/>
<path d="M353.582 222.521H352.535V232.658H353.582V222.521Z" fill="#ED6966"/>
<path d="M343.773 222.521H342.727V232.658H343.773V222.521Z" fill="#ED6966"/>
<path d="M335.043 222.492H333.996V232.628H335.043V222.492Z" fill="#ED6966"/>
<path d="M388.384 222.551H387.338V232.687H388.384V222.551Z" fill="#ED6966"/>
<path d="M390.597 222.551H389.551V232.687H390.597V222.551Z" fill="#ED6966"/>
<path d="M392.72 222.551H391.674V232.687H392.72V222.551Z" fill="#ED6966"/>
<path d="M394.336 222.581V232.658C394.216 232.687 394.066 232.687 393.947 232.687H393.289V222.551H393.947C394.066 222.551 394.216 222.551 394.336 222.581Z" fill="#ED6966"/>
<path d="M395.769 223.538V231.731C395.53 232.09 395.141 232.389 394.723 232.568V222.731C395.171 222.851 395.53 223.15 395.769 223.538Z" fill="#ED6966"/>
<path d="M384.168 214.631V220.372C384.168 220.82 384.018 221.239 383.779 221.598C383.54 221.956 383.151 222.255 382.733 222.435C382.613 222.495 382.464 222.524 382.314 222.554C382.284 222.554 382.224 222.554 382.195 222.584C382.165 222.584 382.135 222.584 382.105 222.584C382.075 222.584 382.075 222.584 382.045 222.584C382.015 222.584 381.985 222.584 381.925 222.584L290.64 222.524C289.474 222.524 288.488 221.598 288.428 220.431C288.428 220.402 288.428 220.342 288.428 220.312V214.571C288.428 214.541 288.428 214.481 288.428 214.451C288.488 213.285 289.444 212.358 290.64 212.358L381.925 212.418C381.955 212.418 382.015 212.418 382.045 212.418C382.135 212.418 382.224 212.448 382.314 212.448C382.464 212.478 382.583 212.508 382.733 212.568C382.793 212.598 382.852 212.627 382.912 212.657C382.942 212.687 383.002 212.687 383.032 212.717C383.062 212.747 383.092 212.777 383.151 212.777C383.151 212.777 383.151 212.777 383.181 212.777C383.211 212.807 383.241 212.837 383.271 212.837C383.361 212.897 383.42 212.956 383.48 213.016C383.51 213.046 383.51 213.046 383.54 213.076L383.57 213.106C383.6 213.136 383.6 213.166 383.63 213.196C383.66 213.225 383.69 213.285 383.719 213.315C384.018 213.734 384.168 214.152 384.168 214.631Z" fill="#F18A88"/>
<path d="M339.348 222.522L290.462 222.492C289.415 222.492 288.548 221.565 288.488 220.399C288.488 220.369 288.488 220.31 288.488 220.28V214.539C288.488 214.509 288.488 214.449 288.488 214.419C288.548 213.253 289.415 212.326 290.462 212.326L333.368 212.356C333.398 212.446 333.398 212.506 333.428 212.595C334.116 215.555 335.701 219.562 339.348 222.522C339.319 222.522 339.348 222.522 339.348 222.522Z" fill="#ED6966"/>
<path d="M373.076 212.416H372.029V222.552H373.076V212.416Z" fill="#ED6966"/>
<path d="M369.547 212.386H368.5V222.522H369.547V212.386Z" fill="#ED6966"/>
<path d="M365.361 212.386H364.314V222.522H365.361V212.386Z" fill="#ED6966"/>
<path d="M358.902 212.386H357.855V222.522H358.902V212.386Z" fill="#ED6966"/>
<path d="M352.056 212.386H351.01V222.522H352.056V212.386Z" fill="#ED6966"/>
<path d="M341.591 212.386H340.545V222.522H341.591V212.386Z" fill="#ED6966"/>
<path d="M331.814 212.386H330.768V222.522H331.814V212.386Z" fill="#ED6966"/>
<path d="M323.06 212.357L322.014 212.355L322.002 222.492L323.049 222.493L323.06 212.357Z" fill="#ED6966"/>
<path d="M376.423 212.416H375.377V222.552H376.423V212.416Z" fill="#ED6966"/>
<path d="M378.636 212.416H377.59V222.552H378.636V212.416Z" fill="#ED6966"/>
<path d="M380.759 212.416H379.713V222.552H380.759V212.416Z" fill="#ED6966"/>
<path d="M382.343 212.445V222.522C382.224 222.552 382.074 222.552 381.955 222.552H381.297V212.416H381.955C382.104 212.416 382.224 212.416 382.343 212.445Z" fill="#ED6966"/>
<path d="M383.779 213.372V221.565C383.54 221.924 383.151 222.223 382.732 222.402V212.565C383.181 212.714 383.54 213.013 383.779 213.372Z" fill="#ED6966"/>
<path d="M390.896 204.702V210.442C390.896 210.891 390.747 211.31 390.508 211.668C390.269 212.027 389.88 212.326 389.461 212.506C389.342 212.565 389.192 212.595 389.043 212.625C388.923 212.655 388.774 212.655 388.654 212.655L297.369 212.595C297.01 212.595 296.681 212.506 296.382 212.356C295.724 212.027 295.246 211.369 295.156 210.592C295.156 210.562 295.156 210.532 295.156 210.502C295.156 210.472 295.156 210.413 295.156 210.383V204.642C295.156 204.612 295.156 204.552 295.156 204.522C295.216 203.446 296.053 202.579 297.1 202.459C297.189 202.459 297.279 202.429 297.369 202.429L388.654 202.489C388.774 202.489 388.923 202.489 389.043 202.519C389.192 202.549 389.312 202.579 389.461 202.639C389.88 202.788 390.239 203.087 390.508 203.476C390.747 203.835 390.896 204.253 390.896 204.702Z" fill="#F18A88"/>
<path d="M346.076 212.625L297.19 212.595C296.861 212.595 296.562 212.506 296.322 212.356C295.724 212.027 295.306 211.369 295.246 210.592C295.246 210.562 295.246 210.532 295.246 210.502C295.246 210.472 295.246 210.413 295.246 210.383V204.642C295.246 204.612 295.246 204.552 295.246 204.522C295.306 203.446 296.053 202.579 296.98 202.459C297.07 202.459 297.13 202.429 297.219 202.429L340.126 202.459C340.126 202.459 340.126 202.459 340.126 202.489C340.784 205.389 342.339 209.396 345.837 212.386C345.867 212.476 345.957 212.535 346.076 212.625Z" fill="#ED6966"/>
<path d="M379.804 202.489H378.758V212.625H379.804V202.489Z" fill="#ED6966"/>
<path d="M376.275 202.489H375.229V212.625H376.275V202.489Z" fill="#ED6966"/>
<path d="M372.06 202.489H371.014V212.625H372.06V202.489Z" fill="#ED6966"/>
<path d="M365.601 202.489H364.555V212.625H365.601V202.489Z" fill="#ED6966"/>
<path d="M358.785 202.489H357.738V212.625H358.785V202.489Z" fill="#ED6966"/>
<path d="M348.318 202.459H347.271V212.595H348.318V202.459Z" fill="#ED6966"/>
<path d="M338.511 202.459H337.465V212.595H338.511V202.459Z" fill="#ED6966"/>
<path d="M329.781 202.459H328.734V212.595H329.781V202.459Z" fill="#ED6966"/>
<path d="M383.123 202.489H382.076V212.625H383.123V202.489Z" fill="#ED6966"/>
<path d="M385.336 202.489H384.289V212.625H385.336V202.489Z" fill="#ED6966"/>
<path d="M387.459 202.489H386.412V212.625H387.459V202.489Z" fill="#ED6966"/>
<path d="M389.072 202.549V212.625C388.952 212.655 388.803 212.655 388.683 212.655H388.025V202.519H388.683C388.803 202.489 388.952 202.519 389.072 202.549Z" fill="#ED6966"/>
<path d="M390.507 203.476V211.668C390.268 212.027 389.88 212.326 389.461 212.506V202.668C389.909 202.818 390.268 203.117 390.507 203.476Z" fill="#ED6966"/>
<path d="M384.201 194.565V200.306C384.201 200.755 384.051 201.173 383.812 201.532C383.573 201.891 383.184 202.19 382.765 202.369C382.646 202.429 382.496 202.459 382.347 202.489C382.317 202.489 382.257 202.489 382.227 202.519C382.197 202.519 382.167 202.519 382.167 202.519C382.137 202.519 382.108 202.519 382.108 202.519C382.078 202.519 382.018 202.519 381.988 202.519L290.703 202.459C289.537 202.459 288.55 201.532 288.49 200.366C288.49 200.336 288.49 200.276 288.49 200.246V194.506C288.49 194.476 288.49 194.416 288.49 194.386C288.55 193.22 289.507 192.293 290.703 192.293L381.988 192.353C382.108 192.353 382.257 192.353 382.377 192.383C382.526 192.413 382.646 192.442 382.795 192.502C383.214 192.652 383.573 192.951 383.842 193.339C384.051 193.698 384.201 194.117 384.201 194.565Z" fill="#F18A88"/>
<path d="M339.35 202.489L290.464 202.459C289.417 202.459 288.55 201.532 288.49 200.366C288.49 200.336 288.49 200.276 288.49 200.246V194.506C288.49 194.476 288.49 194.416 288.49 194.386C288.55 193.22 289.417 192.293 290.464 192.293L333.37 192.323C334.058 195.313 335.643 199.439 339.35 202.489C339.35 202.459 339.35 202.489 339.35 202.489Z" fill="#ED6966"/>
<path d="M373.082 192.353L372.035 192.352L372.024 202.488L373.07 202.489L373.082 192.353Z" fill="#ED6966"/>
<path d="M369.576 192.353H368.529V202.489H369.576V192.353Z" fill="#ED6966"/>
<path d="M365.361 192.353H364.314V202.489H365.361V192.353Z" fill="#ED6966"/>
<path d="M358.902 192.353H357.855V202.489H358.902V192.353Z" fill="#ED6966"/>
<path d="M352.086 192.353H351.039V202.489H352.086V192.353Z" fill="#ED6966"/>
<path d="M341.619 192.323H340.572V202.459H341.619V192.323Z" fill="#ED6966"/>
<path d="M331.812 192.323H330.766V202.459H331.812V192.323Z" fill="#ED6966"/>
<path d="M323.082 192.323H322.035V202.459H323.082V192.323Z" fill="#ED6966"/>
<path d="M376.423 192.353H375.377V202.489H376.423V192.353Z" fill="#ED6966"/>
<path d="M378.636 192.353H377.59V202.489H378.636V192.353Z" fill="#ED6966"/>
<path d="M380.759 192.353H379.713V202.489H380.759V192.353Z" fill="#ED6966"/>
<path d="M382.375 192.412V202.489C382.255 202.519 382.106 202.519 381.986 202.519H381.328V192.383H381.986C382.106 192.353 382.255 192.382 382.375 192.412Z" fill="#ED6966"/>
<path d="M383.808 193.339V201.532C383.569 201.89 383.18 202.189 382.762 202.369V192.532C383.18 192.681 383.569 192.98 383.808 193.339Z" fill="#ED6966"/>
<path d="M396.518 240.731C394.455 241.389 392.332 241.987 390.209 242.525C389.88 242.615 389.551 242.705 389.222 242.764C388.445 242.974 387.637 243.153 386.83 243.332C386.8 243.332 386.74 243.362 386.71 243.362C384.169 243.93 381.598 244.409 378.966 244.798C376.544 245.156 374.123 245.425 371.641 245.635C369.518 245.814 367.335 245.934 365.182 245.994C365.063 245.994 364.973 245.994 364.853 245.994C364.764 245.994 364.704 245.994 364.614 245.994C364.584 245.994 364.525 245.994 364.495 245.994C364.345 245.994 364.196 245.994 364.016 245.994C363.897 245.994 363.807 245.994 363.687 245.994C363.568 245.994 363.478 245.994 363.358 245.994C363.179 245.994 363.03 245.994 362.85 245.994C362.701 245.994 362.551 245.994 362.402 245.994C362.133 245.994 361.834 245.994 361.564 245.994C361.265 245.994 360.966 245.994 360.667 245.994C360.398 245.994 360.099 245.994 359.83 245.994C359.501 245.994 359.202 245.994 358.873 245.964C358.604 245.964 358.305 245.964 358.036 245.934C357.677 245.934 357.319 245.904 356.96 245.904C356.93 245.904 356.87 245.904 356.84 245.904C356.631 245.904 356.392 245.874 356.182 245.874C355.913 245.874 355.614 245.844 355.345 245.844C354.747 245.814 354.119 245.784 353.491 245.724C353.432 245.724 353.372 245.724 353.342 245.724C353.073 245.695 352.774 245.695 352.505 245.665C352.415 245.665 352.325 245.665 352.266 245.635C352.086 245.635 351.907 245.605 351.727 245.575C351.309 245.545 350.89 245.515 350.472 245.455C350.292 245.425 350.113 245.425 349.933 245.396C349.664 245.366 349.365 245.336 349.096 245.306C348.109 245.186 347.093 245.067 346.106 244.947C345.807 244.917 345.538 244.857 345.239 244.827C345.149 244.827 345.06 244.798 344.94 244.798C344.85 244.798 344.79 244.768 344.701 244.768C344.491 244.738 344.312 244.708 344.103 244.678C344.043 244.678 343.983 244.648 343.953 244.648H343.923C343.893 244.648 343.893 244.648 343.864 244.648C343.116 244.528 342.369 244.409 341.621 244.289C341.352 244.259 341.113 244.2 340.844 244.14C340.575 244.08 340.335 244.05 340.066 243.99C339.767 243.93 339.468 243.871 339.199 243.811C338.93 243.751 338.631 243.691 338.362 243.661C336.987 243.392 335.641 243.123 334.266 242.824C333.1 242.585 331.933 242.316 330.737 242.017C330.468 241.957 330.169 241.897 329.9 241.808C329.781 241.778 329.631 241.748 329.511 241.718C328.435 229.339 334.594 216.931 346.166 210.532C346.584 210.293 347.003 210.084 347.422 209.874C347.81 209.635 348.229 209.396 348.648 209.157C364.315 200.515 384.019 206.226 392.661 221.924C395.95 227.874 397.146 234.422 396.518 240.731Z" fill="#9E332E"/>
<path d="M402.765 217.798C399.865 212.536 395.709 208.379 390.895 205.539C390.776 205.449 390.656 205.389 390.506 205.33C390.177 205.12 389.819 204.941 389.46 204.762C389.34 204.702 389.191 204.612 389.041 204.552C388.712 204.373 388.354 204.193 387.995 204.044C387.815 203.954 387.606 203.864 387.427 203.775C387.068 203.625 386.739 203.476 386.38 203.326C386.021 203.177 385.663 203.027 385.274 202.908C385.244 202.908 385.214 202.878 385.184 202.878C384.855 202.758 384.556 202.668 384.227 202.549C384.168 202.519 384.078 202.489 384.018 202.489H383.928C383.839 202.459 383.809 202.429 383.689 202.37C383.48 202.31 383.271 202.25 383.031 202.19C382.912 202.16 382.822 202.13 382.703 202.1C382.553 202.07 382.433 202.041 382.284 201.981C381.925 201.891 381.596 201.801 381.237 201.742C381.058 201.712 380.849 201.652 380.669 201.622C380.31 201.562 379.982 201.473 379.623 201.443C379.264 201.383 378.905 201.323 378.516 201.263C378.188 201.233 377.829 201.174 377.5 201.144C377.5 201.144 377.5 201.144 377.47 201.144C377.081 201.114 376.693 201.084 376.304 201.054C375.945 201.024 375.616 201.024 375.257 200.994C374.48 200.964 373.732 200.964 372.955 200.994C372.596 200.994 372.267 201.024 371.909 201.054C371.071 201.114 370.264 201.203 369.427 201.323C369.068 201.383 368.739 201.443 368.38 201.502C367.304 201.712 366.257 201.951 365.211 202.25C365.002 202.31 364.792 202.369 364.583 202.429C364.553 202.429 364.553 202.429 364.523 202.459C364.493 202.459 364.463 202.489 364.433 202.489C362.46 203.117 360.517 203.954 358.633 204.971H358.603C358.274 205.15 357.915 205.36 357.586 205.569C357.527 205.599 357.467 205.629 357.407 205.688C354.387 207.512 351.756 209.785 349.573 212.356C349.513 212.446 349.454 212.506 349.364 212.595C346.882 215.555 344.968 218.904 343.713 222.492C343.713 222.492 343.713 222.492 343.713 222.522C343.683 222.612 343.653 222.672 343.623 222.761C343.204 223.957 342.846 225.183 342.576 226.439V226.529C342.128 228.562 341.859 230.565 341.829 232.658C341.739 235.858 342.128 239.087 343.055 242.226C343.115 242.406 343.175 242.615 343.234 242.794C343.414 243.392 343.623 244.02 343.862 244.618C343.922 244.618 343.982 244.648 344.012 244.648C344.221 244.678 344.4 244.708 344.61 244.738C344.699 244.738 344.759 244.768 344.849 244.768C344.939 244.768 345.028 244.798 345.148 244.798C345.447 244.828 345.716 244.887 346.015 244.917C347.002 245.037 348.018 245.186 349.005 245.276C349.274 245.306 349.573 245.336 349.842 245.366C350.022 245.396 350.201 245.396 350.38 245.426C350.799 245.456 351.218 245.515 351.636 245.545C351.816 245.575 351.995 245.575 352.174 245.605C352.264 245.605 352.324 245.605 352.414 245.635C352.683 245.665 352.982 245.665 353.251 245.695C353.311 245.695 353.37 245.695 353.4 245.695C354.028 245.755 354.626 245.785 355.254 245.814C355.523 245.844 355.822 245.844 356.091 245.844C356.301 245.844 356.54 245.874 356.749 245.874C356.779 245.874 356.839 245.874 356.869 245.874C357.228 245.904 357.586 245.904 357.945 245.904C358.214 245.904 358.513 245.934 358.782 245.934C359.111 245.934 359.41 245.964 359.739 245.964C360.008 245.964 360.307 245.964 360.576 245.964C360.875 245.964 361.174 245.964 361.473 245.964C361.743 245.964 362.041 245.964 362.311 245.964C362.46 245.964 362.61 245.964 362.759 245.964C362.938 245.964 363.088 245.964 363.267 245.964C363.387 245.964 363.477 245.964 363.596 245.964C363.716 245.964 363.806 245.964 363.925 245.964C364.075 245.964 364.224 245.964 364.404 245.964C364.433 245.964 364.493 245.964 364.523 245.964C364.613 245.964 364.673 245.964 364.762 245.964C364.882 245.964 364.972 245.964 365.091 245.964C367.274 245.904 369.427 245.784 371.55 245.605C374.002 245.396 376.453 245.127 378.875 244.768C381.477 244.379 384.048 243.901 386.619 243.333C386.649 243.333 386.709 243.303 386.739 243.303V243.333L389.131 242.735C389.46 242.645 389.789 242.585 390.118 242.495C393.257 241.688 396.337 240.761 399.357 239.715C399.865 239.535 400.373 239.356 400.882 239.177C401.001 239.147 401.121 239.087 401.27 239.027C402.197 238.698 403.154 238.339 404.081 237.951C404.32 237.861 404.589 237.741 404.829 237.652C404.888 237.622 404.918 237.622 404.978 237.592C405.277 237.472 405.576 237.353 405.845 237.233C406.054 237.143 406.294 237.054 406.503 236.964C406.533 236.725 406.563 236.486 406.563 236.246C407.221 230.087 405.995 223.658 402.765 217.798Z" fill="#9E332E"/>
<path d="M400.285 219.143C397.893 214.808 394.663 211.22 390.866 208.499C390.746 208.409 390.627 208.32 390.477 208.23C390.149 207.991 389.79 207.752 389.431 207.542C389.281 207.453 389.162 207.363 389.012 207.273C388.683 207.064 388.325 206.855 387.966 206.645C387.786 206.526 387.577 206.436 387.398 206.346C387.069 206.167 386.71 205.987 386.351 205.808C385.992 205.629 385.634 205.449 385.245 205.3C384.886 205.15 384.557 205.001 384.198 204.851C384.079 204.791 383.959 204.762 383.84 204.702C383.57 204.582 383.301 204.492 383.032 204.403C382.793 204.313 382.584 204.253 382.345 204.164C382.225 204.134 382.105 204.074 381.986 204.044C381.238 203.805 380.461 203.566 379.683 203.386C379.325 203.296 378.996 203.207 378.637 203.147C377.889 202.997 377.112 202.848 376.365 202.728C376.305 202.728 376.245 202.698 376.155 202.698C375.796 202.639 375.468 202.609 375.109 202.579C374.959 202.549 374.84 202.549 374.69 202.549H374.6C374.571 202.549 374.571 202.549 374.511 202.519C374.062 202.459 373.554 202.429 373.135 202.429C372.777 202.429 372.448 202.399 372.089 202.399C371.252 202.399 370.444 202.429 369.607 202.489C369.488 202.489 369.338 202.519 369.218 202.519H369.189C369.159 202.519 369.159 202.519 369.129 202.549H369.039C367.933 202.639 366.886 202.818 365.78 203.027C365.421 203.087 365.092 203.177 364.733 203.267C362.79 203.715 360.846 204.373 358.933 205.21C358.574 205.36 358.245 205.539 357.886 205.688C357.827 205.718 357.767 205.748 357.707 205.778C357.288 205.987 356.84 206.227 356.421 206.436C353.461 208.08 350.83 210.114 348.617 212.416C348.557 212.476 348.498 212.536 348.438 212.595C348.408 212.625 348.408 212.625 348.378 212.655C345.657 215.555 343.504 218.934 342.039 222.552C342.039 222.552 342.039 222.552 342.039 222.582C340.724 225.811 339.946 229.22 339.707 232.718C339.587 234.333 339.617 235.947 339.737 237.562C339.886 239.326 340.185 241.09 340.634 242.854C340.753 243.303 340.873 243.721 340.993 244.17C341.262 244.23 341.501 244.26 341.77 244.319C342.518 244.439 343.265 244.559 344.013 244.678C344.043 244.678 344.042 244.678 344.072 244.678H344.102C344.162 244.678 344.222 244.708 344.252 244.708C344.461 244.738 344.641 244.768 344.85 244.798C344.94 244.798 344.999 244.828 345.089 244.828C345.179 244.828 345.268 244.858 345.388 244.858C345.687 244.888 345.956 244.947 346.255 244.977C347.242 245.097 348.258 245.246 349.245 245.336C349.514 245.366 349.813 245.396 350.082 245.426C350.262 245.456 350.441 245.456 350.621 245.486C351.039 245.515 351.458 245.575 351.876 245.605C352.056 245.635 352.235 245.635 352.415 245.665C352.504 245.665 352.564 245.665 352.654 245.695C352.923 245.725 353.222 245.725 353.491 245.755C353.551 245.755 353.611 245.755 353.64 245.755C354.268 245.814 354.866 245.844 355.494 245.874C355.763 245.904 356.062 245.904 356.331 245.904C356.541 245.904 356.78 245.934 356.989 245.934C357.019 245.934 357.079 245.934 357.109 245.934C357.468 245.964 357.827 245.964 358.185 245.964C358.454 245.964 358.753 245.994 359.022 245.994C359.351 245.994 359.65 246.024 359.979 246.024C360.248 246.024 360.547 246.024 360.816 246.024C361.115 246.024 361.414 246.024 361.713 246.024C361.983 246.024 362.282 246.024 362.551 246.024C362.7 246.024 362.85 246.024 362.999 246.024C363.179 246.024 363.328 246.024 363.507 246.024C363.627 246.024 363.717 246.024 363.836 246.024C363.956 246.024 364.046 246.024 364.165 246.024C364.315 246.024 364.464 246.024 364.644 246.024C364.674 246.024 364.733 246.024 364.763 246.024C364.853 246.024 364.913 246.024 365.002 246.024C365.122 246.024 365.212 246.024 365.331 246.024C367.514 245.964 369.667 245.844 371.79 245.665C374.242 245.456 376.693 245.187 379.115 244.828C381.717 244.439 384.288 243.961 386.86 243.392C386.889 243.392 386.949 243.363 386.979 243.363V243.392L389.371 242.794C389.7 242.705 390.029 242.645 390.358 242.555C393.497 241.748 396.577 240.821 399.597 239.775C400.105 239.595 400.614 239.416 401.122 239.236C401.241 239.207 401.361 239.147 401.511 239.087C402.437 238.758 403.394 238.399 404.321 238.01C404.8 231.672 403.574 225.124 400.285 219.143Z" fill="#F18A88"/>
<path d="M397.952 220.878C395.979 217.29 393.348 214.27 390.328 211.908C390.059 211.698 389.76 211.459 389.461 211.25C389.341 211.16 389.192 211.04 389.042 210.951C388.713 210.712 388.354 210.472 387.996 210.263C387.816 210.143 387.607 210.024 387.427 209.904C387.099 209.695 386.74 209.486 386.381 209.306C386.022 209.097 385.663 208.918 385.275 208.738C384.916 208.559 384.587 208.409 384.228 208.23C383.839 208.05 383.451 207.901 383.062 207.722C382.733 207.572 382.374 207.452 382.016 207.333C381.986 207.333 381.956 207.303 381.896 207.303C381.388 207.124 380.879 206.974 380.371 206.825C380.132 206.765 379.923 206.705 379.683 206.645C379.325 206.555 378.996 206.466 378.637 206.376C377.83 206.197 376.992 206.017 376.155 205.898C375.796 205.838 375.467 205.808 375.109 205.778C375.019 205.778 374.899 205.748 374.78 205.748C374.57 205.718 374.331 205.718 374.122 205.688C373.404 205.629 372.657 205.599 371.909 205.599C371.55 205.599 371.222 205.599 370.863 205.629C369.039 205.688 367.245 205.928 365.451 206.316C365.092 206.406 364.763 206.466 364.404 206.585C362.431 207.094 360.487 207.841 358.604 208.798C358.305 208.947 357.976 209.127 357.677 209.276C357.647 209.306 357.587 209.306 357.557 209.336C355.943 210.233 354.448 211.25 353.072 212.416C352.983 212.506 352.893 212.565 352.803 212.655C352.504 212.924 352.205 213.163 351.906 213.432C351.547 213.761 351.218 214.09 350.86 214.449C348.527 216.811 346.644 219.532 345.208 222.552C345.208 222.552 345.208 222.552 345.208 222.582C345.208 222.612 345.179 222.642 345.179 222.672C344.551 224.017 344.042 225.393 343.624 226.828V226.888C343.624 226.917 343.594 226.917 343.594 226.977C343.115 228.532 342.787 230.206 342.607 231.791C342.577 232.03 342.547 232.27 342.547 232.539C342.488 233.376 342.428 234.213 342.428 235.05C342.428 237.532 342.727 239.984 343.355 242.406C343.385 242.495 343.414 242.615 343.444 242.705C343.624 243.333 343.803 243.931 344.012 244.558C344.222 244.588 344.401 244.618 344.61 244.648C344.7 244.648 344.76 244.678 344.85 244.678C344.939 244.678 345.029 244.708 345.149 244.708C345.448 244.738 345.717 244.798 346.016 244.828C345.896 244.529 345.806 244.259 345.717 243.96C345.567 243.542 345.448 243.123 345.328 242.705C345.209 242.286 345.089 241.957 344.999 241.539V241.419C344.311 238.519 344.102 235.529 344.371 232.539C344.521 230.775 344.85 229.01 345.358 227.276C345.567 226.559 345.807 225.841 346.076 225.153C346.434 224.226 346.823 223.329 347.272 222.432C347.272 222.432 347.272 222.432 347.272 222.402C348.288 220.429 349.514 218.575 350.949 216.901C351.278 216.512 351.637 216.123 351.996 215.765C353.132 214.569 354.388 213.492 355.733 212.506C355.853 212.416 355.943 212.356 356.062 212.266H356.092C356.6 211.908 357.109 211.549 357.647 211.22C357.976 211.011 358.275 210.831 358.604 210.652C358.634 210.652 358.664 210.622 358.693 210.622C360.577 209.605 362.491 208.798 364.494 208.26C364.853 208.17 365.182 208.08 365.541 207.991C367.335 207.572 369.158 207.303 370.953 207.243C371.281 207.243 371.64 207.213 371.969 207.213C372.298 207.213 372.597 207.213 372.926 207.243C373.255 207.243 373.584 207.273 373.883 207.303C374.301 207.333 374.72 207.363 375.139 207.423C375.497 207.452 375.826 207.512 376.185 207.572C377.022 207.692 377.859 207.871 378.667 208.05C378.876 208.11 379.055 208.14 379.265 208.2C379.414 208.23 379.564 208.29 379.713 208.32C380.072 208.439 380.461 208.529 380.82 208.648C381.238 208.798 381.627 208.918 382.016 209.097C382.374 209.217 382.703 209.366 383.062 209.516C383.451 209.695 383.839 209.874 384.228 210.054C384.587 210.233 384.916 210.413 385.275 210.592C385.633 210.801 386.022 211.011 386.381 211.22C386.74 211.429 387.069 211.638 387.427 211.878C387.607 211.997 387.816 212.117 387.996 212.266C388.115 212.356 388.235 212.446 388.354 212.535C391.584 214.868 394.334 217.917 396.368 221.625C399.417 227.187 400.494 233.466 399.417 239.625C399.926 239.446 400.434 239.266 400.942 239.087C401.062 239.057 401.181 238.997 401.331 238.937C402.228 232.838 401.062 226.499 397.952 220.878Z" fill="#ED6966"/>
</g>
</svg>
