<svg width="32" height="32" viewBox="0 0 32 32" fill="none" xmlns="http://www.w3.org/2000/svg">
<rect width="32" height="32" rx="16" fill="#0063CC"/>
<path d="M16 22.6668C12.318 22.6668 9.33337 19.6822 9.33337 16.0002C9.33337 12.3182 12.318 9.3335 16 9.3335C19.682 9.3335 22.6667 12.3182 22.6667 16.0002C22.6667 19.6822 19.682 22.6668 16 22.6668ZM15.3334 18.0002V19.3335H16.6667V18.0002H15.3334ZM16.6667 16.9035C17.2025 16.742 17.6624 16.3935 17.9628 15.9213C18.2632 15.4492 18.384 14.8849 18.3032 14.3311C18.2224 13.7774 17.9454 13.2711 17.5227 12.9045C17.1 12.5378 16.5596 12.3352 16 12.3335C15.4606 12.3335 14.9378 12.5203 14.5206 12.8622C14.1033 13.2041 13.8174 13.6799 13.7114 14.2088L15.0194 14.4708C15.0565 14.2851 15.1456 14.1138 15.2763 13.9767C15.407 13.8397 15.5739 13.7425 15.7577 13.6966C15.9414 13.6507 16.1344 13.658 16.3142 13.7175C16.494 13.777 16.6532 13.8863 16.7733 14.0328C16.8933 14.1792 16.9694 14.3568 16.9925 14.5447C17.0156 14.7327 16.9849 14.9234 16.9039 15.0946C16.8229 15.2657 16.6949 15.4104 16.5349 15.5117C16.3749 15.613 16.1894 15.6668 16 15.6668C15.8232 15.6668 15.6537 15.7371 15.5286 15.8621C15.4036 15.9871 15.3334 16.1567 15.3334 16.3335V17.3335H16.6667V16.9035Z" fill="white"/>
</svg>
