<svg width="284" height="180" viewBox="0 0 284 180" fill="none" xmlns="http://www.w3.org/2000/svg">
<rect width="284" height="180" rx="12" fill="#F2F7FC"/>
<g clip-path="url(#clip0_11488_134295)">
<path d="M246 160H38C40.2792 153.095 44.488 147.238 50.4213 145.5C59.1007 142.961 68.286 149.941 76.9467 147.317C81.8668 145.827 85.7403 141.486 89.8105 137.882C105.166 124.281 126.209 120.261 144.379 127.46C153.877 131.221 162.532 137.798 172.261 140.596C184.842 144.213 197.999 141.213 210.937 140.719C223.537 140.237 241.591 146.337 246 160Z" fill="#D7E1EA"/>
<path d="M213.385 125.29C212.198 128.895 208.1 132.099 209.324 134.75C209.789 135.758 210.257 136.812 210.472 137.888C210.611 138.53 210.635 139.192 210.541 139.842C210.099 142.65 207.478 144.514 205.041 145.967C204.891 146.056 204.739 146.147 204.587 146.238C202.277 147.625 199.859 149.222 199.117 151.782C198.705 153.205 198.887 154.725 198.716 156.196C198.554 157.548 198.097 158.847 197.375 160H181.811C180.429 158.474 180.544 155.908 181.596 154.108C182.721 152.182 184.623 150.873 186.339 149.449C187.821 148.218 189.266 146.736 189.832 144.929C189.921 144.643 189.988 144.35 190.03 144.054C190.167 143.076 190.093 138.08 191.785 135.005C194.4 130.256 198.642 131.426 199.938 128.746C200.436 127.72 200.864 115.109 209.127 117.439C209.933 117.655 210.686 118.033 211.342 118.55C211.997 119.067 212.54 119.713 212.939 120.448C213.337 121.182 213.582 121.99 213.659 122.823C213.735 123.655 213.642 124.495 213.385 125.29Z" fill="#ADB5BD"/>
<path d="M228.5 145.009C228.262 145.173 228.007 145.309 227.739 145.414C225.51 146.253 219.309 146.16 218.402 148.367C217.975 149.404 217.873 150.55 217.508 151.611C216.679 154.019 214.49 155.824 212.042 156.503C211.161 156.746 210.249 156.86 209.376 157.131C207.692 157.657 206.297 158.715 205.071 160H184.971C184.962 158.664 185.29 157.347 185.924 156.172C186.558 154.997 187.478 154.001 188.599 153.277C190.834 151.864 193.657 151.6 195.851 150.124C197.298 149.15 198.338 147.742 199.164 146.186C199.689 145.168 200.153 144.119 200.553 143.046C201.167 141.449 201.808 139.734 203.203 138.746C203.867 138.276 204.654 138.012 205.442 137.805C207.456 137.277 209.005 137.588 210.472 137.889C212.253 138.253 213.915 138.601 216.146 137.413C220.104 135.305 225.891 124.791 231.675 134.781C233.994 138.787 230.794 143.47 228.5 145.009Z" fill="white"/>
<path d="M71.2412 125.29C72.4283 128.895 76.5257 132.099 75.3021 134.75C74.8366 135.758 74.3691 136.812 74.154 137.888C74.0143 138.53 73.9911 139.192 74.0854 139.842C74.5268 142.65 77.1478 144.514 79.5849 145.967C79.7352 146.056 79.8872 146.147 80.0393 146.238C82.3486 147.625 84.7672 149.222 85.5092 151.782C85.921 153.205 85.7392 154.725 85.9099 156.196C86.0716 157.548 86.5295 158.847 87.2509 160H102.815C104.196 158.474 104.082 155.908 103.03 154.108C101.905 152.182 100.003 150.873 98.2871 149.449C96.8049 148.218 95.36 146.736 94.7943 144.929C94.7045 144.643 94.6382 144.35 94.596 144.054C94.4587 143.076 94.5329 138.08 92.8414 135.005C90.2248 130.256 85.9834 131.426 84.6872 128.746C84.1901 127.72 83.7616 115.109 75.4985 117.439C74.6927 117.655 73.9392 118.033 73.284 118.55C72.6287 119.067 72.0854 119.713 71.6871 120.448C71.2888 121.182 71.0438 121.99 70.9672 122.823C70.8905 123.655 70.9837 124.495 71.2412 125.29Z" fill="#ADB5BD"/>
<path d="M56.1262 145.009C56.3635 145.173 56.6186 145.309 56.8867 145.414C59.1161 146.253 65.3168 146.16 66.2238 148.367C66.6504 149.404 66.7524 150.55 67.1179 151.611C67.9469 154.019 70.1356 155.824 72.584 156.503C73.4651 156.746 74.3771 156.86 75.2494 157.131C76.9335 157.658 78.3283 158.715 79.5543 160H99.655C99.6639 158.664 99.336 157.347 98.7018 156.172C98.0676 154.997 97.1476 154.001 96.0271 153.277C93.792 151.864 90.9688 151.6 88.7747 150.124C87.3279 149.15 86.2874 147.742 85.462 146.186C84.937 145.168 84.4732 144.119 84.0732 143.046C83.4593 141.449 82.8175 139.734 81.4227 138.746C80.7587 138.276 79.9722 138.012 79.1839 137.805C77.1696 137.277 75.6209 137.588 74.1537 137.889C72.3725 138.253 70.7112 138.6 68.4786 137.412C64.5203 135.304 58.7332 124.79 52.95 134.78C50.6321 138.787 53.8318 143.47 56.1262 145.009Z" fill="white"/>
<path d="M208.246 48.7041C206.894 48.2642 205.438 48.2642 204.085 48.7041C203.308 48.9641 202.613 49.4276 202.074 50.0465C201.387 50.8633 200.879 51.9942 200.93 53.0774C200.965 53.6378 201.142 54.18 201.444 54.6532C201.745 55.1264 202.162 55.5151 202.654 55.7828C203.527 56.2311 204.839 56.3242 205.603 55.6066C206.185 55.0604 206.156 54.122 205.78 53.4709C205.18 52.4304 203.869 52.0073 202.731 52.1521C202.082 52.2454 201.458 52.4685 200.897 52.8082C200.335 53.1478 199.848 53.5971 199.463 54.1292C199.1 54.6328 198.837 55.2017 198.689 55.8049C198.55 56.3647 198.494 57.0068 198.713 57.5542C198.753 57.6833 198.84 57.7924 198.957 57.8591C199.075 57.9258 199.213 57.9451 199.344 57.9131C199.587 57.846 199.806 57.5401 199.702 57.281C199.638 57.1352 199.603 56.9788 199.596 56.8199C199.587 56.6236 199.602 56.427 199.642 56.2347C199.733 55.7902 199.899 55.3644 200.133 54.9756C200.605 54.2009 201.335 53.6183 202.194 53.3306C203.016 53.0552 203.986 53.0579 204.645 53.682C204.768 53.7928 204.868 53.9262 204.941 54.075C204.95 54.0917 204.98 54.167 204.945 54.0783C204.961 54.1185 204.975 54.1596 204.987 54.2017C204.995 54.2277 205.002 54.2545 205.008 54.2806C205.016 54.3159 205.029 54.4808 205.021 54.3305C205.023 54.3715 205.058 54.6138 205.02 54.6371C205.008 54.644 205.05 54.491 205.027 54.5809C205.023 54.5966 205.022 54.6131 205.018 54.6285C205.008 54.6721 204.996 54.7152 204.981 54.7573C204.916 54.8643 204.817 54.9469 204.7 54.9925C204.775 54.9573 204.622 55.0195 204.623 55.0191C204.592 55.0288 204.56 55.0367 204.527 55.0445C204.433 55.0692 204.337 55.0841 204.24 55.0889C204.073 55.1007 203.906 55.0962 203.74 55.0757C203.562 55.044 203.388 54.992 203.222 54.9206C202.859 54.7436 202.55 54.4722 202.327 54.1347C202.103 53.7972 201.974 53.406 201.953 53.0016C201.963 52.5418 202.066 52.0888 202.257 51.6703C202.333 51.5006 202.419 51.3358 202.516 51.1769C202.6 51.0352 202.695 50.9 202.8 50.7725C202.907 50.646 203.021 50.5264 203.143 50.4145C203.202 50.3599 203.263 50.3074 203.325 50.2567C203.447 50.1577 203.247 50.3119 203.373 50.2204C203.411 50.1926 203.45 50.1653 203.489 50.1387C203.624 50.0468 203.765 49.9631 203.91 49.8881C203.986 49.8492 204.062 49.8127 204.139 49.778C204.156 49.7706 204.23 49.7406 204.144 49.7757C204.193 49.7556 204.243 49.7363 204.293 49.7177C204.628 49.5979 204.974 49.5111 205.325 49.4585C205.472 49.4351 205.218 49.4682 205.366 49.4534C205.41 49.449 205.454 49.4435 205.499 49.4393C205.587 49.431 205.675 49.4245 205.762 49.4199C205.936 49.4107 206.109 49.4085 206.282 49.4132C206.45 49.4174 206.616 49.4278 206.783 49.4442C206.819 49.4479 207.067 49.4795 206.926 49.459C207.003 49.4701 207.08 49.4818 207.157 49.4951C207.433 49.5425 207.706 49.6089 207.973 49.6939C208.604 49.8957 208.873 48.9038 208.246 48.7029L208.246 48.7041Z" fill="#007CFF"/>
<path d="M110.34 29.8539C111.648 29.3827 113.012 30.3355 113.628 31.5023C114.233 32.6522 114.092 34.2949 112.907 35.0306C112.403 35.3432 111.698 35.4481 111.259 35.0468C110.8 34.6283 110.828 34.1069 111.281 33.6884C111.387 33.5931 111.503 33.509 111.626 33.4375C111.698 33.3941 111.771 33.353 111.846 33.3153C111.873 33.3016 111.901 33.2884 111.929 33.2753C112.005 33.2401 111.818 33.3153 111.956 33.2639C112.067 33.222 112.18 33.1867 112.295 33.1582C112.35 33.145 112.404 33.1332 112.46 33.1229C112.492 33.1169 112.524 33.1116 112.556 33.1065C112.45 33.1233 112.607 33.1018 112.615 33.1011C112.875 33.077 113.138 33.0814 113.397 33.1141C113.484 33.125 113.328 33.1028 113.415 33.1173C113.449 33.1231 113.483 33.1287 113.517 33.1349C113.577 33.1459 113.636 33.1584 113.696 33.1724C113.84 33.2065 113.983 33.2484 114.123 33.2981C114.163 33.3122 114.284 33.3585 114.283 33.3582C114.241 33.3405 114.32 33.3747 114.318 33.3742C114.35 33.3888 114.382 33.4038 114.414 33.4193C114.549 33.4848 114.679 33.5582 114.805 33.639C115.021 33.7758 115.217 33.9428 115.386 34.1349C115.551 34.3216 115.689 34.5318 115.794 34.7587C115.814 34.8005 115.832 34.8438 115.846 34.8882C115.878 34.9749 115.905 35.0632 115.931 35.1526C115.987 35.344 116.029 35.5393 116.056 35.7369C116.146 36.4635 116.03 37.2008 115.723 37.8648C115.415 38.5288 114.928 39.093 114.316 39.4931C114.072 39.646 113.795 39.7385 113.508 39.7627C113.222 39.787 112.933 39.7424 112.667 39.6326C112.593 39.597 112.522 39.5558 112.455 39.5093C112.374 39.455 112.493 39.5474 112.446 39.5038C112.434 39.4926 112.422 39.4816 112.41 39.4696C112.395 39.4536 112.381 39.4369 112.367 39.4207C112.5 39.5687 112.382 39.4482 112.39 39.4445C112.379 39.4259 112.368 39.4068 112.359 39.387C112.388 39.4316 112.381 39.4762 112.368 39.4018C112.365 39.3842 112.336 39.2346 112.345 39.3188C112.354 39.3979 112.347 39.2688 112.347 39.2432C112.346 39.2177 112.35 39.1932 112.351 39.168C112.351 39.1875 112.325 39.2795 112.349 39.1884C112.364 39.128 112.376 39.0675 112.395 39.0078C112.405 38.9777 112.457 38.8577 112.417 38.9444C112.444 38.8868 112.473 38.8305 112.505 38.7755C112.539 38.717 112.575 38.6605 112.615 38.6053C112.619 38.5995 112.672 38.5306 112.632 38.5815C112.655 38.5524 112.68 38.5243 112.704 38.4966C112.916 38.2578 113.164 38.0535 113.439 37.8911C113.524 37.84 113.61 37.7908 113.698 37.7463C113.728 37.7311 113.866 37.6723 113.753 37.7167C113.861 37.6739 113.971 37.6376 114.084 37.6078C114.31 37.5397 114.546 37.5074 114.783 37.5121C114.917 37.51 115.051 37.515 115.184 37.5271C115.229 37.528 115.274 37.5339 115.318 37.5447C115.399 37.5597 115.479 37.5764 115.559 37.5975C115.826 37.6585 116.077 37.7739 116.298 37.9366C116.704 38.2659 116.99 38.7206 117.111 39.2298C117.249 39.7605 117.261 40.3159 117.148 40.8522C117.042 41.3827 116.81 41.8797 116.472 42.3012C116.3 42.51 116.098 42.6917 115.873 42.8403C115.322 43.2003 115.836 44.0914 116.391 43.7279C117.661 42.897 118.342 41.3388 118.242 39.8369C118.206 39.075 117.95 38.3399 117.506 37.7207C117.026 37.0878 116.32 36.6662 115.537 36.5448C114.058 36.3018 112.478 36.8923 111.659 38.1931C111.335 38.7077 111.174 39.4113 111.505 39.9634C111.926 40.6639 112.94 40.8621 113.688 40.7698C114.607 40.6568 115.364 40.1001 115.94 39.3933C116.579 38.6392 116.98 37.7112 117.092 36.7277C117.192 35.8126 117.018 34.8881 116.593 34.0724C116.234 33.4488 115.707 32.9398 115.072 32.6043C113.857 31.9497 112.285 31.8237 111.08 32.5662C110.291 33.0521 109.673 33.9088 109.969 34.8729C110.109 35.3068 110.386 35.6836 110.757 35.9475C111.128 36.2113 111.574 36.348 112.029 36.3372C113.98 36.3041 115.21 34.2579 114.982 32.4605C114.746 30.5962 113.224 28.926 111.33 28.7149C110.903 28.6675 110.472 28.7177 110.067 28.8617C109.938 28.9009 109.829 28.9884 109.762 29.1061C109.696 29.2238 109.677 29.3626 109.709 29.4939C109.746 29.6247 109.833 29.7356 109.951 29.8028C110.069 29.8699 110.209 29.8879 110.34 29.8529L110.34 29.8539Z" fill="#007CFF"/>
<path d="M167.309 43.5977C168.803 43.4569 170.207 42.8211 171.3 41.7906C171.928 41.1769 172.365 40.3944 172.56 39.5372C172.803 38.4778 172.706 37.2205 172.101 36.2983C171.818 35.8868 171.446 35.5446 171.013 35.2974C170.58 35.0502 170.096 34.9045 169.599 34.871C168.649 34.8306 167.435 35.2529 167.027 36.1914C166.701 36.9421 167.104 37.8328 167.75 38.2695C168.774 38.9622 170.111 38.8024 171.125 38.1782C171.677 37.8219 172.15 37.3577 172.519 36.8135C172.887 36.2692 173.141 35.6561 173.267 35.0109C173.489 33.8694 173.355 32.4532 172.494 31.5983C172.297 31.4027 171.931 31.4831 171.773 31.6833C171.692 31.7915 171.655 31.927 171.671 32.0615C171.687 32.1961 171.754 32.3194 171.858 32.4058C171.781 32.3295 171.894 32.4517 171.899 32.4586C171.921 32.4863 171.942 32.5148 171.962 32.5437C172 32.5959 172.033 32.6521 172.059 32.7113C172.143 32.8918 172.206 33.0809 172.249 33.2752C172.333 33.6882 172.351 34.1119 172.303 34.5306C172.193 35.4442 171.761 36.2887 171.086 36.9121C170.449 37.4936 169.578 37.8873 168.723 37.6159C168.55 37.5677 168.391 37.4822 168.255 37.3655C168.229 37.3436 168.203 37.3209 168.178 37.2973C168.257 37.3729 168.153 37.267 168.144 37.2561C168.126 37.2326 168.108 37.2091 168.09 37.1856C168.073 37.1609 167.984 37.0023 168.05 37.1327C168.005 37.0446 167.986 36.9317 167.938 36.8485C167.941 36.8532 167.952 36.9688 167.943 36.8635C167.934 36.8103 167.932 36.7562 167.937 36.7026C167.961 36.5325 167.928 36.7193 167.957 36.6282C167.961 36.6159 168.013 36.5075 167.982 36.5623C168.007 36.5226 168.035 36.4844 168.066 36.4481C168.077 36.4321 168.158 36.3463 168.097 36.4055C168.223 36.2904 168.364 36.1941 168.517 36.1197C168.825 35.9538 169.172 35.8746 169.521 35.8906C169.449 35.8879 169.561 35.8953 169.577 35.8973C169.622 35.9024 169.666 35.9063 169.71 35.9128C169.8 35.9253 169.888 35.9429 169.976 35.9656C169.915 35.9496 170.002 35.9739 170.007 35.9755C170.06 35.9931 170.113 36.0108 170.163 36.0321C170.259 36.0709 170.353 36.1146 170.445 36.163C170.775 36.343 171.059 36.598 171.274 36.9077C171.735 37.6126 171.724 38.6013 171.545 39.3825C171.524 39.4771 171.51 39.5234 171.496 39.5719C171.469 39.6565 171.439 39.74 171.407 39.8225C171.343 39.9828 171.269 40.1388 171.186 40.2896C171.106 40.4345 171.238 40.2103 171.151 40.3497C171.133 40.3781 171.114 40.4063 171.096 40.4343C171.05 40.5037 171.002 40.5717 170.952 40.6383C170.842 40.783 170.724 40.9207 170.598 41.0505C170.575 41.0739 170.552 41.0972 170.529 41.1199C170.605 41.0449 170.483 41.161 170.467 41.1749C170.401 41.2345 170.333 41.2922 170.263 41.3481C170.112 41.4691 169.955 41.5817 169.793 41.6856C169.719 41.733 169.643 41.7772 169.568 41.8222C169.546 41.8354 169.454 41.8868 169.544 41.8373C169.502 41.86 169.461 41.8819 169.419 41.9036C169.253 41.9884 169.085 42.066 168.913 42.1365C168.609 42.2597 168.297 42.3628 167.98 42.4449C167.952 42.4523 167.859 42.4729 167.97 42.4477C167.931 42.4565 167.892 42.4653 167.853 42.4738C167.777 42.49 167.701 42.5046 167.624 42.518C167.484 42.5427 167.342 42.562 167.2 42.576C166.542 42.6414 166.65 43.6636 167.307 43.5981L167.309 43.5977Z" fill="#007CFF"/>
<path d="M124.936 19.9992L123.309 21.0475L125.786 24.909L127.413 23.8607L124.936 19.9992Z" fill="#007CFF"/>
<path d="M157.073 53.7648L154.276 57.9984L155.888 59.0687L158.686 54.8351L157.073 53.7648Z" fill="#007CFF"/>
<path d="M66.5135 32.4059L64.062 36.1677L65.681 37.2277L68.1325 33.4659L66.5135 32.4059Z" fill="#007CFF"/>
<path d="M220.244 71.0788L218.367 71.5434L219.567 76.416L221.444 75.9515L220.244 71.0788Z" fill="#007CFF"/>
<path d="M224.115 32.3866L222.523 33.4866L225.473 37.7769L227.065 36.677L224.115 32.3866Z" fill="#007CFF"/>
<path d="M82.6031 51.6915L78.9878 55.982L80.4651 57.2328L84.0804 52.9422L82.6031 51.6915Z" fill="#007CFF"/>
<path d="M112.284 82.7246L108.79 86.3199L110.175 87.6724L113.669 84.0772L112.284 82.7246Z" fill="#007CFF"/>
<path d="M187.564 78.1381L185.937 79.1864L188.414 83.0478L190.041 81.9995L187.564 78.1381Z" fill="#007CFF"/>
<path d="M157.402 143.663C144.199 137.723 142.95 113.737 143.568 111.459C143.797 110.616 143.395 110.397 142.798 110.456C142.001 110.363 140.522 111.113 140.041 111.372C139.559 111.113 138.081 110.362 137.284 110.456C136.686 110.397 136.285 110.616 136.513 111.459C137.132 113.737 135.882 137.723 122.68 143.663C119.906 144.912 120.862 146.398 120.862 146.398H159.221C159.221 146.398 160.176 144.912 157.402 143.663Z" fill="#007CFF"/>
<g opacity="0.09">
<path opacity="0.09" d="M159.219 146.399H156.758C156.758 146.399 157.715 144.912 154.94 143.664C141.738 137.724 142.246 113.738 142.865 111.459C143.044 110.797 142.833 110.52 142.443 110.46C142.56 110.446 142.679 110.445 142.796 110.457C143.394 110.398 143.797 110.617 143.568 111.459C142.949 113.738 144.199 137.724 157.402 143.664C160.176 144.911 159.219 146.399 159.219 146.399Z" fill="#1F1F1F"/>
</g>
<path d="M192.799 81.8599C188.954 87.8529 184.302 89.527 179.111 91.0037C174.008 92.4557 169.601 93.7086 166.811 98.4153C166.128 99.5326 165.623 100.749 165.313 102.022V102.026C165.241 102.33 165.185 102.638 165.145 102.948C165.098 103.353 164.955 103.742 164.727 104.08C164.532 104.365 164.268 104.596 163.96 104.751C163.651 104.906 163.309 104.979 162.964 104.963C161.927 104.963 161.32 104.543 160.968 104.02C160.654 103.538 160.527 102.958 160.61 102.389C160.627 102.267 160.645 102.145 160.665 102.022C161.021 99.9172 161.774 97.899 162.882 96.0751C166.6 89.8001 172.584 88.0979 177.863 86.5948C182.704 85.2185 186.045 83.9181 188.954 79.3823C190.401 77.1232 191.943 71.9372 190.099 67.8155C188.662 64.6084 186.312 62.7282 183.114 62.2242C174.384 60.8498 170.283 69.375 170.112 69.738C169.85 70.2772 169.388 70.6918 168.824 70.8929C168.26 71.094 167.641 71.0655 167.098 70.8136C166.555 70.5616 166.132 70.1064 165.92 69.5455C165.708 68.9846 165.725 68.3629 165.965 67.8138C167.037 65.6717 168.47 63.7317 170.202 62.0797C174.046 58.4145 178.758 56.9008 183.822 57.699C188.509 58.4356 192.219 61.3625 194.268 65.9406C196.605 71.1601 195.272 78.0043 192.799 81.8599Z" fill="#007CFF"/>
<path d="M87.2913 81.86C91.136 87.8531 96.1392 89.5271 101.331 91.0038C106.434 92.4558 110.841 93.7087 113.631 98.4154C114.314 99.5327 114.819 100.75 115.129 102.023V102.026C115.201 102.33 115.257 102.638 115.297 102.948C115.343 103.354 115.487 103.742 115.715 104.08C115.91 104.365 116.173 104.596 116.482 104.751C116.79 104.906 117.133 104.979 117.477 104.964C118.515 104.964 119.121 104.543 119.473 104.02C119.787 103.538 119.915 102.958 119.831 102.389C119.815 102.267 119.797 102.145 119.777 102.023C119.42 99.9173 118.668 97.8991 117.56 96.0752C113.842 89.8002 107.858 88.098 102.579 86.5949C97.7372 85.2186 94.0455 83.9182 91.136 79.3824C89.6892 77.1233 88.4991 71.9373 90.3432 67.8157C91.7794 64.6085 94.1299 62.7283 97.3276 62.2244C106.058 60.8499 110.159 69.3752 110.33 69.7382C110.592 70.2773 111.054 70.6919 111.618 70.893C112.181 71.0941 112.801 71.0656 113.344 70.8137C113.887 70.5618 114.31 70.1065 114.522 69.5456C114.733 68.9847 114.717 68.363 114.477 67.8139C113.405 65.6718 111.972 63.7319 110.24 62.0799C106.395 58.4146 101.684 56.9009 96.6191 57.6992C91.9324 58.4357 88.2231 61.3627 86.1733 65.9407C83.8375 71.1602 84.8179 78.0044 87.2913 81.86Z" fill="#007CFF"/>
<path d="M169.289 54.9369C169.199 54.1456 168.821 53.4152 168.228 52.885C167.635 52.3548 166.868 52.0619 166.074 52.0621H114.321C113.526 52.0619 112.759 52.3548 112.166 52.885C111.573 53.4152 111.196 54.1456 111.106 54.9369C110.273 62.3127 108.785 82.0916 115.112 93.0046C122.993 106.598 134.953 111.459 137.53 111.459H142.864C145.44 111.459 157.401 106.598 165.281 93.0046C171.609 82.092 170.121 62.3127 169.289 54.9369Z" fill="#007CFF"/>
<g opacity="0.09">
<path opacity="0.09" d="M169.289 54.9369C169.199 54.1456 168.821 53.4152 168.228 52.885C167.635 52.3548 166.869 52.0619 166.074 52.0621H155.707C155.707 52.0621 157.47 79.1871 154.171 92.7798C150.871 106.372 142.773 111.459 142.865 111.459C145.441 111.459 157.402 106.598 165.282 93.0046C171.609 82.092 170.122 62.3127 169.289 54.9369Z" fill="#1F1F1F"/>
</g>
<path d="M159.22 146.398H120.878V155.582H159.22V146.398Z" fill="#1F1F1F"/>
<path d="M161.556 155.582H118.542V157.791H161.556V155.582Z" fill="#1F1F1F"/>
<path d="M163.767 157.791H116.332V160H163.767V157.791Z" fill="#1F1F1F"/>
<path d="M148.207 86.7584L140.168 82.5203L132.121 86.7584L133.661 77.7859L127.154 71.4293L136.144 70.1228L140.168 61.9574L144.181 70.1228L153.174 71.4293L146.668 77.7859L148.207 86.7584Z" fill="white"/>
</g>
<defs>
<clipPath id="clip0_11488_134295">
<rect width="208" height="140" fill="white" transform="translate(38 20)"/>
</clipPath>
</defs>
</svg>
