<svg width="284" height="180" viewBox="0 0 284 180" fill="none" xmlns="http://www.w3.org/2000/svg">
<rect width="284" height="180" rx="12" fill="#F2F7FC"/>
<path d="M192.792 22.3924L87.4668 25.7126L91.7264 157.535L197.051 154.215L192.792 22.3924Z" fill="#1F1F1F"/>
<path opacity="0.58" d="M192.792 22.3924L87.4668 25.7126L91.7264 157.535L197.051 154.215L192.792 22.3924Z" fill="white"/>
<path d="M188.939 20.0962L84.0977 28.6388L95.0613 159.903L199.903 151.361L188.939 20.0962Z" fill="white"/>
<path d="M188.856 20.1929L199.805 151.279L95.1439 159.807L84.1953 28.7206L188.857 20.1929H188.856ZM189.022 20L84 28.5572L94.9783 160L200 151.443L189.022 20Z" fill="#1F1F1F"/>
<path d="M181.807 29.3355L133.955 33.2346L134.24 36.6522L182.093 32.7532L181.807 29.3355Z" fill="#1F1F1F"/>
<path d="M182.62 38.639L134.749 42.5278L134.763 42.706L182.634 38.8172L182.62 38.639Z" fill="#1F1F1F"/>
<path d="M183.144 44.9151L135.273 48.8039L135.288 48.9821L183.159 45.0933L183.144 44.9151Z" fill="#1F1F1F"/>
<path d="M183.668 51.1914L135.797 55.0803L135.812 55.2585L183.683 51.3697L183.668 51.1914Z" fill="#1F1F1F"/>
<path d="M184.192 57.4676L136.321 61.3564L136.336 61.5346L184.207 57.6458L184.192 57.4676Z" fill="#1F1F1F"/>
<path d="M158.346 65.8896L136.846 67.6361L136.861 67.8144L158.361 66.0678L158.346 65.8896Z" fill="#1F1F1F"/>
<path d="M185.514 73.7163L96.3726 80.9797L96.658 84.3973L185.799 77.134L185.514 73.7163Z" fill="#1F1F1F"/>
<path d="M142.274 123.732L105.888 126.688L105.903 126.866L142.289 123.91L142.274 123.732Z" fill="#1F1F1F"/>
<path d="M142.891 131.118L106.505 134.074L106.52 134.252L142.906 131.296L142.891 131.118Z" fill="#1F1F1F"/>
<path d="M143.508 138.505L107.123 141.46L107.137 141.638L143.523 138.683L143.508 138.505Z" fill="#1F1F1F"/>
<path d="M144.125 145.891L107.739 148.847L107.754 149.025L144.14 146.069L144.125 145.891Z" fill="#1F1F1F"/>
<path d="M102.099 128.445C103.156 128.445 104.013 127.599 104.013 126.555C104.013 125.511 103.156 124.664 102.099 124.664C101.042 124.664 100.186 125.511 100.186 126.555C100.186 127.599 101.042 128.445 102.099 128.445Z" fill="#1F1F1F"/>
<path d="M103.991 151.089C105.048 151.089 105.904 150.243 105.904 149.199C105.904 148.155 105.048 147.308 103.991 147.308C102.934 147.308 102.077 148.155 102.077 149.199C102.077 150.243 102.934 151.089 103.991 151.089Z" fill="#1F1F1F"/>
<path d="M103.374 143.705C104.431 143.705 105.288 142.859 105.288 141.815C105.288 140.771 104.431 139.925 103.374 139.925C102.317 139.925 101.46 140.771 101.46 141.815C101.46 142.859 102.317 143.705 103.374 143.705Z" fill="#1F1F1F"/>
<path d="M102.737 136.075C103.794 136.075 104.651 135.229 104.651 134.185C104.651 133.141 103.794 132.294 102.737 132.294C101.68 132.294 100.823 133.141 100.823 134.185C100.823 135.229 101.68 136.075 102.737 136.075Z" fill="#1F1F1F"/>
<path d="M189.407 119.891L153.021 122.847L153.036 123.025L189.422 120.069L189.407 119.891Z" fill="#1F1F1F"/>
<path d="M190.024 127.278L153.638 130.233L153.653 130.412L190.039 127.456L190.024 127.278Z" fill="#1F1F1F"/>
<path d="M190.641 134.664L154.255 137.62L154.27 137.798L190.655 134.842L190.641 134.664Z" fill="#1F1F1F"/>
<path d="M191.258 142.05L154.872 145.006L154.887 145.184L191.273 142.229L191.258 142.05Z" fill="#1F1F1F"/>
<path d="M149.215 124.606C150.272 124.606 151.129 123.759 151.129 122.715C151.129 121.671 150.272 120.825 149.215 120.825C148.158 120.825 147.301 121.671 147.301 122.715C147.301 123.759 148.158 124.606 149.215 124.606Z" fill="#1F1F1F"/>
<path d="M151.106 147.25C152.163 147.25 153.02 146.403 153.02 145.359C153.02 144.315 152.163 143.469 151.106 143.469C150.049 143.469 149.192 144.315 149.192 145.359C149.192 146.403 150.049 147.25 151.106 147.25Z" fill="#1F1F1F"/>
<path d="M150.489 139.866C151.546 139.866 152.403 139.02 152.403 137.976C152.403 136.932 151.546 136.086 150.489 136.086C149.432 136.086 148.575 136.932 148.575 137.976C148.575 139.02 149.432 139.866 150.489 139.866Z" fill="#1F1F1F"/>
<path d="M149.852 132.236C150.909 132.236 151.766 131.39 151.766 130.346C151.766 129.302 150.909 128.455 149.852 128.455C148.795 128.455 147.938 129.302 147.938 130.346C147.938 131.39 148.795 132.236 149.852 132.236Z" fill="#1F1F1F"/>
<path d="M112.129 53.8025C115.609 53.8025 118.429 51.0167 118.429 47.5802C118.429 44.1437 115.609 41.3579 112.129 41.3579C108.65 41.3579 105.83 44.1437 105.83 47.5802C105.83 51.0167 108.65 53.8025 112.129 53.8025Z" fill="#007CFF"/>
<path d="M127.908 62.9332C126.361 65.2097 124.315 67.1128 121.921 68.5012C119.528 69.8896 116.848 70.7276 114.082 70.953C111.315 71.1784 108.533 70.7854 105.941 69.8032C103.35 68.821 101.016 67.2749 99.1118 65.2795C100.61 62.9431 102.637 60.9817 105.033 59.5497C107.428 58.1177 110.128 57.2541 112.918 57.0267C115.709 56.7993 118.515 57.2143 121.116 58.2392C123.717 59.2641 126.042 60.8709 127.908 62.9332H127.908Z" fill="#007CFF"/>
<path d="M112.583 34.6795C117.306 34.6846 121.843 36.4922 125.248 39.7245C128.652 42.9568 130.66 47.3637 130.852 52.0241C131.043 56.6844 129.404 61.2376 126.276 64.7319C123.148 68.2263 118.774 70.3913 114.067 70.7745C113.561 70.8158 113.048 70.8367 112.542 70.8367C107.82 70.8317 103.282 69.0241 99.8776 65.7918C96.4731 62.5595 94.4653 58.1526 94.2737 53.4922C94.082 48.8318 95.7215 44.2787 98.8494 40.7843C101.977 37.29 106.352 35.125 111.058 34.7418C111.565 34.7005 112.077 34.6795 112.584 34.6795H112.583ZM112.584 34.5008C112.074 34.5008 111.56 34.5215 111.043 34.5635C108.624 34.7605 106.268 35.4261 104.109 36.5225C101.951 37.6189 100.032 39.1246 98.462 40.9535C96.8924 42.7824 95.703 44.8987 94.9615 47.1817C94.22 49.4647 93.9411 51.8695 94.1407 54.259C94.5218 58.822 96.6247 63.0771 100.033 66.1808C103.441 69.2844 107.905 71.01 112.541 71.0155C113.05 71.0155 113.564 70.9945 114.081 70.9525C116.5 70.7555 118.856 70.0897 121.015 68.9933C123.173 67.8968 125.092 66.3912 126.662 64.5623C128.231 62.7334 129.421 60.6171 130.162 58.3342C130.903 56.0513 131.182 53.6465 130.983 51.2571C130.602 46.694 128.499 42.4389 125.091 39.3353C121.682 36.2317 117.218 34.5062 112.582 34.5008H112.584Z" fill="#1F1F1F"/>
<path d="M186.402 83.9179L97.2261 91.1621L97.2409 91.3403L186.417 84.0961L186.402 83.9179Z" fill="#1F1F1F"/>
<path d="M186.887 90.1637L97.7451 97.4148L97.76 97.5927L186.902 90.3417L186.887 90.1637Z" fill="#1F1F1F"/>
<path d="M187.412 96.4378L98.2695 103.689L98.2844 103.867L187.427 96.6158L187.412 96.4378Z" fill="#1F1F1F"/>
<path d="M187.936 102.712L98.7935 109.963L98.8083 110.141L187.951 102.89L187.936 102.712Z" fill="#1F1F1F"/>
<path d="M120.823 114.529L99.3237 116.276L99.3386 116.454L120.838 114.707L120.823 114.529Z" fill="#1F1F1F"/>
<path d="M95.989 21.8287C96.6717 21.9279 97.2894 22.2834 97.7135 22.8212C98.1375 23.359 98.3352 24.0376 98.2653 24.7158L97.3188 34.8154C97.2712 35.3452 97.0127 35.8346 96.5999 36.1761C96.1872 36.5177 95.6541 36.6834 95.1177 36.6369C94.5998 36.58 94.1252 36.3248 93.7957 35.9261C93.4662 35.5274 93.3081 35.0169 93.3553 34.5044L94.3288 24.1201C94.3555 23.7947 94.5034 23.4907 94.7439 23.2668C94.9845 23.0429 95.3005 22.915 95.631 22.908C95.8135 22.9075 95.9941 22.9446 96.1612 23.017C96.3284 23.0894 96.4784 23.1954 96.6016 23.3283C96.7249 23.4613 96.8187 23.6181 96.8771 23.7889C96.9354 23.9597 96.9571 24.1407 96.9406 24.3202L96.2574 31.6095C96.2491 31.6972 96.2059 31.7782 96.1372 31.8345C96.0686 31.8908 95.9801 31.9179 95.8912 31.9098C95.8472 31.9057 95.8044 31.8931 95.7653 31.8728C95.7262 31.8524 95.6915 31.8246 95.6633 31.7909C95.635 31.7573 95.6138 31.7185 95.6008 31.6767C95.5878 31.635 95.5832 31.5911 95.5874 31.5476L96.2679 24.2871C96.2855 24.1284 96.2433 23.9689 96.1492 23.8391C96.0552 23.7093 95.916 23.6184 95.7582 23.5837C95.6709 23.567 95.581 23.5686 95.4943 23.5883C95.4076 23.608 95.326 23.6454 95.2548 23.6981C95.1837 23.7508 95.1244 23.8176 95.081 23.8943C95.0375 23.9709 95.0107 24.0557 95.0024 24.1432L94.0289 34.5278C93.9945 34.8538 94.0837 35.1808 94.2793 35.4456C94.4749 35.7103 94.763 35.894 95.0879 35.9611C95.2679 35.9949 95.4532 35.9912 95.6318 35.9502C95.8103 35.9092 95.9783 35.8318 96.1248 35.723C96.2713 35.6142 96.3932 35.4764 96.4827 35.3183C96.5721 35.1603 96.6272 34.9855 96.6443 34.8052L97.597 24.6419C97.6481 24.1185 97.4868 23.5964 97.1485 23.1904C96.8102 22.7844 96.3225 22.5276 95.7926 22.4765C95.2788 22.4388 94.7706 22.6017 94.3771 22.9301C93.9836 23.2585 93.7362 23.7263 93.6881 24.2329L92.8707 32.9521C92.8666 32.9955 92.8539 33.0378 92.8333 33.0763C92.8127 33.1149 92.7846 33.1492 92.7506 33.177C92.7167 33.2049 92.6774 33.2259 92.6352 33.2388C92.593 33.2517 92.5487 33.2562 92.5047 33.2522C92.4607 33.2482 92.4179 33.2357 92.3788 33.2154C92.3397 33.195 92.3051 33.1673 92.2768 33.1337C92.2486 33.1002 92.2273 33.0614 92.2143 33.0197C92.2012 32.978 92.1966 32.9342 92.2007 32.8908L93.018 24.1716C93.0511 23.8227 93.1551 23.4839 93.3237 23.1755C93.4924 22.8671 93.7222 22.5955 93.9995 22.3768C94.2769 22.1581 94.5959 21.9968 94.9378 21.9027C95.2796 21.8085 95.6371 21.7833 95.989 21.8287Z" fill="#007CFF"/>
<path d="M130.992 113.741L140.763 124.477L212.041 61.1091L202.269 50.3734L130.992 113.741Z" fill="#007CFF"/>
<path d="M210.035 43.3036L219.807 54.0393L212.041 61.108L202.269 50.3722L210.035 43.3036Z" fill="#0063CC"/>
<path d="M130.991 113.74C130.991 113.74 129.955 117.59 129.039 121.043C128.312 123.781 127.66 126.269 127.66 126.387C127.661 126.509 130.331 126.131 133.26 125.68C136.819 125.133 140.763 124.477 140.763 124.477L130.991 113.74Z" fill="#007CFF"/>
<path opacity="0.9" d="M130.991 113.74C130.991 113.74 129.955 117.59 129.039 121.043C128.312 123.781 127.66 126.269 127.66 126.387C127.661 126.509 130.331 126.131 133.26 125.68C136.819 125.133 140.763 124.477 140.763 124.477L130.991 113.74Z" fill="white"/>
<path d="M129.038 121.044C128.311 123.782 127.659 126.27 127.66 126.388C127.66 126.51 130.33 126.132 133.259 125.681L129.038 121.044Z" fill="#1F1F1F"/>
<path d="M134.055 117.065L205.471 53.9197L205.027 53.4283L133.611 116.574L134.055 117.065Z" fill="white"/>
<path d="M137.876 121.267L209.292 58.1214L208.848 57.63L137.432 120.775L137.876 121.267Z" fill="white"/>
</svg>
