<svg width="466" height="354" viewBox="0 0 466 354" fill="none" xmlns="http://www.w3.org/2000/svg">
<path d="M41.0137 337.109C41.0137 337.109 11.1263 241.604 45.6938 182.086C74.112 133.157 112.736 123.538 142.742 153.008C155.523 165.56 191.214 162.581 234.213 102.869C290.06 25.3195 430.048 68.3141 403.016 223.357C389.936 298.386 445.954 262.268 419.004 337.269L41.0137 337.109Z" fill="#DDE8FE"/>
<path d="M392.916 281.418C392.916 281.418 390.133 283.513 386.921 283.339C384.537 283.209 382.096 281.119 381.999 280.978L380.262 284.357C380.262 284.357 384.708 286.782 388.382 285.89C389.509 285.616 391.298 284.401 392.09 283.516C392.962 282.544 392.916 281.418 392.916 281.418Z" fill="#6BB7BF"/>
<path d="M392.519 274.565L397.18 272.373C397.18 272.373 396.989 282.29 388.965 285.693C388.965 285.693 393.807 278.686 392.519 274.565Z" fill="#86D1CD"/>
<path d="M74.4221 248.38C74.4221 248.38 71.6393 250.475 68.4273 250.301C66.0432 250.171 63.6029 248.081 63.5058 247.94L61.7656 251.319C61.7656 251.319 66.2119 253.745 69.8864 252.852C71.0133 252.578 72.802 251.363 73.5941 250.478C74.4681 249.503 74.4221 248.38 74.4221 248.38Z" fill="#6BB7BF"/>
<path d="M74.0271 241.527L78.688 239.334C78.688 239.334 78.4963 249.252 70.4727 252.655C70.4727 252.652 75.315 245.645 74.0271 241.527Z" fill="#86D1CD"/>
<path d="M220.766 190.469C220.766 190.469 227.537 185.759 232.622 192.781L238.205 190.376C238.205 190.376 235.448 186.017 224.627 187.951C217.546 189.213 220.766 190.469 220.766 190.469Z" fill="#5685D8"/>
<path d="M214.098 195.076C214.098 195.076 215.943 187.455 229.833 187.455C229.833 187.455 224.628 187.949 220.563 194.713L214.098 195.076Z" fill="#739AF0"/>
<path d="M176.368 221.077C176.368 221.077 172.627 218.71 172.233 215.853C172.233 215.853 168.592 216.05 167.805 217.232C167.805 217.232 169.478 221.962 171.446 222.85C171.446 222.85 175.874 223.146 176.368 221.077Z" fill="#ED7D2B"/>
<path d="M148.258 292.173C148.258 292.173 144.517 289.807 144.124 286.949C144.124 286.949 140.482 287.146 139.695 288.328C139.695 288.328 141.369 293.058 143.337 293.946C143.337 293.946 147.765 294.242 148.258 292.173Z" fill="#ED7D2B"/>
<path d="M248.543 255.553C248.543 255.553 255.314 250.844 260.399 257.866L265.983 255.461C265.983 255.461 263.226 251.102 252.404 253.036C245.323 254.297 248.543 255.553 248.543 255.553Z" fill="#5685D8"/>
<path d="M241.875 260.16C241.875 260.16 243.72 252.54 257.611 252.54C257.611 252.54 252.405 253.034 248.34 259.797L241.875 260.16Z" fill="#739AF0"/>
<path d="M196.336 217.374C196.336 217.374 192.595 215.008 192.202 212.15C192.202 212.15 188.56 212.347 187.773 213.529C187.773 213.529 189.447 218.259 191.415 219.147C191.415 219.147 195.843 219.443 196.336 217.374Z" fill="#ED7D2B"/>
<path d="M345.235 199.548C345.235 199.548 341.494 197.182 341.1 194.324C341.1 194.324 337.459 194.521 336.672 195.703C336.672 195.703 338.346 200.433 340.313 201.321C340.313 201.321 344.744 201.618 345.235 199.548Z" fill="#ED7D2B"/>
<path d="M42.3466 316.867C42.3466 316.867 38.6057 314.5 38.2122 311.643C38.2122 311.643 34.5708 311.84 33.7812 313.022C33.7812 313.022 35.455 317.752 37.4226 318.64C37.4251 318.64 41.856 318.936 42.3466 316.867Z" fill="#ED7D2B"/>
<path d="M419.851 337.269H41.7537C41.517 337.269 41.3242 337.1 41.3242 336.892V336.764C41.3242 336.557 41.517 336.388 41.7537 336.388H419.85C420.086 336.388 420.279 336.557 420.279 336.764V336.892C420.28 337.1 420.086 337.269 419.851 337.269Z" fill="#A1B0F0"/>
<path d="M68.193 202.859L65.7578 229.535L69.3787 230.098L79.628 206.364L68.193 202.859Z" fill="#FFB27D"/>
<path d="M69.852 227.353C69.852 227.353 69.0113 230.147 69.5351 232.226C69.8852 233.613 67.7311 235.519 65.3495 238.153C65.1093 238.42 64.6647 238.151 64.7158 237.798C64.7439 237.614 64.8001 237.394 64.91 237.143C65.3418 236.14 66.5786 234.401 66.5786 234.401C66.479 234.009 63.9415 235.38 62.508 236.33C61.675 236.882 59.2679 239.486 58.6265 239.097C57.9851 238.709 59.0226 236.204 60.1367 234.357C61.2508 232.513 65.2601 230.952 65.7609 229.538C66.2592 228.118 69.852 227.353 69.852 227.353Z" fill="#FFB27D"/>
<path d="M81.5547 106.11L108.086 94.7854L132.546 106.463L108.086 118.893L81.5547 106.11Z" fill="#5A5BAE"/>
<path d="M85.8462 119.126L86.2244 118.625C80.8812 114.601 81.9187 107.875 82.2407 106.335C82.2815 106.138 82.2023 105.936 82.0388 105.819C81.8753 105.701 81.6453 105.793 81.6044 105.993C81.2518 107.786 80.2731 114.931 85.8462 119.126Z" fill="#EFCBAB"/>
<path d="M86.2233 118.625L87.0231 118.922L86.3562 119.778L85.8477 119.126L86.2233 118.625Z" fill="#D8A987"/>
<path d="M87.021 118.921C87.021 118.921 88.0099 119.64 88.3575 119.42C88.3575 119.42 88.0355 120.364 87.55 120.461C87.55 120.461 86.6531 120.16 86.3516 119.776L87.021 118.921Z" fill="#EFCBAB"/>
<path d="M98.6996 308.553L96.9006 316.133L94.5114 326.186H87.0474L86.6028 316.555L86.2578 309.129L98.6996 308.553Z" fill="#FFB27D"/>
<path d="M84.0938 337.23C84.0938 337.23 84.0937 333.572 84.615 332.354C85.1363 331.139 87.0451 326.184 87.0451 326.184H94.5092C94.5092 326.184 95.8967 330.702 95.9836 332.18C96.0705 333.656 95.9836 337.23 95.9836 337.23H84.0938Z" fill="#233862"/>
<path d="M131.487 337.23C131.487 337.23 131.487 333.572 130.966 332.354C130.444 331.139 128.536 326.184 128.536 326.184H121.072C121.072 326.184 119.684 330.702 119.597 332.18C119.51 333.656 119.597 337.23 119.597 337.23H131.487Z" fill="#233862"/>
<path d="M101.586 131.907C101.586 131.907 101.322 140.052 100.282 143.702L92.0391 161.489L110.279 186.771L123.068 154.106L115.668 143.871C115.668 143.871 113.435 132.95 114.605 128.908C115.775 124.867 101.586 131.907 101.586 131.907Z" fill="#FFB27D"/>
<path d="M101.539 133.03C101.539 133.027 103.992 138.941 108.615 138.813C113.237 138.683 114.287 133.452 114.287 133.452L101.539 133.03Z" fill="#ED985F"/>
<path d="M98.7804 128.243C98.7804 128.243 97.2881 120.784 96.2455 118.525C95.2029 116.266 94.3367 106.187 105.879 105.665C105.879 105.665 110.305 106.187 112.735 104.708C112.735 104.708 112.735 106.185 112.127 106.706C112.127 106.706 115.132 104.813 118.257 108.29C121.382 111.766 117.161 124.867 117.421 127.734L98.7804 128.243Z" fill="#132644"/>
<path d="M108.084 136.529C104.734 136.47 98.5703 132.006 98.5703 126.478V117.852C98.5703 115.834 99.9757 114.181 101.695 114.181H114.472C116.192 114.181 117.597 115.834 117.597 117.852V125.99C117.595 131.786 111.924 136.596 108.084 136.529Z" fill="#FFB27D"/>
<path d="M98.5704 122.457C98.5704 122.457 98.5883 117.274 102.69 116.476C106.791 115.678 115.969 119.003 117.27 115.222C118.571 111.441 99.5287 111.508 98.5704 113.92C97.6122 116.33 98.5704 122.457 98.5704 122.457Z" fill="#132644"/>
<path d="M100.28 143.699L107.913 145.416L115.627 143.556L117.597 155.411L108.94 184.919L99.4648 149.558L100.28 143.699Z" fill="white"/>
<path d="M99.9062 146.125L105.97 150.658L107.955 147.401L109.793 150.658L116.253 145.025L114.98 143.554L107.915 145.416L100.282 145.068L99.9062 146.125Z" fill="#D2E3FC"/>
<path d="M131.664 210.475L113.5 211.61C113.396 211.439 113.278 211.439 113.148 211.633L107.805 211.969L85.0293 210.544C85.0293 210.544 79.3003 236.719 81.5515 271.599C82.2695 282.727 83.8743 315.68 85.4024 327.335L101.013 327.502C103.037 314.322 105.377 281.43 106.634 275.784C107.207 273.218 107.736 270.675 108.231 268.161C108.684 271.026 108.972 273.351 108.967 274.799C108.957 277.117 109.632 280.805 110.567 285.251C111.88 291.514 115.741 320.385 116.894 327.921H133.273C133.47 317.538 134.359 282.261 134.546 271.596C135.044 243.155 131.664 210.475 131.664 210.475Z" fill="#8888BA"/>
<path d="M144.202 302.434C135.851 306.816 78.9852 312.009 68.792 299.968C67.057 297.919 91.289 145.413 91.289 145.413C91.289 145.413 92.8503 144.963 95.4848 144.467C96.8289 144.214 98.449 143.95 100.284 143.728C100.304 144.298 104.232 169.066 109.572 178.723C109.572 178.723 115.628 165.392 115.667 143.866C115.667 143.758 115.644 143.653 115.631 143.551C116.776 143.674 117.938 143.832 119.103 144.035C119.597 144.119 120.09 144.211 120.583 144.313C122.456 144.689 124.339 145.175 126.215 145.797C126.212 145.8 145.942 301.521 144.202 302.434Z" fill="#B4B2F9"/>
<path d="M97.8823 144.014C97.8823 144.014 89.1815 210.927 85.8442 215.944C84.4465 218.041 82.4022 218.384 79.9951 217.916C79.5352 217.829 79.0624 217.711 78.5795 217.568L71.905 215.007L71.8769 214.997C70.796 214.565 69.7049 214.156 68.6163 213.818C61.7605 211.692 62.2945 205.916 64.1395 198.039C65.9844 190.163 78.071 152.236 82.1518 149.56C89.3578 144.833 97.8823 144.014 97.8823 144.014Z" fill="#B4B2F9"/>
<path d="M115.628 143.554C109.897 142.94 104.521 143.218 100.284 143.728C100.281 143.707 100.281 143.697 100.281 143.697C100.281 143.697 114.484 134.905 115.628 143.554Z" fill="#FFB27D"/>
<path d="M110.627 184.914C101.839 178.436 95.4844 144.467 95.4844 144.467C96.8285 144.214 98.4485 143.95 100.283 143.728C100.304 144.298 104.011 167.703 109.355 177.362C109.355 177.362 115.63 165.395 115.666 143.868C115.666 143.761 115.643 143.656 115.63 143.554C116.775 143.677 117.938 143.835 119.103 144.037C119.596 144.122 120.089 144.214 120.583 144.316C120.593 162.446 110.627 184.914 110.627 184.914Z" fill="#FF6E92"/>
<path d="M105.117 130.134C105.117 130.134 109.124 129.732 110.984 130.185C110.984 130.185 109.98 131.804 108.355 131.789C106.727 131.776 105.506 131.17 105.117 130.134Z" fill="#FFF0E6"/>
<path d="M95.4414 110.06L95.679 113.966C95.679 113.966 104.669 107.952 119.415 113.475L119.211 107.827C118.994 106.724 118.314 105.77 117.343 105.21C114.578 103.616 108.1 100.662 97.8689 105.609C96.4329 106.3 95.536 108.469 95.4414 110.06Z" fill="#1C468A"/>
<path d="M100.949 140.108L97.8828 144.014L105.991 149.558L107.912 145.416L100.949 140.108Z" fill="white"/>
<path d="M115.005 140.108L107.914 145.416L109.948 149.558L116.927 143.71L115.005 140.108Z" fill="white"/>
<path d="M107.684 154.572C107.902 154.354 108.257 154.354 108.477 154.572C108.694 154.792 108.694 155.145 108.477 155.365C108.259 155.582 107.904 155.582 107.684 155.365C107.465 155.145 107.465 154.792 107.684 154.572Z" fill="#D2E3FC"/>
<path d="M108.079 161.555C108.388 161.555 108.639 161.304 108.639 160.995C108.639 160.686 108.388 160.435 108.079 160.435C107.77 160.435 107.52 160.686 107.52 160.995C107.52 161.304 107.77 161.555 108.079 161.555Z" fill="#D2E3FC"/>
<path d="M107.684 166.802C107.902 166.585 108.257 166.585 108.477 166.802C108.694 167.019 108.694 167.375 108.477 167.595C108.259 167.812 107.904 167.812 107.684 167.595C107.465 167.375 107.465 167.022 107.684 166.802Z" fill="#D2E3FC"/>
<path d="M126.211 145.8C126.211 145.8 131.677 148.074 134.597 154.776C137.521 161.479 149.648 179.785 149.298 188.359C148.945 196.934 147.3 204.734 139.146 205C133.55 205.182 127.851 199.7 127.851 191.501C127.854 183.3 126.211 145.8 126.211 145.8Z" fill="#B4B2F9"/>
<path d="M143.574 200.193C143.354 202.506 142.49 204.371 140.423 204.89C133.886 206.527 130.994 200.211 132.371 194.023C132.417 193.818 132.468 193.619 132.529 193.43C133.925 188.907 138.943 188.214 140.798 188.114C141.233 188.091 141.493 188.098 141.493 188.098C141.493 188.098 141.529 188.201 141.596 188.393C142.066 189.774 143.993 195.791 143.574 200.193Z" fill="#233862"/>
<path d="M143.573 200.193C143.573 200.193 124.516 191.606 116.973 181.747C116.416 181.018 117.844 180.13 117.844 180.13L140.798 188.111L141.598 188.388C142.066 189.774 143.993 195.791 143.573 200.193Z" fill="#FFB27D"/>
<path d="M121.153 180.595H95.9727V213.815H121.153V180.595Z" fill="#FCECDB"/>
<path d="M106.32 204.013L103.488 208.748L105.28 208.492L106.046 209.917L108.451 205.563L106.32 204.013Z" fill="#932424"/>
<path d="M110.073 203.719L112.904 208.454L111.115 208.198L110.349 209.625L107.941 205.271L110.073 203.719Z" fill="#932424"/>
<path d="M105.324 202.966C105.641 200.894 106.75 200.081 108.467 199.82C110.708 199.48 111.61 201.229 111.61 202.966C111.61 204.703 110.202 206.113 108.467 206.113C106.732 206.113 105.061 204.685 105.324 202.966Z" fill="#BC3F3F"/>
<path d="M108.461 205.473C107.702 205.473 106.93 205.12 106.445 204.555C106.041 204.084 105.867 203.511 105.957 202.941C106.187 201.447 106.951 200.682 108.44 200.454C109.138 200.347 109.718 200.488 110.16 200.869C110.674 201.311 110.97 202.074 110.97 202.961C110.97 204.348 109.846 205.473 108.461 205.473ZM108.872 200.713C108.747 200.713 108.619 200.723 108.484 200.743C107.124 200.951 106.455 201.621 106.245 202.984C106.171 203.468 106.322 203.959 106.667 204.363C107.099 204.867 107.786 205.182 108.461 205.182C109.682 205.182 110.676 204.187 110.676 202.964C110.676 202.161 110.418 201.48 109.968 201.091C109.677 200.838 109.309 200.713 108.872 200.713Z" fill="#932424"/>
<path d="M112.069 184.594H105.06C104.945 184.594 104.848 184.499 104.848 184.381C104.848 184.266 104.942 184.169 105.06 184.169H112.069C112.184 184.169 112.281 184.264 112.281 184.381C112.278 184.499 112.184 184.594 112.069 184.594Z" fill="#1C468A"/>
<path d="M113.428 185.479H103.7C103.585 185.479 103.488 185.384 103.488 185.267C103.488 185.151 103.583 185.054 103.7 185.054H113.428C113.543 185.054 113.64 185.149 113.64 185.267C113.638 185.384 113.543 185.479 113.428 185.479Z" fill="#1C468A"/>
<path d="M115.739 192.813H101.389C101.256 192.813 101.148 192.705 101.148 192.572C101.148 192.439 101.256 192.332 101.389 192.332H115.739C115.872 192.332 115.979 192.439 115.979 192.572C115.979 192.703 115.872 192.813 115.739 192.813Z" fill="#1C468A"/>
<path d="M115.739 194.02H101.389C101.256 194.02 101.148 193.913 101.148 193.78C101.148 193.647 101.256 193.54 101.389 193.54H115.739C115.872 193.54 115.979 193.647 115.979 193.78C115.979 193.91 115.872 194.02 115.739 194.02Z" fill="#1C468A"/>
<path d="M115.739 195.074H101.389C101.256 195.074 101.148 194.967 101.148 194.834C101.148 194.701 101.256 194.593 101.389 194.593H115.739C115.872 194.593 115.979 194.701 115.979 194.834C115.979 194.967 115.872 195.074 115.739 195.074Z" fill="#1C468A"/>
<path d="M115.739 196.231H101.389C101.256 196.231 101.148 196.123 101.148 195.99C101.148 195.857 101.256 195.75 101.389 195.75H115.739C115.872 195.75 115.979 195.857 115.979 195.99C115.979 196.123 115.872 196.231 115.739 196.231Z" fill="#1C468A"/>
<path d="M116.947 203.087C116.495 203.463 116.009 203.775 115.501 204.061C115.544 203.926 115.58 203.785 115.572 203.66C115.562 203.488 115.427 203.412 115.289 203.34C115.256 203.322 115.222 203.304 115.192 203.284C115.245 203.232 115.273 203.158 115.238 203.079C115.179 202.949 115.018 202.969 114.962 203.089C114.951 203.112 114.946 203.133 114.944 203.156C114.921 203.143 114.906 203.13 114.89 203.112C114.975 202.956 115.054 202.795 115.125 202.634C115.141 202.598 115.12 202.555 115.092 202.532C114.972 202.439 114.806 202.47 114.709 202.585C114.594 202.721 114.622 202.928 114.678 203.082C114.683 203.092 114.686 203.102 114.691 203.115C114.584 203.307 114.469 203.496 114.343 203.678C114.331 203.665 114.32 203.655 114.308 203.642C114.274 203.611 114.241 203.57 114.21 203.524C114.267 203.376 114.305 203.22 114.318 203.056C114.323 202.984 114.251 202.949 114.19 202.972C114.021 203.033 113.932 203.204 113.955 203.378C113.963 203.44 113.98 203.496 114.009 203.55C113.97 203.632 113.927 203.711 113.873 203.785C113.84 203.834 113.863 203.885 113.904 203.908C113.85 204.09 113.776 204.279 113.648 204.409C113.546 204.517 113.352 204.599 113.227 204.471C113.147 204.389 113.137 204.253 113.127 204.148C113.099 203.885 113.081 203.611 113.091 203.345C113.096 203.22 113.109 203.092 113.153 202.974C113.178 202.9 113.216 202.787 113.252 202.915C113.27 202.977 113.245 203.074 113.239 203.138C113.229 203.25 113.403 203.263 113.416 203.151C113.429 203.018 113.487 202.739 113.339 202.657C113.214 202.588 113.099 202.688 113.043 202.79C112.836 203.163 112.917 203.675 112.948 204.079C112.974 204.402 113.094 204.798 113.505 204.696C113.894 204.599 114.037 204.11 114.124 203.772C114.129 203.752 114.129 203.731 114.121 203.716C114.124 203.713 114.124 203.711 114.126 203.708C114.141 203.724 114.159 203.742 114.175 203.757C114.198 203.777 114.218 203.798 114.241 203.821C114.2 203.877 114.159 203.933 114.116 203.99C114.093 204.02 114.098 204.069 114.124 204.097C114.254 204.253 114.489 204.138 114.484 203.944C114.484 203.9 114.471 203.859 114.453 203.823C114.576 203.647 114.691 203.465 114.796 203.279C114.852 203.332 114.921 203.368 115.008 203.363C115.013 203.363 115.02 203.363 115.026 203.36C115.072 203.409 115.128 203.447 115.179 203.478C115.23 203.506 115.286 203.524 115.332 203.56C115.417 203.629 115.391 203.706 115.373 203.803C115.35 203.931 115.309 204.059 115.271 204.184C115.095 204.286 114.918 204.414 114.86 204.619C114.806 204.806 114.854 205.003 115.013 205.118C115.061 205.154 115.125 205.126 115.146 205.074C115.245 204.829 115.337 204.578 115.414 204.322C115.417 204.315 115.419 204.307 115.422 204.299C115.578 204.21 115.741 204.13 115.897 204.041C116.308 203.798 116.697 203.519 117.065 203.215C117.149 203.146 117.034 203.012 116.947 203.087ZM114.806 202.851C114.803 202.78 114.842 202.652 114.923 202.654C114.888 202.734 114.849 202.813 114.808 202.89C114.808 202.877 114.806 202.864 114.806 202.851ZM115.031 204.888C114.957 204.75 115.064 204.578 115.184 204.463C115.135 204.606 115.084 204.75 115.031 204.888Z" fill="#1C468A"/>
<path d="M120.165 212.866H97.1367V181.747H120.165V212.866ZM97.4025 212.603H119.902V182.01H97.4025V212.603Z" fill="#1C468A"/>
<path d="M112.277 178.068C112.277 178.068 107.639 182.059 109.308 182.66C110.979 183.261 115.461 180.598 116.34 180.598C117.219 180.598 119.24 180.598 119.24 180.598C119.24 180.598 116.376 177.277 114.863 177.364C113.35 177.451 112.277 178.068 112.277 178.068Z" fill="#FFB27D"/>
<path d="M85.8423 170.982L79.9932 217.913C79.5333 217.826 79.0605 217.709 78.5776 217.566L71.9031 215.005L71.875 214.995C71.875 214.995 73.932 212.864 76.7224 205.473C79.5128 198.08 85.8423 170.982 85.8423 170.982Z" fill="#233862"/>
<path d="M230.341 223.951C230.341 223.951 232.802 229.274 232.669 230.725C232.536 232.175 230.341 236.795 230.341 236.795L227.684 224.57L230.341 223.951Z" fill="#FFB27D"/>
<path d="M228.408 201.068L230.342 223.951L227.685 224.57L220.676 203.818L228.408 201.068Z" fill="#FFB27D"/>
<path d="M171.27 127.57L197.666 111.971L215.798 124.693L190.68 139.353L171.27 127.57Z" fill="#233862"/>
<path d="M184.833 134.759C184.833 134.759 184.158 138.601 180.466 140.581C176.773 142.561 173.61 143.142 174.402 149.517C175.194 155.891 170.842 157.345 170.05 161.568C169.258 165.791 169.358 173.509 179.937 171.202C190.518 168.895 214.748 170.542 217.382 167.111C220.014 163.681 218.169 156.554 213.687 151.141C209.205 145.731 215.136 142.19 213.028 137.427C210.92 132.664 206.872 127.762 206.872 127.762C206.872 127.762 189.463 124.449 184.833 134.759Z" fill="#132644"/>
<path d="M189.832 310.28L193.402 325.335L198.75 325.304L198.947 310.28H189.832Z" fill="#FFB27D"/>
<path d="M234.816 310.922L244.974 325.335L248.934 320.246L242.82 308.942L234.816 310.922Z" fill="#FFB27D"/>
<path d="M203.878 158.57C203.914 158.585 203.224 175.331 200.357 175.359C199.757 175.364 195.323 163.635 194.758 163.481C191.692 162.645 191.26 155.134 191.304 155.124C192.602 154.866 192.977 153.08 192.949 145.403L193.537 145.518L203.405 147.475C203.405 147.475 203.181 150.586 203.175 153.515C203.168 155.973 203.316 158.306 203.878 158.57Z" fill="#FFB27D"/>
<path d="M164.009 141.771L163.688 141.095C170.868 137.675 171.254 129.589 171.244 127.721C171.244 127.481 171.384 127.266 171.601 127.169C171.821 127.072 172.066 127.233 172.066 127.473C172.054 129.645 171.499 138.202 164.009 141.771Z" fill="#EFCBAB"/>
<path d="M163.689 141.095L162.688 141.254L163.262 142.41L164.009 141.771L163.689 141.095Z" fill="#D8A987"/>
<path d="M162.688 141.254C162.688 141.254 161.364 141.858 161.012 141.517C161.012 141.517 161.165 142.692 161.704 142.924C161.704 142.924 162.821 142.786 163.263 142.41L162.688 141.254Z" fill="#EFCBAB"/>
<path d="M203.404 147.475C203.404 147.475 203.179 150.586 203.174 153.515C197.652 153.359 194.731 148.314 193.535 145.521L203.404 147.475Z" fill="#EF9E67"/>
<path d="M191.505 145.866C191.505 145.866 187.764 141.95 186.31 138.251C185.273 135.608 184.621 125.173 195.111 124.577C195.111 124.577 198.131 124.273 201.292 125.593C203.807 126.642 207.652 129.228 205.864 138.811L205.539 141.991L191.505 145.866Z" fill="#132644"/>
<path d="M247.98 316.954C247.98 316.954 245.356 317.407 243.204 317.571C242.726 317.607 242.271 317.63 241.875 317.63C240.838 317.63 238.97 317.238 237.715 316.947L237.621 316.926C237.069 316.796 236.65 316.688 236.494 316.647L236.427 316.629C236.427 316.629 223.347 302.051 216.011 278.68C215.839 278.135 215.658 277.585 215.469 277.03C211.452 265.308 203.127 250.596 198.742 237.276C198.044 235.155 197.416 233.158 196.856 231.27C196.675 230.666 196.498 230.07 196.332 229.487C193.1 218.241 192.164 210.858 191.301 202.969L217.677 209.687C217.674 209.687 228.749 257.746 247.98 316.954Z" fill="#FF6E92"/>
<path d="M205.132 149.038C205.132 149.038 192.365 151.834 190.748 143.848C189.13 135.861 186.394 130.845 194.476 128.722C202.558 126.598 204.764 129.323 205.952 131.858C207.14 134.393 208.41 148.105 205.132 149.038Z" fill="#FFB27D"/>
<path d="M200.273 127.348C200.273 127.348 198.653 137.427 193.55 139.898C188.447 142.369 185.82 141.397 185.82 141.397C185.82 141.397 189.288 137.281 188.991 131.377C188.991 131.377 196.729 123.424 200.273 127.348Z" fill="#132644"/>
<path d="M199.555 128.284C199.555 128.284 202.596 129.847 203.643 131.753C204.691 133.659 206.871 134.334 207.011 137.399C207.011 137.399 208.371 130.497 204.676 127.491C200.758 124.309 199.555 128.284 199.555 128.284Z" fill="#132644"/>
<path d="M193.223 324.493C193.223 324.493 193.655 327.476 192.54 330.666C192.54 330.666 191.664 334.659 195.594 334.733C199.524 334.808 200.485 334.437 200.04 331.989C199.596 329.54 198.75 325.307 198.75 325.307L193.223 324.493Z" fill="#FFB27D"/>
<path d="M192.541 330.666C192.541 330.666 191.812 334.436 192.257 336.439C192.257 336.439 193.443 337.33 196.297 337.33C199.003 337.33 200.411 336.439 200.411 336.439C200.411 336.439 200.495 332.308 199.772 330.563C199.772 330.563 196.99 334.746 192.541 330.666Z" fill="#C45446"/>
<path d="M258.4 332.388C258.4 332.388 251.158 324.34 248.935 320.247L243.551 323.009L255.589 334.327L258.405 333.956L258.4 332.388Z" fill="#FFB27D"/>
<path d="M263 337.105C263 337.105 255.219 337.105 253.886 336.956C252.552 336.81 251.479 334.879 250.032 331.986C249.442 330.801 248.113 330.149 246.754 329.791V336.493H244.697L242.752 329.371C241.469 327.013 242.65 324.874 243.552 323.009C244.602 323.007 247.426 323.726 252.774 329.76C254.532 331.74 256.474 332.449 258.401 332.39C258.426 332.408 258.454 332.421 258.48 332.433C262.926 334.434 263 337.105 263 337.105Z" fill="#C45446"/>
<path d="M243.204 317.571C242.726 317.607 242.271 317.63 241.875 317.63C240.838 317.63 238.97 317.238 237.715 316.947L237.621 316.926L236.494 316.647L236.427 316.629C236.427 316.629 223.347 302.051 216.01 278.679C215.839 278.135 215.658 277.585 215.469 277.029C211.452 265.308 203.127 250.596 198.742 237.276C198.044 235.155 197.415 233.157 196.856 231.27C196.674 230.666 196.498 230.07 196.332 229.487L200.995 225.941C200.995 225.941 215.001 248.644 219.337 270.01C222.93 287.72 238.403 310.679 243.204 317.571Z" fill="#BF647B"/>
<path d="M201.484 272.003C201.563 282.391 201.037 306.279 199.687 316.169C199.687 316.169 198.405 317.305 195.226 317.318C191.97 317.33 190.516 316.128 190.516 316.128C187.126 298.935 184.713 284.706 182.955 272.445C181.514 262.384 180.234 253.758 179.25 246.334C178.376 239.755 183.893 221.937 183.893 221.937L204.596 219.917C204.249 238.123 201.438 265.963 201.484 272.003Z" fill="#FF6E92"/>
<path d="M195.226 317.318C192.456 317.479 190.516 316.128 190.516 316.128C187.126 298.935 184.713 284.706 182.955 272.445C181.514 262.384 180.234 253.758 179.25 246.334C178.376 239.755 183.893 221.938 183.893 221.938L190.91 226.432C190.91 226.432 180.954 235.498 183.4 252.638C185.845 269.775 191.82 314.89 195.226 317.318Z" fill="#D27F94"/>
<path d="M227.836 207.586C226.543 208.021 225.084 208.277 223.643 208.487C221.348 208.822 219.107 209.039 217.676 209.687C213.447 211.608 203.188 154.902 203.188 154.902C203.188 154.902 210.654 154.973 214.083 160.381C217.51 165.789 230.851 192.506 232.037 201.068C232.568 204.918 230.575 206.66 227.836 207.586Z" fill="#1C468A"/>
<path d="M243.207 284.064C243.207 284.064 242.522 285.781 240.639 288.188C239.704 289.388 238.469 290.757 236.877 292.171C232.682 295.888 225.997 299.91 215.671 301.905C215.122 302.01 214.567 302.11 213.997 302.207C210.885 302.721 207.895 303.092 205.049 303.343C199.258 303.852 194.051 303.877 189.625 303.673C186.592 303.532 183.926 303.281 181.688 303.002C176.631 302.37 173.746 301.593 173.746 301.593C173.746 301.593 173.746 250.348 177.965 219.917C180.3 203.066 188.135 155.134 188.135 155.134L192.029 154.536L201.366 175.359L203.193 154.902L207.438 156.265C209.523 156.935 211.115 158.637 211.652 160.76L243.207 284.064Z" fill="#1C468A"/>
<path d="M213.109 205.35L191.445 203.15L194.956 171.729L216.62 173.926L213.109 205.35Z" fill="#FF6E92"/>
<path d="M194.958 171.729L193.568 171.624L190.305 203.02L191.447 203.15L194.958 171.729Z" fill="#A8868E"/>
<path d="M176.786 187.922C176.786 187.922 191.995 192.575 206.533 194.655C206.533 194.655 211.329 196.732 209.078 197.3C208.5 197.446 179.39 203.8 175.074 199.677L176.786 187.922Z" fill="#FFB27D"/>
<path d="M191.986 154.536C191.986 154.536 180.608 155.915 178.691 158.214C172.638 165.487 167.149 196.543 171.894 203.714C177.562 212.278 186.296 198.838 189.032 190.918C190.453 186.812 192.766 162.003 191.986 154.536Z" fill="#1C468A"/>
<path d="M205.102 194.443C205.102 194.443 206.89 194.276 207.228 193.703C207.905 192.56 208.978 192.575 209.872 192.424C210.767 192.273 211.771 191.294 211.947 191.491C212.124 191.688 211.288 192.767 210.82 193.171C210.82 193.171 211.779 193.23 212.415 192.926C213.049 192.624 215.279 190.076 215.29 191.173C215.315 193.813 215.111 194.236 212.852 196.1C210.997 197.633 204.703 198.203 204.703 198.203L205.102 194.443Z" fill="#FFB27D"/>
<path d="M191.956 187.236L191.514 191.698C190.811 191.547 189.991 191.299 189.035 190.918C182.795 188.418 185.256 175.999 185.256 175.999C186.227 180.966 189.354 184.804 191.956 187.236Z" fill="#233862"/>
<path d="M206.87 127.762C206.87 127.762 197.643 124.255 184.828 134.761L185.091 132.362C185.326 130.216 186.43 128.256 188.16 126.972C190.113 125.521 193.225 123.925 197.901 123.263C201.113 122.81 204.312 124.181 206.198 126.826L206.87 127.762Z" fill="#1C468A"/>
<path d="M227.837 207.586C226.544 208.021 225.085 208.277 223.643 208.487L217.656 182.036C217.656 182.033 227.732 202.368 227.837 207.586Z" fill="#233862"/>
<path d="M200.559 144.649C200.559 144.649 201.149 145.784 202.01 145.792C202.874 145.797 205.076 145.577 205.235 145.375C205.393 145.173 205.812 143.968 205.812 143.968C205.812 143.968 202.189 143.902 200.559 144.649Z" fill="white"/>
<path d="M276.254 95.4325C276.254 95.4325 278.697 93.2274 279.292 91.6823C279.888 90.1372 279.819 87.5407 279.819 85.8575C279.819 85.8575 279.083 85.5991 278.901 86.4023C278.723 87.2056 278.393 89.0628 277.716 89.4363C277.039 89.8098 275.521 89.7663 275.168 91.6823C274.818 93.6009 276.254 95.4325 276.254 95.4325Z" fill="#B56F40"/>
<path d="M270.667 95.806C270.667 95.806 268.446 91.2551 268.896 89.774C269.343 88.2928 276.168 86.6684 277.065 87.3668C277.965 88.0651 277.065 96.5684 277.065 96.5684L270.667 95.806Z" fill="#B56F40"/>
<path d="M342.451 232.892C342.451 232.892 342.123 236.647 343.429 238.445C344.735 240.241 345.443 241.876 345.877 241.057C346.312 240.241 345.169 237.409 345.55 237.463C345.931 237.517 346.986 240.84 347.52 241.873C348.052 242.907 349.194 244.541 349.955 243.725C350.717 242.909 349.248 235.178 348.65 234.199C348.052 233.219 346.8 231.042 346.8 231.042L342.451 232.892Z" fill="#B56F40"/>
<path d="M295.547 119.656L321.511 105.033L338.959 126.675L315.184 138.223L295.547 119.656Z" fill="#5A5BAE"/>
<path d="M306.452 126.55C306.452 126.55 305.907 128.883 304.387 129.712C302.864 130.541 305.258 132.784 304.658 134.439C304.06 136.094 306.474 138.223 306.474 138.223L323.245 140.157C323.245 140.157 325.703 139.09 325.92 136.204C326.138 133.319 326.396 129.714 326.396 129.714L319.07 124.117L308.519 124.616L306.452 126.55Z" fill="#C94C43"/>
<path d="M250.103 98.5562C250.103 98.5562 249.328 96.7348 248.787 94.7497C248.544 93.8364 248.342 92.8925 248.294 92.0713C248.265 91.6057 248.283 91.1862 248.37 90.8332C248.37 90.8332 269.988 86.3615 272.109 85.4995C274.23 84.6374 292.825 78.4006 292.825 78.4006C292.825 78.4006 293.461 79.695 294.051 81.4627C294.269 82.1202 294.481 82.8492 294.649 83.5962C294.959 84.9776 295.122 86.4434 294.913 87.7148C294.913 87.7148 273.008 90.319 270.739 91.4087C268.473 92.4959 250.103 98.5562 250.103 98.5562Z" fill="#EFCBAB"/>
<path d="M248.787 94.7497C248.544 93.8364 248.342 92.8925 248.294 92.0713C248.265 91.6057 248.283 91.1862 248.37 90.8332C248.37 90.8332 269.988 86.3615 272.109 85.4995C274.23 84.6374 292.825 78.4006 292.825 78.4006C292.825 78.4006 293.461 79.695 294.051 81.4627C294.269 82.1202 294.481 82.8492 294.649 83.5962C288.481 84.3534 271.751 86.4869 269.671 87.482C267.655 88.4515 254.301 92.9206 248.787 94.7497Z" fill="#DDB08E"/>
<path d="M275.782 84.1873C275.782 84.1873 270.012 84.7475 267.922 86.6021L269.143 92.0509C269.143 92.0509 274.446 91.5112 277.108 90.1068L275.782 84.1873Z" fill="#C94C43"/>
<path d="M281.023 336.202C281.023 336.202 281.023 332.725 281.519 331.571C282.015 330.415 283.829 325.711 283.829 325.711H290.92C290.92 325.711 292.239 330.003 292.323 331.408C292.405 332.812 292.323 336.204 292.323 336.204H281.023V336.202Z" fill="#233862"/>
<path d="M326.051 336.202C326.051 336.202 326.051 332.725 325.555 331.571C325.059 330.415 323.245 325.711 323.245 325.711H316.154C316.154 325.711 314.836 330.003 314.751 331.408C314.669 332.812 314.751 336.204 314.751 336.204H326.051V336.202Z" fill="#233862"/>
<path d="M308.311 140.553C308.311 140.553 306.888 148.163 305.383 151.44L296.812 155.654L308.807 179.393L325.279 164.507L319.808 153.825C319.808 153.825 319.287 143.247 320.97 139.622C322.652 135.997 308.311 140.553 308.311 140.553Z" fill="#B56F40"/>
<path d="M308.105 141.604C308.105 141.602 309.557 147.511 313.914 148.059C318.273 148.603 320.016 143.843 320.016 143.843L308.105 141.604Z" fill="#99592E"/>
<path d="M313.748 145.836C310.613 145.296 305.469 140.213 306.266 135.022L307.511 126.921C307.802 125.025 309.361 123.677 310.973 123.925L322.97 125.772C324.583 126.02 325.666 127.775 325.375 129.671L324.2 137.312C323.364 142.758 317.344 146.455 313.748 145.836Z" fill="#B56F40"/>
<path d="M281.912 215.839C281.889 214.892 283.146 253.495 281.296 275.41C279.471 297.054 281.309 327.169 281.309 327.169C281.309 327.169 287.242 330.443 293.674 327.169C293.674 327.169 300.726 285.359 300.683 275.41C300.634 264.814 308.359 217.494 308.359 217.494L281.912 215.839Z" fill="#6FAFEA"/>
<path d="M325.793 327.166C325.793 327.166 319.862 330.443 313.43 327.166C313.43 327.166 306.377 285.359 306.421 275.408C306.441 270.933 305.074 259.905 303.49 248.662C301.32 233.28 298.742 217.494 298.742 217.494L326.219 215.775C326.219 215.775 323.953 253.768 325.808 275.41C327.663 297.049 325.793 327.166 325.793 327.166Z" fill="#6FAFEA"/>
<path d="M311.173 135.57C310.003 135.388 307.698 134.769 307.601 132.666C307.57 132.029 307.772 131.5 308.181 131.132C308.63 130.727 309.297 130.556 310.008 130.666L313.608 131.221C314.293 131.326 314.74 131.597 314.94 132.027C315.274 132.748 314.789 133.679 314.566 134.045C313.8 135.299 312.931 135.808 311.835 135.642C311.789 135.639 311.536 135.624 311.173 135.57ZM309.972 130.904C309.333 130.807 308.738 130.952 308.342 131.311C307.989 131.628 307.815 132.093 307.841 132.656C307.892 133.733 308.572 134.524 309.867 135.002C310.854 135.365 311.84 135.404 311.85 135.404L311.863 135.406C312.854 135.56 313.649 135.089 314.359 133.925C314.518 133.664 315.014 132.766 314.72 132.132C314.556 131.781 314.17 131.556 313.57 131.464L309.972 130.904Z" fill="#2C3A64"/>
<path d="M319.478 136.849C319.116 136.793 318.87 136.731 318.824 136.719C317.728 136.547 317.054 135.803 316.698 134.375C316.594 133.958 316.412 132.925 316.946 132.336C317.266 131.989 317.774 131.863 318.459 131.971L322.059 132.526C322.77 132.636 323.355 132.996 323.662 133.518C323.94 133.992 323.973 134.56 323.754 135.156C323.033 137.13 320.649 137.028 319.478 136.849ZM318.423 132.206C317.823 132.114 317.386 132.211 317.125 132.498C316.655 133.014 316.857 134.02 316.931 134.316C317.26 135.642 317.876 136.33 318.868 136.481L318.881 136.483C318.891 136.486 319.844 136.749 320.892 136.698C322.271 136.632 323.158 136.084 323.529 135.071C323.723 134.544 323.697 134.048 323.455 133.639C323.184 133.178 322.662 132.858 322.024 132.761L318.423 132.206Z" fill="#2C3A64"/>
<path d="M314.49 133.063C314.436 133.055 314.39 133.017 314.372 132.961C314.352 132.884 314.395 132.805 314.472 132.784C314.536 132.766 316.046 132.352 317.193 133.206C317.257 133.255 317.27 133.344 317.221 133.406C317.175 133.47 317.083 133.482 317.02 133.436C315.982 132.664 314.561 133.055 314.546 133.06C314.531 133.065 314.51 133.068 314.49 133.063Z" fill="#2C3A64"/>
<path d="M311.316 155.638L303.2 152.118C303.2 152.118 299.005 185.528 304.606 187.597C304.606 187.597 320.589 159.179 319.503 155.531L311.316 155.638Z" fill="white"/>
<path d="M306.182 150C306.182 150 303.895 150.394 302.699 151.538C302.699 151.538 304.439 157.199 309.062 158.887L311.045 155.638C311.045 155.638 307.273 153.853 306.182 150Z" fill="#D2E3FC"/>
<path d="M311.043 155.638C311.043 155.638 318.604 155.347 319.731 151.701C319.731 151.701 321.241 153.28 321.185 155.838C321.185 155.838 318.793 159.455 312.811 159.496L311.043 155.638Z" fill="#D2E3FC"/>
<path d="M311.676 140.154C311.676 140.154 315.698 140.333 317.474 141.047C317.474 141.047 316.247 142.505 314.64 142.257C313.035 142.011 311.911 141.236 311.676 140.154Z" fill="#FFF0E6"/>
<path d="M283.191 128.289C279.542 130.592 274.559 133.71 270.491 136.176C270.291 135.488 270.143 134.864 270.059 134.319C268.712 125.708 270.67 95.8062 270.67 95.8062C270.67 95.8062 272.026 95.1232 273.427 95.0055C276.074 94.7881 277.071 96.566 277.071 96.566C277.071 96.566 281.68 122.874 283.191 128.289Z" fill="#B56F40"/>
<path d="M347.809 232.288L345.057 233.434C340.657 235.002 335.909 232.886 334.468 228.438C332.531 222.442 332.329 215.982 331.611 210.666C331.258 208.052 330.85 202.662 329.268 198.464C329.265 198.462 329.265 198.459 329.265 198.459L332.03 291.404C290.593 294.343 270.378 270.499 270.378 270.499C269.308 245.337 279.35 188.641 283.012 168.992C281.246 165.001 268.712 153.543 266.617 142.293C265.643 137.069 268.692 133.372 272.394 130.878C277.053 127.734 282.746 126.494 282.746 126.494L296.138 144.416C296.708 145.061 297.109 145.567 297.265 145.887C298.298 147.992 303.661 151.489 303.661 151.489C303.646 151.599 304.239 181.706 305.33 182.665C306.906 182.067 317.475 160.888 319.808 153.83C323.173 154.756 326.805 156.012 330.635 157.703C330.635 157.703 337.887 161.578 338.914 178.47C339.785 192.793 348.527 211.073 350.51 227.686C350.743 229.645 349.639 231.531 347.809 232.288Z" fill="#403082"/>
<path d="M302.156 150.445C302.156 150.445 303.135 179.636 304.384 186.942L322.979 154.776L320.416 153.827L305.721 180.483L304.269 151.484L302.156 150.445Z" fill="#FF6E92"/>
<path d="M306.182 149.31C306.182 149.31 303.895 149.704 302.699 150.847C302.699 150.847 304.439 156.508 309.062 158.197L311.045 155.638C311.045 155.638 307.273 153.165 306.182 149.31Z" fill="white"/>
<path d="M311.043 155.638C311.043 155.638 318.604 154.659 319.731 151.011C319.731 151.011 321.241 152.589 321.185 155.147C321.185 155.147 318.793 158.764 312.811 158.805L311.043 155.638Z" fill="white"/>
<path d="M301.324 191.437C302.083 191.437 302.699 190.821 302.699 190.061C302.699 189.301 302.083 188.684 301.324 188.684C300.565 188.684 299.949 189.301 299.949 190.061C299.949 190.821 300.565 191.437 301.324 191.437Z" fill="#233862"/>
<path d="M297.367 202.442C297.367 201.682 297.983 201.066 298.742 201.066C299.501 201.066 300.117 201.682 300.117 202.442C300.117 203.202 299.501 203.816 298.742 203.816C297.983 203.816 297.367 203.202 297.367 202.442Z" fill="#233862"/>
<path d="M297.426 133.357L297.883 132.925C293.284 128.067 295.423 121.607 295.995 120.144C296.069 119.957 296.023 119.745 295.88 119.602C295.737 119.459 295.494 119.512 295.423 119.702C294.779 121.408 292.627 128.289 297.426 133.357Z" fill="#EFCBAB"/>
<path d="M297.883 132.922L298.622 133.349L297.819 134.083L297.426 133.357L297.883 132.922Z" fill="#D8A987"/>
<path d="M298.62 133.349C298.62 133.349 299.476 134.224 299.857 134.063C299.857 134.063 299.382 134.938 298.888 134.956C298.888 134.956 298.053 134.511 297.82 134.081L298.62 133.349Z" fill="#EFCBAB"/>
<path d="M306.871 128.307C306.871 128.307 310.091 128.525 311.044 126.893C311.044 126.893 313.661 127.545 314.813 126.565C314.813 126.565 318.848 127.381 318.958 125.749C318.958 125.749 322.042 131.927 325.42 130.635C328.801 129.343 320.013 123.081 320.013 123.081L308.514 124.616L306.871 128.307Z" fill="#C94C43"/>
<path d="M307.109 123.679L306.449 126.55C306.449 126.55 315.431 123.357 326.393 129.712L326.266 125.089C326.24 124.186 325.829 123.337 325.134 122.764C323.151 121.129 318.408 117.919 309.628 120.474C308.396 120.83 307.395 122.431 307.109 123.679Z" fill="#1C468A"/>
<path d="M267.86 88.2851C267.827 88.1086 267.236 86.8705 268.046 85.7219C268.856 84.5733 274.176 82.8158 274.672 83.7444C275.168 84.673 274.854 87.8963 273.144 88.61C271.435 89.3237 267.99 89.0014 267.86 88.2851Z" fill="#B56F40"/>
<path d="M283.012 168.987C281.246 164.996 268.712 153.538 266.617 142.287C265.643 137.064 268.692 133.367 272.394 130.873C272.394 130.873 270.659 138.773 275.581 145.902C280.505 153.034 283.012 168.987 283.012 168.987Z" fill="#233862"/>
<path d="M345.055 233.434C340.655 235.002 335.907 232.886 334.466 228.438C332.529 222.441 332.327 215.982 331.609 210.666C331.256 208.052 330.847 202.662 329.266 198.464C329.414 198.697 334.182 206.241 338.465 218.453C342.816 230.858 341.457 232.666 345.055 233.434Z" fill="#233862"/>
<path d="M381.354 335.997H357.983C356.731 334.933 358.849 332.518 361.064 332.357C362.025 332.285 363.242 332.485 364.632 332.779C364.954 328.502 366.791 309.28 373.711 310.052C381.494 310.917 373.711 318.517 371.51 323.017C369.88 326.35 368.16 331.129 367.376 333.385C368.007 333.523 368.661 333.656 369.331 333.779C370.363 330.609 374.201 319.942 379.082 320.564C384.813 321.29 382.509 325.567 378.448 328.105C375.469 329.972 371.809 332.625 370.069 333.907C371.541 334.147 373.079 334.311 374.641 334.273C378.642 334.181 380.597 335.362 381.354 335.997Z" fill="#82B378"/>
<path d="M171.069 335.997C171.069 335.997 160.291 306.366 152.724 308.891C145.158 311.416 171.069 335.997 171.069 335.997Z" fill="#82B378"/>
<path d="M166.941 335.997C166.024 335.997 148.827 318.131 147.679 322.807C146.532 327.486 166.941 335.997 166.941 335.997Z" fill="#82B378"/>
<path d="M185.285 335.997C185.285 335.997 178.174 329.468 169.166 331.167C160.161 332.866 156.316 334.728 150.658 333.441C145.003 332.155 142.113 335.997 142.113 335.997H185.285Z" fill="#82B378"/>
<path d="M378.861 168.108C378.861 168.108 376.078 170.204 372.866 170.03C370.482 169.899 368.042 167.809 367.945 167.668L366.207 171.048C366.207 171.048 370.653 173.473 374.328 172.58C375.455 172.306 377.243 171.091 378.036 170.206C378.907 169.234 378.861 168.108 378.861 168.108Z" fill="#6BB7BF"/>
<path d="M378.465 161.255L383.126 159.063C383.126 159.063 382.934 168.981 374.91 172.383C374.91 172.383 379.752 165.376 378.465 161.255Z" fill="#86D1CD"/>
<path d="M60.3674 135.07C60.3674 135.07 57.5846 137.165 54.3726 136.992C51.9885 136.861 49.5482 134.771 49.4511 134.63L47.7109 138.01C47.7109 138.01 52.1572 140.435 55.8317 139.542C56.9586 139.268 58.7473 138.053 59.5395 137.168C60.4134 136.193 60.3674 135.07 60.3674 135.07Z" fill="#6BB7BF"/>
<path d="M59.9724 128.217L64.6333 126.025C64.6333 126.025 64.4417 135.943 56.418 139.345C56.418 139.343 61.2603 132.336 59.9724 128.217Z" fill="#86D1CD"/>
<path d="M206.711 77.159C206.711 77.159 213.482 72.4495 218.567 79.4715L224.151 77.0669C224.151 77.0669 221.394 72.7078 210.572 74.6418C203.491 75.9029 206.711 77.159 206.711 77.159Z" fill="#5685D8"/>
<path d="M200.043 81.7662C200.043 81.7662 201.888 74.1455 215.779 74.1455C215.779 74.1455 210.573 74.6392 206.508 81.4029L200.043 81.7662Z" fill="#739AF0"/>
<path d="M373.141 89.0083C373.141 89.0083 379.912 84.2988 384.997 91.3209L390.581 88.9162C390.581 88.9162 387.823 84.5572 377.002 86.4911C369.921 87.7523 373.141 89.0083 373.141 89.0083Z" fill="#5685D8"/>
<path d="M366.473 93.6155C366.473 93.6155 368.318 85.9949 382.208 85.9949C382.208 85.9949 377.003 86.4886 372.938 93.2523L366.473 93.6155Z" fill="#739AF0"/>
<path d="M162.313 107.767C162.313 107.767 158.572 105.401 158.178 102.543C158.178 102.543 154.537 102.74 153.75 103.922C153.75 103.922 155.424 108.652 157.391 109.54C157.391 109.54 161.82 109.837 162.313 107.767Z" fill="#ED7D2B"/>
<path d="M331.18 86.2386C331.18 86.2386 327.439 83.8723 327.046 81.0149C327.046 81.0149 323.404 81.2118 322.617 82.3937C322.617 82.3937 324.291 87.1237 326.259 88.0114C326.259 88.0114 330.69 88.3081 331.18 86.2386Z" fill="#ED7D2B"/>
<path d="M353.372 277.31C353.372 277.31 349.631 274.943 349.237 272.086C349.237 272.086 345.596 272.283 344.809 273.465C344.809 273.465 346.482 278.195 348.45 279.082C348.45 279.082 352.881 279.379 353.372 277.31Z" fill="#ED7D2B"/>
<path d="M28.292 203.557C28.292 203.557 24.551 201.191 24.1575 198.333C24.1575 198.333 20.5162 198.53 19.7266 199.712C19.7266 199.712 21.4003 204.442 23.3679 205.33C23.3704 205.33 27.8013 205.626 28.292 203.557Z" fill="#ED7D2B"/>
</svg>
