<svg width="284" height="180" viewBox="0 0 284 180" fill="none" xmlns="http://www.w3.org/2000/svg">
<rect width="284" height="180" rx="12" fill="#F2F7FC"/>
<g clip-path="url(#clip0_11488_134172)">
<g opacity="0.7">
<path opacity="0.7" d="M209.538 31.9109H170.33V78.6444H209.538V31.9109Z" fill="#D7E1EA"/>
<path opacity="0.7" d="M209.538 78.6443H210.81V31.9109H209.538V78.6443Z" fill="#D7E1EA"/>
<path opacity="0.05" d="M209.538 78.6443H210.81V31.9109H209.538V78.6443Z" fill="#007CFF"/>
<path opacity="0.05" d="M202.395 41.259H177.472V69.2968H202.395V41.259Z" fill="#007CFF"/>
<path opacity="0.03" d="M202.396 41.259H201.097V69.2968H202.396V41.259Z" fill="#007CFF"/>
<path opacity="0.7" d="M241.603 91.2639H209.538V123.803H241.603V91.2639Z" fill="#D7E1EA"/>
<path opacity="0.05" d="M235.762 97.1912H215.379V117.875H235.762V97.1912Z" fill="#007CFF"/>
<path opacity="0.7" d="M241.603 123.803H242.875V91.2638H241.603V123.803Z" fill="#D7E1EA"/>
<path opacity="0.05" d="M241.603 123.803H242.875V91.2638H241.603V123.803Z" fill="#007CFF"/>
<path opacity="0.03" d="M235.762 97.1912H234.463V117.875H235.762V97.1912Z" fill="#007CFF"/>
</g>
<g opacity="0.7">
<path opacity="0.7" d="M137.749 30.0818H45.4429V122.899H137.749V30.0818Z" fill="#D7E1EA"/>
<path opacity="0.7" d="M45.4433 30.0818H44.3853V122.899H45.4433V30.0818Z" fill="#D7E1EA"/>
<path opacity="0.05" d="M45.4433 30.0818H44.3853V122.899H45.4433V30.0818Z" fill="#007CFF"/>
<path opacity="0.05" d="M67.8046 94.0405V69.7566H87.5872V83.8649H118.23V108.846H131.254V122.899H118.23H115.722H49.8833V94.0405H67.8046Z" fill="#007CFF"/>
<g opacity="0.7">
<path opacity="0.34" d="M85.048 72.3932H70.6421V75.0298H85.048V72.3932Z" fill="white"/>
<path opacity="0.34" d="M85.048 77.8571H70.6421V80.4937H85.048V77.8571Z" fill="white"/>
<path opacity="0.34" d="M85.048 83.3208H70.6421V85.9574H85.048V83.3208Z" fill="white"/>
</g>
<g opacity="0.7">
<path opacity="0.34" d="M55.0931 96.5999H52.438V99.2365H55.0931V96.5999Z" fill="white"/>
<path opacity="0.34" d="M55.0931 102.064H52.438V104.7H55.0931V102.064Z" fill="white"/>
<path opacity="0.34" d="M55.0931 107.527H52.438V110.164H55.0931V107.527Z" fill="white"/>
<path opacity="0.34" d="M60.0052 96.5999H57.3501V99.2365H60.0052V96.5999Z" fill="white"/>
<path opacity="0.34" d="M60.0052 102.064H57.3501V104.7H60.0052V102.064Z" fill="white"/>
<path opacity="0.34" d="M60.0052 107.527H57.3501V110.164H60.0052V107.527Z" fill="white"/>
<path opacity="0.34" d="M64.7845 96.5999H62.1294V99.2365H64.7845V96.5999Z" fill="white"/>
<path opacity="0.34" d="M64.7845 102.064H62.1294V104.7H64.7845V102.064Z" fill="white"/>
<path opacity="0.34" d="M64.7845 107.527H62.1294V110.164H64.7845V107.527Z" fill="white"/>
</g>
<path opacity="0.7" d="M45.4429 75.9698H64.0164V30.0818H65.5524V75.9698H115.721V30.0818H117.258V75.9698H137.749V77.5144H117.258V122.899H115.721V77.5144H65.5524V122.899H64.0164V77.5144H45.4429V75.9698Z" fill="white"/>
<path opacity="0.7" d="M141.426 122.787H41.7661V125.874H141.426V122.787Z" fill="#D7E1EA"/>
<path opacity="0.1" d="M141.426 122.787H41.7661V125.874H141.426V122.787Z" fill="#007CFF"/>
<path opacity="0.1" d="M41.7659 122.787H40.3271V125.874H41.7659V122.787Z" fill="#007CFF"/>
<path opacity="0.1" d="M41.7659 122.787H40.3271V125.874H41.7659V122.787Z" fill="#007CFF"/>
</g>
<path d="M55.2621 53.991H189.604C191.539 53.991 193.395 54.764 194.763 56.14C196.131 57.5159 196.9 59.3821 196.9 61.328V123.404C196.9 125.392 196.115 127.299 194.717 128.705C193.318 130.111 191.422 130.9 189.445 130.9H55.421C53.4438 130.9 51.5475 130.111 50.1494 128.705C48.7513 127.299 47.9658 125.392 47.9658 123.404V61.3271C47.966 59.3814 48.7348 57.5155 50.1031 56.1398C51.4714 54.764 53.3271 53.9911 55.2621 53.991Z" fill="white"/>
<path d="M189.445 131.185H55.4212C53.3688 131.185 51.4004 130.365 49.9492 128.906C48.4979 127.447 47.6826 125.467 47.6826 123.404V61.0422C47.6828 59.0965 48.4515 57.2305 49.8198 55.8547C51.1881 54.479 53.0439 53.7061 54.9789 53.7061H189.887C191.822 53.7061 193.678 54.479 195.046 55.8549C196.415 57.2308 197.184 59.0969 197.184 61.0428V123.404C197.184 125.467 196.368 127.447 194.917 128.906C193.466 130.365 191.497 131.185 189.445 131.185ZM48.2493 61.3148V123.404C48.2493 124.351 48.4347 125.288 48.7951 126.163C49.1556 127.038 49.6838 127.833 50.3498 128.503C51.0158 129.173 51.8064 129.704 52.6766 130.066C53.5467 130.429 54.4793 130.615 55.4212 130.615H189.445C191.347 130.615 193.171 129.855 194.516 128.503C195.861 127.15 196.617 125.316 196.617 123.404V61.2436C196.617 60.3285 196.437 59.4224 196.089 58.5769C195.741 57.7315 195.23 56.9634 194.586 56.3163C193.943 55.6693 193.179 55.1561 192.338 54.806C191.497 54.4559 190.596 54.2758 189.686 54.2759H55.25C53.3934 54.2759 51.6128 55.0175 50.3 56.3375C48.9871 57.6576 48.2494 59.448 48.2493 61.3148Z" fill="#007CFF"/>
<path d="M76.8571 87.358H60.5768C59.6694 87.3569 58.7995 86.994 58.1579 86.3489C57.5163 85.7037 57.1553 84.829 57.1543 83.9166V67.546C57.1553 66.6336 57.5162 65.7588 58.1578 65.1136C58.7994 64.4684 59.6693 64.1054 60.5768 64.1043H76.8571C77.7646 64.1054 78.6345 64.4683 79.2762 65.1136C79.9179 65.7588 80.2788 66.6336 80.2799 67.546V83.9166C80.2788 84.829 79.9179 85.7038 79.2762 86.349C78.6345 86.9941 77.7645 87.357 76.8571 87.358ZM60.5768 64.675C59.8196 64.6759 59.0937 64.9788 58.5583 65.5172C58.0229 66.0556 57.7218 66.7855 57.721 67.5469V83.9174C57.7218 84.6788 58.0229 85.4087 58.5583 85.947C59.0937 86.4854 59.8196 86.7882 60.5768 86.789H76.8571C77.6143 86.7882 78.3402 86.4854 78.8756 85.9471C79.4111 85.4087 79.7123 84.6788 79.7132 83.9174V67.546C79.7123 66.7846 79.4111 66.0547 78.8757 65.5163C78.3402 64.9779 77.6143 64.6751 76.8571 64.6742L60.5768 64.675Z" fill="#007CFF"/>
<path d="M76.8571 119.792H60.5768C59.6694 119.79 58.7995 119.428 58.1579 118.782C57.5163 118.137 57.1553 117.263 57.1543 116.35V99.9796C57.1553 99.0672 57.5163 98.1924 58.1579 97.5473C58.7995 96.9021 59.6694 96.5392 60.5768 96.5381H76.8571C77.7645 96.5391 78.6345 96.902 79.2762 97.5472C79.9179 98.1923 80.2788 99.0671 80.2799 99.9796V116.35C80.2788 117.263 79.9179 118.137 79.2762 118.782C78.6345 119.428 77.7645 119.791 76.8571 119.792ZM60.5768 97.108C59.8196 97.1088 59.0937 97.4116 58.5583 97.95C58.0229 98.4883 57.7218 99.2182 57.721 99.9796V116.35C57.7218 117.111 58.0229 117.841 58.5583 118.38C59.0937 118.918 59.8196 119.221 60.5768 119.222H76.8571C77.6143 119.221 78.3402 118.918 78.8756 118.38C79.4111 117.841 79.7123 117.111 79.7132 116.35V99.9796C79.7123 99.2182 79.4111 98.4883 78.8756 97.9499C78.3402 97.4116 77.6143 97.1088 76.8571 97.108H60.5768Z" fill="#007CFF"/>
<path d="M65.8207 82.2805C65.5278 82.2807 65.2462 82.1666 65.0352 81.9623L60.2899 77.3753C60.1826 77.2716 60.0966 77.1476 60.037 77.0105C59.9773 76.8734 59.9451 76.7258 59.9421 76.5762C59.9392 76.4265 59.9656 76.2778 60.0198 76.1384C60.074 75.999 60.155 75.8717 60.2582 75.7638C60.3613 75.6559 60.4846 75.5695 60.6209 75.5095C60.7573 75.4495 60.904 75.4171 61.0529 75.4141C61.2017 75.4112 61.3496 75.4377 61.4882 75.4922C61.6268 75.5468 61.7534 75.6282 61.8607 75.7319L65.8014 79.5414L75.6789 69.5184C75.8912 69.3072 76.1777 69.1888 76.4763 69.189C76.7749 69.1891 77.0614 69.3077 77.2735 69.519C77.4856 69.7303 77.6063 70.0172 77.6092 70.3175C77.6121 70.6177 77.4971 70.907 77.2891 71.1224L66.6256 81.9418C66.5205 82.0491 66.3952 82.1343 66.257 82.1925C66.1188 82.2506 65.9705 82.2806 65.8207 82.2805Z" fill="#0063CC"/>
<path d="M184.659 70.6623H89.1775C88.7408 70.6623 88.3867 71.0183 88.3867 71.4575C88.3867 71.8967 88.7408 72.2527 89.1775 72.2527H184.659C185.096 72.2527 185.45 71.8967 185.45 71.4575C185.45 71.0183 185.096 70.6623 184.659 70.6623Z" fill="#1F1F1F"/>
<path d="M150.659 79.2096H89.1775C88.7408 79.2096 88.3867 79.5656 88.3867 80.0047C88.3867 80.4439 88.7408 80.7999 89.1775 80.7999H150.659C151.095 80.7999 151.449 80.4439 151.449 80.0047C151.449 79.5656 151.095 79.2096 150.659 79.2096Z" fill="#1F1F1F"/>
<path d="M184.659 103.096H89.1775C88.7408 103.096 88.3867 103.452 88.3867 103.891C88.3867 104.33 88.7408 104.686 89.1775 104.686H184.659C185.096 104.686 185.45 104.33 185.45 103.891C185.45 103.452 185.096 103.096 184.659 103.096Z" fill="#1F1F1F"/>
<path d="M150.659 111.643H89.1775C88.7408 111.643 88.3867 111.999 88.3867 112.438C88.3867 112.877 88.7408 113.233 89.1775 113.233H150.659C151.095 113.233 151.449 112.877 151.449 112.438C151.449 111.999 151.095 111.643 150.659 111.643Z" fill="#1F1F1F"/>
<path d="M248.299 159.879H34.0057C33.9634 159.879 33.9228 159.862 33.8929 159.832C33.863 159.801 33.8462 159.761 33.8462 159.718C33.8462 159.676 33.863 159.635 33.8929 159.605C33.9228 159.575 33.9634 159.558 34.0057 159.558H248.299C248.342 159.558 248.382 159.575 248.412 159.605C248.442 159.635 248.459 159.676 248.459 159.718C248.459 159.761 248.442 159.801 248.412 159.832C248.382 159.862 248.342 159.879 248.299 159.879Z" fill="#007CFF"/>
<path d="M221.935 129.85C221.875 129.85 221.817 129.825 221.774 129.783C221.453 129.46 220.93 123.537 219.52 105.901C218.943 98.6856 218.398 91.87 218.001 87.7278C217.972 87.4319 217.859 87.3976 217.821 87.3863C217.277 87.2211 215.622 88.5336 214.698 89.6827C214.679 89.7061 214.655 89.7255 214.629 89.7399C214.603 89.7543 214.574 89.7633 214.544 89.7665C214.515 89.7696 214.484 89.7669 214.456 89.7583C214.427 89.7498 214.4 89.7357 214.377 89.7167C214.354 89.6978 214.334 89.6745 214.32 89.648C214.306 89.6216 214.297 89.5926 214.294 89.5626C214.291 89.5327 214.293 89.5025 214.302 89.4736C214.31 89.4447 214.324 89.4179 214.343 89.3945C214.954 88.6347 216.946 86.6428 217.952 86.9473C218.155 87.0087 218.408 87.1861 218.455 87.6838C218.853 91.8295 219.397 98.6471 219.974 105.865C220.831 116.581 221.801 128.722 222.12 129.487C222.145 129.521 222.159 129.561 222.162 129.603C222.166 129.645 222.157 129.687 222.138 129.725C222.119 129.763 222.09 129.794 222.054 129.816C222.018 129.838 221.977 129.85 221.935 129.85Z" fill="#6C6C6C"/>
<path d="M217.415 95.3285C221.197 92.2807 222.45 87.5369 220.214 84.7329C217.979 81.9289 213.102 82.1265 209.321 85.1742C205.539 88.222 204.286 92.9658 206.521 95.7698C208.757 98.5738 213.634 98.3762 217.415 95.3285Z" fill="#0063CC"/>
<path opacity="0.2" d="M217.415 95.3285C221.197 92.2807 222.45 87.5369 220.214 84.7329C217.979 81.9289 213.102 82.1265 209.321 85.1742C205.539 88.222 204.286 92.9658 206.521 95.7698C208.757 98.5738 213.634 98.3762 217.415 95.3285Z" fill="white"/>
<path d="M207.581 96.4828C207.56 96.4828 207.539 96.4766 207.52 96.4649C207.502 96.4532 207.488 96.4366 207.479 96.4169C207.469 96.3972 207.466 96.3753 207.469 96.3538C207.471 96.3322 207.48 96.3119 207.494 96.2952L218.27 83.228C218.28 83.2161 218.291 83.2062 218.305 83.199C218.318 83.1917 218.333 83.1871 218.348 83.1856C218.363 83.1841 218.378 83.1856 218.392 83.19C218.407 83.1945 218.42 83.2018 218.432 83.2115C218.444 83.2212 218.453 83.2332 218.46 83.2467C218.467 83.2602 218.471 83.2749 218.473 83.2901C218.474 83.3052 218.472 83.3205 218.467 83.335C218.463 83.3494 218.455 83.3628 218.445 83.3744L207.669 96.4416C207.658 96.4545 207.645 96.4649 207.63 96.472C207.615 96.4792 207.598 96.4829 207.581 96.4828Z" fill="white"/>
<path d="M224.285 127.048C224.249 127.048 224.213 127.039 224.181 127.023C224.149 127.006 224.121 126.982 224.1 126.952C224.079 126.922 224.065 126.888 224.06 126.851C224.055 126.815 224.058 126.778 224.07 126.744L228.118 115.038C228.237 114.694 228.44 114.386 228.709 114.141C228.977 113.897 229.302 113.724 229.654 113.638C230.006 113.553 230.374 113.557 230.724 113.652C231.074 113.747 231.394 113.928 231.657 114.179L233.796 116.236C233.84 116.278 233.865 116.335 233.867 116.396C233.868 116.457 233.846 116.516 233.804 116.56C233.762 116.604 233.705 116.629 233.644 116.63C233.584 116.632 233.525 116.609 233.482 116.567L231.342 114.511C231.135 114.313 230.882 114.17 230.606 114.095C230.329 114.021 230.039 114.017 229.761 114.085C229.483 114.152 229.227 114.288 229.015 114.481C228.803 114.674 228.643 114.918 228.548 115.189L224.501 126.894C224.485 126.939 224.456 126.978 224.417 127.006C224.379 127.033 224.333 127.048 224.285 127.048Z" fill="#6C6C6C"/>
<path d="M239.776 122.716C242.578 120.486 242.412 115.58 239.404 111.759C236.396 107.939 231.686 106.649 228.884 108.88C226.082 111.11 226.248 116.016 229.256 119.836C232.264 123.657 236.974 124.946 239.776 122.716Z" fill="#0063CC"/>
<path d="M220.096 129.103C220.045 129.103 219.995 129.086 219.955 129.054C219.915 129.022 219.886 128.977 219.874 128.927L213.082 100.367C213.035 100.172 212.936 99.9943 212.796 99.8525C212.655 99.7106 212.478 99.6105 212.285 99.5631C212.092 99.5157 211.889 99.5229 211.699 99.5839C211.51 99.6449 211.34 99.7574 211.21 99.9088L209.116 102.342C209.077 102.388 209.02 102.416 208.96 102.421C208.9 102.425 208.84 102.405 208.795 102.365C208.749 102.326 208.721 102.269 208.716 102.209C208.712 102.148 208.732 102.088 208.771 102.042L210.865 99.6089C211.051 99.3937 211.291 99.234 211.561 99.1475C211.83 99.0609 212.118 99.0508 212.393 99.1183C212.668 99.1857 212.919 99.3282 213.119 99.5299C213.319 99.7316 213.459 99.9847 213.525 100.261L220.318 128.821C220.326 128.855 220.326 128.89 220.319 128.924C220.311 128.958 220.296 128.99 220.275 129.017C220.254 129.044 220.226 129.066 220.195 129.081C220.164 129.096 220.13 129.104 220.096 129.104V129.103Z" fill="#6C6C6C"/>
<path d="M217.456 108.691C218.28 103.891 216.094 99.5048 212.574 98.8939C209.053 98.283 205.532 101.679 204.708 106.479C203.884 111.278 206.07 115.665 209.59 116.276C213.111 116.887 216.632 113.491 217.456 108.691Z" fill="#0063CC"/>
<path d="M221.935 129.85C221.926 129.85 221.916 129.849 221.907 129.848C221.877 129.844 221.849 129.835 221.823 129.82C221.797 129.805 221.774 129.785 221.755 129.761C221.737 129.738 221.723 129.71 221.715 129.681C221.707 129.652 221.705 129.622 221.709 129.592L226.046 94.1782C226.094 93.7924 226.251 93.4286 226.499 93.1304C226.747 92.8322 227.075 92.6124 227.444 92.4973C227.813 92.3823 228.208 92.377 228.58 92.482C228.952 92.5869 229.286 92.7978 229.542 93.0892L234.5 98.7357C234.54 98.7813 234.561 98.841 234.557 98.9016C234.553 98.9623 234.526 99.0191 234.48 99.0593C234.435 99.0996 234.376 99.1201 234.315 99.1163C234.255 99.1126 234.198 99.0849 234.158 99.0393L229.2 93.3928C229.003 93.1676 228.745 93.0046 228.457 92.9234C228.169 92.8422 227.864 92.8463 227.579 92.9352C227.294 93.0241 227.04 93.1939 226.848 93.4244C226.657 93.6548 226.535 93.936 226.499 94.2341L222.161 129.648C222.154 129.704 222.128 129.755 222.086 129.792C222.044 129.829 221.991 129.849 221.935 129.85Z" fill="#6C6C6C"/>
<path d="M239.586 101.874C241.316 98.7292 239.28 94.2679 235.04 91.9093C230.799 89.5506 225.959 90.1878 224.229 93.3324C222.5 96.477 224.535 100.938 228.775 103.297C233.016 105.656 237.856 105.018 239.586 101.874Z" fill="#0063CC"/>
<path opacity="0.2" d="M239.776 122.716C242.578 120.486 242.412 115.58 239.404 111.759C236.396 107.939 231.686 106.649 228.884 108.88C226.082 111.11 226.248 116.016 229.256 119.836C232.264 123.657 236.974 124.946 239.776 122.716Z" fill="white"/>
<path opacity="0.5" d="M217.456 108.691C218.28 103.891 216.094 99.5048 212.574 98.8939C209.053 98.283 205.532 101.679 204.708 106.479C203.884 111.278 206.07 115.665 209.59 116.276C213.111 116.887 216.632 113.491 217.456 108.691Z" fill="white"/>
<path opacity="0.5" d="M239.586 101.874C241.316 98.7292 239.28 94.2679 235.04 91.9093C230.799 89.5506 225.959 90.1878 224.229 93.3324C222.5 96.477 224.535 100.938 228.775 103.297C233.016 105.656 237.856 105.018 239.586 101.874Z" fill="white"/>
<path d="M227.483 159.898H216.387L214.548 124.198H229.322L227.483 159.898Z" fill="#007CFF"/>
<path opacity="0.3" d="M227.483 159.898H216.387L214.548 124.198H229.322L227.483 159.898Z" fill="white"/>
<path d="M239.776 122.829C239.759 122.829 239.742 122.825 239.726 122.818C239.711 122.81 239.697 122.799 239.686 122.786L228.794 108.949C228.775 108.925 228.767 108.895 228.77 108.865C228.774 108.835 228.789 108.807 228.813 108.788C228.837 108.769 228.867 108.761 228.897 108.764C228.927 108.768 228.954 108.783 228.973 108.807L239.865 122.643C239.879 122.66 239.887 122.681 239.889 122.702C239.892 122.723 239.888 122.745 239.879 122.764C239.869 122.784 239.855 122.8 239.837 122.812C239.819 122.823 239.798 122.829 239.776 122.829H239.776Z" fill="white"/>
<path d="M238.861 102.982C238.837 102.982 238.813 102.974 238.794 102.96L224.856 92.7267C224.844 92.7178 224.834 92.7066 224.826 92.6937C224.818 92.6809 224.813 92.6666 224.81 92.6518C224.808 92.6369 224.809 92.6217 224.812 92.6071C224.816 92.5924 224.822 92.5787 224.831 92.5665C224.84 92.5543 224.851 92.5441 224.864 92.5362C224.877 92.5284 224.891 92.5232 224.906 92.5208C224.92 92.5185 224.935 92.5192 224.95 92.5227C224.964 92.5263 224.978 92.5326 224.99 92.5415L238.929 102.775C238.948 102.79 238.962 102.81 238.97 102.833C238.977 102.856 238.976 102.88 238.969 102.903C238.961 102.926 238.947 102.946 238.927 102.96C238.908 102.974 238.885 102.982 238.861 102.982V102.982Z" fill="white"/>
<path d="M209.153 116.123C209.143 116.123 209.133 116.121 209.123 116.119C209.094 116.111 209.069 116.092 209.054 116.066C209.039 116.039 209.035 116.008 209.042 115.979L213.48 99.2627C213.483 99.2479 213.49 99.234 213.499 99.2219C213.508 99.2097 213.519 99.1994 213.532 99.1917C213.545 99.184 213.56 99.1789 213.575 99.1769C213.59 99.1748 213.605 99.1758 213.62 99.1797C213.634 99.1836 213.648 99.1904 213.66 99.1997C213.672 99.209 213.682 99.2206 213.689 99.2338C213.697 99.2471 213.701 99.2617 213.703 99.2767C213.705 99.2918 213.704 99.3072 213.7 99.3218L209.263 116.038C209.256 116.062 209.242 116.084 209.222 116.099C209.202 116.114 209.178 116.123 209.153 116.123Z" fill="white"/>
</g>
<defs>
<clipPath id="clip0_11488_134172">
<rect width="208" height="140" fill="white" transform="translate(38 20)"/>
</clipPath>
</defs>
</svg>
