<svg width="284" height="180" viewBox="0 0 284 180" fill="none" xmlns="http://www.w3.org/2000/svg">
<rect width="284" height="180" rx="12" fill="#F2F7FC"/>
<path d="M59.2847 160C57.5034 160.003 55.7854 159.324 54.4675 158.096C53.1496 156.869 52.3269 155.181 52.1607 153.365C51.2369 142.997 53.4696 123.261 81.2687 114.748C111.326 105.543 103.016 67.7273 127.024 67.7273C151.031 67.7273 154.747 87.694 161.186 91.4262C172.662 98.0789 179.499 92.4069 187.929 108.576C197.946 127.786 218.033 117.591 228.354 141.503C229.341 143.832 230.136 146.243 230.729 148.71C232.139 154.446 227.866 160 222.092 160H59.2847Z" fill="#D7E1EA"/>
<path d="M114.105 24.664V28.2764H97.5606C95.8071 28.2764 94.1256 28.974 92.8857 30.2157C91.6458 31.4574 90.9493 33.1415 90.9492 34.8975V153.379C90.9492 155.135 91.6458 156.819 92.8856 158.061C94.1255 159.302 95.8071 160 97.5606 160H185.882C186.751 160 187.611 159.829 188.413 159.497C189.215 159.164 189.944 158.676 190.558 158.061C191.172 157.446 191.66 156.717 191.992 155.913C192.324 155.11 192.495 154.249 192.495 153.379V34.8975C192.495 34.0279 192.324 33.1668 191.992 32.3633C191.659 31.5599 191.172 30.8299 190.558 30.2151C189.944 29.6002 189.215 29.1126 188.413 28.7799C187.611 28.4473 186.751 28.2762 185.882 28.2764H169.339V24.664C169.339 24.0515 169.218 23.445 168.984 22.8792C168.75 22.3133 168.407 21.7992 167.975 21.3661C167.542 20.933 167.029 20.5894 166.464 20.355C165.899 20.1206 165.294 20 164.682 20H118.761C118.15 20 117.544 20.1206 116.979 20.355C116.414 20.5894 115.901 20.933 115.468 21.3661C115.036 21.7992 114.693 22.3133 114.459 22.8792C114.225 23.445 114.105 24.0515 114.105 24.664Z" fill="#007CFF"/>
<path d="M97.064 36.7765L97.064 151.5C97.064 153.146 98.3962 154.48 100.04 154.48H183.404C185.047 154.48 186.379 153.146 186.379 151.5V36.7765C186.379 35.1307 185.047 33.7965 183.404 33.7965H100.04C98.3962 33.7965 97.064 35.1307 97.064 36.7765Z" fill="white"/>
<path d="M120.028 28.4777V39.1155C120.028 40.2347 120.934 41.142 122.051 41.142H161.391C162.509 41.142 163.415 40.2347 163.415 39.1155V28.4777C163.415 27.3585 162.509 26.4512 161.391 26.4512H122.051C120.934 26.4512 120.028 27.3585 120.028 28.4777Z" fill="#0063CC"/>
<path d="M115.991 80.4886H106.256C105.266 80.4875 104.316 80.0929 103.615 79.3914C102.915 78.6899 102.521 77.7388 102.52 76.7468V66.9979C102.521 66.0059 102.915 65.055 103.616 64.3536C104.316 63.6522 105.266 63.2576 106.256 63.2565H115.991C116.981 63.2576 117.931 63.6522 118.631 64.3537C119.332 65.0552 119.726 66.0063 119.727 66.9983V76.7472C119.725 77.7392 119.331 78.6901 118.631 79.3915C117.931 80.0929 116.981 80.4875 115.991 80.4886ZM106.256 65.1523C105.768 65.1529 105.299 65.3476 104.954 65.6936C104.608 66.0396 104.414 66.5088 104.413 66.9981V76.747C104.414 77.2363 104.608 77.7055 104.954 78.0515C105.299 78.3975 105.768 78.5922 106.256 78.5928H115.991C116.479 78.5923 116.948 78.3976 117.293 78.0516C117.639 77.7055 117.833 77.2364 117.833 76.747V66.9981C117.833 66.5088 117.639 66.0396 117.293 65.6935C116.948 65.3475 116.479 65.1528 115.991 65.1523H106.256Z" fill="#D7E1EA"/>
<path d="M109.093 75.6345C108.972 75.6347 108.852 75.6089 108.741 75.5588C108.631 75.5087 108.532 75.4355 108.452 75.3441L105.562 72.0364C105.416 71.8657 105.343 71.6441 105.359 71.4199C105.375 71.1957 105.479 70.987 105.648 70.839C105.817 70.691 106.037 70.6157 106.261 70.6295C106.485 70.6434 106.695 70.7452 106.844 70.9128L109.186 73.5916L115.496 68.3086C115.67 68.1678 115.892 68.1011 116.115 68.1228C116.337 68.1445 116.542 68.253 116.686 68.4248C116.829 68.5967 116.899 68.818 116.881 69.0412C116.863 69.2644 116.758 69.4715 116.589 69.6179L109.64 75.4367C109.487 75.565 109.293 75.635 109.093 75.6345Z" fill="#1F1F1F"/>
<g opacity="0.62">
<path opacity="0.62" d="M123.858 71.8724V71.8726C123.858 72.5002 124.366 73.0089 124.993 73.0089H178.876C179.503 73.0089 180.011 72.5002 180.011 71.8726V71.8724C180.011 71.2449 179.503 70.7361 178.876 70.7361H124.993C124.366 70.7361 123.858 71.2449 123.858 71.8724Z" fill="#D7E1EA"/>
<path opacity="0.62" d="M123.858 64.9063V64.9065C123.858 65.534 124.366 66.0428 124.993 66.0428H178.876C179.503 66.0428 180.011 65.534 180.011 64.9065V64.9063C180.011 64.2787 179.503 63.77 178.876 63.77H124.993C124.366 63.77 123.858 64.2787 123.858 64.9063Z" fill="#D7E1EA"/>
<path opacity="0.62" d="M123.858 78.8384V78.8386C123.858 79.4661 124.366 79.9749 124.993 79.9749H169.41C170.037 79.9749 170.545 79.4661 170.545 78.8386V78.8384C170.545 78.2108 170.037 77.7021 169.41 77.7021H124.993C124.366 77.7021 123.858 78.2108 123.858 78.8384Z" fill="#D7E1EA"/>
</g>
<path d="M115.991 102.387H106.256C105.266 102.386 104.316 101.991 103.615 101.29C102.915 100.588 102.521 99.6371 102.52 98.645V88.8961C102.521 87.9041 102.915 86.9531 103.616 86.2516C104.316 85.5502 105.266 85.1556 106.256 85.1545H115.991C116.981 85.1556 117.931 85.5502 118.631 86.2516C119.332 86.9531 119.726 87.9041 119.727 88.8961V98.645C119.726 99.6371 119.332 100.588 118.631 101.29C117.931 101.991 116.981 102.386 115.991 102.387ZM106.256 87.0506C105.768 87.0512 105.299 87.2459 104.954 87.5919C104.608 87.9379 104.414 88.407 104.413 88.8964V98.6453C104.414 99.1346 104.608 99.6037 104.954 99.9498C105.299 100.296 105.768 100.49 106.256 100.491H115.991C116.479 100.491 116.948 100.296 117.293 99.9498C117.639 99.6038 117.833 99.1346 117.833 98.6453V88.8964C117.833 88.407 117.639 87.9379 117.293 87.5918C116.948 87.2458 116.479 87.0511 115.991 87.0506H106.256Z" fill="#D7E1EA"/>
<path d="M109.093 97.5327C108.972 97.5329 108.851 97.507 108.741 97.4567C108.63 97.4065 108.531 97.3331 108.451 97.2414L105.561 93.9335C105.412 93.7632 105.337 93.5406 105.352 93.3149C105.368 93.0891 105.472 92.8786 105.642 92.7296C105.812 92.5806 106.034 92.5054 106.259 92.5206C106.485 92.5357 106.695 92.6398 106.844 92.8102L109.186 95.4903L115.496 90.2074C115.582 90.1355 115.681 90.0813 115.788 90.0478C115.894 90.0143 116.007 90.0022 116.118 90.0122C116.229 90.0221 116.338 90.054 116.437 90.1059C116.536 90.1578 116.624 90.2288 116.696 90.3147C116.768 90.4007 116.822 90.4999 116.855 90.6068C116.889 90.7138 116.901 90.8262 116.891 90.9378C116.881 91.0494 116.849 91.1579 116.797 91.2572C116.745 91.3565 116.674 91.4446 116.589 91.5164L109.639 97.3343C109.486 97.4628 109.293 97.533 109.093 97.5327Z" fill="#1F1F1F"/>
<g opacity="0.62">
<path opacity="0.62" d="M123.857 93.7704V93.7707C123.857 94.3982 124.365 94.907 124.992 94.907H178.876C179.502 94.907 180.01 94.3982 180.01 93.7707V93.7704C180.01 93.1429 179.502 92.6342 178.876 92.6342H124.992C124.365 92.6342 123.857 93.1429 123.857 93.7704Z" fill="#D7E1EA"/>
<path opacity="0.62" d="M123.857 86.8043V86.8045C123.857 87.4321 124.365 87.9408 124.992 87.9408H178.876C179.502 87.9408 180.01 87.4321 180.01 86.8045V86.8043C180.01 86.1767 179.502 85.668 178.876 85.668H124.992C124.365 85.668 123.857 86.1767 123.857 86.8043Z" fill="#D7E1EA"/>
<path opacity="0.62" d="M123.857 100.737V100.737C123.857 101.364 124.365 101.873 124.992 101.873H169.41C170.036 101.873 170.544 101.364 170.544 100.737V100.737C170.544 100.109 170.036 99.6003 169.41 99.6003H124.992C124.365 99.6003 123.857 100.109 123.857 100.737Z" fill="#D7E1EA"/>
</g>
<path d="M115.991 124.285H106.256C105.266 124.284 104.316 123.889 103.615 123.188C102.915 122.486 102.521 121.535 102.52 120.543V110.794C102.521 109.802 102.915 108.851 103.616 108.15C104.316 107.448 105.266 107.054 106.256 107.053H115.991C116.981 107.054 117.931 107.448 118.631 108.15C119.332 108.851 119.726 109.802 119.727 110.794V120.543C119.726 121.535 119.332 122.486 118.631 123.188C117.931 123.889 116.981 124.284 115.991 124.285ZM106.256 108.949C105.768 108.949 105.299 109.144 104.954 109.49C104.608 109.836 104.414 110.305 104.413 110.794V120.543C104.414 121.033 104.608 121.502 104.954 121.848C105.299 122.194 105.767 122.389 106.256 122.389H115.991C116.479 122.389 116.948 122.194 117.293 121.848C117.639 121.502 117.833 121.033 117.833 120.543V110.794C117.833 110.305 117.639 109.836 117.293 109.49C116.948 109.144 116.479 108.949 115.991 108.949H106.256Z" fill="#D7E1EA"/>
<path d="M109.093 119.431C108.971 119.431 108.851 119.405 108.74 119.355C108.63 119.305 108.531 119.231 108.451 119.139L105.561 115.832C105.415 115.661 105.342 115.44 105.358 115.215C105.374 114.991 105.478 114.782 105.647 114.634C105.816 114.486 106.036 114.411 106.26 114.425C106.484 114.439 106.694 114.541 106.844 114.708L109.185 117.388L115.496 112.105C115.669 111.96 115.893 111.89 116.118 111.91C116.343 111.93 116.551 112.039 116.696 112.213C116.84 112.386 116.911 112.61 116.89 112.836C116.87 113.061 116.762 113.269 116.588 113.414L109.639 119.232C109.486 119.361 109.293 119.431 109.093 119.431Z" fill="#1F1F1F"/>
<g opacity="0.62">
<path opacity="0.62" d="M123.857 115.669V115.669C123.857 116.296 124.365 116.805 124.992 116.805H178.876C179.502 116.805 180.01 116.296 180.01 115.669V115.669C180.01 115.041 179.502 114.532 178.876 114.532H124.992C124.365 114.532 123.857 115.041 123.857 115.669Z" fill="#D7E1EA"/>
<path opacity="0.62" d="M123.857 108.703V108.703C123.857 109.33 124.365 109.839 124.992 109.839H178.876C179.502 109.839 180.01 109.33 180.01 108.703V108.703C180.01 108.075 179.502 107.566 178.876 107.566H124.992C124.365 107.566 123.857 108.075 123.857 108.703Z" fill="#D7E1EA"/>
<path opacity="0.62" d="M123.857 122.635V122.635C123.857 123.263 124.365 123.771 124.992 123.771H169.41C170.036 123.771 170.544 123.263 170.544 122.635V122.635C170.544 122.007 170.036 121.498 169.41 121.498H124.992C124.365 121.498 123.857 122.007 123.857 122.635Z" fill="#D7E1EA"/>
</g>
<path d="M115.991 146.292H106.256C105.266 146.291 104.316 145.896 103.616 145.195C102.915 144.493 102.521 143.542 102.52 142.55V132.801C102.521 131.809 102.915 130.858 103.615 130.157C104.316 129.455 105.266 129.061 106.256 129.059H115.991C116.981 129.061 117.931 129.455 118.631 130.157C119.332 130.858 119.726 131.809 119.727 132.801V142.55C119.726 143.542 119.332 144.493 118.631 145.195C117.931 145.896 116.981 146.291 115.991 146.292ZM106.256 130.956C105.767 130.956 105.299 131.151 104.954 131.497C104.608 131.843 104.414 132.312 104.413 132.801V142.55C104.414 143.04 104.608 143.509 104.954 143.855C105.299 144.201 105.768 144.396 106.256 144.396H115.991C116.479 144.396 116.948 144.201 117.293 143.855C117.639 143.509 117.833 143.04 117.833 142.55V132.801C117.833 132.312 117.639 131.843 117.293 131.497C116.948 131.151 116.479 130.956 115.991 130.956H106.256Z" fill="#D7E1EA"/>
<path d="M109.093 141.438C108.971 141.438 108.851 141.412 108.74 141.362C108.63 141.312 108.531 141.238 108.451 141.146L105.561 137.839C105.415 137.668 105.342 137.446 105.358 137.222C105.374 136.998 105.478 136.789 105.647 136.641C105.816 136.493 106.036 136.418 106.26 136.432C106.484 136.446 106.694 136.547 106.844 136.715L109.185 139.395L115.496 134.112C115.581 134.038 115.681 133.982 115.788 133.947C115.896 133.912 116.009 133.898 116.122 133.907C116.234 133.917 116.344 133.948 116.444 134C116.545 134.052 116.634 134.124 116.706 134.211C116.779 134.297 116.833 134.398 116.867 134.506C116.9 134.614 116.912 134.728 116.901 134.841C116.89 134.953 116.856 135.063 116.803 135.162C116.749 135.262 116.676 135.35 116.588 135.421L109.639 141.239C109.486 141.368 109.293 141.438 109.093 141.438Z" fill="#1F1F1F"/>
<g opacity="0.62">
<path opacity="0.62" d="M123.857 137.676V137.676C123.857 138.303 124.365 138.812 124.992 138.812H178.876C179.502 138.812 180.01 138.303 180.01 137.676V137.676C180.01 137.048 179.502 136.539 178.876 136.539H124.992C124.365 136.539 123.857 137.048 123.857 137.676Z" fill="#D7E1EA"/>
<path opacity="0.62" d="M123.857 130.709V130.71C123.857 131.337 124.365 131.846 124.992 131.846H178.876C179.502 131.846 180.01 131.337 180.01 130.71V130.709C180.01 130.082 179.502 129.573 178.876 129.573H124.992C124.365 129.573 123.857 130.082 123.857 130.709Z" fill="#D7E1EA"/>
<path opacity="0.62" d="M123.857 144.641V144.642C123.857 145.269 124.365 145.778 124.992 145.778H169.41C170.036 145.778 170.544 145.269 170.544 144.642V144.641C170.544 144.014 170.036 143.505 169.41 143.505H124.992C124.365 143.505 123.857 144.014 123.857 144.641Z" fill="#D7E1EA"/>
</g>
<path d="M117.428 47.624L114.356 56H112.316L109.244 47.624H111.044L113.348 54.284L115.64 47.624H117.428ZM120.115 48.98V51.08H122.935V52.412H120.115V54.632H123.295V56H118.435V47.612H123.295V48.98H120.115ZM129.142 56L127.294 52.736H126.502V56H124.822V47.624H127.966C128.614 47.624 129.166 47.74 129.622 47.972C130.078 48.196 130.418 48.504 130.642 48.896C130.874 49.28 130.99 49.712 130.99 50.192C130.99 50.744 130.83 51.244 130.51 51.692C130.19 52.132 129.714 52.436 129.082 52.604L131.086 56H129.142ZM126.502 51.476H127.906C128.362 51.476 128.702 51.368 128.926 51.152C129.15 50.928 129.262 50.62 129.262 50.228C129.262 49.844 129.15 49.548 128.926 49.34C128.702 49.124 128.362 49.016 127.906 49.016H126.502V51.476ZM134.19 47.624V56H132.51V47.624H134.19ZM141.021 47.624V48.98H137.529V51.128H140.205V52.46H137.529V56H135.849V47.624H141.021ZM143.893 47.624V56H142.213V47.624H143.893ZM150.281 56L147.233 52.268V56H145.553V47.624H147.233V51.38L150.281 47.624H152.309L148.853 51.776L152.405 56H150.281ZM158.646 54.404H155.31L154.758 56H152.994L156.006 47.612H157.962L160.974 56H159.198L158.646 54.404ZM158.19 53.06L156.978 49.556L155.766 53.06H158.19ZM164.991 56.084C164.407 56.084 163.879 55.984 163.407 55.784C162.943 55.584 162.575 55.296 162.303 54.92C162.031 54.544 161.891 54.1 161.883 53.588H163.683C163.707 53.932 163.827 54.204 164.043 54.404C164.267 54.604 164.571 54.704 164.955 54.704C165.347 54.704 165.655 54.612 165.879 54.428C166.103 54.236 166.215 53.988 166.215 53.684C166.215 53.436 166.139 53.232 165.987 53.072C165.835 52.912 165.643 52.788 165.411 52.7C165.187 52.604 164.875 52.5 164.475 52.388C163.931 52.228 163.487 52.072 163.143 51.92C162.807 51.76 162.515 51.524 162.267 51.212C162.027 50.892 161.907 50.468 161.907 49.94C161.907 49.444 162.031 49.012 162.279 48.644C162.527 48.276 162.875 47.996 163.323 47.804C163.771 47.604 164.283 47.504 164.859 47.504C165.723 47.504 166.423 47.716 166.959 48.14C167.503 48.556 167.803 49.14 167.859 49.892H166.011C165.995 49.604 165.871 49.368 165.639 49.184C165.415 48.992 165.115 48.896 164.739 48.896C164.411 48.896 164.147 48.98 163.947 49.148C163.755 49.316 163.659 49.56 163.659 49.88C163.659 50.104 163.731 50.292 163.875 50.444C164.027 50.588 164.211 50.708 164.427 50.804C164.651 50.892 164.963 50.996 165.363 51.116C165.907 51.276 166.351 51.436 166.695 51.596C167.039 51.756 167.335 51.996 167.583 52.316C167.831 52.636 167.955 53.056 167.955 53.576C167.955 54.024 167.839 54.44 167.607 54.824C167.375 55.208 167.035 55.516 166.587 55.748C166.139 55.972 165.607 56.084 164.991 56.084ZM171.092 47.624V56H169.412V47.624H171.092Z" fill="#007CFF"/>
</svg>
