<svg width="52" height="27" viewBox="0 0 52 27" fill="none" xmlns="http://www.w3.org/2000/svg">
<rect width="52" height="27" rx="5" fill="#FFA800"/>
<path d="M16.352 9.624L13.28 18H11.24L8.168 9.624H9.968L12.272 16.284L14.564 9.624H16.352ZM20.7312 18.084C20.1472 18.084 19.6192 17.984 19.1472 17.784C18.6832 17.584 18.3152 17.296 18.0432 16.92C17.7712 16.544 17.6312 16.1 17.6232 15.588H19.4232C19.4472 15.932 19.5672 16.204 19.7832 16.404C20.0072 16.604 20.3112 16.704 20.6952 16.704C21.0872 16.704 21.3952 16.612 21.6192 16.428C21.8432 16.236 21.9552 15.988 21.9552 15.684C21.9552 15.436 21.8792 15.232 21.7272 15.072C21.5752 14.912 21.3832 14.788 21.1512 14.7C20.9272 14.604 20.6152 14.5 20.2152 14.388C19.6712 14.228 19.2272 14.072 18.8832 13.92C18.5472 13.76 18.2552 13.524 18.0072 13.212C17.7672 12.892 17.6472 12.468 17.6472 11.94C17.6472 11.444 17.7712 11.012 18.0192 10.644C18.2672 10.276 18.6152 9.996 19.0632 9.804C19.5112 9.604 20.0232 9.504 20.5992 9.504C21.4632 9.504 22.1632 9.716 22.6992 10.14C23.2433 10.556 23.5433 11.14 23.5992 11.892H21.7512C21.7352 11.604 21.6112 11.368 21.3792 11.184C21.1552 10.992 20.8552 10.896 20.4792 10.896C20.1512 10.896 19.8872 10.98 19.6872 11.148C19.4952 11.316 19.3992 11.56 19.3992 11.88C19.3992 12.104 19.4712 12.292 19.6152 12.444C19.7672 12.588 19.9512 12.708 20.1672 12.804C20.3912 12.892 20.7032 12.996 21.1032 13.116C21.6472 13.276 22.0912 13.436 22.4352 13.596C22.7792 13.756 23.0752 13.996 23.3232 14.316C23.5712 14.636 23.6953 15.056 23.6953 15.576C23.6953 16.024 23.5792 16.44 23.3472 16.824C23.1152 17.208 22.7752 17.516 22.3272 17.748C21.8792 17.972 21.3472 18.084 20.7312 18.084ZM31.4637 12.144C31.2717 11.792 31.0077 11.524 30.6717 11.34C30.3357 11.156 29.9437 11.064 29.4957 11.064C28.9997 11.064 28.5597 11.176 28.1757 11.4C27.7917 11.624 27.4917 11.944 27.2757 12.36C27.0597 12.776 26.9517 13.256 26.9517 13.8C26.9517 14.36 27.0597 14.848 27.2757 15.264C27.4997 15.68 27.8077 16 28.1997 16.224C28.5917 16.448 29.0477 16.56 29.5677 16.56C30.2077 16.56 30.7317 16.392 31.1397 16.056C31.5477 15.712 31.8157 15.236 31.9437 14.628H29.0637V13.344H33.5997V14.808C33.4877 15.392 33.2477 15.932 32.8797 16.428C32.5117 16.924 32.0357 17.324 31.4517 17.628C30.8757 17.924 30.2277 18.072 29.5077 18.072C28.6997 18.072 27.9677 17.892 27.3117 17.532C26.6637 17.164 26.1517 16.656 25.7757 16.008C25.4077 15.36 25.2237 14.624 25.2237 13.8C25.2237 12.976 25.4077 12.24 25.7757 11.592C26.1517 10.936 26.6637 10.428 27.3117 10.068C27.9677 9.7 28.6957 9.516 29.4957 9.516C30.4397 9.516 31.2597 9.748 31.9557 10.212C32.6517 10.668 33.1317 11.312 33.3957 12.144H31.4637ZM40.4587 16.404H37.1227L36.5707 18H34.8067L37.8187 9.612H39.7747L42.7867 18H41.0107L40.4587 16.404ZM40.0027 15.06L38.7907 11.556L37.5787 15.06H40.0027Z" fill="white"/>
</svg>
